<?plantuml 1.2026.2?><svg xmlns="http://www.w3.org/2000/svg" xmlns:xlink="http://www.w3.org/1999/xlink" contentStyleType="text/css" data-diagram-type="CLASS" height="447px" preserveAspectRatio="none" style="width:456px;height:447px;background:#FFFFFF;" version="1.1" viewBox="0 0 456 447" width="456px" zoomAndPan="magnify"><defs/><g><!--class EventSystem--><g class="entity" data-qualified-name="EventSystem" data-source-line="2" id="ent0002"><rect fill="#F1F1F1" height="80.5938" rx="2.5" ry="2.5" style="stroke:#181818;stroke-width:0.5;" width="300.75" x="77.83" y="7"/><ellipse cx="177.7987" cy="23" fill="#A9DCDF" rx="11" ry="11" style="stroke:#181818;stroke-width:1;"/><path d="M178.3769,18.2656 L176.4706,23.3906 L180.2831,23.3906 L178.3769,18.2656 Z M177.2362,15.5781 L179.5175,15.5781 L184.4394,28.5 L182.1269,28.5 L180.9862,25.3281 L175.7831,25.3281 L174.6581,28.5 L172.3144,28.5 L177.2362,15.5781 Z " fill="#000000"/><text fill="#000000" font-family="sans-serif" font-size="14" font-style="italic" lengthAdjust="spacing" textLength="92.3125" x="198.2987" y="27.8467">EventSystem</text><line style="stroke:#181818;stroke-width:0.5;" x1="78.83" x2="377.58" y1="39" y2="39"/><line style="stroke:#181818;stroke-width:0.5;" x1="78.83" x2="377.58" y1="47" y2="47"/><text fill="#000000" font-family="sans-serif" font-size="14" lengthAdjust="spacing" textLength="288.75" x="83.83" y="63.9951">signal void sigSendEvent(QEvent *event)</text><text fill="#000000" font-family="sans-serif" font-size="14" font-style="italic" lengthAdjust="spacing" textLength="241.6641" x="83.83" y="80.292">void processEvent(QEvent *event)</text></g><!--class VeinQml--><g class="entity" data-qualified-name="VeinQml" data-source-line="7" id="ent0003"><rect fill="#F1F1F1" height="292.4531" rx="2.5" ry="2.5" style="stroke:#181818;stroke-width:0.5;" width="442.4111" x="7" y="147.6"/><ellipse cx="194.2056" cy="163.6" fill="#ADD1B2" rx="11" ry="11" style="stroke:#181818;stroke-width:1;"/><path d="M198.4399,158.0063 L198.4399,160.5219 Q197.1899,159.3656 196.2681,158.9906 Q195.3618,158.6156 194.3306,158.6156 Q192.3306,158.6156 191.2681,159.8344 Q190.2056,161.0375 190.2056,163.3969 Q190.2056,165.7563 191.2681,166.975 Q192.3306,168.1781 194.3306,168.1781 Q195.3618,168.1781 196.2681,167.8031 Q197.1899,167.4281 198.4399,166.2719 L198.4399,168.7719 Q197.3931,169.475 196.3774,169.7875 Q195.3774,170.0844 194.2212,170.0844 Q191.2993,170.0844 189.5962,168.2875 Q187.9087,166.4906 187.9087,163.3969 Q187.9087,160.3031 189.5962,158.5063 Q191.2993,156.6938 194.2212,156.6938 Q195.3931,156.6938 196.3931,157.0063 Q197.4087,157.3031 198.4399,158.0063 Z " fill="#000000"/><text fill="#000000" font-family="sans-serif" font-size="14" lengthAdjust="spacing" textLength="59.5" x="214.7056" y="168.4467">VeinQml</text><line style="stroke:#181818;stroke-width:0.5;" x1="8" x2="448.4111" y1="179.6" y2="179.6"/><text fill="#000000" font-family="sans-serif" font-size="14" lengthAdjust="spacing" textLength="156.1875" x="13" y="196.5951">ConnectionState state</text><line style="stroke:#181818;stroke-width:0.5;" x1="8" x2="448.4111" y1="203.8969" y2="203.8969"/><text fill="#000000" font-family="sans-serif" font-size="14" lengthAdjust="spacing" textLength="152.5645" x="13" y="220.892">void processEvent(...)</text><text fill="#000000" font-family="sans-serif" font-size="14" lengthAdjust="spacing" textLength="8.9072" x="13" y="237.1889">&#160;</text><text fill="#000000" font-family="sans-serif" font-size="14" lengthAdjust="spacing" textLength="430.4111" x="13" y="253.4857">EntityComponentMap *getEntity(const QString &amp;entityName)</text><text fill="#000000" font-family="sans-serif" font-size="14" lengthAdjust="spacing" textLength="303.3789" x="13" y="269.7826">bool hasEntity(const QString &amp;entityName)</text><text fill="#000000" font-family="sans-serif" font-size="14" lengthAdjust="spacing" textLength="304.3154" x="13" y="286.0795">EntityComponentMap *getEntityById(int id)</text><text fill="#000000" font-family="sans-serif" font-size="14" lengthAdjust="spacing" textLength="180.9131" x="13" y="302.3764">QList&lt;int&gt; getEntityList()</text><text fill="#000000" font-family="sans-serif" font-size="14" lengthAdjust="spacing" textLength="8.9072" x="13" y="318.6732">&#160;</text><text fill="#000000" font-family="sans-serif" font-size="14" lengthAdjust="spacing" text-decoration="underline" textLength="204.4424" x="13" y="334.9701">VeinQml *getStaticInstance()</text><text fill="#000000" font-family="sans-serif" font-size="14" lengthAdjust="spacing" text-decoration="underline" textLength="296.2354" x="13" y="351.267">void setStaticInstance(VeinQml *instance)</text><text fill="#000000" font-family="sans-serif" font-size="14" lengthAdjust="spacing" textLength="261.6865" x="13" y="367.5639">void entitySubscribeById(int entityId)</text><text fill="#000000" font-family="sans-serif" font-size="14" lengthAdjust="spacing" textLength="279.2139" x="13" y="383.8607">void entityUnsubscribeById(int entityId)</text><text fill="#000000" font-family="sans-serif" font-size="14" lengthAdjust="spacing" textLength="8.9072" x="13" y="400.1576">&#160;</text><text fill="#000000" font-family="sans-serif" font-size="14" lengthAdjust="spacing" textLength="366.666" x="13" y="416.4545">signal void sigStateChanged(ConnectionState state)</text><text fill="#000000" font-family="sans-serif" font-size="14" lengthAdjust="spacing" textLength="234.124" x="13" y="432.7514">signal sigSystemEntityAvailable()</text></g><!--reverse link EventSystem to VeinQml--><g class="link" data-entity-1="ent0002" data-entity-2="ent0003" data-link-type="extension" data-source-line="25" id="lnk4"><path codeLine="25" d="M228.21,105.86 C228.21,122.69 228.21,125.45 228.21,147.24" fill="none" id="EventSystem-backto-VeinQml" style="stroke:#181818;stroke-width:1;"/><polygon fill="none" points="228.21,87.86,222.21,105.86,234.21,105.86,228.21,87.86" style="stroke:#181818;stroke-width:1;"/></g><?plantuml-src ZPBDQeD04CVlFiMUYWQI9mY5DkGGQ0iYxNrS1pEWi-9C0sBpxdLthKr92FNWBl_vxNn3ATg3LMCR437x4x8MWoYsPapCz0dL38qvEQhylK2k0fJcuJ0hz4SMs15cR-V8TxspA7AJFoT93Fc1n7dRpE5sZXcjakD2GT68_mVBjSVDPfCbmRPd9HrshkqSJvPNwCogHeroQXsBchpGdhWs3nZKDsWnPbqwrvWZoF_ekw6UXqELqbGbLP7ENqXqEocFPe6ybCw9Zxu-ikUb2zvN4RJ3b0QmnJJxIyP9N56B0vgLxBThiORYinJRKubBbb4_L5VeEyiT-EPU-3djZi0rLkdD8MQNp_oBi6Mn9Kyde0RAnXSxBSRb5cw_rkkVxYJV?></g></svg>