<?xml version="1.0" encoding="us-ascii" standalone="no"?><svg xmlns="http://www.w3.org/2000/svg" xmlns:xlink="http://www.w3.org/1999/xlink" contentStyleType="text/css" height="532px" preserveAspectRatio="none" style="width:436px;height:532px;background:#FFFFFF;" version="1.1" viewBox="0 0 436 532" width="436px" zoomAndPan="magnify"><defs/><g><!--cluster framework--><g id="cluster_framework"><rect fill="none" height="140" rx="2.5" ry="2.5" style="stroke:#181818;stroke-width:1.0;" width="318" x="59" y="7"/><path d="M144.9375,7 L144.9375,19.0679 L134.9375,29.0679 L59,29.0679 " fill="none" style="stroke:#181818;stroke-width:1.0;"/><text fill="#000000" font-family="sans-serif" font-size="14" font-weight="bold" lengthAdjust="spacing" textLength="75.9375" x="62" y="22.9659">framework</text></g><!--class EventSystem--><g id="elem_EventSystem"><rect codeLine="3" fill="#F1F1F1" height="86.1358" id="EventSystem" rx="2.5" ry="2.5" style="stroke:#181818;stroke-width:0.5;" width="285" x="75.5" y="45"/><ellipse cx="174.75" cy="61" fill="#A9DCDF" rx="11" ry="11" style="stroke:#181818;stroke-width:1.0;"/><path d="M178.0938,66.25 L176.625,62.5 L172.1875,62.5 L170.75,66.25 L168.625,66.25 L173.5781,53.5313 L175.3281,53.5313 L180.25,66.25 L178.0938,66.25 Z M174.75,57.2969 Q174.7031,57.1406 174.5781,56.7813 Q174.4531,56.4219 174.3438,56.0469 Q174.2344,55.6563 174.4375,55.5938 Q174.5938,55.7813 174.5,56.1406 Q174.4063,56.4844 174.3125,56.7813 Q174.2188,57.0625 174.1406,57.2969 L172.9063,60.6094 L175.9844,60.6094 L174.75,57.2969 Z " fill="#000000"/><text fill="#000000" font-family="sans-serif" font-size="14" font-style="italic" lengthAdjust="spacing" textLength="78" x="195.25" y="66.432">EventSystem</text><line style="stroke:#181818;stroke-width:0.5;" x1="76.5" x2="359.5" y1="77" y2="77"/><line style="stroke:#181818;stroke-width:0.5;" x1="76.5" x2="359.5" y1="85" y2="85"/><text fill="#000000" font-family="sans-serif" font-size="14" lengthAdjust="spacing" textLength="273" x="81.5" y="103.9659">signal void sigSendEvent(QEvent *event)</text><text fill="#000000" font-family="sans-serif" font-size="14" font-style="italic" lengthAdjust="spacing" textLength="210" x="81.5" y="123.0339">void processEvent(QEvent *event)</text></g><!--class VeinQml--><g id="elem_VeinQml"><rect codeLine="9" fill="#F1F1F1" height="334.0188" id="VeinQml" rx="2.5" ry="2.5" style="stroke:#181818;stroke-width:0.5;" width="422" x="7" y="191"/><ellipse cx="185.25" cy="207" fill="#ADD1B2" rx="11" ry="11" style="stroke:#181818;stroke-width:1.0;"/><path d="M185.3594,202.5313 Q184.4375,202.5313 183.7031,202.8438 Q182.9844,203.1563 182.4844,203.75 Q181.9844,204.3281 181.7031,205.2031 Q181.4375,206.0781 181.4375,207.1719 Q181.4375,208.6094 181.875,209.6563 Q182.3281,210.7031 183.1719,211.25 Q184.0313,211.7969 185.3438,211.7969 Q186.125,211.7969 186.8125,211.6719 Q187.5156,211.5313 188.5156,211.2188 L188.5156,213.0938 Q187.6563,213.4219 186.8906,213.5469 Q186.1406,213.6719 185.125,213.6719 Q183.2031,213.6719 181.8906,212.875 Q180.5938,212.0625 179.9375,210.5938 Q179.2813,209.1094 179.2813,207.1406 Q179.2813,205.7188 179.6719,204.5469 Q180.0781,203.3594 180.8594,202.4844 Q181.6406,201.6094 182.7813,201.1406 Q183.9219,200.6563 185.3906,200.6563 Q186.3438,200.6563 187.2344,200.8594 Q188.1406,201.0469 189.0781,201.5156 L188.25,203.2969 Q187.4688,202.9219 186.8125,202.7344 Q186.1563,202.5313 185.3594,202.5313 Z " fill="#000000"/><text fill="#000000" font-family="sans-serif" font-size="14" lengthAdjust="spacing" textLength="57" x="205.75" y="212.432">VeinQml</text><line style="stroke:#181818;stroke-width:0.5;" x1="8" x2="428" y1="223" y2="223"/><text fill="#000000" font-family="sans-serif" font-size="14" lengthAdjust="spacing" textLength="147" x="13" y="241.9659">ConnectionState state</text><line style="stroke:#181818;stroke-width:0.5;" x1="8" x2="428" y1="250.0679" y2="250.0679"/><text fill="#000000" font-family="sans-serif" font-size="14" lengthAdjust="spacing" textLength="141" x="13" y="269.0339">void processEvent(...)</text><text fill="#000000" font-family="sans-serif" font-size="14" lengthAdjust="spacing" textLength="4" x="13" y="288.1018">&#160;</text><text fill="#000000" font-family="sans-serif" font-size="14" lengthAdjust="spacing" textLength="410" x="13" y="307.1697">EntityComponentMap *getEntity(const QString &amp;entityName)</text><text fill="#000000" font-family="sans-serif" font-size="14" lengthAdjust="spacing" textLength="287" x="13" y="326.2376">bool hasEntity(const QString &amp;entityName)</text><text fill="#000000" font-family="sans-serif" font-size="14" lengthAdjust="spacing" textLength="291" x="13" y="345.3055">EntityComponentMap *getEntityById(int id)</text><text fill="#000000" font-family="sans-serif" font-size="14" lengthAdjust="spacing" textLength="163" x="13" y="364.3734">QList&lt;int&gt; getEntityList()</text><text fill="#000000" font-family="sans-serif" font-size="14" lengthAdjust="spacing" textLength="4" x="13" y="383.4414">&#160;</text><text fill="#000000" font-family="sans-serif" font-size="14" lengthAdjust="spacing" text-decoration="underline" textLength="194" x="13" y="402.5093">VeinQml *getStaticInstance()</text><text fill="#000000" font-family="sans-serif" font-size="14" lengthAdjust="spacing" text-decoration="underline" textLength="281" x="13" y="421.5772">void setStaticInstance(VeinQml *instance)</text><text fill="#000000" font-family="sans-serif" font-size="14" lengthAdjust="spacing" textLength="249" x="13" y="440.6451">void entitySubscribeById(int entityId)</text><text fill="#000000" font-family="sans-serif" font-size="14" lengthAdjust="spacing" textLength="267" x="13" y="459.713">void entityUnsubscribeById(int entityId)</text><text fill="#000000" font-family="sans-serif" font-size="14" lengthAdjust="spacing" textLength="4" x="13" y="478.7809">&#160;</text><text fill="#000000" font-family="sans-serif" font-size="14" lengthAdjust="spacing" textLength="347" x="13" y="497.8489">signal void sigStateChanged(ConnectionState state)</text><text fill="#000000" font-family="sans-serif" font-size="14" lengthAdjust="spacing" textLength="306" x="13" y="516.9168">signal sigEntityAvailable(QString entityName)</text></g><!--reverse link EventSystem to VeinQml--><g id="link_EventSystem_VeinQml"><path codeLine="27" d="M218,152.72 C218,164.5 218,177.29 218,190.53 " fill="none" id="EventSystem-backto-VeinQml" style="stroke:#181818;stroke-width:1.0;"/><polygon fill="none" points="211,152.98,218,132.98,225,152.98,211,152.98" style="stroke:#181818;stroke-width:1.0;"/></g><!--SRC=[ZLB1QiCm3BtdAqGFmocqNn0AM-aWi0r2sEwAewMcYHnYhwDq-VVPSPfrj2lp8NAUdcJfIItA7LO4i_SE6_hKtMu6IVBeVrOhE4RW3XR6TYWjo1gDWSsUsEO7OwaP2VuOLJ7MiDUgzFUSk1o88XiCpCcRUE8VJrdx4DDsMf8nVyRqKHz5eO0tKfmrzVZuMZEJj4fpRj4I6FyTF9Tvbyjb70s-3Ljb3slTj9gTvnbRc5Ta0ooaPcCXossdk88x6j0NfqcefT2wXYsQ_x5lFlLmI4kXNA-g3EpiIHcRE6G54yb3OYpywFjJifzKyBdo0KjT6SYIHFoR6MPomPeIg169VrGBFUGVXP6TAcYgCk1fUK5zPNE375tR43-dzHQveb9S7M9y7kPC4ED-Zwh6eYPnKlnSSBSav_kPV2qM9wMYRm00]--></g></svg>