<svg xmlns="http://www.w3.org/2000/svg" xmlns:xlink="http://www.w3.org/1999/xlink" contentStyleType="text/css" data-diagram-type="CLASS" height="494px" preserveAspectRatio="none" style="width:429px;height:494px;background:#FFFFFF;" version="1.1" viewBox="0 0 429 494" width="429px" zoomAndPan="magnify"><defs/><g><!--class EventSystem--><g id="elem_EventSystem"><rect codeLine="2" fill="#F1F1F1" height="86.1358" id="EventSystem" rx="2.5" ry="2.5" style="stroke:#181818;stroke-width:0.5;" width="278.1949" x="75.48" y="7"/><ellipse cx="171.8206" cy="23" fill="#A9DCDF" rx="11" ry="11" style="stroke:#181818;stroke-width:1;"/><path d="M175.1644,28.25 L173.6956,24.5 L169.2581,24.5 L167.8206,28.25 L165.6956,28.25 L170.6487,15.5313 L172.3987,15.5313 L177.3206,28.25 L175.1644,28.25 Z M171.8206,19.2969 Q171.7737,19.1406 171.6487,18.7813 Q171.5237,18.4219 171.4144,18.0469 Q171.305,17.6563 171.5081,17.5938 Q171.6644,17.7813 171.5706,18.1406 Q171.4769,18.4844 171.3831,18.7813 Q171.2894,19.0625 171.2112,19.2969 L169.9769,22.6094 L173.055,22.6094 L171.8206,19.2969 Z " fill="#000000"/><text fill="#000000" font-family="sans-serif" font-size="14" font-style="italic" lengthAdjust="spacing" textLength="77.0137" x="192.3206" y="28.432">EventSystem</text><line style="stroke:#181818;stroke-width:0.5;" x1="76.48" x2="352.6749" y1="39" y2="39"/><line style="stroke:#181818;stroke-width:0.5;" x1="76.48" x2="352.6749" y1="47" y2="47"/><text fill="#000000" font-family="sans-serif" font-size="14" lengthAdjust="spacing" textLength="266.1949" x="81.48" y="65.9659">signal void sigSendEvent(QEvent *event)</text><text fill="#000000" font-family="sans-serif" font-size="14" font-style="italic" lengthAdjust="spacing" textLength="206.5412" x="81.48" y="85.0339">void processEvent(QEvent *event)</text></g><!--class VeinQml--><g id="elem_VeinQml"><rect codeLine="7" fill="#F1F1F1" height="334.0188" id="VeinQml" rx="2.5" ry="2.5" style="stroke:#181818;stroke-width:0.5;" width="415.1564" x="7" y="153.13"/><ellipse cx="182.2303" cy="169.13" fill="#ADD1B2" rx="11" ry="11" style="stroke:#181818;stroke-width:1;"/><path d="M182.3397,164.6613 Q181.4178,164.6613 180.6835,164.9738 Q179.9647,165.2863 179.4647,165.88 Q178.9647,166.4581 178.6835,167.3331 Q178.4178,168.2081 178.4178,169.3019 Q178.4178,170.7394 178.8553,171.7863 Q179.3085,172.8331 180.1522,173.38 Q181.0116,173.9269 182.3241,173.9269 Q183.1053,173.9269 183.7928,173.8019 Q184.496,173.6613 185.496,173.3488 L185.496,175.2238 Q184.6366,175.5519 183.871,175.6769 Q183.121,175.8019 182.1053,175.8019 Q180.1835,175.8019 178.871,175.005 Q177.5741,174.1925 176.9178,172.7238 Q176.2616,171.2394 176.2616,169.2706 Q176.2616,167.8488 176.6522,166.6769 Q177.0585,165.4894 177.8397,164.6144 Q178.621,163.7394 179.7616,163.2706 Q180.9022,162.7863 182.371,162.7863 Q183.3241,162.7863 184.2147,162.9894 Q185.121,163.1769 186.0585,163.6456 L185.2303,165.4269 Q184.4491,165.0519 183.7928,164.8644 Q183.1366,164.6613 182.3397,164.6613 Z " fill="#000000"/><text fill="#000000" font-family="sans-serif" font-size="14" lengthAdjust="spacing" textLength="56.1958" x="202.7303" y="174.562">VeinQml</text><line style="stroke:#181818;stroke-width:0.5;" x1="8" x2="421.1564" y1="185.13" y2="185.13"/><text fill="#000000" font-family="sans-serif" font-size="14" lengthAdjust="spacing" textLength="144.7735" x="13" y="204.0959">ConnectionState state</text><line style="stroke:#181818;stroke-width:0.5;" x1="8" x2="421.1564" y1="212.1979" y2="212.1979"/><text fill="#000000" font-family="sans-serif" font-size="14" lengthAdjust="spacing" textLength="138.4875" x="13" y="231.1639">void processEvent(...)</text><text fill="#000000" font-family="sans-serif" font-size="14" lengthAdjust="spacing" textLength="3.64" x="13" y="250.2318">&#160;</text><text fill="#000000" font-family="sans-serif" font-size="14" lengthAdjust="spacing" textLength="403.1564" x="13" y="269.2997">EntityComponentMap *getEntity(const QString &amp;entityName)</text><text fill="#000000" font-family="sans-serif" font-size="14" lengthAdjust="spacing" textLength="282.0569" x="13" y="288.3676">bool hasEntity(const QString &amp;entityName)</text><text fill="#000000" font-family="sans-serif" font-size="14" lengthAdjust="spacing" textLength="285.5849" x="13" y="307.4355">EntityComponentMap *getEntityById(int id)</text><text fill="#000000" font-family="sans-serif" font-size="14" lengthAdjust="spacing" textLength="160.5794" x="13" y="326.5034">QList&lt;int&gt; getEntityList()</text><text fill="#000000" font-family="sans-serif" font-size="14" lengthAdjust="spacing" textLength="3.64" x="13" y="345.5714">&#160;</text><text fill="#000000" font-family="sans-serif" font-size="14" lengthAdjust="spacing" text-decoration="underline" textLength="189.7693" x="13" y="364.6393">VeinQml *getStaticInstance()</text><text fill="#000000" font-family="sans-serif" font-size="14" lengthAdjust="spacing" text-decoration="underline" textLength="274.455" x="13" y="383.7072">void setStaticInstance(VeinQml *instance)</text><text fill="#000000" font-family="sans-serif" font-size="14" lengthAdjust="spacing" textLength="242.8431" x="13" y="402.7751">void entitySubscribeById(int entityId)</text><text fill="#000000" font-family="sans-serif" font-size="14" lengthAdjust="spacing" textLength="260.749" x="13" y="421.843">void entityUnsubscribeById(int entityId)</text><text fill="#000000" font-family="sans-serif" font-size="14" lengthAdjust="spacing" textLength="3.64" x="13" y="440.9109">&#160;</text><text fill="#000000" font-family="sans-serif" font-size="14" lengthAdjust="spacing" textLength="338.8967" x="13" y="459.9789">signal void sigStateChanged(ConnectionState state)</text><text fill="#000000" font-family="sans-serif" font-size="14" lengthAdjust="spacing" textLength="297.2748" x="13" y="479.0468">signal sigEntityAvailable(QString entityName)</text></g><!--reverse link EventSystem to VeinQml--><g id="link_EventSystem_VeinQml"><path codeLine="25" d="M214.58,111.54 C214.58,128.45 214.58,131.07 214.58,152.91 " fill="transparent" id="EventSystem-backto-VeinQml" style="stroke:#181818;stroke-width:1;"/><polygon fill="transparent" points="214.58,93.54,208.58,111.54,220.58,111.54,214.58,93.54" style="stroke:#181818;stroke-width:1;"/></g><!--SRC=[ZPBDQeD04CVlFiMUoXf8dY0Ksf1382s8jFTn7So2pWPd6X2RT-z-69kI4Eh1aV_yd6-eM7emeamBp6fxGf9oOC5EZPdo3zk6e5KdP-lmNIBL4T95D6g1mUIH7M6ATaxyiNS6cU_ovonBAJ_HKj6rKxgD8q8Zrb4f8AWulAFdDk9gjSgpwDkIM1ashZiwyfutEAf5Wv9aRHongAAKtbAZdZ2gxz1XghfohbK7uF_H3rEz3hjQMz-bhHDTx2tBsYlFQeQ2fAV2nz2VDUTv2Y5M6RMTBmF8eCx_acaJDzGSm4vA_Zkrr4FvLR7fROLpbKdVrJVe1_43-EvTX3rj3a0Drlhk4lFhtxn9mtWvWMsXQb5V9duzS7yarnUv_bukBvFAVW00]--></g></svg>