<svg xmlns="http://www.w3.org/2000/svg" xmlns:xlink="http://www.w3.org/1999/xlink" contentStyleType="text/css" height="494px" preserveAspectRatio="none" style="width:436px;height:494px;background:#FFFFFF;" version="1.1" viewBox="0 0 436 494" width="436px" zoomAndPan="magnify"><defs/><g><!--class EventSystem--><g id="elem_EventSystem"><rect codeLine="2" fill="#F1F1F1" height="86.1358" id="EventSystem" rx="2.5" ry="2.5" style="stroke:#181818;stroke-width:0.5;" width="285" x="75.5" y="7"/><ellipse cx="174.75" cy="23" fill="#A9DCDF" rx="11" ry="11" style="stroke:#181818;stroke-width:1.0;"/><path d="M178.0938,28.25 L176.625,24.5 L172.1875,24.5 L170.75,28.25 L168.625,28.25 L173.5781,15.5313 L175.3281,15.5313 L180.25,28.25 L178.0938,28.25 Z M174.75,19.2969 Q174.7031,19.1406 174.5781,18.7813 Q174.4531,18.4219 174.3438,18.0469 Q174.2344,17.6563 174.4375,17.5938 Q174.5938,17.7813 174.5,18.1406 Q174.4063,18.4844 174.3125,18.7813 Q174.2188,19.0625 174.1406,19.2969 L172.9063,22.6094 L175.9844,22.6094 L174.75,19.2969 Z " fill="#000000"/><text fill="#000000" font-family="sans-serif" font-size="14" font-style="italic" lengthAdjust="spacing" textLength="78" x="195.25" y="28.432">EventSystem</text><line style="stroke:#181818;stroke-width:0.5;" x1="76.5" x2="359.5" y1="39" y2="39"/><line style="stroke:#181818;stroke-width:0.5;" x1="76.5" x2="359.5" y1="47" y2="47"/><text fill="#000000" font-family="sans-serif" font-size="14" lengthAdjust="spacing" textLength="273" x="81.5" y="65.9659">signal void sigSendEvent(QEvent *event)</text><text fill="#000000" font-family="sans-serif" font-size="14" font-style="italic" lengthAdjust="spacing" textLength="210" x="81.5" y="85.0339">void processEvent(QEvent *event)</text></g><!--class VeinQml--><g id="elem_VeinQml"><rect codeLine="7" fill="#F1F1F1" height="334.0188" id="VeinQml" rx="2.5" ry="2.5" style="stroke:#181818;stroke-width:0.5;" width="422" x="7" y="153.13"/><ellipse cx="185.25" cy="169.13" fill="#ADD1B2" rx="11" ry="11" style="stroke:#181818;stroke-width:1.0;"/><path d="M185.3594,164.6613 Q184.4375,164.6613 183.7031,164.9738 Q182.9844,165.2863 182.4844,165.88 Q181.9844,166.4581 181.7031,167.3331 Q181.4375,168.2081 181.4375,169.3019 Q181.4375,170.7394 181.875,171.7863 Q182.3281,172.8331 183.1719,173.38 Q184.0313,173.9269 185.3438,173.9269 Q186.125,173.9269 186.8125,173.8019 Q187.5156,173.6613 188.5156,173.3488 L188.5156,175.2238 Q187.6563,175.5519 186.8906,175.6769 Q186.1406,175.8019 185.125,175.8019 Q183.2031,175.8019 181.8906,175.005 Q180.5938,174.1925 179.9375,172.7238 Q179.2813,171.2394 179.2813,169.2706 Q179.2813,167.8488 179.6719,166.6769 Q180.0781,165.4894 180.8594,164.6144 Q181.6406,163.7394 182.7813,163.2706 Q183.9219,162.7863 185.3906,162.7863 Q186.3438,162.7863 187.2344,162.9894 Q188.1406,163.1769 189.0781,163.6456 L188.25,165.4269 Q187.4688,165.0519 186.8125,164.8644 Q186.1563,164.6613 185.3594,164.6613 Z " fill="#000000"/><text fill="#000000" font-family="sans-serif" font-size="14" lengthAdjust="spacing" textLength="57" x="205.75" y="174.562">VeinQml</text><line style="stroke:#181818;stroke-width:0.5;" x1="8" x2="428" y1="185.13" y2="185.13"/><text fill="#000000" font-family="sans-serif" font-size="14" lengthAdjust="spacing" textLength="147" x="13" y="204.0959">ConnectionState state</text><line style="stroke:#181818;stroke-width:0.5;" x1="8" x2="428" y1="212.1979" y2="212.1979"/><text fill="#000000" font-family="sans-serif" font-size="14" lengthAdjust="spacing" textLength="141" x="13" y="231.1639">void processEvent(...)</text><text fill="#000000" font-family="sans-serif" font-size="14" lengthAdjust="spacing" textLength="4" x="13" y="250.2318">&#160;</text><text fill="#000000" font-family="sans-serif" font-size="14" lengthAdjust="spacing" textLength="410" x="13" y="269.2997">EntityComponentMap *getEntity(const QString &amp;entityName)</text><text fill="#000000" font-family="sans-serif" font-size="14" lengthAdjust="spacing" textLength="287" x="13" y="288.3676">bool hasEntity(const QString &amp;entityName)</text><text fill="#000000" font-family="sans-serif" font-size="14" lengthAdjust="spacing" textLength="291" x="13" y="307.4355">EntityComponentMap *getEntityById(int id)</text><text fill="#000000" font-family="sans-serif" font-size="14" lengthAdjust="spacing" textLength="163" x="13" y="326.5034">QList&lt;int&gt; getEntityList()</text><text fill="#000000" font-family="sans-serif" font-size="14" lengthAdjust="spacing" textLength="4" x="13" y="345.5714">&#160;</text><text fill="#000000" font-family="sans-serif" font-size="14" lengthAdjust="spacing" text-decoration="underline" textLength="194" x="13" y="364.6393">VeinQml *getStaticInstance()</text><text fill="#000000" font-family="sans-serif" font-size="14" lengthAdjust="spacing" text-decoration="underline" textLength="281" x="13" y="383.7072">void setStaticInstance(VeinQml *instance)</text><text fill="#000000" font-family="sans-serif" font-size="14" lengthAdjust="spacing" textLength="249" x="13" y="402.7751">void entitySubscribeById(int entityId)</text><text fill="#000000" font-family="sans-serif" font-size="14" lengthAdjust="spacing" textLength="267" x="13" y="421.843">void entityUnsubscribeById(int entityId)</text><text fill="#000000" font-family="sans-serif" font-size="14" lengthAdjust="spacing" textLength="4" x="13" y="440.9109">&#160;</text><text fill="#000000" font-family="sans-serif" font-size="14" lengthAdjust="spacing" textLength="347" x="13" y="459.9789">signal void sigStateChanged(ConnectionState state)</text><text fill="#000000" font-family="sans-serif" font-size="14" lengthAdjust="spacing" textLength="306" x="13" y="479.0468">signal sigEntityAvailable(QString entityName)</text></g><!--reverse link EventSystem to VeinQml--><g id="link_EventSystem_VeinQml"><path codeLine="25" d="M218,111.54 C218,128.45 218,131.07 218,152.91 " fill="none" id="EventSystem-backto-VeinQml" style="stroke:#181818;stroke-width:1.0;"/><polygon fill="none" points="218,93.54,212,111.54,224,111.54,218,93.54" style="stroke:#181818;stroke-width:1.0;"/></g><!--SRC=[ZPBDQeD04CVlFiMUoXf8dY0Ksf1382s8jFTn7So2pWPd6X2RT-z-69kI4Eh1aV_yd6-eM7emeamBp6fxGf9oOC5EZPdo3zk6e5KdP-lmNIBL4T95D6g1mUIH7M6ATaxyiNS6cU_ovonBAJ_HKj6rKxgD8q8Zrb4f8AWulAFdDk9gjSgpwDkIM1ashZiwyfutEAf5Wv9aRHongAAKtbAZdZ2gxz1XghfohbK7uF_H3rEz3hjQMz-bhHDTx2tBsYlFQeQ2fAV2nz2VDUTv2Y5M6RMTBmF8eCx_acaJDzGSm4vA_Zkrr4FvLR7fROLpbKdVrJVe1_43-EvTX3rj3a0Drlhk4lFhtxn9mtWvWMsXQb5V9duzS7yarnUv_bukBvFAVW00]--></g></svg>