<?plantuml 1.2026.2?><svg xmlns="http://www.w3.org/2000/svg" xmlns:xlink="http://www.w3.org/1999/xlink" contentStyleType="text/css" data-diagram-type="CLASS" height="1279px" preserveAspectRatio="none" style="width:1588px;height:1279px;background:#FFFFFF;" version="1.1" viewBox="0 0 1588 1279" width="1588px" zoomAndPan="magnify"><defs/><g><!--cluster Entity operations--><g class="cluster" data-qualified-name="Entity operations" data-source-line="15" id="ent0004"><rect fill="none" height="544.86" rx="2.5" ry="2.5" style="stroke:#181818;stroke-width:1;" width="1194" x="7" y="324.78"/><path d="M153.6094,324.78 L153.6094,334.0769 L143.6094,344.0769 L7,344.0769" fill="none" style="stroke:#181818;stroke-width:1;"/><text fill="#000000" font-family="sans-serif" font-size="14" font-weight="bold" lengthAdjust="spacing" textLength="136.6094" x="10" y="338.7751">Entity operations</text></g><!--cluster Component operations--><g class="cluster" data-qualified-name="Component operations" data-source-line="67" id="ent0018"><rect fill="none" height="354.67" rx="2.5" ry="2.5" style="stroke:#181818;stroke-width:1;" width="1234" x="348" y="918.64"/><path d="M538.0107,918.64 L538.0107,927.9369 L528.0107,937.9369 L348,937.9369" fill="none" style="stroke:#181818;stroke-width:1;"/><text fill="#000000" font-family="sans-serif" font-size="14" font-weight="bold" lengthAdjust="spacing" textLength="180.0107" x="351" y="932.6351">Component operations</text></g><!--class VfCmdEventHandler--><g class="entity" data-qualified-name="Entity operations.VfCmdEventHandler" data-source-line="16" id="ent0005"><rect fill="#F1F1F1" height="113.1875" rx="2.5" ry="2.5" style="stroke:#181818;stroke-width:0.5;" width="327.793" x="392.1" y="359.78"/><ellipse cx="480.7279" cy="375.78" fill="#ADD1B2" rx="11" ry="11" style="stroke:#181818;stroke-width:1;"/><path d="M484.9623,370.1863 L484.9623,372.7019 Q483.7123,371.5456 482.7904,371.1706 Q481.8842,370.7956 480.8529,370.7956 Q478.8529,370.7956 477.7904,372.0144 Q476.7279,373.2175 476.7279,375.5769 Q476.7279,377.9363 477.7904,379.155 Q478.8529,380.3581 480.8529,380.3581 Q481.8842,380.3581 482.7904,379.9831 Q483.7123,379.6081 484.9623,378.4519 L484.9623,380.9519 Q483.9154,381.655 482.8998,381.9675 Q481.8998,382.2644 480.7436,382.2644 Q477.8217,382.2644 476.1186,380.4675 Q474.4311,378.6706 474.4311,375.5769 Q474.4311,372.4831 476.1186,370.6863 Q477.8217,368.8738 480.7436,368.8738 Q481.9154,368.8738 482.9154,369.1863 Q483.9311,369.4831 484.9623,370.1863 Z " fill="#000000"/><text fill="#000000" font-family="sans-serif" font-size="14" lengthAdjust="spacing" textLength="142.0371" x="501.2279" y="380.6267">VfCmdEventHandler</text><line style="stroke:#181818;stroke-width:0.5;" x1="393.1" x2="718.893" y1="391.78" y2="391.78"/><g data-visibility-modifier="PRIVATE_FIELD"><rect fill="none" height="6" style="stroke:#C82930;stroke-width:1;" width="6" x="400.1" y="402.4284"/></g><text fill="#000000" font-family="sans-serif" font-size="14" lengthAdjust="spacing" textLength="301.793" x="412.1" y="408.7751">QHash&lt;int, SafeDeleteSet&gt; m_entityItems</text><line style="stroke:#181818;stroke-width:0.5;" x1="393.1" x2="718.893" y1="416.0769" y2="416.0769"/><text fill="#000000" font-family="sans-serif" font-size="14" lengthAdjust="spacing" textLength="241.6641" x="398.1" y="433.072">void processEvent(QEvent *event)</text><text fill="#000000" font-family="sans-serif" font-size="14" lengthAdjust="spacing" textLength="277.7715" x="398.1" y="449.3689">void addItem(VfCmdEventItemPtr item)</text><text fill="#000000" font-family="sans-serif" font-size="14" lengthAdjust="spacing" textLength="304.8896" x="398.1" y="465.6657">void removeItem(VfCmdEventItemPtr item)</text></g><g class="entity" data-qualified-name="Entity operations.GMN6" data-source-line="23" id="ent0007"><path d="M754.44,388.67 L754.44,412.37 L720.2,416.37 L754.44,420.37 L754.44,444.0684 A0,0 0 0 0 754.44,444.0684 L1101.5699,444.0684 A0,0 0 0 0 1101.5699,444.0684 L1101.5699,398.67 L1091.5699,388.67 L754.44,388.67 A0,0 0 0 0 754.44,388.67" fill="#FEFFDD" style="stroke:#181818;stroke-width:0.5;"/><path d="M1091.5699,388.67 L1091.5699,398.67 L1101.5699,398.67 L1091.5699,388.67" fill="#FEFFDD" style="stroke:#181818;stroke-width:0.5;"/><text fill="#000000" font-family="sans-serif" font-size="13" lengthAdjust="spacing" textLength="272.7017" x="760.44" y="405.7369">Filter (notification) command-events from</text><text fill="#000000" font-family="sans-serif" font-size="13" lengthAdjust="spacing" textLength="313.2632" x="760.44" y="420.8697">incoming QEvents and distribute them to added</text><text fill="#000000" font-family="sans-serif" font-size="13" lengthAdjust="spacing" textLength="326.1299" x="760.44" y="436.0025">VfEntityEventItem objects with matching entity ID</text></g><!--class VfEntityEventItem--><g class="entity" data-qualified-name="Entity operations.VfEntityEventItem" data-source-line="28" id="ent0009"><rect fill="#F1F1F1" height="113.1875" rx="2.5" ry="2.5" style="stroke:#181818;stroke-width:0.5;" width="502.123" x="304.94" y="549.97"/><ellipse cx="488.0748" cy="565.97" fill="#A9DCDF" rx="11" ry="11" style="stroke:#181818;stroke-width:1;"/><path d="M488.6529,561.2356 L486.7466,566.3606 L490.5591,566.3606 L488.6529,561.2356 Z M487.5123,558.5481 L489.7935,558.5481 L494.7154,571.47 L492.4029,571.47 L491.2623,568.2981 L486.0591,568.2981 L484.9341,571.47 L482.5904,571.47 L487.5123,558.5481 Z " fill="#000000"/><text fill="#000000" font-family="sans-serif" font-size="14" font-style="italic" lengthAdjust="spacing" textLength="127.3535" x="508.5748" y="570.8167">VfEntityEventItem</text><line style="stroke:#181818;stroke-width:0.5;" x1="305.94" x2="806.063" y1="581.97" y2="581.97"/><line style="stroke:#181818;stroke-width:0.5;" x1="305.94" x2="806.063" y1="589.97" y2="589.97"/><text fill="#000000" font-family="sans-serif" font-size="14" lengthAdjust="spacing" textLength="110.5029" x="310.94" y="606.9651">int getEntityId()</text><text fill="#000000" font-family="sans-serif" font-size="14" lengthAdjust="spacing" textLength="221.2246" x="310.94" y="623.262">void sendEvent(QEvent *event)</text><text fill="#000000" font-family="sans-serif" font-size="14" font-style="italic" lengthAdjust="spacing" textLength="405.0088" x="310.94" y="639.5589">void processCommandEvent(CommandEvent *cmdEvent)</text><text fill="#000000" font-family="sans-serif" font-size="14" font-style="italic" lengthAdjust="spacing" textLength="490.123" x="310.94" y="655.8557">void processErrorCommandEventData(EventData *originalEventData)</text></g><!--class VfClientEntitySubscriber--><g class="entity" data-qualified-name="Entity operations.VfClientEntitySubscriber" data-source-line="35" id="ent0010"><rect fill="#F1F1F1" height="113.1875" rx="2.5" ry="2.5" style="stroke:#181818;stroke-width:0.5;" width="336.8916" x="22.55" y="732.3"/><ellipse cx="101.5222" cy="748.3" fill="#ADD1B2" rx="11" ry="11" style="stroke:#181818;stroke-width:1;"/><path d="M105.7565,742.7063 L105.7565,745.2219 Q104.5065,744.0656 103.5847,743.6906 Q102.6784,743.3156 101.6472,743.3156 Q99.6472,743.3156 98.5847,744.5344 Q97.5222,745.7375 97.5222,748.0969 Q97.5222,750.4563 98.5847,751.675 Q99.6472,752.8781 101.6472,752.8781 Q102.6784,752.8781 103.5847,752.5031 Q104.5065,752.1281 105.7565,750.9719 L105.7565,753.4719 Q104.7097,754.175 103.694,754.4875 Q102.694,754.7844 101.5378,754.7844 Q98.6159,754.7844 96.9128,752.9875 Q95.2253,751.1906 95.2253,748.0969 Q95.2253,745.0031 96.9128,743.2063 Q98.6159,741.3938 101.5378,741.3938 Q102.7097,741.3938 103.7097,741.7063 Q104.7253,742.0031 105.7565,742.7063 Z " fill="#000000"/><text fill="#000000" font-family="sans-serif" font-size="14" lengthAdjust="spacing" textLength="170.4473" x="122.0222" y="753.1467">VfClientEntitySubscriber</text><line style="stroke:#181818;stroke-width:0.5;" x1="23.55" x2="358.4416" y1="764.3" y2="764.3"/><line style="stroke:#181818;stroke-width:0.5;" x1="23.55" x2="358.4416" y1="772.3" y2="772.3"/><text fill="#000000" font-family="sans-serif" font-size="14" lengthAdjust="spacing" textLength="224.5195" x="28.55" y="789.2951">void processCommandEvent(...)</text><text fill="#000000" font-family="sans-serif" font-size="14" lengthAdjust="spacing" textLength="292.626" x="28.55" y="805.592">void processErrorCommandEventData(...)</text><text fill="#000000" font-family="sans-serif" font-size="14" lengthAdjust="spacing" textLength="165.6553" x="28.55" y="821.8889">void sendSubscription()</text><text fill="#000000" font-family="sans-serif" font-size="14" lengthAdjust="spacing" textLength="324.8916" x="28.55" y="838.1857">signal void sigSubscribed(bool ok, int entityId)</text></g><!--class VfClientEntityUnsubscriber--><g class="entity" data-qualified-name="Entity operations.VfClientEntityUnsubscriber" data-source-line="42" id="ent0011"><rect fill="#F1F1F1" height="113.1875" rx="2.5" ry="2.5" style="stroke:#181818;stroke-width:0.5;" width="354.4189" x="394.79" y="732.3"/><ellipse cx="473.7622" cy="748.3" fill="#ADD1B2" rx="11" ry="11" style="stroke:#181818;stroke-width:1;"/><path d="M477.9965,742.7063 L477.9965,745.2219 Q476.7465,744.0656 475.8247,743.6906 Q474.9184,743.3156 473.8872,743.3156 Q471.8872,743.3156 470.8247,744.5344 Q469.7622,745.7375 469.7622,748.0969 Q469.7622,750.4563 470.8247,751.675 Q471.8872,752.8781 473.8872,752.8781 Q474.9184,752.8781 475.8247,752.5031 Q476.7465,752.1281 477.9965,750.9719 L477.9965,753.4719 Q476.9497,754.175 475.934,754.4875 Q474.934,754.7844 473.7778,754.7844 Q470.8559,754.7844 469.1528,752.9875 Q467.4653,751.1906 467.4653,748.0969 Q467.4653,745.0031 469.1528,743.2063 Q470.8559,741.3938 473.7778,741.3938 Q474.9497,741.3938 475.9497,741.7063 Q476.9653,742.0031 477.9965,742.7063 Z " fill="#000000"/><text fill="#000000" font-family="sans-serif" font-size="14" lengthAdjust="spacing" textLength="187.9746" x="494.2622" y="753.1467">VfClientEntityUnsubscriber</text><line style="stroke:#181818;stroke-width:0.5;" x1="395.79" x2="748.2089" y1="764.3" y2="764.3"/><line style="stroke:#181818;stroke-width:0.5;" x1="395.79" x2="748.2089" y1="772.3" y2="772.3"/><text fill="#000000" font-family="sans-serif" font-size="14" lengthAdjust="spacing" textLength="224.5195" x="400.79" y="789.2951">void processCommandEvent(...)</text><text fill="#000000" font-family="sans-serif" font-size="14" lengthAdjust="spacing" textLength="292.626" x="400.79" y="805.592">void processErrorCommandEventData(...)</text><text fill="#000000" font-family="sans-serif" font-size="14" lengthAdjust="spacing" textLength="183.1826" x="400.79" y="821.8889">void sendUnsubscription()</text><text fill="#000000" font-family="sans-serif" font-size="14" lengthAdjust="spacing" textLength="342.4189" x="400.79" y="838.1857">signal void sigUnsubscribed(bool ok, int entityId)</text></g><!--class VfEntityComponentEventItem--><g class="entity" data-qualified-name="Entity operations.VfEntityComponentEventItem" data-source-line="49" id="ent0012"><rect fill="#F1F1F1" height="129.4844" rx="2.5" ry="2.5" style="stroke:#181818;stroke-width:0.5;" width="400.9033" x="784.55" y="724.15"/><ellipse cx="876.4353" cy="740.15" fill="#ADD1B2" rx="11" ry="11" style="stroke:#181818;stroke-width:1;"/><path d="M880.6696,734.5563 L880.6696,737.0719 Q879.4196,735.9156 878.4978,735.5406 Q877.5915,735.1656 876.5603,735.1656 Q874.5603,735.1656 873.4978,736.3844 Q872.4353,737.5875 872.4353,739.9469 Q872.4353,742.3063 873.4978,743.525 Q874.5603,744.7281 876.5603,744.7281 Q877.5915,744.7281 878.4978,744.3531 Q879.4196,743.9781 880.6696,742.8219 L880.6696,745.3219 Q879.6228,746.025 878.6071,746.3375 Q877.6071,746.6344 876.4509,746.6344 Q873.529,746.6344 871.8259,744.8375 Q870.1384,743.0406 870.1384,739.9469 Q870.1384,736.8531 871.8259,735.0563 Q873.529,733.2438 876.4509,733.2438 Q877.6228,733.2438 878.6228,733.5563 Q879.6384,733.8531 880.6696,734.5563 Z " fill="#000000"/><text fill="#000000" font-family="sans-serif" font-size="14" lengthAdjust="spacing" textLength="208.6328" x="896.9353" y="744.9967">VfEntityComponentEventItem</text><line style="stroke:#181818;stroke-width:0.5;" x1="785.55" x2="1184.4533" y1="756.15" y2="756.15"/><g data-visibility-modifier="PRIVATE_FIELD"><rect fill="none" height="6" style="stroke:#C82930;stroke-width:1;" width="6" x="792.55" y="766.7984"/></g><text fill="#000000" font-family="sans-serif" font-size="14" lengthAdjust="spacing" textLength="374.9033" x="804.55" y="773.1451">QHash&lt;QString, SafeDeleteSet&gt; m_componentItems</text><line style="stroke:#181818;stroke-width:0.5;" x1="785.55" x2="1184.4533" y1="780.4469" y2="780.4469"/><text fill="#000000" font-family="sans-serif" font-size="14" lengthAdjust="spacing" textLength="224.5195" x="790.55" y="797.442">void processCommandEvent(...)</text><text fill="#000000" font-family="sans-serif" font-size="14" lengthAdjust="spacing" textLength="292.626" x="790.55" y="813.7389">void processErrorCommandEventData(...)</text><text fill="#000000" font-family="sans-serif" font-size="14" lengthAdjust="spacing" textLength="359.0508" x="790.55" y="830.0357">void addItem(VfCmdEventItemComponentPtr item)</text><text fill="#000000" font-family="sans-serif" font-size="14" lengthAdjust="spacing" textLength="386.1689" x="790.55" y="846.3326">void removeItem(VfCmdEventItemComponentPtr item)</text></g><g class="entity" data-qualified-name="Entity operations.GMN13" data-source-line="57" id="ent0014"><path d="M842.09,578.86 L842.09,634.2584 A0,0 0 0 0 842.09,634.2584 L1001.41,634.2584 L993.5,724.01 L1009.41,634.2584 L1175.9025,634.2584 A0,0 0 0 0 1175.9025,634.2584 L1175.9025,588.86 L1165.9025,578.86 L842.09,578.86 A0,0 0 0 0 842.09,578.86" fill="#FEFFDD" style="stroke:#181818;stroke-width:0.5;"/><path d="M1165.9025,578.86 L1165.9025,588.86 L1175.9025,588.86 L1165.9025,578.86" fill="#FEFFDD" style="stroke:#181818;stroke-width:0.5;"/><text fill="#000000" font-family="sans-serif" font-size="13" lengthAdjust="spacing" textLength="289.0151" x="848.09" y="595.9269">Filter component (error) data from incoming</text><text fill="#000000" font-family="sans-serif" font-size="13" lengthAdjust="spacing" textLength="312.8125" x="848.09" y="611.0597">and distribute to added VfComponentEventItem</text><text fill="#000000" font-family="sans-serif" font-size="13" lengthAdjust="spacing" textLength="262.5708" x="848.09" y="626.1925">objects with matching component name</text></g><!--class VfComponentEventItem--><g class="entity" data-qualified-name="Component operations.VfComponentEventItem" data-source-line="68" id="ent0019"><rect fill="#F1F1F1" height="129.4844" rx="2.5" ry="2.5" style="stroke:#181818;stroke-width:0.5;" width="593.793" x="688.1" y="953.64"/><ellipse cx="896.8661" cy="969.64" fill="#A9DCDF" rx="11" ry="11" style="stroke:#181818;stroke-width:1;"/><path d="M897.4442,964.9056 L895.538,970.0306 L899.3505,970.0306 L897.4442,964.9056 Z M896.3036,962.2181 L898.5849,962.2181 L903.5067,975.14 L901.1942,975.14 L900.0536,971.9681 L894.8505,971.9681 L893.7255,975.14 L891.3817,975.14 L896.3036,962.2181 Z " fill="#000000"/><text fill="#000000" font-family="sans-serif" font-size="14" font-style="italic" lengthAdjust="spacing" textLength="167.7607" x="917.3661" y="974.4867">VfComponentEventItem</text><line style="stroke:#181818;stroke-width:0.5;" x1="689.1" x2="1280.893" y1="985.64" y2="985.64"/><line style="stroke:#181818;stroke-width:0.5;" x1="689.1" x2="1280.893" y1="993.64" y2="993.64"/><text fill="#000000" font-family="sans-serif" font-size="14" lengthAdjust="spacing" textLength="110.5029" x="694.1" y="1010.6351">int getEntityId()</text><text fill="#000000" font-family="sans-serif" font-size="14" lengthAdjust="spacing" textLength="224.6631" x="694.1" y="1026.932">QString &amp;getComponentName()</text><text fill="#000000" font-family="sans-serif" font-size="14" lengthAdjust="spacing" textLength="221.2246" x="694.1" y="1043.2289">void sendEvent(QEvent *event)</text><text fill="#000000" font-family="sans-serif" font-size="14" font-style="italic" lengthAdjust="spacing" textLength="492.707" x="694.1" y="1059.5257">void processComponentEventData(ComponentData *componentData)</text><text fill="#000000" font-family="sans-serif" font-size="14" font-style="italic" lengthAdjust="spacing" textLength="581.793" x="694.1" y="1075.8226">void processErrorComponentEventData(ComponentData *originalComponentData)</text></g><!--class VfClientComponentFetcher--><g class="entity" data-qualified-name="Component operations.VfClientComponentFetcher" data-source-line="76" id="ent0020"><rect fill="#F1F1F1" height="113.1875" rx="2.5" ry="2.5" style="stroke:#181818;stroke-width:0.5;" width="353.1406" x="364.43" y="1144.12"/><ellipse cx="442.0452" cy="1160.12" fill="#ADD1B2" rx="11" ry="11" style="stroke:#181818;stroke-width:1;"/><path d="M446.2796,1154.5263 L446.2796,1157.0419 Q445.0296,1155.8856 444.1077,1155.5106 Q443.2015,1155.1356 442.1702,1155.1356 Q440.1702,1155.1356 439.1077,1156.3544 Q438.0452,1157.5575 438.0452,1159.9169 Q438.0452,1162.2763 439.1077,1163.495 Q440.1702,1164.6981 442.1702,1164.6981 Q443.2015,1164.6981 444.1077,1164.3231 Q445.0296,1163.9481 446.2796,1162.7919 L446.2796,1165.2919 Q445.2327,1165.995 444.2171,1166.3075 Q443.2171,1166.6044 442.0609,1166.6044 Q439.139,1166.6044 437.4359,1164.8075 Q435.7484,1163.0106 435.7484,1159.9169 Q435.7484,1156.8231 437.4359,1155.0263 Q439.139,1153.2138 442.0609,1153.2138 Q443.2327,1153.2138 444.2327,1153.5263 Q445.2484,1153.8231 446.2796,1154.5263 Z " fill="#000000"/><text fill="#000000" font-family="sans-serif" font-size="14" lengthAdjust="spacing" textLength="189.4102" x="462.5452" y="1164.9667">VfClientComponentFetcher</text><line style="stroke:#181818;stroke-width:0.5;" x1="365.43" x2="716.5706" y1="1176.12" y2="1176.12"/><line style="stroke:#181818;stroke-width:0.5;" x1="365.43" x2="716.5706" y1="1184.12" y2="1184.12"/><text fill="#000000" font-family="sans-serif" font-size="14" lengthAdjust="spacing" textLength="267.2715" x="370.43" y="1201.1151">void processComponentEventData(...)</text><text fill="#000000" font-family="sans-serif" font-size="14" lengthAdjust="spacing" textLength="301.9502" x="370.43" y="1217.412">void processErrorComponentEventData(...)</text><text fill="#000000" font-family="sans-serif" font-size="14" lengthAdjust="spacing" textLength="183.8389" x="370.43" y="1233.7089">void startGetComponent()</text><text fill="#000000" font-family="sans-serif" font-size="14" lengthAdjust="spacing" textLength="341.1406" x="370.43" y="1250.0057">signal void sigGetFinish(bool ok, QVariant value)</text></g><!--class VfClientComponentSetter--><g class="entity" data-qualified-name="Component operations.VfClientComponentSetter" data-source-line="83" id="ent0021"><rect fill="#F1F1F1" height="113.1875" rx="2.5" ry="2.5" style="stroke:#181818;stroke-width:0.5;" width="464.5459" x="752.73" y="1144.12"/><ellipse cx="891.1714" cy="1160.12" fill="#ADD1B2" rx="11" ry="11" style="stroke:#181818;stroke-width:1;"/><path d="M895.4058,1154.5263 L895.4058,1157.0419 Q894.1558,1155.8856 893.2339,1155.5106 Q892.3277,1155.1356 891.2964,1155.1356 Q889.2964,1155.1356 888.2339,1156.3544 Q887.1714,1157.5575 887.1714,1159.9169 Q887.1714,1162.2763 888.2339,1163.495 Q889.2964,1164.6981 891.2964,1164.6981 Q892.3277,1164.6981 893.2339,1164.3231 Q894.1558,1163.9481 895.4058,1162.7919 L895.4058,1165.2919 Q894.3589,1165.995 893.3433,1166.3075 Q892.3433,1166.6044 891.187,1166.6044 Q888.2652,1166.6044 886.562,1164.8075 Q884.8745,1163.0106 884.8745,1159.9169 Q884.8745,1156.8231 886.562,1155.0263 Q888.2652,1153.2138 891.187,1153.2138 Q892.3589,1153.2138 893.3589,1153.5263 Q894.3745,1153.8231 895.4058,1154.5263 Z " fill="#000000"/><text fill="#000000" font-family="sans-serif" font-size="14" lengthAdjust="spacing" textLength="179.1631" x="911.6714" y="1164.9667">VfClientComponentSetter</text><line style="stroke:#181818;stroke-width:0.5;" x1="753.73" x2="1216.2759" y1="1176.12" y2="1176.12"/><line style="stroke:#181818;stroke-width:0.5;" x1="753.73" x2="1216.2759" y1="1184.12" y2="1184.12"/><text fill="#000000" font-family="sans-serif" font-size="14" lengthAdjust="spacing" textLength="267.2715" x="758.73" y="1201.1151">void processComponentEventData(...)</text><text fill="#000000" font-family="sans-serif" font-size="14" lengthAdjust="spacing" textLength="301.9502" x="758.73" y="1217.412">void processErrorComponentEventData(...)</text><text fill="#000000" font-family="sans-serif" font-size="14" lengthAdjust="spacing" textLength="452.5459" x="758.73" y="1233.7089">void startSetComponent(QVariant oldValue, QVariant newValue)</text><text fill="#000000" font-family="sans-serif" font-size="14" lengthAdjust="spacing" textLength="225.8252" x="758.73" y="1250.0057">signal void sigSetFinish(bool ok)</text></g><!--class VfComponentChangeNotifier--><g class="entity" data-qualified-name="Component operations.VfComponentChangeNotifier" data-source-line="90" id="ent0022"><rect fill="#F1F1F1" height="96.8906" rx="2.5" ry="2.5" style="stroke:#181818;stroke-width:0.5;" width="313.9502" x="1252.02" y="1152.27"/><ellipse cx="1304.25" cy="1168.27" fill="#ADD1B2" rx="11" ry="11" style="stroke:#181818;stroke-width:1;"/><path d="M1308.4844,1162.6763 L1308.4844,1165.1919 Q1307.2344,1164.0356 1306.3125,1163.6606 Q1305.4062,1163.2856 1304.375,1163.2856 Q1302.375,1163.2856 1301.3125,1164.5044 Q1300.25,1165.7075 1300.25,1168.0669 Q1300.25,1170.4263 1301.3125,1171.645 Q1302.375,1172.8481 1304.375,1172.8481 Q1305.4062,1172.8481 1306.3125,1172.4731 Q1307.2344,1172.0981 1308.4844,1170.9419 L1308.4844,1173.4419 Q1307.4375,1174.145 1306.4219,1174.4575 Q1305.4219,1174.7544 1304.2656,1174.7544 Q1301.3437,1174.7544 1299.6406,1172.9575 Q1297.9531,1171.1606 1297.9531,1168.0669 Q1297.9531,1164.9731 1299.6406,1163.1763 Q1301.3437,1161.3638 1304.2656,1161.3638 Q1305.4375,1161.3638 1306.4375,1161.6763 Q1307.4531,1161.9731 1308.4844,1162.6763 Z " fill="#000000"/><text fill="#000000" font-family="sans-serif" font-size="14" lengthAdjust="spacing" textLength="200.9902" x="1324.75" y="1173.1167">VfComponentChangeNotifier</text><line style="stroke:#181818;stroke-width:0.5;" x1="1253.02" x2="1564.9702" y1="1184.27" y2="1184.27"/><line style="stroke:#181818;stroke-width:0.5;" x1="1253.02" x2="1564.9702" y1="1192.27" y2="1192.27"/><text fill="#000000" font-family="sans-serif" font-size="14" lengthAdjust="spacing" textLength="262.8213" x="1258.02" y="1209.2651">void processComponentEventData(..)</text><text fill="#000000" font-family="sans-serif" font-size="14" lengthAdjust="spacing" textLength="301.9502" x="1258.02" y="1225.562">void processErrorComponentEventData(...)</text><text fill="#000000" font-family="sans-serif" font-size="14" lengthAdjust="spacing" textLength="212.9531" x="1258.02" y="1241.8589">signal void sigValueChanged()</text></g><!--class EventSystem--><g class="entity" data-qualified-name="EventSystem" data-source-line="2" id="ent0002"><rect fill="#F1F1F1" height="80.5938" rx="2.5" ry="2.5" style="stroke:#181818;stroke-width:0.5;" width="300.75" x="405.63" y="7"/><ellipse cx="505.5988" cy="23" fill="#A9DCDF" rx="11" ry="11" style="stroke:#181818;stroke-width:1;"/><path d="M506.1769,18.2656 L504.2706,23.3906 L508.0831,23.3906 L506.1769,18.2656 Z M505.0363,15.5781 L507.3175,15.5781 L512.2394,28.5 L509.9269,28.5 L508.7863,25.3281 L503.5831,25.3281 L502.4581,28.5 L500.1144,28.5 L505.0363,15.5781 Z " fill="#000000"/><text fill="#000000" font-family="sans-serif" font-size="14" font-style="italic" lengthAdjust="spacing" textLength="92.3125" x="526.0988" y="27.8467">EventSystem</text><line style="stroke:#181818;stroke-width:0.5;" x1="406.63" x2="705.38" y1="39" y2="39"/><line style="stroke:#181818;stroke-width:0.5;" x1="406.63" x2="705.38" y1="47" y2="47"/><text fill="#000000" font-family="sans-serif" font-size="14" lengthAdjust="spacing" textLength="288.75" x="411.63" y="63.9951">signal void sigSendEvent(QEvent *event)</text><text fill="#000000" font-family="sans-serif" font-size="14" font-style="italic" lengthAdjust="spacing" textLength="241.6641" x="411.63" y="80.292">void processEvent(QEvent *event)</text></g><!--class VfCmdEventHandlerSystem--><g class="entity" data-qualified-name="VfCmdEventHandlerSystem" data-source-line="7" id="ent0003"><rect fill="#F1F1F1" height="113.1875" rx="2.5" ry="2.5" style="stroke:#181818;stroke-width:0.5;" width="358.2334" x="376.88" y="148.59"/><ellipse cx="454.6251" cy="164.59" fill="#ADD1B2" rx="11" ry="11" style="stroke:#181818;stroke-width:1;"/><path d="M458.8595,158.9962 L458.8595,161.5119 Q457.6095,160.3556 456.6876,159.9806 Q455.7814,159.6056 454.7501,159.6056 Q452.7501,159.6056 451.6876,160.8244 Q450.6251,162.0275 450.6251,164.3869 Q450.6251,166.7462 451.6876,167.965 Q452.7501,169.1681 454.7501,169.1681 Q455.7814,169.1681 456.6876,168.7931 Q457.6095,168.4181 458.8595,167.2619 L458.8595,169.7619 Q457.8126,170.465 456.797,170.7775 Q455.797,171.0744 454.6407,171.0744 Q451.7189,171.0744 450.0157,169.2775 Q448.3282,167.4806 448.3282,164.3869 Q448.3282,161.2931 450.0157,159.4962 Q451.7189,157.6837 454.6407,157.6837 Q455.8126,157.6837 456.8126,157.9962 Q457.8282,158.2931 458.8595,158.9962 Z " fill="#000000"/><text fill="#000000" font-family="sans-serif" font-size="14" lengthAdjust="spacing" textLength="194.2432" x="475.1251" y="169.4367">VfCmdEventHandlerSystem</text><line style="stroke:#181818;stroke-width:0.5;" x1="377.88" x2="734.1134" y1="180.59" y2="180.59"/><g data-visibility-modifier="PRIVATE_FIELD"><rect fill="none" height="6" style="stroke:#C82930;stroke-width:1;" width="6" x="384.88" y="191.2384"/></g><text fill="#000000" font-family="sans-serif" font-size="14" lengthAdjust="spacing" textLength="332.2334" x="396.88" y="197.5851">VfCmdEventHandler m_commandEventHandler</text><line style="stroke:#181818;stroke-width:0.5;" x1="377.88" x2="734.1134" y1="204.8869" y2="204.8869"/><text fill="#000000" font-family="sans-serif" font-size="14" lengthAdjust="spacing" textLength="152.5645" x="382.88" y="221.882">void processEvent(...)</text><text fill="#000000" font-family="sans-serif" font-size="14" lengthAdjust="spacing" textLength="277.7715" x="382.88" y="238.1789">void addItem(VfCmdEventItemPtr item)</text><text fill="#000000" font-family="sans-serif" font-size="14" lengthAdjust="spacing" textLength="304.8896" x="382.88" y="254.4757">void removeItem(VfCmdEventItemPtr item)</text></g><!--link VfClientEntitySubscriber to VfClientEntityUnsubscriber--><!--link VfClientEntityUnsubscriber to VfEntityComponentEventItem--><!--reverse link EventSystem to VfCmdEventHandlerSystem--><g class="link" data-entity-1="ent0002" data-entity-2="ent0003" data-link-type="extension" data-source-line="97" id="lnk23"><path codeLine="97" d="M556,106.04 C556,124.35 556,128.4 556,148.34" fill="none" id="EventSystem-backto-VfCmdEventHandlerSystem" style="stroke:#181818;stroke-width:1;"/><polygon fill="none" points="556,88.04,550,106.04,562,106.04,556,88.04" style="stroke:#181818;stroke-width:1;"/></g><!--reverse link VfCmdEventHandlerSystem to VfCmdEventHandler--><g class="link" data-entity-1="ent0003" data-entity-2="ent0005" data-link-type="composition" data-source-line="99" id="lnk24"><path codeLine="99" d="M556,274.24 C556,304.38 556,329.42 556,359.52" fill="none" id="VfCmdEventHandlerSystem-backto-VfCmdEventHandler" style="stroke:#181818;stroke-width:1;"/><polygon fill="#181818" points="556,262.24,552,268.24,556,274.24,560,268.24,556,262.24" style="stroke:#181818;stroke-width:1;"/><polygon fill="#000000" points="561,305.3464,563.9389,296.3013,558.0611,296.3013,561,305.3464" style="stroke:#000000;stroke-width:1;"/><text fill="#000000" font-family="sans-serif" font-size="13" lengthAdjust="spacing" textLength="33.5981" x="570" y="304.8469">owns</text><text fill="#000000" font-family="sans-serif" font-size="13" lengthAdjust="spacing" textLength="8.271" x="547.5294" y="348.7519">1</text></g><!--reverse link VfCmdEventHandler to VfEntityEventItem--><g class="link" data-entity-1="ent0005" data-entity-2="ent0009" data-link-type="aggregation" data-source-line="100" id="lnk25"><path codeLine="100" d="M556,485.33 C556,509.38 556,525.43 556,549.5" fill="none" id="VfCmdEventHandler-backto-VfEntityEventItem" style="stroke:#181818;stroke-width:1;"/><polygon fill="none" points="556,473.33,552,479.33,556,485.33,560,479.33,556,473.33" style="stroke:#181818;stroke-width:1;"/><polygon fill="#000000" points="561,516.5364,563.9389,507.4913,558.0611,507.4913,561,516.5364" style="stroke:#000000;stroke-width:1;"/><text fill="#000000" font-family="sans-serif" font-size="13" lengthAdjust="spacing" textLength="153.8291" x="570" y="516.0369">has shared entity items</text><text fill="#000000" font-family="sans-serif" font-size="13" lengthAdjust="spacing" textLength="23.0356" x="531.6004" y="538.7063">0..*</text></g><!--reverse link VfEntityEventItem to VfClientEntitySubscriber--><g class="link" data-entity-1="ent0009" data-entity-2="ent0010" data-link-type="extension" data-source-line="102" id="lnk26"><path codeLine="102" d="M426.3723,671.6034 C382.4323,693.3134 348.36,710.15 304.42,731.86" fill="none" id="VfEntityEventItem-backto-VfClientEntitySubscriber" style="stroke:#181818;stroke-width:1;"/><polygon fill="none" points="442.51,663.63,423.7145,666.2241,429.0301,676.9826,442.51,663.63" style="stroke:#181818;stroke-width:1;"/></g><!--reverse link VfEntityEventItem to VfClientEntityUnsubscriber--><g class="link" data-entity-1="ent0009" data-entity-2="ent0011" data-link-type="extension" data-source-line="103" id="lnk27"><path codeLine="103" d="M562.5639,681.5593 C564.4939,703.2693 565.1,710.15 567.03,731.86" fill="none" id="VfEntityEventItem-backto-VfClientEntityUnsubscriber" style="stroke:#181818;stroke-width:1;"/><polygon fill="none" points="560.97,663.63,556.5875,682.0906,568.5403,681.028,560.97,663.63" style="stroke:#181818;stroke-width:1;"/></g><!--reverse link VfEntityEventItem to VfEntityComponentEventItem--><g class="link" data-entity-1="ent0009" data-entity-2="ent0012" data-link-type="extension" data-source-line="105" id="lnk28"><path codeLine="105" d="M705.9824,670.608 C751.2324,689.638 785.55,704.06 832.2,723.67" fill="none" id="VfEntityEventItem-backto-VfEntityComponentEventItem" style="stroke:#181818;stroke-width:1;"/><polygon fill="none" points="689.39,663.63,703.6564,676.1388,708.3084,665.0772,689.39,663.63" style="stroke:#181818;stroke-width:1;"/></g><!--reverse link VfEntityComponentEventItem to VfComponentEventItem--><g class="link" data-entity-1="ent0012" data-entity-2="ent0019" data-link-type="aggregation" data-source-line="106" id="lnk29"><path codeLine="106" d="M985,865.87 C985,897.01 985,922.36 985,953.49" fill="none" id="VfEntityComponentEventItem-backto-VfComponentEventItem" style="stroke:#181818;stroke-width:1;"/><polygon fill="none" points="985,853.87,981,859.87,985,865.87,989,859.87,985,853.87" style="stroke:#181818;stroke-width:1;"/><polygon fill="#000000" points="990,899.2064,992.9389,890.1613,987.0611,890.1613,990,899.2064" style="stroke:#000000;stroke-width:1;"/><text fill="#000000" font-family="sans-serif" font-size="13" lengthAdjust="spacing" textLength="189.6362" x="999" y="898.7069">has shared component items</text><text fill="#000000" font-family="sans-serif" font-size="13" lengthAdjust="spacing" textLength="23.0356" x="960.7445" y="942.6463">0..*</text></g><!--reverse link VfComponentEventItem to VfClientComponentFetcher--><g class="link" data-entity-1="ent0019" data-entity-2="ent0020" data-link-type="extension" data-source-line="108" id="lnk30"><path codeLine="108" d="M810.2238,1090.3653 C761.8838,1110.0053 725.81,1124.65 678.93,1143.69" fill="none" id="VfComponentEventItem-backto-VfClientComponentFetcher" style="stroke:#181818;stroke-width:1;"/><polygon fill="none" points="826.9,1083.59,807.9654,1084.8066,812.4823,1095.9241,826.9,1083.59" style="stroke:#181818;stroke-width:1;"/></g><!--reverse link VfComponentEventItem to VfClientComponentSetter--><g class="link" data-entity-1="ent0019" data-entity-2="ent0021" data-link-type="extension" data-source-line="109" id="lnk31"><path codeLine="109" d="M985,1101.47 C985,1121.21 985,1124.78 985,1143.91" fill="none" id="VfComponentEventItem-backto-VfClientComponentSetter" style="stroke:#181818;stroke-width:1;"/><polygon fill="none" points="985,1083.47,979,1101.47,991,1101.47,985,1083.47" style="stroke:#181818;stroke-width:1;"/></g><!--reverse link VfComponentEventItem to VfComponentChangeNotifier--><g class="link" data-entity-1="ent0019" data-entity-2="ent0022" data-link-type="extension" data-source-line="110" id="lnk32"><path codeLine="110" d="M1152.5435,1090.6362 C1205.3635,1113.1062 1247.14,1130.88 1296.29,1151.78" fill="none" id="VfComponentEventItem-backto-VfComponentChangeNotifier" style="stroke:#181818;stroke-width:1;"/><polygon fill="none" points="1135.98,1083.59,1150.1948,1096.1574,1154.8923,1085.1151,1135.98,1083.59" style="stroke:#181818;stroke-width:1;"/></g><?plantuml-src nLTDZzem4BtdLumuj04jgBsk41TOkdjP5KNbKbMLIKpYRc8Zsx1QRVdl7JiX7yG9Y_h5WU1uPZnl_ERPa8tIaeGQmfGe1NS7odNmeZJDuDK3_2WMSvB2GR38_0ueZwoHlx8F657p65hRLr94E-RsEob2gfJJ_kXv-PBhxJpBGzuJ7gLKDfPlnvbC9iDgYaJH0rhxLHGp_AmbC7pM32NDn85Uj1stqe7iUoYoZF36MvE_joFX4uaf3EwuPle5n8vAefdWQW3JwLAIZCvc1P0EiCMi6wgZn5S1lnQyBS3gdgXaohY-WO1iwOAcLDE0wXaMWbgSnb5PXwFzva9Ja2nEj1qkMQeHc8-lsPQ5jY13A6eujbWKRAN8h3NZECDu33bO1MW44KCUiSqUu-e4kQ25mKiZwx7UvkKkGO3O_A0XkZupdK16T9YOW7coyB2mNiXRcwXdHwH9-tR8Qbkm4X1JdHiyHFvPQLLVG_GqnRp6ARy-W55ORD3567TI2bdtNH1D_F8NZ0Jk2iFsBLyDYsrhKZ9bE9q33FOR5MBfEvdPoBlinHP_dPcrpKtrYYLtXYUrwfuBpocnoDy8aO9ukh5RKr0okeZi2rV_7bkvw0LqjUIkmPSZmrnsWXkW3lh-FNnk1IgJkLQAUXmBJLe5A0eyTkXIUF9rIfCMkxembSRWKmDr295f5gD8fHhb8d6cH8K86LwrAcuTt3fKhSVnG728qNlO2XbIICcBsEj2upgQSlmrOPW4_pRheRSZH8FzZI1T738dN7d0bTEzPrnBLNkPsIsinKR3EvmkGppYIdzGV6jvMNwNhtBb3El3DmlnXQ0dEPwtWpk5gxHRKkHIdsoTBtonkIyxA4sa_bJRW6xrGgibuqmbbNIjraGoWZjo8EcUlWKZjhB-7n23EiGoRP56QvDv3Gcdp-iAZFDkV5O6D-pJOlE4y9W-sblITS1_0_TPoXPGdiYf0O-cyUl_0wO_n-EkMxhdTLtVH-Wq-3Xmt7XlGJnp1REsAmZZz64o6GqSLx9RI8W2bH296bnSximvOK9vRVDJsauTVPjzGrExNJeLjEU0RY1rp3V0LYT83Q_3gG7XN3okSSbxiT_3JMFl5m00?></g></svg>