<svg xmlns="http://www.w3.org/2000/svg" xmlns:xlink="http://www.w3.org/1999/xlink" contentStyleType="text/css" data-diagram-type="CLASS" height="1368px" preserveAspectRatio="none" style="width:1492px;height:1368px;background:#FFFFFF;" version="1.1" viewBox="0 0 1492 1368" width="1492px" zoomAndPan="magnify"><defs/><g><!--cluster Entity operations--><g class="cluster" data-entity="Entity operations" data-source-line="15" data-uid="ent0004" id="cluster_Entity operations"><rect fill="none" height="585.88" rx="2.5" ry="2.5" style="stroke:#181818;stroke-width:1;" width="1122" x="7" y="343.41"/><path d="M136.0416,343.41 L136.0416,355.4779 L126.0416,365.4779 L7,365.4779" fill="none" style="stroke:#181818;stroke-width:1;"/><text fill="#000000" font-family="sans-serif" font-size="14" font-weight="bold" lengthAdjust="spacing" textLength="119.0416" x="10" y="359.3759">Entity operations</text></g><!--cluster Component operations--><g class="cluster" data-entity="Component operations" data-source-line="67" data-uid="ent0018" id="cluster_Component operations"><rect fill="none" height="382.61" rx="2.5" ry="2.5" style="stroke:#181818;stroke-width:1;" width="1155" x="331" y="980.29"/><path d="M501.7999,980.29 L501.7999,992.3579 L491.7999,1002.3579 L331,1002.3579" fill="none" style="stroke:#181818;stroke-width:1;"/><text fill="#000000" font-family="sans-serif" font-size="14" font-weight="bold" lengthAdjust="spacing" textLength="160.7999" x="334" y="996.2559">Component operations</text></g><!--class VfCmdEventHandler--><g class="entity" data-entity="VfCmdEventHandler" data-source-line="16" data-uid="ent0005" id="entity_VfCmdEventHandler"><rect fill="#F1F1F1" height="124.2717" rx="2.5" ry="2.5" style="stroke:#181818;stroke-width:0.5;" width="300.5529" x="380.72" y="381.41"/><ellipse cx="460.2257" cy="397.41" fill="#ADD1B2" rx="11" ry="11" style="stroke:#181818;stroke-width:1;"/><path d="M460.3351,392.9413 Q459.4132,392.9413 458.6788,393.2538 Q457.9601,393.5663 457.4601,394.16 Q456.9601,394.7381 456.6788,395.6131 Q456.4132,396.4881 456.4132,397.5819 Q456.4132,399.0194 456.8507,400.0663 Q457.3038,401.1131 458.1476,401.66 Q459.007,402.2069 460.3195,402.2069 Q461.1007,402.2069 461.7882,402.0819 Q462.4913,401.9413 463.4913,401.6288 L463.4913,403.5038 Q462.632,403.8319 461.8663,403.9569 Q461.1163,404.0819 460.1007,404.0819 Q458.1788,404.0819 456.8663,403.285 Q455.5695,402.4725 454.9132,401.0038 Q454.257,399.5194 454.257,397.5506 Q454.257,396.1288 454.6476,394.9569 Q455.0538,393.7694 455.8351,392.8944 Q456.6163,392.0194 457.757,391.5506 Q458.8976,391.0663 460.3663,391.0663 Q461.3195,391.0663 462.2101,391.2694 Q463.1163,391.4569 464.0538,391.9256 L463.2257,393.7069 Q462.4445,393.3319 461.7882,393.1444 Q461.132,392.9413 460.3351,392.9413 Z " fill="#000000"/><text fill="#000000" font-family="sans-serif" font-size="14" lengthAdjust="spacing" textLength="133.0415" x="480.7257" y="402.842">VfCmdEventHandler</text><line style="stroke:#181818;stroke-width:0.5;" x1="381.72" x2="680.2729" y1="413.41" y2="413.41"/><rect fill="none" height="6" style="stroke:#C82930;stroke-width:1;" width="6" x="388.72" y="425.444"/><text fill="#000000" font-family="sans-serif" font-size="14" lengthAdjust="spacing" textLength="274.5529" x="400.72" y="432.3759">QHash&lt;int, SafeDeleteSet&gt; m_entityItems</text><line style="stroke:#181818;stroke-width:0.5;" x1="381.72" x2="680.2729" y1="440.4779" y2="440.4779"/><text fill="#000000" font-family="sans-serif" font-size="14" lengthAdjust="spacing" textLength="222.6271" x="386.72" y="459.4439">void processEvent(QEvent *event)</text><text fill="#000000" font-family="sans-serif" font-size="14" lengthAdjust="spacing" textLength="259.349" x="386.72" y="478.5118">void addItem(VfCmdEventItemPtr item)</text><text fill="#000000" font-family="sans-serif" font-size="14" lengthAdjust="spacing" textLength="284.5209" x="386.72" y="497.5797">void removeItem(VfCmdEventItemPtr item)</text></g><g class="entity" data-entity="GMN6" data-source-line="23" data-uid="ent0007" id="entity_GMN6"><path d="M716.14,411.98 L716.14,439.54 L681.46,443.54 L716.14,447.54 L716.14,475.098 A0,0 0 0 0 716.14,475.098 L1039.8583,475.098 A0,0 0 0 0 1039.8583,475.098 L1039.8583,421.98 L1029.8583,411.98 L716.14,411.98 A0,0 0 0 0 716.14,411.98" fill="#FEFFDD" style="stroke:#181818;stroke-width:0.5;"/><path d="M1029.8583,411.98 L1029.8583,421.98 L1039.8583,421.98 L1029.8583,411.98" fill="#FEFFDD" style="stroke:#181818;stroke-width:0.5;"/><text fill="#000000" font-family="sans-serif" font-size="13" lengthAdjust="spacing" textLength="254.0462" x="722.14" y="430.877">Filter (notification) command-events from</text><text fill="#000000" font-family="sans-serif" font-size="13" lengthAdjust="spacing" textLength="293.3323" x="722.14" y="448.583">incoming QEvents and distribute them to added</text><text fill="#000000" font-family="sans-serif" font-size="13" lengthAdjust="spacing" textLength="302.7183" x="722.14" y="466.289">VfEntityEventItem objects with matching entity ID</text></g><!--class VfEntityEventItem--><g class="entity" data-entity="VfEntityEventItem" data-source-line="28" data-uid="ent0009" id="entity_VfEntityEventItem"><rect fill="#F1F1F1" height="124.2717" rx="2.5" ry="2.5" style="stroke:#181818;stroke-width:0.5;" width="443.3383" x="309.33" y="584.68"/><ellipse cx="472.3384" cy="600.68" fill="#A9DCDF" rx="11" ry="11" style="stroke:#181818;stroke-width:1;"/><path d="M475.6821,605.93 L474.2134,602.18 L469.7759,602.18 L468.3384,605.93 L466.2134,605.93 L471.1665,593.2113 L472.9165,593.2113 L477.8384,605.93 L475.6821,605.93 Z M472.3384,596.9769 Q472.2915,596.8206 472.1665,596.4613 Q472.0415,596.1019 471.9321,595.7269 Q471.8227,595.3363 472.0259,595.2738 Q472.1821,595.4613 472.0884,595.8206 Q471.9946,596.1644 471.9009,596.4613 Q471.8071,596.7425 471.729,596.9769 L470.4946,600.2894 L473.5727,600.2894 L472.3384,596.9769 Z " fill="#000000"/><text fill="#000000" font-family="sans-serif" font-size="14" font-style="italic" lengthAdjust="spacing" textLength="108.8216" x="492.8384" y="606.112">VfEntityEventItem</text><line style="stroke:#181818;stroke-width:0.5;" x1="310.33" x2="751.6683" y1="616.68" y2="616.68"/><line style="stroke:#181818;stroke-width:0.5;" x1="310.33" x2="751.6683" y1="624.68" y2="624.68"/><text fill="#000000" font-family="sans-serif" font-size="14" lengthAdjust="spacing" textLength="101.5696" x="315.33" y="643.6459">int getEntityId()</text><text fill="#000000" font-family="sans-serif" font-size="14" lengthAdjust="spacing" textLength="203.6012" x="315.33" y="662.7139">void sendEvent(QEvent *event)</text><text fill="#000000" font-family="sans-serif" font-size="14" font-style="italic" lengthAdjust="spacing" textLength="352.8826" x="315.33" y="681.7818">void processCommandEvent(CommandEvent *cmdEvent)</text><text fill="#000000" font-family="sans-serif" font-size="14" font-style="italic" lengthAdjust="spacing" textLength="431.3383" x="315.33" y="700.8497">void processErrorCommandEventData(EventData *originalEventData)</text></g><!--class VfClientEntitySubscriber--><g class="entity" data-entity="VfClientEntitySubscriber" data-source-line="35" data-uid="ent0010" id="entity_VfClientEntitySubscriber"><rect fill="#F1F1F1" height="124.2717" rx="2.5" ry="2.5" style="stroke:#181818;stroke-width:0.5;" width="314.2029" x="22.9" y="779.48"/><ellipse cx="96.6307" cy="795.48" fill="#ADD1B2" rx="11" ry="11" style="stroke:#181818;stroke-width:1;"/><path d="M96.7401,791.0113 Q95.8182,791.0113 95.0839,791.3238 Q94.3651,791.6363 93.8651,792.23 Q93.3651,792.8081 93.0839,793.6831 Q92.8182,794.5581 92.8182,795.6519 Q92.8182,797.0894 93.2557,798.1363 Q93.7089,799.1831 94.5526,799.73 Q95.412,800.2769 96.7245,800.2769 Q97.5057,800.2769 98.1932,800.1519 Q98.8964,800.0113 99.8964,799.6988 L99.8964,801.5738 Q99.037,801.9019 98.2714,802.0269 Q97.5214,802.1519 96.5057,802.1519 Q94.5839,802.1519 93.2714,801.355 Q91.9745,800.5425 91.3182,799.0738 Q90.662,797.5894 90.662,795.6206 Q90.662,794.1988 91.0526,793.0269 Q91.4589,791.8394 92.2401,790.9644 Q93.0214,790.0894 94.162,789.6206 Q95.3026,789.1363 96.7714,789.1363 Q97.7245,789.1363 98.6151,789.3394 Q99.5214,789.5269 100.4589,789.9956 L99.6307,791.7769 Q98.8495,791.4019 98.1932,791.2144 Q97.537,791.0113 96.7401,791.0113 Z " fill="#000000"/><text fill="#000000" font-family="sans-serif" font-size="14" lengthAdjust="spacing" textLength="158.2414" x="117.1307" y="800.912">VfClientEntitySubscriber</text><line style="stroke:#181818;stroke-width:0.5;" x1="23.9" x2="336.1029" y1="811.48" y2="811.48"/><line style="stroke:#181818;stroke-width:0.5;" x1="23.9" x2="336.1029" y1="819.48" y2="819.48"/><text fill="#000000" font-family="sans-serif" font-size="14" lengthAdjust="spacing" textLength="207.1012" x="28.9" y="838.4459">void processCommandEvent(...)</text><text fill="#000000" font-family="sans-serif" font-size="14" lengthAdjust="spacing" textLength="271.683" x="28.9" y="857.5139">void processErrorCommandEventData(...)</text><text fill="#000000" font-family="sans-serif" font-size="14" lengthAdjust="spacing" textLength="153.8734" x="28.9" y="876.5818">void sendSubscription()</text><text fill="#000000" font-family="sans-serif" font-size="14" lengthAdjust="spacing" textLength="302.2029" x="28.9" y="895.6497">signal void sigSubscribed(bool ok, int entityId)</text></g><!--class VfClientEntityUnsubscriber--><g class="entity" data-entity="VfClientEntityUnsubscriber" data-source-line="42" data-uid="ent0011" id="entity_VfClientEntityUnsubscriber"><rect fill="#F1F1F1" height="124.2717" rx="2.5" ry="2.5" style="stroke:#181818;stroke-width:0.5;" width="332.1088" x="371.95" y="779.48"/><ellipse cx="445.6807" cy="795.48" fill="#ADD1B2" rx="11" ry="11" style="stroke:#181818;stroke-width:1;"/><path d="M445.7901,791.0113 Q444.8682,791.0113 444.1339,791.3238 Q443.4151,791.6363 442.9151,792.23 Q442.4151,792.8081 442.1339,793.6831 Q441.8682,794.5581 441.8682,795.6519 Q441.8682,797.0894 442.3057,798.1363 Q442.7589,799.1831 443.6026,799.73 Q444.462,800.2769 445.7745,800.2769 Q446.5557,800.2769 447.2432,800.1519 Q447.9464,800.0113 448.9464,799.6988 L448.9464,801.5738 Q448.087,801.9019 447.3214,802.0269 Q446.5714,802.1519 445.5557,802.1519 Q443.6339,802.1519 442.3214,801.355 Q441.0245,800.5425 440.3682,799.0738 Q439.712,797.5894 439.712,795.6206 Q439.712,794.1988 440.1026,793.0269 Q440.5089,791.8394 441.2901,790.9644 Q442.0714,790.0894 443.212,789.6206 Q444.3526,789.1363 445.8214,789.1363 Q446.7745,789.1363 447.6651,789.3394 Q448.5714,789.5269 449.5089,789.9956 L448.6807,791.7769 Q447.8995,791.4019 447.2432,791.2144 Q446.587,791.0113 445.7901,791.0113 Z " fill="#000000"/><text fill="#000000" font-family="sans-serif" font-size="14" lengthAdjust="spacing" textLength="176.1473" x="466.1807" y="800.912">VfClientEntityUnsubscriber</text><line style="stroke:#181818;stroke-width:0.5;" x1="372.95" x2="703.0588" y1="811.48" y2="811.48"/><line style="stroke:#181818;stroke-width:0.5;" x1="372.95" x2="703.0588" y1="819.48" y2="819.48"/><text fill="#000000" font-family="sans-serif" font-size="14" lengthAdjust="spacing" textLength="207.1012" x="377.95" y="838.4459">void processCommandEvent(...)</text><text fill="#000000" font-family="sans-serif" font-size="14" lengthAdjust="spacing" textLength="271.683" x="377.95" y="857.5139">void processErrorCommandEventData(...)</text><text fill="#000000" font-family="sans-serif" font-size="14" lengthAdjust="spacing" textLength="171.7793" x="377.95" y="876.5818">void sendUnsubscription()</text><text fill="#000000" font-family="sans-serif" font-size="14" lengthAdjust="spacing" textLength="320.1088" x="377.95" y="895.6497">signal void sigUnsubscribed(bool ok, int entityId)</text></g><!--class VfEntityComponentEventItem--><g class="entity" data-entity="VfEntityComponentEventItem" data-source-line="49" data-uid="ent0012" id="entity_VfEntityComponentEventItem"><rect fill="#F1F1F1" height="143.3396" rx="2.5" ry="2.5" style="stroke:#181818;stroke-width:0.5;" width="374.2626" x="738.87" y="769.95"/><ellipse cx="823.9827" cy="785.95" fill="#ADD1B2" rx="11" ry="11" style="stroke:#181818;stroke-width:1;"/><path d="M824.0921,781.4813 Q823.1702,781.4813 822.4358,781.7938 Q821.7171,782.1063 821.2171,782.7 Q820.7171,783.2781 820.4358,784.1531 Q820.1702,785.0281 820.1702,786.1219 Q820.1702,787.5594 820.6077,788.6063 Q821.0608,789.6531 821.9046,790.2 Q822.7639,790.7469 824.0764,790.7469 Q824.8577,790.7469 825.5452,790.6219 Q826.2483,790.4813 827.2483,790.1688 L827.2483,792.0438 Q826.3889,792.3719 825.6233,792.4969 Q824.8733,792.6219 823.8577,792.6219 Q821.9358,792.6219 820.6233,791.825 Q819.3264,791.0125 818.6702,789.5438 Q818.0139,788.0594 818.0139,786.0906 Q818.0139,784.6688 818.4046,783.4969 Q818.8108,782.3094 819.5921,781.4344 Q820.3733,780.5594 821.5139,780.0906 Q822.6546,779.6063 824.1233,779.6063 Q825.0764,779.6063 825.9671,779.8094 Q826.8733,779.9969 827.8108,780.4656 L826.9827,782.2469 Q826.2014,781.8719 825.5452,781.6844 Q824.8889,781.4813 824.0921,781.4813 Z " fill="#000000"/><text fill="#000000" font-family="sans-serif" font-size="14" lengthAdjust="spacing" textLength="195.5372" x="844.4827" y="791.382">VfEntityComponentEventItem</text><line style="stroke:#181818;stroke-width:0.5;" x1="739.87" x2="1112.1326" y1="801.95" y2="801.95"/><rect fill="none" height="6" style="stroke:#C82930;stroke-width:1;" width="6" x="746.87" y="813.984"/><text fill="#000000" font-family="sans-serif" font-size="14" lengthAdjust="spacing" textLength="345.7708" x="758.87" y="820.9159">QHash&lt;QString, SafeDeleteSet&gt; m_componentItems</text><line style="stroke:#181818;stroke-width:0.5;" x1="739.87" x2="1112.1326" y1="829.0179" y2="829.0179"/><text fill="#000000" font-family="sans-serif" font-size="14" lengthAdjust="spacing" textLength="207.1012" x="744.87" y="847.9839">void processCommandEvent(...)</text><text fill="#000000" font-family="sans-serif" font-size="14" lengthAdjust="spacing" textLength="271.683" x="744.87" y="867.0518">void processErrorCommandEventData(...)</text><text fill="#000000" font-family="sans-serif" font-size="14" lengthAdjust="spacing" textLength="337.0907" x="744.87" y="886.1197">void addItem(VfCmdEventItemComponentPtr item)</text><text fill="#000000" font-family="sans-serif" font-size="14" lengthAdjust="spacing" textLength="362.2626" x="744.87" y="905.1876">void removeItem(VfCmdEventItemComponentPtr item)</text></g><g class="entity" data-entity="GMN13" data-source-line="57" data-uid="ent0014" id="entity_GMN13"><path d="M787.5,615.25 L787.5,678.368 A0,0 0 0 0 787.5,678.368 L937.95,678.368 L932.99,769.7 L945.95,678.368 L1102.4952,678.368 A0,0 0 0 0 1102.4952,678.368 L1102.4952,625.25 L1092.4952,615.25 L787.5,615.25 A0,0 0 0 0 787.5,615.25" fill="#FEFFDD" style="stroke:#181818;stroke-width:0.5;"/><path d="M1092.4952,615.25 L1092.4952,625.25 L1102.4952,625.25 L1092.4952,615.25" fill="#FEFFDD" style="stroke:#181818;stroke-width:0.5;"/><text fill="#000000" font-family="sans-serif" font-size="13" lengthAdjust="spacing" textLength="271.2322" x="793.5" y="634.147">Filter component (error) data from incoming</text><text fill="#000000" font-family="sans-serif" font-size="13" lengthAdjust="spacing" textLength="293.9952" x="793.5" y="651.853">and distribute to added VfComponentEventItem</text><text fill="#000000" font-family="sans-serif" font-size="13" lengthAdjust="spacing" textLength="246.3503" x="793.5" y="669.559">objects with matching component name</text></g><!--class VfComponentEventItem--><g class="entity" data-entity="VfComponentEventItem" data-source-line="68" data-uid="ent0019" id="entity_VfComponentEventItem"><rect fill="#F1F1F1" height="143.3396" rx="2.5" ry="2.5" style="stroke:#181818;stroke-width:0.5;" width="528.1779" x="661.91" y="1018.29"/><ellipse cx="848.6202" cy="1034.29" fill="#A9DCDF" rx="11" ry="11" style="stroke:#181818;stroke-width:1;"/><path d="M851.964,1039.54 L850.4952,1035.79 L846.0577,1035.79 L844.6202,1039.54 L842.4952,1039.54 L847.4484,1026.8213 L849.1984,1026.8213 L854.1202,1039.54 L851.964,1039.54 Z M848.6202,1030.5869 Q848.5734,1030.4306 848.4484,1030.0713 Q848.3234,1029.7119 848.214,1029.3369 Q848.1046,1028.9463 848.3077,1028.8838 Q848.464,1029.0713 848.3702,1029.4306 Q848.2765,1029.7744 848.1827,1030.0713 Q848.089,1030.3525 848.0109,1030.5869 L846.7765,1033.8994 L849.8546,1033.8994 L848.6202,1030.5869 Z " fill="#000000"/><text fill="#000000" font-family="sans-serif" font-size="14" font-style="italic" lengthAdjust="spacing" textLength="146.2575" x="869.1202" y="1039.722">VfComponentEventItem</text><line style="stroke:#181818;stroke-width:0.5;" x1="662.91" x2="1189.0879" y1="1050.29" y2="1050.29"/><line style="stroke:#181818;stroke-width:0.5;" x1="662.91" x2="1189.0879" y1="1058.29" y2="1058.29"/><text fill="#000000" font-family="sans-serif" font-size="14" lengthAdjust="spacing" textLength="101.5696" x="667.91" y="1077.2559">int getEntityId()</text><text fill="#000000" font-family="sans-serif" font-size="14" lengthAdjust="spacing" textLength="211.3992" x="667.91" y="1096.3239">QString &amp;getComponentName()</text><text fill="#000000" font-family="sans-serif" font-size="14" lengthAdjust="spacing" textLength="203.6012" x="667.91" y="1115.3918">void sendEvent(QEvent *event)</text><text fill="#000000" font-family="sans-serif" font-size="14" font-style="italic" lengthAdjust="spacing" textLength="434.0543" x="667.91" y="1134.4597">void processComponentEventData(ComponentData *componentData)</text><text fill="#000000" font-family="sans-serif" font-size="14" font-style="italic" lengthAdjust="spacing" textLength="516.1779" x="667.91" y="1153.5276">void processErrorComponentEventData(ComponentData *originalComponentData)</text></g><!--class VfClientComponentFetcher--><g class="entity" data-entity="VfClientComponentFetcher" data-source-line="76" data-uid="ent0020" id="entity_VfClientComponentFetcher"><rect fill="#F1F1F1" height="124.2717" rx="2.5" ry="2.5" style="stroke:#181818;stroke-width:0.5;" width="328.1468" x="346.93" y="1222.63"/><ellipse cx="417.8047" cy="1238.63" fill="#ADD1B2" rx="11" ry="11" style="stroke:#181818;stroke-width:1;"/><path d="M417.9141,1234.1613 Q416.9922,1234.1613 416.2579,1234.4738 Q415.5391,1234.7863 415.0391,1235.38 Q414.5391,1235.9581 414.2579,1236.8331 Q413.9922,1237.7081 413.9922,1238.8019 Q413.9922,1240.2394 414.4297,1241.2863 Q414.8829,1242.3331 415.7266,1242.88 Q416.586,1243.4269 417.8985,1243.4269 Q418.6797,1243.4269 419.3672,1243.3019 Q420.0704,1243.1613 421.0704,1242.8488 L421.0704,1244.7238 Q420.211,1245.0519 419.4454,1245.1769 Q418.6954,1245.3019 417.6797,1245.3019 Q415.7579,1245.3019 414.4454,1244.505 Q413.1485,1243.6925 412.4922,1242.2238 Q411.836,1240.7394 411.836,1238.7706 Q411.836,1237.3488 412.2266,1236.1769 Q412.6329,1234.9894 413.4141,1234.1144 Q414.1954,1233.2394 415.336,1232.7706 Q416.4766,1232.2863 417.9454,1232.2863 Q418.8985,1232.2863 419.7891,1232.4894 Q420.6954,1232.6769 421.6329,1233.1456 L420.8047,1234.9269 Q420.0235,1234.5519 419.3672,1234.3644 Q418.711,1234.1613 417.9141,1234.1613 Z " fill="#000000"/><text fill="#000000" font-family="sans-serif" font-size="14" lengthAdjust="spacing" textLength="177.8973" x="438.3047" y="1244.062">VfClientComponentFetcher</text><line style="stroke:#181818;stroke-width:0.5;" x1="347.93" x2="674.0768" y1="1254.63" y2="1254.63"/><line style="stroke:#181818;stroke-width:0.5;" x1="347.93" x2="674.0768" y1="1262.63" y2="1262.63"/><text fill="#000000" font-family="sans-serif" font-size="14" lengthAdjust="spacing" textLength="247.211" x="352.93" y="1281.5959">void processComponentEventData(...)</text><text fill="#000000" font-family="sans-serif" font-size="14" lengthAdjust="spacing" textLength="280.8109" x="352.93" y="1300.6639">void processErrorComponentEventData(...)</text><text fill="#000000" font-family="sans-serif" font-size="14" lengthAdjust="spacing" textLength="171.1774" x="352.93" y="1319.7318">void startGetComponent()</text><text fill="#000000" font-family="sans-serif" font-size="14" lengthAdjust="spacing" textLength="316.1468" x="352.93" y="1338.7997">signal void sigGetFinish(bool ok, QVariant value)</text></g><!--class VfClientComponentSetter--><g class="entity" data-entity="VfClientComponentSetter" data-source-line="83" data-uid="ent0021" id="entity_VfClientComponentSetter"><rect fill="#F1F1F1" height="124.2717" rx="2.5" ry="2.5" style="stroke:#181818;stroke-width:0.5;" width="432.6984" x="709.65" y="1222.63"/><ellipse cx="837.7495" cy="1238.63" fill="#ADD1B2" rx="11" ry="11" style="stroke:#181818;stroke-width:1;"/><path d="M837.8589,1234.1613 Q836.937,1234.1613 836.2027,1234.4738 Q835.4839,1234.7863 834.9839,1235.38 Q834.4839,1235.9581 834.2027,1236.8331 Q833.937,1237.7081 833.937,1238.8019 Q833.937,1240.2394 834.3745,1241.2863 Q834.8277,1242.3331 835.6714,1242.88 Q836.5308,1243.4269 837.8433,1243.4269 Q838.6245,1243.4269 839.312,1243.3019 Q840.0152,1243.1613 841.0152,1242.8488 L841.0152,1244.7238 Q840.1558,1245.0519 839.3902,1245.1769 Q838.6402,1245.3019 837.6245,1245.3019 Q835.7027,1245.3019 834.3902,1244.505 Q833.0933,1243.6925 832.437,1242.2238 Q831.7808,1240.7394 831.7808,1238.7706 Q831.7808,1237.3488 832.1714,1236.1769 Q832.5777,1234.9894 833.3589,1234.1144 Q834.1402,1233.2394 835.2808,1232.7706 Q836.4214,1232.2863 837.8902,1232.2863 Q838.8433,1232.2863 839.7339,1232.4894 Q840.6402,1232.6769 841.5777,1233.1456 L840.7495,1234.9269 Q839.9683,1234.5519 839.312,1234.3644 Q838.6558,1234.1613 837.8589,1234.1613 Z " fill="#000000"/><text fill="#000000" font-family="sans-serif" font-size="14" lengthAdjust="spacing" textLength="167.9993" x="858.2495" y="1244.062">VfClientComponentSetter</text><line style="stroke:#181818;stroke-width:0.5;" x1="710.65" x2="1141.3484" y1="1254.63" y2="1254.63"/><line style="stroke:#181818;stroke-width:0.5;" x1="710.65" x2="1141.3484" y1="1262.63" y2="1262.63"/><text fill="#000000" font-family="sans-serif" font-size="14" lengthAdjust="spacing" textLength="247.211" x="715.65" y="1281.5959">void processComponentEventData(...)</text><text fill="#000000" font-family="sans-serif" font-size="14" lengthAdjust="spacing" textLength="280.8109" x="715.65" y="1300.6639">void processErrorComponentEventData(...)</text><text fill="#000000" font-family="sans-serif" font-size="14" lengthAdjust="spacing" textLength="420.6984" x="715.65" y="1319.7318">void startSetComponent(QVariant oldValue, QVariant newValue)</text><text fill="#000000" font-family="sans-serif" font-size="14" lengthAdjust="spacing" textLength="209.3412" x="715.65" y="1338.7997">signal void sigSetFinish(bool ok)</text></g><!--class VfComponentChangeNotifier--><g class="entity" data-entity="VfComponentChangeNotifier" data-source-line="90" data-uid="ent0022" id="entity_VfComponentChangeNotifier"><rect fill="#F1F1F1" height="105.2038" rx="2.5" ry="2.5" style="stroke:#181818;stroke-width:0.5;" width="292.8109" x="1177.59" y="1232.16"/><ellipse cx="1224.0699" cy="1248.16" fill="#ADD1B2" rx="11" ry="11" style="stroke:#181818;stroke-width:1;"/><path d="M1224.1792,1243.6913 Q1223.2574,1243.6913 1222.523,1244.0038 Q1221.8042,1244.3163 1221.3042,1244.91 Q1220.8042,1245.4881 1220.523,1246.3631 Q1220.2574,1247.2381 1220.2574,1248.3319 Q1220.2574,1249.7694 1220.6949,1250.8163 Q1221.148,1251.8631 1221.9917,1252.41 Q1222.8511,1252.9569 1224.1636,1252.9569 Q1224.9449,1252.9569 1225.6324,1252.8319 Q1226.3355,1252.6913 1227.3355,1252.3788 L1227.3355,1254.2538 Q1226.4761,1254.5819 1225.7105,1254.7069 Q1224.9605,1254.8319 1223.9449,1254.8319 Q1222.023,1254.8319 1220.7105,1254.035 Q1219.4136,1253.2225 1218.7574,1251.7538 Q1218.1011,1250.2694 1218.1011,1248.3006 Q1218.1011,1246.8788 1218.4917,1245.7069 Q1218.898,1244.5194 1219.6792,1243.6444 Q1220.4605,1242.7694 1221.6011,1242.3006 Q1222.7417,1241.8163 1224.2105,1241.8163 Q1225.1636,1241.8163 1226.0542,1242.0194 Q1226.9605,1242.2069 1227.898,1242.6756 L1227.0699,1244.4569 Q1226.2886,1244.0819 1225.6324,1243.8944 Q1224.9761,1243.6913 1224.1792,1243.6913 Z " fill="#000000"/><text fill="#000000" font-family="sans-serif" font-size="14" lengthAdjust="spacing" textLength="191.3512" x="1244.5699" y="1253.592">VfComponentChangeNotifier</text><line style="stroke:#181818;stroke-width:0.5;" x1="1178.59" x2="1469.4009" y1="1264.16" y2="1264.16"/><line style="stroke:#181818;stroke-width:0.5;" x1="1178.59" x2="1469.4009" y1="1272.16" y2="1272.16"/><text fill="#000000" font-family="sans-serif" font-size="14" lengthAdjust="spacing" textLength="243.4591" x="1183.59" y="1291.1259">void processComponentEventData(..)</text><text fill="#000000" font-family="sans-serif" font-size="14" lengthAdjust="spacing" textLength="280.8109" x="1183.59" y="1310.1939">void processErrorComponentEventData(...)</text><text fill="#000000" font-family="sans-serif" font-size="14" lengthAdjust="spacing" textLength="196.9932" x="1183.59" y="1329.2618">signal void sigValueChanged()</text></g><!--class EventSystem--><g class="entity" data-entity="EventSystem" data-source-line="2" data-uid="ent0002" id="entity_EventSystem"><rect fill="#F1F1F1" height="86.1358" rx="2.5" ry="2.5" style="stroke:#181818;stroke-width:0.5;" width="278.1949" x="391.9" y="7"/><ellipse cx="488.2406" cy="23" fill="#A9DCDF" rx="11" ry="11" style="stroke:#181818;stroke-width:1;"/><path d="M491.5844,28.25 L490.1156,24.5 L485.6781,24.5 L484.2406,28.25 L482.1156,28.25 L487.0687,15.5313 L488.8187,15.5313 L493.7406,28.25 L491.5844,28.25 Z M488.2406,19.2969 Q488.1937,19.1406 488.0687,18.7813 Q487.9437,18.4219 487.8344,18.0469 Q487.725,17.6563 487.9281,17.5938 Q488.0844,17.7813 487.9906,18.1406 Q487.8969,18.4844 487.8031,18.7813 Q487.7094,19.0625 487.6312,19.2969 L486.3969,22.6094 L489.475,22.6094 L488.2406,19.2969 Z " fill="#000000"/><text fill="#000000" font-family="sans-serif" font-size="14" font-style="italic" lengthAdjust="spacing" textLength="77.0137" x="508.7406" y="28.432">EventSystem</text><line style="stroke:#181818;stroke-width:0.5;" x1="392.9" x2="669.0949" y1="39" y2="39"/><line style="stroke:#181818;stroke-width:0.5;" x1="392.9" x2="669.0949" y1="47" y2="47"/><text fill="#000000" font-family="sans-serif" font-size="14" lengthAdjust="spacing" textLength="266.1949" x="397.9" y="65.9659">signal void sigSendEvent(QEvent *event)</text><text fill="#000000" font-family="sans-serif" font-size="14" font-style="italic" lengthAdjust="spacing" textLength="206.5412" x="397.9" y="85.0339">void processEvent(QEvent *event)</text></g><!--class VfCmdEventHandlerSystem--><g class="entity" data-entity="VfCmdEventHandlerSystem" data-source-line="7" data-uid="ent0003" id="entity_VfCmdEventHandlerSystem"><rect fill="#F1F1F1" height="124.2717" rx="2.5" ry="2.5" style="stroke:#181818;stroke-width:0.5;" width="337.7508" x="362.12" y="154.13"/><ellipse cx="436.4388" cy="170.13" fill="#ADD1B2" rx="11" ry="11" style="stroke:#181818;stroke-width:1;"/><path d="M436.5481,165.6613 Q435.6263,165.6613 434.8919,165.9738 Q434.1731,166.2863 433.6731,166.88 Q433.1731,167.4581 432.8919,168.3331 Q432.6263,169.2081 432.6263,170.3019 Q432.6263,171.7394 433.0638,172.7863 Q433.5169,173.8331 434.3606,174.38 Q435.22,174.9269 436.5325,174.9269 Q437.3138,174.9269 438.0013,174.8019 Q438.7044,174.6613 439.7044,174.3488 L439.7044,176.2238 Q438.845,176.5519 438.0794,176.6769 Q437.3294,176.8019 436.3138,176.8019 Q434.3919,176.8019 433.0794,176.005 Q431.7825,175.1925 431.1263,173.7238 Q430.47,172.2394 430.47,170.2706 Q430.47,168.8488 430.8606,167.6769 Q431.2669,166.4894 432.0481,165.6144 Q432.8294,164.7394 433.97,164.2706 Q435.1106,163.7863 436.5794,163.7863 Q437.5325,163.7863 438.4231,163.9894 Q439.3294,164.1769 440.2669,164.6456 L439.4388,166.4269 Q438.6575,166.0519 438.0013,165.8644 Q437.345,165.6613 436.5481,165.6613 Z " fill="#000000"/><text fill="#000000" font-family="sans-serif" font-size="14" lengthAdjust="spacing" textLength="180.6133" x="456.9388" y="175.562">VfCmdEventHandlerSystem</text><line style="stroke:#181818;stroke-width:0.5;" x1="363.12" x2="698.8708" y1="186.13" y2="186.13"/><rect fill="none" height="6" style="stroke:#C82930;stroke-width:1;" width="6" x="370.12" y="198.164"/><text fill="#000000" font-family="sans-serif" font-size="14" lengthAdjust="spacing" textLength="311.7508" x="382.12" y="205.0959">VfCmdEventHandler m_commandEventHandler</text><line style="stroke:#181818;stroke-width:0.5;" x1="363.12" x2="698.8708" y1="213.1979" y2="213.1979"/><text fill="#000000" font-family="sans-serif" font-size="14" lengthAdjust="spacing" textLength="138.4875" x="368.12" y="232.1639">void processEvent(...)</text><text fill="#000000" font-family="sans-serif" font-size="14" lengthAdjust="spacing" textLength="259.349" x="368.12" y="251.2318">void addItem(VfCmdEventItemPtr item)</text><text fill="#000000" font-family="sans-serif" font-size="14" lengthAdjust="spacing" textLength="284.5209" x="368.12" y="270.2997">void removeItem(VfCmdEventItemPtr item)</text></g><!--link VfClientEntitySubscriber to VfClientEntityUnsubscriber--><!--link VfClientEntityUnsubscriber to VfEntityComponentEventItem--><!--reverse link EventSystem to VfCmdEventHandlerSystem--><g class="link" data-entity-1="EventSystem" data-entity-2="VfCmdEventHandlerSystem" data-source-line="97" data-uid="lnk23" id="link_EventSystem_VfCmdEventHandlerSystem"><path codeLine="97" d="M531,111.35 C531,129.79 531,133.76 531,153.93" fill="none" id="EventSystem-backto-VfCmdEventHandlerSystem" style="stroke:#181818;stroke-width:1;"/><polygon fill="none" points="531,93.35,525,111.35,537,111.35,531,93.35" style="stroke:#181818;stroke-width:1;"/></g><!--reverse link VfCmdEventHandlerSystem to VfCmdEventHandler--><g class="link" data-entity-1="VfCmdEventHandlerSystem" data-entity-2="VfCmdEventHandler" data-source-line="99" data-uid="lnk24" id="link_VfCmdEventHandlerSystem_VfCmdEventHandler"><path codeLine="99" d="M531,290.83 C531,322.61 531,349.28 531,381.06" fill="none" id="VfCmdEventHandlerSystem-backto-VfCmdEventHandler" style="stroke:#181818;stroke-width:1;"/><polygon fill="#181818" points="531,278.83,527,284.83,531,290.83,535,284.83,531,278.83" style="stroke:#181818;stroke-width:1;"/><polygon fill="#000000" points="536,323.263,538.9389,314.2179,533.0611,314.2179,536,323.263" style="stroke:#000000;stroke-width:1;"/><text fill="#000000" font-family="sans-serif" font-size="13" lengthAdjust="spacing" textLength="32.344" x="545" y="323.307">owns</text><text fill="#000000" font-family="sans-serif" font-size="13" lengthAdjust="spacing" textLength="7.436" x="523.6209" y="369.7901">1</text></g><!--reverse link VfCmdEventHandler to VfEntityEventItem--><g class="link" data-entity-1="VfCmdEventHandler" data-entity-2="VfEntityEventItem" data-source-line="100" data-uid="lnk25" id="link_VfCmdEventHandler_VfEntityEventItem"><path codeLine="100" d="M531,518.02 C531,542.88 531,559.51 531,584.36" fill="none" id="VfCmdEventHandler-backto-VfEntityEventItem" style="stroke:#181818;stroke-width:1;"/><polygon fill="none" points="531,506.02,527,512.02,531,518.02,535,512.02,531,506.02" style="stroke:#181818;stroke-width:1;"/><polygon fill="#000000" points="536,550.533,538.9389,541.4879,533.0611,541.4879,536,550.533" style="stroke:#000000;stroke-width:1;"/><text fill="#000000" font-family="sans-serif" font-size="13" lengthAdjust="spacing" textLength="142.4411" x="545" y="550.577">has shared entity items</text><text fill="#000000" font-family="sans-serif" font-size="13" lengthAdjust="spacing" textLength="21.567" x="508.755" y="572.6523">0..*</text></g><!--reverse link VfEntityEventItem to VfClientEntitySubscriber--><g class="link" data-entity-1="VfEntityEventItem" data-entity-2="VfClientEntitySubscriber" data-source-line="102" data-uid="lnk26" id="link_VfEntityEventItem_VfClientEntitySubscriber"><path codeLine="102" d="M403.2029,718.0151 C362.6729,740.2751 332.7,756.74 292.16,779.01" fill="none" id="VfEntityEventItem-backto-VfClientEntitySubscriber" style="stroke:#181818;stroke-width:1;"/><polygon fill="none" points="418.98,709.35,400.3146,712.7561,406.0913,723.2741,418.98,709.35" style="stroke:#181818;stroke-width:1;"/></g><!--reverse link VfEntityEventItem to VfClientEntityUnsubscriber--><g class="link" data-entity-1="VfEntityEventItem" data-entity-2="VfClientEntityUnsubscriber" data-source-line="103" data-uid="lnk27" id="link_VfEntityEventItem_VfClientEntityUnsubscriber"><path codeLine="103" d="M533.8846,727.3381 C534.6946,749.5981 534.95,756.74 535.76,779.01" fill="none" id="VfEntityEventItem-backto-VfClientEntityUnsubscriber" style="stroke:#181818;stroke-width:1;"/><polygon fill="none" points="533.23,709.35,527.8885,727.5563,539.8806,727.1199,533.23,709.35" style="stroke:#181818;stroke-width:1;"/></g><!--reverse link VfEntityEventItem to VfEntityComponentEventItem--><g class="link" data-entity-1="VfEntityEventItem" data-entity-2="VfEntityComponentEventItem" data-source-line="105" data-uid="lnk28" id="link_VfEntityEventItem_VfEntityComponentEventItem"><path codeLine="105" d="M673.2464,717.2446 C712.5264,736.4146 740,749.83 780.5,769.6" fill="none" id="VfEntityEventItem-backto-VfEntityComponentEventItem" style="stroke:#181818;stroke-width:1;"/><polygon fill="none" points="657.07,709.35,670.6148,722.6367,675.8779,711.8525,657.07,709.35" style="stroke:#181818;stroke-width:1;"/></g><!--reverse link VfEntityComponentEventItem to VfComponentEventItem--><g class="link" data-entity-1="VfEntityComponentEventItem" data-entity-2="VfComponentEventItem" data-source-line="106" data-uid="lnk29" id="link_VfEntityComponentEventItem_VfComponentEventItem"><path codeLine="106" d="M926,925.54 C926,958.37 926,985.29 926,1018.11" fill="none" id="VfEntityComponentEventItem-backto-VfComponentEventItem" style="stroke:#181818;stroke-width:1;"/><polygon fill="none" points="926,913.54,922,919.54,926,925.54,930,919.54,926,913.54" style="stroke:#181818;stroke-width:1;"/><polygon fill="#000000" points="931,960.143,933.9389,951.0979,928.0611,951.0979,931,960.143" style="stroke:#000000;stroke-width:1;"/><text fill="#000000" font-family="sans-serif" font-size="13" lengthAdjust="spacing" textLength="177.9182" x="940" y="960.187">has shared component items</text><text fill="#000000" font-family="sans-serif" font-size="13" lengthAdjust="spacing" textLength="21.567" x="903.8827" y="1006.2574">0..*</text></g><!--reverse link VfComponentEventItem to VfClientComponentFetcher--><g class="link" data-entity-1="VfComponentEventItem" data-entity-2="VfClientComponentFetcher" data-source-line="108" data-uid="lnk30" id="link_VfComponentEventItem_VfClientComponentFetcher"><path codeLine="108" d="M756.6165,1169.6556 C714.1165,1189.4056 684.65,1203.09 643.44,1222.24" fill="none" id="VfComponentEventItem-backto-VfClientComponentFetcher" style="stroke:#181818;stroke-width:1;"/><polygon fill="none" points="772.94,1162.07,754.0879,1164.2145,759.145,1175.0968,772.94,1162.07" style="stroke:#181818;stroke-width:1;"/></g><!--reverse link VfComponentEventItem to VfClientComponentSetter--><g class="link" data-entity-1="VfComponentEventItem" data-entity-2="VfClientComponentSetter" data-source-line="109" data-uid="lnk31" id="link_VfComponentEventItem_VfClientComponentSetter"><path codeLine="109" d="M926,1179.93 C926,1199.69 926,1202.98 926,1222.15" fill="none" id="VfComponentEventItem-backto-VfClientComponentSetter" style="stroke:#181818;stroke-width:1;"/><polygon fill="none" points="926,1161.93,920,1179.93,932,1179.93,926,1161.93" style="stroke:#181818;stroke-width:1;"/></g><!--reverse link VfComponentEventItem to VfComponentChangeNotifier--><g class="link" data-entity-1="VfComponentEventItem" data-entity-2="VfComponentChangeNotifier" data-source-line="110" data-uid="lnk32" id="link_VfComponentEventItem_VfComponentChangeNotifier"><path codeLine="110" d="M1088.9898,1169.9165 C1136.6198,1192.9865 1172.34,1210.3 1216.56,1231.72" fill="none" id="VfComponentEventItem-backto-VfComponentChangeNotifier" style="stroke:#181818;stroke-width:1;"/><polygon fill="none" points="1072.79,1162.07,1086.3743,1175.3164,1091.6053,1164.5166,1072.79,1162.07" style="stroke:#181818;stroke-width:1;"/></g><!--SRC=[nLTDZzem4BtdLumuj04jgBsk41TOkdjP5KNbKbMLIKpYRc8Zsx1QRVdl7JiX7yG9Y_h5WU1uPZnl_ERPa8tIaeGQmfGe1NS7odNmeZJDuDK3_2WMSvB2GR38_0ueZwoHlx8F657p65hRLr94E-RsEob2gfJJ_kXv-PBhxJpBGzuJ7gLKDfPlnvbC9iDgYaJH0rhxLHGp_AmbC7pM32NDn85Uj1stqe7iUoYoZF36MvE_joFX4uaf3EwuPle5n8vAefdWQW3JwLAIZCvc1P0EiCMi6wgZn5S1lnQyBS3gdgXaohY-WO1iwOAcLDE0wXaMWbgSnb5PXwFzva9Ja2nEj1qkMQeHc8-lsPQ5jY13A6eujbWKRAN8h3NZECDu33bO1MW44KCUiSqUu-e4kQ25mKiZwx7UvkKkGO3O_A0XkZupdK16T9YOW7coyB2mNiXRcwXdHwH9-tR8Qbkm4X1JdHiyHFvPQLLVG_GqnRp6ARy-W55ORD3567TI2bdtNH1D_F8NZ0Jk2iFsBLyDYsrhKZ9bE9q33FOR5MBfEvdPoBlinHP_dPcrpKtrYYLtXYUrwfuBpocnoDy8aO9ukh5RKr0okeZi2rV_7bkvw0LqjUIkmPSZmrnsWXkW3lh-FNnk1IgJkLQAUXmBJLe5A0eyTkXIUF9rIfCMkxembSRWKmDr295f5gD8fHhb8d6cH8K86LwrAcuTt3fKhSVnG728qNlO2XbIICcBsEj2upgQSlmrOPW4_pRheRSZH8FzZI1T738dN7d0bTEzPrnBLNkPsIsinKR3EvmkGppYIdzGV6jvMNwNhtBb3El3DmlnXQ0dEPwtWpk5gxHRKkHIdsoTBtonkIyxA4sa_bJRW6xrGgibuqmbbNIjraGoWZjo8EcUlWKZjhB-7n23EiGoRP56QvDv3Gcdp-iAZFDkV5O6D-pJOlE4y9W-sblITS1_0_TPoXPGdiYf0O-cyUl_0wO_n-EkMxhdTLtVH-Wq-3Xmt7XlGJnp1REsAmZZz64o6GqSLx9RI8W2bH296bnSximvOK9vRVDJsauTVPjzGrExNJeLjEU0RY1rp3V0LYT83Q_3gG7XN3okSSbxiT_3JMFl5m00]--></g></svg>