<?xml version="1.0" encoding="us-ascii" standalone="no"?><svg xmlns="http://www.w3.org/2000/svg" xmlns:xlink="http://www.w3.org/1999/xlink" contentStyleType="text/css" height="1367px" preserveAspectRatio="none" style="width:1519px;height:1367px;background:#FFFFFF;" version="1.1" viewBox="0 0 1519 1367" width="1519px" zoomAndPan="magnify"><defs/><g><!--cluster Entity operations--><g id="cluster_Entity operations"><rect fill="none" height="585" rx="2.5" ry="2.5" style="stroke:#181818;stroke-width:1.0;" width="1144" x="7" y="343"/><path d="M138,343 L138,355.0679 L128,365.0679 L7,365.0679 " fill="none" style="stroke:#181818;stroke-width:1.0;"/><text fill="#000000" font-family="sans-serif" font-size="14" font-weight="bold" lengthAdjust="spacing" textLength="121" x="10" y="358.9659">Entity operations</text></g><!--cluster Component operations--><g id="cluster_Component operations"><rect fill="none" height="382" rx="2.5" ry="2.5" style="stroke:#181818;stroke-width:1.0;" width="1173" x="340" y="979"/><path d="M512.3125,979 L512.3125,991.0679 L502.3125,1001.0679 L340,1001.0679 " fill="none" style="stroke:#181818;stroke-width:1.0;"/><text fill="#000000" font-family="sans-serif" font-size="14" font-weight="bold" lengthAdjust="spacing" textLength="162.3125" x="343" y="994.9659">Component operations</text></g><!--class VfCmdEventHandler--><g id="elem_VfCmdEventHandler"><rect codeLine="16" fill="#F1F1F1" height="124.2717" id="VfCmdEventHandler" rx="2.5" ry="2.5" style="stroke:#181818;stroke-width:0.5;" width="305" x="393.5" y="381"/><ellipse cx="474.25" cy="397" fill="#ADD1B2" rx="11" ry="11" style="stroke:#181818;stroke-width:1.0;"/><path d="M474.3594,392.5313 Q473.4375,392.5313 472.7031,392.8438 Q471.9844,393.1563 471.4844,393.75 Q470.9844,394.3281 470.7031,395.2031 Q470.4375,396.0781 470.4375,397.1719 Q470.4375,398.6094 470.875,399.6563 Q471.3281,400.7031 472.1719,401.25 Q473.0313,401.7969 474.3438,401.7969 Q475.125,401.7969 475.8125,401.6719 Q476.5156,401.5313 477.5156,401.2188 L477.5156,403.0938 Q476.6563,403.4219 475.8906,403.5469 Q475.1406,403.6719 474.125,403.6719 Q472.2031,403.6719 470.8906,402.875 Q469.5938,402.0625 468.9375,400.5938 Q468.2813,399.1094 468.2813,397.1406 Q468.2813,395.7188 468.6719,394.5469 Q469.0781,393.3594 469.8594,392.4844 Q470.6406,391.6094 471.7813,391.1406 Q472.9219,390.6563 474.3906,390.6563 Q475.3438,390.6563 476.2344,390.8594 Q477.1406,391.0469 478.0781,391.5156 L477.25,393.2969 Q476.4688,392.9219 475.8125,392.7344 Q475.1563,392.5313 474.3594,392.5313 Z " fill="#000000"/><text fill="#000000" font-family="sans-serif" font-size="14" lengthAdjust="spacing" textLength="135" x="494.75" y="402.432">VfCmdEventHandler</text><line style="stroke:#181818;stroke-width:0.5;" x1="394.5" x2="697.5" y1="413" y2="413"/><rect fill="none" height="6" style="stroke:#C82930;stroke-width:1.0;" width="6" x="401.5" y="425.034"/><text fill="#000000" font-family="sans-serif" font-size="14" lengthAdjust="spacing" textLength="279" x="413.5" y="431.9659">QHash&lt;int, SafeDeleteSet&gt; m_entityItems</text><line style="stroke:#181818;stroke-width:0.5;" x1="394.5" x2="697.5" y1="440.0679" y2="440.0679"/><text fill="#000000" font-family="sans-serif" font-size="14" lengthAdjust="spacing" textLength="226" x="399.5" y="459.0339">void processEvent(QEvent *event)</text><text fill="#000000" font-family="sans-serif" font-size="14" lengthAdjust="spacing" textLength="262" x="399.5" y="478.1018">void addItem(VfCmdEventItemPtr item)</text><text fill="#000000" font-family="sans-serif" font-size="14" lengthAdjust="spacing" textLength="286" x="399.5" y="497.1697">void removeItem(VfCmdEventItemPtr item)</text></g><g id="elem_GMN6"><path d="M733.5,411.5 L733.5,439 L698.83,443 L733.5,447 L733.5,474.618 A0,0 0 0 0 733.5,474.618 L1052.5,474.618 A0,0 0 0 0 1052.5,474.618 L1052.5,421.5 L1042.5,411.5 L733.5,411.5 A0,0 0 0 0 733.5,411.5 " fill="#FEFFDD" style="stroke:#181818;stroke-width:0.5;"/><path d="M1042.5,411.5 L1042.5,421.5 L1052.5,421.5 L1042.5,411.5 " fill="#FEFFDD" style="stroke:#181818;stroke-width:0.5;"/><text fill="#000000" font-family="sans-serif" font-size="13" lengthAdjust="spacing" textLength="249" x="739.5" y="430.397">Filter (notification) command-events from</text><text fill="#000000" font-family="sans-serif" font-size="13" lengthAdjust="spacing" textLength="288" x="739.5" y="448.103">incoming QEvents and distribute them to added</text><text fill="#000000" font-family="sans-serif" font-size="13" lengthAdjust="spacing" textLength="298" x="739.5" y="465.809">VfEntityEventItem objects with matching entity ID</text></g><!--class VfEntityEventItem--><g id="elem_VfEntityEventItem"><rect codeLine="28" fill="#F1F1F1" height="124.2717" id="VfEntityEventItem" rx="2.5" ry="2.5" style="stroke:#181818;stroke-width:0.5;" width="449" x="321.5" y="584"/><ellipse cx="486.25" cy="600" fill="#A9DCDF" rx="11" ry="11" style="stroke:#181818;stroke-width:1.0;"/><path d="M489.5938,605.25 L488.125,601.5 L483.6875,601.5 L482.25,605.25 L480.125,605.25 L485.0781,592.5313 L486.8281,592.5313 L491.75,605.25 L489.5938,605.25 Z M486.25,596.2969 Q486.2031,596.1406 486.0781,595.7813 Q485.9531,595.4219 485.8438,595.0469 Q485.7344,594.6563 485.9375,594.5938 Q486.0938,594.7813 486,595.1406 Q485.9063,595.4844 485.8125,595.7813 Q485.7188,596.0625 485.6406,596.2969 L484.4063,599.6094 L487.4844,599.6094 L486.25,596.2969 Z " fill="#000000"/><text fill="#000000" font-family="sans-serif" font-size="14" font-style="italic" lengthAdjust="spacing" textLength="111" x="506.75" y="605.432">VfEntityEventItem</text><line style="stroke:#181818;stroke-width:0.5;" x1="322.5" x2="769.5" y1="616" y2="616"/><line style="stroke:#181818;stroke-width:0.5;" x1="322.5" x2="769.5" y1="624" y2="624"/><text fill="#000000" font-family="sans-serif" font-size="14" lengthAdjust="spacing" textLength="104" x="327.5" y="642.9659">int getEntityId()</text><text fill="#000000" font-family="sans-serif" font-size="14" lengthAdjust="spacing" textLength="207" x="327.5" y="662.0339">void sendEvent(QEvent *event)</text><text fill="#000000" font-family="sans-serif" font-size="14" font-style="italic" lengthAdjust="spacing" textLength="354" x="327.5" y="681.1018">void processCommandEvent(CommandEvent *cmdEvent)</text><text fill="#000000" font-family="sans-serif" font-size="14" font-style="italic" lengthAdjust="spacing" textLength="437" x="327.5" y="700.1697">void processErrorCommandEventData(EventData *originalEventData)</text></g><!--class VfClientEntitySubscriber--><g id="elem_VfClientEntitySubscriber"><rect codeLine="35" fill="#F1F1F1" height="124.2717" id="VfClientEntitySubscriber" rx="2.5" ry="2.5" style="stroke:#181818;stroke-width:0.5;" width="323" x="23.5" y="778.5"/><ellipse cx="99.25" cy="794.5" fill="#ADD1B2" rx="11" ry="11" style="stroke:#181818;stroke-width:1.0;"/><path d="M99.3594,790.0313 Q98.4375,790.0313 97.7031,790.3438 Q96.9844,790.6563 96.4844,791.25 Q95.9844,791.8281 95.7031,792.7031 Q95.4375,793.5781 95.4375,794.6719 Q95.4375,796.1094 95.875,797.1563 Q96.3281,798.2031 97.1719,798.75 Q98.0313,799.2969 99.3438,799.2969 Q100.125,799.2969 100.8125,799.1719 Q101.5156,799.0313 102.5156,798.7188 L102.5156,800.5938 Q101.6563,800.9219 100.8906,801.0469 Q100.1406,801.1719 99.125,801.1719 Q97.2031,801.1719 95.8906,800.375 Q94.5938,799.5625 93.9375,798.0938 Q93.2813,796.6094 93.2813,794.6406 Q93.2813,793.2188 93.6719,792.0469 Q94.0781,790.8594 94.8594,789.9844 Q95.6406,789.1094 96.7813,788.6406 Q97.9219,788.1563 99.3906,788.1563 Q100.3438,788.1563 101.2344,788.3594 Q102.1406,788.5469 103.0781,789.0156 L102.25,790.7969 Q101.4688,790.4219 100.8125,790.2344 Q100.1563,790.0313 99.3594,790.0313 Z " fill="#000000"/><text fill="#000000" font-family="sans-serif" font-size="14" lengthAdjust="spacing" textLength="163" x="119.75" y="799.932">VfClientEntitySubscriber</text><line style="stroke:#181818;stroke-width:0.5;" x1="24.5" x2="345.5" y1="810.5" y2="810.5"/><line style="stroke:#181818;stroke-width:0.5;" x1="24.5" x2="345.5" y1="818.5" y2="818.5"/><text fill="#000000" font-family="sans-serif" font-size="14" lengthAdjust="spacing" textLength="210" x="29.5" y="837.4659">void processCommandEvent(...)</text><text fill="#000000" font-family="sans-serif" font-size="14" lengthAdjust="spacing" textLength="275" x="29.5" y="856.5339">void processErrorCommandEventData(...)</text><text fill="#000000" font-family="sans-serif" font-size="14" lengthAdjust="spacing" textLength="158" x="29.5" y="875.6018">void sendSubscription()</text><text fill="#000000" font-family="sans-serif" font-size="14" lengthAdjust="spacing" textLength="311" x="29.5" y="894.6697">signal void sigSubscribed(bool ok, int entityId)</text></g><!--class VfClientEntityUnsubscriber--><g id="elem_VfClientEntityUnsubscriber"><rect codeLine="42" fill="#F1F1F1" height="124.2717" id="VfClientEntityUnsubscriber" rx="2.5" ry="2.5" style="stroke:#181818;stroke-width:0.5;" width="341" x="381.5" y="778.5"/><ellipse cx="457.25" cy="794.5" fill="#ADD1B2" rx="11" ry="11" style="stroke:#181818;stroke-width:1.0;"/><path d="M457.3594,790.0313 Q456.4375,790.0313 455.7031,790.3438 Q454.9844,790.6563 454.4844,791.25 Q453.9844,791.8281 453.7031,792.7031 Q453.4375,793.5781 453.4375,794.6719 Q453.4375,796.1094 453.875,797.1563 Q454.3281,798.2031 455.1719,798.75 Q456.0313,799.2969 457.3438,799.2969 Q458.125,799.2969 458.8125,799.1719 Q459.5156,799.0313 460.5156,798.7188 L460.5156,800.5938 Q459.6563,800.9219 458.8906,801.0469 Q458.1406,801.1719 457.125,801.1719 Q455.2031,801.1719 453.8906,800.375 Q452.5938,799.5625 451.9375,798.0938 Q451.2813,796.6094 451.2813,794.6406 Q451.2813,793.2188 451.6719,792.0469 Q452.0781,790.8594 452.8594,789.9844 Q453.6406,789.1094 454.7813,788.6406 Q455.9219,788.1563 457.3906,788.1563 Q458.3438,788.1563 459.2344,788.3594 Q460.1406,788.5469 461.0781,789.0156 L460.25,790.7969 Q459.4688,790.4219 458.8125,790.2344 Q458.1563,790.0313 457.3594,790.0313 Z " fill="#000000"/><text fill="#000000" font-family="sans-serif" font-size="14" lengthAdjust="spacing" textLength="181" x="477.75" y="799.932">VfClientEntityUnsubscriber</text><line style="stroke:#181818;stroke-width:0.5;" x1="382.5" x2="721.5" y1="810.5" y2="810.5"/><line style="stroke:#181818;stroke-width:0.5;" x1="382.5" x2="721.5" y1="818.5" y2="818.5"/><text fill="#000000" font-family="sans-serif" font-size="14" lengthAdjust="spacing" textLength="210" x="387.5" y="837.4659">void processCommandEvent(...)</text><text fill="#000000" font-family="sans-serif" font-size="14" lengthAdjust="spacing" textLength="275" x="387.5" y="856.5339">void processErrorCommandEventData(...)</text><text fill="#000000" font-family="sans-serif" font-size="14" lengthAdjust="spacing" textLength="176" x="387.5" y="875.6018">void sendUnsubscription()</text><text fill="#000000" font-family="sans-serif" font-size="14" lengthAdjust="spacing" textLength="329" x="387.5" y="894.6697">signal void sigUnsubscribed(bool ok, int entityId)</text></g><!--class VfEntityComponentEventItem--><g id="elem_VfEntityComponentEventItem"><rect codeLine="49" fill="#F1F1F1" height="143.3396" id="VfEntityComponentEventItem" rx="2.5" ry="2.5" style="stroke:#181818;stroke-width:0.5;" width="377" x="757.5" y="769"/><ellipse cx="843.25" cy="785" fill="#ADD1B2" rx="11" ry="11" style="stroke:#181818;stroke-width:1.0;"/><path d="M843.3594,780.5313 Q842.4375,780.5313 841.7031,780.8438 Q840.9844,781.1563 840.4844,781.75 Q839.9844,782.3281 839.7031,783.2031 Q839.4375,784.0781 839.4375,785.1719 Q839.4375,786.6094 839.875,787.6563 Q840.3281,788.7031 841.1719,789.25 Q842.0313,789.7969 843.3438,789.7969 Q844.125,789.7969 844.8125,789.6719 Q845.5156,789.5313 846.5156,789.2188 L846.5156,791.0938 Q845.6563,791.4219 844.8906,791.5469 Q844.1406,791.6719 843.125,791.6719 Q841.2031,791.6719 839.8906,790.875 Q838.5938,790.0625 837.9375,788.5938 Q837.2813,787.1094 837.2813,785.1406 Q837.2813,783.7188 837.6719,782.5469 Q838.0781,781.3594 838.8594,780.4844 Q839.6406,779.6094 840.7813,779.1406 Q841.9219,778.6563 843.3906,778.6563 Q844.3438,778.6563 845.2344,778.8594 Q846.1406,779.0469 847.0781,779.5156 L846.25,781.2969 Q845.4688,780.9219 844.8125,780.7344 Q844.1563,780.5313 843.3594,780.5313 Z " fill="#000000"/><text fill="#000000" font-family="sans-serif" font-size="14" lengthAdjust="spacing" textLength="197" x="863.75" y="790.432">VfEntityComponentEventItem</text><line style="stroke:#181818;stroke-width:0.5;" x1="758.5" x2="1133.5" y1="801" y2="801"/><rect fill="none" height="6" style="stroke:#C82930;stroke-width:1.0;" width="6" x="765.5" y="813.034"/><text fill="#000000" font-family="sans-serif" font-size="14" lengthAdjust="spacing" textLength="351" x="777.5" y="819.9659">QHash&lt;QString, SafeDeleteSet&gt; m_componentItems</text><line style="stroke:#181818;stroke-width:0.5;" x1="758.5" x2="1133.5" y1="828.0679" y2="828.0679"/><text fill="#000000" font-family="sans-serif" font-size="14" lengthAdjust="spacing" textLength="210" x="763.5" y="847.0339">void processCommandEvent(...)</text><text fill="#000000" font-family="sans-serif" font-size="14" lengthAdjust="spacing" textLength="275" x="763.5" y="866.1018">void processErrorCommandEventData(...)</text><text fill="#000000" font-family="sans-serif" font-size="14" lengthAdjust="spacing" textLength="340" x="763.5" y="885.1697">void addItem(VfCmdEventItemComponentPtr item)</text><text fill="#000000" font-family="sans-serif" font-size="14" lengthAdjust="spacing" textLength="364" x="763.5" y="904.2376">void removeItem(VfCmdEventItemComponentPtr item)</text></g><g id="elem_GMN13"><path d="M805.5,614.5 L805.5,677.618 A0,0 0 0 0 805.5,677.618 L954.59,677.618 L951.52,768.7 L962.59,677.618 L1116.5,677.618 A0,0 0 0 0 1116.5,677.618 L1116.5,624.5 L1106.5,614.5 L805.5,614.5 A0,0 0 0 0 805.5,614.5 " fill="#FEFFDD" style="stroke:#181818;stroke-width:0.5;"/><path d="M1106.5,614.5 L1106.5,624.5 L1116.5,624.5 L1106.5,614.5 " fill="#FEFFDD" style="stroke:#181818;stroke-width:0.5;"/><text fill="#000000" font-family="sans-serif" font-size="13" lengthAdjust="spacing" textLength="265" x="811.5" y="633.397">Filter component (error) data from incoming</text><text fill="#000000" font-family="sans-serif" font-size="13" lengthAdjust="spacing" textLength="290" x="811.5" y="651.103">and distribute to added VfComponentEventItem</text><text fill="#000000" font-family="sans-serif" font-size="13" lengthAdjust="spacing" textLength="242" x="811.5" y="668.809">objects with matching component name</text></g><!--class VfComponentEventItem--><g id="elem_VfComponentEventItem"><rect codeLine="68" fill="#F1F1F1" height="143.3396" id="VfComponentEventItem" rx="2.5" ry="2.5" style="stroke:#181818;stroke-width:0.5;" width="533" x="679.5" y="1017"/><ellipse cx="868.25" cy="1033" fill="#A9DCDF" rx="11" ry="11" style="stroke:#181818;stroke-width:1.0;"/><path d="M871.5938,1038.25 L870.125,1034.5 L865.6875,1034.5 L864.25,1038.25 L862.125,1038.25 L867.0781,1025.5313 L868.8281,1025.5313 L873.75,1038.25 L871.5938,1038.25 Z M868.25,1029.2969 Q868.2031,1029.1406 868.0781,1028.7813 Q867.9531,1028.4219 867.8438,1028.0469 Q867.7344,1027.6563 867.9375,1027.5938 Q868.0938,1027.7813 868,1028.1406 Q867.9063,1028.4844 867.8125,1028.7813 Q867.7188,1029.0625 867.6406,1029.2969 L866.4063,1032.6094 L869.4844,1032.6094 L868.25,1029.2969 Z " fill="#000000"/><text fill="#000000" font-family="sans-serif" font-size="14" font-style="italic" lengthAdjust="spacing" textLength="147" x="888.75" y="1038.432">VfComponentEventItem</text><line style="stroke:#181818;stroke-width:0.5;" x1="680.5" x2="1211.5" y1="1049" y2="1049"/><line style="stroke:#181818;stroke-width:0.5;" x1="680.5" x2="1211.5" y1="1057" y2="1057"/><text fill="#000000" font-family="sans-serif" font-size="14" lengthAdjust="spacing" textLength="104" x="685.5" y="1075.9659">int getEntityId()</text><text fill="#000000" font-family="sans-serif" font-size="14" lengthAdjust="spacing" textLength="214" x="685.5" y="1095.0339">QString &amp;getComponentName()</text><text fill="#000000" font-family="sans-serif" font-size="14" lengthAdjust="spacing" textLength="207" x="685.5" y="1114.1018">void sendEvent(QEvent *event)</text><text fill="#000000" font-family="sans-serif" font-size="14" font-style="italic" lengthAdjust="spacing" textLength="436" x="685.5" y="1133.1697">void processComponentEventData(ComponentData *componentData)</text><text fill="#000000" font-family="sans-serif" font-size="14" font-style="italic" lengthAdjust="spacing" textLength="521" x="685.5" y="1152.2376">void processErrorComponentEventData(ComponentData *originalComponentData)</text></g><!--class VfClientComponentFetcher--><g id="elem_VfClientComponentFetcher"><rect codeLine="76" fill="#F1F1F1" height="124.2717" id="VfClientComponentFetcher" rx="2.5" ry="2.5" style="stroke:#181818;stroke-width:0.5;" width="335" x="356.5" y="1221"/><ellipse cx="429.75" cy="1237" fill="#ADD1B2" rx="11" ry="11" style="stroke:#181818;stroke-width:1.0;"/><path d="M429.8594,1232.5313 Q428.9375,1232.5313 428.2031,1232.8438 Q427.4844,1233.1563 426.9844,1233.75 Q426.4844,1234.3281 426.2031,1235.2031 Q425.9375,1236.0781 425.9375,1237.1719 Q425.9375,1238.6094 426.375,1239.6563 Q426.8281,1240.7031 427.6719,1241.25 Q428.5313,1241.7969 429.8438,1241.7969 Q430.625,1241.7969 431.3125,1241.6719 Q432.0156,1241.5313 433.0156,1241.2188 L433.0156,1243.0938 Q432.1563,1243.4219 431.3906,1243.5469 Q430.6406,1243.6719 429.625,1243.6719 Q427.7031,1243.6719 426.3906,1242.875 Q425.0938,1242.0625 424.4375,1240.5938 Q423.7813,1239.1094 423.7813,1237.1406 Q423.7813,1235.7188 424.1719,1234.5469 Q424.5781,1233.3594 425.3594,1232.4844 Q426.1406,1231.6094 427.2813,1231.1406 Q428.4219,1230.6563 429.8906,1230.6563 Q430.8438,1230.6563 431.7344,1230.8594 Q432.6406,1231.0469 433.5781,1231.5156 L432.75,1233.2969 Q431.9688,1232.9219 431.3125,1232.7344 Q430.6563,1232.5313 429.8594,1232.5313 Z " fill="#000000"/><text fill="#000000" font-family="sans-serif" font-size="14" lengthAdjust="spacing" textLength="180" x="450.25" y="1242.432">VfClientComponentFetcher</text><line style="stroke:#181818;stroke-width:0.5;" x1="357.5" x2="690.5" y1="1253" y2="1253"/><line style="stroke:#181818;stroke-width:0.5;" x1="357.5" x2="690.5" y1="1261" y2="1261"/><text fill="#000000" font-family="sans-serif" font-size="14" lengthAdjust="spacing" textLength="250" x="362.5" y="1279.9659">void processComponentEventData(...)</text><text fill="#000000" font-family="sans-serif" font-size="14" lengthAdjust="spacing" textLength="284" x="362.5" y="1299.0339">void processErrorComponentEventData(...)</text><text fill="#000000" font-family="sans-serif" font-size="14" lengthAdjust="spacing" textLength="172" x="362.5" y="1318.1018">void startGetComponent()</text><text fill="#000000" font-family="sans-serif" font-size="14" lengthAdjust="spacing" textLength="323" x="362.5" y="1337.1697">signal void sigGetFinish(bool ok, QVariant value)</text></g><!--class VfClientComponentSetter--><g id="elem_VfClientComponentSetter"><rect codeLine="83" fill="#F1F1F1" height="124.2717" id="VfClientComponentSetter" rx="2.5" ry="2.5" style="stroke:#181818;stroke-width:0.5;" width="439" x="726.5" y="1221"/><ellipse cx="856.75" cy="1237" fill="#ADD1B2" rx="11" ry="11" style="stroke:#181818;stroke-width:1.0;"/><path d="M856.8594,1232.5313 Q855.9375,1232.5313 855.2031,1232.8438 Q854.4844,1233.1563 853.9844,1233.75 Q853.4844,1234.3281 853.2031,1235.2031 Q852.9375,1236.0781 852.9375,1237.1719 Q852.9375,1238.6094 853.375,1239.6563 Q853.8281,1240.7031 854.6719,1241.25 Q855.5313,1241.7969 856.8438,1241.7969 Q857.625,1241.7969 858.3125,1241.6719 Q859.0156,1241.5313 860.0156,1241.2188 L860.0156,1243.0938 Q859.1563,1243.4219 858.3906,1243.5469 Q857.6406,1243.6719 856.625,1243.6719 Q854.7031,1243.6719 853.3906,1242.875 Q852.0938,1242.0625 851.4375,1240.5938 Q850.7813,1239.1094 850.7813,1237.1406 Q850.7813,1235.7188 851.1719,1234.5469 Q851.5781,1233.3594 852.3594,1232.4844 Q853.1406,1231.6094 854.2813,1231.1406 Q855.4219,1230.6563 856.8906,1230.6563 Q857.8438,1230.6563 858.7344,1230.8594 Q859.6406,1231.0469 860.5781,1231.5156 L859.75,1233.2969 Q858.9688,1232.9219 858.3125,1232.7344 Q857.6563,1232.5313 856.8594,1232.5313 Z " fill="#000000"/><text fill="#000000" font-family="sans-serif" font-size="14" lengthAdjust="spacing" textLength="170" x="877.25" y="1242.432">VfClientComponentSetter</text><line style="stroke:#181818;stroke-width:0.5;" x1="727.5" x2="1164.5" y1="1253" y2="1253"/><line style="stroke:#181818;stroke-width:0.5;" x1="727.5" x2="1164.5" y1="1261" y2="1261"/><text fill="#000000" font-family="sans-serif" font-size="14" lengthAdjust="spacing" textLength="250" x="732.5" y="1279.9659">void processComponentEventData(...)</text><text fill="#000000" font-family="sans-serif" font-size="14" lengthAdjust="spacing" textLength="284" x="732.5" y="1299.0339">void processErrorComponentEventData(...)</text><text fill="#000000" font-family="sans-serif" font-size="14" lengthAdjust="spacing" textLength="427" x="732.5" y="1318.1018">void startSetComponent(QVariant oldValue, QVariant newValue)</text><text fill="#000000" font-family="sans-serif" font-size="14" lengthAdjust="spacing" textLength="214" x="732.5" y="1337.1697">signal void sigSetFinish(bool ok)</text></g><!--class VfComponentChangeNotifier--><g id="elem_VfComponentChangeNotifier"><rect codeLine="90" fill="#F1F1F1" height="105.2038" id="VfComponentChangeNotifier" rx="2.5" ry="2.5" style="stroke:#181818;stroke-width:0.5;" width="296" x="1201" y="1230.5"/><ellipse cx="1247.75" cy="1246.5" fill="#ADD1B2" rx="11" ry="11" style="stroke:#181818;stroke-width:1.0;"/><path d="M1247.8594,1242.0313 Q1246.9375,1242.0313 1246.2031,1242.3438 Q1245.4844,1242.6563 1244.9844,1243.25 Q1244.4844,1243.8281 1244.2031,1244.7031 Q1243.9375,1245.5781 1243.9375,1246.6719 Q1243.9375,1248.1094 1244.375,1249.1563 Q1244.8281,1250.2031 1245.6719,1250.75 Q1246.5313,1251.2969 1247.8438,1251.2969 Q1248.625,1251.2969 1249.3125,1251.1719 Q1250.0156,1251.0313 1251.0156,1250.7188 L1251.0156,1252.5938 Q1250.1563,1252.9219 1249.3906,1253.0469 Q1248.6406,1253.1719 1247.625,1253.1719 Q1245.7031,1253.1719 1244.3906,1252.375 Q1243.0938,1251.5625 1242.4375,1250.0938 Q1241.7813,1248.6094 1241.7813,1246.6406 Q1241.7813,1245.2188 1242.1719,1244.0469 Q1242.5781,1242.8594 1243.3594,1241.9844 Q1244.1406,1241.1094 1245.2813,1240.6406 Q1246.4219,1240.1563 1247.8906,1240.1563 Q1248.8438,1240.1563 1249.7344,1240.3594 Q1250.6406,1240.5469 1251.5781,1241.0156 L1250.75,1242.7969 Q1249.9688,1242.4219 1249.3125,1242.2344 Q1248.6563,1242.0313 1247.8594,1242.0313 Z " fill="#000000"/><text fill="#000000" font-family="sans-serif" font-size="14" lengthAdjust="spacing" textLength="194" x="1268.25" y="1251.932">VfComponentChangeNotifier</text><line style="stroke:#181818;stroke-width:0.5;" x1="1202" x2="1496" y1="1262.5" y2="1262.5"/><line style="stroke:#181818;stroke-width:0.5;" x1="1202" x2="1496" y1="1270.5" y2="1270.5"/><text fill="#000000" font-family="sans-serif" font-size="14" lengthAdjust="spacing" textLength="246" x="1207" y="1289.4659">void processComponentEventData(..)</text><text fill="#000000" font-family="sans-serif" font-size="14" lengthAdjust="spacing" textLength="284" x="1207" y="1308.5339">void processErrorComponentEventData(...)</text><text fill="#000000" font-family="sans-serif" font-size="14" lengthAdjust="spacing" textLength="203" x="1207" y="1327.6018">signal void sigValueChanged()</text></g><!--class EventSystem--><g id="elem_EventSystem"><rect codeLine="2" fill="#F1F1F1" height="86.1358" id="EventSystem" rx="2.5" ry="2.5" style="stroke:#181818;stroke-width:0.5;" width="285" x="403.5" y="7"/><ellipse cx="502.75" cy="23" fill="#A9DCDF" rx="11" ry="11" style="stroke:#181818;stroke-width:1.0;"/><path d="M506.0938,28.25 L504.625,24.5 L500.1875,24.5 L498.75,28.25 L496.625,28.25 L501.5781,15.5313 L503.3281,15.5313 L508.25,28.25 L506.0938,28.25 Z M502.75,19.2969 Q502.7031,19.1406 502.5781,18.7813 Q502.4531,18.4219 502.3438,18.0469 Q502.2344,17.6563 502.4375,17.5938 Q502.5938,17.7813 502.5,18.1406 Q502.4063,18.4844 502.3125,18.7813 Q502.2188,19.0625 502.1406,19.2969 L500.9063,22.6094 L503.9844,22.6094 L502.75,19.2969 Z " fill="#000000"/><text fill="#000000" font-family="sans-serif" font-size="14" font-style="italic" lengthAdjust="spacing" textLength="78" x="523.25" y="28.432">EventSystem</text><line style="stroke:#181818;stroke-width:0.5;" x1="404.5" x2="687.5" y1="39" y2="39"/><line style="stroke:#181818;stroke-width:0.5;" x1="404.5" x2="687.5" y1="47" y2="47"/><text fill="#000000" font-family="sans-serif" font-size="14" lengthAdjust="spacing" textLength="273" x="409.5" y="65.9659">signal void sigSendEvent(QEvent *event)</text><text fill="#000000" font-family="sans-serif" font-size="14" font-style="italic" lengthAdjust="spacing" textLength="210" x="409.5" y="85.0339">void processEvent(QEvent *event)</text></g><!--class VfCmdEventHandlerSystem--><g id="elem_VfCmdEventHandlerSystem"><rect codeLine="7" fill="#F1F1F1" height="124.2717" id="VfCmdEventHandlerSystem" rx="2.5" ry="2.5" style="stroke:#181818;stroke-width:0.5;" width="342" x="375" y="154"/><ellipse cx="450.25" cy="170" fill="#ADD1B2" rx="11" ry="11" style="stroke:#181818;stroke-width:1.0;"/><path d="M450.3594,165.5313 Q449.4375,165.5313 448.7031,165.8438 Q447.9844,166.1563 447.4844,166.75 Q446.9844,167.3281 446.7031,168.2031 Q446.4375,169.0781 446.4375,170.1719 Q446.4375,171.6094 446.875,172.6563 Q447.3281,173.7031 448.1719,174.25 Q449.0313,174.7969 450.3438,174.7969 Q451.125,174.7969 451.8125,174.6719 Q452.5156,174.5313 453.5156,174.2188 L453.5156,176.0938 Q452.6563,176.4219 451.8906,176.5469 Q451.1406,176.6719 450.125,176.6719 Q448.2031,176.6719 446.8906,175.875 Q445.5938,175.0625 444.9375,173.5938 Q444.2813,172.1094 444.2813,170.1406 Q444.2813,168.7188 444.6719,167.5469 Q445.0781,166.3594 445.8594,165.4844 Q446.6406,164.6094 447.7813,164.1406 Q448.9219,163.6563 450.3906,163.6563 Q451.3438,163.6563 452.2344,163.8594 Q453.1406,164.0469 454.0781,164.5156 L453.25,166.2969 Q452.4688,165.9219 451.8125,165.7344 Q451.1563,165.5313 450.3594,165.5313 Z " fill="#000000"/><text fill="#000000" font-family="sans-serif" font-size="14" lengthAdjust="spacing" textLength="183" x="470.75" y="175.432">VfCmdEventHandlerSystem</text><line style="stroke:#181818;stroke-width:0.5;" x1="376" x2="716" y1="186" y2="186"/><rect fill="none" height="6" style="stroke:#C82930;stroke-width:1.0;" width="6" x="383" y="198.034"/><text fill="#000000" font-family="sans-serif" font-size="14" lengthAdjust="spacing" textLength="316" x="395" y="204.9659">VfCmdEventHandler m_commandEventHandler</text><line style="stroke:#181818;stroke-width:0.5;" x1="376" x2="716" y1="213.0679" y2="213.0679"/><text fill="#000000" font-family="sans-serif" font-size="14" lengthAdjust="spacing" textLength="141" x="381" y="232.0339">void processEvent(...)</text><text fill="#000000" font-family="sans-serif" font-size="14" lengthAdjust="spacing" textLength="262" x="381" y="251.1018">void addItem(VfCmdEventItemPtr item)</text><text fill="#000000" font-family="sans-serif" font-size="14" lengthAdjust="spacing" textLength="286" x="381" y="270.1697">void removeItem(VfCmdEventItemPtr item)</text></g><!--link VfClientEntitySubscriber to VfClientEntityUnsubscriber--><!--link VfClientEntityUnsubscriber to VfEntityComponentEventItem--><!--reverse link EventSystem to VfCmdEventHandlerSystem--><g id="link_EventSystem_VfCmdEventHandlerSystem"><path codeLine="97" d="M546,114.68 C546,127.52 546,140.99 546,153.74 " fill="none" id="EventSystem-backto-VfCmdEventHandlerSystem" style="stroke:#181818;stroke-width:1.0;"/><polygon fill="none" points="539,114.75,546,94.75,553,114.75,539,114.75" style="stroke:#181818;stroke-width:1.0;"/></g><!--reverse link VfCmdEventHandlerSystem to VfCmdEventHandler--><g id="link_VfCmdEventHandlerSystem_VfCmdEventHandler"><path codeLine="99" d="M546,292.64 C546,321.25 546,353.44 546,380.59 " fill="none" id="VfCmdEventHandlerSystem-backto-VfCmdEventHandler" style="stroke:#181818;stroke-width:1.0;"/><polygon fill="#181818" points="546,280,542,286,546,292,550,286,546,280" style="stroke:#181818;stroke-width:1.0;"/><polygon fill="#000000" points="551,322.853,553.9389,313.8079,548.0611,313.8079,551,322.853" style="stroke:#000000;stroke-width:1.0;"/><text fill="#000000" font-family="sans-serif" font-size="13" lengthAdjust="spacing" textLength="32" x="560" y="322.897">owns</text><text fill="#000000" font-family="sans-serif" font-size="13" lengthAdjust="spacing" textLength="7" x="538.5953" y="369.3132">1</text></g><!--reverse link VfCmdEventHandler to VfEntityEventItem--><g id="link_VfCmdEventHandler_VfEntityEventItem"><path codeLine="100" d="M546,519.71 C546,540.81 546,563.47 546,583.63 " fill="none" id="VfCmdEventHandler-backto-VfEntityEventItem" style="stroke:#181818;stroke-width:1.0;"/><polygon fill="none" points="546,506.91,542,512.91,546,518.91,550,512.91,546,506.91" style="stroke:#181818;stroke-width:1.0;"/><polygon fill="#000000" points="551,549.853,553.9389,540.8079,548.0611,540.8079,551,549.853" style="stroke:#000000;stroke-width:1.0;"/><text fill="#000000" font-family="sans-serif" font-size="13" lengthAdjust="spacing" textLength="139" x="560" y="549.897">has shared entity items</text><text fill="#000000" font-family="sans-serif" font-size="13" lengthAdjust="spacing" textLength="20" x="524.8438" y="572.3578">0..*</text></g><!--reverse link VfEntityEventItem to VfClientEntitySubscriber--><g id="link_VfEntityEventItem_VfClientEntitySubscriber"><path codeLine="102" d="M411.86,718.53 C375.11,738.12 335.62,759.18 300.05,778.15 " fill="none" id="VfEntityEventItem-backto-VfClientEntitySubscriber" style="stroke:#181818;stroke-width:1.0;"/><polygon fill="none" points="408.51,712.38,429.45,709.15,415.1,724.74,408.51,712.38" style="stroke:#181818;stroke-width:1.0;"/></g><!--reverse link VfEntityEventItem to VfClientEntityUnsubscriber--><g id="link_VfEntityEventItem_VfClientEntityUnsubscriber"><path codeLine="103" d="M548.58,729.77 C549.09,746.07 549.61,762.89 550.09,778.32 " fill="none" id="VfEntityEventItem-backto-VfClientEntityUnsubscriber" style="stroke:#181818;stroke-width:1.0;"/><polygon fill="none" points="541.59,730.16,547.96,709.95,555.58,729.72,541.59,730.16" style="stroke:#181818;stroke-width:1.0;"/></g><!--reverse link VfEntityEventItem to VfEntityComponentEventItem--><g id="link_VfEntityEventItem_VfEntityComponentEventItem"><path codeLine="105" d="M692.6,717.55 C727.18,734.19 764.05,751.94 798.66,768.59 " fill="none" id="VfEntityEventItem-backto-VfEntityComponentEventItem" style="stroke:#181818;stroke-width:1.0;"/><polygon fill="none" points="690.01,724.07,675.03,709.09,696.08,711.46,690.01,724.07" style="stroke:#181818;stroke-width:1.0;"/></g><!--reverse link VfEntityComponentEventItem to VfComponentEventItem--><g id="link_VfEntityComponentEventItem_VfComponentEventItem"><path codeLine="106" d="M946,926.48 C946,955.92 946,988.58 946,1016.75 " fill="none" id="VfEntityComponentEventItem-backto-VfComponentEventItem" style="stroke:#181818;stroke-width:1.0;"/><polygon fill="none" points="946,913.84,942,919.84,946,925.84,950,919.84,946,913.84" style="stroke:#181818;stroke-width:1.0;"/><polygon fill="#000000" points="951,958.853,953.9389,949.8079,948.0611,949.8079,951,958.853" style="stroke:#000000;stroke-width:1.0;"/><text fill="#000000" font-family="sans-serif" font-size="13" lengthAdjust="spacing" textLength="174" x="960" y="958.897">has shared component items</text><text fill="#000000" font-family="sans-serif" font-size="13" lengthAdjust="spacing" textLength="20" x="924.9688" y="1005.3901">0..*</text></g><!--reverse link VfComponentEventItem to VfClientComponentFetcher--><g id="link_VfComponentEventItem_VfClientComponentFetcher"><path codeLine="108" d="M770.92,1169.36 C733.42,1186.47 694.36,1204.29 658.67,1220.57 " fill="none" id="VfComponentEventItem-backto-VfClientComponentFetcher" style="stroke:#181818;stroke-width:1.0;"/><polygon fill="none" points="767.88,1163.06,788.98,1161.12,773.69,1175.79,767.88,1163.06" style="stroke:#181818;stroke-width:1.0;"/></g><!--reverse link VfComponentEventItem to VfClientComponentSetter--><g id="link_VfComponentEventItem_VfClientComponentSetter"><path codeLine="109" d="M946,1181.69 C946,1194.96 946,1208.33 946,1220.8 " fill="none" id="VfComponentEventItem-backto-VfClientComponentSetter" style="stroke:#181818;stroke-width:1.0;"/><polygon fill="none" points="939,1181.87,946,1161.87,953,1181.87,939,1181.87" style="stroke:#181818;stroke-width:1.0;"/></g><!--reverse link VfComponentEventItem to VfComponentChangeNotifier--><g id="link_VfComponentEventItem_VfComponentChangeNotifier"><path codeLine="110" d="M1113.76,1169.63 C1156.49,1190.04 1201.3,1211.45 1240.21,1230.03 " fill="none" id="VfComponentEventItem-backto-VfComponentChangeNotifier" style="stroke:#181818;stroke-width:1.0;"/><polygon fill="none" points="1111.03,1176.09,1096,1161.15,1117.06,1163.45,1111.03,1176.09" style="stroke:#181818;stroke-width:1.0;"/></g><!--SRC=[nLTDZzem4BtdLumuj04jgBsk41TOkdjP5KNbKbMLIKpYRc8Zsx1QRVdl7JiX7yG9Y_h5WU1uPZnl_ERPa8tIaeGQmfGe1NS7odNmeZJDuDK3_2WMSvB2GR38_0ueZwoHlx8F657p65hRLr94E-RsEob2gfJJ_kXv-PBhxJpBGzuJ7gLKDfPlnvbC9iDgYaJH0rhxLHGp_AmbC7pM32NDn85Uj1stqe7iUoYoZF36MvE_joFX4uaf3EwuPle5n8vAefdWQW3JwLAIZCvc1P0EiCMi6wgZn5S1lnQyBS3gdgXaohY-WO1iwOAcLDE0wXaMWbgSnb5PXwFzva9Ja2nEj1qkMQeHc8-lsPQ5jY13A6eujbWKRAN8h3NZECDu33bO1MW44KCUiSqUu-e4kQ25mKiZwx7UvkKkGO3O_A0XkZupdK16T9YOW7coyB2mNiXRcwXdHwH9-tR8Qbkm4X1JdHiyHFvPQLLVG_GqnRp6ARy-W55ORD3567TI2bdtNH1D_F8NZ0Jk2iFsBLyDYsrhKZ9bE9q33FOR5MBfEvdPoBlinHP_dPcrpKtrYYLtXYUrwfuBpocnoDy8aO9ukh5RKr0okeZi2rV_7bkvw0LqjUIkmPSZmrnsWXkW3lh-FNnk1IgJkLQAUXmBJLe5A0eyTkXIUF9rIfCMkxembSRWKmDr295f5gD8fHhb8d6cH8K86LwrAcuTt3fKhSVnG728qNlO2XbIICcBsEj2upgQSlmrOPW4_pRheRSZH8FzZI1T738dN7d0bTEzPrnBLNkPsIsinKR3EvmkGppYIdzGV6jvMNwNhtBb3El3DmlnXQ0dEPwtWpk5gxHRKkHIdsoTBtonkIyxA4sa_bJRW6xrGgibuqmbbNIjraGoWZjo8EcUlWKZjhB-7n23EiGoRP56QvDv3Gcdp-iAZFDkV5O6D-pJOlE4y9W-sblITS1_0_TPoXPGdiYf0O-cyUl_0wO_n-EkMxhdTLtVH-Wq-3Xmt7XlGJnp1REsAmZZz64o6GqSLx9RI8W2bH296bnSximvOK9vRVDJsauTVPjzGrExNJeLjEU0RY1rp3V0LYT83Q_3gG7XN3okSSbxiT_3JMFl5m00]--></g></svg>