<svg xmlns="http://www.w3.org/2000/svg" xmlns:xlink="http://www.w3.org/1999/xlink" contentStyleType="text/css" height="1368px" preserveAspectRatio="none" style="width:1517px;height:1368px;background:#FFFFFF;" version="1.1" viewBox="0 0 1517 1368" width="1517px" zoomAndPan="magnify"><defs/><g><!--cluster Entity operations--><g id="cluster_Entity operations"><rect fill="none" height="585.88" rx="2.5" ry="2.5" style="stroke:#181818;stroke-width:1.0;" width="1142" x="7" y="343.41"/><path d="M138,343.41 L138,355.4779 L128,365.4779 L7,365.4779 " fill="none" style="stroke:#181818;stroke-width:1.0;"/><text fill="#000000" font-family="sans-serif" font-size="14" font-weight="bold" lengthAdjust="spacing" textLength="121" x="10" y="359.3759">Entity operations</text></g><!--cluster Component operations--><g id="cluster_Component operations"><rect fill="none" height="382.61" rx="2.5" ry="2.5" style="stroke:#181818;stroke-width:1.0;" width="1172" x="339" y="980.29"/><path d="M511.3125,980.29 L511.3125,992.3579 L501.3125,1002.3579 L339,1002.3579 " fill="none" style="stroke:#181818;stroke-width:1.0;"/><text fill="#000000" font-family="sans-serif" font-size="14" font-weight="bold" lengthAdjust="spacing" textLength="162.3125" x="342" y="996.2559">Component operations</text></g><!--class VfCmdEventHandler--><g id="elem_VfCmdEventHandler"><rect codeLine="16" fill="#F1F1F1" height="124.2717" id="VfCmdEventHandler" rx="2.5" ry="2.5" style="stroke:#181818;stroke-width:0.5;" width="305" x="392.5" y="381.41"/><ellipse cx="473.25" cy="397.41" fill="#ADD1B2" rx="11" ry="11" style="stroke:#181818;stroke-width:1.0;"/><path d="M473.3594,392.9413 Q472.4375,392.9413 471.7031,393.2538 Q470.9844,393.5663 470.4844,394.16 Q469.9844,394.7381 469.7031,395.6131 Q469.4375,396.4881 469.4375,397.5819 Q469.4375,399.0194 469.875,400.0663 Q470.3281,401.1131 471.1719,401.66 Q472.0313,402.2069 473.3438,402.2069 Q474.125,402.2069 474.8125,402.0819 Q475.5156,401.9413 476.5156,401.6288 L476.5156,403.5038 Q475.6563,403.8319 474.8906,403.9569 Q474.1406,404.0819 473.125,404.0819 Q471.2031,404.0819 469.8906,403.285 Q468.5938,402.4725 467.9375,401.0038 Q467.2813,399.5194 467.2813,397.5506 Q467.2813,396.1288 467.6719,394.9569 Q468.0781,393.7694 468.8594,392.8944 Q469.6406,392.0194 470.7813,391.5506 Q471.9219,391.0663 473.3906,391.0663 Q474.3438,391.0663 475.2344,391.2694 Q476.1406,391.4569 477.0781,391.9256 L476.25,393.7069 Q475.4688,393.3319 474.8125,393.1444 Q474.1563,392.9413 473.3594,392.9413 Z " fill="#000000"/><text fill="#000000" font-family="sans-serif" font-size="14" lengthAdjust="spacing" textLength="135" x="493.75" y="402.842">VfCmdEventHandler</text><line style="stroke:#181818;stroke-width:0.5;" x1="393.5" x2="696.5" y1="413.41" y2="413.41"/><rect fill="none" height="6" style="stroke:#C82930;stroke-width:1.0;" width="6" x="400.5" y="425.444"/><text fill="#000000" font-family="sans-serif" font-size="14" lengthAdjust="spacing" textLength="279" x="412.5" y="432.3759">QHash&lt;int, SafeDeleteSet&gt; m_entityItems</text><line style="stroke:#181818;stroke-width:0.5;" x1="393.5" x2="696.5" y1="440.4779" y2="440.4779"/><text fill="#000000" font-family="sans-serif" font-size="14" lengthAdjust="spacing" textLength="226" x="398.5" y="459.4439">void processEvent(QEvent *event)</text><text fill="#000000" font-family="sans-serif" font-size="14" lengthAdjust="spacing" textLength="262" x="398.5" y="478.5118">void addItem(VfCmdEventItemPtr item)</text><text fill="#000000" font-family="sans-serif" font-size="14" lengthAdjust="spacing" textLength="286" x="398.5" y="497.5797">void removeItem(VfCmdEventItemPtr item)</text></g><g id="elem_GMN6"><path d="M732.5,411.98 L732.5,439.54 L697.83,443.54 L732.5,447.54 L732.5,475.098 A0,0 0 0 0 732.5,475.098 L1051.5,475.098 A0,0 0 0 0 1051.5,475.098 L1051.5,421.98 L1041.5,411.98 L732.5,411.98 A0,0 0 0 0 732.5,411.98 " fill="#FEFFDD" style="stroke:#181818;stroke-width:0.5;"/><path d="M1041.5,411.98 L1041.5,421.98 L1051.5,421.98 L1041.5,411.98 " fill="#FEFFDD" style="stroke:#181818;stroke-width:0.5;"/><text fill="#000000" font-family="sans-serif" font-size="13" lengthAdjust="spacing" textLength="249" x="738.5" y="430.877">Filter (notification) command-events from</text><text fill="#000000" font-family="sans-serif" font-size="13" lengthAdjust="spacing" textLength="288" x="738.5" y="448.583">incoming QEvents and distribute them to added</text><text fill="#000000" font-family="sans-serif" font-size="13" lengthAdjust="spacing" textLength="298" x="738.5" y="466.289">VfEntityEventItem objects with matching entity ID</text></g><!--class VfEntityEventItem--><g id="elem_VfEntityEventItem"><rect codeLine="28" fill="#F1F1F1" height="124.2717" id="VfEntityEventItem" rx="2.5" ry="2.5" style="stroke:#181818;stroke-width:0.5;" width="449" x="320.5" y="584.68"/><ellipse cx="485.25" cy="600.68" fill="#A9DCDF" rx="11" ry="11" style="stroke:#181818;stroke-width:1.0;"/><path d="M488.5938,605.93 L487.125,602.18 L482.6875,602.18 L481.25,605.93 L479.125,605.93 L484.0781,593.2113 L485.8281,593.2113 L490.75,605.93 L488.5938,605.93 Z M485.25,596.9769 Q485.2031,596.8206 485.0781,596.4613 Q484.9531,596.1019 484.8438,595.7269 Q484.7344,595.3363 484.9375,595.2738 Q485.0938,595.4613 485,595.8206 Q484.9063,596.1644 484.8125,596.4613 Q484.7188,596.7425 484.6406,596.9769 L483.4063,600.2894 L486.4844,600.2894 L485.25,596.9769 Z " fill="#000000"/><text fill="#000000" font-family="sans-serif" font-size="14" font-style="italic" lengthAdjust="spacing" textLength="111" x="505.75" y="606.112">VfEntityEventItem</text><line style="stroke:#181818;stroke-width:0.5;" x1="321.5" x2="768.5" y1="616.68" y2="616.68"/><line style="stroke:#181818;stroke-width:0.5;" x1="321.5" x2="768.5" y1="624.68" y2="624.68"/><text fill="#000000" font-family="sans-serif" font-size="14" lengthAdjust="spacing" textLength="104" x="326.5" y="643.6459">int getEntityId()</text><text fill="#000000" font-family="sans-serif" font-size="14" lengthAdjust="spacing" textLength="207" x="326.5" y="662.7139">void sendEvent(QEvent *event)</text><text fill="#000000" font-family="sans-serif" font-size="14" font-style="italic" lengthAdjust="spacing" textLength="354" x="326.5" y="681.7818">void processCommandEvent(CommandEvent *cmdEvent)</text><text fill="#000000" font-family="sans-serif" font-size="14" font-style="italic" lengthAdjust="spacing" textLength="437" x="326.5" y="700.8497">void processErrorCommandEventData(EventData *originalEventData)</text></g><!--class VfClientEntitySubscriber--><g id="elem_VfClientEntitySubscriber"><rect codeLine="35" fill="#F1F1F1" height="124.2717" id="VfClientEntitySubscriber" rx="2.5" ry="2.5" style="stroke:#181818;stroke-width:0.5;" width="323" x="22.5" y="779.48"/><ellipse cx="98.25" cy="795.48" fill="#ADD1B2" rx="11" ry="11" style="stroke:#181818;stroke-width:1.0;"/><path d="M98.3594,791.0113 Q97.4375,791.0113 96.7031,791.3238 Q95.9844,791.6363 95.4844,792.23 Q94.9844,792.8081 94.7031,793.6831 Q94.4375,794.5581 94.4375,795.6519 Q94.4375,797.0894 94.875,798.1363 Q95.3281,799.1831 96.1719,799.73 Q97.0313,800.2769 98.3438,800.2769 Q99.125,800.2769 99.8125,800.1519 Q100.5156,800.0113 101.5156,799.6988 L101.5156,801.5738 Q100.6563,801.9019 99.8906,802.0269 Q99.1406,802.1519 98.125,802.1519 Q96.2031,802.1519 94.8906,801.355 Q93.5938,800.5425 92.9375,799.0738 Q92.2813,797.5894 92.2813,795.6206 Q92.2813,794.1988 92.6719,793.0269 Q93.0781,791.8394 93.8594,790.9644 Q94.6406,790.0894 95.7813,789.6206 Q96.9219,789.1363 98.3906,789.1363 Q99.3438,789.1363 100.2344,789.3394 Q101.1406,789.5269 102.0781,789.9956 L101.25,791.7769 Q100.4688,791.4019 99.8125,791.2144 Q99.1563,791.0113 98.3594,791.0113 Z " fill="#000000"/><text fill="#000000" font-family="sans-serif" font-size="14" lengthAdjust="spacing" textLength="163" x="118.75" y="800.912">VfClientEntitySubscriber</text><line style="stroke:#181818;stroke-width:0.5;" x1="23.5" x2="344.5" y1="811.48" y2="811.48"/><line style="stroke:#181818;stroke-width:0.5;" x1="23.5" x2="344.5" y1="819.48" y2="819.48"/><text fill="#000000" font-family="sans-serif" font-size="14" lengthAdjust="spacing" textLength="210" x="28.5" y="838.4459">void processCommandEvent(...)</text><text fill="#000000" font-family="sans-serif" font-size="14" lengthAdjust="spacing" textLength="275" x="28.5" y="857.5139">void processErrorCommandEventData(...)</text><text fill="#000000" font-family="sans-serif" font-size="14" lengthAdjust="spacing" textLength="158" x="28.5" y="876.5818">void sendSubscription()</text><text fill="#000000" font-family="sans-serif" font-size="14" lengthAdjust="spacing" textLength="311" x="28.5" y="895.6497">signal void sigSubscribed(bool ok, int entityId)</text></g><!--class VfClientEntityUnsubscriber--><g id="elem_VfClientEntityUnsubscriber"><rect codeLine="42" fill="#F1F1F1" height="124.2717" id="VfClientEntityUnsubscriber" rx="2.5" ry="2.5" style="stroke:#181818;stroke-width:0.5;" width="341" x="380.5" y="779.48"/><ellipse cx="456.25" cy="795.48" fill="#ADD1B2" rx="11" ry="11" style="stroke:#181818;stroke-width:1.0;"/><path d="M456.3594,791.0113 Q455.4375,791.0113 454.7031,791.3238 Q453.9844,791.6363 453.4844,792.23 Q452.9844,792.8081 452.7031,793.6831 Q452.4375,794.5581 452.4375,795.6519 Q452.4375,797.0894 452.875,798.1363 Q453.3281,799.1831 454.1719,799.73 Q455.0313,800.2769 456.3438,800.2769 Q457.125,800.2769 457.8125,800.1519 Q458.5156,800.0113 459.5156,799.6988 L459.5156,801.5738 Q458.6563,801.9019 457.8906,802.0269 Q457.1406,802.1519 456.125,802.1519 Q454.2031,802.1519 452.8906,801.355 Q451.5938,800.5425 450.9375,799.0738 Q450.2813,797.5894 450.2813,795.6206 Q450.2813,794.1988 450.6719,793.0269 Q451.0781,791.8394 451.8594,790.9644 Q452.6406,790.0894 453.7813,789.6206 Q454.9219,789.1363 456.3906,789.1363 Q457.3438,789.1363 458.2344,789.3394 Q459.1406,789.5269 460.0781,789.9956 L459.25,791.7769 Q458.4688,791.4019 457.8125,791.2144 Q457.1563,791.0113 456.3594,791.0113 Z " fill="#000000"/><text fill="#000000" font-family="sans-serif" font-size="14" lengthAdjust="spacing" textLength="181" x="476.75" y="800.912">VfClientEntityUnsubscriber</text><line style="stroke:#181818;stroke-width:0.5;" x1="381.5" x2="720.5" y1="811.48" y2="811.48"/><line style="stroke:#181818;stroke-width:0.5;" x1="381.5" x2="720.5" y1="819.48" y2="819.48"/><text fill="#000000" font-family="sans-serif" font-size="14" lengthAdjust="spacing" textLength="210" x="386.5" y="838.4459">void processCommandEvent(...)</text><text fill="#000000" font-family="sans-serif" font-size="14" lengthAdjust="spacing" textLength="275" x="386.5" y="857.5139">void processErrorCommandEventData(...)</text><text fill="#000000" font-family="sans-serif" font-size="14" lengthAdjust="spacing" textLength="176" x="386.5" y="876.5818">void sendUnsubscription()</text><text fill="#000000" font-family="sans-serif" font-size="14" lengthAdjust="spacing" textLength="329" x="386.5" y="895.6497">signal void sigUnsubscribed(bool ok, int entityId)</text></g><!--class VfEntityComponentEventItem--><g id="elem_VfEntityComponentEventItem"><rect codeLine="49" fill="#F1F1F1" height="143.3396" id="VfEntityComponentEventItem" rx="2.5" ry="2.5" style="stroke:#181818;stroke-width:0.5;" width="377" x="756.5" y="769.95"/><ellipse cx="842.25" cy="785.95" fill="#ADD1B2" rx="11" ry="11" style="stroke:#181818;stroke-width:1.0;"/><path d="M842.3594,781.4813 Q841.4375,781.4813 840.7031,781.7938 Q839.9844,782.1063 839.4844,782.7 Q838.9844,783.2781 838.7031,784.1531 Q838.4375,785.0281 838.4375,786.1219 Q838.4375,787.5594 838.875,788.6063 Q839.3281,789.6531 840.1719,790.2 Q841.0313,790.7469 842.3438,790.7469 Q843.125,790.7469 843.8125,790.6219 Q844.5156,790.4813 845.5156,790.1688 L845.5156,792.0438 Q844.6563,792.3719 843.8906,792.4969 Q843.1406,792.6219 842.125,792.6219 Q840.2031,792.6219 838.8906,791.825 Q837.5938,791.0125 836.9375,789.5438 Q836.2813,788.0594 836.2813,786.0906 Q836.2813,784.6688 836.6719,783.4969 Q837.0781,782.3094 837.8594,781.4344 Q838.6406,780.5594 839.7813,780.0906 Q840.9219,779.6063 842.3906,779.6063 Q843.3438,779.6063 844.2344,779.8094 Q845.1406,779.9969 846.0781,780.4656 L845.25,782.2469 Q844.4688,781.8719 843.8125,781.6844 Q843.1563,781.4813 842.3594,781.4813 Z " fill="#000000"/><text fill="#000000" font-family="sans-serif" font-size="14" lengthAdjust="spacing" textLength="197" x="862.75" y="791.382">VfEntityComponentEventItem</text><line style="stroke:#181818;stroke-width:0.5;" x1="757.5" x2="1132.5" y1="801.95" y2="801.95"/><rect fill="none" height="6" style="stroke:#C82930;stroke-width:1.0;" width="6" x="764.5" y="813.984"/><text fill="#000000" font-family="sans-serif" font-size="14" lengthAdjust="spacing" textLength="351" x="776.5" y="820.9159">QHash&lt;QString, SafeDeleteSet&gt; m_componentItems</text><line style="stroke:#181818;stroke-width:0.5;" x1="757.5" x2="1132.5" y1="829.0179" y2="829.0179"/><text fill="#000000" font-family="sans-serif" font-size="14" lengthAdjust="spacing" textLength="210" x="762.5" y="847.9839">void processCommandEvent(...)</text><text fill="#000000" font-family="sans-serif" font-size="14" lengthAdjust="spacing" textLength="275" x="762.5" y="867.0518">void processErrorCommandEventData(...)</text><text fill="#000000" font-family="sans-serif" font-size="14" lengthAdjust="spacing" textLength="340" x="762.5" y="886.1197">void addItem(VfCmdEventItemComponentPtr item)</text><text fill="#000000" font-family="sans-serif" font-size="14" lengthAdjust="spacing" textLength="364" x="762.5" y="905.1876">void removeItem(VfCmdEventItemComponentPtr item)</text></g><g id="elem_GMN13"><path d="M804.5,615.25 L804.5,678.368 A0,0 0 0 0 804.5,678.368 L953.59,678.368 L950.52,769.7 L961.59,678.368 L1115.5,678.368 A0,0 0 0 0 1115.5,678.368 L1115.5,625.25 L1105.5,615.25 L804.5,615.25 A0,0 0 0 0 804.5,615.25 " fill="#FEFFDD" style="stroke:#181818;stroke-width:0.5;"/><path d="M1105.5,615.25 L1105.5,625.25 L1115.5,625.25 L1105.5,615.25 " fill="#FEFFDD" style="stroke:#181818;stroke-width:0.5;"/><text fill="#000000" font-family="sans-serif" font-size="13" lengthAdjust="spacing" textLength="265" x="810.5" y="634.147">Filter component (error) data from incoming</text><text fill="#000000" font-family="sans-serif" font-size="13" lengthAdjust="spacing" textLength="290" x="810.5" y="651.853">and distribute to added VfComponentEventItem</text><text fill="#000000" font-family="sans-serif" font-size="13" lengthAdjust="spacing" textLength="242" x="810.5" y="669.559">objects with matching component name</text></g><!--class VfComponentEventItem--><g id="elem_VfComponentEventItem"><rect codeLine="68" fill="#F1F1F1" height="143.3396" id="VfComponentEventItem" rx="2.5" ry="2.5" style="stroke:#181818;stroke-width:0.5;" width="533" x="678.5" y="1018.29"/><ellipse cx="867.25" cy="1034.29" fill="#A9DCDF" rx="11" ry="11" style="stroke:#181818;stroke-width:1.0;"/><path d="M870.5938,1039.54 L869.125,1035.79 L864.6875,1035.79 L863.25,1039.54 L861.125,1039.54 L866.0781,1026.8213 L867.8281,1026.8213 L872.75,1039.54 L870.5938,1039.54 Z M867.25,1030.5869 Q867.2031,1030.4306 867.0781,1030.0713 Q866.9531,1029.7119 866.8438,1029.3369 Q866.7344,1028.9463 866.9375,1028.8838 Q867.0938,1029.0713 867,1029.4306 Q866.9063,1029.7744 866.8125,1030.0713 Q866.7188,1030.3525 866.6406,1030.5869 L865.4063,1033.8994 L868.4844,1033.8994 L867.25,1030.5869 Z " fill="#000000"/><text fill="#000000" font-family="sans-serif" font-size="14" font-style="italic" lengthAdjust="spacing" textLength="147" x="887.75" y="1039.722">VfComponentEventItem</text><line style="stroke:#181818;stroke-width:0.5;" x1="679.5" x2="1210.5" y1="1050.29" y2="1050.29"/><line style="stroke:#181818;stroke-width:0.5;" x1="679.5" x2="1210.5" y1="1058.29" y2="1058.29"/><text fill="#000000" font-family="sans-serif" font-size="14" lengthAdjust="spacing" textLength="104" x="684.5" y="1077.2559">int getEntityId()</text><text fill="#000000" font-family="sans-serif" font-size="14" lengthAdjust="spacing" textLength="214" x="684.5" y="1096.3239">QString &amp;getComponentName()</text><text fill="#000000" font-family="sans-serif" font-size="14" lengthAdjust="spacing" textLength="207" x="684.5" y="1115.3918">void sendEvent(QEvent *event)</text><text fill="#000000" font-family="sans-serif" font-size="14" font-style="italic" lengthAdjust="spacing" textLength="436" x="684.5" y="1134.4597">void processComponentEventData(ComponentData *componentData)</text><text fill="#000000" font-family="sans-serif" font-size="14" font-style="italic" lengthAdjust="spacing" textLength="521" x="684.5" y="1153.5276">void processErrorComponentEventData(ComponentData *originalComponentData)</text></g><!--class VfClientComponentFetcher--><g id="elem_VfClientComponentFetcher"><rect codeLine="76" fill="#F1F1F1" height="124.2717" id="VfClientComponentFetcher" rx="2.5" ry="2.5" style="stroke:#181818;stroke-width:0.5;" width="335" x="355.5" y="1222.63"/><ellipse cx="428.75" cy="1238.63" fill="#ADD1B2" rx="11" ry="11" style="stroke:#181818;stroke-width:1.0;"/><path d="M428.8594,1234.1613 Q427.9375,1234.1613 427.2031,1234.4738 Q426.4844,1234.7863 425.9844,1235.38 Q425.4844,1235.9581 425.2031,1236.8331 Q424.9375,1237.7081 424.9375,1238.8019 Q424.9375,1240.2394 425.375,1241.2863 Q425.8281,1242.3331 426.6719,1242.88 Q427.5313,1243.4269 428.8438,1243.4269 Q429.625,1243.4269 430.3125,1243.3019 Q431.0156,1243.1613 432.0156,1242.8488 L432.0156,1244.7238 Q431.1563,1245.0519 430.3906,1245.1769 Q429.6406,1245.3019 428.625,1245.3019 Q426.7031,1245.3019 425.3906,1244.505 Q424.0938,1243.6925 423.4375,1242.2238 Q422.7813,1240.7394 422.7813,1238.7706 Q422.7813,1237.3488 423.1719,1236.1769 Q423.5781,1234.9894 424.3594,1234.1144 Q425.1406,1233.2394 426.2813,1232.7706 Q427.4219,1232.2863 428.8906,1232.2863 Q429.8438,1232.2863 430.7344,1232.4894 Q431.6406,1232.6769 432.5781,1233.1456 L431.75,1234.9269 Q430.9688,1234.5519 430.3125,1234.3644 Q429.6563,1234.1613 428.8594,1234.1613 Z " fill="#000000"/><text fill="#000000" font-family="sans-serif" font-size="14" lengthAdjust="spacing" textLength="180" x="449.25" y="1244.062">VfClientComponentFetcher</text><line style="stroke:#181818;stroke-width:0.5;" x1="356.5" x2="689.5" y1="1254.63" y2="1254.63"/><line style="stroke:#181818;stroke-width:0.5;" x1="356.5" x2="689.5" y1="1262.63" y2="1262.63"/><text fill="#000000" font-family="sans-serif" font-size="14" lengthAdjust="spacing" textLength="250" x="361.5" y="1281.5959">void processComponentEventData(...)</text><text fill="#000000" font-family="sans-serif" font-size="14" lengthAdjust="spacing" textLength="284" x="361.5" y="1300.6639">void processErrorComponentEventData(...)</text><text fill="#000000" font-family="sans-serif" font-size="14" lengthAdjust="spacing" textLength="172" x="361.5" y="1319.7318">void startGetComponent()</text><text fill="#000000" font-family="sans-serif" font-size="14" lengthAdjust="spacing" textLength="323" x="361.5" y="1338.7997">signal void sigGetFinish(bool ok, QVariant value)</text></g><!--class VfClientComponentSetter--><g id="elem_VfClientComponentSetter"><rect codeLine="83" fill="#F1F1F1" height="124.2717" id="VfClientComponentSetter" rx="2.5" ry="2.5" style="stroke:#181818;stroke-width:0.5;" width="439" x="725.5" y="1222.63"/><ellipse cx="855.75" cy="1238.63" fill="#ADD1B2" rx="11" ry="11" style="stroke:#181818;stroke-width:1.0;"/><path d="M855.8594,1234.1613 Q854.9375,1234.1613 854.2031,1234.4738 Q853.4844,1234.7863 852.9844,1235.38 Q852.4844,1235.9581 852.2031,1236.8331 Q851.9375,1237.7081 851.9375,1238.8019 Q851.9375,1240.2394 852.375,1241.2863 Q852.8281,1242.3331 853.6719,1242.88 Q854.5313,1243.4269 855.8438,1243.4269 Q856.625,1243.4269 857.3125,1243.3019 Q858.0156,1243.1613 859.0156,1242.8488 L859.0156,1244.7238 Q858.1563,1245.0519 857.3906,1245.1769 Q856.6406,1245.3019 855.625,1245.3019 Q853.7031,1245.3019 852.3906,1244.505 Q851.0938,1243.6925 850.4375,1242.2238 Q849.7813,1240.7394 849.7813,1238.7706 Q849.7813,1237.3488 850.1719,1236.1769 Q850.5781,1234.9894 851.3594,1234.1144 Q852.1406,1233.2394 853.2813,1232.7706 Q854.4219,1232.2863 855.8906,1232.2863 Q856.8438,1232.2863 857.7344,1232.4894 Q858.6406,1232.6769 859.5781,1233.1456 L858.75,1234.9269 Q857.9688,1234.5519 857.3125,1234.3644 Q856.6563,1234.1613 855.8594,1234.1613 Z " fill="#000000"/><text fill="#000000" font-family="sans-serif" font-size="14" lengthAdjust="spacing" textLength="170" x="876.25" y="1244.062">VfClientComponentSetter</text><line style="stroke:#181818;stroke-width:0.5;" x1="726.5" x2="1163.5" y1="1254.63" y2="1254.63"/><line style="stroke:#181818;stroke-width:0.5;" x1="726.5" x2="1163.5" y1="1262.63" y2="1262.63"/><text fill="#000000" font-family="sans-serif" font-size="14" lengthAdjust="spacing" textLength="250" x="731.5" y="1281.5959">void processComponentEventData(...)</text><text fill="#000000" font-family="sans-serif" font-size="14" lengthAdjust="spacing" textLength="284" x="731.5" y="1300.6639">void processErrorComponentEventData(...)</text><text fill="#000000" font-family="sans-serif" font-size="14" lengthAdjust="spacing" textLength="427" x="731.5" y="1319.7318">void startSetComponent(QVariant oldValue, QVariant newValue)</text><text fill="#000000" font-family="sans-serif" font-size="14" lengthAdjust="spacing" textLength="214" x="731.5" y="1338.7997">signal void sigSetFinish(bool ok)</text></g><!--class VfComponentChangeNotifier--><g id="elem_VfComponentChangeNotifier"><rect codeLine="90" fill="#F1F1F1" height="105.2038" id="VfComponentChangeNotifier" rx="2.5" ry="2.5" style="stroke:#181818;stroke-width:0.5;" width="296" x="1199" y="1232.16"/><ellipse cx="1245.75" cy="1248.16" fill="#ADD1B2" rx="11" ry="11" style="stroke:#181818;stroke-width:1.0;"/><path d="M1245.8594,1243.6913 Q1244.9375,1243.6913 1244.2031,1244.0038 Q1243.4844,1244.3163 1242.9844,1244.91 Q1242.4844,1245.4881 1242.2031,1246.3631 Q1241.9375,1247.2381 1241.9375,1248.3319 Q1241.9375,1249.7694 1242.375,1250.8163 Q1242.8281,1251.8631 1243.6719,1252.41 Q1244.5313,1252.9569 1245.8438,1252.9569 Q1246.625,1252.9569 1247.3125,1252.8319 Q1248.0156,1252.6913 1249.0156,1252.3788 L1249.0156,1254.2538 Q1248.1563,1254.5819 1247.3906,1254.7069 Q1246.6406,1254.8319 1245.625,1254.8319 Q1243.7031,1254.8319 1242.3906,1254.035 Q1241.0938,1253.2225 1240.4375,1251.7538 Q1239.7813,1250.2694 1239.7813,1248.3006 Q1239.7813,1246.8788 1240.1719,1245.7069 Q1240.5781,1244.5194 1241.3594,1243.6444 Q1242.1406,1242.7694 1243.2813,1242.3006 Q1244.4219,1241.8163 1245.8906,1241.8163 Q1246.8438,1241.8163 1247.7344,1242.0194 Q1248.6406,1242.2069 1249.5781,1242.6756 L1248.75,1244.4569 Q1247.9688,1244.0819 1247.3125,1243.8944 Q1246.6563,1243.6913 1245.8594,1243.6913 Z " fill="#000000"/><text fill="#000000" font-family="sans-serif" font-size="14" lengthAdjust="spacing" textLength="194" x="1266.25" y="1253.592">VfComponentChangeNotifier</text><line style="stroke:#181818;stroke-width:0.5;" x1="1200" x2="1494" y1="1264.16" y2="1264.16"/><line style="stroke:#181818;stroke-width:0.5;" x1="1200" x2="1494" y1="1272.16" y2="1272.16"/><text fill="#000000" font-family="sans-serif" font-size="14" lengthAdjust="spacing" textLength="246" x="1205" y="1291.1259">void processComponentEventData(..)</text><text fill="#000000" font-family="sans-serif" font-size="14" lengthAdjust="spacing" textLength="284" x="1205" y="1310.1939">void processErrorComponentEventData(...)</text><text fill="#000000" font-family="sans-serif" font-size="14" lengthAdjust="spacing" textLength="203" x="1205" y="1329.2618">signal void sigValueChanged()</text></g><!--class EventSystem--><g id="elem_EventSystem"><rect codeLine="2" fill="#F1F1F1" height="86.1358" id="EventSystem" rx="2.5" ry="2.5" style="stroke:#181818;stroke-width:0.5;" width="285" x="402.5" y="7"/><ellipse cx="501.75" cy="23" fill="#A9DCDF" rx="11" ry="11" style="stroke:#181818;stroke-width:1.0;"/><path d="M505.0938,28.25 L503.625,24.5 L499.1875,24.5 L497.75,28.25 L495.625,28.25 L500.5781,15.5313 L502.3281,15.5313 L507.25,28.25 L505.0938,28.25 Z M501.75,19.2969 Q501.7031,19.1406 501.5781,18.7813 Q501.4531,18.4219 501.3438,18.0469 Q501.2344,17.6563 501.4375,17.5938 Q501.5938,17.7813 501.5,18.1406 Q501.4063,18.4844 501.3125,18.7813 Q501.2188,19.0625 501.1406,19.2969 L499.9063,22.6094 L502.9844,22.6094 L501.75,19.2969 Z " fill="#000000"/><text fill="#000000" font-family="sans-serif" font-size="14" font-style="italic" lengthAdjust="spacing" textLength="78" x="522.25" y="28.432">EventSystem</text><line style="stroke:#181818;stroke-width:0.5;" x1="403.5" x2="686.5" y1="39" y2="39"/><line style="stroke:#181818;stroke-width:0.5;" x1="403.5" x2="686.5" y1="47" y2="47"/><text fill="#000000" font-family="sans-serif" font-size="14" lengthAdjust="spacing" textLength="273" x="408.5" y="65.9659">signal void sigSendEvent(QEvent *event)</text><text fill="#000000" font-family="sans-serif" font-size="14" font-style="italic" lengthAdjust="spacing" textLength="210" x="408.5" y="85.0339">void processEvent(QEvent *event)</text></g><!--class VfCmdEventHandlerSystem--><g id="elem_VfCmdEventHandlerSystem"><rect codeLine="7" fill="#F1F1F1" height="124.2717" id="VfCmdEventHandlerSystem" rx="2.5" ry="2.5" style="stroke:#181818;stroke-width:0.5;" width="342" x="374" y="154.13"/><ellipse cx="449.25" cy="170.13" fill="#ADD1B2" rx="11" ry="11" style="stroke:#181818;stroke-width:1.0;"/><path d="M449.3594,165.6613 Q448.4375,165.6613 447.7031,165.9738 Q446.9844,166.2863 446.4844,166.88 Q445.9844,167.4581 445.7031,168.3331 Q445.4375,169.2081 445.4375,170.3019 Q445.4375,171.7394 445.875,172.7863 Q446.3281,173.8331 447.1719,174.38 Q448.0313,174.9269 449.3438,174.9269 Q450.125,174.9269 450.8125,174.8019 Q451.5156,174.6613 452.5156,174.3488 L452.5156,176.2238 Q451.6563,176.5519 450.8906,176.6769 Q450.1406,176.8019 449.125,176.8019 Q447.2031,176.8019 445.8906,176.005 Q444.5938,175.1925 443.9375,173.7238 Q443.2813,172.2394 443.2813,170.2706 Q443.2813,168.8488 443.6719,167.6769 Q444.0781,166.4894 444.8594,165.6144 Q445.6406,164.7394 446.7813,164.2706 Q447.9219,163.7863 449.3906,163.7863 Q450.3438,163.7863 451.2344,163.9894 Q452.1406,164.1769 453.0781,164.6456 L452.25,166.4269 Q451.4688,166.0519 450.8125,165.8644 Q450.1563,165.6613 449.3594,165.6613 Z " fill="#000000"/><text fill="#000000" font-family="sans-serif" font-size="14" lengthAdjust="spacing" textLength="183" x="469.75" y="175.562">VfCmdEventHandlerSystem</text><line style="stroke:#181818;stroke-width:0.5;" x1="375" x2="715" y1="186.13" y2="186.13"/><rect fill="none" height="6" style="stroke:#C82930;stroke-width:1.0;" width="6" x="382" y="198.164"/><text fill="#000000" font-family="sans-serif" font-size="14" lengthAdjust="spacing" textLength="316" x="394" y="205.0959">VfCmdEventHandler m_commandEventHandler</text><line style="stroke:#181818;stroke-width:0.5;" x1="375" x2="715" y1="213.1979" y2="213.1979"/><text fill="#000000" font-family="sans-serif" font-size="14" lengthAdjust="spacing" textLength="141" x="380" y="232.1639">void processEvent(...)</text><text fill="#000000" font-family="sans-serif" font-size="14" lengthAdjust="spacing" textLength="262" x="380" y="251.2318">void addItem(VfCmdEventItemPtr item)</text><text fill="#000000" font-family="sans-serif" font-size="14" lengthAdjust="spacing" textLength="286" x="380" y="270.2997">void removeItem(VfCmdEventItemPtr item)</text></g><!--link VfClientEntitySubscriber to VfClientEntityUnsubscriber--><!--link VfClientEntityUnsubscriber to VfEntityComponentEventItem--><!--reverse link EventSystem to VfCmdEventHandlerSystem--><g id="link_EventSystem_VfCmdEventHandlerSystem"><path codeLine="97" d="M545,111.35 C545,129.79 545,133.76 545,153.93 " fill="none" id="EventSystem-backto-VfCmdEventHandlerSystem" style="stroke:#181818;stroke-width:1.0;"/><polygon fill="none" points="545,93.35,539,111.35,551,111.35,545,93.35" style="stroke:#181818;stroke-width:1.0;"/></g><!--reverse link VfCmdEventHandlerSystem to VfCmdEventHandler--><g id="link_VfCmdEventHandlerSystem_VfCmdEventHandler"><path codeLine="99" d="M545,290.83 C545,322.61 545,349.28 545,381.06 " fill="none" id="VfCmdEventHandlerSystem-backto-VfCmdEventHandler" style="stroke:#181818;stroke-width:1.0;"/><polygon fill="#181818" points="545,278.83,541,284.83,545,290.83,549,284.83,545,278.83" style="stroke:#181818;stroke-width:1.0;"/><polygon fill="#000000" points="550,323.263,552.9389,314.2179,547.0611,314.2179,550,323.263" style="stroke:#000000;stroke-width:1.0;"/><text fill="#000000" font-family="sans-serif" font-size="13" lengthAdjust="spacing" textLength="32" x="559" y="323.307">owns</text><text fill="#000000" font-family="sans-serif" font-size="13" lengthAdjust="spacing" textLength="7" x="537.5953" y="369.7901">1</text></g><!--reverse link VfCmdEventHandler to VfEntityEventItem--><g id="link_VfCmdEventHandler_VfEntityEventItem"><path codeLine="100" d="M545,518.02 C545,542.88 545,559.51 545,584.36 " fill="none" id="VfCmdEventHandler-backto-VfEntityEventItem" style="stroke:#181818;stroke-width:1.0;"/><polygon fill="none" points="545,506.02,541,512.02,545,518.02,549,512.02,545,506.02" style="stroke:#181818;stroke-width:1.0;"/><polygon fill="#000000" points="550,550.533,552.9389,541.4879,547.0611,541.4879,550,550.533" style="stroke:#000000;stroke-width:1.0;"/><text fill="#000000" font-family="sans-serif" font-size="13" lengthAdjust="spacing" textLength="139" x="559" y="550.577">has shared entity items</text><text fill="#000000" font-family="sans-serif" font-size="13" lengthAdjust="spacing" textLength="20" x="523.7813" y="572.6523">0..*</text></g><!--reverse link VfEntityEventItem to VfClientEntitySubscriber--><g id="link_VfEntityEventItem_VfClientEntitySubscriber"><path codeLine="102" d="M413.9025,717.8297 C372.2225,740.0897 341.05,756.74 299.36,779.01 " fill="none" id="VfEntityEventItem-backto-VfClientEntitySubscriber" style="stroke:#181818;stroke-width:1.0;"/><polygon fill="none" points="429.78,709.35,411.0759,712.5372,416.7291,723.1222,429.78,709.35" style="stroke:#181818;stroke-width:1.0;"/></g><!--reverse link VfEntityEventItem to VfClientEntityUnsubscriber--><g id="link_VfEntityEventItem_VfClientEntityUnsubscriber"><path codeLine="103" d="M547.4758,727.3411 C548.1758,749.6011 548.39,756.74 549.08,779.01 " fill="none" id="VfEntityEventItem-backto-VfClientEntityUnsubscriber" style="stroke:#181818;stroke-width:1.0;"/><polygon fill="none" points="546.91,709.35,541.4787,727.5297,553.4728,727.1525,546.91,709.35" style="stroke:#181818;stroke-width:1.0;"/></g><!--reverse link VfEntityEventItem to VfEntityComponentEventItem--><g id="link_VfEntityEventItem_VfEntityComponentEventItem"><path codeLine="105" d="M688.8761,717.1626 C728.6661,736.3326 756.64,749.83 797.66,769.6 " fill="none" id="VfEntityEventItem-backto-VfEntityComponentEventItem" style="stroke:#181818;stroke-width:1.0;"/><polygon fill="none" points="672.66,709.35,686.2719,722.568,691.4803,711.7572,672.66,709.35" style="stroke:#181818;stroke-width:1.0;"/></g><!--reverse link VfEntityComponentEventItem to VfComponentEventItem--><g id="link_VfEntityComponentEventItem_VfComponentEventItem"><path codeLine="106" d="M945,925.54 C945,958.37 945,985.29 945,1018.11 " fill="none" id="VfEntityComponentEventItem-backto-VfComponentEventItem" style="stroke:#181818;stroke-width:1.0;"/><polygon fill="none" points="945,913.54,941,919.54,945,925.54,949,919.54,945,913.54" style="stroke:#181818;stroke-width:1.0;"/><polygon fill="#000000" points="950,960.143,952.9389,951.0979,947.0611,951.0979,950,960.143" style="stroke:#000000;stroke-width:1.0;"/><text fill="#000000" font-family="sans-serif" font-size="13" lengthAdjust="spacing" textLength="174" x="959" y="960.187">has shared component items</text><text fill="#000000" font-family="sans-serif" font-size="13" lengthAdjust="spacing" textLength="20" x="923.9063" y="1006.2574">0..*</text></g><!--reverse link VfComponentEventItem to VfClientComponentFetcher--><g id="link_VfComponentEventItem_VfClientComponentFetcher"><path codeLine="108" d="M772.9884,1169.5513 C729.7684,1189.3013 699.58,1203.09 657.67,1222.24 " fill="none" id="VfComponentEventItem-backto-VfClientComponentFetcher" style="stroke:#181818;stroke-width:1.0;"/><polygon fill="none" points="789.36,1162.07,770.4946,1164.094,775.4821,1175.0085,789.36,1162.07" style="stroke:#181818;stroke-width:1.0;"/></g><!--reverse link VfComponentEventItem to VfClientComponentSetter--><g id="link_VfComponentEventItem_VfClientComponentSetter"><path codeLine="109" d="M945,1179.93 C945,1199.69 945,1202.98 945,1222.15 " fill="none" id="VfComponentEventItem-backto-VfClientComponentSetter" style="stroke:#181818;stroke-width:1.0;"/><polygon fill="none" points="945,1161.93,939,1179.93,951,1179.93,945,1161.93" style="stroke:#181818;stroke-width:1.0;"/></g><!--reverse link VfComponentEventItem to VfComponentChangeNotifier--><g id="link_VfComponentEventItem_VfComponentChangeNotifier"><path codeLine="110" d="M1109.4904,1169.8529 C1157.6004,1192.9229 1193.82,1210.3 1238.48,1231.72 " fill="none" id="VfComponentEventItem-backto-VfComponentChangeNotifier" style="stroke:#181818;stroke-width:1.0;"/><polygon fill="none" points="1093.26,1162.07,1106.8961,1175.263,1112.0847,1164.4428,1093.26,1162.07" style="stroke:#181818;stroke-width:1.0;"/></g><!--SRC=[nLTDZzem4BtdLumuj04jgBsk41TOkdjP5KNbKbMLIKpYRc8Zsx1QRVdl7JiX7yG9Y_h5WU1uPZnl_ERPa8tIaeGQmfGe1NS7odNmeZJDuDK3_2WMSvB2GR38_0ueZwoHlx8F657p65hRLr94E-RsEob2gfJJ_kXv-PBhxJpBGzuJ7gLKDfPlnvbC9iDgYaJH0rhxLHGp_AmbC7pM32NDn85Uj1stqe7iUoYoZF36MvE_joFX4uaf3EwuPle5n8vAefdWQW3JwLAIZCvc1P0EiCMi6wgZn5S1lnQyBS3gdgXaohY-WO1iwOAcLDE0wXaMWbgSnb5PXwFzva9Ja2nEj1qkMQeHc8-lsPQ5jY13A6eujbWKRAN8h3NZECDu33bO1MW44KCUiSqUu-e4kQ25mKiZwx7UvkKkGO3O_A0XkZupdK16T9YOW7coyB2mNiXRcwXdHwH9-tR8Qbkm4X1JdHiyHFvPQLLVG_GqnRp6ARy-W55ORD3567TI2bdtNH1D_F8NZ0Jk2iFsBLyDYsrhKZ9bE9q33FOR5MBfEvdPoBlinHP_dPcrpKtrYYLtXYUrwfuBpocnoDy8aO9ukh5RKr0okeZi2rV_7bkvw0LqjUIkmPSZmrnsWXkW3lh-FNnk1IgJkLQAUXmBJLe5A0eyTkXIUF9rIfCMkxembSRWKmDr295f5gD8fHhb8d6cH8K86LwrAcuTt3fKhSVnG728qNlO2XbIICcBsEj2upgQSlmrOPW4_pRheRSZH8FzZI1T738dN7d0bTEzPrnBLNkPsIsinKR3EvmkGppYIdzGV6jvMNwNhtBb3El3DmlnXQ0dEPwtWpk5gxHRKkHIdsoTBtonkIyxA4sa_bJRW6xrGgibuqmbbNIjraGoWZjo8EcUlWKZjhB-7n23EiGoRP56QvDv3Gcdp-iAZFDkV5O6D-pJOlE4y9W-sblITS1_0_TPoXPGdiYf0O-cyUl_0wO_n-EkMxhdTLtVH-Wq-3Xmt7XlGJnp1REsAmZZz64o6GqSLx9RI8W2bH296bnSximvOK9vRVDJsauTVPjzGrExNJeLjEU0RY1rp3V0LYT83Q_3gG7XN3okSSbxiT_3JMFl5m00]--></g></svg>