<?xml version="1.0" encoding="us-ascii" standalone="no"?><svg xmlns="http://www.w3.org/2000/svg" xmlns:xlink="http://www.w3.org/1999/xlink" contentStyleType="text/css" height="1245px" preserveAspectRatio="none" style="width:1393px;height:1245px;background:#FFFFFF;" version="1.1" viewBox="0 0 1393 1245" width="1393px" zoomAndPan="magnify"><defs/><g><!--class EventSystem--><g id="elem_EventSystem"><rect codeLine="3" fill="#F1F1F1" height="86.1358" id="EventSystem" rx="2.5" ry="2.5" style="stroke:#181818;stroke-width:0.5;" width="285" x="248" y="7"/><ellipse cx="347.25" cy="23" fill="#A9DCDF" rx="11" ry="11" style="stroke:#181818;stroke-width:1.0;"/><path d="M350.5938,28.25 L349.125,24.5 L344.6875,24.5 L343.25,28.25 L341.125,28.25 L346.0781,15.5313 L347.8281,15.5313 L352.75,28.25 L350.5938,28.25 Z M347.25,19.2969 Q347.2031,19.1406 347.0781,18.7813 Q346.9531,18.4219 346.8438,18.0469 Q346.7344,17.6563 346.9375,17.5938 Q347.0938,17.7813 347,18.1406 Q346.9063,18.4844 346.8125,18.7813 Q346.7188,19.0625 346.6406,19.2969 L345.4063,22.6094 L348.4844,22.6094 L347.25,19.2969 Z " fill="#000000"/><text fill="#000000" font-family="sans-serif" font-size="14" font-style="italic" lengthAdjust="spacing" textLength="78" x="367.75" y="28.432">EventSystem</text><line style="stroke:#181818;stroke-width:0.5;" x1="249" x2="532" y1="39" y2="39"/><line style="stroke:#181818;stroke-width:0.5;" x1="249" x2="532" y1="47" y2="47"/><text fill="#000000" font-family="sans-serif" font-size="14" lengthAdjust="spacing" textLength="273" x="254" y="65.9659">signal void sigSendEvent(QEvent *event)</text><text fill="#000000" font-family="sans-serif" font-size="14" font-style="italic" lengthAdjust="spacing" textLength="210" x="254" y="85.0339">void processEvent(QEvent *event)</text></g><!--class VfCmdEventHandlerSystem--><g id="elem_VfCmdEventHandlerSystem"><rect codeLine="8" fill="#F1F1F1" height="124.2717" id="VfCmdEventHandlerSystem" rx="2.5" ry="2.5" style="stroke:#181818;stroke-width:0.5;" width="342" x="423.5" y="154"/><ellipse cx="498.75" cy="170" fill="#ADD1B2" rx="11" ry="11" style="stroke:#181818;stroke-width:1.0;"/><path d="M498.8594,165.5313 Q497.9375,165.5313 497.2031,165.8438 Q496.4844,166.1563 495.9844,166.75 Q495.4844,167.3281 495.2031,168.2031 Q494.9375,169.0781 494.9375,170.1719 Q494.9375,171.6094 495.375,172.6563 Q495.8281,173.7031 496.6719,174.25 Q497.5313,174.7969 498.8438,174.7969 Q499.625,174.7969 500.3125,174.6719 Q501.0156,174.5313 502.0156,174.2188 L502.0156,176.0938 Q501.1563,176.4219 500.3906,176.5469 Q499.6406,176.6719 498.625,176.6719 Q496.7031,176.6719 495.3906,175.875 Q494.0938,175.0625 493.4375,173.5938 Q492.7813,172.1094 492.7813,170.1406 Q492.7813,168.7188 493.1719,167.5469 Q493.5781,166.3594 494.3594,165.4844 Q495.1406,164.6094 496.2813,164.1406 Q497.4219,163.6563 498.8906,163.6563 Q499.8438,163.6563 500.7344,163.8594 Q501.6406,164.0469 502.5781,164.5156 L501.75,166.2969 Q500.9688,165.9219 500.3125,165.7344 Q499.6563,165.5313 498.8594,165.5313 Z " fill="#000000"/><text fill="#000000" font-family="sans-serif" font-size="14" lengthAdjust="spacing" textLength="183" x="519.25" y="175.432">VfCmdEventHandlerSystem</text><line style="stroke:#181818;stroke-width:0.5;" x1="424.5" x2="764.5" y1="186" y2="186"/><rect fill="none" height="6" style="stroke:#C82930;stroke-width:1.0;" width="6" x="431.5" y="198.034"/><text fill="#000000" font-family="sans-serif" font-size="14" lengthAdjust="spacing" textLength="316" x="443.5" y="204.9659">VfCmdEventHandler m_commandEventHandler</text><line style="stroke:#181818;stroke-width:0.5;" x1="424.5" x2="764.5" y1="213.0679" y2="213.0679"/><text fill="#000000" font-family="sans-serif" font-size="14" lengthAdjust="spacing" textLength="226" x="429.5" y="232.0339">void processEvent(QEvent *event)</text><text fill="#000000" font-family="sans-serif" font-size="14" lengthAdjust="spacing" textLength="262" x="429.5" y="251.1018">void addItem(VfCmdEventItemPtr item)</text><text fill="#000000" font-family="sans-serif" font-size="14" lengthAdjust="spacing" textLength="286" x="429.5" y="270.1697">void removeItem(VfCmdEventItemPtr item)</text></g><!--class VfCmdEventHandler--><g id="elem_VfCmdEventHandler"><rect codeLine="18" fill="#F1F1F1" height="124.2717" id="VfCmdEventHandler" rx="2.5" ry="2.5" style="stroke:#181818;stroke-width:0.5;" width="298" x="434.5" y="357"/><ellipse cx="511.75" cy="373" fill="#ADD1B2" rx="11" ry="11" style="stroke:#181818;stroke-width:1.0;"/><path d="M511.8594,368.5313 Q510.9375,368.5313 510.2031,368.8438 Q509.4844,369.1563 508.9844,369.75 Q508.4844,370.3281 508.2031,371.2031 Q507.9375,372.0781 507.9375,373.1719 Q507.9375,374.6094 508.375,375.6563 Q508.8281,376.7031 509.6719,377.25 Q510.5313,377.7969 511.8438,377.7969 Q512.625,377.7969 513.3125,377.6719 Q514.0156,377.5313 515.0156,377.2188 L515.0156,379.0938 Q514.1563,379.4219 513.3906,379.5469 Q512.6406,379.6719 511.625,379.6719 Q509.7031,379.6719 508.3906,378.875 Q507.0938,378.0625 506.4375,376.5938 Q505.7813,375.1094 505.7813,373.1406 Q505.7813,371.7188 506.1719,370.5469 Q506.5781,369.3594 507.3594,368.4844 Q508.1406,367.6094 509.2813,367.1406 Q510.4219,366.6563 511.8906,366.6563 Q512.8438,366.6563 513.7344,366.8594 Q514.6406,367.0469 515.5781,367.5156 L514.75,369.2969 Q513.9688,368.9219 513.3125,368.7344 Q512.6563,368.5313 511.8594,368.5313 Z " fill="#000000"/><text fill="#000000" font-family="sans-serif" font-size="14" lengthAdjust="spacing" textLength="135" x="532.25" y="378.432">VfCmdEventHandler</text><line style="stroke:#181818;stroke-width:0.5;" x1="435.5" x2="731.5" y1="389" y2="389"/><rect fill="none" height="6" style="stroke:#C82930;stroke-width:1.0;" width="6" x="442.5" y="401.034"/><text fill="#000000" font-family="sans-serif" font-size="14" lengthAdjust="spacing" textLength="240" x="454.5" y="407.9659">QHash&lt;int, SafeDeleteSet&gt; m_items</text><line style="stroke:#181818;stroke-width:0.5;" x1="435.5" x2="731.5" y1="416.0679" y2="416.0679"/><text fill="#000000" font-family="sans-serif" font-size="14" lengthAdjust="spacing" textLength="226" x="440.5" y="435.0339">void processEvent(QEvent *event)</text><text fill="#000000" font-family="sans-serif" font-size="14" lengthAdjust="spacing" textLength="262" x="440.5" y="454.1018">void addItem(VfCmdEventItemPtr item)</text><text fill="#000000" font-family="sans-serif" font-size="14" lengthAdjust="spacing" textLength="286" x="440.5" y="473.1697">void removeItem(VfCmdEventItemPtr item)</text></g><!--class VfCmdEventItem--><g id="elem_VfCmdEventItem"><rect codeLine="27" fill="#F1F1F1" height="143.3396" id="VfCmdEventItem" rx="2.5" ry="2.5" style="stroke:#181818;stroke-width:0.5;" width="449" x="213" y="560"/><ellipse cx="381.75" cy="576" fill="#A9DCDF" rx="11" ry="11" style="stroke:#181818;stroke-width:1.0;"/><path d="M385.0938,581.25 L383.625,577.5 L379.1875,577.5 L377.75,581.25 L375.625,581.25 L380.5781,568.5313 L382.3281,568.5313 L387.25,581.25 L385.0938,581.25 Z M381.75,572.2969 Q381.7031,572.1406 381.5781,571.7813 Q381.4531,571.4219 381.3438,571.0469 Q381.2344,570.6563 381.4375,570.5938 Q381.5938,570.7813 381.5,571.1406 Q381.4063,571.4844 381.3125,571.7813 Q381.2188,572.0625 381.1406,572.2969 L379.9063,575.6094 L382.9844,575.6094 L381.75,572.2969 Z " fill="#000000"/><text fill="#000000" font-family="sans-serif" font-size="14" font-style="italic" lengthAdjust="spacing" textLength="103" x="402.25" y="581.432">VfCmdEventItem</text><line style="stroke:#181818;stroke-width:0.5;" x1="214" x2="661" y1="592" y2="592"/><rect fill="none" height="6" style="stroke:#C82930;stroke-width:1.0;" width="6" x="221" y="604.034"/><text fill="#000000" font-family="sans-serif" font-size="14" lengthAdjust="spacing" textLength="201" x="233" y="610.9659">EventSystem* m_eventSystem</text><line style="stroke:#181818;stroke-width:0.5;" x1="214" x2="661" y1="619.0679" y2="619.0679"/><text fill="#000000" font-family="sans-serif" font-size="14" lengthAdjust="spacing" textLength="327" x="219" y="638.0339">void setEventSystem(EventSystem* eventSystem)</text><text fill="#000000" font-family="sans-serif" font-size="14" lengthAdjust="spacing" textLength="104" x="219" y="657.1018">int getEntityId()</text><text fill="#000000" font-family="sans-serif" font-size="14" font-style="italic" lengthAdjust="spacing" textLength="354" x="219" y="676.1697">void processCommandEvent(CommandEvent *cmdEvent)</text><text fill="#000000" font-family="sans-serif" font-size="14" font-style="italic" lengthAdjust="spacing" textLength="437" x="219" y="695.2376">void processErrorCommandEventData(EventData *originalEventData)</text></g><g id="elem_GMN9"><path d="M768,396.5 L768,415 L732.8,419 L768,423 L768,441.912 A0,0 0 0 0 768,441.912 L1179,441.912 A0,0 0 0 0 1179,441.912 L1179,406.5 L1169,396.5 L768,396.5 A0,0 0 0 0 768,396.5 " fill="#FEFFDD" style="stroke:#181818;stroke-width:0.5;"/><path d="M1169,396.5 L1169,406.5 L1179,406.5 L1169,396.5 " fill="#FEFFDD" style="stroke:#181818;stroke-width:0.5;"/><text fill="#000000" font-family="sans-serif" font-size="13" lengthAdjust="spacing" textLength="378" x="774" y="415.397">Filter incoming QEvents for (notification) command-events with</text><text fill="#000000" font-family="sans-serif" font-size="13" lengthAdjust="spacing" textLength="390" x="774" y="433.103">matching entity ID and distribute them to VfCmdEventItem items</text></g><!--class VfClientEntitySubscriber--><g id="elem_VfClientEntitySubscriber"><rect codeLine="36" fill="#F1F1F1" height="86.1358" id="VfClientEntitySubscriber" rx="2.5" ry="2.5" style="stroke:#181818;stroke-width:0.5;" width="287" x="7" y="792.5"/><ellipse cx="64.75" cy="808.5" fill="#ADD1B2" rx="11" ry="11" style="stroke:#181818;stroke-width:1.0;"/><path d="M64.8594,804.0313 Q63.9375,804.0313 63.2031,804.3438 Q62.4844,804.6563 61.9844,805.25 Q61.4844,805.8281 61.2031,806.7031 Q60.9375,807.5781 60.9375,808.6719 Q60.9375,810.1094 61.375,811.1563 Q61.8281,812.2031 62.6719,812.75 Q63.5313,813.2969 64.8438,813.2969 Q65.625,813.2969 66.3125,813.1719 Q67.0156,813.0313 68.0156,812.7188 L68.0156,814.5938 Q67.1563,814.9219 66.3906,815.0469 Q65.6406,815.1719 64.625,815.1719 Q62.7031,815.1719 61.3906,814.375 Q60.0938,813.5625 59.4375,812.0938 Q58.7813,810.6094 58.7813,808.6406 Q58.7813,807.2188 59.1719,806.0469 Q59.5781,804.8594 60.3594,803.9844 Q61.1406,803.1094 62.2813,802.6406 Q63.4219,802.1563 64.8906,802.1563 Q65.8438,802.1563 66.7344,802.3594 Q67.6406,802.5469 68.5781,803.0156 L67.75,804.7969 Q66.9688,804.4219 66.3125,804.2344 Q65.6563,804.0313 64.8594,804.0313 Z " fill="#000000"/><text fill="#000000" font-family="sans-serif" font-size="14" lengthAdjust="spacing" textLength="163" x="85.25" y="813.932">VfClientEntitySubscriber</text><line style="stroke:#181818;stroke-width:0.5;" x1="8" x2="293" y1="824.5" y2="824.5"/><line style="stroke:#181818;stroke-width:0.5;" x1="8" x2="293" y1="832.5" y2="832.5"/><text fill="#000000" font-family="sans-serif" font-size="14" lengthAdjust="spacing" textLength="210" x="13" y="851.4659">void processCommandEvent(...)</text><text fill="#000000" font-family="sans-serif" font-size="14" lengthAdjust="spacing" textLength="275" x="13" y="870.5339">void processErrorCommandEventData(...)</text></g><!--class VfClientEntityUnsubscriber--><g id="elem_VfClientEntityUnsubscriber"><rect codeLine="42" fill="#F1F1F1" height="86.1358" id="VfClientEntityUnsubscriber" rx="2.5" ry="2.5" style="stroke:#181818;stroke-width:0.5;" width="287" x="329" y="792.5"/><ellipse cx="377.75" cy="808.5" fill="#ADD1B2" rx="11" ry="11" style="stroke:#181818;stroke-width:1.0;"/><path d="M377.8594,804.0313 Q376.9375,804.0313 376.2031,804.3438 Q375.4844,804.6563 374.9844,805.25 Q374.4844,805.8281 374.2031,806.7031 Q373.9375,807.5781 373.9375,808.6719 Q373.9375,810.1094 374.375,811.1563 Q374.8281,812.2031 375.6719,812.75 Q376.5313,813.2969 377.8438,813.2969 Q378.625,813.2969 379.3125,813.1719 Q380.0156,813.0313 381.0156,812.7188 L381.0156,814.5938 Q380.1563,814.9219 379.3906,815.0469 Q378.6406,815.1719 377.625,815.1719 Q375.7031,815.1719 374.3906,814.375 Q373.0938,813.5625 372.4375,812.0938 Q371.7813,810.6094 371.7813,808.6406 Q371.7813,807.2188 372.1719,806.0469 Q372.5781,804.8594 373.3594,803.9844 Q374.1406,803.1094 375.2813,802.6406 Q376.4219,802.1563 377.8906,802.1563 Q378.8438,802.1563 379.7344,802.3594 Q380.6406,802.5469 381.5781,803.0156 L380.75,804.7969 Q379.9688,804.4219 379.3125,804.2344 Q378.6563,804.0313 377.8594,804.0313 Z " fill="#000000"/><text fill="#000000" font-family="sans-serif" font-size="14" lengthAdjust="spacing" textLength="181" x="398.25" y="813.932">VfClientEntityUnsubscriber</text><line style="stroke:#181818;stroke-width:0.5;" x1="330" x2="615" y1="824.5" y2="824.5"/><line style="stroke:#181818;stroke-width:0.5;" x1="330" x2="615" y1="832.5" y2="832.5"/><text fill="#000000" font-family="sans-serif" font-size="14" lengthAdjust="spacing" textLength="210" x="335" y="851.4659">void processCommandEvent(...)</text><text fill="#000000" font-family="sans-serif" font-size="14" lengthAdjust="spacing" textLength="275" x="335" y="870.5339">void processErrorCommandEventData(...)</text></g><!--class VfCmdEventItemEntity--><g id="elem_VfCmdEventItemEntity"><rect codeLine="47" fill="#F1F1F1" height="143.3396" id="VfCmdEventItemEntity" rx="2.5" ry="2.5" style="stroke:#181818;stroke-width:0.5;" width="377" x="719" y="764"/><ellipse cx="828.25" cy="780" fill="#ADD1B2" rx="11" ry="11" style="stroke:#181818;stroke-width:1.0;"/><path d="M828.3594,775.5313 Q827.4375,775.5313 826.7031,775.8438 Q825.9844,776.1563 825.4844,776.75 Q824.9844,777.3281 824.7031,778.2031 Q824.4375,779.0781 824.4375,780.1719 Q824.4375,781.6094 824.875,782.6563 Q825.3281,783.7031 826.1719,784.25 Q827.0313,784.7969 828.3438,784.7969 Q829.125,784.7969 829.8125,784.6719 Q830.5156,784.5313 831.5156,784.2188 L831.5156,786.0938 Q830.6563,786.4219 829.8906,786.5469 Q829.1406,786.6719 828.125,786.6719 Q826.2031,786.6719 824.8906,785.875 Q823.5938,785.0625 822.9375,783.5938 Q822.2813,782.1094 822.2813,780.1406 Q822.2813,778.7188 822.6719,777.5469 Q823.0781,776.3594 823.8594,775.4844 Q824.6406,774.6094 825.7813,774.1406 Q826.9219,773.6563 828.3906,773.6563 Q829.3438,773.6563 830.2344,773.8594 Q831.1406,774.0469 832.0781,774.5156 L831.25,776.2969 Q830.4688,775.9219 829.8125,775.7344 Q829.1563,775.5313 828.3594,775.5313 Z " fill="#000000"/><text fill="#000000" font-family="sans-serif" font-size="14" lengthAdjust="spacing" textLength="150" x="848.75" y="785.432">VfCmdEventItemEntity</text><line style="stroke:#181818;stroke-width:0.5;" x1="720" x2="1095" y1="796" y2="796"/><rect fill="none" height="6" style="stroke:#C82930;stroke-width:1.0;" width="6" x="727" y="808.034"/><text fill="#000000" font-family="sans-serif" font-size="14" lengthAdjust="spacing" textLength="351" x="739" y="814.9659">QHash&lt;QString, SafeDeleteSet&gt; m_componentItems</text><line style="stroke:#181818;stroke-width:0.5;" x1="720" x2="1095" y1="823.0679" y2="823.0679"/><text fill="#000000" font-family="sans-serif" font-size="14" lengthAdjust="spacing" textLength="210" x="725" y="842.0339">void processCommandEvent(...)</text><text fill="#000000" font-family="sans-serif" font-size="14" lengthAdjust="spacing" textLength="275" x="725" y="861.1018">void processErrorCommandEventData(...)</text><text fill="#000000" font-family="sans-serif" font-size="14" lengthAdjust="spacing" textLength="340" x="725" y="880.1697">void addItem(VfCmdEventItemComponentPtr item)</text><text fill="#000000" font-family="sans-serif" font-size="14" lengthAdjust="spacing" textLength="364" x="725" y="899.2376">void removeItem(VfCmdEventItemComponentPtr item)</text></g><g id="elem_GMN18"><path d="M697.5,609 L697.5,654.412 A0,0 0 0 0 697.5,654.412 L933.86,654.412 L919.39,763.85 L941.86,654.412 L1185.5,654.412 A0,0 0 0 0 1185.5,654.412 L1185.5,619 L1175.5,609 L697.5,609 A0,0 0 0 0 697.5,609 " fill="#FEFFDD" style="stroke:#181818;stroke-width:0.5;"/><path d="M1175.5,609 L1175.5,619 L1185.5,619 L1175.5,609 " fill="#FEFFDD" style="stroke:#181818;stroke-width:0.5;"/><text fill="#000000" font-family="sans-serif" font-size="13" lengthAdjust="spacing" textLength="467" x="703.5" y="627.897">Filter incoming command-events/error-event-data for component-(error-)data</text><text fill="#000000" font-family="sans-serif" font-size="13" lengthAdjust="spacing" textLength="348" x="703.5" y="645.603">and distribute them to VfCmdEventItemComponent items</text></g><!--class VfCmdEventItemComponent--><g id="elem_VfCmdEventItemComponent"><rect codeLine="58" fill="#F1F1F1" height="105.2038" id="VfCmdEventItemComponent" rx="2.5" ry="2.5" style="stroke:#181818;stroke-width:0.5;" width="533" x="641" y="986"/><ellipse cx="815.75" cy="1002" fill="#A9DCDF" rx="11" ry="11" style="stroke:#181818;stroke-width:1.0;"/><path d="M819.0938,1007.25 L817.625,1003.5 L813.1875,1003.5 L811.75,1007.25 L809.625,1007.25 L814.5781,994.5313 L816.3281,994.5313 L821.25,1007.25 L819.0938,1007.25 Z M815.75,998.2969 Q815.7031,998.1406 815.5781,997.7813 Q815.4531,997.4219 815.3438,997.0469 Q815.2344,996.6563 815.4375,996.5938 Q815.5938,996.7813 815.5,997.1406 Q815.4063,997.4844 815.3125,997.7813 Q815.2188,998.0625 815.1406,998.2969 L813.9063,1001.6094 L816.9844,1001.6094 L815.75,998.2969 Z " fill="#000000"/><text fill="#000000" font-family="sans-serif" font-size="14" font-style="italic" lengthAdjust="spacing" textLength="175" x="836.25" y="1007.432">VfCmdEventItemComponent</text><line style="stroke:#181818;stroke-width:0.5;" x1="642" x2="1173" y1="1018" y2="1018"/><line style="stroke:#181818;stroke-width:0.5;" x1="642" x2="1173" y1="1026" y2="1026"/><text fill="#000000" font-family="sans-serif" font-size="14" font-style="italic" lengthAdjust="spacing" textLength="436" x="647" y="1044.9659">void processComponentEventData(ComponentData *componentData)</text><text fill="#000000" font-family="sans-serif" font-size="14" font-style="italic" lengthAdjust="spacing" textLength="521" x="647" y="1064.0339">void processErrorComponentEventData(ComponentData *originalComponentData)</text><text fill="#000000" font-family="sans-serif" font-size="14" lengthAdjust="spacing" textLength="272" x="647" y="1083.1018">VfCmdEventItemEntityPtr getEntityItem()</text></g><!--class VfClientComponentFetcher--><g id="elem_VfClientComponentFetcher"><rect codeLine="64" fill="#F1F1F1" height="86.1358" id="VfClientComponentFetcher" rx="2.5" ry="2.5" style="stroke:#181818;stroke-width:0.5;" width="296" x="428.5" y="1152"/><ellipse cx="482.25" cy="1168" fill="#ADD1B2" rx="11" ry="11" style="stroke:#181818;stroke-width:1.0;"/><path d="M482.3594,1163.5313 Q481.4375,1163.5313 480.7031,1163.8438 Q479.9844,1164.1563 479.4844,1164.75 Q478.9844,1165.3281 478.7031,1166.2031 Q478.4375,1167.0781 478.4375,1168.1719 Q478.4375,1169.6094 478.875,1170.6563 Q479.3281,1171.7031 480.1719,1172.25 Q481.0313,1172.7969 482.3438,1172.7969 Q483.125,1172.7969 483.8125,1172.6719 Q484.5156,1172.5313 485.5156,1172.2188 L485.5156,1174.0938 Q484.6563,1174.4219 483.8906,1174.5469 Q483.1406,1174.6719 482.125,1174.6719 Q480.2031,1174.6719 478.8906,1173.875 Q477.5938,1173.0625 476.9375,1171.5938 Q476.2813,1170.1094 476.2813,1168.1406 Q476.2813,1166.7188 476.6719,1165.5469 Q477.0781,1164.3594 477.8594,1163.4844 Q478.6406,1162.6094 479.7813,1162.1406 Q480.9219,1161.6563 482.3906,1161.6563 Q483.3438,1161.6563 484.2344,1161.8594 Q485.1406,1162.0469 486.0781,1162.5156 L485.25,1164.2969 Q484.4688,1163.9219 483.8125,1163.7344 Q483.1563,1163.5313 482.3594,1163.5313 Z " fill="#000000"/><text fill="#000000" font-family="sans-serif" font-size="14" lengthAdjust="spacing" textLength="180" x="502.75" y="1173.432">VfClientComponentFetcher</text><line style="stroke:#181818;stroke-width:0.5;" x1="429.5" x2="723.5" y1="1184" y2="1184"/><line style="stroke:#181818;stroke-width:0.5;" x1="429.5" x2="723.5" y1="1192" y2="1192"/><text fill="#000000" font-family="sans-serif" font-size="14" lengthAdjust="spacing" textLength="250" x="434.5" y="1210.9659">void processComponentEventData(...)</text><text fill="#000000" font-family="sans-serif" font-size="14" lengthAdjust="spacing" textLength="284" x="434.5" y="1230.0339">void processErrorComponentEventData(...)</text></g><!--class VfClientComponentSetter--><g id="elem_VfClientComponentSetter"><rect codeLine="70" fill="#F1F1F1" height="86.1358" id="VfClientComponentSetter" rx="2.5" ry="2.5" style="stroke:#181818;stroke-width:0.5;" width="296" x="759.5" y="1152"/><ellipse cx="818.25" cy="1168" fill="#ADD1B2" rx="11" ry="11" style="stroke:#181818;stroke-width:1.0;"/><path d="M818.3594,1163.5313 Q817.4375,1163.5313 816.7031,1163.8438 Q815.9844,1164.1563 815.4844,1164.75 Q814.9844,1165.3281 814.7031,1166.2031 Q814.4375,1167.0781 814.4375,1168.1719 Q814.4375,1169.6094 814.875,1170.6563 Q815.3281,1171.7031 816.1719,1172.25 Q817.0313,1172.7969 818.3438,1172.7969 Q819.125,1172.7969 819.8125,1172.6719 Q820.5156,1172.5313 821.5156,1172.2188 L821.5156,1174.0938 Q820.6563,1174.4219 819.8906,1174.5469 Q819.1406,1174.6719 818.125,1174.6719 Q816.2031,1174.6719 814.8906,1173.875 Q813.5938,1173.0625 812.9375,1171.5938 Q812.2813,1170.1094 812.2813,1168.1406 Q812.2813,1166.7188 812.6719,1165.5469 Q813.0781,1164.3594 813.8594,1163.4844 Q814.6406,1162.6094 815.7813,1162.1406 Q816.9219,1161.6563 818.3906,1161.6563 Q819.3438,1161.6563 820.2344,1161.8594 Q821.1406,1162.0469 822.0781,1162.5156 L821.25,1164.2969 Q820.4688,1163.9219 819.8125,1163.7344 Q819.1563,1163.5313 818.3594,1163.5313 Z " fill="#000000"/><text fill="#000000" font-family="sans-serif" font-size="14" lengthAdjust="spacing" textLength="170" x="838.75" y="1173.432">VfClientComponentSetter</text><line style="stroke:#181818;stroke-width:0.5;" x1="760.5" x2="1054.5" y1="1184" y2="1184"/><line style="stroke:#181818;stroke-width:0.5;" x1="760.5" x2="1054.5" y1="1192" y2="1192"/><text fill="#000000" font-family="sans-serif" font-size="14" lengthAdjust="spacing" textLength="250" x="765.5" y="1210.9659">void processComponentEventData(...)</text><text fill="#000000" font-family="sans-serif" font-size="14" lengthAdjust="spacing" textLength="284" x="765.5" y="1230.0339">void processErrorComponentEventData(...)</text></g><!--class VfComponentChangeNotifier--><g id="elem_VfComponentChangeNotifier"><rect codeLine="76" fill="#F1F1F1" height="86.1358" id="VfComponentChangeNotifier" rx="2.5" ry="2.5" style="stroke:#181818;stroke-width:0.5;" width="296" x="1090.5" y="1152"/><ellipse cx="1137.25" cy="1168" fill="#ADD1B2" rx="11" ry="11" style="stroke:#181818;stroke-width:1.0;"/><path d="M1137.3594,1163.5313 Q1136.4375,1163.5313 1135.7031,1163.8438 Q1134.9844,1164.1563 1134.4844,1164.75 Q1133.9844,1165.3281 1133.7031,1166.2031 Q1133.4375,1167.0781 1133.4375,1168.1719 Q1133.4375,1169.6094 1133.875,1170.6563 Q1134.3281,1171.7031 1135.1719,1172.25 Q1136.0313,1172.7969 1137.3438,1172.7969 Q1138.125,1172.7969 1138.8125,1172.6719 Q1139.5156,1172.5313 1140.5156,1172.2188 L1140.5156,1174.0938 Q1139.6563,1174.4219 1138.8906,1174.5469 Q1138.1406,1174.6719 1137.125,1174.6719 Q1135.2031,1174.6719 1133.8906,1173.875 Q1132.5938,1173.0625 1131.9375,1171.5938 Q1131.2813,1170.1094 1131.2813,1168.1406 Q1131.2813,1166.7188 1131.6719,1165.5469 Q1132.0781,1164.3594 1132.8594,1163.4844 Q1133.6406,1162.6094 1134.7813,1162.1406 Q1135.9219,1161.6563 1137.3906,1161.6563 Q1138.3438,1161.6563 1139.2344,1161.8594 Q1140.1406,1162.0469 1141.0781,1162.5156 L1140.25,1164.2969 Q1139.4688,1163.9219 1138.8125,1163.7344 Q1138.1563,1163.5313 1137.3594,1163.5313 Z " fill="#000000"/><text fill="#000000" font-family="sans-serif" font-size="14" lengthAdjust="spacing" textLength="194" x="1157.75" y="1173.432">VfComponentChangeNotifier</text><line style="stroke:#181818;stroke-width:0.5;" x1="1091.5" x2="1385.5" y1="1184" y2="1184"/><line style="stroke:#181818;stroke-width:0.5;" x1="1091.5" x2="1385.5" y1="1192" y2="1192"/><text fill="#000000" font-family="sans-serif" font-size="14" lengthAdjust="spacing" textLength="246" x="1096.5" y="1210.9659">void processComponentEventData(..)</text><text fill="#000000" font-family="sans-serif" font-size="14" lengthAdjust="spacing" textLength="284" x="1096.5" y="1230.0339">void processErrorComponentEventData(...)</text></g><!--reverse link EventSystem to VfCmdEventHandlerSystem--><g id="link_EventSystem_VfCmdEventHandlerSystem"><path codeLine="2" d="M459.95,106.83 C478.66,121.88 499.02,138.24 518.09,153.57 " fill="none" id="EventSystem-backto-VfCmdEventHandlerSystem" style="stroke:#181818;stroke-width:1.0;"/><polygon fill="none" points="455.68,112.38,444.48,94.4,464.45,101.47,455.68,112.38" style="stroke:#181818;stroke-width:1.0;"/></g><!--reverse link VfCmdEventHandlerSystem to VfCmdEventHandler--><g id="link_VfCmdEventHandlerSystem_VfCmdEventHandler"><path codeLine="15" d="M590.36,292.71 C589.2,313.81 587.96,336.47 586.86,356.63 " fill="none" id="VfCmdEventHandlerSystem-backto-VfCmdEventHandler" style="stroke:#181818;stroke-width:1.0;"/><polygon fill="#181818" points="591.06,279.91,586.7365,285.6813,590.4009,291.8919,594.7244,286.1206,591.06,279.91" style="stroke:#181818;stroke-width:1.0;"/><polygon fill="#000000" points="594.2266,322.8455,597.6557,313.9747,591.7866,313.6533,594.2266,322.8455" style="stroke:#000000;stroke-width:1.0;"/><text fill="#000000" font-family="sans-serif" font-size="13" lengthAdjust="spacing" textLength="32" x="603.5" y="322.897">owns</text><text fill="#000000" font-family="sans-serif" font-size="13" lengthAdjust="spacing" textLength="7" x="579.8438" y="345.3578">1</text></g><!--reverse link VfCmdEventHandler to VfCmdEventItem--><g id="link_VfCmdEventHandler_VfCmdEventItem"><path codeLine="16" d="M532.73,493.2 C517.78,514.76 501.45,538.3 486.6,559.7 " fill="none" id="VfCmdEventHandler-backto-VfCmdEventItem" style="stroke:#181818;stroke-width:1.0;"/><polygon fill="none" points="540.02,482.69,533.3132,485.3393,533.1792,492.5492,539.886,489.8999,540.02,482.69" style="stroke:#181818;stroke-width:1.0;"/><polygon fill="#000000" points="521.6501,524.9613,529.2204,519.2044,524.3908,515.8542,521.6501,524.9613" style="stroke:#000000;stroke-width:1.0;"/><text fill="#000000" font-family="sans-serif" font-size="13" lengthAdjust="spacing" textLength="101" x="533.5" y="525.897">has shared items</text><text fill="#000000" font-family="sans-serif" font-size="13" lengthAdjust="spacing" textLength="20" x="470.6322" y="548.335">0..*</text></g><!--reverse link EventSystem to VfCmdEventItem--><g id="link_EventSystem_VfCmdEventItem"><path codeLine="26" d="M392.17,99.25 C395.21,178.91 402.64,342.84 416.5,481 C419.08,506.69 422.78,534.74 426.36,559.54 " fill="none" id="EventSystem-backto-VfCmdEventItem" style="stroke:#181818;stroke-width:1.0;"/><polygon fill="#181818" points="392,94.72,388.3368,103.8623,392.1856,99.7166,396.3313,103.5653,392,94.72" style="stroke:#181818;stroke-width:1.0;"/><text fill="#000000" font-family="sans-serif" font-size="13" lengthAdjust="spacing" textLength="131" x="405.5" y="322.897">for emit sigSendEvent</text></g><!--reverse link VfCmdEventItem to VfClientEntitySubscriber--><g id="link_VfCmdEventItem_VfClientEntitySubscriber"><path codeLine="35" d="M319.17,715.79 C281.76,742.11 242,770.1 210.49,792.28 " fill="none" id="VfCmdEventItem-backto-VfClientEntitySubscriber" style="stroke:#181818;stroke-width:1.0;"/><polygon fill="none" points="315.1,710.09,335.48,704.3,323.15,721.54,315.1,710.09" style="stroke:#181818;stroke-width:1.0;"/></g><!--reverse link VfCmdEventItem to VfClientEntityUnsubscriber--><g id="link_VfCmdEventItem_VfClientEntityUnsubscriber"><path codeLine="41" d="M453.43,724.41 C457.53,748.12 461.76,772.51 465.18,792.28 " fill="none" id="VfCmdEventItem-backto-VfClientEntityUnsubscriber" style="stroke:#181818;stroke-width:1.0;"/><polygon fill="none" points="446.57,725.83,450.05,704.92,460.36,723.44,446.57,725.83" style="stroke:#181818;stroke-width:1.0;"/></g><!--reverse link VfCmdEventItem to VfCmdEventItemEntity--><g id="link_VfCmdEventItem_VfCmdEventItemEntity"><path codeLine="55" d="M622.16,711.86 C661.85,728.92 703.56,746.85 742.46,763.57 " fill="none" id="VfCmdEventItem-backto-VfCmdEventItemEntity" style="stroke:#181818;stroke-width:1.0;"/><polygon fill="none" points="619.54,718.36,603.93,704.03,625.07,705.5,619.54,718.36" style="stroke:#181818;stroke-width:1.0;"/></g><!--reverse link VfCmdEventItemEntity to VfCmdEventItemComponent--><g id="link_VfCmdEventItemEntity_VfCmdEventItemComponent"><path codeLine="57" d="M907.5,921.8 C907.5,943.48 907.5,966.13 907.5,985.59 " fill="none" id="VfCmdEventItemEntity-backto-VfCmdEventItemComponent" style="stroke:#181818;stroke-width:1.0;"/><polygon fill="none" points="907.5,908.88,903.5,914.88,907.5,920.88,911.5,914.88,907.5,908.88" style="stroke:#181818;stroke-width:1.0;"/><polygon fill="#000000" points="912.5,951.853,915.4389,942.8079,909.5611,942.8079,912.5,951.853" style="stroke:#000000;stroke-width:1.0;"/><text fill="#000000" font-family="sans-serif" font-size="13" lengthAdjust="spacing" textLength="174" x="921.5" y="951.897">has shared component items</text><text fill="#000000" font-family="sans-serif" font-size="13" lengthAdjust="spacing" textLength="20" x="886.1563" y="974.2688">0..*</text></g><!--reverse link VfCmdEventItemComponent to VfClientComponentFetcher--><g id="link_VfCmdEventItemComponent_VfClientComponentFetcher"><path codeLine="68" d="M776.9,1100.46 C740.3,1117.55 701.3,1135.75 667.54,1151.51 " fill="none" id="VfCmdEventItemComponent-backto-VfClientComponentFetcher" style="stroke:#181818;stroke-width:1.0;"/><polygon fill="none" points="773.91,1094.13,794.99,1092.02,779.83,1106.82,773.91,1094.13" style="stroke:#181818;stroke-width:1.0;"/></g><!--reverse link VfCmdEventItemComponent to VfClientComponentSetter--><g id="link_VfCmdEventItemComponent_VfClientComponentSetter"><path codeLine="74" d="M907.5,1112.65 C907.5,1125.97 907.5,1139.45 907.5,1151.51 " fill="none" id="VfCmdEventItemComponent-backto-VfClientComponentSetter" style="stroke:#181818;stroke-width:1.0;"/><polygon fill="none" points="900.5,1112.89,907.5,1092.89,914.5,1112.89,900.5,1112.89" style="stroke:#181818;stroke-width:1.0;"/></g><!--reverse link VfCmdEventItemComponent to VfComponentChangeNotifier--><g id="link_VfCmdEventItemComponent_VfComponentChangeNotifier"><path codeLine="80" d="M1038.1,1100.46 C1074.7,1117.55 1113.7,1135.75 1147.46,1151.51 " fill="none" id="VfCmdEventItemComponent-backto-VfComponentChangeNotifier" style="stroke:#181818;stroke-width:1.0;"/><polygon fill="none" points="1035.17,1106.82,1020.01,1092.02,1041.09,1094.13,1035.17,1106.82" style="stroke:#181818;stroke-width:1.0;"/></g><!--SRC=[nLPPRzf047xthnZboQ2Q1XBrG55KbQCXXJQfGvuYHHjxmIlPksXtJHGb-U-TjS47s42h7dwnTtQERsPdllLWIRbsdvIc4PozE0xSpdgHFp3I2yBzaCfqqo8FIalYQV12eXGC2dRF5k2Zs9oJ49Q2-URRfJnrOrydBsXIyseakizhRw-f_a8AZofLgVzgMMd86cIhy7lzP4h4zqTeP-V-pF9AIs3uBYXA6eabtQlhR063wDuJKKHuIMeogSkXYPK_QXzjvmXT48zSmVcsAGXZTDngDOjs1XyQ1KI12eYaVeBKEAWhu_yluFK5KS4Pu_eDk6H6-pIachfKdsCX4_HOEYuq1SdcWGOnsqwY2qCMQao6SImzutD8qIkO2GasMhCPyuXcWZTWTJWEJJKUcGxkU4Iq5nX3b37z1AC-e0xu33kLFSGONGTOMYqsYvqYj8eJSLOQ9AFLJN3GYEdIS6oErORhmiaegWiHxC9t4sY-I2kAfOGv6YIPZ7nxvzJr2grg5nVGz5PWTa-jb48MxVf44plxWgR0OsF83PbeTUob7ABxGXRbKHaLoIbaA4aJS-C7vU7Pu6XbrQlShkZmKjAjLgknFGELQIMg1w6RShKRNr7XBo2iQgWqy9yEjeSOq6WXE2v-XI5gZ5PKSUtYJF9v1LruQxjHaJUqM9HP8o_6Dd6KsU4jDOcd2ySt_Mm6EGlZsEb-mspTyOCO8yjjHHsLP-J42-VbVCFIgjQjlGZoIAKRmIi3mBjX9mtbNfxty4YgbhT79ag9m2ik3-AKFGxNpDBRTbnLADDBEIsQfYjFIZAScQyXnGkXRZGtWUsScKhbLwisOkNPPrgrW744z3_5kmfuCDorg1SGFgVVaZlvSC2_WxScuZx4d_1-Zd7QhaB2zNGoXYML2dyTeDtg77TEMk_jeMGm8K_Gxa3xOxTpqZtjG6_Wte3PRrZs-ClL69I8fKTpGZ0_7zObMHBu4MCFHhGBtnUKN_Q_hWKmu4ic1OyCZClRIQxmxjJvZ3yFBfM81MudLf_EI1ngjF24ZxpLXUdDqFbWZJ7JcCpHD-LMJw1VYIGtTNy2]--></g></svg>