<?xml version="1.0" encoding="us-ascii" standalone="no"?><svg xmlns="http://www.w3.org/2000/svg" xmlns:xlink="http://www.w3.org/1999/xlink" contentStyleType="text/css" height="1407px" preserveAspectRatio="none" style="width:1519px;height:1407px;background:#FFFFFF;" version="1.1" viewBox="0 0 1519 1407" width="1519px" zoomAndPan="magnify"><defs/><g><!--cluster vein-framework interface--><g id="cluster_vein-framework interface"><rect fill="none" height="325" rx="2.5" ry="2.5" style="stroke:#181818;stroke-width:1.0;" width="374" x="360" y="7"/><path d="M549.0625,7 L549.0625,19.0679 L539.0625,29.0679 L360,29.0679 " fill="none" style="stroke:#181818;stroke-width:1.0;"/><text fill="#000000" font-family="sans-serif" font-size="14" font-weight="bold" lengthAdjust="spacing" textLength="179.0625" x="363" y="22.9659">vein-framework interface</text></g><!--cluster Entity event filtering & distibution--><g id="cluster_Entity event filtering &amp; distibution"><rect fill="none" height="585" rx="2.5" ry="2.5" style="stroke:#181818;stroke-width:1.0;" width="1144" x="7" y="383"/><path d="M259,383 L259,395.0679 L249,405.0679 L7,405.0679 " fill="none" style="stroke:#181818;stroke-width:1.0;"/><text fill="#000000" font-family="sans-serif" font-size="14" font-weight="bold" lengthAdjust="spacing" textLength="242" x="10" y="398.9659">Entity event filtering &amp; distibution</text></g><!--cluster Component-data filtering & distibution--><g id="cluster_Component-data filtering &amp; distibution"><rect fill="none" height="382" rx="2.5" ry="2.5" style="stroke:#181818;stroke-width:1.0;" width="1173" x="340" y="1019"/><path d="M627.3125,1019 L627.3125,1031.0679 L617.3125,1041.0679 L340,1041.0679 " fill="none" style="stroke:#181818;stroke-width:1.0;"/><text fill="#000000" font-family="sans-serif" font-size="14" font-weight="bold" lengthAdjust="spacing" textLength="277.3125" x="343" y="1034.9659">Component-data filtering &amp; distibution</text></g><!--class EventSystem--><g id="elem_EventSystem"><rect codeLine="3" fill="#F1F1F1" height="86.1358" id="EventSystem" rx="2.5" ry="2.5" style="stroke:#181818;stroke-width:0.5;" width="285" x="404.5" y="45"/><ellipse cx="503.75" cy="61" fill="#A9DCDF" rx="11" ry="11" style="stroke:#181818;stroke-width:1.0;"/><path d="M507.0938,66.25 L505.625,62.5 L501.1875,62.5 L499.75,66.25 L497.625,66.25 L502.5781,53.5313 L504.3281,53.5313 L509.25,66.25 L507.0938,66.25 Z M503.75,57.2969 Q503.7031,57.1406 503.5781,56.7813 Q503.4531,56.4219 503.3438,56.0469 Q503.2344,55.6563 503.4375,55.5938 Q503.5938,55.7813 503.5,56.1406 Q503.4063,56.4844 503.3125,56.7813 Q503.2188,57.0625 503.1406,57.2969 L501.9063,60.6094 L504.9844,60.6094 L503.75,57.2969 Z " fill="#000000"/><text fill="#000000" font-family="sans-serif" font-size="14" font-style="italic" lengthAdjust="spacing" textLength="78" x="524.25" y="66.432">EventSystem</text><line style="stroke:#181818;stroke-width:0.5;" x1="405.5" x2="688.5" y1="77" y2="77"/><line style="stroke:#181818;stroke-width:0.5;" x1="405.5" x2="688.5" y1="85" y2="85"/><text fill="#000000" font-family="sans-serif" font-size="14" lengthAdjust="spacing" textLength="273" x="410.5" y="103.9659">signal void sigSendEvent(QEvent *event)</text><text fill="#000000" font-family="sans-serif" font-size="14" font-style="italic" lengthAdjust="spacing" textLength="210" x="410.5" y="123.0339">void processEvent(QEvent *event)</text></g><!--class VfCmdEventHandlerSystem--><g id="elem_VfCmdEventHandlerSystem"><rect codeLine="8" fill="#F1F1F1" height="124.2717" id="VfCmdEventHandlerSystem" rx="2.5" ry="2.5" style="stroke:#181818;stroke-width:0.5;" width="342" x="376" y="192"/><ellipse cx="451.25" cy="208" fill="#ADD1B2" rx="11" ry="11" style="stroke:#181818;stroke-width:1.0;"/><path d="M451.3594,203.5313 Q450.4375,203.5313 449.7031,203.8438 Q448.9844,204.1563 448.4844,204.75 Q447.9844,205.3281 447.7031,206.2031 Q447.4375,207.0781 447.4375,208.1719 Q447.4375,209.6094 447.875,210.6563 Q448.3281,211.7031 449.1719,212.25 Q450.0313,212.7969 451.3438,212.7969 Q452.125,212.7969 452.8125,212.6719 Q453.5156,212.5313 454.5156,212.2188 L454.5156,214.0938 Q453.6563,214.4219 452.8906,214.5469 Q452.1406,214.6719 451.125,214.6719 Q449.2031,214.6719 447.8906,213.875 Q446.5938,213.0625 445.9375,211.5938 Q445.2813,210.1094 445.2813,208.1406 Q445.2813,206.7188 445.6719,205.5469 Q446.0781,204.3594 446.8594,203.4844 Q447.6406,202.6094 448.7813,202.1406 Q449.9219,201.6563 451.3906,201.6563 Q452.3438,201.6563 453.2344,201.8594 Q454.1406,202.0469 455.0781,202.5156 L454.25,204.2969 Q453.4688,203.9219 452.8125,203.7344 Q452.1563,203.5313 451.3594,203.5313 Z " fill="#000000"/><text fill="#000000" font-family="sans-serif" font-size="14" lengthAdjust="spacing" textLength="183" x="471.75" y="213.432">VfCmdEventHandlerSystem</text><line style="stroke:#181818;stroke-width:0.5;" x1="377" x2="717" y1="224" y2="224"/><rect fill="none" height="6" style="stroke:#C82930;stroke-width:1.0;" width="6" x="384" y="236.034"/><text fill="#000000" font-family="sans-serif" font-size="14" lengthAdjust="spacing" textLength="316" x="396" y="242.9659">VfCmdEventHandler m_commandEventHandler</text><line style="stroke:#181818;stroke-width:0.5;" x1="377" x2="717" y1="251.0679" y2="251.0679"/><text fill="#000000" font-family="sans-serif" font-size="14" lengthAdjust="spacing" textLength="141" x="382" y="270.0339">void processEvent(...)</text><text fill="#000000" font-family="sans-serif" font-size="14" lengthAdjust="spacing" textLength="262" x="382" y="289.1018">void addItem(VfCmdEventItemPtr item)</text><text fill="#000000" font-family="sans-serif" font-size="14" lengthAdjust="spacing" textLength="286" x="382" y="308.1697">void removeItem(VfCmdEventItemPtr item)</text></g><!--class VfCmdEventHandler--><g id="elem_VfCmdEventHandler"><rect codeLine="18" fill="#F1F1F1" height="124.2717" id="VfCmdEventHandler" rx="2.5" ry="2.5" style="stroke:#181818;stroke-width:0.5;" width="305" x="394.5" y="421"/><ellipse cx="475.25" cy="437" fill="#ADD1B2" rx="11" ry="11" style="stroke:#181818;stroke-width:1.0;"/><path d="M475.3594,432.5313 Q474.4375,432.5313 473.7031,432.8438 Q472.9844,433.1563 472.4844,433.75 Q471.9844,434.3281 471.7031,435.2031 Q471.4375,436.0781 471.4375,437.1719 Q471.4375,438.6094 471.875,439.6563 Q472.3281,440.7031 473.1719,441.25 Q474.0313,441.7969 475.3438,441.7969 Q476.125,441.7969 476.8125,441.6719 Q477.5156,441.5313 478.5156,441.2188 L478.5156,443.0938 Q477.6563,443.4219 476.8906,443.5469 Q476.1406,443.6719 475.125,443.6719 Q473.2031,443.6719 471.8906,442.875 Q470.5938,442.0625 469.9375,440.5938 Q469.2813,439.1094 469.2813,437.1406 Q469.2813,435.7188 469.6719,434.5469 Q470.0781,433.3594 470.8594,432.4844 Q471.6406,431.6094 472.7813,431.1406 Q473.9219,430.6563 475.3906,430.6563 Q476.3438,430.6563 477.2344,430.8594 Q478.1406,431.0469 479.0781,431.5156 L478.25,433.2969 Q477.4688,432.9219 476.8125,432.7344 Q476.1563,432.5313 475.3594,432.5313 Z " fill="#000000"/><text fill="#000000" font-family="sans-serif" font-size="14" lengthAdjust="spacing" textLength="135" x="495.75" y="442.432">VfCmdEventHandler</text><line style="stroke:#181818;stroke-width:0.5;" x1="395.5" x2="698.5" y1="453" y2="453"/><rect fill="none" height="6" style="stroke:#C82930;stroke-width:1.0;" width="6" x="402.5" y="465.034"/><text fill="#000000" font-family="sans-serif" font-size="14" lengthAdjust="spacing" textLength="279" x="414.5" y="471.9659">QHash&lt;int, SafeDeleteSet&gt; m_entityItems</text><line style="stroke:#181818;stroke-width:0.5;" x1="395.5" x2="698.5" y1="480.0679" y2="480.0679"/><text fill="#000000" font-family="sans-serif" font-size="14" lengthAdjust="spacing" textLength="226" x="400.5" y="499.0339">void processEvent(QEvent *event)</text><text fill="#000000" font-family="sans-serif" font-size="14" lengthAdjust="spacing" textLength="262" x="400.5" y="518.1018">void addItem(VfCmdEventItemPtr item)</text><text fill="#000000" font-family="sans-serif" font-size="14" lengthAdjust="spacing" textLength="286" x="400.5" y="537.1697">void removeItem(VfCmdEventItemPtr item)</text></g><g id="elem_GMN7"><path d="M735,451.5 L735,479 L699.95,483 L735,487 L735,514.618 A0,0 0 0 0 735,514.618 L1037,514.618 A0,0 0 0 0 1037,514.618 L1037,461.5 L1027,451.5 L735,451.5 A0,0 0 0 0 735,451.5 " fill="#FEFFDD" style="stroke:#181818;stroke-width:0.5;"/><path d="M1027,451.5 L1027,461.5 L1037,461.5 L1027,451.5 " fill="#FEFFDD" style="stroke:#181818;stroke-width:0.5;"/><text fill="#000000" font-family="sans-serif" font-size="13" lengthAdjust="spacing" textLength="249" x="741" y="470.397">Filter (notification) command-events from</text><text fill="#000000" font-family="sans-serif" font-size="13" lengthAdjust="spacing" textLength="247" x="741" y="488.103">incoming QEvents and distribute them to</text><text fill="#000000" font-family="sans-serif" font-size="13" lengthAdjust="spacing" textLength="281" x="741" y="505.809">VfCmdEventItem items with matching entity ID</text></g><!--class VfEntityEventItem--><g id="elem_VfEntityEventItem"><rect codeLine="26" fill="#F1F1F1" height="124.2717" id="VfEntityEventItem" rx="2.5" ry="2.5" style="stroke:#181818;stroke-width:0.5;" width="449" x="322.5" y="624"/><ellipse cx="487.25" cy="640" fill="#A9DCDF" rx="11" ry="11" style="stroke:#181818;stroke-width:1.0;"/><path d="M490.5938,645.25 L489.125,641.5 L484.6875,641.5 L483.25,645.25 L481.125,645.25 L486.0781,632.5313 L487.8281,632.5313 L492.75,645.25 L490.5938,645.25 Z M487.25,636.2969 Q487.2031,636.1406 487.0781,635.7813 Q486.9531,635.4219 486.8438,635.0469 Q486.7344,634.6563 486.9375,634.5938 Q487.0938,634.7813 487,635.1406 Q486.9063,635.4844 486.8125,635.7813 Q486.7188,636.0625 486.6406,636.2969 L485.4063,639.6094 L488.4844,639.6094 L487.25,636.2969 Z " fill="#000000"/><text fill="#000000" font-family="sans-serif" font-size="14" font-style="italic" lengthAdjust="spacing" textLength="111" x="507.75" y="645.432">VfEntityEventItem</text><line style="stroke:#181818;stroke-width:0.5;" x1="323.5" x2="770.5" y1="656" y2="656"/><line style="stroke:#181818;stroke-width:0.5;" x1="323.5" x2="770.5" y1="664" y2="664"/><text fill="#000000" font-family="sans-serif" font-size="14" lengthAdjust="spacing" textLength="104" x="328.5" y="682.9659">int getEntityId()</text><text fill="#000000" font-family="sans-serif" font-size="14" lengthAdjust="spacing" textLength="207" x="328.5" y="702.0339">void sendEvent(QEvent *event)</text><text fill="#000000" font-family="sans-serif" font-size="14" font-style="italic" lengthAdjust="spacing" textLength="354" x="328.5" y="721.1018">void processCommandEvent(CommandEvent *cmdEvent)</text><text fill="#000000" font-family="sans-serif" font-size="14" font-style="italic" lengthAdjust="spacing" textLength="437" x="328.5" y="740.1697">void processErrorCommandEventData(EventData *originalEventData)</text></g><!--class VfClientEntitySubscriber--><g id="elem_VfClientEntitySubscriber"><rect codeLine="33" fill="#F1F1F1" height="124.2717" id="VfClientEntitySubscriber" rx="2.5" ry="2.5" style="stroke:#181818;stroke-width:0.5;" width="323" x="23.5" y="818.5"/><ellipse cx="99.25" cy="834.5" fill="#ADD1B2" rx="11" ry="11" style="stroke:#181818;stroke-width:1.0;"/><path d="M99.3594,830.0313 Q98.4375,830.0313 97.7031,830.3438 Q96.9844,830.6563 96.4844,831.25 Q95.9844,831.8281 95.7031,832.7031 Q95.4375,833.5781 95.4375,834.6719 Q95.4375,836.1094 95.875,837.1563 Q96.3281,838.2031 97.1719,838.75 Q98.0313,839.2969 99.3438,839.2969 Q100.125,839.2969 100.8125,839.1719 Q101.5156,839.0313 102.5156,838.7188 L102.5156,840.5938 Q101.6563,840.9219 100.8906,841.0469 Q100.1406,841.1719 99.125,841.1719 Q97.2031,841.1719 95.8906,840.375 Q94.5938,839.5625 93.9375,838.0938 Q93.2813,836.6094 93.2813,834.6406 Q93.2813,833.2188 93.6719,832.0469 Q94.0781,830.8594 94.8594,829.9844 Q95.6406,829.1094 96.7813,828.6406 Q97.9219,828.1563 99.3906,828.1563 Q100.3438,828.1563 101.2344,828.3594 Q102.1406,828.5469 103.0781,829.0156 L102.25,830.7969 Q101.4688,830.4219 100.8125,830.2344 Q100.1563,830.0313 99.3594,830.0313 Z " fill="#000000"/><text fill="#000000" font-family="sans-serif" font-size="14" lengthAdjust="spacing" textLength="163" x="119.75" y="839.932">VfClientEntitySubscriber</text><line style="stroke:#181818;stroke-width:0.5;" x1="24.5" x2="345.5" y1="850.5" y2="850.5"/><line style="stroke:#181818;stroke-width:0.5;" x1="24.5" x2="345.5" y1="858.5" y2="858.5"/><text fill="#000000" font-family="sans-serif" font-size="14" lengthAdjust="spacing" textLength="210" x="29.5" y="877.4659">void processCommandEvent(...)</text><text fill="#000000" font-family="sans-serif" font-size="14" lengthAdjust="spacing" textLength="275" x="29.5" y="896.5339">void processErrorCommandEventData(...)</text><text fill="#000000" font-family="sans-serif" font-size="14" lengthAdjust="spacing" textLength="158" x="29.5" y="915.6018">void sendSubscription()</text><text fill="#000000" font-family="sans-serif" font-size="14" lengthAdjust="spacing" textLength="311" x="29.5" y="934.6697">signal void sigSubscribed(bool ok, int entityId)</text></g><!--class VfClientEntityUnsubscriber--><g id="elem_VfClientEntityUnsubscriber"><rect codeLine="40" fill="#F1F1F1" height="124.2717" id="VfClientEntityUnsubscriber" rx="2.5" ry="2.5" style="stroke:#181818;stroke-width:0.5;" width="341" x="381.5" y="818.5"/><ellipse cx="457.25" cy="834.5" fill="#ADD1B2" rx="11" ry="11" style="stroke:#181818;stroke-width:1.0;"/><path d="M457.3594,830.0313 Q456.4375,830.0313 455.7031,830.3438 Q454.9844,830.6563 454.4844,831.25 Q453.9844,831.8281 453.7031,832.7031 Q453.4375,833.5781 453.4375,834.6719 Q453.4375,836.1094 453.875,837.1563 Q454.3281,838.2031 455.1719,838.75 Q456.0313,839.2969 457.3438,839.2969 Q458.125,839.2969 458.8125,839.1719 Q459.5156,839.0313 460.5156,838.7188 L460.5156,840.5938 Q459.6563,840.9219 458.8906,841.0469 Q458.1406,841.1719 457.125,841.1719 Q455.2031,841.1719 453.8906,840.375 Q452.5938,839.5625 451.9375,838.0938 Q451.2813,836.6094 451.2813,834.6406 Q451.2813,833.2188 451.6719,832.0469 Q452.0781,830.8594 452.8594,829.9844 Q453.6406,829.1094 454.7813,828.6406 Q455.9219,828.1563 457.3906,828.1563 Q458.3438,828.1563 459.2344,828.3594 Q460.1406,828.5469 461.0781,829.0156 L460.25,830.7969 Q459.4688,830.4219 458.8125,830.2344 Q458.1563,830.0313 457.3594,830.0313 Z " fill="#000000"/><text fill="#000000" font-family="sans-serif" font-size="14" lengthAdjust="spacing" textLength="181" x="477.75" y="839.932">VfClientEntityUnsubscriber</text><line style="stroke:#181818;stroke-width:0.5;" x1="382.5" x2="721.5" y1="850.5" y2="850.5"/><line style="stroke:#181818;stroke-width:0.5;" x1="382.5" x2="721.5" y1="858.5" y2="858.5"/><text fill="#000000" font-family="sans-serif" font-size="14" lengthAdjust="spacing" textLength="210" x="387.5" y="877.4659">void processCommandEvent(...)</text><text fill="#000000" font-family="sans-serif" font-size="14" lengthAdjust="spacing" textLength="275" x="387.5" y="896.5339">void processErrorCommandEventData(...)</text><text fill="#000000" font-family="sans-serif" font-size="14" lengthAdjust="spacing" textLength="176" x="387.5" y="915.6018">void sendUnsubscription()</text><text fill="#000000" font-family="sans-serif" font-size="14" lengthAdjust="spacing" textLength="329" x="387.5" y="934.6697">signal void sigUnsubscribed(bool ok, int entityId)</text></g><!--class VfEntityComponentEventItem--><g id="elem_VfEntityComponentEventItem"><rect codeLine="47" fill="#F1F1F1" height="143.3396" id="VfEntityComponentEventItem" rx="2.5" ry="2.5" style="stroke:#181818;stroke-width:0.5;" width="377" x="757.5" y="809"/><ellipse cx="843.25" cy="825" fill="#ADD1B2" rx="11" ry="11" style="stroke:#181818;stroke-width:1.0;"/><path d="M843.3594,820.5313 Q842.4375,820.5313 841.7031,820.8438 Q840.9844,821.1563 840.4844,821.75 Q839.9844,822.3281 839.7031,823.2031 Q839.4375,824.0781 839.4375,825.1719 Q839.4375,826.6094 839.875,827.6563 Q840.3281,828.7031 841.1719,829.25 Q842.0313,829.7969 843.3438,829.7969 Q844.125,829.7969 844.8125,829.6719 Q845.5156,829.5313 846.5156,829.2188 L846.5156,831.0938 Q845.6563,831.4219 844.8906,831.5469 Q844.1406,831.6719 843.125,831.6719 Q841.2031,831.6719 839.8906,830.875 Q838.5938,830.0625 837.9375,828.5938 Q837.2813,827.1094 837.2813,825.1406 Q837.2813,823.7188 837.6719,822.5469 Q838.0781,821.3594 838.8594,820.4844 Q839.6406,819.6094 840.7813,819.1406 Q841.9219,818.6563 843.3906,818.6563 Q844.3438,818.6563 845.2344,818.8594 Q846.1406,819.0469 847.0781,819.5156 L846.25,821.2969 Q845.4688,820.9219 844.8125,820.7344 Q844.1563,820.5313 843.3594,820.5313 Z " fill="#000000"/><text fill="#000000" font-family="sans-serif" font-size="14" lengthAdjust="spacing" textLength="197" x="863.75" y="830.432">VfEntityComponentEventItem</text><line style="stroke:#181818;stroke-width:0.5;" x1="758.5" x2="1133.5" y1="841" y2="841"/><rect fill="none" height="6" style="stroke:#C82930;stroke-width:1.0;" width="6" x="765.5" y="853.034"/><text fill="#000000" font-family="sans-serif" font-size="14" lengthAdjust="spacing" textLength="351" x="777.5" y="859.9659">QHash&lt;QString, SafeDeleteSet&gt; m_componentItems</text><line style="stroke:#181818;stroke-width:0.5;" x1="758.5" x2="1133.5" y1="868.0679" y2="868.0679"/><text fill="#000000" font-family="sans-serif" font-size="14" lengthAdjust="spacing" textLength="210" x="763.5" y="887.0339">void processCommandEvent(...)</text><text fill="#000000" font-family="sans-serif" font-size="14" lengthAdjust="spacing" textLength="275" x="763.5" y="906.1018">void processErrorCommandEventData(...)</text><text fill="#000000" font-family="sans-serif" font-size="14" lengthAdjust="spacing" textLength="340" x="763.5" y="925.1697">void addItem(VfCmdEventItemComponentPtr item)</text><text fill="#000000" font-family="sans-serif" font-size="14" lengthAdjust="spacing" textLength="364" x="763.5" y="944.2376">void removeItem(VfCmdEventItemComponentPtr item)</text></g><g id="elem_GMN14"><path d="M807,663.5 L807,708.912 A0,0 0 0 0 807,708.912 L954.42,708.912 L951.15,808.69 L962.42,708.912 L1113,708.912 A0,0 0 0 0 1113,708.912 L1113,673.5 L1103,663.5 L807,663.5 A0,0 0 0 0 807,663.5 " fill="#FEFFDD" style="stroke:#181818;stroke-width:0.5;"/><path d="M1103,663.5 L1103,673.5 L1113,673.5 L1103,663.5 " fill="#FEFFDD" style="stroke:#181818;stroke-width:0.5;"/><text fill="#000000" font-family="sans-serif" font-size="13" lengthAdjust="spacing" textLength="267" x="813" y="682.397">Filter component-(error-)data from incoming</text><text fill="#000000" font-family="sans-serif" font-size="13" lengthAdjust="spacing" textLength="285" x="813" y="700.103">and distribute to VfComponentEventItem items</text></g><!--class VfComponentEventItem--><g id="elem_VfComponentEventItem"><rect codeLine="61" fill="#F1F1F1" height="143.3396" id="VfComponentEventItem" rx="2.5" ry="2.5" style="stroke:#181818;stroke-width:0.5;" width="533" x="679.5" y="1057"/><ellipse cx="868.25" cy="1073" fill="#A9DCDF" rx="11" ry="11" style="stroke:#181818;stroke-width:1.0;"/><path d="M871.5938,1078.25 L870.125,1074.5 L865.6875,1074.5 L864.25,1078.25 L862.125,1078.25 L867.0781,1065.5313 L868.8281,1065.5313 L873.75,1078.25 L871.5938,1078.25 Z M868.25,1069.2969 Q868.2031,1069.1406 868.0781,1068.7813 Q867.9531,1068.4219 867.8438,1068.0469 Q867.7344,1067.6563 867.9375,1067.5938 Q868.0938,1067.7813 868,1068.1406 Q867.9063,1068.4844 867.8125,1068.7813 Q867.7188,1069.0625 867.6406,1069.2969 L866.4063,1072.6094 L869.4844,1072.6094 L868.25,1069.2969 Z " fill="#000000"/><text fill="#000000" font-family="sans-serif" font-size="14" font-style="italic" lengthAdjust="spacing" textLength="147" x="888.75" y="1078.432">VfComponentEventItem</text><line style="stroke:#181818;stroke-width:0.5;" x1="680.5" x2="1211.5" y1="1089" y2="1089"/><line style="stroke:#181818;stroke-width:0.5;" x1="680.5" x2="1211.5" y1="1097" y2="1097"/><text fill="#000000" font-family="sans-serif" font-size="14" lengthAdjust="spacing" textLength="104" x="685.5" y="1115.9659">int getEntityId()</text><text fill="#000000" font-family="sans-serif" font-size="14" lengthAdjust="spacing" textLength="214" x="685.5" y="1135.0339">QString &amp;getComponentName()</text><text fill="#000000" font-family="sans-serif" font-size="14" lengthAdjust="spacing" textLength="207" x="685.5" y="1154.1018">void sendEvent(QEvent *event)</text><text fill="#000000" font-family="sans-serif" font-size="14" font-style="italic" lengthAdjust="spacing" textLength="436" x="685.5" y="1173.1697">void processComponentEventData(ComponentData *componentData)</text><text fill="#000000" font-family="sans-serif" font-size="14" font-style="italic" lengthAdjust="spacing" textLength="521" x="685.5" y="1192.2376">void processErrorComponentEventData(ComponentData *originalComponentData)</text></g><!--class VfClientComponentFetcher--><g id="elem_VfClientComponentFetcher"><rect codeLine="69" fill="#F1F1F1" height="124.2717" id="VfClientComponentFetcher" rx="2.5" ry="2.5" style="stroke:#181818;stroke-width:0.5;" width="335" x="356.5" y="1261"/><ellipse cx="429.75" cy="1277" fill="#ADD1B2" rx="11" ry="11" style="stroke:#181818;stroke-width:1.0;"/><path d="M429.8594,1272.5313 Q428.9375,1272.5313 428.2031,1272.8438 Q427.4844,1273.1563 426.9844,1273.75 Q426.4844,1274.3281 426.2031,1275.2031 Q425.9375,1276.0781 425.9375,1277.1719 Q425.9375,1278.6094 426.375,1279.6563 Q426.8281,1280.7031 427.6719,1281.25 Q428.5313,1281.7969 429.8438,1281.7969 Q430.625,1281.7969 431.3125,1281.6719 Q432.0156,1281.5313 433.0156,1281.2188 L433.0156,1283.0938 Q432.1563,1283.4219 431.3906,1283.5469 Q430.6406,1283.6719 429.625,1283.6719 Q427.7031,1283.6719 426.3906,1282.875 Q425.0938,1282.0625 424.4375,1280.5938 Q423.7813,1279.1094 423.7813,1277.1406 Q423.7813,1275.7188 424.1719,1274.5469 Q424.5781,1273.3594 425.3594,1272.4844 Q426.1406,1271.6094 427.2813,1271.1406 Q428.4219,1270.6563 429.8906,1270.6563 Q430.8438,1270.6563 431.7344,1270.8594 Q432.6406,1271.0469 433.5781,1271.5156 L432.75,1273.2969 Q431.9688,1272.9219 431.3125,1272.7344 Q430.6563,1272.5313 429.8594,1272.5313 Z " fill="#000000"/><text fill="#000000" font-family="sans-serif" font-size="14" lengthAdjust="spacing" textLength="180" x="450.25" y="1282.432">VfClientComponentFetcher</text><line style="stroke:#181818;stroke-width:0.5;" x1="357.5" x2="690.5" y1="1293" y2="1293"/><line style="stroke:#181818;stroke-width:0.5;" x1="357.5" x2="690.5" y1="1301" y2="1301"/><text fill="#000000" font-family="sans-serif" font-size="14" lengthAdjust="spacing" textLength="250" x="362.5" y="1319.9659">void processComponentEventData(...)</text><text fill="#000000" font-family="sans-serif" font-size="14" lengthAdjust="spacing" textLength="284" x="362.5" y="1339.0339">void processErrorComponentEventData(...)</text><text fill="#000000" font-family="sans-serif" font-size="14" lengthAdjust="spacing" textLength="172" x="362.5" y="1358.1018">void startGetComponent()</text><text fill="#000000" font-family="sans-serif" font-size="14" lengthAdjust="spacing" textLength="323" x="362.5" y="1377.1697">signal void sigGetFinish(bool ok, QVariant value)</text></g><!--class VfClientComponentSetter--><g id="elem_VfClientComponentSetter"><rect codeLine="76" fill="#F1F1F1" height="124.2717" id="VfClientComponentSetter" rx="2.5" ry="2.5" style="stroke:#181818;stroke-width:0.5;" width="439" x="726.5" y="1261"/><ellipse cx="856.75" cy="1277" fill="#ADD1B2" rx="11" ry="11" style="stroke:#181818;stroke-width:1.0;"/><path d="M856.8594,1272.5313 Q855.9375,1272.5313 855.2031,1272.8438 Q854.4844,1273.1563 853.9844,1273.75 Q853.4844,1274.3281 853.2031,1275.2031 Q852.9375,1276.0781 852.9375,1277.1719 Q852.9375,1278.6094 853.375,1279.6563 Q853.8281,1280.7031 854.6719,1281.25 Q855.5313,1281.7969 856.8438,1281.7969 Q857.625,1281.7969 858.3125,1281.6719 Q859.0156,1281.5313 860.0156,1281.2188 L860.0156,1283.0938 Q859.1563,1283.4219 858.3906,1283.5469 Q857.6406,1283.6719 856.625,1283.6719 Q854.7031,1283.6719 853.3906,1282.875 Q852.0938,1282.0625 851.4375,1280.5938 Q850.7813,1279.1094 850.7813,1277.1406 Q850.7813,1275.7188 851.1719,1274.5469 Q851.5781,1273.3594 852.3594,1272.4844 Q853.1406,1271.6094 854.2813,1271.1406 Q855.4219,1270.6563 856.8906,1270.6563 Q857.8438,1270.6563 858.7344,1270.8594 Q859.6406,1271.0469 860.5781,1271.5156 L859.75,1273.2969 Q858.9688,1272.9219 858.3125,1272.7344 Q857.6563,1272.5313 856.8594,1272.5313 Z " fill="#000000"/><text fill="#000000" font-family="sans-serif" font-size="14" lengthAdjust="spacing" textLength="170" x="877.25" y="1282.432">VfClientComponentSetter</text><line style="stroke:#181818;stroke-width:0.5;" x1="727.5" x2="1164.5" y1="1293" y2="1293"/><line style="stroke:#181818;stroke-width:0.5;" x1="727.5" x2="1164.5" y1="1301" y2="1301"/><text fill="#000000" font-family="sans-serif" font-size="14" lengthAdjust="spacing" textLength="250" x="732.5" y="1319.9659">void processComponentEventData(...)</text><text fill="#000000" font-family="sans-serif" font-size="14" lengthAdjust="spacing" textLength="284" x="732.5" y="1339.0339">void processErrorComponentEventData(...)</text><text fill="#000000" font-family="sans-serif" font-size="14" lengthAdjust="spacing" textLength="427" x="732.5" y="1358.1018">void startSetComponent(QVariant oldValue, QVariant newValue)</text><text fill="#000000" font-family="sans-serif" font-size="14" lengthAdjust="spacing" textLength="214" x="732.5" y="1377.1697">signal void sigSetFinish(bool ok)</text></g><!--class VfComponentChangeNotifier--><g id="elem_VfComponentChangeNotifier"><rect codeLine="83" fill="#F1F1F1" height="105.2038" id="VfComponentChangeNotifier" rx="2.5" ry="2.5" style="stroke:#181818;stroke-width:0.5;" width="296" x="1201" y="1270.5"/><ellipse cx="1247.75" cy="1286.5" fill="#ADD1B2" rx="11" ry="11" style="stroke:#181818;stroke-width:1.0;"/><path d="M1247.8594,1282.0313 Q1246.9375,1282.0313 1246.2031,1282.3438 Q1245.4844,1282.6563 1244.9844,1283.25 Q1244.4844,1283.8281 1244.2031,1284.7031 Q1243.9375,1285.5781 1243.9375,1286.6719 Q1243.9375,1288.1094 1244.375,1289.1563 Q1244.8281,1290.2031 1245.6719,1290.75 Q1246.5313,1291.2969 1247.8438,1291.2969 Q1248.625,1291.2969 1249.3125,1291.1719 Q1250.0156,1291.0313 1251.0156,1290.7188 L1251.0156,1292.5938 Q1250.1563,1292.9219 1249.3906,1293.0469 Q1248.6406,1293.1719 1247.625,1293.1719 Q1245.7031,1293.1719 1244.3906,1292.375 Q1243.0938,1291.5625 1242.4375,1290.0938 Q1241.7813,1288.6094 1241.7813,1286.6406 Q1241.7813,1285.2188 1242.1719,1284.0469 Q1242.5781,1282.8594 1243.3594,1281.9844 Q1244.1406,1281.1094 1245.2813,1280.6406 Q1246.4219,1280.1563 1247.8906,1280.1563 Q1248.8438,1280.1563 1249.7344,1280.3594 Q1250.6406,1280.5469 1251.5781,1281.0156 L1250.75,1282.7969 Q1249.9688,1282.4219 1249.3125,1282.2344 Q1248.6563,1282.0313 1247.8594,1282.0313 Z " fill="#000000"/><text fill="#000000" font-family="sans-serif" font-size="14" lengthAdjust="spacing" textLength="194" x="1268.25" y="1291.932">VfComponentChangeNotifier</text><line style="stroke:#181818;stroke-width:0.5;" x1="1202" x2="1496" y1="1302.5" y2="1302.5"/><line style="stroke:#181818;stroke-width:0.5;" x1="1202" x2="1496" y1="1310.5" y2="1310.5"/><text fill="#000000" font-family="sans-serif" font-size="14" lengthAdjust="spacing" textLength="246" x="1207" y="1329.4659">void processComponentEventData(..)</text><text fill="#000000" font-family="sans-serif" font-size="14" lengthAdjust="spacing" textLength="284" x="1207" y="1348.5339">void processErrorComponentEventData(...)</text><text fill="#000000" font-family="sans-serif" font-size="14" lengthAdjust="spacing" textLength="203" x="1207" y="1367.6018">signal void sigValueChanged()</text></g><!--link VfClientEntitySubscriber to VfClientEntityUnsubscriber--><!--link VfClientEntityUnsubscriber to VfEntityComponentEventItem--><!--reverse link EventSystem to VfCmdEventHandlerSystem--><g id="link_EventSystem_VfCmdEventHandlerSystem"><path codeLine="90" d="M547,152.68 C547,165.52 547,178.99 547,191.74 " fill="none" id="EventSystem-backto-VfCmdEventHandlerSystem" style="stroke:#181818;stroke-width:1.0;"/><polygon fill="none" points="540,152.75,547,132.75,554,152.75,540,152.75" style="stroke:#181818;stroke-width:1.0;"/></g><!--reverse link VfCmdEventHandlerSystem to VfCmdEventHandler--><g id="link_VfCmdEventHandlerSystem_VfCmdEventHandler"><path codeLine="92" d="M547,330.84 C547,359.99 547,392.88 547,420.52 " fill="none" id="VfCmdEventHandlerSystem-backto-VfCmdEventHandler" style="stroke:#181818;stroke-width:1.0;"/><polygon fill="#181818" points="547,317.94,543,323.94,547,329.94,551,323.94,547,317.94" style="stroke:#181818;stroke-width:1.0;"/><polygon fill="#000000" points="552,362.853,554.9389,353.8079,549.0611,353.8079,552,362.853" style="stroke:#000000;stroke-width:1.0;"/><text fill="#000000" font-family="sans-serif" font-size="13" lengthAdjust="spacing" textLength="32" x="561" y="362.897">owns</text><text fill="#000000" font-family="sans-serif" font-size="13" lengthAdjust="spacing" textLength="7" x="539.5953" y="409.2351">1</text></g><!--reverse link VfCmdEventHandler to VfEntityEventItem--><g id="link_VfCmdEventHandler_VfEntityEventItem"><path codeLine="93" d="M547,559.71 C547,580.81 547,603.47 547,623.63 " fill="none" id="VfCmdEventHandler-backto-VfEntityEventItem" style="stroke:#181818;stroke-width:1.0;"/><polygon fill="none" points="547,546.91,543,552.91,547,558.91,551,552.91,547,546.91" style="stroke:#181818;stroke-width:1.0;"/><polygon fill="#000000" points="552,589.853,554.9389,580.8079,549.0611,580.8079,552,589.853" style="stroke:#000000;stroke-width:1.0;"/><text fill="#000000" font-family="sans-serif" font-size="13" lengthAdjust="spacing" textLength="139" x="561" y="589.897">has shared entity items</text><text fill="#000000" font-family="sans-serif" font-size="13" lengthAdjust="spacing" textLength="20" x="525.8438" y="612.3578">0..*</text></g><!--reverse link VfEntityEventItem to VfClientEntitySubscriber--><g id="link_VfEntityEventItem_VfClientEntitySubscriber"><path codeLine="95" d="M412.48,758.53 C375.64,778.12 336.04,799.18 300.37,818.15 " fill="none" id="VfEntityEventItem-backto-VfClientEntitySubscriber" style="stroke:#181818;stroke-width:1.0;"/><polygon fill="none" points="409.18,752.36,430.13,749.15,415.76,764.72,409.18,752.36" style="stroke:#181818;stroke-width:1.0;"/></g><!--reverse link VfEntityEventItem to VfClientEntityUnsubscriber--><g id="link_VfEntityEventItem_VfClientEntityUnsubscriber"><path codeLine="96" d="M549.15,769.77 C549.57,786.07 550.01,802.89 550.41,818.32 " fill="none" id="VfEntityEventItem-backto-VfClientEntityUnsubscriber" style="stroke:#181818;stroke-width:1.0;"/><polygon fill="none" points="542.16,770.13,548.64,749.95,556.15,769.76,542.16,770.13" style="stroke:#181818;stroke-width:1.0;"/></g><!--reverse link VfEntityEventItem to VfEntityComponentEventItem--><g id="link_VfEntityEventItem_VfEntityComponentEventItem"><path codeLine="98" d="M693.72,757.78 C728.07,774.36 764.66,792.01 799.03,808.59 " fill="none" id="VfEntityEventItem-backto-VfEntityComponentEventItem" style="stroke:#181818;stroke-width:1.0;"/><polygon fill="none" points="690.68,764.09,675.71,749.1,696.76,751.48,690.68,764.09" style="stroke:#181818;stroke-width:1.0;"/></g><!--reverse link VfEntityComponentEventItem to VfComponentEventItem--><g id="link_VfEntityComponentEventItem_VfComponentEventItem"><path codeLine="99" d="M946,966.48 C946,995.92 946,1028.58 946,1056.75 " fill="none" id="VfEntityComponentEventItem-backto-VfComponentEventItem" style="stroke:#181818;stroke-width:1.0;"/><polygon fill="none" points="946,953.84,942,959.84,946,965.84,950,959.84,946,953.84" style="stroke:#181818;stroke-width:1.0;"/><polygon fill="#000000" points="951,998.853,953.9389,989.8079,948.0611,989.8079,951,998.853" style="stroke:#000000;stroke-width:1.0;"/><text fill="#000000" font-family="sans-serif" font-size="13" lengthAdjust="spacing" textLength="174" x="960" y="998.897">has shared component items</text><text fill="#000000" font-family="sans-serif" font-size="13" lengthAdjust="spacing" textLength="20" x="924.9688" y="1045.3901">0..*</text></g><!--reverse link VfComponentEventItem to VfClientComponentFetcher--><g id="link_VfComponentEventItem_VfClientComponentFetcher"><path codeLine="101" d="M770.92,1209.36 C733.42,1226.47 694.36,1244.29 658.67,1260.57 " fill="none" id="VfComponentEventItem-backto-VfClientComponentFetcher" style="stroke:#181818;stroke-width:1.0;"/><polygon fill="none" points="767.88,1203.06,788.98,1201.12,773.69,1215.79,767.88,1203.06" style="stroke:#181818;stroke-width:1.0;"/></g><!--reverse link VfComponentEventItem to VfClientComponentSetter--><g id="link_VfComponentEventItem_VfClientComponentSetter"><path codeLine="102" d="M946,1221.69 C946,1234.96 946,1248.33 946,1260.8 " fill="none" id="VfComponentEventItem-backto-VfClientComponentSetter" style="stroke:#181818;stroke-width:1.0;"/><polygon fill="none" points="939,1221.87,946,1201.87,953,1221.87,939,1221.87" style="stroke:#181818;stroke-width:1.0;"/></g><!--reverse link VfComponentEventItem to VfComponentChangeNotifier--><g id="link_VfComponentEventItem_VfComponentChangeNotifier"><path codeLine="103" d="M1113.76,1209.63 C1156.49,1230.04 1201.3,1251.45 1240.21,1270.03 " fill="none" id="VfComponentEventItem-backto-VfComponentChangeNotifier" style="stroke:#181818;stroke-width:1.0;"/><polygon fill="none" points="1111.03,1216.09,1096,1201.15,1117.06,1203.45,1111.03,1216.09" style="stroke:#181818;stroke-width:1.0;"/></g><!--SRC=[xLXHRzis47xNhpZuePEDocZSOjsCm1Xcnssof4scnY_BC30IPH6HI8Ea7HXj_tkFaYLBbcGxxRe2W_nWMUJTyRxZtKUU5yHx87CAdHLbt0aaYUcZa0_0kAOo81xjmEdfr0oFHl3H0loGUwKbyJHu4L4ApbQKQtUjD8qt0kQZs9oJ25Q2-UQtIxcV2DetoGDwr3owkVp7pEhdL6SXXKULQjJvR2MFr8LPC8vJysy9zoCgA-vKRVRx_MvvclZ-EMhPMslczLfBOFZS4POq5YjwbBnJSG_YVpmHnuINHZUu49cro7RbZ6kcrv00Xu15k2cCp-4P-4nfTh_KJF3g3ZL4PMyy6lRb-qRcvYrHuIdcsdDmIK0dDAAQkbIFC48qWMuKrIOovfiBJK6oUQY7C4tY0JQEiO1vn0IZ2vl8EWaG1O4KyHrd78TDv5AO2b0YYQ4qGQIWGqmNBUvusUN4NmMFJ8SG4-s5naJg69nFhBfoc0NfdcrjRAEEG65ETIfmxjixaLDVMIJZGYxPnHVeUHimXmjDIY6BkXEYYPt_Wfx0e3CiwNoelWuZXjCfG7TvhpoCRsFYbVokrkDUpwhY9dgR9HSc4mhHtIMZp37VlXSY0l7mFDcQJSRv1v7TSlNVOyiNFO2kuDnJyAN8q9U5u0PeJVf-Ftpr19CxyrIcsQEuePmRLniYhQ4TBzEjPHuj5Zdlv9AEJGrEf-kRIZ640ndVtF5TeX4cbwfHPlbgFq4Wf4SX8cknrCbGOrqvVuNCzod_UxGdGsjCb1AuPAGf3Sonb9zA-RIJ8ZxsNAfGvTvqQsRBpUx1CvpEJRp3bVv5HYtubIHjFfJIeLTyFPfT3nZDE7PSDLxBHhdSbEBPj8-BTXS-MB675PGcKhyfR40p9Q7Kb76cmYqVtSo8P0HtP4MY9Jq68zQd_X4GtIB4t6qH-JFZUG49fu-pBPZQI_1E6EfXPukDGyBdz5rokNaQy6_0lUDo0YXr92l0v8PQlFIVVdASfYkuPJNTpNker3dfrDnIXo0UkO9HLHM4KNhHx_SwDVUi8OH4WGg9f7vsIKllRoFZngvuvdOjinudNsBPPfL6JjrpwfQGrioNmEPaLCHRerI2i4iUJr59Qt6_HdqQMzPloCdBkDZajArdstgshMVRUhQjPzjwjgtd3smzspwpxJFRFhFjCzi-i-qp_pTzvdM4HNDxTGahAXKU5t3I7xmOlEo_jgUImHLPmya0JduT3buENmrWVEP-03FVjUpBDzUNeCJI_1kRdwFceczTa1M1FvSOr9WEuVs2yel97za0dF4LauB7w9HrCRlQ2lpyolcTQN2fH5zWTcLDQ42MaKODJ_XuqWpXziFK-SMwH2XBF0A7c5_MMA1TkSOvzmi0]--></g></svg>