<?xml version="1.0" encoding="us-ascii" standalone="no"?><svg xmlns="http://www.w3.org/2000/svg" xmlns:xlink="http://www.w3.org/1999/xlink" contentStyleType="text/css" height="1209px" preserveAspectRatio="none" style="width:1327px;height:1209px;background:#FFFFFF;" version="1.1" viewBox="0 0 1327 1209" width="1327px" zoomAndPan="magnify"><defs/><g><!--class EventSystem--><g id="elem_EventSystem"><rect codeLine="3" fill="#F1F1F1" height="86.1358" id="EventSystem" rx="2.5" ry="2.5" style="stroke:#181818;stroke-width:0.5;" width="251" x="347" y="7"/><ellipse cx="429.25" cy="23" fill="#A9DCDF" rx="11" ry="11" style="stroke:#181818;stroke-width:1.0;"/><path d="M432.5938,28.25 L431.125,24.5 L426.6875,24.5 L425.25,28.25 L423.125,28.25 L428.0781,15.5313 L429.8281,15.5313 L434.75,28.25 L432.5938,28.25 Z M429.25,19.2969 Q429.2031,19.1406 429.0781,18.7813 Q428.9531,18.4219 428.8438,18.0469 Q428.7344,17.6563 428.9375,17.5938 Q429.0938,17.7813 429,18.1406 Q428.9063,18.4844 428.8125,18.7813 Q428.7188,19.0625 428.6406,19.2969 L427.4063,22.6094 L430.4844,22.6094 L429.25,19.2969 Z " fill="#000000"/><text fill="#000000" font-family="sans-serif" font-size="14" font-style="italic" lengthAdjust="spacing" textLength="78" x="449.75" y="28.432">EventSystem</text><line style="stroke:#181818;stroke-width:0.5;" x1="348" x2="597" y1="39" y2="39"/><line style="stroke:#181818;stroke-width:0.5;" x1="348" x2="597" y1="47" y2="47"/><text fill="#000000" font-family="sans-serif" font-size="14" lengthAdjust="spacing" textLength="239" x="353" y="65.9659">void sigSendEvent(QEvent *t_event)</text><text fill="#000000" font-family="sans-serif" font-size="14" font-style="italic" lengthAdjust="spacing" textLength="221" x="353" y="85.0339">void processEvent(QEvent *t_event)</text></g><!--class VfCmdEventHandlerSystem--><g id="elem_VfCmdEventHandlerSystem"><rect codeLine="8" fill="#F1F1F1" height="105.2038" id="VfCmdEventHandlerSystem" rx="2.5" ry="2.5" style="stroke:#181818;stroke-width:0.5;" width="298" x="505.5" y="154"/><ellipse cx="558.75" cy="170" fill="#ADD1B2" rx="11" ry="11" style="stroke:#181818;stroke-width:1.0;"/><path d="M558.8594,165.5313 Q557.9375,165.5313 557.2031,165.8438 Q556.4844,166.1563 555.9844,166.75 Q555.4844,167.3281 555.2031,168.2031 Q554.9375,169.0781 554.9375,170.1719 Q554.9375,171.6094 555.375,172.6563 Q555.8281,173.7031 556.6719,174.25 Q557.5313,174.7969 558.8438,174.7969 Q559.625,174.7969 560.3125,174.6719 Q561.0156,174.5313 562.0156,174.2188 L562.0156,176.0938 Q561.1563,176.4219 560.3906,176.5469 Q559.6406,176.6719 558.625,176.6719 Q556.7031,176.6719 555.3906,175.875 Q554.0938,175.0625 553.4375,173.5938 Q552.7813,172.1094 552.7813,170.1406 Q552.7813,168.7188 553.1719,167.5469 Q553.5781,166.3594 554.3594,165.4844 Q555.1406,164.6094 556.2813,164.1406 Q557.4219,163.6563 558.8906,163.6563 Q559.8438,163.6563 560.7344,163.8594 Q561.6406,164.0469 562.5781,164.5156 L561.75,166.2969 Q560.9688,165.9219 560.3125,165.7344 Q559.6563,165.5313 558.8594,165.5313 Z " fill="#000000"/><text fill="#000000" font-family="sans-serif" font-size="14" lengthAdjust="spacing" textLength="183" x="579.25" y="175.432">VfCmdEventHandlerSystem</text><line style="stroke:#181818;stroke-width:0.5;" x1="506.5" x2="802.5" y1="186" y2="186"/><line style="stroke:#181818;stroke-width:0.5;" x1="506.5" x2="802.5" y1="194" y2="194"/><text fill="#000000" font-family="sans-serif" font-size="14" lengthAdjust="spacing" textLength="262" x="511.5" y="212.9659">void addItem(VfCmdEventItemPtr item)</text><text fill="#000000" font-family="sans-serif" font-size="14" lengthAdjust="spacing" textLength="286" x="511.5" y="232.0339">void removeItem(VfCmdEventItemPtr item)</text><text fill="#000000" font-family="sans-serif" font-size="14" lengthAdjust="spacing" textLength="286" x="511.5" y="251.1018">void processEvent(QEvent *event) override</text></g><!--class VfCmdEventHandler--><g id="elem_VfCmdEventHandler"><rect codeLine="17" fill="#F1F1F1" height="124.2717" id="VfCmdEventHandler" rx="2.5" ry="2.5" style="stroke:#181818;stroke-width:0.5;" width="298" x="505.5" y="338"/><ellipse cx="582.75" cy="354" fill="#ADD1B2" rx="11" ry="11" style="stroke:#181818;stroke-width:1.0;"/><path d="M582.8594,349.5313 Q581.9375,349.5313 581.2031,349.8438 Q580.4844,350.1563 579.9844,350.75 Q579.4844,351.3281 579.2031,352.2031 Q578.9375,353.0781 578.9375,354.1719 Q578.9375,355.6094 579.375,356.6563 Q579.8281,357.7031 580.6719,358.25 Q581.5313,358.7969 582.8438,358.7969 Q583.625,358.7969 584.3125,358.6719 Q585.0156,358.5313 586.0156,358.2188 L586.0156,360.0938 Q585.1563,360.4219 584.3906,360.5469 Q583.6406,360.6719 582.625,360.6719 Q580.7031,360.6719 579.3906,359.875 Q578.0938,359.0625 577.4375,357.5938 Q576.7813,356.1094 576.7813,354.1406 Q576.7813,352.7188 577.1719,351.5469 Q577.5781,350.3594 578.3594,349.4844 Q579.1406,348.6094 580.2813,348.1406 Q581.4219,347.6563 582.8906,347.6563 Q583.8438,347.6563 584.7344,347.8594 Q585.6406,348.0469 586.5781,348.5156 L585.75,350.2969 Q584.9688,349.9219 584.3125,349.7344 Q583.6563,349.5313 582.8594,349.5313 Z " fill="#000000"/><text fill="#000000" font-family="sans-serif" font-size="14" lengthAdjust="spacing" textLength="135" x="603.25" y="359.432">VfCmdEventHandler</text><line style="stroke:#181818;stroke-width:0.5;" x1="506.5" x2="802.5" y1="370" y2="370"/><rect fill="none" height="6" style="stroke:#C82930;stroke-width:1.0;" width="6" x="513.5" y="382.034"/><text fill="#000000" font-family="sans-serif" font-size="14" lengthAdjust="spacing" textLength="240" x="525.5" y="388.9659">QHash&lt;int, SafeDeleteSet&gt; m_items</text><line style="stroke:#181818;stroke-width:0.5;" x1="506.5" x2="802.5" y1="397.0679" y2="397.0679"/><text fill="#000000" font-family="sans-serif" font-size="14" lengthAdjust="spacing" textLength="262" x="511.5" y="416.0339">void addItem(VfCmdEventItemPtr item)</text><text fill="#000000" font-family="sans-serif" font-size="14" lengthAdjust="spacing" textLength="286" x="511.5" y="435.1018">void removeItem(VfCmdEventItemPtr item)</text><text fill="#000000" font-family="sans-serif" font-size="14" lengthAdjust="spacing" textLength="226" x="511.5" y="454.1697">void processEvent(QEvent *event)</text></g><!--class VfCmdEventItem--><g id="elem_VfCmdEventItem"><rect codeLine="25" fill="#F1F1F1" height="143.3396" id="VfCmdEventItem" rx="2.5" ry="2.5" style="stroke:#181818;stroke-width:0.5;" width="449" x="248" y="523"/><ellipse cx="416.75" cy="539" fill="#A9DCDF" rx="11" ry="11" style="stroke:#181818;stroke-width:1.0;"/><path d="M420.0938,544.25 L418.625,540.5 L414.1875,540.5 L412.75,544.25 L410.625,544.25 L415.5781,531.5313 L417.3281,531.5313 L422.25,544.25 L420.0938,544.25 Z M416.75,535.2969 Q416.7031,535.1406 416.5781,534.7813 Q416.4531,534.4219 416.3438,534.0469 Q416.2344,533.6563 416.4375,533.5938 Q416.5938,533.7813 416.5,534.1406 Q416.4063,534.4844 416.3125,534.7813 Q416.2188,535.0625 416.1406,535.2969 L414.9063,538.6094 L417.9844,538.6094 L416.75,535.2969 Z " fill="#000000"/><text fill="#000000" font-family="sans-serif" font-size="14" font-style="italic" lengthAdjust="spacing" textLength="103" x="437.25" y="544.432">VfCmdEventItem</text><line style="stroke:#181818;stroke-width:0.5;" x1="249" x2="696" y1="555" y2="555"/><text fill="#000000" font-family="sans-serif" font-size="14" lengthAdjust="spacing" textLength="201" x="254" y="573.9659">EventSystem* m_eventSystem</text><line style="stroke:#181818;stroke-width:0.5;" x1="249" x2="696" y1="582.0679" y2="582.0679"/><text fill="#000000" font-family="sans-serif" font-size="14" lengthAdjust="spacing" textLength="327" x="254" y="601.0339">void setEventSystem(EventSystem* eventSystem)</text><text fill="#000000" font-family="sans-serif" font-size="14" lengthAdjust="spacing" textLength="104" x="254" y="620.1018">int getEntityId()</text><text fill="#000000" font-family="sans-serif" font-size="14" font-style="italic" lengthAdjust="spacing" textLength="354" x="254" y="639.1697">void processCommandEvent(CommandEvent *cmdEvent)</text><text fill="#000000" font-family="sans-serif" font-size="14" font-style="italic" lengthAdjust="spacing" textLength="437" x="254" y="658.2376">void processErrorCommandEventData(EventData *originalEventData)</text></g><!--class VfClientEntitySubscriber--><g id="elem_VfClientEntitySubscriber"><rect codeLine="35" fill="#F1F1F1" height="86.1358" id="VfClientEntitySubscriber" rx="2.5" ry="2.5" style="stroke:#181818;stroke-width:0.5;" width="287" x="7" y="755.5"/><ellipse cx="64.75" cy="771.5" fill="#ADD1B2" rx="11" ry="11" style="stroke:#181818;stroke-width:1.0;"/><path d="M64.8594,767.0313 Q63.9375,767.0313 63.2031,767.3438 Q62.4844,767.6563 61.9844,768.25 Q61.4844,768.8281 61.2031,769.7031 Q60.9375,770.5781 60.9375,771.6719 Q60.9375,773.1094 61.375,774.1563 Q61.8281,775.2031 62.6719,775.75 Q63.5313,776.2969 64.8438,776.2969 Q65.625,776.2969 66.3125,776.1719 Q67.0156,776.0313 68.0156,775.7188 L68.0156,777.5938 Q67.1563,777.9219 66.3906,778.0469 Q65.6406,778.1719 64.625,778.1719 Q62.7031,778.1719 61.3906,777.375 Q60.0938,776.5625 59.4375,775.0938 Q58.7813,773.6094 58.7813,771.6406 Q58.7813,770.2188 59.1719,769.0469 Q59.5781,767.8594 60.3594,766.9844 Q61.1406,766.1094 62.2813,765.6406 Q63.4219,765.1563 64.8906,765.1563 Q65.8438,765.1563 66.7344,765.3594 Q67.6406,765.5469 68.5781,766.0156 L67.75,767.7969 Q66.9688,767.4219 66.3125,767.2344 Q65.6563,767.0313 64.8594,767.0313 Z " fill="#000000"/><text fill="#000000" font-family="sans-serif" font-size="14" lengthAdjust="spacing" textLength="163" x="85.25" y="776.932">VfClientEntitySubscriber</text><line style="stroke:#181818;stroke-width:0.5;" x1="8" x2="293" y1="787.5" y2="787.5"/><line style="stroke:#181818;stroke-width:0.5;" x1="8" x2="293" y1="795.5" y2="795.5"/><text fill="#000000" font-family="sans-serif" font-size="14" lengthAdjust="spacing" textLength="210" x="13" y="814.4659">void processCommandEvent(...)</text><text fill="#000000" font-family="sans-serif" font-size="14" lengthAdjust="spacing" textLength="275" x="13" y="833.5339">void processErrorCommandEventData(...)</text></g><!--class VfClientEntityUnsubscriber--><g id="elem_VfClientEntityUnsubscriber"><rect codeLine="41" fill="#F1F1F1" height="86.1358" id="VfClientEntityUnsubscriber" rx="2.5" ry="2.5" style="stroke:#181818;stroke-width:0.5;" width="287" x="329" y="755.5"/><ellipse cx="377.75" cy="771.5" fill="#ADD1B2" rx="11" ry="11" style="stroke:#181818;stroke-width:1.0;"/><path d="M377.8594,767.0313 Q376.9375,767.0313 376.2031,767.3438 Q375.4844,767.6563 374.9844,768.25 Q374.4844,768.8281 374.2031,769.7031 Q373.9375,770.5781 373.9375,771.6719 Q373.9375,773.1094 374.375,774.1563 Q374.8281,775.2031 375.6719,775.75 Q376.5313,776.2969 377.8438,776.2969 Q378.625,776.2969 379.3125,776.1719 Q380.0156,776.0313 381.0156,775.7188 L381.0156,777.5938 Q380.1563,777.9219 379.3906,778.0469 Q378.6406,778.1719 377.625,778.1719 Q375.7031,778.1719 374.3906,777.375 Q373.0938,776.5625 372.4375,775.0938 Q371.7813,773.6094 371.7813,771.6406 Q371.7813,770.2188 372.1719,769.0469 Q372.5781,767.8594 373.3594,766.9844 Q374.1406,766.1094 375.2813,765.6406 Q376.4219,765.1563 377.8906,765.1563 Q378.8438,765.1563 379.7344,765.3594 Q380.6406,765.5469 381.5781,766.0156 L380.75,767.7969 Q379.9688,767.4219 379.3125,767.2344 Q378.6563,767.0313 377.8594,767.0313 Z " fill="#000000"/><text fill="#000000" font-family="sans-serif" font-size="14" lengthAdjust="spacing" textLength="181" x="398.25" y="776.932">VfClientEntityUnsubscriber</text><line style="stroke:#181818;stroke-width:0.5;" x1="330" x2="615" y1="787.5" y2="787.5"/><line style="stroke:#181818;stroke-width:0.5;" x1="330" x2="615" y1="795.5" y2="795.5"/><text fill="#000000" font-family="sans-serif" font-size="14" lengthAdjust="spacing" textLength="210" x="335" y="814.4659">void processCommandEvent(...)</text><text fill="#000000" font-family="sans-serif" font-size="14" lengthAdjust="spacing" textLength="275" x="335" y="833.5339">void processErrorCommandEventData(...)</text></g><!--class VfCmdEventItemEntity--><g id="elem_VfCmdEventItemEntity"><rect codeLine="46" fill="#F1F1F1" height="143.3396" id="VfCmdEventItemEntity" rx="2.5" ry="2.5" style="stroke:#181818;stroke-width:0.5;" width="381" x="651" y="727"/><ellipse cx="762.25" cy="743" fill="#ADD1B2" rx="11" ry="11" style="stroke:#181818;stroke-width:1.0;"/><path d="M762.3594,738.5313 Q761.4375,738.5313 760.7031,738.8438 Q759.9844,739.1563 759.4844,739.75 Q758.9844,740.3281 758.7031,741.2031 Q758.4375,742.0781 758.4375,743.1719 Q758.4375,744.6094 758.875,745.6563 Q759.3281,746.7031 760.1719,747.25 Q761.0313,747.7969 762.3438,747.7969 Q763.125,747.7969 763.8125,747.6719 Q764.5156,747.5313 765.5156,747.2188 L765.5156,749.0938 Q764.6563,749.4219 763.8906,749.5469 Q763.1406,749.6719 762.125,749.6719 Q760.2031,749.6719 758.8906,748.875 Q757.5938,748.0625 756.9375,746.5938 Q756.2813,745.1094 756.2813,743.1406 Q756.2813,741.7188 756.6719,740.5469 Q757.0781,739.3594 757.8594,738.4844 Q758.6406,737.6094 759.7813,737.1406 Q760.9219,736.6563 762.3906,736.6563 Q763.3438,736.6563 764.2344,736.8594 Q765.1406,737.0469 766.0781,737.5156 L765.25,739.2969 Q764.4688,738.9219 763.8125,738.7344 Q763.1563,738.5313 762.3594,738.5313 Z " fill="#000000"/><text fill="#000000" font-family="sans-serif" font-size="14" lengthAdjust="spacing" textLength="150" x="782.75" y="748.432">VfCmdEventItemEntity</text><line style="stroke:#181818;stroke-width:0.5;" x1="652" x2="1031" y1="759" y2="759"/><rect fill="none" height="6" style="stroke:#C82930;stroke-width:1.0;" width="6" x="659" y="771.034"/><text fill="#000000" font-family="sans-serif" font-size="14" lengthAdjust="spacing" textLength="355" x="671" y="777.9659">QHash&lt;QString, SafeDeleteSet&gt; m_componentItems;</text><line style="stroke:#181818;stroke-width:0.5;" x1="652" x2="1031" y1="786.0679" y2="786.0679"/><text fill="#000000" font-family="sans-serif" font-size="14" lengthAdjust="spacing" textLength="344" x="657" y="805.0339">void addItem(VfCmdEventItemComponentPtr item);</text><text fill="#000000" font-family="sans-serif" font-size="14" lengthAdjust="spacing" textLength="368" x="657" y="824.1018">void removeItem(VfCmdEventItemComponentPtr item);</text><text fill="#000000" font-family="sans-serif" font-size="14" lengthAdjust="spacing" textLength="210" x="657" y="843.1697">void processCommandEvent(...)</text><text fill="#000000" font-family="sans-serif" font-size="14" lengthAdjust="spacing" textLength="275" x="657" y="862.2376">void processErrorCommandEventData(...)</text></g><!--class VfCmdEventItemComponent--><g id="elem_VfCmdEventItemComponent"><rect codeLine="56" fill="#F1F1F1" height="124.2717" id="VfCmdEventItemComponent" rx="2.5" ry="2.5" style="stroke:#181818;stroke-width:0.5;" width="533" x="575" y="931"/><ellipse cx="749.75" cy="947" fill="#A9DCDF" rx="11" ry="11" style="stroke:#181818;stroke-width:1.0;"/><path d="M753.0938,952.25 L751.625,948.5 L747.1875,948.5 L745.75,952.25 L743.625,952.25 L748.5781,939.5313 L750.3281,939.5313 L755.25,952.25 L753.0938,952.25 Z M749.75,943.2969 Q749.7031,943.1406 749.5781,942.7813 Q749.4531,942.4219 749.3438,942.0469 Q749.2344,941.6563 749.4375,941.5938 Q749.5938,941.7813 749.5,942.1406 Q749.4063,942.4844 749.3125,942.7813 Q749.2188,943.0625 749.1406,943.2969 L747.9063,946.6094 L750.9844,946.6094 L749.75,943.2969 Z " fill="#000000"/><text fill="#000000" font-family="sans-serif" font-size="14" font-style="italic" lengthAdjust="spacing" textLength="175" x="770.25" y="952.432">VfCmdEventItemComponent</text><line style="stroke:#181818;stroke-width:0.5;" x1="576" x2="1107" y1="963" y2="963"/><line style="stroke:#181818;stroke-width:0.5;" x1="576" x2="1107" y1="971" y2="971"/><text fill="#000000" font-family="sans-serif" font-size="14" lengthAdjust="spacing" textLength="272" x="581" y="989.9659">VfCmdEventItemEntityPtr getEntityItem()</text><text fill="#000000" font-family="sans-serif" font-size="14" lengthAdjust="spacing" textLength="207" x="581" y="1009.0339">EventSystem* getEvenSystem()</text><text fill="#000000" font-family="sans-serif" font-size="14" font-style="italic" lengthAdjust="spacing" textLength="436" x="581" y="1028.1018">void processComponentEventData(ComponentData *componentData)</text><text fill="#000000" font-family="sans-serif" font-size="14" font-style="italic" lengthAdjust="spacing" textLength="521" x="581" y="1047.1697">void processErrorComponentEventData(ComponentData *originalComponentData)</text></g><!--class VfClientComponentFetcher--><g id="elem_VfClientComponentFetcher"><rect codeLine="63" fill="#F1F1F1" height="86.1358" id="VfClientComponentFetcher" rx="2.5" ry="2.5" style="stroke:#181818;stroke-width:0.5;" width="296" x="362.5" y="1116"/><ellipse cx="416.25" cy="1132" fill="#ADD1B2" rx="11" ry="11" style="stroke:#181818;stroke-width:1.0;"/><path d="M416.3594,1127.5313 Q415.4375,1127.5313 414.7031,1127.8438 Q413.9844,1128.1563 413.4844,1128.75 Q412.9844,1129.3281 412.7031,1130.2031 Q412.4375,1131.0781 412.4375,1132.1719 Q412.4375,1133.6094 412.875,1134.6563 Q413.3281,1135.7031 414.1719,1136.25 Q415.0313,1136.7969 416.3438,1136.7969 Q417.125,1136.7969 417.8125,1136.6719 Q418.5156,1136.5313 419.5156,1136.2188 L419.5156,1138.0938 Q418.6563,1138.4219 417.8906,1138.5469 Q417.1406,1138.6719 416.125,1138.6719 Q414.2031,1138.6719 412.8906,1137.875 Q411.5938,1137.0625 410.9375,1135.5938 Q410.2813,1134.1094 410.2813,1132.1406 Q410.2813,1130.7188 410.6719,1129.5469 Q411.0781,1128.3594 411.8594,1127.4844 Q412.6406,1126.6094 413.7813,1126.1406 Q414.9219,1125.6563 416.3906,1125.6563 Q417.3438,1125.6563 418.2344,1125.8594 Q419.1406,1126.0469 420.0781,1126.5156 L419.25,1128.2969 Q418.4688,1127.9219 417.8125,1127.7344 Q417.1563,1127.5313 416.3594,1127.5313 Z " fill="#000000"/><text fill="#000000" font-family="sans-serif" font-size="14" lengthAdjust="spacing" textLength="180" x="436.75" y="1137.432">VfClientComponentFetcher</text><line style="stroke:#181818;stroke-width:0.5;" x1="363.5" x2="657.5" y1="1148" y2="1148"/><line style="stroke:#181818;stroke-width:0.5;" x1="363.5" x2="657.5" y1="1156" y2="1156"/><text fill="#000000" font-family="sans-serif" font-size="14" lengthAdjust="spacing" textLength="250" x="368.5" y="1174.9659">void processComponentEventData(...)</text><text fill="#000000" font-family="sans-serif" font-size="14" lengthAdjust="spacing" textLength="284" x="368.5" y="1194.0339">void processErrorComponentEventData(...)</text></g><!--class VfClientComponentSetter--><g id="elem_VfClientComponentSetter"><rect codeLine="69" fill="#F1F1F1" height="86.1358" id="VfClientComponentSetter" rx="2.5" ry="2.5" style="stroke:#181818;stroke-width:0.5;" width="296" x="693.5" y="1116"/><ellipse cx="752.25" cy="1132" fill="#ADD1B2" rx="11" ry="11" style="stroke:#181818;stroke-width:1.0;"/><path d="M752.3594,1127.5313 Q751.4375,1127.5313 750.7031,1127.8438 Q749.9844,1128.1563 749.4844,1128.75 Q748.9844,1129.3281 748.7031,1130.2031 Q748.4375,1131.0781 748.4375,1132.1719 Q748.4375,1133.6094 748.875,1134.6563 Q749.3281,1135.7031 750.1719,1136.25 Q751.0313,1136.7969 752.3438,1136.7969 Q753.125,1136.7969 753.8125,1136.6719 Q754.5156,1136.5313 755.5156,1136.2188 L755.5156,1138.0938 Q754.6563,1138.4219 753.8906,1138.5469 Q753.1406,1138.6719 752.125,1138.6719 Q750.2031,1138.6719 748.8906,1137.875 Q747.5938,1137.0625 746.9375,1135.5938 Q746.2813,1134.1094 746.2813,1132.1406 Q746.2813,1130.7188 746.6719,1129.5469 Q747.0781,1128.3594 747.8594,1127.4844 Q748.6406,1126.6094 749.7813,1126.1406 Q750.9219,1125.6563 752.3906,1125.6563 Q753.3438,1125.6563 754.2344,1125.8594 Q755.1406,1126.0469 756.0781,1126.5156 L755.25,1128.2969 Q754.4688,1127.9219 753.8125,1127.7344 Q753.1563,1127.5313 752.3594,1127.5313 Z " fill="#000000"/><text fill="#000000" font-family="sans-serif" font-size="14" lengthAdjust="spacing" textLength="170" x="772.75" y="1137.432">VfClientComponentSetter</text><line style="stroke:#181818;stroke-width:0.5;" x1="694.5" x2="988.5" y1="1148" y2="1148"/><line style="stroke:#181818;stroke-width:0.5;" x1="694.5" x2="988.5" y1="1156" y2="1156"/><text fill="#000000" font-family="sans-serif" font-size="14" lengthAdjust="spacing" textLength="250" x="699.5" y="1174.9659">void processComponentEventData(...)</text><text fill="#000000" font-family="sans-serif" font-size="14" lengthAdjust="spacing" textLength="284" x="699.5" y="1194.0339">void processErrorComponentEventData(...)</text></g><!--class VfComponentChangeNotifier--><g id="elem_VfComponentChangeNotifier"><rect codeLine="75" fill="#F1F1F1" height="86.1358" id="VfComponentChangeNotifier" rx="2.5" ry="2.5" style="stroke:#181818;stroke-width:0.5;" width="296" x="1024.5" y="1116"/><ellipse cx="1071.25" cy="1132" fill="#ADD1B2" rx="11" ry="11" style="stroke:#181818;stroke-width:1.0;"/><path d="M1071.3594,1127.5313 Q1070.4375,1127.5313 1069.7031,1127.8438 Q1068.9844,1128.1563 1068.4844,1128.75 Q1067.9844,1129.3281 1067.7031,1130.2031 Q1067.4375,1131.0781 1067.4375,1132.1719 Q1067.4375,1133.6094 1067.875,1134.6563 Q1068.3281,1135.7031 1069.1719,1136.25 Q1070.0313,1136.7969 1071.3438,1136.7969 Q1072.125,1136.7969 1072.8125,1136.6719 Q1073.5156,1136.5313 1074.5156,1136.2188 L1074.5156,1138.0938 Q1073.6563,1138.4219 1072.8906,1138.5469 Q1072.1406,1138.6719 1071.125,1138.6719 Q1069.2031,1138.6719 1067.8906,1137.875 Q1066.5938,1137.0625 1065.9375,1135.5938 Q1065.2813,1134.1094 1065.2813,1132.1406 Q1065.2813,1130.7188 1065.6719,1129.5469 Q1066.0781,1128.3594 1066.8594,1127.4844 Q1067.6406,1126.6094 1068.7813,1126.1406 Q1069.9219,1125.6563 1071.3906,1125.6563 Q1072.3438,1125.6563 1073.2344,1125.8594 Q1074.1406,1126.0469 1075.0781,1126.5156 L1074.25,1128.2969 Q1073.4688,1127.9219 1072.8125,1127.7344 Q1072.1563,1127.5313 1071.3594,1127.5313 Z " fill="#000000"/><text fill="#000000" font-family="sans-serif" font-size="14" lengthAdjust="spacing" textLength="194" x="1091.75" y="1137.432">VfComponentChangeNotifier</text><line style="stroke:#181818;stroke-width:0.5;" x1="1025.5" x2="1319.5" y1="1148" y2="1148"/><line style="stroke:#181818;stroke-width:0.5;" x1="1025.5" x2="1319.5" y1="1156" y2="1156"/><text fill="#000000" font-family="sans-serif" font-size="14" lengthAdjust="spacing" textLength="246" x="1030.5" y="1174.9659">void processComponentEventData(..)</text><text fill="#000000" font-family="sans-serif" font-size="14" lengthAdjust="spacing" textLength="284" x="1030.5" y="1194.0339">void processErrorComponentEventData(...)</text></g><!--reverse link EventSystem to VfCmdEventHandlerSystem--><g id="link_EventSystem_VfCmdEventHandlerSystem"><path codeLine="2" d="M538.56,107.08 C556.49,122.3 575.83,138.71 593.47,153.69 " fill="none" id="EventSystem-backto-VfCmdEventHandlerSystem" style="stroke:#181818;stroke-width:1.0;"/><polygon fill="none" points="534.1,112.48,523.39,94.2,543.16,101.8,534.1,112.48" style="stroke:#181818;stroke-width:1.0;"/></g><!--link VfCmdEventHandlerSystem to VfCmdEventHandler--><g id="link_VfCmdEventHandlerSystem_VfCmdEventHandler"><path codeLine="14" d="M654.5,259.32 C654.5,281.49 654.5,307.67 654.5,331.33 " fill="none" id="VfCmdEventHandlerSystem-to-VfCmdEventHandler" style="stroke:#181818;stroke-width:1.0;"/><polygon fill="#181818" points="654.5,336.1,658.5,327.1,654.5,331.1,650.5,327.1,654.5,336.1" style="stroke:#181818;stroke-width:1.0;"/><text fill="#000000" font-family="sans-serif" font-size="13" lengthAdjust="spacing" textLength="7" x="647.0516" y="281.1058">1</text><text fill="#000000" font-family="sans-serif" font-size="13" lengthAdjust="spacing" textLength="7" x="647.0953" y="326.3355">1</text></g><!--reverse link VfCmdEventHandler to VfCmdEventItem--><g id="link_VfCmdEventHandler_VfCmdEventItem"><path codeLine="15" d="M586.48,472.94 C571.13,489.18 554.85,506.4 539.54,522.59 " fill="none" id="VfCmdEventHandler-backto-VfCmdEventItem" style="stroke:#181818;stroke-width:1.0;"/><polygon fill="#181818" points="595.37,463.54,588.3413,465.1515,587.1255,472.2594,594.1542,470.6479,595.37,463.54" style="stroke:#181818;stroke-width:1.0;"/><text fill="#000000" font-family="sans-serif" font-size="13" lengthAdjust="spacing" textLength="7" x="582.6736" y="484.1198">0</text><text fill="#000000" font-family="sans-serif" font-size="13" lengthAdjust="spacing" textLength="7" x="539.0926" y="511.2136">*</text></g><!--reverse link EventSystem to VfCmdEventItem--><g id="link_EventSystem_VfCmdEventItem"><path codeLine="24" d="M472.5,99.56 C472.5,195.8 472.5,411.08 472.5,522.96 " fill="none" id="EventSystem-backto-VfCmdEventItem" style="stroke:#181818;stroke-width:1.0;"/><polygon fill="#181818" points="472.5,94.63,468.5,103.63,472.5,99.63,476.5,103.63,472.5,94.63" style="stroke:#181818;stroke-width:1.0;"/><text fill="#000000" font-family="sans-serif" font-size="13" lengthAdjust="spacing" textLength="103" x="473.5" y="303.897">call sigSendEvent</text><text fill="#000000" font-family="sans-serif" font-size="13" lengthAdjust="spacing" textLength="7" x="464.9641" y="114.965">1</text><text fill="#000000" font-family="sans-serif" font-size="13" lengthAdjust="spacing" textLength="7" x="465.1172" y="511.1227">1</text></g><!--reverse link VfCmdEventItem to VfClientEntitySubscriber--><g id="link_VfCmdEventItem_VfClientEntitySubscriber"><path codeLine="33" d="M341.44,677.72 C298.98,704.35 253.64,732.8 217.8,755.28 " fill="none" id="VfCmdEventItem-backto-VfClientEntitySubscriber" style="stroke:#181818;stroke-width:1.0;"/><polygon fill="none" points="337.48,671.94,358.15,667.24,344.92,683.8,337.48,671.94" style="stroke:#181818;stroke-width:1.0;"/></g><!--reverse link VfCmdEventItem to VfClientEntityUnsubscriber--><g id="link_VfCmdEventItem_VfClientEntityUnsubscriber"><path codeLine="40" d="M472.5,687.77 C472.5,711.37 472.5,735.61 472.5,755.28 " fill="none" id="VfCmdEventItem-backto-VfClientEntityUnsubscriber" style="stroke:#181818;stroke-width:1.0;"/><polygon fill="none" points="465.5,687.95,472.5,667.95,479.5,687.95,465.5,687.95" style="stroke:#181818;stroke-width:1.0;"/></g><!--reverse link VfCmdEventItem to VfCmdEventItemEntity--><g id="link_VfCmdEventItem_VfCmdEventItemEntity"><path codeLine="53" d="M620.68,676.62 C650.88,693.15 682.43,710.42 711.92,726.57 " fill="none" id="VfCmdEventItem-backto-VfCmdEventItemEntity" style="stroke:#181818;stroke-width:1.0;"/><polygon fill="none" points="617.59,682.9,603.4,667.16,624.31,670.62,617.59,682.9" style="stroke:#181818;stroke-width:1.0;"/></g><!--reverse link VfCmdEventItemEntity to VfCmdEventItemComponent--><g id="link_VfCmdEventItemEntity_VfCmdEventItemComponent"><path codeLine="55" d="M841.5,884.51 C841.5,900.1 841.5,916.08 841.5,930.8 " fill="none" id="VfCmdEventItemEntity-backto-VfCmdEventItemComponent" style="stroke:#181818;stroke-width:1.0;"/><polygon fill="#181818" points="841.5,871.87,837.5,877.87,841.5,883.87,845.5,877.87,841.5,871.87" style="stroke:#181818;stroke-width:1.0;"/><text fill="#000000" font-family="sans-serif" font-size="13" lengthAdjust="spacing" textLength="7" x="834.1555" y="892.1855">0</text><text fill="#000000" font-family="sans-serif" font-size="13" lengthAdjust="spacing" textLength="7" x="834.0734" y="919.1069">*</text></g><!--reverse link VfCmdEventItemComponent to VfClientComponentFetcher--><g id="link_VfCmdEventItemComponent_VfClientComponentFetcher"><path codeLine="67" d="M698.58,1064.81 C663.69,1082.1 627.44,1100.06 596.19,1115.55 " fill="none" id="VfCmdEventItemComponent-backto-VfClientComponentFetcher" style="stroke:#181818;stroke-width:1.0;"/><polygon fill="none" points="695.39,1058.58,716.42,1055.97,701.61,1071.12,695.39,1058.58" style="stroke:#181818;stroke-width:1.0;"/></g><!--reverse link VfCmdEventItemComponent to VfClientComponentSetter--><g id="link_VfCmdEventItemComponent_VfClientComponentSetter"><path codeLine="73" d="M841.5,1076.25 C841.5,1089.86 841.5,1103.46 841.5,1115.55 " fill="none" id="VfCmdEventItemComponent-backto-VfClientComponentSetter" style="stroke:#181818;stroke-width:1.0;"/><polygon fill="none" points="834.5,1076.58,841.5,1056.58,848.5,1076.58,834.5,1076.58" style="stroke:#181818;stroke-width:1.0;"/></g><!--reverse link VfCmdEventItemComponent to VfComponentChangeNotifier--><g id="link_VfCmdEventItemComponent_VfComponentChangeNotifier"><path codeLine="79" d="M984.42,1064.81 C1019.31,1082.1 1055.56,1100.06 1086.81,1115.55 " fill="none" id="VfCmdEventItemComponent-backto-VfComponentChangeNotifier" style="stroke:#181818;stroke-width:1.0;"/><polygon fill="none" points="981.39,1071.12,966.58,1055.97,987.61,1058.58,981.39,1071.12" style="stroke:#181818;stroke-width:1.0;"/></g><!--SRC=[xLPTRzem57tFhxZAom9QKA5Ljz6gcWPqfOEjNTg-LYOngQN4HhQ3XDh-zpc490OSG5ErQLfuIMpVZtDFpZLtCCTKUWiXSGpdBwuB3zDU70pItIj4WmZpxD124o4vyYNu4H821fhVimNgDsSa04523zFCtxbTFg0f7t7wqbYQFUU1NZEF6MS-5gB2uzMoidmLiFJSA0Y6QiifJTFbZUH0rBDH6d8Sipa-pDO8BmC7AWZd9C0foYfyTji6rxrOFhTijht0FhAXgJw3tTJjKt2LJFnD3fP6xkqL4a_dXChtuA4fxkC8I-nXUG7nOnfBh3CqB8X9PYjgD3brRHz5qPgIx4trRSJI1OYb5ilHtfk0oqK6N266K3bGIUHY63Wx5TfZSOnoQUiBQFehCBiLpZdZkbyVIUGKRz1ad8I4egZOoiAjbH0_QaMiM8s8sibgy9A9y3cPA56atBvSR6hetGPpUSiROvI2CwTutfB86aUjLiiW8YCBIzEjQkwfs5UF2U6QszjZD2amIxo_4LNG6QDgKNJPsG4jkTFhBQhIclZMavpGqD38VeuYXIJE51L63ipVoMnRVTaL9U_k_C9iHRqfIqfQsUGfkuQ-2hDhOtLhxBi7ifmbYSLMriY-lZpeJjWJCByPUkk1TJ4kzL-SNsBfFrMfVpFPJhKOZL-joep6prz-pIh0IcFoZ-9T9JmORhxLUq8qnD-P95DoEE3VmLkHSH_Yp-fFCr4DPmtgoQwUxEh9xd-PxEfPhPxLwbcjdjNgMUtVczLk8aJb_NW4QkmGX55ejpf7dUFM1-UI4nYZ1RGxqFxKxHntJphG6tXta9utB6VqzMO4WYNSnn0G9LioIQIAqB2kqHp1pqHrKeoxy6E6wNN_Mxu10peddD4uXN7zC2uDJa_SBqI2Xxd20WzZgu-dA8cayl1Pe6wRBjpVNReVhP6gD46XYesfrMCgBb-eC-yN]--></g></svg>