<?xml version="1.0" encoding="us-ascii" standalone="no"?><svg xmlns="http://www.w3.org/2000/svg" xmlns:xlink="http://www.w3.org/1999/xlink" contentStyleType="text/css" height="1369px" preserveAspectRatio="none" style="width:1357px;height:1369px;background:#FFFFFF;" version="1.1" viewBox="0 0 1357 1369" width="1357px" zoomAndPan="magnify"><defs/><g><!--cluster vein-framework interface--><g id="cluster_vein-framework interface"><rect fill="none" height="325" rx="2.5" ry="2.5" style="stroke:#181818;stroke-width:1.0;" width="374" x="714" y="7"/><path d="M903.0625,7 L903.0625,19.0679 L893.0625,29.0679 L714,29.0679 " fill="none" style="stroke:#181818;stroke-width:1.0;"/><text fill="#000000" font-family="sans-serif" font-size="14" font-weight="bold" lengthAdjust="spacing" textLength="179.0625" x="717" y="22.9659">vein-framework interface</text></g><!--cluster Entity event filtering & distibution--><g id="cluster_Entity event filtering &amp; distibution"><rect fill="none" height="585" rx="2.5" ry="2.5" style="stroke:#181818;stroke-width:1.0;" width="1054" x="297" y="383"/><path d="M549,383 L549,395.0679 L539,405.0679 L297,405.0679 " fill="none" style="stroke:#181818;stroke-width:1.0;"/><text fill="#000000" font-family="sans-serif" font-size="14" font-weight="bold" lengthAdjust="spacing" textLength="242" x="300" y="398.9659">Entity event filtering &amp; distibution</text></g><!--cluster Component-data filtering & distibution--><g id="cluster_Component-data filtering &amp; distibution"><rect fill="none" height="344" rx="2.5" ry="2.5" style="stroke:#181818;stroke-width:1.0;" width="990" x="7" y="1019"/><path d="M294.3125,1019 L294.3125,1031.0679 L284.3125,1041.0679 L7,1041.0679 " fill="none" style="stroke:#181818;stroke-width:1.0;"/><text fill="#000000" font-family="sans-serif" font-size="14" font-weight="bold" lengthAdjust="spacing" textLength="277.3125" x="10" y="1034.9659">Component-data filtering &amp; distibution</text></g><!--class EventSystem--><g id="elem_EventSystem"><rect codeLine="3" fill="#F1F1F1" height="86.1358" id="EventSystem" rx="2.5" ry="2.5" style="stroke:#181818;stroke-width:0.5;" width="285" x="758.5" y="45"/><ellipse cx="857.75" cy="61" fill="#A9DCDF" rx="11" ry="11" style="stroke:#181818;stroke-width:1.0;"/><path d="M861.0938,66.25 L859.625,62.5 L855.1875,62.5 L853.75,66.25 L851.625,66.25 L856.5781,53.5313 L858.3281,53.5313 L863.25,66.25 L861.0938,66.25 Z M857.75,57.2969 Q857.7031,57.1406 857.5781,56.7813 Q857.4531,56.4219 857.3438,56.0469 Q857.2344,55.6563 857.4375,55.5938 Q857.5938,55.7813 857.5,56.1406 Q857.4063,56.4844 857.3125,56.7813 Q857.2188,57.0625 857.1406,57.2969 L855.9063,60.6094 L858.9844,60.6094 L857.75,57.2969 Z " fill="#000000"/><text fill="#000000" font-family="sans-serif" font-size="14" font-style="italic" lengthAdjust="spacing" textLength="78" x="878.25" y="66.432">EventSystem</text><line style="stroke:#181818;stroke-width:0.5;" x1="759.5" x2="1042.5" y1="77" y2="77"/><line style="stroke:#181818;stroke-width:0.5;" x1="759.5" x2="1042.5" y1="85" y2="85"/><text fill="#000000" font-family="sans-serif" font-size="14" lengthAdjust="spacing" textLength="273" x="764.5" y="103.9659">signal void sigSendEvent(QEvent *event)</text><text fill="#000000" font-family="sans-serif" font-size="14" font-style="italic" lengthAdjust="spacing" textLength="210" x="764.5" y="123.0339">void processEvent(QEvent *event)</text></g><!--class VfCmdEventHandlerSystem--><g id="elem_VfCmdEventHandlerSystem"><rect codeLine="8" fill="#F1F1F1" height="124.2717" id="VfCmdEventHandlerSystem" rx="2.5" ry="2.5" style="stroke:#181818;stroke-width:0.5;" width="342" x="730" y="192"/><ellipse cx="805.25" cy="208" fill="#ADD1B2" rx="11" ry="11" style="stroke:#181818;stroke-width:1.0;"/><path d="M805.3594,203.5313 Q804.4375,203.5313 803.7031,203.8438 Q802.9844,204.1563 802.4844,204.75 Q801.9844,205.3281 801.7031,206.2031 Q801.4375,207.0781 801.4375,208.1719 Q801.4375,209.6094 801.875,210.6563 Q802.3281,211.7031 803.1719,212.25 Q804.0313,212.7969 805.3438,212.7969 Q806.125,212.7969 806.8125,212.6719 Q807.5156,212.5313 808.5156,212.2188 L808.5156,214.0938 Q807.6563,214.4219 806.8906,214.5469 Q806.1406,214.6719 805.125,214.6719 Q803.2031,214.6719 801.8906,213.875 Q800.5938,213.0625 799.9375,211.5938 Q799.2813,210.1094 799.2813,208.1406 Q799.2813,206.7188 799.6719,205.5469 Q800.0781,204.3594 800.8594,203.4844 Q801.6406,202.6094 802.7813,202.1406 Q803.9219,201.6563 805.3906,201.6563 Q806.3438,201.6563 807.2344,201.8594 Q808.1406,202.0469 809.0781,202.5156 L808.25,204.2969 Q807.4688,203.9219 806.8125,203.7344 Q806.1563,203.5313 805.3594,203.5313 Z " fill="#000000"/><text fill="#000000" font-family="sans-serif" font-size="14" lengthAdjust="spacing" textLength="183" x="825.75" y="213.432">VfCmdEventHandlerSystem</text><line style="stroke:#181818;stroke-width:0.5;" x1="731" x2="1071" y1="224" y2="224"/><rect fill="none" height="6" style="stroke:#C82930;stroke-width:1.0;" width="6" x="738" y="236.034"/><text fill="#000000" font-family="sans-serif" font-size="14" lengthAdjust="spacing" textLength="316" x="750" y="242.9659">VfCmdEventHandler m_commandEventHandler</text><line style="stroke:#181818;stroke-width:0.5;" x1="731" x2="1071" y1="251.0679" y2="251.0679"/><text fill="#000000" font-family="sans-serif" font-size="14" lengthAdjust="spacing" textLength="141" x="736" y="270.0339">void processEvent(...)</text><text fill="#000000" font-family="sans-serif" font-size="14" lengthAdjust="spacing" textLength="262" x="736" y="289.1018">void addItem(VfCmdEventItemPtr item)</text><text fill="#000000" font-family="sans-serif" font-size="14" lengthAdjust="spacing" textLength="286" x="736" y="308.1697">void removeItem(VfCmdEventItemPtr item)</text></g><!--class VfCmdEventHandler--><g id="elem_VfCmdEventHandler"><rect codeLine="18" fill="#F1F1F1" height="124.2717" id="VfCmdEventHandler" rx="2.5" ry="2.5" style="stroke:#181818;stroke-width:0.5;" width="305" x="748.5" y="421"/><ellipse cx="829.25" cy="437" fill="#ADD1B2" rx="11" ry="11" style="stroke:#181818;stroke-width:1.0;"/><path d="M829.3594,432.5313 Q828.4375,432.5313 827.7031,432.8438 Q826.9844,433.1563 826.4844,433.75 Q825.9844,434.3281 825.7031,435.2031 Q825.4375,436.0781 825.4375,437.1719 Q825.4375,438.6094 825.875,439.6563 Q826.3281,440.7031 827.1719,441.25 Q828.0313,441.7969 829.3438,441.7969 Q830.125,441.7969 830.8125,441.6719 Q831.5156,441.5313 832.5156,441.2188 L832.5156,443.0938 Q831.6563,443.4219 830.8906,443.5469 Q830.1406,443.6719 829.125,443.6719 Q827.2031,443.6719 825.8906,442.875 Q824.5938,442.0625 823.9375,440.5938 Q823.2813,439.1094 823.2813,437.1406 Q823.2813,435.7188 823.6719,434.5469 Q824.0781,433.3594 824.8594,432.4844 Q825.6406,431.6094 826.7813,431.1406 Q827.9219,430.6563 829.3906,430.6563 Q830.3438,430.6563 831.2344,430.8594 Q832.1406,431.0469 833.0781,431.5156 L832.25,433.2969 Q831.4688,432.9219 830.8125,432.7344 Q830.1563,432.5313 829.3594,432.5313 Z " fill="#000000"/><text fill="#000000" font-family="sans-serif" font-size="14" lengthAdjust="spacing" textLength="135" x="849.75" y="442.432">VfCmdEventHandler</text><line style="stroke:#181818;stroke-width:0.5;" x1="749.5" x2="1052.5" y1="453" y2="453"/><rect fill="none" height="6" style="stroke:#C82930;stroke-width:1.0;" width="6" x="756.5" y="465.034"/><text fill="#000000" font-family="sans-serif" font-size="14" lengthAdjust="spacing" textLength="279" x="768.5" y="471.9659">QHash&lt;int, SafeDeleteSet&gt; m_entityItems</text><line style="stroke:#181818;stroke-width:0.5;" x1="749.5" x2="1052.5" y1="480.0679" y2="480.0679"/><text fill="#000000" font-family="sans-serif" font-size="14" lengthAdjust="spacing" textLength="226" x="754.5" y="499.0339">void processEvent(QEvent *event)</text><text fill="#000000" font-family="sans-serif" font-size="14" lengthAdjust="spacing" textLength="262" x="754.5" y="518.1018">void addItem(VfCmdEventItemPtr item)</text><text fill="#000000" font-family="sans-serif" font-size="14" lengthAdjust="spacing" textLength="286" x="754.5" y="537.1697">void removeItem(VfCmdEventItemPtr item)</text></g><g id="elem_GMN7"><path d="M411,451.5 L411,514.618 A0,0 0 0 0 411,514.618 L713,514.618 A0,0 0 0 0 713,514.618 L713,487 L748.12,483 L713,479 L713,461.5 L703,451.5 L411,451.5 A0,0 0 0 0 411,451.5 " fill="#FEFFDD" style="stroke:#181818;stroke-width:0.5;"/><path d="M703,451.5 L703,461.5 L713,461.5 L703,451.5 " fill="#FEFFDD" style="stroke:#181818;stroke-width:0.5;"/><text fill="#000000" font-family="sans-serif" font-size="13" lengthAdjust="spacing" textLength="249" x="417" y="470.397">Filter (notification) command-events from</text><text fill="#000000" font-family="sans-serif" font-size="13" lengthAdjust="spacing" textLength="247" x="417" y="488.103">incoming QEvents and distribute them to</text><text fill="#000000" font-family="sans-serif" font-size="13" lengthAdjust="spacing" textLength="281" x="417" y="505.809">VfCmdEventItem items with matching entity ID</text></g><!--class VfEntityEventItem--><g id="elem_VfEntityEventItem"><rect codeLine="26" fill="#F1F1F1" height="124.2717" id="VfEntityEventItem" rx="2.5" ry="2.5" style="stroke:#181818;stroke-width:0.5;" width="449" x="676.5" y="624"/><ellipse cx="841.25" cy="640" fill="#A9DCDF" rx="11" ry="11" style="stroke:#181818;stroke-width:1.0;"/><path d="M844.5938,645.25 L843.125,641.5 L838.6875,641.5 L837.25,645.25 L835.125,645.25 L840.0781,632.5313 L841.8281,632.5313 L846.75,645.25 L844.5938,645.25 Z M841.25,636.2969 Q841.2031,636.1406 841.0781,635.7813 Q840.9531,635.4219 840.8438,635.0469 Q840.7344,634.6563 840.9375,634.5938 Q841.0938,634.7813 841,635.1406 Q840.9063,635.4844 840.8125,635.7813 Q840.7188,636.0625 840.6406,636.2969 L839.4063,639.6094 L842.4844,639.6094 L841.25,636.2969 Z " fill="#000000"/><text fill="#000000" font-family="sans-serif" font-size="14" font-style="italic" lengthAdjust="spacing" textLength="111" x="861.75" y="645.432">VfEntityEventItem</text><line style="stroke:#181818;stroke-width:0.5;" x1="677.5" x2="1124.5" y1="656" y2="656"/><line style="stroke:#181818;stroke-width:0.5;" x1="677.5" x2="1124.5" y1="664" y2="664"/><text fill="#000000" font-family="sans-serif" font-size="14" lengthAdjust="spacing" textLength="104" x="682.5" y="682.9659">int getEntityId()</text><text fill="#000000" font-family="sans-serif" font-size="14" lengthAdjust="spacing" textLength="207" x="682.5" y="702.0339">void sendEvent(QEvent *event)</text><text fill="#000000" font-family="sans-serif" font-size="14" font-style="italic" lengthAdjust="spacing" textLength="354" x="682.5" y="721.1018">void processCommandEvent(CommandEvent *cmdEvent)</text><text fill="#000000" font-family="sans-serif" font-size="14" font-style="italic" lengthAdjust="spacing" textLength="437" x="682.5" y="740.1697">void processErrorCommandEventData(EventData *originalEventData)</text></g><!--class VfClientEntitySubscriber--><g id="elem_VfClientEntitySubscriber"><rect codeLine="33" fill="#F1F1F1" height="86.1358" id="VfClientEntitySubscriber" rx="2.5" ry="2.5" style="stroke:#181818;stroke-width:0.5;" width="287" x="1047.5" y="837.5"/><ellipse cx="1105.25" cy="853.5" fill="#ADD1B2" rx="11" ry="11" style="stroke:#181818;stroke-width:1.0;"/><path d="M1105.3594,849.0313 Q1104.4375,849.0313 1103.7031,849.3438 Q1102.9844,849.6563 1102.4844,850.25 Q1101.9844,850.8281 1101.7031,851.7031 Q1101.4375,852.5781 1101.4375,853.6719 Q1101.4375,855.1094 1101.875,856.1563 Q1102.3281,857.2031 1103.1719,857.75 Q1104.0313,858.2969 1105.3438,858.2969 Q1106.125,858.2969 1106.8125,858.1719 Q1107.5156,858.0313 1108.5156,857.7188 L1108.5156,859.5938 Q1107.6563,859.9219 1106.8906,860.0469 Q1106.1406,860.1719 1105.125,860.1719 Q1103.2031,860.1719 1101.8906,859.375 Q1100.5938,858.5625 1099.9375,857.0938 Q1099.2813,855.6094 1099.2813,853.6406 Q1099.2813,852.2188 1099.6719,851.0469 Q1100.0781,849.8594 1100.8594,848.9844 Q1101.6406,848.1094 1102.7813,847.6406 Q1103.9219,847.1563 1105.3906,847.1563 Q1106.3438,847.1563 1107.2344,847.3594 Q1108.1406,847.5469 1109.0781,848.0156 L1108.25,849.7969 Q1107.4688,849.4219 1106.8125,849.2344 Q1106.1563,849.0313 1105.3594,849.0313 Z " fill="#000000"/><text fill="#000000" font-family="sans-serif" font-size="14" lengthAdjust="spacing" textLength="163" x="1125.75" y="858.932">VfClientEntitySubscriber</text><line style="stroke:#181818;stroke-width:0.5;" x1="1048.5" x2="1333.5" y1="869.5" y2="869.5"/><line style="stroke:#181818;stroke-width:0.5;" x1="1048.5" x2="1333.5" y1="877.5" y2="877.5"/><text fill="#000000" font-family="sans-serif" font-size="14" lengthAdjust="spacing" textLength="210" x="1053.5" y="896.4659">void processCommandEvent(...)</text><text fill="#000000" font-family="sans-serif" font-size="14" lengthAdjust="spacing" textLength="275" x="1053.5" y="915.5339">void processErrorCommandEventData(...)</text></g><!--class VfClientEntityUnsubscriber--><g id="elem_VfClientEntityUnsubscriber"><rect codeLine="38" fill="#F1F1F1" height="86.1358" id="VfClientEntityUnsubscriber" rx="2.5" ry="2.5" style="stroke:#181818;stroke-width:0.5;" width="287" x="725.5" y="837.5"/><ellipse cx="774.25" cy="853.5" fill="#ADD1B2" rx="11" ry="11" style="stroke:#181818;stroke-width:1.0;"/><path d="M774.3594,849.0313 Q773.4375,849.0313 772.7031,849.3438 Q771.9844,849.6563 771.4844,850.25 Q770.9844,850.8281 770.7031,851.7031 Q770.4375,852.5781 770.4375,853.6719 Q770.4375,855.1094 770.875,856.1563 Q771.3281,857.2031 772.1719,857.75 Q773.0313,858.2969 774.3438,858.2969 Q775.125,858.2969 775.8125,858.1719 Q776.5156,858.0313 777.5156,857.7188 L777.5156,859.5938 Q776.6563,859.9219 775.8906,860.0469 Q775.1406,860.1719 774.125,860.1719 Q772.2031,860.1719 770.8906,859.375 Q769.5938,858.5625 768.9375,857.0938 Q768.2813,855.6094 768.2813,853.6406 Q768.2813,852.2188 768.6719,851.0469 Q769.0781,849.8594 769.8594,848.9844 Q770.6406,848.1094 771.7813,847.6406 Q772.9219,847.1563 774.3906,847.1563 Q775.3438,847.1563 776.2344,847.3594 Q777.1406,847.5469 778.0781,848.0156 L777.25,849.7969 Q776.4688,849.4219 775.8125,849.2344 Q775.1563,849.0313 774.3594,849.0313 Z " fill="#000000"/><text fill="#000000" font-family="sans-serif" font-size="14" lengthAdjust="spacing" textLength="181" x="794.75" y="858.932">VfClientEntityUnsubscriber</text><line style="stroke:#181818;stroke-width:0.5;" x1="726.5" x2="1011.5" y1="869.5" y2="869.5"/><line style="stroke:#181818;stroke-width:0.5;" x1="726.5" x2="1011.5" y1="877.5" y2="877.5"/><text fill="#000000" font-family="sans-serif" font-size="14" lengthAdjust="spacing" textLength="210" x="731.5" y="896.4659">void processCommandEvent(...)</text><text fill="#000000" font-family="sans-serif" font-size="14" lengthAdjust="spacing" textLength="275" x="731.5" y="915.5339">void processErrorCommandEventData(...)</text></g><!--class VfCmdEventItemEntity--><g id="elem_VfCmdEventItemEntity"><rect codeLine="43" fill="#F1F1F1" height="143.3396" id="VfCmdEventItemEntity" rx="2.5" ry="2.5" style="stroke:#181818;stroke-width:0.5;" width="377" x="313.5" y="809"/><ellipse cx="422.75" cy="825" fill="#ADD1B2" rx="11" ry="11" style="stroke:#181818;stroke-width:1.0;"/><path d="M422.8594,820.5313 Q421.9375,820.5313 421.2031,820.8438 Q420.4844,821.1563 419.9844,821.75 Q419.4844,822.3281 419.2031,823.2031 Q418.9375,824.0781 418.9375,825.1719 Q418.9375,826.6094 419.375,827.6563 Q419.8281,828.7031 420.6719,829.25 Q421.5313,829.7969 422.8438,829.7969 Q423.625,829.7969 424.3125,829.6719 Q425.0156,829.5313 426.0156,829.2188 L426.0156,831.0938 Q425.1563,831.4219 424.3906,831.5469 Q423.6406,831.6719 422.625,831.6719 Q420.7031,831.6719 419.3906,830.875 Q418.0938,830.0625 417.4375,828.5938 Q416.7813,827.1094 416.7813,825.1406 Q416.7813,823.7188 417.1719,822.5469 Q417.5781,821.3594 418.3594,820.4844 Q419.1406,819.6094 420.2813,819.1406 Q421.4219,818.6563 422.8906,818.6563 Q423.8438,818.6563 424.7344,818.8594 Q425.6406,819.0469 426.5781,819.5156 L425.75,821.2969 Q424.9688,820.9219 424.3125,820.7344 Q423.6563,820.5313 422.8594,820.5313 Z " fill="#000000"/><text fill="#000000" font-family="sans-serif" font-size="14" lengthAdjust="spacing" textLength="150" x="443.25" y="830.432">VfCmdEventItemEntity</text><line style="stroke:#181818;stroke-width:0.5;" x1="314.5" x2="689.5" y1="841" y2="841"/><rect fill="none" height="6" style="stroke:#C82930;stroke-width:1.0;" width="6" x="321.5" y="853.034"/><text fill="#000000" font-family="sans-serif" font-size="14" lengthAdjust="spacing" textLength="351" x="333.5" y="859.9659">QHash&lt;QString, SafeDeleteSet&gt; m_componentItems</text><line style="stroke:#181818;stroke-width:0.5;" x1="314.5" x2="689.5" y1="868.0679" y2="868.0679"/><text fill="#000000" font-family="sans-serif" font-size="14" lengthAdjust="spacing" textLength="210" x="319.5" y="887.0339">void processCommandEvent(...)</text><text fill="#000000" font-family="sans-serif" font-size="14" lengthAdjust="spacing" textLength="275" x="319.5" y="906.1018">void processErrorCommandEventData(...)</text><text fill="#000000" font-family="sans-serif" font-size="14" lengthAdjust="spacing" textLength="340" x="319.5" y="925.1697">void addItem(VfCmdEventItemComponentPtr item)</text><text fill="#000000" font-family="sans-serif" font-size="14" lengthAdjust="spacing" textLength="364" x="319.5" y="944.2376">void removeItem(VfCmdEventItemComponentPtr item)</text></g><g id="elem_GMN14"><path d="M324.5,654.5 L324.5,717.618 A0,0 0 0 0 324.5,717.618 L482.05,717.618 L495.01,808.7 L490.05,717.618 L641.5,717.618 A0,0 0 0 0 641.5,717.618 L641.5,664.5 L631.5,654.5 L324.5,654.5 A0,0 0 0 0 324.5,654.5 " fill="#FEFFDD" style="stroke:#181818;stroke-width:0.5;"/><path d="M631.5,654.5 L631.5,664.5 L641.5,664.5 L631.5,654.5 " fill="#FEFFDD" style="stroke:#181818;stroke-width:0.5;"/><text fill="#000000" font-family="sans-serif" font-size="13" lengthAdjust="spacing" textLength="267" x="330.5" y="673.397">Filter component-(error-)data from incoming</text><text fill="#000000" font-family="sans-serif" font-size="13" lengthAdjust="spacing" textLength="296" x="330.5" y="691.103">command-events/error-event-data and distribute</text><text fill="#000000" font-family="sans-serif" font-size="13" lengthAdjust="spacing" textLength="198" x="330.5" y="708.809">to VfComponentEventItem items</text></g><!--class VfComponentEventItem--><g id="elem_VfComponentEventItem"><rect codeLine="54" fill="#F1F1F1" height="143.3396" id="VfComponentEventItem" rx="2.5" ry="2.5" style="stroke:#181818;stroke-width:0.5;" width="533" x="235.5" y="1057"/><ellipse cx="424.25" cy="1073" fill="#A9DCDF" rx="11" ry="11" style="stroke:#181818;stroke-width:1.0;"/><path d="M427.5938,1078.25 L426.125,1074.5 L421.6875,1074.5 L420.25,1078.25 L418.125,1078.25 L423.0781,1065.5313 L424.8281,1065.5313 L429.75,1078.25 L427.5938,1078.25 Z M424.25,1069.2969 Q424.2031,1069.1406 424.0781,1068.7813 Q423.9531,1068.4219 423.8438,1068.0469 Q423.7344,1067.6563 423.9375,1067.5938 Q424.0938,1067.7813 424,1068.1406 Q423.9063,1068.4844 423.8125,1068.7813 Q423.7188,1069.0625 423.6406,1069.2969 L422.4063,1072.6094 L425.4844,1072.6094 L424.25,1069.2969 Z " fill="#000000"/><text fill="#000000" font-family="sans-serif" font-size="14" font-style="italic" lengthAdjust="spacing" textLength="147" x="444.75" y="1078.432">VfComponentEventItem</text><line style="stroke:#181818;stroke-width:0.5;" x1="236.5" x2="767.5" y1="1089" y2="1089"/><line style="stroke:#181818;stroke-width:0.5;" x1="236.5" x2="767.5" y1="1097" y2="1097"/><text fill="#000000" font-family="sans-serif" font-size="14" lengthAdjust="spacing" textLength="104" x="241.5" y="1115.9659">int getEntityId()</text><text fill="#000000" font-family="sans-serif" font-size="14" lengthAdjust="spacing" textLength="214" x="241.5" y="1135.0339">QString &amp;getComponentName()</text><text fill="#000000" font-family="sans-serif" font-size="14" lengthAdjust="spacing" textLength="207" x="241.5" y="1154.1018">void sendEvent(QEvent *event)</text><text fill="#000000" font-family="sans-serif" font-size="14" font-style="italic" lengthAdjust="spacing" textLength="436" x="241.5" y="1173.1697">void processComponentEventData(ComponentData *componentData)</text><text fill="#000000" font-family="sans-serif" font-size="14" font-style="italic" lengthAdjust="spacing" textLength="521" x="241.5" y="1192.2376">void processErrorComponentEventData(ComponentData *originalComponentData)</text></g><!--class VfClientComponentFetcher--><g id="elem_VfClientComponentFetcher"><rect codeLine="62" fill="#F1F1F1" height="86.1358" id="VfClientComponentFetcher" rx="2.5" ry="2.5" style="stroke:#181818;stroke-width:0.5;" width="296" x="23" y="1261"/><ellipse cx="76.75" cy="1277" fill="#ADD1B2" rx="11" ry="11" style="stroke:#181818;stroke-width:1.0;"/><path d="M76.8594,1272.5313 Q75.9375,1272.5313 75.2031,1272.8438 Q74.4844,1273.1563 73.9844,1273.75 Q73.4844,1274.3281 73.2031,1275.2031 Q72.9375,1276.0781 72.9375,1277.1719 Q72.9375,1278.6094 73.375,1279.6563 Q73.8281,1280.7031 74.6719,1281.25 Q75.5313,1281.7969 76.8438,1281.7969 Q77.625,1281.7969 78.3125,1281.6719 Q79.0156,1281.5313 80.0156,1281.2188 L80.0156,1283.0938 Q79.1563,1283.4219 78.3906,1283.5469 Q77.6406,1283.6719 76.625,1283.6719 Q74.7031,1283.6719 73.3906,1282.875 Q72.0938,1282.0625 71.4375,1280.5938 Q70.7813,1279.1094 70.7813,1277.1406 Q70.7813,1275.7188 71.1719,1274.5469 Q71.5781,1273.3594 72.3594,1272.4844 Q73.1406,1271.6094 74.2813,1271.1406 Q75.4219,1270.6563 76.8906,1270.6563 Q77.8438,1270.6563 78.7344,1270.8594 Q79.6406,1271.0469 80.5781,1271.5156 L79.75,1273.2969 Q78.9688,1272.9219 78.3125,1272.7344 Q77.6563,1272.5313 76.8594,1272.5313 Z " fill="#000000"/><text fill="#000000" font-family="sans-serif" font-size="14" lengthAdjust="spacing" textLength="180" x="97.25" y="1282.432">VfClientComponentFetcher</text><line style="stroke:#181818;stroke-width:0.5;" x1="24" x2="318" y1="1293" y2="1293"/><line style="stroke:#181818;stroke-width:0.5;" x1="24" x2="318" y1="1301" y2="1301"/><text fill="#000000" font-family="sans-serif" font-size="14" lengthAdjust="spacing" textLength="250" x="29" y="1319.9659">void processComponentEventData(...)</text><text fill="#000000" font-family="sans-serif" font-size="14" lengthAdjust="spacing" textLength="284" x="29" y="1339.0339">void processErrorComponentEventData(...)</text></g><!--class VfClientComponentSetter--><g id="elem_VfClientComponentSetter"><rect codeLine="67" fill="#F1F1F1" height="86.1358" id="VfClientComponentSetter" rx="2.5" ry="2.5" style="stroke:#181818;stroke-width:0.5;" width="296" x="354" y="1261"/><ellipse cx="412.75" cy="1277" fill="#ADD1B2" rx="11" ry="11" style="stroke:#181818;stroke-width:1.0;"/><path d="M412.8594,1272.5313 Q411.9375,1272.5313 411.2031,1272.8438 Q410.4844,1273.1563 409.9844,1273.75 Q409.4844,1274.3281 409.2031,1275.2031 Q408.9375,1276.0781 408.9375,1277.1719 Q408.9375,1278.6094 409.375,1279.6563 Q409.8281,1280.7031 410.6719,1281.25 Q411.5313,1281.7969 412.8438,1281.7969 Q413.625,1281.7969 414.3125,1281.6719 Q415.0156,1281.5313 416.0156,1281.2188 L416.0156,1283.0938 Q415.1563,1283.4219 414.3906,1283.5469 Q413.6406,1283.6719 412.625,1283.6719 Q410.7031,1283.6719 409.3906,1282.875 Q408.0938,1282.0625 407.4375,1280.5938 Q406.7813,1279.1094 406.7813,1277.1406 Q406.7813,1275.7188 407.1719,1274.5469 Q407.5781,1273.3594 408.3594,1272.4844 Q409.1406,1271.6094 410.2813,1271.1406 Q411.4219,1270.6563 412.8906,1270.6563 Q413.8438,1270.6563 414.7344,1270.8594 Q415.6406,1271.0469 416.5781,1271.5156 L415.75,1273.2969 Q414.9688,1272.9219 414.3125,1272.7344 Q413.6563,1272.5313 412.8594,1272.5313 Z " fill="#000000"/><text fill="#000000" font-family="sans-serif" font-size="14" lengthAdjust="spacing" textLength="170" x="433.25" y="1282.432">VfClientComponentSetter</text><line style="stroke:#181818;stroke-width:0.5;" x1="355" x2="649" y1="1293" y2="1293"/><line style="stroke:#181818;stroke-width:0.5;" x1="355" x2="649" y1="1301" y2="1301"/><text fill="#000000" font-family="sans-serif" font-size="14" lengthAdjust="spacing" textLength="250" x="360" y="1319.9659">void processComponentEventData(...)</text><text fill="#000000" font-family="sans-serif" font-size="14" lengthAdjust="spacing" textLength="284" x="360" y="1339.0339">void processErrorComponentEventData(...)</text></g><!--class VfComponentChangeNotifier--><g id="elem_VfComponentChangeNotifier"><rect codeLine="72" fill="#F1F1F1" height="86.1358" id="VfComponentChangeNotifier" rx="2.5" ry="2.5" style="stroke:#181818;stroke-width:0.5;" width="296" x="685" y="1261"/><ellipse cx="731.75" cy="1277" fill="#ADD1B2" rx="11" ry="11" style="stroke:#181818;stroke-width:1.0;"/><path d="M731.8594,1272.5313 Q730.9375,1272.5313 730.2031,1272.8438 Q729.4844,1273.1563 728.9844,1273.75 Q728.4844,1274.3281 728.2031,1275.2031 Q727.9375,1276.0781 727.9375,1277.1719 Q727.9375,1278.6094 728.375,1279.6563 Q728.8281,1280.7031 729.6719,1281.25 Q730.5313,1281.7969 731.8438,1281.7969 Q732.625,1281.7969 733.3125,1281.6719 Q734.0156,1281.5313 735.0156,1281.2188 L735.0156,1283.0938 Q734.1563,1283.4219 733.3906,1283.5469 Q732.6406,1283.6719 731.625,1283.6719 Q729.7031,1283.6719 728.3906,1282.875 Q727.0938,1282.0625 726.4375,1280.5938 Q725.7813,1279.1094 725.7813,1277.1406 Q725.7813,1275.7188 726.1719,1274.5469 Q726.5781,1273.3594 727.3594,1272.4844 Q728.1406,1271.6094 729.2813,1271.1406 Q730.4219,1270.6563 731.8906,1270.6563 Q732.8438,1270.6563 733.7344,1270.8594 Q734.6406,1271.0469 735.5781,1271.5156 L734.75,1273.2969 Q733.9688,1272.9219 733.3125,1272.7344 Q732.6563,1272.5313 731.8594,1272.5313 Z " fill="#000000"/><text fill="#000000" font-family="sans-serif" font-size="14" lengthAdjust="spacing" textLength="194" x="752.25" y="1282.432">VfComponentChangeNotifier</text><line style="stroke:#181818;stroke-width:0.5;" x1="686" x2="980" y1="1293" y2="1293"/><line style="stroke:#181818;stroke-width:0.5;" x1="686" x2="980" y1="1301" y2="1301"/><text fill="#000000" font-family="sans-serif" font-size="14" lengthAdjust="spacing" textLength="246" x="691" y="1319.9659">void processComponentEventData(..)</text><text fill="#000000" font-family="sans-serif" font-size="14" lengthAdjust="spacing" textLength="284" x="691" y="1339.0339">void processErrorComponentEventData(...)</text></g><!--reverse link EventSystem to VfCmdEventHandlerSystem--><g id="link_EventSystem_VfCmdEventHandlerSystem"><path codeLine="78" d="M901,152.68 C901,165.52 901,178.99 901,191.74 " fill="none" id="EventSystem-backto-VfCmdEventHandlerSystem" style="stroke:#181818;stroke-width:1.0;"/><polygon fill="none" points="894,152.75,901,132.75,908,152.75,894,152.75" style="stroke:#181818;stroke-width:1.0;"/></g><!--reverse link VfCmdEventHandlerSystem to VfCmdEventHandler--><g id="link_VfCmdEventHandlerSystem_VfCmdEventHandler"><path codeLine="80" d="M901,330.84 C901,359.99 901,392.88 901,420.52 " fill="none" id="VfCmdEventHandlerSystem-backto-VfCmdEventHandler" style="stroke:#181818;stroke-width:1.0;"/><polygon fill="#181818" points="901,317.94,897,323.94,901,329.94,905,323.94,901,317.94" style="stroke:#181818;stroke-width:1.0;"/><polygon fill="#000000" points="906,362.853,908.9389,353.8079,903.0611,353.8079,906,362.853" style="stroke:#000000;stroke-width:1.0;"/><text fill="#000000" font-family="sans-serif" font-size="13" lengthAdjust="spacing" textLength="32" x="915" y="362.897">owns</text><text fill="#000000" font-family="sans-serif" font-size="13" lengthAdjust="spacing" textLength="7" x="893.5953" y="409.2351">1</text></g><!--reverse link VfCmdEventHandler to VfEntityEventItem--><g id="link_VfCmdEventHandler_VfEntityEventItem"><path codeLine="81" d="M901,559.71 C901,580.81 901,603.47 901,623.63 " fill="none" id="VfCmdEventHandler-backto-VfEntityEventItem" style="stroke:#181818;stroke-width:1.0;"/><polygon fill="none" points="901,546.91,897,552.91,901,558.91,905,552.91,901,546.91" style="stroke:#181818;stroke-width:1.0;"/><polygon fill="#000000" points="906,589.853,908.9389,580.8079,903.0611,580.8079,906,589.853" style="stroke:#000000;stroke-width:1.0;"/><text fill="#000000" font-family="sans-serif" font-size="13" lengthAdjust="spacing" textLength="139" x="915" y="589.897">has shared entity items</text><text fill="#000000" font-family="sans-serif" font-size="13" lengthAdjust="spacing" textLength="20" x="879.8438" y="612.3578">0..*</text></g><!--reverse link VfEntityEventItem to VfClientEntitySubscriber--><g id="link_VfEntityEventItem_VfClientEntitySubscriber"><path codeLine="83" d="M1011.27,760.19 C1050.47,786.21 1093.26,814.62 1127.26,837.19 " fill="none" id="VfEntityEventItem-backto-VfClientEntitySubscriber" style="stroke:#181818;stroke-width:1.0;"/><polygon fill="none" points="1007.61,766.17,994.82,749.27,1015.35,754.5,1007.61,766.17" style="stroke:#181818;stroke-width:1.0;"/></g><!--reverse link VfEntityEventItem to VfClientEntityUnsubscriber--><g id="link_VfEntityEventItem_VfClientEntityUnsubscriber"><path codeLine="84" d="M887.3,769.42 C883.41,792.79 879.35,817.27 876.03,837.19 " fill="none" id="VfEntityEventItem-backto-VfClientEntityUnsubscriber" style="stroke:#181818;stroke-width:1.0;"/><polygon fill="none" points="880.35,768.51,890.54,749.93,894.16,770.81,880.35,768.51" style="stroke:#181818;stroke-width:1.0;"/></g><!--reverse link VfEntityEventItem to VfCmdEventItemEntity--><g id="link_VfEntityEventItem_VfCmdEventItemEntity"><path codeLine="86" d="M754.28,757.78 C719.93,774.36 683.34,792.01 648.97,808.59 " fill="none" id="VfEntityEventItem-backto-VfCmdEventItemEntity" style="stroke:#181818;stroke-width:1.0;"/><polygon fill="none" points="751.24,751.48,772.29,749.1,757.32,764.09,751.24,751.48" style="stroke:#181818;stroke-width:1.0;"/></g><!--reverse link VfCmdEventItemEntity to VfComponentEventItem--><g id="link_VfCmdEventItemEntity_VfComponentEventItem"><path codeLine="87" d="M502,966.48 C502,995.92 502,1028.58 502,1056.75 " fill="none" id="VfCmdEventItemEntity-backto-VfComponentEventItem" style="stroke:#181818;stroke-width:1.0;"/><polygon fill="none" points="502,953.84,498,959.84,502,965.84,506,959.84,502,953.84" style="stroke:#181818;stroke-width:1.0;"/><polygon fill="#000000" points="507,998.853,509.9389,989.8079,504.0611,989.8079,507,998.853" style="stroke:#000000;stroke-width:1.0;"/><text fill="#000000" font-family="sans-serif" font-size="13" lengthAdjust="spacing" textLength="174" x="516" y="998.897">has shared component items</text><text fill="#000000" font-family="sans-serif" font-size="13" lengthAdjust="spacing" textLength="20" x="480.9688" y="1045.3901">0..*</text></g><!--reverse link VfComponentEventItem to VfClientComponentFetcher--><g id="link_VfComponentEventItem_VfClientComponentFetcher"><path codeLine="89" d="M348.03,1210.21 C314.87,1227.59 281.09,1245.3 252.05,1260.52 " fill="none" id="VfComponentEventItem-backto-VfClientComponentFetcher" style="stroke:#181818;stroke-width:1.0;"/><polygon fill="none" points="344.59,1204.11,365.55,1201.02,351.09,1216.51,344.59,1204.11" style="stroke:#181818;stroke-width:1.0;"/></g><!--reverse link VfComponentEventItem to VfClientComponentSetter--><g id="link_VfComponentEventItem_VfClientComponentSetter"><path codeLine="90" d="M502,1221.62 C502,1235.21 502,1248.62 502,1260.52 " fill="none" id="VfComponentEventItem-backto-VfClientComponentSetter" style="stroke:#181818;stroke-width:1.0;"/><polygon fill="none" points="495,1221.83,502,1201.83,509,1221.83,495,1221.83" style="stroke:#181818;stroke-width:1.0;"/></g><!--reverse link VfComponentEventItem to VfComponentChangeNotifier--><g id="link_VfComponentEventItem_VfComponentChangeNotifier"><path codeLine="91" d="M655.97,1210.21 C689.13,1227.59 722.91,1245.3 751.95,1260.52 " fill="none" id="VfComponentEventItem-backto-VfComponentChangeNotifier" style="stroke:#181818;stroke-width:1.0;"/><polygon fill="none" points="652.91,1216.51,638.45,1201.02,659.41,1204.11,652.91,1216.51" style="stroke:#181818;stroke-width:1.0;"/></g><!--SRC=[nLPRRzCm57xFhpZgmvHMfB0oSQcc2j6kiB6DZR0zJK9USj9Q97PbkvqcuBzpd5kJDhqC2UX37Tld-lbynvwnu3kR8BGMo8KNAPRWWrJVWGk3Ac81jk3uU6oN1mFuuG3zsBqsYWK6WfXf3ISB5CP_r0QJNC3-D9y85iD2yj1- -oZ2LD2zJWVee1tQfVoFmkglJ6UcP81QRzJvvQH35i9jD4moyn-P26DKQ-6is-nsk-twDWl3Kz9obzRizCeeu3Ik22jCv0BtalVMmeFaMo2JX8dQQfuNPURCYbCv4OQRHqWJXuZ7T2XSJE00GguDlvyRBiNw2Mr0PIiU6yxbxo9p_P7fwJ7LsZFmMOGZZD6WZsP0266QkbNKEJBsNqY346Da-Z1EuG2NbdZ40sQnQ4CEh9VceI5IChaJND2o1IxBKWD9f10gYo62cLAr67adwX6duMfuu6OA2JF1r9h8ueBJaTF4XjieExAbZINeb2TCq6G2fw6x0fp-GuuCAwNaLYVG2V9aTlDCAQcgkYDcc5j-GKSgFk74w7AfcOOnf-qiGNz-hmF2TsFTrU9Uf-FMo4hnBG7S2FrVGgWKK4xVl-Xy1qT9SIO5JPvArYsAEMklVMDxKGDpWqAtaRn6pa16ZK2Ld2ujU2xQ_BrsQAlGaXaABj-9EjMVPvBfn4l5woI_4qPQhuNf5PRRlbkstL8eCxHNurrh10sUia9exWCvdd10MwNg9LdFztVtYCtzeH97MZxbKaRke3hTQgkenXq6Ysunh1icYEj4BVV7IDsrfEcEwClYtoUoL7YpOofPys_y5YB3AHCJl4mlhVqzFzankQw-p8v_UjwcTvBZR7f0TKYfTTXgU4hqGJu83ODrLP1MwKMtssart8Pzc38DUieKXiLLcjso0nl6gdWHTkEzifzyzHhOvcAj6pcDlRoMNGF5QmcMnAhcsA1K2tkL54zHoSfvkqPp8JhEE-ejSog6gvW9StDn3WjKcjeS77PxBtelkw_TiU9mmHxXi0U7R_kzb_sZ7WnF_AzWzzkEU_xXwXoqdAi0butNligSCxPWy6LE42ROXyyp56UZJyK2d8W5Lr8a59HpTdkn57XrvBtd1dnK50lSNZWZZDWyDgGHo92wPHzklewzDyuvfJAdrjsdcdA6akmgkark_Dy0]--></g></svg>