<?xml version="1.0" encoding="us-ascii" standalone="no"?><svg xmlns="http://www.w3.org/2000/svg" xmlns:xlink="http://www.w3.org/1999/xlink" contentStyleType="text/css" height="1407px" preserveAspectRatio="none" style="width:1558px;height:1407px;background:#FFFFFF;" version="1.1" viewBox="0 0 1558 1407" width="1558px" zoomAndPan="magnify"><defs/><g><!--cluster vein-framework interface--><g id="cluster_vein-framework interface"><rect fill="none" height="325" rx="2.5" ry="2.5" style="stroke:#181818;stroke-width:1.0;" width="374" x="838" y="7"/><path d="M1027.0625,7 L1027.0625,19.0679 L1017.0625,29.0679 L838,29.0679 " fill="none" style="stroke:#181818;stroke-width:1.0;"/><text fill="#000000" font-family="sans-serif" font-size="14" font-weight="bold" lengthAdjust="spacing" textLength="179.0625" x="841" y="22.9659">vein-framework interface</text></g><!--cluster Entity event filtering & distibution--><g id="cluster_Entity event filtering &amp; distibution"><rect fill="none" height="585" rx="2.5" ry="2.5" style="stroke:#181818;stroke-width:1.0;" width="1144" x="408" y="383"/><path d="M660,383 L660,395.0679 L650,405.0679 L408,405.0679 " fill="none" style="stroke:#181818;stroke-width:1.0;"/><text fill="#000000" font-family="sans-serif" font-size="14" font-weight="bold" lengthAdjust="spacing" textLength="242" x="411" y="398.9659">Entity event filtering &amp; distibution</text></g><!--cluster Component-data filtering & distibution--><g id="cluster_Component-data filtering &amp; distibution"><rect fill="none" height="382" rx="2.5" ry="2.5" style="stroke:#181818;stroke-width:1.0;" width="1173" x="7" y="1019"/><path d="M294.3125,1019 L294.3125,1031.0679 L284.3125,1041.0679 L7,1041.0679 " fill="none" style="stroke:#181818;stroke-width:1.0;"/><text fill="#000000" font-family="sans-serif" font-size="14" font-weight="bold" lengthAdjust="spacing" textLength="277.3125" x="10" y="1034.9659">Component-data filtering &amp; distibution</text></g><!--class EventSystem--><g id="elem_EventSystem"><rect codeLine="3" fill="#F1F1F1" height="86.1358" id="EventSystem" rx="2.5" ry="2.5" style="stroke:#181818;stroke-width:0.5;" width="285" x="882.5" y="45"/><ellipse cx="981.75" cy="61" fill="#A9DCDF" rx="11" ry="11" style="stroke:#181818;stroke-width:1.0;"/><path d="M985.0938,66.25 L983.625,62.5 L979.1875,62.5 L977.75,66.25 L975.625,66.25 L980.5781,53.5313 L982.3281,53.5313 L987.25,66.25 L985.0938,66.25 Z M981.75,57.2969 Q981.7031,57.1406 981.5781,56.7813 Q981.4531,56.4219 981.3438,56.0469 Q981.2344,55.6563 981.4375,55.5938 Q981.5938,55.7813 981.5,56.1406 Q981.4063,56.4844 981.3125,56.7813 Q981.2188,57.0625 981.1406,57.2969 L979.9063,60.6094 L982.9844,60.6094 L981.75,57.2969 Z " fill="#000000"/><text fill="#000000" font-family="sans-serif" font-size="14" font-style="italic" lengthAdjust="spacing" textLength="78" x="1002.25" y="66.432">EventSystem</text><line style="stroke:#181818;stroke-width:0.5;" x1="883.5" x2="1166.5" y1="77" y2="77"/><line style="stroke:#181818;stroke-width:0.5;" x1="883.5" x2="1166.5" y1="85" y2="85"/><text fill="#000000" font-family="sans-serif" font-size="14" lengthAdjust="spacing" textLength="273" x="888.5" y="103.9659">signal void sigSendEvent(QEvent *event)</text><text fill="#000000" font-family="sans-serif" font-size="14" font-style="italic" lengthAdjust="spacing" textLength="210" x="888.5" y="123.0339">void processEvent(QEvent *event)</text></g><!--class VfCmdEventHandlerSystem--><g id="elem_VfCmdEventHandlerSystem"><rect codeLine="8" fill="#F1F1F1" height="124.2717" id="VfCmdEventHandlerSystem" rx="2.5" ry="2.5" style="stroke:#181818;stroke-width:0.5;" width="342" x="854" y="192"/><ellipse cx="929.25" cy="208" fill="#ADD1B2" rx="11" ry="11" style="stroke:#181818;stroke-width:1.0;"/><path d="M929.3594,203.5313 Q928.4375,203.5313 927.7031,203.8438 Q926.9844,204.1563 926.4844,204.75 Q925.9844,205.3281 925.7031,206.2031 Q925.4375,207.0781 925.4375,208.1719 Q925.4375,209.6094 925.875,210.6563 Q926.3281,211.7031 927.1719,212.25 Q928.0313,212.7969 929.3438,212.7969 Q930.125,212.7969 930.8125,212.6719 Q931.5156,212.5313 932.5156,212.2188 L932.5156,214.0938 Q931.6563,214.4219 930.8906,214.5469 Q930.1406,214.6719 929.125,214.6719 Q927.2031,214.6719 925.8906,213.875 Q924.5938,213.0625 923.9375,211.5938 Q923.2813,210.1094 923.2813,208.1406 Q923.2813,206.7188 923.6719,205.5469 Q924.0781,204.3594 924.8594,203.4844 Q925.6406,202.6094 926.7813,202.1406 Q927.9219,201.6563 929.3906,201.6563 Q930.3438,201.6563 931.2344,201.8594 Q932.1406,202.0469 933.0781,202.5156 L932.25,204.2969 Q931.4688,203.9219 930.8125,203.7344 Q930.1563,203.5313 929.3594,203.5313 Z " fill="#000000"/><text fill="#000000" font-family="sans-serif" font-size="14" lengthAdjust="spacing" textLength="183" x="949.75" y="213.432">VfCmdEventHandlerSystem</text><line style="stroke:#181818;stroke-width:0.5;" x1="855" x2="1195" y1="224" y2="224"/><rect fill="none" height="6" style="stroke:#C82930;stroke-width:1.0;" width="6" x="862" y="236.034"/><text fill="#000000" font-family="sans-serif" font-size="14" lengthAdjust="spacing" textLength="316" x="874" y="242.9659">VfCmdEventHandler m_commandEventHandler</text><line style="stroke:#181818;stroke-width:0.5;" x1="855" x2="1195" y1="251.0679" y2="251.0679"/><text fill="#000000" font-family="sans-serif" font-size="14" lengthAdjust="spacing" textLength="141" x="860" y="270.0339">void processEvent(...)</text><text fill="#000000" font-family="sans-serif" font-size="14" lengthAdjust="spacing" textLength="262" x="860" y="289.1018">void addItem(VfCmdEventItemPtr item)</text><text fill="#000000" font-family="sans-serif" font-size="14" lengthAdjust="spacing" textLength="286" x="860" y="308.1697">void removeItem(VfCmdEventItemPtr item)</text></g><!--class VfCmdEventHandler--><g id="elem_VfCmdEventHandler"><rect codeLine="18" fill="#F1F1F1" height="124.2717" id="VfCmdEventHandler" rx="2.5" ry="2.5" style="stroke:#181818;stroke-width:0.5;" width="305" x="872.5" y="421"/><ellipse cx="953.25" cy="437" fill="#ADD1B2" rx="11" ry="11" style="stroke:#181818;stroke-width:1.0;"/><path d="M953.3594,432.5313 Q952.4375,432.5313 951.7031,432.8438 Q950.9844,433.1563 950.4844,433.75 Q949.9844,434.3281 949.7031,435.2031 Q949.4375,436.0781 949.4375,437.1719 Q949.4375,438.6094 949.875,439.6563 Q950.3281,440.7031 951.1719,441.25 Q952.0313,441.7969 953.3438,441.7969 Q954.125,441.7969 954.8125,441.6719 Q955.5156,441.5313 956.5156,441.2188 L956.5156,443.0938 Q955.6563,443.4219 954.8906,443.5469 Q954.1406,443.6719 953.125,443.6719 Q951.2031,443.6719 949.8906,442.875 Q948.5938,442.0625 947.9375,440.5938 Q947.2813,439.1094 947.2813,437.1406 Q947.2813,435.7188 947.6719,434.5469 Q948.0781,433.3594 948.8594,432.4844 Q949.6406,431.6094 950.7813,431.1406 Q951.9219,430.6563 953.3906,430.6563 Q954.3438,430.6563 955.2344,430.8594 Q956.1406,431.0469 957.0781,431.5156 L956.25,433.2969 Q955.4688,432.9219 954.8125,432.7344 Q954.1563,432.5313 953.3594,432.5313 Z " fill="#000000"/><text fill="#000000" font-family="sans-serif" font-size="14" lengthAdjust="spacing" textLength="135" x="973.75" y="442.432">VfCmdEventHandler</text><line style="stroke:#181818;stroke-width:0.5;" x1="873.5" x2="1176.5" y1="453" y2="453"/><rect fill="none" height="6" style="stroke:#C82930;stroke-width:1.0;" width="6" x="880.5" y="465.034"/><text fill="#000000" font-family="sans-serif" font-size="14" lengthAdjust="spacing" textLength="279" x="892.5" y="471.9659">QHash&lt;int, SafeDeleteSet&gt; m_entityItems</text><line style="stroke:#181818;stroke-width:0.5;" x1="873.5" x2="1176.5" y1="480.0679" y2="480.0679"/><text fill="#000000" font-family="sans-serif" font-size="14" lengthAdjust="spacing" textLength="226" x="878.5" y="499.0339">void processEvent(QEvent *event)</text><text fill="#000000" font-family="sans-serif" font-size="14" lengthAdjust="spacing" textLength="262" x="878.5" y="518.1018">void addItem(VfCmdEventItemPtr item)</text><text fill="#000000" font-family="sans-serif" font-size="14" lengthAdjust="spacing" textLength="286" x="878.5" y="537.1697">void removeItem(VfCmdEventItemPtr item)</text></g><g id="elem_GMN7"><path d="M535,451.5 L535,514.618 A0,0 0 0 0 535,514.618 L837,514.618 A0,0 0 0 0 837,514.618 L837,487 L872.12,483 L837,479 L837,461.5 L827,451.5 L535,451.5 A0,0 0 0 0 535,451.5 " fill="#FEFFDD" style="stroke:#181818;stroke-width:0.5;"/><path d="M827,451.5 L827,461.5 L837,461.5 L827,451.5 " fill="#FEFFDD" style="stroke:#181818;stroke-width:0.5;"/><text fill="#000000" font-family="sans-serif" font-size="13" lengthAdjust="spacing" textLength="249" x="541" y="470.397">Filter (notification) command-events from</text><text fill="#000000" font-family="sans-serif" font-size="13" lengthAdjust="spacing" textLength="247" x="541" y="488.103">incoming QEvents and distribute them to</text><text fill="#000000" font-family="sans-serif" font-size="13" lengthAdjust="spacing" textLength="281" x="541" y="505.809">VfCmdEventItem items with matching entity ID</text></g><!--class VfEntityEventItem--><g id="elem_VfEntityEventItem"><rect codeLine="26" fill="#F1F1F1" height="124.2717" id="VfEntityEventItem" rx="2.5" ry="2.5" style="stroke:#181818;stroke-width:0.5;" width="449" x="800.5" y="624"/><ellipse cx="965.25" cy="640" fill="#A9DCDF" rx="11" ry="11" style="stroke:#181818;stroke-width:1.0;"/><path d="M968.5938,645.25 L967.125,641.5 L962.6875,641.5 L961.25,645.25 L959.125,645.25 L964.0781,632.5313 L965.8281,632.5313 L970.75,645.25 L968.5938,645.25 Z M965.25,636.2969 Q965.2031,636.1406 965.0781,635.7813 Q964.9531,635.4219 964.8438,635.0469 Q964.7344,634.6563 964.9375,634.5938 Q965.0938,634.7813 965,635.1406 Q964.9063,635.4844 964.8125,635.7813 Q964.7188,636.0625 964.6406,636.2969 L963.4063,639.6094 L966.4844,639.6094 L965.25,636.2969 Z " fill="#000000"/><text fill="#000000" font-family="sans-serif" font-size="14" font-style="italic" lengthAdjust="spacing" textLength="111" x="985.75" y="645.432">VfEntityEventItem</text><line style="stroke:#181818;stroke-width:0.5;" x1="801.5" x2="1248.5" y1="656" y2="656"/><line style="stroke:#181818;stroke-width:0.5;" x1="801.5" x2="1248.5" y1="664" y2="664"/><text fill="#000000" font-family="sans-serif" font-size="14" lengthAdjust="spacing" textLength="104" x="806.5" y="682.9659">int getEntityId()</text><text fill="#000000" font-family="sans-serif" font-size="14" lengthAdjust="spacing" textLength="207" x="806.5" y="702.0339">void sendEvent(QEvent *event)</text><text fill="#000000" font-family="sans-serif" font-size="14" font-style="italic" lengthAdjust="spacing" textLength="354" x="806.5" y="721.1018">void processCommandEvent(CommandEvent *cmdEvent)</text><text fill="#000000" font-family="sans-serif" font-size="14" font-style="italic" lengthAdjust="spacing" textLength="437" x="806.5" y="740.1697">void processErrorCommandEventData(EventData *originalEventData)</text></g><!--class VfClientEntitySubscriber--><g id="elem_VfClientEntitySubscriber"><rect codeLine="33" fill="#F1F1F1" height="124.2717" id="VfClientEntitySubscriber" rx="2.5" ry="2.5" style="stroke:#181818;stroke-width:0.5;" width="323" x="1212.5" y="818.5"/><ellipse cx="1288.25" cy="834.5" fill="#ADD1B2" rx="11" ry="11" style="stroke:#181818;stroke-width:1.0;"/><path d="M1288.3594,830.0313 Q1287.4375,830.0313 1286.7031,830.3438 Q1285.9844,830.6563 1285.4844,831.25 Q1284.9844,831.8281 1284.7031,832.7031 Q1284.4375,833.5781 1284.4375,834.6719 Q1284.4375,836.1094 1284.875,837.1563 Q1285.3281,838.2031 1286.1719,838.75 Q1287.0313,839.2969 1288.3438,839.2969 Q1289.125,839.2969 1289.8125,839.1719 Q1290.5156,839.0313 1291.5156,838.7188 L1291.5156,840.5938 Q1290.6563,840.9219 1289.8906,841.0469 Q1289.1406,841.1719 1288.125,841.1719 Q1286.2031,841.1719 1284.8906,840.375 Q1283.5938,839.5625 1282.9375,838.0938 Q1282.2813,836.6094 1282.2813,834.6406 Q1282.2813,833.2188 1282.6719,832.0469 Q1283.0781,830.8594 1283.8594,829.9844 Q1284.6406,829.1094 1285.7813,828.6406 Q1286.9219,828.1563 1288.3906,828.1563 Q1289.3438,828.1563 1290.2344,828.3594 Q1291.1406,828.5469 1292.0781,829.0156 L1291.25,830.7969 Q1290.4688,830.4219 1289.8125,830.2344 Q1289.1563,830.0313 1288.3594,830.0313 Z " fill="#000000"/><text fill="#000000" font-family="sans-serif" font-size="14" lengthAdjust="spacing" textLength="163" x="1308.75" y="839.932">VfClientEntitySubscriber</text><line style="stroke:#181818;stroke-width:0.5;" x1="1213.5" x2="1534.5" y1="850.5" y2="850.5"/><line style="stroke:#181818;stroke-width:0.5;" x1="1213.5" x2="1534.5" y1="858.5" y2="858.5"/><text fill="#000000" font-family="sans-serif" font-size="14" lengthAdjust="spacing" textLength="210" x="1218.5" y="877.4659">void processCommandEvent(...)</text><text fill="#000000" font-family="sans-serif" font-size="14" lengthAdjust="spacing" textLength="275" x="1218.5" y="896.5339">void processErrorCommandEventData(...)</text><text fill="#000000" font-family="sans-serif" font-size="14" lengthAdjust="spacing" textLength="158" x="1218.5" y="915.6018">void sendSubscription()</text><text fill="#000000" font-family="sans-serif" font-size="14" lengthAdjust="spacing" textLength="311" x="1218.5" y="934.6697">signal void sigSubscribed(bool ok, int entityId)</text></g><!--class VfClientEntityUnsubscriber--><g id="elem_VfClientEntityUnsubscriber"><rect codeLine="40" fill="#F1F1F1" height="124.2717" id="VfClientEntityUnsubscriber" rx="2.5" ry="2.5" style="stroke:#181818;stroke-width:0.5;" width="341" x="836.5" y="818.5"/><ellipse cx="912.25" cy="834.5" fill="#ADD1B2" rx="11" ry="11" style="stroke:#181818;stroke-width:1.0;"/><path d="M912.3594,830.0313 Q911.4375,830.0313 910.7031,830.3438 Q909.9844,830.6563 909.4844,831.25 Q908.9844,831.8281 908.7031,832.7031 Q908.4375,833.5781 908.4375,834.6719 Q908.4375,836.1094 908.875,837.1563 Q909.3281,838.2031 910.1719,838.75 Q911.0313,839.2969 912.3438,839.2969 Q913.125,839.2969 913.8125,839.1719 Q914.5156,839.0313 915.5156,838.7188 L915.5156,840.5938 Q914.6563,840.9219 913.8906,841.0469 Q913.1406,841.1719 912.125,841.1719 Q910.2031,841.1719 908.8906,840.375 Q907.5938,839.5625 906.9375,838.0938 Q906.2813,836.6094 906.2813,834.6406 Q906.2813,833.2188 906.6719,832.0469 Q907.0781,830.8594 907.8594,829.9844 Q908.6406,829.1094 909.7813,828.6406 Q910.9219,828.1563 912.3906,828.1563 Q913.3438,828.1563 914.2344,828.3594 Q915.1406,828.5469 916.0781,829.0156 L915.25,830.7969 Q914.4688,830.4219 913.8125,830.2344 Q913.1563,830.0313 912.3594,830.0313 Z " fill="#000000"/><text fill="#000000" font-family="sans-serif" font-size="14" lengthAdjust="spacing" textLength="181" x="932.75" y="839.932">VfClientEntityUnsubscriber</text><line style="stroke:#181818;stroke-width:0.5;" x1="837.5" x2="1176.5" y1="850.5" y2="850.5"/><line style="stroke:#181818;stroke-width:0.5;" x1="837.5" x2="1176.5" y1="858.5" y2="858.5"/><text fill="#000000" font-family="sans-serif" font-size="14" lengthAdjust="spacing" textLength="210" x="842.5" y="877.4659">void processCommandEvent(...)</text><text fill="#000000" font-family="sans-serif" font-size="14" lengthAdjust="spacing" textLength="275" x="842.5" y="896.5339">void processErrorCommandEventData(...)</text><text fill="#000000" font-family="sans-serif" font-size="14" lengthAdjust="spacing" textLength="176" x="842.5" y="915.6018">void sendUnsubscription()</text><text fill="#000000" font-family="sans-serif" font-size="14" lengthAdjust="spacing" textLength="329" x="842.5" y="934.6697">signal void sigUnsubscribed(bool ok, int entityId)</text></g><!--class VfEntityComponentEventItem--><g id="elem_VfEntityComponentEventItem"><rect codeLine="47" fill="#F1F1F1" height="143.3396" id="VfEntityComponentEventItem" rx="2.5" ry="2.5" style="stroke:#181818;stroke-width:0.5;" width="377" x="424.5" y="809"/><ellipse cx="510.25" cy="825" fill="#ADD1B2" rx="11" ry="11" style="stroke:#181818;stroke-width:1.0;"/><path d="M510.3594,820.5313 Q509.4375,820.5313 508.7031,820.8438 Q507.9844,821.1563 507.4844,821.75 Q506.9844,822.3281 506.7031,823.2031 Q506.4375,824.0781 506.4375,825.1719 Q506.4375,826.6094 506.875,827.6563 Q507.3281,828.7031 508.1719,829.25 Q509.0313,829.7969 510.3438,829.7969 Q511.125,829.7969 511.8125,829.6719 Q512.5156,829.5313 513.5156,829.2188 L513.5156,831.0938 Q512.6563,831.4219 511.8906,831.5469 Q511.1406,831.6719 510.125,831.6719 Q508.2031,831.6719 506.8906,830.875 Q505.5938,830.0625 504.9375,828.5938 Q504.2813,827.1094 504.2813,825.1406 Q504.2813,823.7188 504.6719,822.5469 Q505.0781,821.3594 505.8594,820.4844 Q506.6406,819.6094 507.7813,819.1406 Q508.9219,818.6563 510.3906,818.6563 Q511.3438,818.6563 512.2344,818.8594 Q513.1406,819.0469 514.0781,819.5156 L513.25,821.2969 Q512.4688,820.9219 511.8125,820.7344 Q511.1563,820.5313 510.3594,820.5313 Z " fill="#000000"/><text fill="#000000" font-family="sans-serif" font-size="14" lengthAdjust="spacing" textLength="197" x="530.75" y="830.432">VfEntityComponentEventItem</text><line style="stroke:#181818;stroke-width:0.5;" x1="425.5" x2="800.5" y1="841" y2="841"/><rect fill="none" height="6" style="stroke:#C82930;stroke-width:1.0;" width="6" x="432.5" y="853.034"/><text fill="#000000" font-family="sans-serif" font-size="14" lengthAdjust="spacing" textLength="351" x="444.5" y="859.9659">QHash&lt;QString, SafeDeleteSet&gt; m_componentItems</text><line style="stroke:#181818;stroke-width:0.5;" x1="425.5" x2="800.5" y1="868.0679" y2="868.0679"/><text fill="#000000" font-family="sans-serif" font-size="14" lengthAdjust="spacing" textLength="210" x="430.5" y="887.0339">void processCommandEvent(...)</text><text fill="#000000" font-family="sans-serif" font-size="14" lengthAdjust="spacing" textLength="275" x="430.5" y="906.1018">void processErrorCommandEventData(...)</text><text fill="#000000" font-family="sans-serif" font-size="14" lengthAdjust="spacing" textLength="340" x="430.5" y="925.1697">void addItem(VfCmdEventItemComponentPtr item)</text><text fill="#000000" font-family="sans-serif" font-size="14" lengthAdjust="spacing" textLength="364" x="430.5" y="944.2376">void removeItem(VfCmdEventItemComponentPtr item)</text></g><g id="elem_GMN14"><path d="M448.5,654.5 L448.5,717.618 A0,0 0 0 0 448.5,717.618 L603.96,717.618 L610.79,808.7 L611.96,717.618 L765.5,717.618 A0,0 0 0 0 765.5,717.618 L765.5,664.5 L755.5,654.5 L448.5,654.5 A0,0 0 0 0 448.5,654.5 " fill="#FEFFDD" style="stroke:#181818;stroke-width:0.5;"/><path d="M755.5,654.5 L755.5,664.5 L765.5,664.5 L755.5,654.5 " fill="#FEFFDD" style="stroke:#181818;stroke-width:0.5;"/><text fill="#000000" font-family="sans-serif" font-size="13" lengthAdjust="spacing" textLength="267" x="454.5" y="673.397">Filter component-(error-)data from incoming</text><text fill="#000000" font-family="sans-serif" font-size="13" lengthAdjust="spacing" textLength="296" x="454.5" y="691.103">command-events/error-event-data and distribute</text><text fill="#000000" font-family="sans-serif" font-size="13" lengthAdjust="spacing" textLength="198" x="454.5" y="708.809">to VfComponentEventItem items</text></g><!--class VfComponentEventItem--><g id="elem_VfComponentEventItem"><rect codeLine="58" fill="#F1F1F1" height="143.3396" id="VfComponentEventItem" rx="2.5" ry="2.5" style="stroke:#181818;stroke-width:0.5;" width="533" x="346.5" y="1057"/><ellipse cx="535.25" cy="1073" fill="#A9DCDF" rx="11" ry="11" style="stroke:#181818;stroke-width:1.0;"/><path d="M538.5938,1078.25 L537.125,1074.5 L532.6875,1074.5 L531.25,1078.25 L529.125,1078.25 L534.0781,1065.5313 L535.8281,1065.5313 L540.75,1078.25 L538.5938,1078.25 Z M535.25,1069.2969 Q535.2031,1069.1406 535.0781,1068.7813 Q534.9531,1068.4219 534.8438,1068.0469 Q534.7344,1067.6563 534.9375,1067.5938 Q535.0938,1067.7813 535,1068.1406 Q534.9063,1068.4844 534.8125,1068.7813 Q534.7188,1069.0625 534.6406,1069.2969 L533.4063,1072.6094 L536.4844,1072.6094 L535.25,1069.2969 Z " fill="#000000"/><text fill="#000000" font-family="sans-serif" font-size="14" font-style="italic" lengthAdjust="spacing" textLength="147" x="555.75" y="1078.432">VfComponentEventItem</text><line style="stroke:#181818;stroke-width:0.5;" x1="347.5" x2="878.5" y1="1089" y2="1089"/><line style="stroke:#181818;stroke-width:0.5;" x1="347.5" x2="878.5" y1="1097" y2="1097"/><text fill="#000000" font-family="sans-serif" font-size="14" lengthAdjust="spacing" textLength="104" x="352.5" y="1115.9659">int getEntityId()</text><text fill="#000000" font-family="sans-serif" font-size="14" lengthAdjust="spacing" textLength="214" x="352.5" y="1135.0339">QString &amp;getComponentName()</text><text fill="#000000" font-family="sans-serif" font-size="14" lengthAdjust="spacing" textLength="207" x="352.5" y="1154.1018">void sendEvent(QEvent *event)</text><text fill="#000000" font-family="sans-serif" font-size="14" font-style="italic" lengthAdjust="spacing" textLength="436" x="352.5" y="1173.1697">void processComponentEventData(ComponentData *componentData)</text><text fill="#000000" font-family="sans-serif" font-size="14" font-style="italic" lengthAdjust="spacing" textLength="521" x="352.5" y="1192.2376">void processErrorComponentEventData(ComponentData *originalComponentData)</text></g><!--class VfClientComponentFetcher--><g id="elem_VfClientComponentFetcher"><rect codeLine="66" fill="#F1F1F1" height="124.2717" id="VfClientComponentFetcher" rx="2.5" ry="2.5" style="stroke:#181818;stroke-width:0.5;" width="335" x="23.5" y="1261"/><ellipse cx="96.75" cy="1277" fill="#ADD1B2" rx="11" ry="11" style="stroke:#181818;stroke-width:1.0;"/><path d="M96.8594,1272.5313 Q95.9375,1272.5313 95.2031,1272.8438 Q94.4844,1273.1563 93.9844,1273.75 Q93.4844,1274.3281 93.2031,1275.2031 Q92.9375,1276.0781 92.9375,1277.1719 Q92.9375,1278.6094 93.375,1279.6563 Q93.8281,1280.7031 94.6719,1281.25 Q95.5313,1281.7969 96.8438,1281.7969 Q97.625,1281.7969 98.3125,1281.6719 Q99.0156,1281.5313 100.0156,1281.2188 L100.0156,1283.0938 Q99.1563,1283.4219 98.3906,1283.5469 Q97.6406,1283.6719 96.625,1283.6719 Q94.7031,1283.6719 93.3906,1282.875 Q92.0938,1282.0625 91.4375,1280.5938 Q90.7813,1279.1094 90.7813,1277.1406 Q90.7813,1275.7188 91.1719,1274.5469 Q91.5781,1273.3594 92.3594,1272.4844 Q93.1406,1271.6094 94.2813,1271.1406 Q95.4219,1270.6563 96.8906,1270.6563 Q97.8438,1270.6563 98.7344,1270.8594 Q99.6406,1271.0469 100.5781,1271.5156 L99.75,1273.2969 Q98.9688,1272.9219 98.3125,1272.7344 Q97.6563,1272.5313 96.8594,1272.5313 Z " fill="#000000"/><text fill="#000000" font-family="sans-serif" font-size="14" lengthAdjust="spacing" textLength="180" x="117.25" y="1282.432">VfClientComponentFetcher</text><line style="stroke:#181818;stroke-width:0.5;" x1="24.5" x2="357.5" y1="1293" y2="1293"/><line style="stroke:#181818;stroke-width:0.5;" x1="24.5" x2="357.5" y1="1301" y2="1301"/><text fill="#000000" font-family="sans-serif" font-size="14" lengthAdjust="spacing" textLength="250" x="29.5" y="1319.9659">void processComponentEventData(...)</text><text fill="#000000" font-family="sans-serif" font-size="14" lengthAdjust="spacing" textLength="284" x="29.5" y="1339.0339">void processErrorComponentEventData(...)</text><text fill="#000000" font-family="sans-serif" font-size="14" lengthAdjust="spacing" textLength="172" x="29.5" y="1358.1018">void startGetComponent()</text><text fill="#000000" font-family="sans-serif" font-size="14" lengthAdjust="spacing" textLength="323" x="29.5" y="1377.1697">signal void sigGetFinish(bool ok, QVariant value)</text></g><!--class VfClientComponentSetter--><g id="elem_VfClientComponentSetter"><rect codeLine="73" fill="#F1F1F1" height="124.2717" id="VfClientComponentSetter" rx="2.5" ry="2.5" style="stroke:#181818;stroke-width:0.5;" width="439" x="393.5" y="1261"/><ellipse cx="523.75" cy="1277" fill="#ADD1B2" rx="11" ry="11" style="stroke:#181818;stroke-width:1.0;"/><path d="M523.8594,1272.5313 Q522.9375,1272.5313 522.2031,1272.8438 Q521.4844,1273.1563 520.9844,1273.75 Q520.4844,1274.3281 520.2031,1275.2031 Q519.9375,1276.0781 519.9375,1277.1719 Q519.9375,1278.6094 520.375,1279.6563 Q520.8281,1280.7031 521.6719,1281.25 Q522.5313,1281.7969 523.8438,1281.7969 Q524.625,1281.7969 525.3125,1281.6719 Q526.0156,1281.5313 527.0156,1281.2188 L527.0156,1283.0938 Q526.1563,1283.4219 525.3906,1283.5469 Q524.6406,1283.6719 523.625,1283.6719 Q521.7031,1283.6719 520.3906,1282.875 Q519.0938,1282.0625 518.4375,1280.5938 Q517.7813,1279.1094 517.7813,1277.1406 Q517.7813,1275.7188 518.1719,1274.5469 Q518.5781,1273.3594 519.3594,1272.4844 Q520.1406,1271.6094 521.2813,1271.1406 Q522.4219,1270.6563 523.8906,1270.6563 Q524.8438,1270.6563 525.7344,1270.8594 Q526.6406,1271.0469 527.5781,1271.5156 L526.75,1273.2969 Q525.9688,1272.9219 525.3125,1272.7344 Q524.6563,1272.5313 523.8594,1272.5313 Z " fill="#000000"/><text fill="#000000" font-family="sans-serif" font-size="14" lengthAdjust="spacing" textLength="170" x="544.25" y="1282.432">VfClientComponentSetter</text><line style="stroke:#181818;stroke-width:0.5;" x1="394.5" x2="831.5" y1="1293" y2="1293"/><line style="stroke:#181818;stroke-width:0.5;" x1="394.5" x2="831.5" y1="1301" y2="1301"/><text fill="#000000" font-family="sans-serif" font-size="14" lengthAdjust="spacing" textLength="250" x="399.5" y="1319.9659">void processComponentEventData(...)</text><text fill="#000000" font-family="sans-serif" font-size="14" lengthAdjust="spacing" textLength="284" x="399.5" y="1339.0339">void processErrorComponentEventData(...)</text><text fill="#000000" font-family="sans-serif" font-size="14" lengthAdjust="spacing" textLength="427" x="399.5" y="1358.1018">void startSetComponent(QVariant oldValue, QVariant newValue)</text><text fill="#000000" font-family="sans-serif" font-size="14" lengthAdjust="spacing" textLength="214" x="399.5" y="1377.1697">signal void sigSetFinish(bool ok)</text></g><!--class VfComponentChangeNotifier--><g id="elem_VfComponentChangeNotifier"><rect codeLine="80" fill="#F1F1F1" height="105.2038" id="VfComponentChangeNotifier" rx="2.5" ry="2.5" style="stroke:#181818;stroke-width:0.5;" width="296" x="868" y="1270.5"/><ellipse cx="914.75" cy="1286.5" fill="#ADD1B2" rx="11" ry="11" style="stroke:#181818;stroke-width:1.0;"/><path d="M914.8594,1282.0313 Q913.9375,1282.0313 913.2031,1282.3438 Q912.4844,1282.6563 911.9844,1283.25 Q911.4844,1283.8281 911.2031,1284.7031 Q910.9375,1285.5781 910.9375,1286.6719 Q910.9375,1288.1094 911.375,1289.1563 Q911.8281,1290.2031 912.6719,1290.75 Q913.5313,1291.2969 914.8438,1291.2969 Q915.625,1291.2969 916.3125,1291.1719 Q917.0156,1291.0313 918.0156,1290.7188 L918.0156,1292.5938 Q917.1563,1292.9219 916.3906,1293.0469 Q915.6406,1293.1719 914.625,1293.1719 Q912.7031,1293.1719 911.3906,1292.375 Q910.0938,1291.5625 909.4375,1290.0938 Q908.7813,1288.6094 908.7813,1286.6406 Q908.7813,1285.2188 909.1719,1284.0469 Q909.5781,1282.8594 910.3594,1281.9844 Q911.1406,1281.1094 912.2813,1280.6406 Q913.4219,1280.1563 914.8906,1280.1563 Q915.8438,1280.1563 916.7344,1280.3594 Q917.6406,1280.5469 918.5781,1281.0156 L917.75,1282.7969 Q916.9688,1282.4219 916.3125,1282.2344 Q915.6563,1282.0313 914.8594,1282.0313 Z " fill="#000000"/><text fill="#000000" font-family="sans-serif" font-size="14" lengthAdjust="spacing" textLength="194" x="935.25" y="1291.932">VfComponentChangeNotifier</text><line style="stroke:#181818;stroke-width:0.5;" x1="869" x2="1163" y1="1302.5" y2="1302.5"/><line style="stroke:#181818;stroke-width:0.5;" x1="869" x2="1163" y1="1310.5" y2="1310.5"/><text fill="#000000" font-family="sans-serif" font-size="14" lengthAdjust="spacing" textLength="246" x="874" y="1329.4659">void processComponentEventData(..)</text><text fill="#000000" font-family="sans-serif" font-size="14" lengthAdjust="spacing" textLength="284" x="874" y="1348.5339">void processErrorComponentEventData(...)</text><text fill="#000000" font-family="sans-serif" font-size="14" lengthAdjust="spacing" textLength="203" x="874" y="1367.6018">signal void sigValueChanged()</text></g><!--reverse link EventSystem to VfCmdEventHandlerSystem--><g id="link_EventSystem_VfCmdEventHandlerSystem"><path codeLine="87" d="M1025,152.68 C1025,165.52 1025,178.99 1025,191.74 " fill="none" id="EventSystem-backto-VfCmdEventHandlerSystem" style="stroke:#181818;stroke-width:1.0;"/><polygon fill="none" points="1018,152.75,1025,132.75,1032,152.75,1018,152.75" style="stroke:#181818;stroke-width:1.0;"/></g><!--reverse link VfCmdEventHandlerSystem to VfCmdEventHandler--><g id="link_VfCmdEventHandlerSystem_VfCmdEventHandler"><path codeLine="89" d="M1025,330.84 C1025,359.99 1025,392.88 1025,420.52 " fill="none" id="VfCmdEventHandlerSystem-backto-VfCmdEventHandler" style="stroke:#181818;stroke-width:1.0;"/><polygon fill="#181818" points="1025,317.94,1021,323.94,1025,329.94,1029,323.94,1025,317.94" style="stroke:#181818;stroke-width:1.0;"/><polygon fill="#000000" points="1030,362.853,1032.9389,353.8079,1027.0611,353.8079,1030,362.853" style="stroke:#000000;stroke-width:1.0;"/><text fill="#000000" font-family="sans-serif" font-size="13" lengthAdjust="spacing" textLength="32" x="1039" y="362.897">owns</text><text fill="#000000" font-family="sans-serif" font-size="13" lengthAdjust="spacing" textLength="7" x="1017.5953" y="409.2351">1</text></g><!--reverse link VfCmdEventHandler to VfEntityEventItem--><g id="link_VfCmdEventHandler_VfEntityEventItem"><path codeLine="90" d="M1025,559.71 C1025,580.81 1025,603.47 1025,623.63 " fill="none" id="VfCmdEventHandler-backto-VfEntityEventItem" style="stroke:#181818;stroke-width:1.0;"/><polygon fill="none" points="1025,546.91,1021,552.91,1025,558.91,1029,552.91,1025,546.91" style="stroke:#181818;stroke-width:1.0;"/><polygon fill="#000000" points="1030,589.853,1032.9389,580.8079,1027.0611,580.8079,1030,589.853" style="stroke:#000000;stroke-width:1.0;"/><text fill="#000000" font-family="sans-serif" font-size="13" lengthAdjust="spacing" textLength="139" x="1039" y="589.897">has shared entity items</text><text fill="#000000" font-family="sans-serif" font-size="13" lengthAdjust="spacing" textLength="20" x="1003.8438" y="612.3578">0..*</text></g><!--reverse link VfEntityEventItem to VfClientEntitySubscriber--><g id="link_VfEntityEventItem_VfClientEntitySubscriber"><path codeLine="92" d="M1155.17,758.8 C1190.56,778.32 1228.54,799.27 1262.78,818.15 " fill="none" id="VfEntityEventItem-backto-VfClientEntitySubscriber" style="stroke:#181818;stroke-width:1.0;"/><polygon fill="none" points="1151.84,764.96,1137.71,749.17,1158.6,752.7,1151.84,764.96" style="stroke:#181818;stroke-width:1.0;"/></g><!--reverse link VfEntityEventItem to VfClientEntityUnsubscriber--><g id="link_VfEntityEventItem_VfClientEntityUnsubscriber"><path codeLine="93" d="M1017.26,769.77 C1015.74,786.07 1014.16,802.89 1012.72,818.32 " fill="none" id="VfEntityEventItem-backto-VfClientEntityUnsubscriber" style="stroke:#181818;stroke-width:1.0;"/><polygon fill="none" points="1010.28,769.21,1019.11,749.94,1024.22,770.51,1010.28,769.21" style="stroke:#181818;stroke-width:1.0;"/></g><!--reverse link VfEntityEventItem to VfEntityComponentEventItem--><g id="link_VfEntityEventItem_VfEntityComponentEventItem"><path codeLine="95" d="M874.49,757.32 C838.74,774.03 800.57,791.86 764.76,808.59 " fill="none" id="VfEntityEventItem-backto-VfEntityComponentEventItem" style="stroke:#181818;stroke-width:1.0;"/><polygon fill="none" points="871.05,751.2,892.14,749.08,876.98,763.89,871.05,751.2" style="stroke:#181818;stroke-width:1.0;"/></g><!--reverse link VfEntityComponentEventItem to VfComponentEventItem--><g id="link_VfEntityComponentEventItem_VfComponentEventItem"><path codeLine="96" d="M613,966.48 C613,995.92 613,1028.58 613,1056.75 " fill="none" id="VfEntityComponentEventItem-backto-VfComponentEventItem" style="stroke:#181818;stroke-width:1.0;"/><polygon fill="none" points="613,953.84,609,959.84,613,965.84,617,959.84,613,953.84" style="stroke:#181818;stroke-width:1.0;"/><polygon fill="#000000" points="618,998.853,620.9389,989.8079,615.0611,989.8079,618,998.853" style="stroke:#000000;stroke-width:1.0;"/><text fill="#000000" font-family="sans-serif" font-size="13" lengthAdjust="spacing" textLength="174" x="627" y="998.897">has shared component items</text><text fill="#000000" font-family="sans-serif" font-size="13" lengthAdjust="spacing" textLength="20" x="591.9688" y="1045.3901">0..*</text></g><!--reverse link VfComponentEventItem to VfClientComponentFetcher--><g id="link_VfComponentEventItem_VfClientComponentFetcher"><path codeLine="98" d="M437.92,1209.36 C400.42,1226.47 361.36,1244.29 325.67,1260.57 " fill="none" id="VfComponentEventItem-backto-VfClientComponentFetcher" style="stroke:#181818;stroke-width:1.0;"/><polygon fill="none" points="434.88,1203.06,455.98,1201.12,440.69,1215.79,434.88,1203.06" style="stroke:#181818;stroke-width:1.0;"/></g><!--reverse link VfComponentEventItem to VfClientComponentSetter--><g id="link_VfComponentEventItem_VfClientComponentSetter"><path codeLine="99" d="M613,1221.69 C613,1234.96 613,1248.33 613,1260.8 " fill="none" id="VfComponentEventItem-backto-VfClientComponentSetter" style="stroke:#181818;stroke-width:1.0;"/><polygon fill="none" points="606,1221.87,613,1201.87,620,1221.87,606,1221.87" style="stroke:#181818;stroke-width:1.0;"/></g><!--reverse link VfComponentEventItem to VfComponentChangeNotifier--><g id="link_VfComponentEventItem_VfComponentChangeNotifier"><path codeLine="100" d="M780.76,1209.63 C823.49,1230.04 868.3,1251.45 907.21,1270.03 " fill="none" id="VfComponentEventItem-backto-VfComponentChangeNotifier" style="stroke:#181818;stroke-width:1.0;"/><polygon fill="none" points="778.03,1216.09,763,1201.15,784.06,1203.45,778.03,1216.09" style="stroke:#181818;stroke-width:1.0;"/></g><!--SRC=[nLPjRzis4FwkNt7mXq8sAgznYxKp0cEO7RV9aZQf6dyAC30IPHEHI8Ea7GHT__kEr8ibwyNEscx-O4datV6UuzrpjoR10rbIw6qfuruaIK8VXNm0nZML4Gbe3qvFvsPvCe6l3k2Ft2ijIQ0XY8bISBQbNFjFIjCa4p0_nPQSnB0LB3JlFkMX5NHlx0C6r3pwXVpNtEgtL6SjHK2LQjNvvjX7wi8YcYQf-G-4Xp6LDNVgDeV3OR-wJSBm7BNSdJNpUQqbC7pk2KkQY2qzIjwhkGV9Nu584i8hgnakHEQiyrivuvhf9x308M8nNWhZItW18LEQtMyq4xn-GorHwOn7oxtytCZSV21gTOgvzX9y4j4PZQccFjKJZ12rq8sYoY9Z_hdG568QwJ7CRJZ0nIKMiO2OMFGX2wndSIY8f4ZkEEEuR0ANebI04ZQ4qiIGWbvXjcXnnwiUMtSLF3AzWeJeO6LCf7x1-SnfgeP5b5xPpiOkw8WJbbId0kUXknSuzIzhP5fA9RVy0OCW0tEupgGKigmx8vgunHiCX6HBXXLTB3MNOSnmEmNeR-vLWF5jpRkAt_LoxFIiBcwYbnsvDfbGYku-5-MEXUwz4368XvVsQhA42myYk-NglyTM77e0NScvv-1BaQ4lQy4Dq8Rq_NduclcbSEQvHDEXc37EZQyDZpQmJf3hDXAF5ciGKKUu2bOgx7WkDL7m-g6f8qD7aBFH7Q-IrI-ffFtmh7YLfkwu5YOLwvTaUSfqZg9n54AfeQDRHutEEbEYdT6o2CCBt2vCVCIJVY3hbVooYLKifPGLb3-FPi03HdCUdDQDDp968JUds3-w-6B_u8DLTLX1QIBr-z85jDC6IiqPPsgruuoR1P6Cu8riIRoXns346jB_1qI_3B5mMyJXmdXUGiBfus87fd5EtGj3C-pyiEcAy2NzQ0UGvm7_3jnxBbj0gIDv0TeXiZoNd_xjUMrJikEqZSy3LEgTz1e6oJ68HwvWKbS5OPHU3OU3NiCiD8OLKQ1MHD8m7wJI6MjYtDWNpzrkd2gEao_tweuZslZSwUYC5QGD-nMm1HcLyJOeLI3iayTpLD9QxDPeJcF7-HqvUOE9SHrZqTnUNSAMIeNj0aw6erUZryEtxbmok29FS3A2az_6ezVZDoEOdlbVmEpt7VVo_VKbAB6H0TqrC3EVEnTaI-3p1eEQq35yMbD-CVipNu0plcLIy0ITSYuMLpk1NzzuVp0DFfNe2ookd1cDo2RMg16843lD66w_pBrtpYL2sM0B76D-ELE1TkKJxld_0000]--></g></svg>