<?xml version="1.0" encoding="us-ascii" standalone="no"?><svg xmlns="http://www.w3.org/2000/svg" xmlns:xlink="http://www.w3.org/1999/xlink" contentStyleType="text/css" height="1369px" preserveAspectRatio="none" style="width:1357px;height:1369px;background:#FFFFFF;" version="1.1" viewBox="0 0 1357 1369" width="1357px" zoomAndPan="magnify"><defs/><g><!--cluster vein-framework interface--><g id="cluster_vein-framework interface"><rect fill="none" height="325" rx="2.5" ry="2.5" style="stroke:#181818;stroke-width:1.0;" width="374" x="655" y="7"/><path d="M844.0625,7 L844.0625,19.0679 L834.0625,29.0679 L655,29.0679 " fill="none" style="stroke:#181818;stroke-width:1.0;"/><text fill="#000000" font-family="sans-serif" font-size="14" font-weight="bold" lengthAdjust="spacing" textLength="179.0625" x="658" y="22.9659">vein-framework interface</text></g><!--cluster Entity event filtering & distibution--><g id="cluster_Entity event filtering &amp; distibution"><rect fill="none" height="604" rx="2.5" ry="2.5" style="stroke:#181818;stroke-width:1.0;" width="1054" x="297" y="383"/><path d="M549,383 L549,395.0679 L539,405.0679 L297,405.0679 " fill="none" style="stroke:#181818;stroke-width:1.0;"/><text fill="#000000" font-family="sans-serif" font-size="14" font-weight="bold" lengthAdjust="spacing" textLength="242" x="300" y="398.9659">Entity event filtering &amp; distibution</text></g><!--cluster Component-data filtering & distibution--><g id="cluster_Component-data filtering &amp; distibution"><rect fill="none" height="325" rx="2.5" ry="2.5" style="stroke:#181818;stroke-width:1.0;" width="990" x="7" y="1038"/><path d="M294.3125,1038 L294.3125,1050.0679 L284.3125,1060.0679 L7,1060.0679 " fill="none" style="stroke:#181818;stroke-width:1.0;"/><text fill="#000000" font-family="sans-serif" font-size="14" font-weight="bold" lengthAdjust="spacing" textLength="277.3125" x="10" y="1053.9659">Component-data filtering &amp; distibution</text></g><!--class EventSystem--><g id="elem_EventSystem"><rect codeLine="3" fill="#F1F1F1" height="86.1358" id="EventSystem" rx="2.5" ry="2.5" style="stroke:#181818;stroke-width:0.5;" width="285" x="713.5" y="45"/><ellipse cx="812.75" cy="61" fill="#A9DCDF" rx="11" ry="11" style="stroke:#181818;stroke-width:1.0;"/><path d="M816.0938,66.25 L814.625,62.5 L810.1875,62.5 L808.75,66.25 L806.625,66.25 L811.5781,53.5313 L813.3281,53.5313 L818.25,66.25 L816.0938,66.25 Z M812.75,57.2969 Q812.7031,57.1406 812.5781,56.7813 Q812.4531,56.4219 812.3438,56.0469 Q812.2344,55.6563 812.4375,55.5938 Q812.5938,55.7813 812.5,56.1406 Q812.4063,56.4844 812.3125,56.7813 Q812.2188,57.0625 812.1406,57.2969 L810.9063,60.6094 L813.9844,60.6094 L812.75,57.2969 Z " fill="#000000"/><text fill="#000000" font-family="sans-serif" font-size="14" font-style="italic" lengthAdjust="spacing" textLength="78" x="833.25" y="66.432">EventSystem</text><line style="stroke:#181818;stroke-width:0.5;" x1="714.5" x2="997.5" y1="77" y2="77"/><line style="stroke:#181818;stroke-width:0.5;" x1="714.5" x2="997.5" y1="85" y2="85"/><text fill="#000000" font-family="sans-serif" font-size="14" lengthAdjust="spacing" textLength="273" x="719.5" y="103.9659">signal void sigSendEvent(QEvent *event)</text><text fill="#000000" font-family="sans-serif" font-size="14" font-style="italic" lengthAdjust="spacing" textLength="210" x="719.5" y="123.0339">void processEvent(QEvent *event)</text></g><!--class VfCmdEventHandlerSystem--><g id="elem_VfCmdEventHandlerSystem"><rect codeLine="8" fill="#F1F1F1" height="124.2717" id="VfCmdEventHandlerSystem" rx="2.5" ry="2.5" style="stroke:#181818;stroke-width:0.5;" width="342" x="671" y="192"/><ellipse cx="746.25" cy="208" fill="#ADD1B2" rx="11" ry="11" style="stroke:#181818;stroke-width:1.0;"/><path d="M746.3594,203.5313 Q745.4375,203.5313 744.7031,203.8438 Q743.9844,204.1563 743.4844,204.75 Q742.9844,205.3281 742.7031,206.2031 Q742.4375,207.0781 742.4375,208.1719 Q742.4375,209.6094 742.875,210.6563 Q743.3281,211.7031 744.1719,212.25 Q745.0313,212.7969 746.3438,212.7969 Q747.125,212.7969 747.8125,212.6719 Q748.5156,212.5313 749.5156,212.2188 L749.5156,214.0938 Q748.6563,214.4219 747.8906,214.5469 Q747.1406,214.6719 746.125,214.6719 Q744.2031,214.6719 742.8906,213.875 Q741.5938,213.0625 740.9375,211.5938 Q740.2813,210.1094 740.2813,208.1406 Q740.2813,206.7188 740.6719,205.5469 Q741.0781,204.3594 741.8594,203.4844 Q742.6406,202.6094 743.7813,202.1406 Q744.9219,201.6563 746.3906,201.6563 Q747.3438,201.6563 748.2344,201.8594 Q749.1406,202.0469 750.0781,202.5156 L749.25,204.2969 Q748.4688,203.9219 747.8125,203.7344 Q747.1563,203.5313 746.3594,203.5313 Z " fill="#000000"/><text fill="#000000" font-family="sans-serif" font-size="14" lengthAdjust="spacing" textLength="183" x="766.75" y="213.432">VfCmdEventHandlerSystem</text><line style="stroke:#181818;stroke-width:0.5;" x1="672" x2="1012" y1="224" y2="224"/><rect fill="none" height="6" style="stroke:#C82930;stroke-width:1.0;" width="6" x="679" y="236.034"/><text fill="#000000" font-family="sans-serif" font-size="14" lengthAdjust="spacing" textLength="316" x="691" y="242.9659">VfCmdEventHandler m_commandEventHandler</text><line style="stroke:#181818;stroke-width:0.5;" x1="672" x2="1012" y1="251.0679" y2="251.0679"/><text fill="#000000" font-family="sans-serif" font-size="14" lengthAdjust="spacing" textLength="141" x="677" y="270.0339">void processEvent(...)</text><text fill="#000000" font-family="sans-serif" font-size="14" lengthAdjust="spacing" textLength="262" x="677" y="289.1018">void addItem(VfCmdEventItemPtr item)</text><text fill="#000000" font-family="sans-serif" font-size="14" lengthAdjust="spacing" textLength="286" x="677" y="308.1697">void removeItem(VfCmdEventItemPtr item)</text></g><!--class VfCmdEventHandler--><g id="elem_VfCmdEventHandler"><rect codeLine="18" fill="#F1F1F1" height="124.2717" id="VfCmdEventHandler" rx="2.5" ry="2.5" style="stroke:#181818;stroke-width:0.5;" width="298" x="710" y="421"/><ellipse cx="787.25" cy="437" fill="#ADD1B2" rx="11" ry="11" style="stroke:#181818;stroke-width:1.0;"/><path d="M787.3594,432.5313 Q786.4375,432.5313 785.7031,432.8438 Q784.9844,433.1563 784.4844,433.75 Q783.9844,434.3281 783.7031,435.2031 Q783.4375,436.0781 783.4375,437.1719 Q783.4375,438.6094 783.875,439.6563 Q784.3281,440.7031 785.1719,441.25 Q786.0313,441.7969 787.3438,441.7969 Q788.125,441.7969 788.8125,441.6719 Q789.5156,441.5313 790.5156,441.2188 L790.5156,443.0938 Q789.6563,443.4219 788.8906,443.5469 Q788.1406,443.6719 787.125,443.6719 Q785.2031,443.6719 783.8906,442.875 Q782.5938,442.0625 781.9375,440.5938 Q781.2813,439.1094 781.2813,437.1406 Q781.2813,435.7188 781.6719,434.5469 Q782.0781,433.3594 782.8594,432.4844 Q783.6406,431.6094 784.7813,431.1406 Q785.9219,430.6563 787.3906,430.6563 Q788.3438,430.6563 789.2344,430.8594 Q790.1406,431.0469 791.0781,431.5156 L790.25,433.2969 Q789.4688,432.9219 788.8125,432.7344 Q788.1563,432.5313 787.3594,432.5313 Z " fill="#000000"/><text fill="#000000" font-family="sans-serif" font-size="14" lengthAdjust="spacing" textLength="135" x="807.75" y="442.432">VfCmdEventHandler</text><line style="stroke:#181818;stroke-width:0.5;" x1="711" x2="1007" y1="453" y2="453"/><rect fill="none" height="6" style="stroke:#C82930;stroke-width:1.0;" width="6" x="718" y="465.034"/><text fill="#000000" font-family="sans-serif" font-size="14" lengthAdjust="spacing" textLength="240" x="730" y="471.9659">QHash&lt;int, SafeDeleteSet&gt; m_items</text><line style="stroke:#181818;stroke-width:0.5;" x1="711" x2="1007" y1="480.0679" y2="480.0679"/><text fill="#000000" font-family="sans-serif" font-size="14" lengthAdjust="spacing" textLength="226" x="716" y="499.0339">void processEvent(QEvent *event)</text><text fill="#000000" font-family="sans-serif" font-size="14" lengthAdjust="spacing" textLength="262" x="716" y="518.1018">void addItem(VfCmdEventItemPtr item)</text><text fill="#000000" font-family="sans-serif" font-size="14" lengthAdjust="spacing" textLength="286" x="716" y="537.1697">void removeItem(VfCmdEventItemPtr item)</text></g><g id="elem_GMN7"><path d="M373,451.5 L373,514.618 A0,0 0 0 0 373,514.618 L675,514.618 A0,0 0 0 0 675,514.618 L675,487 L709.52,483 L675,479 L675,461.5 L665,451.5 L373,451.5 A0,0 0 0 0 373,451.5 " fill="#FEFFDD" style="stroke:#181818;stroke-width:0.5;"/><path d="M665,451.5 L665,461.5 L675,461.5 L665,451.5 " fill="#FEFFDD" style="stroke:#181818;stroke-width:0.5;"/><text fill="#000000" font-family="sans-serif" font-size="13" lengthAdjust="spacing" textLength="249" x="379" y="470.397">Filter (notification) command-events from</text><text fill="#000000" font-family="sans-serif" font-size="13" lengthAdjust="spacing" textLength="247" x="379" y="488.103">incoming QEvents and distribute them to</text><text fill="#000000" font-family="sans-serif" font-size="13" lengthAdjust="spacing" textLength="281" x="379" y="505.809">VfCmdEventItem items with matching entity ID</text></g><!--class VfCmdEventItem--><g id="elem_VfCmdEventItem"><rect codeLine="26" fill="#F1F1F1" height="143.3396" id="VfCmdEventItem" rx="2.5" ry="2.5" style="stroke:#181818;stroke-width:0.5;" width="449" x="673.5" y="624"/><ellipse cx="842.25" cy="640" fill="#A9DCDF" rx="11" ry="11" style="stroke:#181818;stroke-width:1.0;"/><path d="M845.5938,645.25 L844.125,641.5 L839.6875,641.5 L838.25,645.25 L836.125,645.25 L841.0781,632.5313 L842.8281,632.5313 L847.75,645.25 L845.5938,645.25 Z M842.25,636.2969 Q842.2031,636.1406 842.0781,635.7813 Q841.9531,635.4219 841.8438,635.0469 Q841.7344,634.6563 841.9375,634.5938 Q842.0938,634.7813 842,635.1406 Q841.9063,635.4844 841.8125,635.7813 Q841.7188,636.0625 841.6406,636.2969 L840.4063,639.6094 L843.4844,639.6094 L842.25,636.2969 Z " fill="#000000"/><text fill="#000000" font-family="sans-serif" font-size="14" font-style="italic" lengthAdjust="spacing" textLength="103" x="862.75" y="645.432">VfCmdEventItem</text><line style="stroke:#181818;stroke-width:0.5;" x1="674.5" x2="1121.5" y1="656" y2="656"/><rect fill="none" height="6" style="stroke:#C82930;stroke-width:1.0;" width="6" x="681.5" y="668.034"/><text fill="#000000" font-family="sans-serif" font-size="14" lengthAdjust="spacing" textLength="201" x="693.5" y="674.9659">EventSystem* m_eventSystem</text><line style="stroke:#181818;stroke-width:0.5;" x1="674.5" x2="1121.5" y1="683.0679" y2="683.0679"/><text fill="#000000" font-family="sans-serif" font-size="14" lengthAdjust="spacing" textLength="327" x="679.5" y="702.0339">void setEventSystem(EventSystem* eventSystem)</text><text fill="#000000" font-family="sans-serif" font-size="14" lengthAdjust="spacing" textLength="104" x="679.5" y="721.1018">int getEntityId()</text><text fill="#000000" font-family="sans-serif" font-size="14" font-style="italic" lengthAdjust="spacing" textLength="354" x="679.5" y="740.1697">void processCommandEvent(CommandEvent *cmdEvent)</text><text fill="#000000" font-family="sans-serif" font-size="14" font-style="italic" lengthAdjust="spacing" textLength="437" x="679.5" y="759.2376">void processErrorCommandEventData(EventData *originalEventData)</text></g><!--class VfClientEntitySubscriber--><g id="elem_VfClientEntitySubscriber"><rect codeLine="34" fill="#F1F1F1" height="86.1358" id="VfClientEntitySubscriber" rx="2.5" ry="2.5" style="stroke:#181818;stroke-width:0.5;" width="287" x="1047.5" y="856.5"/><ellipse cx="1105.25" cy="872.5" fill="#ADD1B2" rx="11" ry="11" style="stroke:#181818;stroke-width:1.0;"/><path d="M1105.3594,868.0313 Q1104.4375,868.0313 1103.7031,868.3438 Q1102.9844,868.6563 1102.4844,869.25 Q1101.9844,869.8281 1101.7031,870.7031 Q1101.4375,871.5781 1101.4375,872.6719 Q1101.4375,874.1094 1101.875,875.1563 Q1102.3281,876.2031 1103.1719,876.75 Q1104.0313,877.2969 1105.3438,877.2969 Q1106.125,877.2969 1106.8125,877.1719 Q1107.5156,877.0313 1108.5156,876.7188 L1108.5156,878.5938 Q1107.6563,878.9219 1106.8906,879.0469 Q1106.1406,879.1719 1105.125,879.1719 Q1103.2031,879.1719 1101.8906,878.375 Q1100.5938,877.5625 1099.9375,876.0938 Q1099.2813,874.6094 1099.2813,872.6406 Q1099.2813,871.2188 1099.6719,870.0469 Q1100.0781,868.8594 1100.8594,867.9844 Q1101.6406,867.1094 1102.7813,866.6406 Q1103.9219,866.1563 1105.3906,866.1563 Q1106.3438,866.1563 1107.2344,866.3594 Q1108.1406,866.5469 1109.0781,867.0156 L1108.25,868.7969 Q1107.4688,868.4219 1106.8125,868.2344 Q1106.1563,868.0313 1105.3594,868.0313 Z " fill="#000000"/><text fill="#000000" font-family="sans-serif" font-size="14" lengthAdjust="spacing" textLength="163" x="1125.75" y="877.932">VfClientEntitySubscriber</text><line style="stroke:#181818;stroke-width:0.5;" x1="1048.5" x2="1333.5" y1="888.5" y2="888.5"/><line style="stroke:#181818;stroke-width:0.5;" x1="1048.5" x2="1333.5" y1="896.5" y2="896.5"/><text fill="#000000" font-family="sans-serif" font-size="14" lengthAdjust="spacing" textLength="210" x="1053.5" y="915.4659">void processCommandEvent(...)</text><text fill="#000000" font-family="sans-serif" font-size="14" lengthAdjust="spacing" textLength="275" x="1053.5" y="934.5339">void processErrorCommandEventData(...)</text></g><!--class VfClientEntityUnsubscriber--><g id="elem_VfClientEntityUnsubscriber"><rect codeLine="39" fill="#F1F1F1" height="86.1358" id="VfClientEntityUnsubscriber" rx="2.5" ry="2.5" style="stroke:#181818;stroke-width:0.5;" width="287" x="725.5" y="856.5"/><ellipse cx="774.25" cy="872.5" fill="#ADD1B2" rx="11" ry="11" style="stroke:#181818;stroke-width:1.0;"/><path d="M774.3594,868.0313 Q773.4375,868.0313 772.7031,868.3438 Q771.9844,868.6563 771.4844,869.25 Q770.9844,869.8281 770.7031,870.7031 Q770.4375,871.5781 770.4375,872.6719 Q770.4375,874.1094 770.875,875.1563 Q771.3281,876.2031 772.1719,876.75 Q773.0313,877.2969 774.3438,877.2969 Q775.125,877.2969 775.8125,877.1719 Q776.5156,877.0313 777.5156,876.7188 L777.5156,878.5938 Q776.6563,878.9219 775.8906,879.0469 Q775.1406,879.1719 774.125,879.1719 Q772.2031,879.1719 770.8906,878.375 Q769.5938,877.5625 768.9375,876.0938 Q768.2813,874.6094 768.2813,872.6406 Q768.2813,871.2188 768.6719,870.0469 Q769.0781,868.8594 769.8594,867.9844 Q770.6406,867.1094 771.7813,866.6406 Q772.9219,866.1563 774.3906,866.1563 Q775.3438,866.1563 776.2344,866.3594 Q777.1406,866.5469 778.0781,867.0156 L777.25,868.7969 Q776.4688,868.4219 775.8125,868.2344 Q775.1563,868.0313 774.3594,868.0313 Z " fill="#000000"/><text fill="#000000" font-family="sans-serif" font-size="14" lengthAdjust="spacing" textLength="181" x="794.75" y="877.932">VfClientEntityUnsubscriber</text><line style="stroke:#181818;stroke-width:0.5;" x1="726.5" x2="1011.5" y1="888.5" y2="888.5"/><line style="stroke:#181818;stroke-width:0.5;" x1="726.5" x2="1011.5" y1="896.5" y2="896.5"/><text fill="#000000" font-family="sans-serif" font-size="14" lengthAdjust="spacing" textLength="210" x="731.5" y="915.4659">void processCommandEvent(...)</text><text fill="#000000" font-family="sans-serif" font-size="14" lengthAdjust="spacing" textLength="275" x="731.5" y="934.5339">void processErrorCommandEventData(...)</text></g><!--class VfCmdEventItemEntity--><g id="elem_VfCmdEventItemEntity"><rect codeLine="44" fill="#F1F1F1" height="143.3396" id="VfCmdEventItemEntity" rx="2.5" ry="2.5" style="stroke:#181818;stroke-width:0.5;" width="377" x="313.5" y="828"/><ellipse cx="422.75" cy="844" fill="#ADD1B2" rx="11" ry="11" style="stroke:#181818;stroke-width:1.0;"/><path d="M422.8594,839.5313 Q421.9375,839.5313 421.2031,839.8438 Q420.4844,840.1563 419.9844,840.75 Q419.4844,841.3281 419.2031,842.2031 Q418.9375,843.0781 418.9375,844.1719 Q418.9375,845.6094 419.375,846.6563 Q419.8281,847.7031 420.6719,848.25 Q421.5313,848.7969 422.8438,848.7969 Q423.625,848.7969 424.3125,848.6719 Q425.0156,848.5313 426.0156,848.2188 L426.0156,850.0938 Q425.1563,850.4219 424.3906,850.5469 Q423.6406,850.6719 422.625,850.6719 Q420.7031,850.6719 419.3906,849.875 Q418.0938,849.0625 417.4375,847.5938 Q416.7813,846.1094 416.7813,844.1406 Q416.7813,842.7188 417.1719,841.5469 Q417.5781,840.3594 418.3594,839.4844 Q419.1406,838.6094 420.2813,838.1406 Q421.4219,837.6563 422.8906,837.6563 Q423.8438,837.6563 424.7344,837.8594 Q425.6406,838.0469 426.5781,838.5156 L425.75,840.2969 Q424.9688,839.9219 424.3125,839.7344 Q423.6563,839.5313 422.8594,839.5313 Z " fill="#000000"/><text fill="#000000" font-family="sans-serif" font-size="14" lengthAdjust="spacing" textLength="150" x="443.25" y="849.432">VfCmdEventItemEntity</text><line style="stroke:#181818;stroke-width:0.5;" x1="314.5" x2="689.5" y1="860" y2="860"/><rect fill="none" height="6" style="stroke:#C82930;stroke-width:1.0;" width="6" x="321.5" y="872.034"/><text fill="#000000" font-family="sans-serif" font-size="14" lengthAdjust="spacing" textLength="351" x="333.5" y="878.9659">QHash&lt;QString, SafeDeleteSet&gt; m_componentItems</text><line style="stroke:#181818;stroke-width:0.5;" x1="314.5" x2="689.5" y1="887.0679" y2="887.0679"/><text fill="#000000" font-family="sans-serif" font-size="14" lengthAdjust="spacing" textLength="210" x="319.5" y="906.0339">void processCommandEvent(...)</text><text fill="#000000" font-family="sans-serif" font-size="14" lengthAdjust="spacing" textLength="275" x="319.5" y="925.1018">void processErrorCommandEventData(...)</text><text fill="#000000" font-family="sans-serif" font-size="14" lengthAdjust="spacing" textLength="340" x="319.5" y="944.1697">void addItem(VfCmdEventItemComponentPtr item)</text><text fill="#000000" font-family="sans-serif" font-size="14" lengthAdjust="spacing" textLength="364" x="319.5" y="963.2376">void removeItem(VfCmdEventItemComponentPtr item)</text></g><g id="elem_GMN14"><path d="M321.5,664 L321.5,727.118 A0,0 0 0 0 321.5,727.118 L479.34,727.118 L494.29,827.68 L487.34,727.118 L638.5,727.118 A0,0 0 0 0 638.5,727.118 L638.5,674 L628.5,664 L321.5,664 A0,0 0 0 0 321.5,664 " fill="#FEFFDD" style="stroke:#181818;stroke-width:0.5;"/><path d="M628.5,664 L628.5,674 L638.5,674 L628.5,664 " fill="#FEFFDD" style="stroke:#181818;stroke-width:0.5;"/><text fill="#000000" font-family="sans-serif" font-size="13" lengthAdjust="spacing" textLength="267" x="327.5" y="682.897">Filter component-(error-)data from incoming</text><text fill="#000000" font-family="sans-serif" font-size="13" lengthAdjust="spacing" textLength="296" x="327.5" y="700.603">command-events/error-event-data and distribute</text><text fill="#000000" font-family="sans-serif" font-size="13" lengthAdjust="spacing" textLength="226" x="327.5" y="718.309">to VfCmdEventItemComponent items</text></g><!--class VfCmdEventItemComponent--><g id="elem_VfCmdEventItemComponent"><rect codeLine="55" fill="#F1F1F1" height="124.2717" id="VfCmdEventItemComponent" rx="2.5" ry="2.5" style="stroke:#181818;stroke-width:0.5;" width="533" x="235.5" y="1076"/><ellipse cx="410.25" cy="1092" fill="#A9DCDF" rx="11" ry="11" style="stroke:#181818;stroke-width:1.0;"/><path d="M413.5938,1097.25 L412.125,1093.5 L407.6875,1093.5 L406.25,1097.25 L404.125,1097.25 L409.0781,1084.5313 L410.8281,1084.5313 L415.75,1097.25 L413.5938,1097.25 Z M410.25,1088.2969 Q410.2031,1088.1406 410.0781,1087.7813 Q409.9531,1087.4219 409.8438,1087.0469 Q409.7344,1086.6563 409.9375,1086.5938 Q410.0938,1086.7813 410,1087.1406 Q409.9063,1087.4844 409.8125,1087.7813 Q409.7188,1088.0625 409.6406,1088.2969 L408.4063,1091.6094 L411.4844,1091.6094 L410.25,1088.2969 Z " fill="#000000"/><text fill="#000000" font-family="sans-serif" font-size="14" font-style="italic" lengthAdjust="spacing" textLength="175" x="430.75" y="1097.432">VfCmdEventItemComponent</text><line style="stroke:#181818;stroke-width:0.5;" x1="236.5" x2="767.5" y1="1108" y2="1108"/><line style="stroke:#181818;stroke-width:0.5;" x1="236.5" x2="767.5" y1="1116" y2="1116"/><text fill="#000000" font-family="sans-serif" font-size="14" font-style="italic" lengthAdjust="spacing" textLength="436" x="241.5" y="1134.9659">void processComponentEventData(ComponentData *componentData)</text><text fill="#000000" font-family="sans-serif" font-size="14" font-style="italic" lengthAdjust="spacing" textLength="521" x="241.5" y="1154.0339">void processErrorComponentEventData(ComponentData *originalComponentData)</text><text fill="#000000" font-family="sans-serif" font-size="14" lengthAdjust="spacing" textLength="272" x="241.5" y="1173.1018">VfCmdEventItemEntityPtr getEntityItem()</text><text fill="#000000" font-family="sans-serif" font-size="14" lengthAdjust="spacing" textLength="218" x="241.5" y="1192.1697">QString &amp;getComponentName();</text></g><!--class VfClientComponentFetcher--><g id="elem_VfClientComponentFetcher"><rect codeLine="62" fill="#F1F1F1" height="86.1358" id="VfClientComponentFetcher" rx="2.5" ry="2.5" style="stroke:#181818;stroke-width:0.5;" width="296" x="23" y="1261"/><ellipse cx="76.75" cy="1277" fill="#ADD1B2" rx="11" ry="11" style="stroke:#181818;stroke-width:1.0;"/><path d="M76.8594,1272.5313 Q75.9375,1272.5313 75.2031,1272.8438 Q74.4844,1273.1563 73.9844,1273.75 Q73.4844,1274.3281 73.2031,1275.2031 Q72.9375,1276.0781 72.9375,1277.1719 Q72.9375,1278.6094 73.375,1279.6563 Q73.8281,1280.7031 74.6719,1281.25 Q75.5313,1281.7969 76.8438,1281.7969 Q77.625,1281.7969 78.3125,1281.6719 Q79.0156,1281.5313 80.0156,1281.2188 L80.0156,1283.0938 Q79.1563,1283.4219 78.3906,1283.5469 Q77.6406,1283.6719 76.625,1283.6719 Q74.7031,1283.6719 73.3906,1282.875 Q72.0938,1282.0625 71.4375,1280.5938 Q70.7813,1279.1094 70.7813,1277.1406 Q70.7813,1275.7188 71.1719,1274.5469 Q71.5781,1273.3594 72.3594,1272.4844 Q73.1406,1271.6094 74.2813,1271.1406 Q75.4219,1270.6563 76.8906,1270.6563 Q77.8438,1270.6563 78.7344,1270.8594 Q79.6406,1271.0469 80.5781,1271.5156 L79.75,1273.2969 Q78.9688,1272.9219 78.3125,1272.7344 Q77.6563,1272.5313 76.8594,1272.5313 Z " fill="#000000"/><text fill="#000000" font-family="sans-serif" font-size="14" lengthAdjust="spacing" textLength="180" x="97.25" y="1282.432">VfClientComponentFetcher</text><line style="stroke:#181818;stroke-width:0.5;" x1="24" x2="318" y1="1293" y2="1293"/><line style="stroke:#181818;stroke-width:0.5;" x1="24" x2="318" y1="1301" y2="1301"/><text fill="#000000" font-family="sans-serif" font-size="14" lengthAdjust="spacing" textLength="250" x="29" y="1319.9659">void processComponentEventData(...)</text><text fill="#000000" font-family="sans-serif" font-size="14" lengthAdjust="spacing" textLength="284" x="29" y="1339.0339">void processErrorComponentEventData(...)</text></g><!--class VfClientComponentSetter--><g id="elem_VfClientComponentSetter"><rect codeLine="67" fill="#F1F1F1" height="86.1358" id="VfClientComponentSetter" rx="2.5" ry="2.5" style="stroke:#181818;stroke-width:0.5;" width="296" x="354" y="1261"/><ellipse cx="412.75" cy="1277" fill="#ADD1B2" rx="11" ry="11" style="stroke:#181818;stroke-width:1.0;"/><path d="M412.8594,1272.5313 Q411.9375,1272.5313 411.2031,1272.8438 Q410.4844,1273.1563 409.9844,1273.75 Q409.4844,1274.3281 409.2031,1275.2031 Q408.9375,1276.0781 408.9375,1277.1719 Q408.9375,1278.6094 409.375,1279.6563 Q409.8281,1280.7031 410.6719,1281.25 Q411.5313,1281.7969 412.8438,1281.7969 Q413.625,1281.7969 414.3125,1281.6719 Q415.0156,1281.5313 416.0156,1281.2188 L416.0156,1283.0938 Q415.1563,1283.4219 414.3906,1283.5469 Q413.6406,1283.6719 412.625,1283.6719 Q410.7031,1283.6719 409.3906,1282.875 Q408.0938,1282.0625 407.4375,1280.5938 Q406.7813,1279.1094 406.7813,1277.1406 Q406.7813,1275.7188 407.1719,1274.5469 Q407.5781,1273.3594 408.3594,1272.4844 Q409.1406,1271.6094 410.2813,1271.1406 Q411.4219,1270.6563 412.8906,1270.6563 Q413.8438,1270.6563 414.7344,1270.8594 Q415.6406,1271.0469 416.5781,1271.5156 L415.75,1273.2969 Q414.9688,1272.9219 414.3125,1272.7344 Q413.6563,1272.5313 412.8594,1272.5313 Z " fill="#000000"/><text fill="#000000" font-family="sans-serif" font-size="14" lengthAdjust="spacing" textLength="170" x="433.25" y="1282.432">VfClientComponentSetter</text><line style="stroke:#181818;stroke-width:0.5;" x1="355" x2="649" y1="1293" y2="1293"/><line style="stroke:#181818;stroke-width:0.5;" x1="355" x2="649" y1="1301" y2="1301"/><text fill="#000000" font-family="sans-serif" font-size="14" lengthAdjust="spacing" textLength="250" x="360" y="1319.9659">void processComponentEventData(...)</text><text fill="#000000" font-family="sans-serif" font-size="14" lengthAdjust="spacing" textLength="284" x="360" y="1339.0339">void processErrorComponentEventData(...)</text></g><!--class VfComponentChangeNotifier--><g id="elem_VfComponentChangeNotifier"><rect codeLine="72" fill="#F1F1F1" height="86.1358" id="VfComponentChangeNotifier" rx="2.5" ry="2.5" style="stroke:#181818;stroke-width:0.5;" width="296" x="685" y="1261"/><ellipse cx="731.75" cy="1277" fill="#ADD1B2" rx="11" ry="11" style="stroke:#181818;stroke-width:1.0;"/><path d="M731.8594,1272.5313 Q730.9375,1272.5313 730.2031,1272.8438 Q729.4844,1273.1563 728.9844,1273.75 Q728.4844,1274.3281 728.2031,1275.2031 Q727.9375,1276.0781 727.9375,1277.1719 Q727.9375,1278.6094 728.375,1279.6563 Q728.8281,1280.7031 729.6719,1281.25 Q730.5313,1281.7969 731.8438,1281.7969 Q732.625,1281.7969 733.3125,1281.6719 Q734.0156,1281.5313 735.0156,1281.2188 L735.0156,1283.0938 Q734.1563,1283.4219 733.3906,1283.5469 Q732.6406,1283.6719 731.625,1283.6719 Q729.7031,1283.6719 728.3906,1282.875 Q727.0938,1282.0625 726.4375,1280.5938 Q725.7813,1279.1094 725.7813,1277.1406 Q725.7813,1275.7188 726.1719,1274.5469 Q726.5781,1273.3594 727.3594,1272.4844 Q728.1406,1271.6094 729.2813,1271.1406 Q730.4219,1270.6563 731.8906,1270.6563 Q732.8438,1270.6563 733.7344,1270.8594 Q734.6406,1271.0469 735.5781,1271.5156 L734.75,1273.2969 Q733.9688,1272.9219 733.3125,1272.7344 Q732.6563,1272.5313 731.8594,1272.5313 Z " fill="#000000"/><text fill="#000000" font-family="sans-serif" font-size="14" lengthAdjust="spacing" textLength="194" x="752.25" y="1282.432">VfComponentChangeNotifier</text><line style="stroke:#181818;stroke-width:0.5;" x1="686" x2="980" y1="1293" y2="1293"/><line style="stroke:#181818;stroke-width:0.5;" x1="686" x2="980" y1="1301" y2="1301"/><text fill="#000000" font-family="sans-serif" font-size="14" lengthAdjust="spacing" textLength="246" x="691" y="1319.9659">void processComponentEventData(..)</text><text fill="#000000" font-family="sans-serif" font-size="14" lengthAdjust="spacing" textLength="284" x="691" y="1339.0339">void processErrorComponentEventData(...)</text></g><!--reverse link EventSystem to VfCmdEventHandlerSystem--><g id="link_EventSystem_VfCmdEventHandlerSystem"><path codeLine="78" d="M850.6,152.2 C849.5,165.19 848.33,178.83 847.23,191.74 " fill="none" id="EventSystem-backto-VfCmdEventHandlerSystem" style="stroke:#181818;stroke-width:1.0;"/><polygon fill="none" points="843.59,152.07,852.27,132.74,857.54,153.27,843.59,152.07" style="stroke:#181818;stroke-width:1.0;"/></g><!--reverse link VfCmdEventHandlerSystem to VfCmdEventHandler--><g id="link_VfCmdEventHandlerSystem_VfCmdEventHandler"><path codeLine="80" d="M847.68,330.84 C849.86,359.99 852.33,392.88 854.4,420.52 " fill="none" id="VfCmdEventHandlerSystem-backto-VfCmdEventHandler" style="stroke:#181818;stroke-width:1.0;"/><polygon fill="#181818" points="846.71,317.94,843.1698,324.2223,847.6072,329.9064,851.1474,323.6242,846.71,317.94" style="stroke:#181818;stroke-width:1.0;"/><polygon fill="#000000" points="854.3736,362.839,856.6284,353.5996,850.767,354.0388,854.3736,362.839" style="stroke:#000000;stroke-width:1.0;"/><text fill="#000000" font-family="sans-serif" font-size="13" lengthAdjust="spacing" textLength="32" x="863" y="362.897">owns</text><text fill="#000000" font-family="sans-serif" font-size="13" lengthAdjust="spacing" textLength="7" x="846.4634" y="409.2351">1</text></g><!--reverse link VfCmdEventHandler to VfCmdEventItem--><g id="link_VfCmdEventHandler_VfCmdEventItem"><path codeLine="81" d="M873.01,559.6 C876.88,580.5 881.06,603.09 884.88,623.7 " fill="none" id="VfCmdEventHandler-backto-VfCmdEventItem" style="stroke:#181818;stroke-width:1.0;"/><polygon fill="none" points="870.66,546.94,867.8226,553.5694,872.8507,558.7383,875.6881,552.1089,870.66,546.94" style="stroke:#181818;stroke-width:1.0;"/><polygon fill="#000000" points="883.9104,589.7694,885.1533,580.3404,879.3737,581.4107,883.9104,589.7694" style="stroke:#000000;stroke-width:1.0;"/><text fill="#000000" font-family="sans-serif" font-size="13" lengthAdjust="spacing" textLength="101" x="892" y="589.897">has shared items</text><text fill="#000000" font-family="sans-serif" font-size="13" lengthAdjust="spacing" textLength="20" x="862.4958" y="612.335">0..*</text></g><!--reverse link EventSystem to VfCmdEventItem--><g id="link_EventSystem_VfCmdEventItem"><path codeLine="83" d="M972.7,134.73 C995.98,149.42 1017.42,168.24 1031,192 C1042.67,212.42 1033.9,512.69 1026,545 C1018.86,574.21 1001.5,601 981.79,623.59 " fill="none" id="EventSystem-backto-VfCmdEventItem" style="stroke:#181818;stroke-width:1.0;"/><polygon fill="#181818" points="968.68,132.26,974.2683,140.37,972.9446,134.8701,978.4445,133.5465,968.68,132.26" style="stroke:#181818;stroke-width:1.0;"/><text fill="#000000" font-family="sans-serif" font-size="13" lengthAdjust="spacing" textLength="111" x="1037" y="362.897">emit sigSendEvent</text></g><!--reverse link VfCmdEventItem to VfClientEntitySubscriber--><g id="link_VfCmdEventItem_VfClientEntitySubscriber"><path codeLine="85" d="M1018.55,779.61 C1056.81,805.99 1097.51,834.05 1129.76,856.28 " fill="none" id="VfCmdEventItem-backto-VfClientEntitySubscriber" style="stroke:#181818;stroke-width:1.0;"/><polygon fill="none" points="1014.63,785.41,1002.13,768.29,1022.57,773.88,1014.63,785.41" style="stroke:#181818;stroke-width:1.0;"/></g><!--reverse link VfCmdEventItem to VfClientEntityUnsubscriber--><g id="link_VfCmdEventItem_VfClientEntityUnsubscriber"><path codeLine="86" d="M884.8,788.41 C881.4,812.12 877.9,836.51 875.06,856.28 " fill="none" id="VfCmdEventItem-backto-VfClientEntityUnsubscriber" style="stroke:#181818;stroke-width:1.0;"/><polygon fill="none" points="877.83,787.73,887.6,768.93,891.69,789.72,877.83,787.73" style="stroke:#181818;stroke-width:1.0;"/></g><!--reverse link VfCmdEventItem to VfCmdEventItemEntity--><g id="link_VfCmdEventItem_VfCmdEventItemEntity"><path codeLine="88" d="M739.9,777.15 C707.21,793.82 673.01,811.27 641.06,827.57 " fill="none" id="VfCmdEventItem-backto-VfCmdEventItemEntity" style="stroke:#181818;stroke-width:1.0;"/><polygon fill="none" points="736.6,770.97,757.59,768.12,742.96,783.44,736.6,770.97" style="stroke:#181818;stroke-width:1.0;"/></g><!--reverse link VfCmdEventItemEntity to VfCmdEventItemComponent--><g id="link_VfCmdEventItemEntity_VfCmdEventItemComponent"><path codeLine="89" d="M502,985.78 C502,1015.52 502,1048.29 502,1075.7 " fill="none" id="VfCmdEventItemEntity-backto-VfCmdEventItemComponent" style="stroke:#181818;stroke-width:1.0;"/><polygon fill="none" points="502,972.97,498,978.97,502,984.97,506,978.97,502,972.97" style="stroke:#181818;stroke-width:1.0;"/><polygon fill="#000000" points="507,1017.853,509.9389,1008.8079,504.0611,1008.8079,507,1017.853" style="stroke:#000000;stroke-width:1.0;"/><text fill="#000000" font-family="sans-serif" font-size="13" lengthAdjust="spacing" textLength="174" x="516" y="1017.897">has shared component items</text><text fill="#000000" font-family="sans-serif" font-size="13" lengthAdjust="spacing" textLength="20" x="480.7813" y="1063.9947">0..*</text></g><!--reverse link VfCmdEventItemComponent to VfClientComponentFetcher--><g id="link_VfCmdEventItemComponent_VfClientComponentFetcher"><path codeLine="91" d="M359.08,1209.81 C324.19,1227.1 287.94,1245.06 256.69,1260.55 " fill="none" id="VfCmdEventItemComponent-backto-VfClientComponentFetcher" style="stroke:#181818;stroke-width:1.0;"/><polygon fill="none" points="355.89,1203.58,376.92,1200.97,362.11,1216.12,355.89,1203.58" style="stroke:#181818;stroke-width:1.0;"/></g><!--reverse link VfCmdEventItemComponent to VfClientComponentSetter--><g id="link_VfCmdEventItemComponent_VfClientComponentSetter"><path codeLine="92" d="M502,1221.25 C502,1234.86 502,1248.46 502,1260.55 " fill="none" id="VfCmdEventItemComponent-backto-VfClientComponentSetter" style="stroke:#181818;stroke-width:1.0;"/><polygon fill="none" points="495,1221.58,502,1201.58,509,1221.58,495,1221.58" style="stroke:#181818;stroke-width:1.0;"/></g><!--reverse link VfCmdEventItemComponent to VfComponentChangeNotifier--><g id="link_VfCmdEventItemComponent_VfComponentChangeNotifier"><path codeLine="93" d="M644.92,1209.81 C679.81,1227.1 716.06,1245.06 747.31,1260.55 " fill="none" id="VfCmdEventItemComponent-backto-VfComponentChangeNotifier" style="stroke:#181818;stroke-width:1.0;"/><polygon fill="none" points="641.89,1216.12,627.08,1200.97,648.11,1203.58,641.89,1216.12" style="stroke:#181818;stroke-width:1.0;"/></g><!--SRC=[nLRVRzCm47xFNt7g0qehKbX1_2XJXMXNrh71HjYU9Y4lkRGMYLtPRgS9-Dyv9scQj4dRFG1zg6FxxdpttNrdprdmWqqHMalameiKI_1UgX_0XK4LiG1RS7myjik30VnqW7xiJXl50WD1pBI6aoKAupzeWqakO7-QJmMBOIbvQBzz564gw5wb0tJG3kr2_kVAwkzCPwvaW5etwlnsqY5puIOQ9fdvKoR26DMMEziskzrkkxhDmd12MkxQcfrU6WMSnWrXXObSua7otfPxa7mFP98mKLdDuwB8dFagAoV2SFC0QU0GyPYImiKKda38jU5t2yEbsCvG0oexyMZ8ozz5vkgKwTanrTfJy5c48upHe8zcG0XPKPrZOl-5D0WnHgOFunG8S6c9HpnW5eKsv91wQGGQ8YMJMy45BLl8ilWqa4GAdhBe8PWPrOcHjwBgQ-geXdjkPf0m4yoi2SoICHavTJpOCB21jKPJ8efR-kvasSqcQsm859YIKdhc97JtKcLOgYYtF85Ea3ksdsvAILNM7J73tE8BEbBnAITY5qkbP5PYIhwNegfbRCnfFmlFNzpfW1BIMAALsBQPkzFxGdo70zT2_nSNIWMJC_ql7hw7pgGubu8cZ-Nr3iMSu5U-iMshXkJ1IdTIntOZvo2ZMg2A9b1Oy5oqyNljq5QgPJ-io7yhghtXMIQPJhnKlDeLReMHq11arXbibowQTB6NsJgeJUzi7kl3id9ePdmcjavsiPJHDIXFsyu1pDzZSCN_uRRXkYpPYbWtCLiwcMnU4F24DWjJdmaRj_tEGblbQ24nHkh41KFtG57K_I5XfiBD1rErcdzpxafaE6DYYf_J2-xmanzzC1rTVhyT__AyfjUKupGzipgar3fgrJmu-Y3lXOR1jYf8g_Iys-sqDc_EFioO1ZrZ2iFy7Xvik5dnqYhr0HDkAY_Dih-JSd2r5yy1mkLBej7u5WMSsZRV6FsQ-XKOWchxiO0qwLKytwJE8xMokj-hL5-qZlEUSh6WmhcCcJ3N5-UmHAMf5S9Hj_UyzwBxsXqh3XVi0OvwSFIsttlHVzc3uOd_3Un-st7FFrwUWvOB5U2wFzlNddF6bWo-BWZE1FlmPOxYRFHfjG0dOicL58cjWxERYxN0gvVU1oeK7nNv0ZSNpWWZjeWDQGGof9xKX-jlO- -DSqwXBAYzKsK9PoZ9hg9Bvzh_0m00]--></g></svg>