<?plantuml 1.2026.2?><svg xmlns="http://www.w3.org/2000/svg" xmlns:xlink="http://www.w3.org/1999/xlink" contentStyleType="text/css" data-diagram-type="CLASS" height="300px" preserveAspectRatio="none" style="width:960px;height:300px;background:#FFFFFF;" version="1.1" viewBox="0 0 960 300" width="960px" zoomAndPan="magnify"><defs/><g><!--class EventSystem--><g class="entity" data-qualified-name="EventSystem" data-source-line="2" id="ent0002"><rect fill="#F1F1F1" height="80.5938" rx="2.5" ry="2.5" style="stroke:#181818;stroke-width:0.5;" width="300.75" x="336.43" y="7"/><ellipse cx="436.3988" cy="23" fill="#A9DCDF" rx="11" ry="11" style="stroke:#181818;stroke-width:1;"/><path d="M436.9769,18.2656 L435.0706,23.3906 L438.8831,23.3906 L436.9769,18.2656 Z M435.8363,15.5781 L438.1175,15.5781 L443.0394,28.5 L440.7269,28.5 L439.5863,25.3281 L434.3831,25.3281 L433.2581,28.5 L430.9144,28.5 L435.8363,15.5781 Z " fill="#000000"/><text fill="#000000" font-family="sans-serif" font-size="14" font-style="italic" lengthAdjust="spacing" textLength="92.3125" x="456.8988" y="27.8467">EventSystem</text><line style="stroke:#181818;stroke-width:0.5;" x1="337.43" x2="636.18" y1="39" y2="39"/><line style="stroke:#181818;stroke-width:0.5;" x1="337.43" x2="636.18" y1="47" y2="47"/><text fill="#000000" font-family="sans-serif" font-size="14" lengthAdjust="spacing" textLength="288.75" x="342.43" y="63.9951">signal void sigSendEvent(QEvent *event)</text><text fill="#000000" font-family="sans-serif" font-size="14" font-style="italic" lengthAdjust="spacing" textLength="241.6641" x="342.43" y="80.292">void processEvent(QEvent *event)</text></g><!--class NetworkSystem--><g class="entity" data-qualified-name="NetworkSystem" data-source-line="7" id="ent0003"><rect fill="#F1F1F1" height="96.8906" rx="2.5" ry="2.5" style="stroke:#181818;stroke-width:0.5;" width="469.6182" x="7" y="172.04"/><ellipse cx="182.229" cy="188.04" fill="#ADD1B2" rx="11" ry="11" style="stroke:#181818;stroke-width:1;"/><path d="M186.4634,182.4463 L186.4634,184.9619 Q185.2134,183.8056 184.2915,183.4306 Q183.3853,183.0556 182.354,183.0556 Q180.354,183.0556 179.2915,184.2744 Q178.229,185.4775 178.229,187.8369 Q178.229,190.1963 179.2915,191.415 Q180.354,192.6181 182.354,192.6181 Q183.3853,192.6181 184.2915,192.2431 Q185.2134,191.8681 186.4634,190.7119 L186.4634,193.2119 Q185.4165,193.915 184.4009,194.2275 Q183.4009,194.5244 182.2446,194.5244 Q179.3228,194.5244 177.6196,192.7275 Q175.9321,190.9306 175.9321,187.8369 Q175.9321,184.7431 177.6196,182.9463 Q179.3228,181.1338 182.2446,181.1338 Q183.4165,181.1338 184.4165,181.4463 Q185.4321,181.7431 186.4634,182.4463 Z " fill="#000000"/><text fill="#000000" font-family="sans-serif" font-size="14" lengthAdjust="spacing" textLength="110.6602" x="202.729" y="192.8867">NetworkSystem</text><line style="stroke:#181818;stroke-width:0.5;" x1="8" x2="475.6182" y1="204.04" y2="204.04"/><text fill="#000000" font-family="sans-serif" font-size="14" lengthAdjust="spacing" textLength="228.5527" x="13" y="221.0351">OperationMode operationMode()</text><text fill="#000000" font-family="sans-serif" font-size="14" lengthAdjust="spacing" textLength="457.6182" x="13" y="237.332">void setOperationMode(const OperationMode &amp;t_operationMode)</text><line style="stroke:#181818;stroke-width:0.5;" x1="8" x2="475.6182" y1="244.6338" y2="244.6338"/><text fill="#000000" font-family="sans-serif" font-size="14" lengthAdjust="spacing" textLength="152.5645" x="13" y="261.6289">void processEvent(...)</text></g><!--class TcpSystem--><g class="entity" data-qualified-name="TcpSystem" data-source-line="14" id="ent0004"><rect fill="#F1F1F1" height="145.7813" rx="2.5" ry="2.5" style="stroke:#181818;stroke-width:0.5;" width="441.5703" x="512.02" y="147.6"/><ellipse cx="689.8843" cy="163.6" fill="#ADD1B2" rx="11" ry="11" style="stroke:#181818;stroke-width:1;"/><path d="M694.1186,158.0063 L694.1186,160.5219 Q692.8686,159.3656 691.9468,158.9906 Q691.0405,158.6156 690.0093,158.6156 Q688.0093,158.6156 686.9468,159.8344 Q685.8843,161.0375 685.8843,163.3969 Q685.8843,165.7563 686.9468,166.975 Q688.0093,168.1781 690.0093,168.1781 Q691.0405,168.1781 691.9468,167.8031 Q692.8686,167.4281 694.1186,166.2719 L694.1186,168.7719 Q693.0718,169.475 692.0561,169.7875 Q691.0561,170.0844 689.8999,170.0844 Q686.978,170.0844 685.2749,168.2875 Q683.5874,166.4906 683.5874,163.3969 Q683.5874,160.3031 685.2749,158.5063 Q686.978,156.6938 689.8999,156.6938 Q691.0718,156.6938 692.0718,157.0063 Q693.0874,157.3031 694.1186,158.0063 Z " fill="#000000"/><text fill="#000000" font-family="sans-serif" font-size="14" lengthAdjust="spacing" textLength="77.3418" x="710.3843" y="168.4467">TcpSystem</text><line style="stroke:#181818;stroke-width:0.5;" x1="513.02" x2="952.5903" y1="179.6" y2="179.6"/><line style="stroke:#181818;stroke-width:0.5;" x1="513.02" x2="952.5903" y1="187.6" y2="187.6"/><text fill="#000000" font-family="sans-serif" font-size="14" lengthAdjust="spacing" textLength="152.5645" x="518.02" y="204.5951">void processEvent(...)</text><text fill="#000000" font-family="sans-serif" font-size="14" lengthAdjust="spacing" textLength="429.5703" x="518.02" y="220.892">signal void sigConnnectionEstablished(QUuid t_connectionId)</text><text fill="#000000" font-family="sans-serif" font-size="14" lengthAdjust="spacing" textLength="376.8584" x="518.02" y="237.1889">signal void sigClientConnected(QUuid t_connectionId)</text><text fill="#000000" font-family="sans-serif" font-size="14" lengthAdjust="spacing" textLength="396.7441" x="518.02" y="253.4857">signal void sigClientDisconnected(QUuid t_connectionId)</text><text fill="#000000" font-family="sans-serif" font-size="14" lengthAdjust="spacing" textLength="426.3301" x="518.02" y="269.7826">bool startServer(quint16 t_port, bool t_systemdSocket=true)</text><text fill="#000000" font-family="sans-serif" font-size="14" lengthAdjust="spacing" textLength="425.4482" x="518.02" y="286.0795">void connectToServer(const QString &amp;t_host, quint16 t_port)</text></g><!--reverse link EventSystem to NetworkSystem--><g class="link" data-entity-1="ent0002" data-entity-2="ent0003" data-link-type="extension" data-source-line="23" id="lnk5"><path codeLine="23" d="M415.2324,98.316 C379.4624,123.296 347.85,145.39 310.1,171.78" fill="none" id="EventSystem-backto-NetworkSystem" style="stroke:#181818;stroke-width:1;"/><polygon fill="none" points="429.99,88.01,411.7971,93.3968,418.6677,103.2352,429.99,88.01" style="stroke:#181818;stroke-width:1;"/></g><!--reverse link EventSystem to TcpSystem--><g class="link" data-entity-1="ent0002" data-entity-2="ent0004" data-link-type="extension" data-source-line="24" id="lnk6"><path codeLine="24" d="M558.6353,98.2905 C584.0453,115.9705 600.01,127.07 629.24,147.42" fill="none" id="EventSystem-backto-TcpSystem" style="stroke:#181818;stroke-width:1;"/><polygon fill="none" points="543.86,88.01,555.2085,103.2156,562.0622,93.3654,543.86,88.01" style="stroke:#181818;stroke-width:1;"/></g><?plantuml-src bPB1JiCm38RlVOgSe4Dq4XTES1exS00qTPodDF6sQ5bSOdS8ZRuxQLEXXWq9Sd4YV_xj_8ciYBrKB9ILH69-0CVb1p7inJ4JOP7PE6d50OtkzYKutKFveW_Y2hemwTcZ7DJQoDSU5H2TvTiiYosVWT_HxvAcbq8oUrCr38KrEn1xu2rgYbtM1gnknKiDNh91zuGQ18vF-IGXu_30IKMkq17_KBdWLI8KTKulCvrEHrTOgZeP_nV-Z9qpTCw1wjhDYMLb3Mr1vulN9kHv5KOSie_wVBqrGNuMiVyNFXXIVwYj4Aq8utakmH_0vs-DSNnp6-0QFLz7W5VKcw1BL3lWU_RDsBz1Tec3HhH_KOPtTflE-2rIa4gbUvF7d_BkioZIBtEQ_dwEx0i0?></g></svg>