<?xml version="1.0" encoding="us-ascii" standalone="no"?><svg xmlns="http://www.w3.org/2000/svg" xmlns:xlink="http://www.w3.org/1999/xlink" contentStyleType="text/css" height="322px" preserveAspectRatio="none" style="width:927px;height:322px;background:#FFFFFF;" version="1.1" viewBox="0 0 927 322" width="927px" zoomAndPan="magnify"><defs/><g><!--class EventSystem--><g id="elem_EventSystem"><rect codeLine="2" fill="#F1F1F1" height="86.1358" id="EventSystem" rx="2.5" ry="2.5" style="stroke:#181818;stroke-width:0.5;" width="285" x="327.5" y="7"/><ellipse cx="426.75" cy="23" fill="#A9DCDF" rx="11" ry="11" style="stroke:#181818;stroke-width:1.0;"/><path d="M430.0938,28.25 L428.625,24.5 L424.1875,24.5 L422.75,28.25 L420.625,28.25 L425.5781,15.5313 L427.3281,15.5313 L432.25,28.25 L430.0938,28.25 Z M426.75,19.2969 Q426.7031,19.1406 426.5781,18.7813 Q426.4531,18.4219 426.3438,18.0469 Q426.2344,17.6563 426.4375,17.5938 Q426.5938,17.7813 426.5,18.1406 Q426.4063,18.4844 426.3125,18.7813 Q426.2188,19.0625 426.1406,19.2969 L424.9063,22.6094 L427.9844,22.6094 L426.75,19.2969 Z " fill="#000000"/><text fill="#000000" font-family="sans-serif" font-size="14" font-style="italic" lengthAdjust="spacing" textLength="78" x="447.25" y="28.432">EventSystem</text><line style="stroke:#181818;stroke-width:0.5;" x1="328.5" x2="611.5" y1="39" y2="39"/><line style="stroke:#181818;stroke-width:0.5;" x1="328.5" x2="611.5" y1="47" y2="47"/><text fill="#000000" font-family="sans-serif" font-size="14" lengthAdjust="spacing" textLength="273" x="333.5" y="65.9659">signal void sigSendEvent(QEvent *event)</text><text fill="#000000" font-family="sans-serif" font-size="14" font-style="italic" lengthAdjust="spacing" textLength="210" x="333.5" y="85.0339">void processEvent(QEvent *event)</text></g><!--class NetworkSystem--><g id="elem_NetworkSystem"><rect codeLine="7" fill="#F1F1F1" height="105.2038" id="NetworkSystem" rx="2.5" ry="2.5" style="stroke:#181818;stroke-width:0.5;" width="452" x="7" y="181.5"/><ellipse cx="176.75" cy="197.5" fill="#ADD1B2" rx="11" ry="11" style="stroke:#181818;stroke-width:1.0;"/><path d="M176.8594,193.0313 Q175.9375,193.0313 175.2031,193.3438 Q174.4844,193.6563 173.9844,194.25 Q173.4844,194.8281 173.2031,195.7031 Q172.9375,196.5781 172.9375,197.6719 Q172.9375,199.1094 173.375,200.1563 Q173.8281,201.2031 174.6719,201.75 Q175.5313,202.2969 176.8438,202.2969 Q177.625,202.2969 178.3125,202.1719 Q179.0156,202.0313 180.0156,201.7188 L180.0156,203.5938 Q179.1563,203.9219 178.3906,204.0469 Q177.6406,204.1719 176.625,204.1719 Q174.7031,204.1719 173.3906,203.375 Q172.0938,202.5625 171.4375,201.0938 Q170.7813,199.6094 170.7813,197.6406 Q170.7813,196.2188 171.1719,195.0469 Q171.5781,193.8594 172.3594,192.9844 Q173.1406,192.1094 174.2813,191.6406 Q175.4219,191.1563 176.8906,191.1563 Q177.8438,191.1563 178.7344,191.3594 Q179.6406,191.5469 180.5781,192.0156 L179.75,193.7969 Q178.9688,193.4219 178.3125,193.2344 Q177.6563,193.0313 176.8594,193.0313 Z " fill="#000000"/><text fill="#000000" font-family="sans-serif" font-size="14" lengthAdjust="spacing" textLength="104" x="197.25" y="202.932">NetworkSystem</text><line style="stroke:#181818;stroke-width:0.5;" x1="8" x2="458" y1="213.5" y2="213.5"/><text fill="#000000" font-family="sans-serif" font-size="14" lengthAdjust="spacing" textLength="221" x="13" y="232.4659">OperationMode operationMode()</text><text fill="#000000" font-family="sans-serif" font-size="14" lengthAdjust="spacing" textLength="440" x="13" y="251.5339">void setOperationMode(const OperationMode &amp;t_operationMode)</text><line style="stroke:#181818;stroke-width:0.5;" x1="8" x2="458" y1="259.6358" y2="259.6358"/><text fill="#000000" font-family="sans-serif" font-size="14" lengthAdjust="spacing" textLength="141" x="13" y="278.6018">void processEvent(...)</text></g><!--class TcpSystem--><g id="elem_TcpSystem"><rect codeLine="14" fill="#F1F1F1" height="162.4075" id="TcpSystem" rx="2.5" ry="2.5" style="stroke:#181818;stroke-width:0.5;" width="426" x="494" y="153"/><ellipse cx="666.75" cy="169" fill="#ADD1B2" rx="11" ry="11" style="stroke:#181818;stroke-width:1.0;"/><path d="M666.8594,164.5313 Q665.9375,164.5313 665.2031,164.8438 Q664.4844,165.1563 663.9844,165.75 Q663.4844,166.3281 663.2031,167.2031 Q662.9375,168.0781 662.9375,169.1719 Q662.9375,170.6094 663.375,171.6563 Q663.8281,172.7031 664.6719,173.25 Q665.5313,173.7969 666.8438,173.7969 Q667.625,173.7969 668.3125,173.6719 Q669.0156,173.5313 670.0156,173.2188 L670.0156,175.0938 Q669.1563,175.4219 668.3906,175.5469 Q667.6406,175.6719 666.625,175.6719 Q664.7031,175.6719 663.3906,174.875 Q662.0938,174.0625 661.4375,172.5938 Q660.7813,171.1094 660.7813,169.1406 Q660.7813,167.7188 661.1719,166.5469 Q661.5781,165.3594 662.3594,164.4844 Q663.1406,163.6094 664.2813,163.1406 Q665.4219,162.6563 666.8906,162.6563 Q667.8438,162.6563 668.7344,162.8594 Q669.6406,163.0469 670.5781,163.5156 L669.75,165.2969 Q668.9688,164.9219 668.3125,164.7344 Q667.6563,164.5313 666.8594,164.5313 Z " fill="#000000"/><text fill="#000000" font-family="sans-serif" font-size="14" lengthAdjust="spacing" textLength="72" x="687.25" y="174.432">TcpSystem</text><line style="stroke:#181818;stroke-width:0.5;" x1="495" x2="919" y1="185" y2="185"/><line style="stroke:#181818;stroke-width:0.5;" x1="495" x2="919" y1="193" y2="193"/><text fill="#000000" font-family="sans-serif" font-size="14" lengthAdjust="spacing" textLength="141" x="500" y="211.9659">void processEvent(...)</text><text fill="#000000" font-family="sans-serif" font-size="14" lengthAdjust="spacing" textLength="414" x="500" y="231.0339">signal void sigConnnectionEstablished(QUuid t_connectionId)</text><text fill="#000000" font-family="sans-serif" font-size="14" lengthAdjust="spacing" textLength="362" x="500" y="250.1018">signal void sigClientConnected(QUuid t_connectionId)</text><text fill="#000000" font-family="sans-serif" font-size="14" lengthAdjust="spacing" textLength="381" x="500" y="269.1697">signal void sigClientDisconnected(QUuid t_connectionId)</text><text fill="#000000" font-family="sans-serif" font-size="14" lengthAdjust="spacing" textLength="397" x="500" y="288.2376">bool startServer(quint16 t_port, bool t_systemdSocket=true)</text><text fill="#000000" font-family="sans-serif" font-size="14" lengthAdjust="spacing" textLength="401" x="500" y="307.3055">void connectToServer(const QString &amp;t_host, quint16 t_port)</text></g><!--reverse link EventSystem to NetworkSystem--><g id="link_EventSystem_NetworkSystem"><path codeLine="23" d="M400.4547,104.4043 C366.3947,130.5643 336.76,153.32 300.63,181.06 " fill="none" id="EventSystem-backto-NetworkSystem" style="stroke:#181818;stroke-width:1.0;"/><polygon fill="none" points="414.73,93.44,396.7999,99.6458,404.1094,109.1627,414.73,93.44" style="stroke:#181818;stroke-width:1.0;"/></g><!--reverse link EventSystem to TcpSystem--><g id="link_EventSystem_TcpSystem"><path codeLine="24" d="M539.5453,104.4043 C562.5253,122.0543 575.71,132.18 602.25,152.56 " fill="none" id="EventSystem-backto-TcpSystem" style="stroke:#181818;stroke-width:1.0;"/><polygon fill="none" points="525.27,93.44,535.8905,109.1627,543.2001,99.6458,525.27,93.44" style="stroke:#181818;stroke-width:1.0;"/></g><!--SRC=[bPB1JiCm38RlVOgSe4Dq4XTES1exS00qTPodDF6sQ5bSOdS8ZRuxQLEXXWq9Sd4YV_xj_8ciYBrKB9ILH69-0CVb1p7inJ4JOP7PE6d50OtkzYKutKFveW_Y2hemwTcZ7DJQoDSU5H2TvTiiYosVWT_HxvAcbq8oUrCr38KrEn1xu2rgYbtM1gnknKiDNh91zuGQ18vF-IGXu_30IKMkq17_KBdWLI8KTKulCvrEHrTOgZeP_nV-Z9qpTCw1wjhDYMLb3Mr1vulN9kHv5KOSie_wVBqrGNuMiVyNFXXIVwYj4Aq8utakmH_0vs-DSNnp6-0QFLz7W5VKcw1BL3lWU_RDsBz1Tec3HhH_KOPtTflE-2rIa4gbUvF7d_BkioZIBtEQ_dwEx0i0]--></g></svg>