<svg xmlns="http://www.w3.org/2000/svg" xmlns:xlink="http://www.w3.org/1999/xlink" contentStyleType="text/css" height="322px" preserveAspectRatio="none" style="width:911px;height:322px;background:#FFFFFF;" version="1.1" viewBox="0 0 911 322" width="911px" zoomAndPan="magnify"><defs/><g><!--class EventSystem--><g id="elem_EventSystem"><rect codeLine="2" fill="#F1F1F1" height="86.1358" id="EventSystem" rx="2.5" ry="2.5" style="stroke:#181818;stroke-width:0.5;" width="278.1949" x="324.43" y="7"/><ellipse cx="420.7706" cy="23" fill="#A9DCDF" rx="11" ry="11" style="stroke:#181818;stroke-width:1.0;"/><path d="M424.1144,28.25 L422.6456,24.5 L418.2081,24.5 L416.7706,28.25 L414.6456,28.25 L419.5987,15.5313 L421.3487,15.5313 L426.2706,28.25 L424.1144,28.25 Z M420.7706,19.2969 Q420.7237,19.1406 420.5987,18.7813 Q420.4737,18.4219 420.3644,18.0469 Q420.255,17.6563 420.4581,17.5938 Q420.6144,17.7813 420.5206,18.1406 Q420.4269,18.4844 420.3331,18.7813 Q420.2394,19.0625 420.1612,19.2969 L418.9269,22.6094 L422.005,22.6094 L420.7706,19.2969 Z " fill="#000000"/><text fill="#000000" font-family="sans-serif" font-size="14" font-style="italic" lengthAdjust="spacing" textLength="77.0137" x="441.2706" y="28.432">EventSystem</text><line style="stroke:#181818;stroke-width:0.5;" x1="325.43" x2="601.6249" y1="39" y2="39"/><line style="stroke:#181818;stroke-width:0.5;" x1="325.43" x2="601.6249" y1="47" y2="47"/><text fill="#000000" font-family="sans-serif" font-size="14" lengthAdjust="spacing" textLength="266.1949" x="330.43" y="65.9659">signal void sigSendEvent(QEvent *event)</text><text fill="#000000" font-family="sans-serif" font-size="14" font-style="italic" lengthAdjust="spacing" textLength="206.5412" x="330.43" y="85.0339">void processEvent(QEvent *event)</text></g><!--class NetworkSystem--><g id="elem_NetworkSystem"><rect codeLine="7" fill="#F1F1F1" height="105.2038" id="NetworkSystem" rx="2.5" ry="2.5" style="stroke:#181818;stroke-width:0.5;" width="447.0483" x="7" y="181.73"/><ellipse cx="174.3274" cy="197.73" fill="#ADD1B2" rx="11" ry="11" style="stroke:#181818;stroke-width:1.0;"/><path d="M174.4367,193.2613 Q173.5149,193.2613 172.7805,193.5738 Q172.0617,193.8863 171.5617,194.48 Q171.0617,195.0581 170.7805,195.9331 Q170.5149,196.8081 170.5149,197.9019 Q170.5149,199.3394 170.9524,200.3863 Q171.4055,201.4331 172.2492,201.98 Q173.1086,202.5269 174.4211,202.5269 Q175.2024,202.5269 175.8899,202.4019 Q176.593,202.2613 177.593,201.9488 L177.593,203.8238 Q176.7336,204.1519 175.968,204.2769 Q175.218,204.4019 174.2024,204.4019 Q172.2805,204.4019 170.968,203.605 Q169.6711,202.7925 169.0149,201.3238 Q168.3586,199.8394 168.3586,197.8706 Q168.3586,196.4488 168.7492,195.2769 Q169.1555,194.0894 169.9367,193.2144 Q170.718,192.3394 171.8586,191.8706 Q172.9992,191.3863 174.468,191.3863 Q175.4211,191.3863 176.3117,191.5894 Q177.218,191.7769 178.1555,192.2456 L177.3274,194.0269 Q176.5461,193.6519 175.8899,193.4644 Q175.2336,193.2613 174.4367,193.2613 Z " fill="#000000"/><text fill="#000000" font-family="sans-serif" font-size="14" lengthAdjust="spacing" textLength="103.8936" x="194.8274" y="203.162">NetworkSystem</text><line style="stroke:#181818;stroke-width:0.5;" x1="8" x2="453.0483" y1="213.73" y2="213.73"/><text fill="#000000" font-family="sans-serif" font-size="14" lengthAdjust="spacing" textLength="218.6512" x="13" y="232.6959">OperationMode operationMode()</text><text fill="#000000" font-family="sans-serif" font-size="14" lengthAdjust="spacing" textLength="435.0483" x="13" y="251.7639">void setOperationMode(const OperationMode &amp;t_operationMode)</text><line style="stroke:#181818;stroke-width:0.5;" x1="8" x2="453.0483" y1="259.8658" y2="259.8658"/><text fill="#000000" font-family="sans-serif" font-size="14" lengthAdjust="spacing" textLength="138.4875" x="13" y="278.8318">void processEvent(...)</text></g><!--class TcpSystem--><g id="elem_TcpSystem"><rect codeLine="14" fill="#F1F1F1" height="162.4075" id="TcpSystem" rx="2.5" ry="2.5" style="stroke:#181818;stroke-width:0.5;" width="415.4365" x="488.81" y="153.13"/><ellipse cx="656.9354" cy="169.13" fill="#ADD1B2" rx="11" ry="11" style="stroke:#181818;stroke-width:1.0;"/><path d="M657.0448,164.6613 Q656.1229,164.6613 655.3885,164.9738 Q654.6698,165.2863 654.1698,165.88 Q653.6698,166.4581 653.3885,167.3331 Q653.1229,168.2081 653.1229,169.3019 Q653.1229,170.7394 653.5604,171.7863 Q654.0135,172.8331 654.8573,173.38 Q655.7166,173.9269 657.0291,173.9269 Q657.8104,173.9269 658.4979,173.8019 Q659.201,173.6613 660.201,173.3488 L660.201,175.2238 Q659.3416,175.5519 658.576,175.6769 Q657.826,175.8019 656.8104,175.8019 Q654.8885,175.8019 653.576,175.005 Q652.2791,174.1925 651.6229,172.7238 Q650.9666,171.2394 650.9666,169.2706 Q650.9666,167.8488 651.3573,166.6769 Q651.7635,165.4894 652.5448,164.6144 Q653.326,163.7394 654.4666,163.2706 Q655.6073,162.7863 657.076,162.7863 Q658.0291,162.7863 658.9198,162.9894 Q659.826,163.1769 660.7635,163.6456 L659.9354,165.4269 Q659.1541,165.0519 658.4979,164.8644 Q657.8416,164.6613 657.0448,164.6613 Z " fill="#000000"/><text fill="#000000" font-family="sans-serif" font-size="14" lengthAdjust="spacing" textLength="70.6857" x="677.4354" y="174.562">TcpSystem</text><line style="stroke:#181818;stroke-width:0.5;" x1="489.81" x2="903.2465" y1="185.13" y2="185.13"/><line style="stroke:#181818;stroke-width:0.5;" x1="489.81" x2="903.2465" y1="193.13" y2="193.13"/><text fill="#000000" font-family="sans-serif" font-size="14" lengthAdjust="spacing" textLength="138.4875" x="494.81" y="212.0959">void processEvent(...)</text><text fill="#000000" font-family="sans-serif" font-size="14" lengthAdjust="spacing" textLength="403.4365" x="494.81" y="231.1639">signal void sigConnnectionEstablished(QUuid t_connectionId)</text><text fill="#000000" font-family="sans-serif" font-size="14" lengthAdjust="spacing" textLength="353.1347" x="494.81" y="250.2318">signal void sigClientConnected(QUuid t_connectionId)</text><text fill="#000000" font-family="sans-serif" font-size="14" lengthAdjust="spacing" textLength="371.5446" x="494.81" y="269.2997">signal void sigClientDisconnected(QUuid t_connectionId)</text><text fill="#000000" font-family="sans-serif" font-size="14" lengthAdjust="spacing" textLength="392.5865" x="494.81" y="288.3676">bool startServer(quint16 t_port, bool t_systemdSocket=true)</text><text fill="#000000" font-family="sans-serif" font-size="14" lengthAdjust="spacing" textLength="394.8406" x="494.81" y="307.4355">void connectToServer(const QString &amp;t_host, quint16 t_port)</text></g><!--reverse link EventSystem to NetworkSystem--><g id="link_EventSystem_NetworkSystem"><path codeLine="23" d="M395.0125,104.6605 C361.5325,130.8505 332.53,153.54 297.02,181.32 " fill="none" id="EventSystem-backto-NetworkSystem" style="stroke:#181818;stroke-width:1.0;"/><polygon fill="none" points="409.19,93.57,391.3157,99.9346,398.7093,109.3863,409.19,93.57" style="stroke:#181818;stroke-width:1.0;"/></g><!--reverse link EventSystem to TcpSystem--><g id="link_EventSystem_TcpSystem"><path codeLine="24" d="M532.0379,104.66 C554.6279,122.33 567.45,132.37 593.54,152.77 " fill="none" id="EventSystem-backto-TcpSystem" style="stroke:#181818;stroke-width:1.0;"/><polygon fill="none" points="517.86,93.57,528.3412,109.386,535.7345,99.934,517.86,93.57" style="stroke:#181818;stroke-width:1.0;"/></g><!--SRC=[bPB1JiCm38RlVOgSe4Dq4XTES1exS00qTPodDF6sQ5bSOdS8ZRuxQLEXXWq9Sd4YV_xj_8ciYBrKB9ILH69-0CVb1p7inJ4JOP7PE6d50OtkzYKutKFveW_Y2hemwTcZ7DJQoDSU5H2TvTiiYosVWT_HxvAcbq8oUrCr38KrEn1xu2rgYbtM1gnknKiDNh91zuGQ18vF-IGXu_30IKMkq17_KBdWLI8KTKulCvrEHrTOgZeP_nV-Z9qpTCw1wjhDYMLb3Mr1vulN9kHv5KOSie_wVBqrGNuMiVyNFXXIVwYj4Aq8utakmH_0vs-DSNnp6-0QFLz7W5VKcw1BL3lWU_RDsBz1Tec3HhH_KOPtTflE-2rIa4gbUvF7d_BkioZIBtEQ_dwEx0i0]--></g></svg>