<svg xmlns="http://www.w3.org/2000/svg" xmlns:xlink="http://www.w3.org/1999/xlink" contentStyleType="text/css" height="322px" preserveAspectRatio="none" style="width:927px;height:322px;background:#FFFFFF;" version="1.1" viewBox="0 0 927 322" width="927px" zoomAndPan="magnify"><defs/><g><!--class EventSystem--><g id="elem_EventSystem"><rect codeLine="2" fill="#F1F1F1" height="86.1358" id="EventSystem" rx="2.5" ry="2.5" style="stroke:#181818;stroke-width:0.5;" width="285" x="327.5" y="7"/><ellipse cx="426.75" cy="23" fill="#A9DCDF" rx="11" ry="11" style="stroke:#181818;stroke-width:1.0;"/><path d="M430.0938,28.25 L428.625,24.5 L424.1875,24.5 L422.75,28.25 L420.625,28.25 L425.5781,15.5313 L427.3281,15.5313 L432.25,28.25 L430.0938,28.25 Z M426.75,19.2969 Q426.7031,19.1406 426.5781,18.7813 Q426.4531,18.4219 426.3438,18.0469 Q426.2344,17.6563 426.4375,17.5938 Q426.5938,17.7813 426.5,18.1406 Q426.4063,18.4844 426.3125,18.7813 Q426.2188,19.0625 426.1406,19.2969 L424.9063,22.6094 L427.9844,22.6094 L426.75,19.2969 Z " fill="#000000"/><text fill="#000000" font-family="sans-serif" font-size="14" font-style="italic" lengthAdjust="spacing" textLength="78" x="447.25" y="28.432">EventSystem</text><line style="stroke:#181818;stroke-width:0.5;" x1="328.5" x2="611.5" y1="39" y2="39"/><line style="stroke:#181818;stroke-width:0.5;" x1="328.5" x2="611.5" y1="47" y2="47"/><text fill="#000000" font-family="sans-serif" font-size="14" lengthAdjust="spacing" textLength="273" x="333.5" y="65.9659">signal void sigSendEvent(QEvent *event)</text><text fill="#000000" font-family="sans-serif" font-size="14" font-style="italic" lengthAdjust="spacing" textLength="210" x="333.5" y="85.0339">void processEvent(QEvent *event)</text></g><!--class NetworkSystem--><g id="elem_NetworkSystem"><rect codeLine="7" fill="#F1F1F1" height="105.2038" id="NetworkSystem" rx="2.5" ry="2.5" style="stroke:#181818;stroke-width:0.5;" width="452" x="7" y="181.73"/><ellipse cx="176.75" cy="197.73" fill="#ADD1B2" rx="11" ry="11" style="stroke:#181818;stroke-width:1.0;"/><path d="M176.8594,193.2613 Q175.9375,193.2613 175.2031,193.5738 Q174.4844,193.8863 173.9844,194.48 Q173.4844,195.0581 173.2031,195.9331 Q172.9375,196.8081 172.9375,197.9019 Q172.9375,199.3394 173.375,200.3863 Q173.8281,201.4331 174.6719,201.98 Q175.5313,202.5269 176.8438,202.5269 Q177.625,202.5269 178.3125,202.4019 Q179.0156,202.2613 180.0156,201.9488 L180.0156,203.8238 Q179.1563,204.1519 178.3906,204.2769 Q177.6406,204.4019 176.625,204.4019 Q174.7031,204.4019 173.3906,203.605 Q172.0938,202.7925 171.4375,201.3238 Q170.7813,199.8394 170.7813,197.8706 Q170.7813,196.4488 171.1719,195.2769 Q171.5781,194.0894 172.3594,193.2144 Q173.1406,192.3394 174.2813,191.8706 Q175.4219,191.3863 176.8906,191.3863 Q177.8438,191.3863 178.7344,191.5894 Q179.6406,191.7769 180.5781,192.2456 L179.75,194.0269 Q178.9688,193.6519 178.3125,193.4644 Q177.6563,193.2613 176.8594,193.2613 Z " fill="#000000"/><text fill="#000000" font-family="sans-serif" font-size="14" lengthAdjust="spacing" textLength="104" x="197.25" y="203.162">NetworkSystem</text><line style="stroke:#181818;stroke-width:0.5;" x1="8" x2="458" y1="213.73" y2="213.73"/><text fill="#000000" font-family="sans-serif" font-size="14" lengthAdjust="spacing" textLength="221" x="13" y="232.6959">OperationMode operationMode()</text><text fill="#000000" font-family="sans-serif" font-size="14" lengthAdjust="spacing" textLength="440" x="13" y="251.7639">void setOperationMode(const OperationMode &amp;t_operationMode)</text><line style="stroke:#181818;stroke-width:0.5;" x1="8" x2="458" y1="259.8658" y2="259.8658"/><text fill="#000000" font-family="sans-serif" font-size="14" lengthAdjust="spacing" textLength="141" x="13" y="278.8318">void processEvent(...)</text></g><!--class TcpSystem--><g id="elem_TcpSystem"><rect codeLine="14" fill="#F1F1F1" height="162.4075" id="TcpSystem" rx="2.5" ry="2.5" style="stroke:#181818;stroke-width:0.5;" width="426" x="494" y="153.13"/><ellipse cx="666.75" cy="169.13" fill="#ADD1B2" rx="11" ry="11" style="stroke:#181818;stroke-width:1.0;"/><path d="M666.8594,164.6613 Q665.9375,164.6613 665.2031,164.9738 Q664.4844,165.2863 663.9844,165.88 Q663.4844,166.4581 663.2031,167.3331 Q662.9375,168.2081 662.9375,169.3019 Q662.9375,170.7394 663.375,171.7863 Q663.8281,172.8331 664.6719,173.38 Q665.5313,173.9269 666.8438,173.9269 Q667.625,173.9269 668.3125,173.8019 Q669.0156,173.6613 670.0156,173.3488 L670.0156,175.2238 Q669.1563,175.5519 668.3906,175.6769 Q667.6406,175.8019 666.625,175.8019 Q664.7031,175.8019 663.3906,175.005 Q662.0938,174.1925 661.4375,172.7238 Q660.7813,171.2394 660.7813,169.2706 Q660.7813,167.8488 661.1719,166.6769 Q661.5781,165.4894 662.3594,164.6144 Q663.1406,163.7394 664.2813,163.2706 Q665.4219,162.7863 666.8906,162.7863 Q667.8438,162.7863 668.7344,162.9894 Q669.6406,163.1769 670.5781,163.6456 L669.75,165.4269 Q668.9688,165.0519 668.3125,164.8644 Q667.6563,164.6613 666.8594,164.6613 Z " fill="#000000"/><text fill="#000000" font-family="sans-serif" font-size="14" lengthAdjust="spacing" textLength="72" x="687.25" y="174.562">TcpSystem</text><line style="stroke:#181818;stroke-width:0.5;" x1="495" x2="919" y1="185.13" y2="185.13"/><line style="stroke:#181818;stroke-width:0.5;" x1="495" x2="919" y1="193.13" y2="193.13"/><text fill="#000000" font-family="sans-serif" font-size="14" lengthAdjust="spacing" textLength="141" x="500" y="212.0959">void processEvent(...)</text><text fill="#000000" font-family="sans-serif" font-size="14" lengthAdjust="spacing" textLength="414" x="500" y="231.1639">signal void sigConnnectionEstablished(QUuid t_connectionId)</text><text fill="#000000" font-family="sans-serif" font-size="14" lengthAdjust="spacing" textLength="362" x="500" y="250.2318">signal void sigClientConnected(QUuid t_connectionId)</text><text fill="#000000" font-family="sans-serif" font-size="14" lengthAdjust="spacing" textLength="381" x="500" y="269.2997">signal void sigClientDisconnected(QUuid t_connectionId)</text><text fill="#000000" font-family="sans-serif" font-size="14" lengthAdjust="spacing" textLength="397" x="500" y="288.3676">bool startServer(quint16 t_port, bool t_systemdSocket=true)</text><text fill="#000000" font-family="sans-serif" font-size="14" lengthAdjust="spacing" textLength="401" x="500" y="307.4355">void connectToServer(const QString &amp;t_host, quint16 t_port)</text></g><!--reverse link EventSystem to NetworkSystem--><g id="link_EventSystem_NetworkSystem"><path codeLine="23" d="M400.4607,104.5422 C366.4007,130.7322 336.76,153.54 300.63,181.32 " fill="none" id="EventSystem-backto-NetworkSystem" style="stroke:#181818;stroke-width:1.0;"/><polygon fill="none" points="414.73,93.57,396.8034,99.7857,404.1181,109.2986,414.73,93.57" style="stroke:#181818;stroke-width:1.0;"/></g><!--reverse link EventSystem to TcpSystem--><g id="link_EventSystem_TcpSystem"><path codeLine="24" d="M539.5393,104.5421 C562.5193,122.2121 575.71,132.37 602.25,152.77 " fill="none" id="EventSystem-backto-TcpSystem" style="stroke:#181818;stroke-width:1.0;"/><polygon fill="none" points="525.27,93.57,535.8819,109.2985,543.1967,99.7857,525.27,93.57" style="stroke:#181818;stroke-width:1.0;"/></g><!--SRC=[bPB1JiCm38RlVOgSe4Dq4XTES1exS00qTPodDF6sQ5bSOdS8ZRuxQLEXXWq9Sd4YV_xj_8ciYBrKB9ILH69-0CVb1p7inJ4JOP7PE6d50OtkzYKutKFveW_Y2hemwTcZ7DJQoDSU5H2TvTiiYosVWT_HxvAcbq8oUrCr38KrEn1xu2rgYbtM1gnknKiDNh91zuGQ18vF-IGXu_30IKMkq17_KBdWLI8KTKulCvrEHrTOgZeP_nV-Z9qpTCw1wjhDYMLb3Mr1vulN9kHv5KOSie_wVBqrGNuMiVyNFXXIVwYj4Aq8utakmH_0vs-DSNnp6-0QFLz7W5VKcw1BL3lWU_RDsBz1Tec3HhH_KOPtTflE-2rIa4gbUvF7d_BkioZIBtEQ_dwEx0i0]--></g></svg>