<svg xmlns="http://www.w3.org/2000/svg" xmlns:xlink="http://www.w3.org/1999/xlink" contentStyleType="text/css" height="907px" preserveAspectRatio="none" style="width:1370px;height:907px;background:#FFFFFF;" version="1.1" viewBox="0 0 1370 907" width="1370px" zoomAndPan="magnify"><defs/><g><!--class QEvent--><g id="elem_QEvent"><rect codeLine="2" fill="#F1F1F1" height="105.2038" id="QEvent" rx="2.5" ry="2.5" style="stroke:#181818;stroke-width:0.5;" width="235.3551" x="353.72" y="7"/><ellipse cx="443.4316" cy="23" fill="#ADD1B2" rx="11" ry="11" style="stroke:#181818;stroke-width:1.0;"/><path d="M443.541,18.5313 Q442.6191,18.5313 441.8848,18.8438 Q441.166,19.1563 440.666,19.75 Q440.166,20.3281 439.8848,21.2031 Q439.6191,22.0781 439.6191,23.1719 Q439.6191,24.6094 440.0566,25.6563 Q440.5098,26.7031 441.3535,27.25 Q442.2129,27.7969 443.5254,27.7969 Q444.3066,27.7969 444.9941,27.6719 Q445.6973,27.5313 446.6973,27.2188 L446.6973,29.0938 Q445.8379,29.4219 445.0723,29.5469 Q444.3223,29.6719 443.3066,29.6719 Q441.3848,29.6719 440.0723,28.875 Q438.7754,28.0625 438.1191,26.5938 Q437.4629,25.1094 437.4629,23.1406 Q437.4629,21.7188 437.8535,20.5469 Q438.2598,19.3594 439.041,18.4844 Q439.8223,17.6094 440.9629,17.1406 Q442.1035,16.6563 443.5723,16.6563 Q444.5254,16.6563 445.416,16.8594 Q446.3223,17.0469 447.2598,17.5156 L446.4316,19.2969 Q445.6504,18.9219 444.9941,18.7344 Q444.3379,18.5313 443.541,18.5313 Z " fill="#000000"/><text fill="#000000" font-family="sans-serif" font-size="14" lengthAdjust="spacing" textLength="47.4318" x="463.9316" y="28.432">QEvent</text><line style="stroke:#181818;stroke-width:0.5;" x1="354.72" x2="588.0751" y1="39" y2="39"/><line style="stroke:#181818;stroke-width:0.5;" x1="354.72" x2="588.0751" y1="47" y2="47"/><text fill="#000000" font-family="sans-serif" font-size="14" lengthAdjust="spacing" textLength="82.6977" x="359.72" y="65.9659">void accept()</text><text fill="#000000" font-family="sans-serif" font-size="14" lengthAdjust="spacing" textLength="72.1697" x="359.72" y="85.0339">Type type()</text><text fill="#000000" font-family="sans-serif" font-size="14" lengthAdjust="spacing" text-decoration="underline" textLength="223.3551" x="359.72" y="104.1018">int registerEventType(int hint = -1)</text></g><path d="M624.56,23.04 L624.56,50.599 L583.0751,98.6698 L624.56,58.599 L624.56,86.158 A0,0 0 0 0 624.56,86.158 L956.2213,86.158 A0,0 0 0 0 956.2213,86.158 L956.2213,33.04 L946.2213,23.04 L624.56,23.04 A0,0 0 0 0 624.56,23.04 " fill="#FEFFDD" style="stroke:#181818;stroke-width:0.5;"/><path d="M946.2213,23.04 L946.2213,33.04 L956.2213,33.04 L946.2213,23.04 " fill="#FEFFDD" style="stroke:#181818;stroke-width:0.5;"/><text fill="#000000" font-family="sans-serif" font-size="13" lengthAdjust="spacing" textLength="310.6613" x="630.56" y="41.937">Each event class statically calls registerEventType().</text><text fill="#000000" font-family="sans-serif" font-size="13" lengthAdjust="spacing" textLength="263.0682" x="630.56" y="59.643">To identify event type, values for type() and</text><text fill="#000000" font-family="sans-serif" font-size="13" lengthAdjust="spacing" textLength="193.5312" x="630.56" y="77.349">getQEventType() are compared.</text><!--class NetworkStatusEvent--><g id="elem_NetworkStatusEvent"><rect codeLine="13" fill="#F1F1F1" height="67.0679" id="NetworkStatusEvent" rx="2.5" ry="2.5" style="stroke:#181818;stroke-width:0.5;" width="165.8255" x="199.48" y="192.27"/><ellipse cx="214.48" cy="208.27" fill="#ADD1B2" rx="11" ry="11" style="stroke:#181818;stroke-width:1.0;"/><path d="M214.5894,203.8012 Q213.6675,203.8012 212.9331,204.1137 Q212.2144,204.4262 211.7144,205.02 Q211.2144,205.5981 210.9331,206.4731 Q210.6675,207.3481 210.6675,208.4419 Q210.6675,209.8794 211.105,210.9262 Q211.5581,211.9731 212.4019,212.52 Q213.2613,213.0669 214.5738,213.0669 Q215.355,213.0669 216.0425,212.9419 Q216.7456,212.8012 217.7456,212.4887 L217.7456,214.3637 Q216.8863,214.6919 216.1206,214.8169 Q215.3706,214.9419 214.355,214.9419 Q212.4331,214.9419 211.1206,214.145 Q209.8238,213.3325 209.1675,211.8637 Q208.5113,210.3794 208.5113,208.4106 Q208.5113,206.9887 208.9019,205.8169 Q209.3081,204.6294 210.0894,203.7544 Q210.8706,202.8794 212.0113,202.4106 Q213.1519,201.9262 214.6206,201.9262 Q215.5738,201.9262 216.4644,202.1294 Q217.3706,202.3169 218.3081,202.7856 L217.48,204.5669 Q216.6988,204.1919 216.0425,204.0044 Q215.3863,203.8012 214.5894,203.8012 Z " fill="#000000"/><text fill="#000000" font-family="sans-serif" font-size="14" lengthAdjust="spacing" textLength="133.8255" x="228.48" y="213.702">NetworkStatusEvent</text><line style="stroke:#181818;stroke-width:0.5;" x1="200.48" x2="364.3055" y1="224.27" y2="224.27"/><line style="stroke:#181818;stroke-width:0.5;" x1="200.48" x2="364.3055" y1="232.27" y2="232.27"/><text fill="#000000" font-family="sans-serif" font-size="14" lengthAdjust="spacing" text-decoration="underline" textLength="129.7795" x="205.48" y="251.2359">int getQEventType()</text></g><!--class ProtocolEvent--><g id="elem_ProtocolEvent"><rect codeLine="17" fill="#F1F1F1" height="67.0679" id="ProtocolEvent" rx="2.5" ry="2.5" style="stroke:#181818;stroke-width:0.5;" width="141.7795" x="400.5" y="192.27"/><ellipse cx="423.7052" cy="208.27" fill="#ADD1B2" rx="11" ry="11" style="stroke:#181818;stroke-width:1.0;"/><path d="M423.8146,203.8012 Q422.8927,203.8012 422.1583,204.1137 Q421.4396,204.4262 420.9396,205.02 Q420.4396,205.5981 420.1583,206.4731 Q419.8927,207.3481 419.8927,208.4419 Q419.8927,209.8794 420.3302,210.9262 Q420.7833,211.9731 421.6271,212.52 Q422.4865,213.0669 423.799,213.0669 Q424.5802,213.0669 425.2677,212.9419 Q425.9708,212.8012 426.9708,212.4887 L426.9708,214.3637 Q426.1115,214.6919 425.3458,214.8169 Q424.5958,214.9419 423.5802,214.9419 Q421.6583,214.9419 420.3458,214.145 Q419.049,213.3325 418.3927,211.8637 Q417.7365,210.3794 417.7365,208.4106 Q417.7365,206.9887 418.1271,205.8169 Q418.5333,204.6294 419.3146,203.7544 Q420.0958,202.8794 421.2365,202.4106 Q422.3771,201.9262 423.8458,201.9262 Q424.799,201.9262 425.6896,202.1294 Q426.5958,202.3169 427.5333,202.7856 L426.7052,204.5669 Q425.924,204.1919 425.2677,204.0044 Q424.6115,203.8012 423.8146,203.8012 Z " fill="#000000"/><text fill="#000000" font-family="sans-serif" font-size="14" lengthAdjust="spacing" textLength="91.5457" x="439.5286" y="213.702">ProtocolEvent</text><line style="stroke:#181818;stroke-width:0.5;" x1="401.5" x2="541.2795" y1="224.27" y2="224.27"/><line style="stroke:#181818;stroke-width:0.5;" x1="401.5" x2="541.2795" y1="232.27" y2="232.27"/><text fill="#000000" font-family="sans-serif" font-size="14" lengthAdjust="spacing" text-decoration="underline" textLength="129.7795" x="406.5" y="251.2359">int getQEventType()</text></g><!--class CommandEvent--><g id="elem_CommandEvent"><rect codeLine="21" fill="#F1F1F1" height="105.2038" id="CommandEvent" rx="2.5" ry="2.5" style="stroke:#181818;stroke-width:0.5;" width="204.4432" x="577.17" y="173.2"/><ellipse cx="622.5858" cy="189.2" fill="#ADD1B2" rx="11" ry="11" style="stroke:#181818;stroke-width:1.0;"/><path d="M622.6952,184.7312 Q621.7733,184.7312 621.0389,185.0437 Q620.3202,185.3562 619.8202,185.95 Q619.3202,186.5281 619.0389,187.4031 Q618.7733,188.2781 618.7733,189.3719 Q618.7733,190.8094 619.2108,191.8562 Q619.6639,192.9031 620.5077,193.45 Q621.3671,193.9969 622.6796,193.9969 Q623.4608,193.9969 624.1483,193.8719 Q624.8514,193.7312 625.8514,193.4187 L625.8514,195.2937 Q624.9921,195.6219 624.2264,195.7469 Q623.4764,195.8719 622.4608,195.8719 Q620.5389,195.8719 619.2264,195.075 Q617.9296,194.2625 617.2733,192.7937 Q616.6171,191.3094 616.6171,189.3406 Q616.6171,187.9187 617.0077,186.7469 Q617.4139,185.5594 618.1952,184.6844 Q618.9764,183.8094 620.1171,183.3406 Q621.2577,182.8562 622.7264,182.8562 Q623.6796,182.8562 624.5702,183.0594 Q625.4764,183.2469 626.4139,183.7156 L625.5858,185.4969 Q624.8046,185.1219 624.1483,184.9344 Q623.4921,184.7312 622.6952,184.7312 Z " fill="#000000"/><text fill="#000000" font-family="sans-serif" font-size="14" lengthAdjust="spacing" textLength="105.1116" x="643.0858" y="194.632">CommandEvent</text><line style="stroke:#181818;stroke-width:0.5;" x1="578.17" x2="780.6132" y1="205.2" y2="205.2"/><line style="stroke:#181818;stroke-width:0.5;" x1="578.17" x2="780.6132" y1="213.2" y2="213.2"/><text fill="#000000" font-family="sans-serif" font-size="14" lengthAdjust="spacing" text-decoration="underline" textLength="129.7795" x="583.17" y="232.1659">int getQEventType()</text><text fill="#000000" font-family="sans-serif" font-size="14" lengthAdjust="spacing" textLength="192.4432" x="583.17" y="251.2339">EventSubtype eventSubtype()</text><text fill="#000000" font-family="sans-serif" font-size="14" lengthAdjust="spacing" textLength="154.8254" x="583.17" y="270.3018">EventData *eventData()</text></g><path d="M816.72,189.25 L816.72,216.809 L775.6132,245.8019 L816.72,224.809 L816.72,252.368 A0,0 0 0 0 816.72,252.368 L1108.0692,252.368 A0,0 0 0 0 1108.0692,252.368 L1108.0692,199.25 L1098.0692,189.25 L816.72,189.25 A0,0 0 0 0 816.72,189.25 " fill="#FEFFDD" style="stroke:#181818;stroke-width:0.5;"/><path d="M1098.0692,189.25 L1098.0692,199.25 L1108.0692,199.25 L1098.0692,189.25 " fill="#FEFFDD" style="stroke:#181818;stroke-width:0.5;"/><text fill="#000000" font-family="sans-serif" font-size="13" lengthAdjust="spacing" textLength="230.6983" x="822.72" y="208.147">enum CommandEvent::EventSubtype:</text><ellipse cx="828.22" cy="222.162" fill="#000000" rx="2.5" ry="2.5" style="stroke:#000000;stroke-width:0.0;"/><text fill="#000000" font-family="sans-serif" font-size="13" lengthAdjust="spacing" textLength="112.8921" x="834.72" y="225.853">NOTIFICATION: All</text><ellipse cx="828.22" cy="239.868" fill="#000000" rx="2.5" ry="2.5" style="stroke:#000000;stroke-width:0.0;"/><text fill="#000000" font-family="sans-serif" font-size="13" lengthAdjust="spacing" textLength="258.3492" x="834.72" y="243.559">TRANSACTION: subscribed Client -&gt; Server</text><!--class EventData--><g id="elem_EventData"><rect codeLine="36" fill="#F1F1F1" height="143.3396" id="EventData" rx="2.5" ry="2.5" style="stroke:#181818;stroke-width:0.5;" width="227.4872" x="565.65" y="357.41"/><ellipse cx="643.4617" cy="373.41" fill="#A9DCDF" rx="11" ry="11" style="stroke:#181818;stroke-width:1.0;"/><path d="M646.8055,378.66 L645.3367,374.91 L640.8992,374.91 L639.4617,378.66 L637.3367,378.66 L642.2898,365.9412 L644.0398,365.9412 L648.9617,378.66 L646.8055,378.66 Z M643.4617,369.7069 Q643.4148,369.5506 643.2898,369.1912 Q643.1648,368.8319 643.0555,368.4569 Q642.9461,368.0662 643.1492,368.0037 Q643.3055,368.1912 643.2117,368.5506 Q643.118,368.8944 643.0242,369.1912 Q642.9305,369.4725 642.8523,369.7069 L641.618,373.0194 L644.6961,373.0194 L643.4617,369.7069 Z " fill="#000000"/><text fill="#000000" font-family="sans-serif" font-size="14" font-style="italic" lengthAdjust="spacing" textLength="63.3638" x="663.9617" y="378.842">EventData</text><line style="stroke:#181818;stroke-width:0.5;" x1="566.65" x2="792.1372" y1="389.41" y2="389.41"/><text fill="#000000" font-family="sans-serif" font-size="14" lengthAdjust="spacing" textLength="80.1217" x="571.65" y="408.3759">int entityId()</text><line style="stroke:#181818;stroke-width:0.5;" x1="566.65" x2="792.1372" y1="416.4779" y2="416.4779"/><text fill="#000000" font-family="sans-serif" font-size="14" font-style="italic" lengthAdjust="spacing" textLength="54.4038" x="571.65" y="435.4439">int type()</text><text fill="#000000" font-family="sans-serif" font-size="14" font-style="italic" lengthAdjust="spacing" textLength="79.9117" x="571.65" y="454.5118">bool isValid()</text><text fill="#000000" font-family="sans-serif" font-size="14" font-style="italic" lengthAdjust="spacing" textLength="132.5375" x="571.65" y="473.5797">QByteArray serialize()</text><text fill="#000000" font-family="sans-serif" font-size="14" font-style="italic" lengthAdjust="spacing" textLength="215.4872" x="571.65" y="492.6476">void deserialize(QByteArray &amp;data)</text></g><!--class EntityData--><g id="elem_EntityData"><rect codeLine="45" fill="#F1F1F1" height="143.3396" id="EntityData" rx="2.5" ry="2.5" style="stroke:#181818;stroke-width:0.5;" width="240.7871" x="7" y="561.75"/><ellipse cx="89.0047" cy="577.75" fill="#ADD1B2" rx="11" ry="11" style="stroke:#181818;stroke-width:1.0;"/><path d="M89.1141,573.2813 Q88.1922,573.2813 87.4578,573.5938 Q86.7391,573.9063 86.2391,574.5 Q85.7391,575.0781 85.4578,575.9531 Q85.1922,576.8281 85.1922,577.9219 Q85.1922,579.3594 85.6297,580.4063 Q86.0828,581.4531 86.9266,582 Q87.7859,582.5469 89.0984,582.5469 Q89.8797,582.5469 90.5672,582.4219 Q91.2703,582.2813 92.2703,581.9688 L92.2703,583.8438 Q91.4109,584.1719 90.6453,584.2969 Q89.8953,584.4219 88.8797,584.4219 Q86.9578,584.4219 85.6453,583.625 Q84.3484,582.8125 83.6922,581.3438 Q83.0359,579.8594 83.0359,577.8906 Q83.0359,576.4688 83.4266,575.2969 Q83.8328,574.1094 84.6141,573.2344 Q85.3953,572.3594 86.5359,571.8906 Q87.6766,571.4063 89.1453,571.4063 Q90.0984,571.4063 90.9891,571.6094 Q91.8953,571.7969 92.8328,572.2656 L92.0047,574.0469 Q91.2234,573.6719 90.5672,573.4844 Q89.9109,573.2813 89.1141,573.2813 Z " fill="#000000"/><text fill="#000000" font-family="sans-serif" font-size="14" lengthAdjust="spacing" textLength="68.2777" x="109.5047" y="583.182">EntityData</text><line style="stroke:#181818;stroke-width:0.5;" x1="8" x2="246.7871" y1="593.75" y2="593.75"/><text fill="#000000" font-family="sans-serif" font-size="14" lengthAdjust="spacing" textLength="185.8773" x="13" y="612.7159">Command eventCommand()</text><line style="stroke:#181818;stroke-width:0.5;" x1="8" x2="246.7871" y1="620.8179" y2="620.8179"/><text fill="#000000" font-family="sans-serif" font-size="14" lengthAdjust="spacing" textLength="58.0578" x="13" y="639.7839">int type()</text><text fill="#000000" font-family="sans-serif" font-size="14" lengthAdjust="spacing" textLength="83.6077" x="13" y="658.8518">bool isValid()</text><text fill="#000000" font-family="sans-serif" font-size="14" lengthAdjust="spacing" textLength="141.2175" x="13" y="677.9197">QByteArray serialize()</text><text fill="#000000" font-family="sans-serif" font-size="14" lengthAdjust="spacing" textLength="228.7871" x="13" y="696.9876">void deserialize(QByteArray &amp;data)</text></g><g id="elem_GMN14"><path d="M28.64,774.94 L28.64,891.1761 A0,0 0 0 0 28.64,891.1761 L226.1412,891.1761 A0,0 0 0 0 226.1412,891.1761 L226.1412,784.94 L216.1412,774.94 L131.39,774.94 L127.39,705.49 L123.39,774.94 L28.64,774.94 A0,0 0 0 0 28.64,774.94 " fill="#FEFFDD" style="stroke:#181818;stroke-width:0.5;"/><path d="M216.1412,774.94 L216.1412,784.94 L226.1412,784.94 L216.1412,774.94 " fill="#FEFFDD" style="stroke:#181818;stroke-width:0.5;"/><text fill="#000000" font-family="sans-serif" font-size="13" lengthAdjust="spacing" textLength="176.5012" x="34.64" y="793.837">enum EntityData::Command:</text><ellipse cx="40.14" cy="807.852" fill="#000000" rx="2.5" ry="2.5" style="stroke:#000000;stroke-width:0.0;"/><text fill="#000000" font-family="sans-serif" font-size="13" lengthAdjust="spacing" textLength="93.6001" x="46.64" y="811.543">ECMD_INVALID</text><ellipse cx="40.14" cy="825.558" fill="#000000" rx="2.5" ry="2.5" style="stroke:#000000;stroke-width:0.0;"/><text fill="#000000" font-family="sans-serif" font-size="13" lengthAdjust="spacing" textLength="69.7841" x="46.64" y="829.249">ECMD_ADD</text><ellipse cx="40.14" cy="843.2641" fill="#000000" rx="2.5" ry="2.5" style="stroke:#000000;stroke-width:0.0;"/><text fill="#000000" font-family="sans-serif" font-size="13" lengthAdjust="spacing" textLength="94.7831" x="46.64" y="846.9551">ECMD_REMOVE</text><ellipse cx="40.14" cy="860.9701" fill="#000000" rx="2.5" ry="2.5" style="stroke:#000000;stroke-width:0.0;"/><text fill="#000000" font-family="sans-serif" font-size="13" lengthAdjust="spacing" textLength="111.1111" x="46.64" y="864.6611">ECMD_SUBSCRIBE</text><ellipse cx="40.14" cy="878.6761" fill="#000000" rx="2.5" ry="2.5" style="stroke:#000000;stroke-width:0.0;"/><text fill="#000000" font-family="sans-serif" font-size="13" lengthAdjust="spacing" textLength="130.4941" x="46.64" y="882.3671">ECMD_UNSUBSCRIBE</text></g><!--class ComponentData--><g id="elem_ComponentData"><rect codeLine="62" fill="#F1F1F1" height="143.3396" id="ComponentData" rx="2.5" ry="2.5" style="stroke:#181818;stroke-width:0.5;" width="240.7871" x="283" y="561.75"/><ellipse cx="344.7818" cy="577.75" fill="#ADD1B2" rx="11" ry="11" style="stroke:#181818;stroke-width:1.0;"/><path d="M344.8911,573.2813 Q343.9693,573.2813 343.2349,573.5938 Q342.5161,573.9063 342.0161,574.5 Q341.5161,575.0781 341.2349,575.9531 Q340.9693,576.8281 340.9693,577.9219 Q340.9693,579.3594 341.4068,580.4063 Q341.8599,581.4531 342.7036,582 Q343.563,582.5469 344.8755,582.5469 Q345.6568,582.5469 346.3443,582.4219 Q347.0474,582.2813 348.0474,581.9688 L348.0474,583.8438 Q347.188,584.1719 346.4224,584.2969 Q345.6724,584.4219 344.6568,584.4219 Q342.7349,584.4219 341.4224,583.625 Q340.1255,582.8125 339.4693,581.3438 Q338.813,579.8594 338.813,577.8906 Q338.813,576.4688 339.2036,575.2969 Q339.6099,574.1094 340.3911,573.2344 Q341.1724,572.3594 342.313,571.8906 Q343.4536,571.4063 344.9224,571.4063 Q345.8755,571.4063 346.7661,571.6094 Q347.6724,571.7969 348.6099,572.2656 L347.7818,574.0469 Q347.0005,573.6719 346.3443,573.4844 Q345.688,573.2813 344.8911,573.2813 Z " fill="#000000"/><text fill="#000000" font-family="sans-serif" font-size="14" lengthAdjust="spacing" textLength="108.7236" x="365.2818" y="583.182">ComponentData</text><line style="stroke:#181818;stroke-width:0.5;" x1="284" x2="522.7871" y1="593.75" y2="593.75"/><text fill="#000000" font-family="sans-serif" font-size="14" lengthAdjust="spacing" textLength="185.8773" x="289" y="612.7159">Command eventCommand()</text><line style="stroke:#181818;stroke-width:0.5;" x1="284" x2="522.7871" y1="620.8179" y2="620.8179"/><text fill="#000000" font-family="sans-serif" font-size="14" lengthAdjust="spacing" textLength="58.0578" x="289" y="639.7839">int type()</text><text fill="#000000" font-family="sans-serif" font-size="14" lengthAdjust="spacing" textLength="83.6077" x="289" y="658.8518">bool isValid()</text><text fill="#000000" font-family="sans-serif" font-size="14" lengthAdjust="spacing" textLength="141.2175" x="289" y="677.9197">QByteArray serialize()</text><text fill="#000000" font-family="sans-serif" font-size="14" lengthAdjust="spacing" textLength="228.7871" x="289" y="696.9876">void deserialize(QByteArray &amp;data)</text></g><g id="elem_GMN18"><path d="M285.86,774.94 L285.86,891.1761 A0,0 0 0 0 285.86,891.1761 L520.9182,891.1761 A0,0 0 0 0 520.9182,891.1761 L520.9182,784.94 L510.9182,774.94 L407.39,774.94 L403.39,705.49 L399.39,774.94 L285.86,774.94 A0,0 0 0 0 285.86,774.94 " fill="#FEFFDD" style="stroke:#181818;stroke-width:0.5;"/><path d="M510.9182,774.94 L510.9182,784.94 L520.9182,784.94 L510.9182,774.94 " fill="#FEFFDD" style="stroke:#181818;stroke-width:0.5;"/><text fill="#000000" font-family="sans-serif" font-size="13" lengthAdjust="spacing" textLength="214.0582" x="291.86" y="793.837">enum ComponentData::Command:</text><ellipse cx="297.36" cy="807.852" fill="#000000" rx="2.5" ry="2.5" style="stroke:#000000;stroke-width:0.0;"/><text fill="#000000" font-family="sans-serif" font-size="13" lengthAdjust="spacing" textLength="94.5881" x="303.86" y="811.543">CCMD_INVALID</text><ellipse cx="297.36" cy="825.558" fill="#000000" rx="2.5" ry="2.5" style="stroke:#000000;stroke-width:0.0;"/><text fill="#000000" font-family="sans-serif" font-size="13" lengthAdjust="spacing" textLength="70.772" x="303.86" y="829.249">CCMD_ADD</text><ellipse cx="297.36" cy="843.2641" fill="#000000" rx="2.5" ry="2.5" style="stroke:#000000;stroke-width:0.0;"/><text fill="#000000" font-family="sans-serif" font-size="13" lengthAdjust="spacing" textLength="95.7711" x="303.86" y="846.9551">CCMD_REMOVE</text><ellipse cx="297.36" cy="860.9701" fill="#000000" rx="2.5" ry="2.5" style="stroke:#000000;stroke-width:0.0;"/><text fill="#000000" font-family="sans-serif" font-size="13" lengthAdjust="spacing" textLength="65.0781" x="303.86" y="864.6611">CCMD_SET</text><ellipse cx="297.36" cy="878.6761" fill="#000000" rx="2.5" ry="2.5" style="stroke:#000000;stroke-width:0.0;"/><text fill="#000000" font-family="sans-serif" font-size="13" lengthAdjust="spacing" textLength="82.5371" x="303.86" y="882.3671">CCMD_FETCH</text></g><!--class IntrospectionData--><g id="elem_IntrospectionData"><rect codeLine="79" fill="#F1F1F1" height="124.2717" id="IntrospectionData" rx="2.5" ry="2.5" style="stroke:#181818;stroke-width:0.5;" width="240.7871" x="559" y="571.28"/><ellipse cx="615.4408" cy="587.28" fill="#ADD1B2" rx="11" ry="11" style="stroke:#181818;stroke-width:1.0;"/><path d="M615.5502,582.8113 Q614.6283,582.8113 613.8939,583.1238 Q613.1752,583.4363 612.6752,584.03 Q612.1752,584.6081 611.8939,585.4831 Q611.6283,586.3581 611.6283,587.4519 Q611.6283,588.8894 612.0658,589.9363 Q612.5189,590.9831 613.3627,591.53 Q614.222,592.0769 615.5345,592.0769 Q616.3158,592.0769 617.0033,591.9519 Q617.7064,591.8113 618.7064,591.4988 L618.7064,593.3738 Q617.847,593.7019 617.0814,593.8269 Q616.3314,593.9519 615.3158,593.9519 Q613.3939,593.9519 612.0814,593.155 Q610.7845,592.3425 610.1283,590.8738 Q609.472,589.3894 609.472,587.4206 Q609.472,585.9988 609.8627,584.8269 Q610.2689,583.6394 611.0502,582.7644 Q611.8314,581.8894 612.972,581.4206 Q614.1127,580.9363 615.5814,580.9363 Q616.5345,580.9363 617.4252,581.1394 Q618.3314,581.3269 619.2689,581.7956 L618.4408,583.5769 Q617.6595,583.2019 617.0033,583.0144 Q616.347,582.8113 615.5502,582.8113 Z " fill="#000000"/><text fill="#000000" font-family="sans-serif" font-size="14" lengthAdjust="spacing" textLength="119.4056" x="635.9408" y="592.712">IntrospectionData</text><line style="stroke:#181818;stroke-width:0.5;" x1="560" x2="798.7871" y1="603.28" y2="603.28"/><line style="stroke:#181818;stroke-width:0.5;" x1="560" x2="798.7871" y1="611.28" y2="611.28"/><text fill="#000000" font-family="sans-serif" font-size="14" lengthAdjust="spacing" textLength="58.0578" x="565" y="630.2459">int type()</text><text fill="#000000" font-family="sans-serif" font-size="14" lengthAdjust="spacing" textLength="83.6077" x="565" y="649.3139">bool isValid()</text><text fill="#000000" font-family="sans-serif" font-size="14" lengthAdjust="spacing" textLength="141.2175" x="565" y="668.3818">QByteArray serialize()</text><text fill="#000000" font-family="sans-serif" font-size="14" lengthAdjust="spacing" textLength="228.7871" x="565" y="687.4497">void deserialize(QByteArray &amp;data)</text></g><!--class RemoteProcedureData--><g id="elem_RemoteProcedureData"><rect codeLine="86" fill="#F1F1F1" height="143.3396" id="RemoteProcedureData" rx="2.5" ry="2.5" style="stroke:#181818;stroke-width:0.5;" width="240.7871" x="835" y="561.75"/><ellipse cx="876.2862" cy="577.75" fill="#ADD1B2" rx="11" ry="11" style="stroke:#181818;stroke-width:1.0;"/><path d="M876.3955,573.2813 Q875.4737,573.2813 874.7393,573.5938 Q874.0205,573.9063 873.5205,574.5 Q873.0205,575.0781 872.7393,575.9531 Q872.4737,576.8281 872.4737,577.9219 Q872.4737,579.3594 872.9112,580.4063 Q873.3643,581.4531 874.208,582 Q875.0674,582.5469 876.3799,582.5469 Q877.1612,582.5469 877.8487,582.4219 Q878.5518,582.2813 879.5518,581.9688 L879.5518,583.8438 Q878.6924,584.1719 877.9268,584.2969 Q877.1768,584.4219 876.1612,584.4219 Q874.2393,584.4219 872.9268,583.625 Q871.6299,582.8125 870.9737,581.3438 Q870.3174,579.8594 870.3174,577.8906 Q870.3174,576.4688 870.708,575.2969 Q871.1143,574.1094 871.8955,573.2344 Q872.6768,572.3594 873.8174,571.8906 Q874.958,571.4063 876.4268,571.4063 Q877.3799,571.4063 878.2705,571.6094 Q879.1768,571.7969 880.1143,572.2656 L879.2862,574.0469 Q878.5049,573.6719 877.8487,573.4844 Q877.1924,573.2813 876.3955,573.2813 Z " fill="#000000"/><text fill="#000000" font-family="sans-serif" font-size="14" lengthAdjust="spacing" textLength="150.3734" x="896.1275" y="583.182">RemoteProcedureData</text><line style="stroke:#181818;stroke-width:0.5;" x1="836" x2="1074.7871" y1="593.75" y2="593.75"/><text fill="#000000" font-family="sans-serif" font-size="14" lengthAdjust="spacing" textLength="147.1394" x="841" y="612.7159">Command command()</text><line style="stroke:#181818;stroke-width:0.5;" x1="836" x2="1074.7871" y1="620.8179" y2="620.8179"/><text fill="#000000" font-family="sans-serif" font-size="14" lengthAdjust="spacing" textLength="58.0578" x="841" y="639.7839">int type()</text><text fill="#000000" font-family="sans-serif" font-size="14" lengthAdjust="spacing" textLength="83.6077" x="841" y="658.8518">bool isValid()</text><text fill="#000000" font-family="sans-serif" font-size="14" lengthAdjust="spacing" textLength="141.2175" x="841" y="677.9197">QByteArray serialize()</text><text fill="#000000" font-family="sans-serif" font-size="14" lengthAdjust="spacing" textLength="228.7871" x="841" y="696.9876">void deserialize(QByteArray &amp;data)</text></g><g id="elem_GMN23"><path d="M806.53,766.09 L806.53,900.0321 A0,0 0 0 0 806.53,900.0321 L1080.2632,900.0321 A0,0 0 0 0 1080.2632,900.0321 L1080.2632,776.09 L1070.2632,766.09 L951.41,766.09 L951.08,705.49 L943.41,766.09 L806.53,766.09 A0,0 0 0 0 806.53,766.09 " fill="#FEFFDD" style="stroke:#181818;stroke-width:0.5;"/><path d="M1070.2632,766.09 L1070.2632,776.09 L1080.2632,776.09 L1070.2632,766.09 " fill="#FEFFDD" style="stroke:#181818;stroke-width:0.5;"/><text fill="#000000" font-family="sans-serif" font-size="13" lengthAdjust="spacing" textLength="252.7332" x="812.53" y="784.987">enum RemoteProcedureData::Command:</text><ellipse cx="818.03" cy="799.002" fill="#000000" rx="2.5" ry="2.5" style="stroke:#000000;stroke-width:0.0;"/><text fill="#000000" font-family="sans-serif" font-size="13" lengthAdjust="spacing" textLength="102.3231" x="824.53" y="802.693">RPCMD_INVALID</text><ellipse cx="818.03" cy="816.708" fill="#000000" rx="2.5" ry="2.5" style="stroke:#000000;stroke-width:0.0;"/><text fill="#000000" font-family="sans-serif" font-size="13" lengthAdjust="spacing" textLength="81.3671" x="824.53" y="820.399">RPCMD_CALL</text><ellipse cx="818.03" cy="834.4141" fill="#000000" rx="2.5" ry="2.5" style="stroke:#000000;stroke-width:0.0;"/><text fill="#000000" font-family="sans-serif" font-size="13" lengthAdjust="spacing" textLength="110.0841" x="824.53" y="838.1051">RPCMD_REGISTER</text><ellipse cx="818.03" cy="852.1201" fill="#000000" rx="2.5" ry="2.5" style="stroke:#000000;stroke-width:0.0;"/><text fill="#000000" font-family="sans-serif" font-size="13" lengthAdjust="spacing" textLength="97.2141" x="824.53" y="855.8111">RPCMD_RESULT</text><ellipse cx="818.03" cy="869.8261" fill="#000000" rx="2.5" ry="2.5" style="stroke:#000000;stroke-width:0.0;"/><text fill="#000000" font-family="sans-serif" font-size="13" lengthAdjust="spacing" textLength="116.3761" x="824.53" y="873.5171">RPCMD_PROGRESS</text><ellipse cx="818.03" cy="887.5321" fill="#000000" rx="2.5" ry="2.5" style="stroke:#000000;stroke-width:0.0;"/><text fill="#000000" font-family="sans-serif" font-size="13" lengthAdjust="spacing" textLength="146.6661" x="824.53" y="891.2231">RPCMD_CANCELLATION</text></g><!--class ErrorData--><g id="elem_ErrorData"><rect codeLine="104" fill="#F1F1F1" height="143.3396" id="ErrorData" rx="2.5" ry="2.5" style="stroke:#181818;stroke-width:0.5;" width="191.1013" x="1132.84" y="561.75"/><ellipse cx="1191.8498" cy="577.75" fill="#ADD1B2" rx="11" ry="11" style="stroke:#181818;stroke-width:1.0;"/><path d="M1191.9591,573.2813 Q1191.0373,573.2813 1190.3029,573.5938 Q1189.5841,573.9063 1189.0841,574.5 Q1188.5841,575.0781 1188.3029,575.9531 Q1188.0373,576.8281 1188.0373,577.9219 Q1188.0373,579.3594 1188.4748,580.4063 Q1188.9279,581.4531 1189.7716,582 Q1190.631,582.5469 1191.9435,582.5469 Q1192.7248,582.5469 1193.4123,582.4219 Q1194.1154,582.2813 1195.1154,581.9688 L1195.1154,583.8438 Q1194.256,584.1719 1193.4904,584.2969 Q1192.7404,584.4219 1191.7248,584.4219 Q1189.8029,584.4219 1188.4904,583.625 Q1187.1935,582.8125 1186.5373,581.3438 Q1185.881,579.8594 1185.881,577.8906 Q1185.881,576.4688 1186.2716,575.2969 Q1186.6779,574.1094 1187.4591,573.2344 Q1188.2404,572.3594 1189.381,571.8906 Q1190.5216,571.4063 1191.9904,571.4063 Q1192.9435,571.4063 1193.8341,571.6094 Q1194.7404,571.7969 1195.6779,572.2656 L1194.8498,574.0469 Q1194.0685,573.6719 1193.4123,573.4844 Q1192.756,573.2813 1191.9591,573.2813 Z " fill="#000000"/><text fill="#000000" font-family="sans-serif" font-size="14" lengthAdjust="spacing" textLength="64.5818" x="1212.3498" y="583.182">ErrorData</text><line style="stroke:#181818;stroke-width:0.5;" x1="1133.84" x2="1322.9413" y1="593.75" y2="593.75"/><line style="stroke:#181818;stroke-width:0.5;" x1="1133.84" x2="1322.9413" y1="601.75" y2="601.75"/><text fill="#000000" font-family="sans-serif" font-size="14" lengthAdjust="spacing" textLength="58.0578" x="1138.84" y="620.7159">int type()</text><text fill="#000000" font-family="sans-serif" font-size="14" lengthAdjust="spacing" textLength="83.6077" x="1138.84" y="639.7839">bool isValid()</text><text fill="#000000" font-family="sans-serif" font-size="14" lengthAdjust="spacing" textLength="171.4154" x="1138.84" y="658.8518">QString errorDescription()</text><text fill="#000000" font-family="sans-serif" font-size="14" lengthAdjust="spacing" textLength="141.9734" x="1138.84" y="677.9197">int originalDataType()</text><text fill="#000000" font-family="sans-serif" font-size="14" lengthAdjust="spacing" textLength="179.1013" x="1138.84" y="696.9876">QByteArray &amp;originalData()</text></g><g id="elem_GMN27"><path d="M1115.53,774.94 L1115.53,891.1761 A0,0 0 0 0 1115.53,891.1761 L1363.2502,891.1761 A0,0 0 0 0 1363.2502,891.1761 L1363.2502,784.94 L1353.2502,774.94 L1240.19,774.94 L1232.35,705.49 L1232.19,774.94 L1115.53,774.94 A0,0 0 0 0 1115.53,774.94 " fill="#FEFFDD" style="stroke:#181818;stroke-width:0.5;"/><path d="M1353.2502,774.94 L1353.2502,784.94 L1363.2502,784.94 L1353.2502,774.94 " fill="#FEFFDD" style="stroke:#181818;stroke-width:0.5;"/><text fill="#000000" font-family="sans-serif" font-size="13" lengthAdjust="spacing" textLength="226.7202" x="1121.53" y="793.837">ErrorData wraps arbitrary EventData.</text><text fill="#000000" font-family="sans-serif" font-size="13" lengthAdjust="spacing" textLength="182.3772" x="1121.53" y="811.543">Wrapped data is extracted by:</text><ellipse cx="1127.03" cy="825.558" fill="#000000" rx="2.5" ry="2.5" style="stroke:#000000;stroke-width:0.0;"/><text fill="#000000" font-family="sans-serif" font-size="13" lengthAdjust="spacing" textLength="201.6432" x="1133.53" y="829.249">create concrete EventData object</text><text fill="#000000" font-family="sans-serif" font-size="13" lengthAdjust="spacing" textLength="173.5502" x="1135.05" y="846.9551">matching originalDataType()</text><ellipse cx="1127.03" cy="860.9701" fill="#000000" rx="2.5" ry="2.5" style="stroke:#000000;stroke-width:0.0;"/><text fill="#000000" font-family="sans-serif" font-size="13" lengthAdjust="spacing" textLength="179.6601" x="1133.53" y="864.6611">call deserialize(originalData())</text><text fill="#000000" font-family="sans-serif" font-size="13" lengthAdjust="spacing" textLength="116.7271" x="1135.05" y="882.3671">on concrete object.</text></g><!--link NetworkStatusEvent to ProtocolEvent--><!--link ProtocolEvent to CommandEvent--><!--reverse link QEvent to NetworkStatusEvent--><g id="link_QEvent_NetworkStatusEvent"><path codeLine="120" d="M398.0011,124.3643 C368.1511,150.2943 346.53,169.08 320.41,191.78 " fill="none" id="QEvent-backto-NetworkStatusEvent" style="stroke:#181818;stroke-width:1.0;"/><polygon fill="none" points="411.59,112.56,394.0663,119.8347,401.9359,128.894,411.59,112.56" style="stroke:#181818;stroke-width:1.0;"/></g><!--reverse link QEvent to ProtocolEvent--><g id="link_QEvent_ProtocolEvent"><path codeLine="121" d="M471.39,130.56 C471.39,156.49 471.39,169.08 471.39,191.78 " fill="none" id="QEvent-backto-ProtocolEvent" style="stroke:#181818;stroke-width:1.0;"/><polygon fill="none" points="471.39,112.56,465.39,130.56,477.39,130.56,471.39,112.56" style="stroke:#181818;stroke-width:1.0;"/></g><!--reverse link QEvent to CommandEvent--><g id="link_QEvent_CommandEvent"><path codeLine="122" d="M551.3366,123.7153 C575.7266,142.9753 589.26,153.65 613.65,172.91 " fill="none" id="QEvent-backto-CommandEvent" style="stroke:#181818;stroke-width:1.0;"/><polygon fill="none" points="537.21,112.56,547.6181,128.4241,555.055,119.0064,537.21,112.56" style="stroke:#181818;stroke-width:1.0;"/></g><!--reverse link CommandEvent to EventData--><g id="link_CommandEvent_EventData"><path codeLine="124" d="M679.39,290.9 C679.39,314.78 679.39,331.45 679.39,357.25 " fill="none" id="CommandEvent-backto-EventData" style="stroke:#181818;stroke-width:1.0;"/><polygon fill="#181818" points="679.39,278.9,675.39,284.9,679.39,290.9,683.39,284.9,679.39,278.9" style="stroke:#181818;stroke-width:1.0;"/><polygon fill="#000000" points="684.39,323.263,687.3289,314.2179,681.4511,314.2179,684.39,323.263" style="stroke:#000000;stroke-width:1.0;"/><text fill="#000000" font-family="sans-serif" font-size="13" lengthAdjust="spacing" textLength="32.344" x="693.39" y="323.307">owns</text><text fill="#000000" font-family="sans-serif" font-size="13" lengthAdjust="spacing" textLength="7.436" x="672.0306" y="345.3996">1</text></g><!--reverse link EventData to EntityData--><g id="link_EventData_EntityData"><path codeLine="126" d="M548.2706,465.7079 C464.0706,489.7279 364.6,520.9 265.39,561.75 C259.67,564.11 253.86,566.61 248.03,569.22 " fill="none" id="EventData-backto-EntityData" style="stroke:#181818;stroke-width:1.0;"/><polygon fill="none" points="565.58,460.77,546.6246,459.9381,549.9165,471.4777,565.58,460.77" style="stroke:#181818;stroke-width:1.0;"/></g><!--reverse link EventData to ComponentData--><g id="link_EventData_ComponentData"><path codeLine="127" d="M567.9554,511.7755 C541.2454,531.3655 526.78,541.96 500.08,561.54 " fill="none" id="EventData-backto-ComponentData" style="stroke:#181818;stroke-width:1.0;"/><polygon fill="none" points="582.47,501.13,564.4069,506.9373,571.5039,516.6137,582.47,501.13" style="stroke:#181818;stroke-width:1.0;"/></g><!--reverse link EventData to IntrospectionData--><g id="link_EventData_IntrospectionData"><path codeLine="128" d="M679.39,519.13 C679.39,541.91 679.39,548.92 679.39,570.95 " fill="none" id="EventData-backto-IntrospectionData" style="stroke:#181818;stroke-width:1.0;"/><polygon fill="none" points="679.39,501.13,673.39,519.13,685.39,519.13,679.39,501.13" style="stroke:#181818;stroke-width:1.0;"/></g><!--reverse link EventData to RemoteProcedureData--><g id="link_EventData_RemoteProcedureData"><path codeLine="129" d="M790.8265,511.7729 C817.5465,531.3629 832,541.96 858.71,561.54 " fill="none" id="EventData-backto-RemoteProcedureData" style="stroke:#181818;stroke-width:1.0;"/><polygon fill="none" points="776.31,501.13,787.2789,516.6117,794.3741,506.9341,776.31,501.13" style="stroke:#181818;stroke-width:1.0;"/></g><!--reverse link EventData to ErrorData--><g id="link_EventData_ErrorData"><path codeLine="130" d="M810.6372,465.4205 C894.8872,489.3105 994.37,520.45 1093.39,561.75 C1106.21,567.09 1119.45,573.22 1132.4,579.58 " fill="none" id="EventData-backto-ErrorData" style="stroke:#181818;stroke-width:1.0;"/><polygon fill="none" points="793.32,460.51,809.0004,471.1929,812.2741,459.6481,793.32,460.51" style="stroke:#181818;stroke-width:1.0;"/></g><!--SRC=[pLRTRvim47_dhx3wi2RHKgclQAj42UsGqgG5sZrCqsJWadW5Z8n9nxh-xxCD6UPZKpDfql90y7tVxmxVHGak2dJdx27ZwDb0uhUd94OuYY3dawcY15KEY8j7StukEEOaUa54A37Oae83KoQav4HIT_Bn7itFfyQBaL4EY97jZYEwQPoPva1HsNPmj4EWmebKRBKld2GLaizYnE7qh0wJ8X8B6jbKZGKPyrkqnqa91TfGrYI1S1OhZItmEyqCmWnGHDDS_CTd1cGnag4RHXt92lWJPO- -2AWiTCGwUFHiYlGRzLj6EOreShocJTDKXFngHOMZFFjbA3EkqMWEEd-1EKOpEBnEXiNINPkcRaTPWQnCUpAwOrC9pT1g7RXNhcq5xdfb8Yj96dhWMIlVicjoKOP5n4W8CR8J8bETNo0Vs1wOLefJMSS8K88hMd9Zf2RpJpiIYpxuVD65tEWMG1FJ4p0C71QSuUZGVorGDVAd27CkmYmvp1Fo22W5lgDrFprl22HnNHJPYBnouyCtSp1RS_MlgUM4b2Q850yu8IDwTvSL1uinNA426152tqTigCytXbP2KtiJYpoqnd9KZ4Scrw1LDrLpQCBePJQIpXzoU5NWgZj3oZbDsmPiqp3D9g13vpdspUABktgmbkv29rcBpj5pRjOFZaxnxozzstClEyJxLKlktmx2SKwputlb_uEpaya0KNk8gDr5r1uWgYY-4-Z7AoUmFmnGT3FEQ953n0dDD2J_FHHD01wa8XnnLKGGbmp-ifZH_r37aLG6rVHkX-MiQRQrN7O8ddFj-e7ZzOZ-_JBea6wzzRKW-prhAzjPBjK461JTOOoouuhjYqfaMmHA4-JSo6N7Q81JCSD8XXDfLvkBEdgwo6GCnZQm9uRpGkm78H7NBAlQgL2l7Xy5EnU3IzP3X8hWcxgD1IMi3b17332N-qKctiHBErXe-5Kql1AJlnJpQ2Up-qqACxK8TNgYcydqbocQjVvgB_fQqwnzxtxCvoFBJOVTdQGwfpiyEwlAJB1Fpa-qJ4r4dx82NHX6IrDMsYkyp-dSHdtcuBhe2uny0mFNXo8RFm40]--></g></svg>