<svg xmlns="http://www.w3.org/2000/svg" xmlns:xlink="http://www.w3.org/1999/xlink" contentStyleType="text/css" height="622px" preserveAspectRatio="none" style="width:949px;height:622px;background:#FFFFFF;" version="1.1" viewBox="0 0 949 622" width="949px" zoomAndPan="magnify"><defs/><g><!--class EventHandler--><g id="elem_EventHandler"><rect codeLine="2" fill="#F1F1F1" height="162.4075" id="EventHandler" rx="2.5" ry="2.5" style="stroke:#181818;stroke-width:0.5;" width="440" x="69" y="7"/><ellipse cx="239.25" cy="23" fill="#ADD1B2" rx="11" ry="11" style="stroke:#181818;stroke-width:1.0;"/><path d="M239.3594,18.5313 Q238.4375,18.5313 237.7031,18.8438 Q236.9844,19.1563 236.4844,19.75 Q235.9844,20.3281 235.7031,21.2031 Q235.4375,22.0781 235.4375,23.1719 Q235.4375,24.6094 235.875,25.6563 Q236.3281,26.7031 237.1719,27.25 Q238.0313,27.7969 239.3438,27.7969 Q240.125,27.7969 240.8125,27.6719 Q241.5156,27.5313 242.5156,27.2188 L242.5156,29.0938 Q241.6563,29.4219 240.8906,29.5469 Q240.1406,29.6719 239.125,29.6719 Q237.2031,29.6719 235.8906,28.875 Q234.5938,28.0625 233.9375,26.5938 Q233.2813,25.1094 233.2813,23.1406 Q233.2813,21.7188 233.6719,20.5469 Q234.0781,19.3594 234.8594,18.4844 Q235.6406,17.6094 236.7813,17.1406 Q237.9219,16.6563 239.3906,16.6563 Q240.3438,16.6563 241.2344,16.8594 Q242.1406,17.0469 243.0781,17.5156 L242.25,19.2969 Q241.4688,18.9219 240.8125,18.7344 Q240.1563,18.5313 239.3594,18.5313 Z " fill="#000000"/><text fill="#000000" font-family="sans-serif" font-size="14" lengthAdjust="spacing" textLength="91" x="259.75" y="28.432">EventHandler</text><line style="stroke:#181818;stroke-width:0.5;" x1="70" x2="508" y1="39" y2="39"/><text fill="#000000" font-family="sans-serif" font-size="14" lengthAdjust="spacing" textLength="226" x="75" y="57.9659">QList&lt;EventSystem*&gt; subsystems</text><line style="stroke:#181818;stroke-width:0.5;" x1="70" x2="508" y1="66.0679" y2="66.0679"/><text fill="#000000" font-family="sans-serif" font-size="14" lengthAdjust="spacing" textLength="308" x="89" y="85.0339">void addSubsystem(EventSystem* subsystem)</text><text fill="#000000" font-family="sans-serif" font-size="14" lengthAdjust="spacing" textLength="414" x="89" y="104.1018">void prependSubsystem(VeinEvent::EventSystem* subsystem)</text><text fill="#000000" font-family="sans-serif" font-size="14" lengthAdjust="spacing" textLength="406" x="89" y="123.1697">void removeSubsystem(VeinEvent::EventSystem* subsystem)</text><text fill="#000000" font-family="sans-serif" font-size="14" lengthAdjust="spacing" textLength="153" x="89" y="142.2376">void clearSubsystems()</text><polygon fill="#FFFF44" points="80,152.3735,84,156.3735,80,160.3735,76,156.3735" style="stroke:#B38D22;stroke-width:1.0;"/><text fill="#000000" font-family="sans-serif" font-size="14" lengthAdjust="spacing" textLength="283" x="89" y="161.3055">void customEvent(QEvent *event) override</text></g><!--class ModuleEventHandler--><g id="elem_ModuleEventHandler"><rect codeLine="11" fill="#F1F1F1" height="105.2038" id="ModuleEventHandler" rx="2.5" ry="2.5" style="stroke:#181818;stroke-width:0.5;" width="433" x="465.5" y="248.4"/><ellipse cx="606.75" cy="264.4" fill="#ADD1B2" rx="11" ry="11" style="stroke:#181818;stroke-width:1.0;"/><path d="M606.8594,259.9313 Q605.9375,259.9313 605.2031,260.2438 Q604.4844,260.5563 603.9844,261.15 Q603.4844,261.7281 603.2031,262.6031 Q602.9375,263.4781 602.9375,264.5719 Q602.9375,266.0094 603.375,267.0563 Q603.8281,268.1031 604.6719,268.65 Q605.5313,269.1969 606.8438,269.1969 Q607.625,269.1969 608.3125,269.0719 Q609.0156,268.9313 610.0156,268.6188 L610.0156,270.4938 Q609.1563,270.8219 608.3906,270.9469 Q607.6406,271.0719 606.625,271.0719 Q604.7031,271.0719 603.3906,270.275 Q602.0938,269.4625 601.4375,267.9938 Q600.7813,266.5094 600.7813,264.5406 Q600.7813,263.1188 601.1719,261.9469 Q601.5781,260.7594 602.3594,259.8844 Q603.1406,259.0094 604.2813,258.5406 Q605.4219,258.0563 606.8906,258.0563 Q607.8438,258.0563 608.7344,258.2594 Q609.6406,258.4469 610.5781,258.9156 L609.75,260.6969 Q608.9688,260.3219 608.3125,260.1344 Q607.6563,259.9313 606.8594,259.9313 Z " fill="#000000"/><text fill="#000000" font-family="sans-serif" font-size="14" lengthAdjust="spacing" textLength="142" x="627.25" y="269.832">ModuleEventHandler</text><line style="stroke:#181818;stroke-width:0.5;" x1="466.5" x2="897.5" y1="280.4" y2="280.4"/><text fill="#000000" font-family="sans-serif" font-size="14" lengthAdjust="spacing" textLength="331" x="471.5" y="299.3659">QList&lt;VeinEvent::EventSystem *&gt; moduleSystems</text><line style="stroke:#181818;stroke-width:0.5;" x1="466.5" x2="897.5" y1="307.4679" y2="307.4679"/><text fill="#000000" font-family="sans-serif" font-size="14" lengthAdjust="spacing" textLength="421" x="471.5" y="326.4339">void addModuleSystem(VeinEvent::EventSystem *eventSystem)</text><text fill="#000000" font-family="sans-serif" font-size="14" lengthAdjust="spacing" textLength="179" x="471.5" y="345.5018">void clearModuleSystems()</text></g><g id="elem_GMN4"><path d="M543.5,74.35 L543.5,102.056 A0,0 0 0 0 543.5,102.056 L678,102.056 L682,248.28 L686,102.056 L820.5,102.056 A0,0 0 0 0 820.5,102.056 L820.5,84.35 L810.5,74.35 L543.5,74.35 A0,0 0 0 0 543.5,74.35 " fill="#FEFFDD" style="stroke:#181818;stroke-width:0.5;"/><path d="M810.5,74.35 L810.5,84.35 L820.5,84.35 L810.5,74.35 " fill="#FEFFDD" style="stroke:#181818;stroke-width:0.5;"/><text fill="#000000" font-family="sans-serif" font-size="13" lengthAdjust="spacing" textLength="256" x="549.5" y="93.247">Modules' event systems are processed first</text></g><!--class EventSystem--><g id="elem_EventSystem"><rect codeLine="20" fill="#F1F1F1" height="86.1358" id="EventSystem" rx="2.5" ry="2.5" style="stroke:#181818;stroke-width:0.5;" width="285" x="145.5" y="257.94"/><ellipse cx="244.75" cy="273.94" fill="#A9DCDF" rx="11" ry="11" style="stroke:#181818;stroke-width:1.0;"/><path d="M248.0938,279.19 L246.625,275.44 L242.1875,275.44 L240.75,279.19 L238.625,279.19 L243.5781,266.4713 L245.3281,266.4713 L250.25,279.19 L248.0938,279.19 Z M244.75,270.2369 Q244.7031,270.0806 244.5781,269.7213 Q244.4531,269.3619 244.3438,268.9869 Q244.2344,268.5963 244.4375,268.5338 Q244.5938,268.7213 244.5,269.0806 Q244.4063,269.4244 244.3125,269.7213 Q244.2188,270.0025 244.1406,270.2369 L242.9063,273.5494 L245.9844,273.5494 L244.75,270.2369 Z " fill="#000000"/><text fill="#000000" font-family="sans-serif" font-size="14" font-style="italic" lengthAdjust="spacing" textLength="78" x="265.25" y="279.372">EventSystem</text><line style="stroke:#181818;stroke-width:0.5;" x1="146.5" x2="429.5" y1="289.94" y2="289.94"/><line style="stroke:#181818;stroke-width:0.5;" x1="146.5" x2="429.5" y1="297.94" y2="297.94"/><text fill="#000000" font-family="sans-serif" font-size="14" lengthAdjust="spacing" textLength="273" x="151.5" y="316.9059">signal void sigSendEvent(QEvent *event)</text><text fill="#000000" font-family="sans-serif" font-size="14" font-style="italic" lengthAdjust="spacing" textLength="210" x="151.5" y="335.9739">void processEvent(QEvent *event)</text></g><!--class IntrospectionSystem--><g id="elem_IntrospectionSystem"><rect codeLine="25" fill="#F1F1F1" height="67.0679" id="IntrospectionSystem" rx="2.5" ry="2.5" style="stroke:#181818;stroke-width:0.5;" width="170" x="7" y="481.34"/><ellipse cx="22" cy="497.34" fill="#ADD1B2" rx="11" ry="11" style="stroke:#181818;stroke-width:1.0;"/><path d="M22.1094,492.8713 Q21.1875,492.8713 20.4531,493.1838 Q19.7344,493.4963 19.2344,494.09 Q18.7344,494.6681 18.4531,495.5431 Q18.1875,496.4181 18.1875,497.5119 Q18.1875,498.9494 18.625,499.9963 Q19.0781,501.0431 19.9219,501.59 Q20.7813,502.1369 22.0938,502.1369 Q22.875,502.1369 23.5625,502.0119 Q24.2656,501.8713 25.2656,501.5588 L25.2656,503.4338 Q24.4063,503.7619 23.6406,503.8869 Q22.8906,504.0119 21.875,504.0119 Q19.9531,504.0119 18.6406,503.215 Q17.3438,502.4025 16.6875,500.9338 Q16.0313,499.4494 16.0313,497.4806 Q16.0313,496.0588 16.4219,494.8869 Q16.8281,493.6994 17.6094,492.8244 Q18.3906,491.9494 19.5313,491.4806 Q20.6719,490.9963 22.1406,490.9963 Q23.0938,490.9963 23.9844,491.1994 Q24.8906,491.3869 25.8281,491.8556 L25,493.6369 Q24.2188,493.2619 23.5625,493.0744 Q22.9063,492.8713 22.1094,492.8713 Z " fill="#000000"/><text fill="#000000" font-family="sans-serif" font-size="14" lengthAdjust="spacing" textLength="138" x="36" y="502.772">IntrospectionSystem</text><line style="stroke:#181818;stroke-width:0.5;" x1="8" x2="176" y1="513.34" y2="513.34"/><line style="stroke:#181818;stroke-width:0.5;" x1="8" x2="176" y1="521.34" y2="521.34"/><text fill="#000000" font-family="sans-serif" font-size="14" lengthAdjust="spacing" textLength="141" x="13" y="540.3059">void processEvent(...)</text></g><!--class StorageSystem--><g id="elem_StorageSystem"><rect codeLine="29" fill="#F1F1F1" height="67.0679" id="StorageSystem" rx="2.5" ry="2.5" style="stroke:#181818;stroke-width:0.5;" width="153" x="211.5" y="481.34"/><ellipse cx="235.95" cy="497.34" fill="#ADD1B2" rx="11" ry="11" style="stroke:#181818;stroke-width:1.0;"/><path d="M236.0594,492.8713 Q235.1375,492.8713 234.4031,493.1838 Q233.6844,493.4963 233.1844,494.09 Q232.6844,494.6681 232.4031,495.5431 Q232.1375,496.4181 232.1375,497.5119 Q232.1375,498.9494 232.575,499.9963 Q233.0281,501.0431 233.8719,501.59 Q234.7313,502.1369 236.0438,502.1369 Q236.825,502.1369 237.5125,502.0119 Q238.2156,501.8713 239.2156,501.5588 L239.2156,503.4338 Q238.3563,503.7619 237.5906,503.8869 Q236.8406,504.0119 235.825,504.0119 Q233.9031,504.0119 232.5906,503.215 Q231.2938,502.4025 230.6375,500.9338 Q229.9813,499.4494 229.9813,497.4806 Q229.9813,496.0588 230.3719,494.8869 Q230.7781,493.6994 231.5594,492.8244 Q232.3406,491.9494 233.4813,491.4806 Q234.6219,490.9963 236.0906,490.9963 Q237.0438,490.9963 237.9344,491.1994 Q238.8406,491.3869 239.7781,491.8556 L238.95,493.6369 Q238.1688,493.2619 237.5125,493.0744 Q236.8563,492.8713 236.0594,492.8713 Z " fill="#000000"/><text fill="#000000" font-family="sans-serif" font-size="14" lengthAdjust="spacing" textLength="100" x="252.05" y="502.772">StorageSystem</text><line style="stroke:#181818;stroke-width:0.5;" x1="212.5" x2="363.5" y1="513.34" y2="513.34"/><line style="stroke:#181818;stroke-width:0.5;" x1="212.5" x2="363.5" y1="521.34" y2="521.34"/><text fill="#000000" font-family="sans-serif" font-size="14" lengthAdjust="spacing" textLength="141" x="217.5" y="540.3059">void processEvent(...)</text></g><!--class SystemModuleEventSystem--><g id="elem_SystemModuleEventSystem"><rect codeLine="33" fill="#F1F1F1" height="200.5433" id="SystemModuleEventSystem" rx="2.5" ry="2.5" style="stroke:#181818;stroke-width:0.5;" width="543" x="399.5" y="414.61"/><ellipse cx="574.75" cy="430.61" fill="#ADD1B2" rx="11" ry="11" style="stroke:#181818;stroke-width:1.0;"/><path d="M574.8594,426.1413 Q573.9375,426.1413 573.2031,426.4538 Q572.4844,426.7663 571.9844,427.36 Q571.4844,427.9381 571.2031,428.8131 Q570.9375,429.6881 570.9375,430.7819 Q570.9375,432.2194 571.375,433.2663 Q571.8281,434.3131 572.6719,434.86 Q573.5313,435.4069 574.8438,435.4069 Q575.625,435.4069 576.3125,435.2819 Q577.0156,435.1413 578.0156,434.8288 L578.0156,436.7038 Q577.1563,437.0319 576.3906,437.1569 Q575.6406,437.2819 574.625,437.2819 Q572.7031,437.2819 571.3906,436.485 Q570.0938,435.6725 569.4375,434.2038 Q568.7813,432.7194 568.7813,430.7506 Q568.7813,429.3288 569.1719,428.1569 Q569.5781,426.9694 570.3594,426.0944 Q571.1406,425.2194 572.2813,424.7506 Q573.4219,424.2663 574.8906,424.2663 Q575.8438,424.2663 576.7344,424.4694 Q577.6406,424.6569 578.5781,425.1256 L577.75,426.9069 Q576.9688,426.5319 576.3125,426.3444 Q575.6563,426.1413 574.8594,426.1413 Z " fill="#000000"/><text fill="#000000" font-family="sans-serif" font-size="14" lengthAdjust="spacing" textLength="184" x="595.25" y="436.042">SystemModuleEventSystem</text><line style="stroke:#181818;stroke-width:0.5;" x1="400.5" x2="941.5" y1="446.61" y2="446.61"/><text fill="#000000" font-family="sans-serif" font-size="14" lengthAdjust="spacing" textLength="104" x="405.5" y="465.5759">int getEntityId()</text><text fill="#000000" font-family="sans-serif" font-size="14" lengthAdjust="spacing" textLength="242" x="405.5" y="484.6439">StorageSystem *getStorageSystem()</text><text fill="#000000" font-family="sans-serif" font-size="14" lengthAdjust="spacing" textLength="408" x="405.5" y="503.7118">void setStorage(VeinEvent::StorageSystem *t_storageSystem)</text><line style="stroke:#181818;stroke-width:0.5;" x1="400.5" x2="941.5" y1="511.8138" y2="511.8138"/><text fill="#000000" font-family="sans-serif" font-size="14" lengthAdjust="spacing" textLength="141" x="405.5" y="530.7797">void processEvent(...)</text><text fill="#000000" font-family="sans-serif" font-size="14" lengthAdjust="spacing" textLength="404" x="405.5" y="549.8476">signal void sigChangeSession(const QString &amp;t_newSession)</text><text fill="#000000" font-family="sans-serif" font-size="14" lengthAdjust="spacing" textLength="367" x="405.5" y="568.9155">signal void sigModulesPausedChanged(bool t_paused)</text><text fill="#000000" font-family="sans-serif" font-size="14" lengthAdjust="spacing" textLength="531" x="405.5" y="587.9834">void initializeEntity(const QString &amp;sessionPath, const QStringList &amp;sessionList)</text><text fill="#000000" font-family="sans-serif" font-size="14" lengthAdjust="spacing" textLength="261" x="405.5" y="607.0514">void setModulesPaused(bool t_paused)</text></g><!--reverse link EventHandler to ModuleEventHandler--><g id="link_EventHandler_ModuleEventHandler"><path codeLine="46" d="M455.1219,178.3088 C503.9819,204.5188 541.03,224.39 584.94,247.94 " fill="none" id="EventHandler-backto-ModuleEventHandler" style="stroke:#181818;stroke-width:1.0;"/><polygon fill="none" points="439.26,169.8,452.2856,183.5961,457.9582,173.0215,439.26,169.8" style="stroke:#181818;stroke-width:1.0;"/></g><!--reverse link EventHandler to EventSystem--><g id="link_EventHandler_EventSystem"><path codeLine="47" d="M288.5638,181.7999 C288.4238,211.6699 288.32,232.36 288.2,257.51 " fill="none" id="EventHandler-backto-EventSystem" style="stroke:#181818;stroke-width:1.0;"/><polygon fill="none" points="288.62,169.8,284.5919,175.7812,288.5638,181.7999,292.5918,175.8187,288.62,169.8" style="stroke:#181818;stroke-width:1.0;"/><polygon fill="#000000" points="293.976,214.253,296.9583,205.2221,291.0805,205.1938,293.976,214.253" style="stroke:#000000;stroke-width:1.0;"/><text fill="#000000" font-family="sans-serif" font-size="13" lengthAdjust="spacing" textLength="112" x="303" y="214.297">forwards events to</text><text fill="#000000" font-family="sans-serif" font-size="13" lengthAdjust="spacing" textLength="20" x="266.6381" y="246.1761">0..*</text></g><!--reverse link EventSystem to IntrospectionSystem--><g id="link_EventSystem_IntrospectionSystem"><path codeLine="50" d="M236.5879,357.5844 C199.3879,397.8044 156.47,444.19 122.46,480.96 " fill="none" id="EventSystem-backto-IntrospectionSystem" style="stroke:#181818;stroke-width:1.0;"/><polygon fill="none" points="248.81,344.37,232.1831,353.5103,240.9927,361.6584,248.81,344.37" style="stroke:#181818;stroke-width:1.0;"/></g><!--reverse link EventSystem to StorageSystem--><g id="link_EventSystem_StorageSystem"><path codeLine="51" d="M288,362.37 C288,402.59 288,444.19 288,480.96 " fill="none" id="EventSystem-backto-StorageSystem" style="stroke:#181818;stroke-width:1.0;"/><polygon fill="none" points="288,344.37,282,362.37,294,362.37,288,344.37" style="stroke:#181818;stroke-width:1.0;"/></g><!--reverse link EventSystem to SystemModuleEventSystem--><g id="link_EventSystem_SystemModuleEventSystem"><path codeLine="52" d="M380.3395,353.0851 C416.7895,373.2551 446.31,389.58 490.77,414.18 " fill="none" id="EventSystem-backto-SystemModuleEventSystem" style="stroke:#181818;stroke-width:1.0;"/><polygon fill="none" points="364.59,344.37,377.4344,358.335,383.2445,347.8353,364.59,344.37" style="stroke:#181818;stroke-width:1.0;"/></g><!--SRC=[dLDHQzim47xNhpWwM9smc3s7qfTHM6651iDUWs9T4Z5RChfpIfVblq-HdCHArOtDBxPrttUd- -wxkf54yB13mr-bKGqws0lmp-AR9huBWUgL6DlfFL2_el1D0RApMe5KgZeT5sFu1Jsve3k77PeHupjg4rZp-L_93bkxm__ZrWrATwPI4KCVOgmdjcr8KIp22wPuV4t0rtDEAnG78UeWrPDLVOFl2fQ_4tZnsa2iClezZIB5UmdmydFTrfX_xEmWZ6K4jbq0nZ3TGaW1Wm8W7Vfns1g9KC5QEsBXHmD7hX1oHUnapL1V339S9RPBUcDa4s_XlojFpIaOiFjJjiF91Q5i5dyM-j6mizHXpTgQfFJR76LPZfWLMoSt-6-S01uDDs7VWcHsUjKppXhz0w55tbeLnxXVQspK0RJlOeFyO5ZpwwCQB7QAffUQUc1oagAZgcV8s1HNUNX9uuE9-5EtcRbzsKhZoHxdLIvgQuXXKVbUpGO-yjBWon3BiWThFSlUUoYcKiNAsWPusON3aLUrqQnbetzYbEYw6iL2pvAtdo297JVh73_-ZB9wbP9RN9Vt4qwMzUxNR9PPuXHaFURcSrbERnBdps5jtOjqYk8kaTynk1T3XG4K2cJC-nQKZ38JpbjI_0O0]--></g></svg>