<?xml version="1.0" encoding="us-ascii" standalone="no"?><svg xmlns="http://www.w3.org/2000/svg" xmlns:xlink="http://www.w3.org/1999/xlink" contentStyleType="text/css" height="621px" preserveAspectRatio="none" style="width:950px;height:621px;background:#FFFFFF;" version="1.1" viewBox="0 0 950 621" width="950px" zoomAndPan="magnify"><defs/><g><!--class EventHandler--><g id="elem_EventHandler"><rect codeLine="2" fill="#F1F1F1" height="162.4075" id="EventHandler" rx="2.5" ry="2.5" style="stroke:#181818;stroke-width:0.5;" width="440" x="69" y="7"/><ellipse cx="239.25" cy="23" fill="#ADD1B2" rx="11" ry="11" style="stroke:#181818;stroke-width:1.0;"/><path d="M239.3594,18.5313 Q238.4375,18.5313 237.7031,18.8438 Q236.9844,19.1563 236.4844,19.75 Q235.9844,20.3281 235.7031,21.2031 Q235.4375,22.0781 235.4375,23.1719 Q235.4375,24.6094 235.875,25.6563 Q236.3281,26.7031 237.1719,27.25 Q238.0313,27.7969 239.3438,27.7969 Q240.125,27.7969 240.8125,27.6719 Q241.5156,27.5313 242.5156,27.2188 L242.5156,29.0938 Q241.6563,29.4219 240.8906,29.5469 Q240.1406,29.6719 239.125,29.6719 Q237.2031,29.6719 235.8906,28.875 Q234.5938,28.0625 233.9375,26.5938 Q233.2813,25.1094 233.2813,23.1406 Q233.2813,21.7188 233.6719,20.5469 Q234.0781,19.3594 234.8594,18.4844 Q235.6406,17.6094 236.7813,17.1406 Q237.9219,16.6563 239.3906,16.6563 Q240.3438,16.6563 241.2344,16.8594 Q242.1406,17.0469 243.0781,17.5156 L242.25,19.2969 Q241.4688,18.9219 240.8125,18.7344 Q240.1563,18.5313 239.3594,18.5313 Z " fill="#000000"/><text fill="#000000" font-family="sans-serif" font-size="14" lengthAdjust="spacing" textLength="91" x="259.75" y="28.432">EventHandler</text><line style="stroke:#181818;stroke-width:0.5;" x1="70" x2="508" y1="39" y2="39"/><text fill="#000000" font-family="sans-serif" font-size="14" lengthAdjust="spacing" textLength="226" x="75" y="57.9659">QList&lt;EventSystem*&gt; subsystems</text><line style="stroke:#181818;stroke-width:0.5;" x1="70" x2="508" y1="66.0679" y2="66.0679"/><text fill="#000000" font-family="sans-serif" font-size="14" lengthAdjust="spacing" textLength="308" x="89" y="85.0339">void addSubsystem(EventSystem* subsystem)</text><text fill="#000000" font-family="sans-serif" font-size="14" lengthAdjust="spacing" textLength="414" x="89" y="104.1018">void prependSubsystem(VeinEvent::EventSystem* subsystem)</text><text fill="#000000" font-family="sans-serif" font-size="14" lengthAdjust="spacing" textLength="406" x="89" y="123.1697">void removeSubsystem(VeinEvent::EventSystem* subsystem)</text><text fill="#000000" font-family="sans-serif" font-size="14" lengthAdjust="spacing" textLength="153" x="89" y="142.2376">void clearSubsystems()</text><polygon fill="#FFFF44" points="80,152.3735,84,156.3735,80,160.3735,76,156.3735" style="stroke:#B38D22;stroke-width:1.0;"/><text fill="#000000" font-family="sans-serif" font-size="14" lengthAdjust="spacing" textLength="283" x="89" y="161.3055">void customEvent(QEvent *event) override</text></g><!--class ModuleEventHandler--><g id="elem_ModuleEventHandler"><rect codeLine="11" fill="#F1F1F1" height="105.2038" id="ModuleEventHandler" rx="2.5" ry="2.5" style="stroke:#181818;stroke-width:0.5;" width="433" x="466.5" y="248"/><ellipse cx="607.75" cy="264" fill="#ADD1B2" rx="11" ry="11" style="stroke:#181818;stroke-width:1.0;"/><path d="M607.8594,259.5313 Q606.9375,259.5313 606.2031,259.8438 Q605.4844,260.1563 604.9844,260.75 Q604.4844,261.3281 604.2031,262.2031 Q603.9375,263.0781 603.9375,264.1719 Q603.9375,265.6094 604.375,266.6563 Q604.8281,267.7031 605.6719,268.25 Q606.5313,268.7969 607.8438,268.7969 Q608.625,268.7969 609.3125,268.6719 Q610.0156,268.5313 611.0156,268.2188 L611.0156,270.0938 Q610.1563,270.4219 609.3906,270.5469 Q608.6406,270.6719 607.625,270.6719 Q605.7031,270.6719 604.3906,269.875 Q603.0938,269.0625 602.4375,267.5938 Q601.7813,266.1094 601.7813,264.1406 Q601.7813,262.7188 602.1719,261.5469 Q602.5781,260.3594 603.3594,259.4844 Q604.1406,258.6094 605.2813,258.1406 Q606.4219,257.6563 607.8906,257.6563 Q608.8438,257.6563 609.7344,257.8594 Q610.6406,258.0469 611.5781,258.5156 L610.75,260.2969 Q609.9688,259.9219 609.3125,259.7344 Q608.6563,259.5313 607.8594,259.5313 Z " fill="#000000"/><text fill="#000000" font-family="sans-serif" font-size="14" lengthAdjust="spacing" textLength="142" x="628.25" y="269.432">ModuleEventHandler</text><line style="stroke:#181818;stroke-width:0.5;" x1="467.5" x2="898.5" y1="280" y2="280"/><text fill="#000000" font-family="sans-serif" font-size="14" lengthAdjust="spacing" textLength="331" x="472.5" y="298.9659">QList&lt;VeinEvent::EventSystem *&gt; moduleSystems</text><line style="stroke:#181818;stroke-width:0.5;" x1="467.5" x2="898.5" y1="307.0679" y2="307.0679"/><text fill="#000000" font-family="sans-serif" font-size="14" lengthAdjust="spacing" textLength="421" x="472.5" y="326.0339">void addModuleSystem(VeinEvent::EventSystem *eventSystem)</text><text fill="#000000" font-family="sans-serif" font-size="14" lengthAdjust="spacing" textLength="179" x="472.5" y="345.1018">void clearModuleSystems()</text></g><g id="elem_GMN4"><path d="M544.5,74 L544.5,101.706 A0,0 0 0 0 544.5,101.706 L679,101.706 L683,247.6 L687,101.706 L821.5,101.706 A0,0 0 0 0 821.5,101.706 L821.5,84 L811.5,74 L544.5,74 A0,0 0 0 0 544.5,74 " fill="#FEFFDD" style="stroke:#181818;stroke-width:0.5;"/><path d="M811.5,74 L811.5,84 L821.5,84 L811.5,74 " fill="#FEFFDD" style="stroke:#181818;stroke-width:0.5;"/><text fill="#000000" font-family="sans-serif" font-size="13" lengthAdjust="spacing" textLength="256" x="550.5" y="92.897">Modules' event systems are processed first</text></g><!--class EventSystem--><g id="elem_EventSystem"><rect codeLine="20" fill="#F1F1F1" height="86.1358" id="EventSystem" rx="2.5" ry="2.5" style="stroke:#181818;stroke-width:0.5;" width="285" x="146.5" y="257.5"/><ellipse cx="245.75" cy="273.5" fill="#A9DCDF" rx="11" ry="11" style="stroke:#181818;stroke-width:1.0;"/><path d="M249.0938,278.75 L247.625,275 L243.1875,275 L241.75,278.75 L239.625,278.75 L244.5781,266.0313 L246.3281,266.0313 L251.25,278.75 L249.0938,278.75 Z M245.75,269.7969 Q245.7031,269.6406 245.5781,269.2813 Q245.4531,268.9219 245.3438,268.5469 Q245.2344,268.1563 245.4375,268.0938 Q245.5938,268.2813 245.5,268.6406 Q245.4063,268.9844 245.3125,269.2813 Q245.2188,269.5625 245.1406,269.7969 L243.9063,273.1094 L246.9844,273.1094 L245.75,269.7969 Z " fill="#000000"/><text fill="#000000" font-family="sans-serif" font-size="14" font-style="italic" lengthAdjust="spacing" textLength="78" x="266.25" y="278.932">EventSystem</text><line style="stroke:#181818;stroke-width:0.5;" x1="147.5" x2="430.5" y1="289.5" y2="289.5"/><line style="stroke:#181818;stroke-width:0.5;" x1="147.5" x2="430.5" y1="297.5" y2="297.5"/><text fill="#000000" font-family="sans-serif" font-size="14" lengthAdjust="spacing" textLength="273" x="152.5" y="316.4659">signal void sigSendEvent(QEvent *event)</text><text fill="#000000" font-family="sans-serif" font-size="14" font-style="italic" lengthAdjust="spacing" textLength="210" x="152.5" y="335.5339">void processEvent(QEvent *event)</text></g><!--class IntrospectionSystem--><g id="elem_IntrospectionSystem"><rect codeLine="25" fill="#F1F1F1" height="67.0679" id="IntrospectionSystem" rx="2.5" ry="2.5" style="stroke:#181818;stroke-width:0.5;" width="170" x="7" y="481"/><ellipse cx="22" cy="497" fill="#ADD1B2" rx="11" ry="11" style="stroke:#181818;stroke-width:1.0;"/><path d="M22.1094,492.5313 Q21.1875,492.5313 20.4531,492.8438 Q19.7344,493.1563 19.2344,493.75 Q18.7344,494.3281 18.4531,495.2031 Q18.1875,496.0781 18.1875,497.1719 Q18.1875,498.6094 18.625,499.6563 Q19.0781,500.7031 19.9219,501.25 Q20.7813,501.7969 22.0938,501.7969 Q22.875,501.7969 23.5625,501.6719 Q24.2656,501.5313 25.2656,501.2188 L25.2656,503.0938 Q24.4063,503.4219 23.6406,503.5469 Q22.8906,503.6719 21.875,503.6719 Q19.9531,503.6719 18.6406,502.875 Q17.3438,502.0625 16.6875,500.5938 Q16.0313,499.1094 16.0313,497.1406 Q16.0313,495.7188 16.4219,494.5469 Q16.8281,493.3594 17.6094,492.4844 Q18.3906,491.6094 19.5313,491.1406 Q20.6719,490.6563 22.1406,490.6563 Q23.0938,490.6563 23.9844,490.8594 Q24.8906,491.0469 25.8281,491.5156 L25,493.2969 Q24.2188,492.9219 23.5625,492.7344 Q22.9063,492.5313 22.1094,492.5313 Z " fill="#000000"/><text fill="#000000" font-family="sans-serif" font-size="14" lengthAdjust="spacing" textLength="138" x="36" y="502.432">IntrospectionSystem</text><line style="stroke:#181818;stroke-width:0.5;" x1="8" x2="176" y1="513" y2="513"/><line style="stroke:#181818;stroke-width:0.5;" x1="8" x2="176" y1="521" y2="521"/><text fill="#000000" font-family="sans-serif" font-size="14" lengthAdjust="spacing" textLength="141" x="13" y="539.9659">void processEvent(...)</text></g><!--class StorageSystem--><g id="elem_StorageSystem"><rect codeLine="29" fill="#F1F1F1" height="67.0679" id="StorageSystem" rx="2.5" ry="2.5" style="stroke:#181818;stroke-width:0.5;" width="153" x="212.5" y="481"/><ellipse cx="236.95" cy="497" fill="#ADD1B2" rx="11" ry="11" style="stroke:#181818;stroke-width:1.0;"/><path d="M237.0594,492.5313 Q236.1375,492.5313 235.4031,492.8438 Q234.6844,493.1563 234.1844,493.75 Q233.6844,494.3281 233.4031,495.2031 Q233.1375,496.0781 233.1375,497.1719 Q233.1375,498.6094 233.575,499.6563 Q234.0281,500.7031 234.8719,501.25 Q235.7313,501.7969 237.0438,501.7969 Q237.825,501.7969 238.5125,501.6719 Q239.2156,501.5313 240.2156,501.2188 L240.2156,503.0938 Q239.3563,503.4219 238.5906,503.5469 Q237.8406,503.6719 236.825,503.6719 Q234.9031,503.6719 233.5906,502.875 Q232.2938,502.0625 231.6375,500.5938 Q230.9813,499.1094 230.9813,497.1406 Q230.9813,495.7188 231.3719,494.5469 Q231.7781,493.3594 232.5594,492.4844 Q233.3406,491.6094 234.4813,491.1406 Q235.6219,490.6563 237.0906,490.6563 Q238.0438,490.6563 238.9344,490.8594 Q239.8406,491.0469 240.7781,491.5156 L239.95,493.2969 Q239.1688,492.9219 238.5125,492.7344 Q237.8563,492.5313 237.0594,492.5313 Z " fill="#000000"/><text fill="#000000" font-family="sans-serif" font-size="14" lengthAdjust="spacing" textLength="100" x="253.05" y="502.432">StorageSystem</text><line style="stroke:#181818;stroke-width:0.5;" x1="213.5" x2="364.5" y1="513" y2="513"/><line style="stroke:#181818;stroke-width:0.5;" x1="213.5" x2="364.5" y1="521" y2="521"/><text fill="#000000" font-family="sans-serif" font-size="14" lengthAdjust="spacing" textLength="141" x="218.5" y="539.9659">void processEvent(...)</text></g><!--class SystemModuleEventSystem--><g id="elem_SystemModuleEventSystem"><rect codeLine="33" fill="#F1F1F1" height="200.5433" id="SystemModuleEventSystem" rx="2.5" ry="2.5" style="stroke:#181818;stroke-width:0.5;" width="543" x="400.5" y="414"/><ellipse cx="575.75" cy="430" fill="#ADD1B2" rx="11" ry="11" style="stroke:#181818;stroke-width:1.0;"/><path d="M575.8594,425.5313 Q574.9375,425.5313 574.2031,425.8438 Q573.4844,426.1563 572.9844,426.75 Q572.4844,427.3281 572.2031,428.2031 Q571.9375,429.0781 571.9375,430.1719 Q571.9375,431.6094 572.375,432.6563 Q572.8281,433.7031 573.6719,434.25 Q574.5313,434.7969 575.8438,434.7969 Q576.625,434.7969 577.3125,434.6719 Q578.0156,434.5313 579.0156,434.2188 L579.0156,436.0938 Q578.1563,436.4219 577.3906,436.5469 Q576.6406,436.6719 575.625,436.6719 Q573.7031,436.6719 572.3906,435.875 Q571.0938,435.0625 570.4375,433.5938 Q569.7813,432.1094 569.7813,430.1406 Q569.7813,428.7188 570.1719,427.5469 Q570.5781,426.3594 571.3594,425.4844 Q572.1406,424.6094 573.2813,424.1406 Q574.4219,423.6563 575.8906,423.6563 Q576.8438,423.6563 577.7344,423.8594 Q578.6406,424.0469 579.5781,424.5156 L578.75,426.2969 Q577.9688,425.9219 577.3125,425.7344 Q576.6563,425.5313 575.8594,425.5313 Z " fill="#000000"/><text fill="#000000" font-family="sans-serif" font-size="14" lengthAdjust="spacing" textLength="184" x="596.25" y="435.432">SystemModuleEventSystem</text><line style="stroke:#181818;stroke-width:0.5;" x1="401.5" x2="942.5" y1="446" y2="446"/><text fill="#000000" font-family="sans-serif" font-size="14" lengthAdjust="spacing" textLength="104" x="406.5" y="464.9659">int getEntityId()</text><text fill="#000000" font-family="sans-serif" font-size="14" lengthAdjust="spacing" textLength="242" x="406.5" y="484.0339">StorageSystem *getStorageSystem()</text><text fill="#000000" font-family="sans-serif" font-size="14" lengthAdjust="spacing" textLength="408" x="406.5" y="503.1018">void setStorage(VeinEvent::StorageSystem *t_storageSystem)</text><line style="stroke:#181818;stroke-width:0.5;" x1="401.5" x2="942.5" y1="511.2038" y2="511.2038"/><text fill="#000000" font-family="sans-serif" font-size="14" lengthAdjust="spacing" textLength="141" x="406.5" y="530.1697">void processEvent(...)</text><text fill="#000000" font-family="sans-serif" font-size="14" lengthAdjust="spacing" textLength="404" x="406.5" y="549.2376">signal void sigChangeSession(const QString &amp;t_newSession)</text><text fill="#000000" font-family="sans-serif" font-size="14" lengthAdjust="spacing" textLength="367" x="406.5" y="568.3055">signal void sigModulesPausedChanged(bool t_paused)</text><text fill="#000000" font-family="sans-serif" font-size="14" lengthAdjust="spacing" textLength="531" x="406.5" y="587.3734">void initializeEntity(const QString &amp;sessionPath, const QStringList &amp;sessionList)</text><text fill="#000000" font-family="sans-serif" font-size="14" lengthAdjust="spacing" textLength="261" x="406.5" y="606.4414">void setModulesPaused(bool t_paused)</text></g><!--reverse link EventHandler to ModuleEventHandler--><g id="link_EventHandler_ModuleEventHandler"><path codeLine="46" d="M455.5167,177.9612 C504.5067,204.1312 541.67,223.99 585.7,247.51 " fill="none" id="EventHandler-backto-ModuleEventHandler" style="stroke:#181818;stroke-width:1.0;"/><polygon fill="none" points="439.64,169.48,452.6896,183.2534,458.3438,172.669,439.64,169.48" style="stroke:#181818;stroke-width:1.0;"/></g><!--reverse link EventHandler to EventSystem--><g id="link_EventHandler_EventSystem"><path codeLine="47" d="M289,181.48 C289,211.31 289,231.95 289,257.07 " fill="none" id="EventHandler-backto-EventSystem" style="stroke:#181818;stroke-width:1.0;"/><polygon fill="none" points="289,169.48,285,175.48,289,181.48,293,175.48,289,169.48" style="stroke:#181818;stroke-width:1.0;"/><polygon fill="#000000" points="294,213.853,296.9389,204.8079,291.0611,204.8079,294,213.853" style="stroke:#000000;stroke-width:1.0;"/><text fill="#000000" font-family="sans-serif" font-size="13" lengthAdjust="spacing" textLength="112" x="303" y="213.897">forwards events to</text><text fill="#000000" font-family="sans-serif" font-size="13" lengthAdjust="spacing" textLength="20" x="267.4063" y="245.7361">0..*</text></g><!--reverse link EventSystem to IntrospectionSystem--><g id="link_EventSystem_IntrospectionSystem"><path codeLine="50" d="M237.3576,357.0763 C199.9676,397.3163 156.79,443.77 122.61,480.56 " fill="none" id="EventSystem-backto-IntrospectionSystem" style="stroke:#181818;stroke-width:1.0;"/><polygon fill="none" points="249.61,343.89,232.9622,352.9922,241.753,361.1604,249.61,343.89" style="stroke:#181818;stroke-width:1.0;"/></g><!--reverse link EventSystem to StorageSystem--><g id="link_EventSystem_StorageSystem"><path codeLine="51" d="M289,361.89 C289,402.13 289,443.77 289,480.56 " fill="none" id="EventSystem-backto-StorageSystem" style="stroke:#181818;stroke-width:1.0;"/><polygon fill="none" points="289,343.89,283,361.89,295,361.89,289,343.89" style="stroke:#181818;stroke-width:1.0;"/></g><!--reverse link EventSystem to SystemModuleEventSystem--><g id="link_EventSystem_SystemModuleEventSystem"><path codeLine="52" d="M381.3375,352.6088 C417.6775,372.7288 447.04,388.98 491.37,413.52 " fill="none" id="EventSystem-backto-SystemModuleEventSystem" style="stroke:#181818;stroke-width:1.0;"/><polygon fill="none" points="365.59,343.89,378.4312,357.8579,384.2437,347.3596,365.59,343.89" style="stroke:#181818;stroke-width:1.0;"/></g><!--SRC=[dLDHQzim47xNhpWwM9smc3s7qfTHM6651iDUWs9T4Z5RChfpIfVblq-HdCHArOtDBxPrttUd- -wxkf54yB13mr-bKGqws0lmp-AR9huBWUgL6DlfFL2_el1D0RApMe5KgZeT5sFu1Jsve3k77PeHupjg4rZp-L_93bkxm__ZrWrATwPI4KCVOgmdjcr8KIp22wPuV4t0rtDEAnG78UeWrPDLVOFl2fQ_4tZnsa2iClezZIB5UmdmydFTrfX_xEmWZ6K4jbq0nZ3TGaW1Wm8W7Vfns1g9KC5QEsBXHmD7hX1oHUnapL1V339S9RPBUcDa4s_XlojFpIaOiFjJjiF91Q5i5dyM-j6mizHXpTgQfFJR76LPZfWLMoSt-6-S01uDDs7VWcHsUjKppXhz0w55tbeLnxXVQspK0RJlOeFyO5ZpwwCQB7QAffUQUc1oagAZgcV8s1HNUNX9uuE9-5EtcRbzsKhZoHxdLIvgQuXXKVbUpGO-yjBWon3BiWThFSlUUoYcKiNAsWPusON3aLUrqQnbetzYbEYw6iL2pvAtdo297JVh73_-ZB9wbP9RN9Vt4qwMzUxNR9PPuXHaFURcSrbERnBdps5jtOjqYk8kaTynk1T3XG4K2cJC-nQKZ38JpbjI_0O0]--></g></svg>