<?plantuml 1.2026.2?><svg xmlns="http://www.w3.org/2000/svg" xmlns:xlink="http://www.w3.org/1999/xlink" contentStyleType="text/css" data-diagram-type="CLASS" height="556px" preserveAspectRatio="none" style="width:1299px;height:556px;background:#FFFFFF;" version="1.1" viewBox="0 0 1299 556" width="1299px" zoomAndPan="magnify"><defs/><g><!--class EventHandler--><g class="entity" data-qualified-name="EventHandler" data-source-line="2" id="ent0002"><rect fill="#F1F1F1" height="129.4844" rx="2.5" ry="2.5" style="stroke:#181818;stroke-width:0.5;" width="466.6992" x="269.81" y="7"/><ellipse cx="451.2939" cy="23" fill="#ADD1B2" rx="11" ry="11" style="stroke:#181818;stroke-width:1;"/><path d="M455.5283,17.4063 L455.5283,19.9219 Q454.2783,18.7656 453.3564,18.3906 Q452.4501,18.0156 451.4189,18.0156 Q449.4189,18.0156 448.3564,19.2344 Q447.2939,20.4375 447.2939,22.7969 Q447.2939,25.1563 448.3564,26.375 Q449.4189,27.5781 451.4189,27.5781 Q452.4501,27.5781 453.3564,27.2031 Q454.2783,26.8281 455.5283,25.6719 L455.5283,28.1719 Q454.4814,28.875 453.4658,29.1875 Q452.4658,29.4844 451.3095,29.4844 Q448.3876,29.4844 446.6845,27.6875 Q444.997,25.8906 444.997,22.7969 Q444.997,19.7031 446.6845,17.9063 Q448.3876,16.0938 451.3095,16.0938 Q452.4814,16.0938 453.4814,16.4063 Q454.497,16.7031 455.5283,17.4063 Z " fill="#000000"/><text fill="#000000" font-family="sans-serif" font-size="14" lengthAdjust="spacing" textLength="95.2314" x="471.7939" y="27.8467">EventHandler</text><line style="stroke:#181818;stroke-width:0.5;" x1="270.81" x2="735.5092" y1="39" y2="39"/><line style="stroke:#181818;stroke-width:0.5;" x1="270.81" x2="735.5092" y1="47" y2="47"/><text fill="#000000" font-family="sans-serif" font-size="14" lengthAdjust="spacing" textLength="328.043" x="289.81" y="63.9951">void addSubsystem(EventSystem* subsystem)</text><text fill="#000000" font-family="sans-serif" font-size="14" lengthAdjust="spacing" textLength="440.6992" x="289.81" y="80.292">void prependSubsystem(VeinEvent::EventSystem* subsystem)</text><text fill="#000000" font-family="sans-serif" font-size="14" lengthAdjust="spacing" textLength="435.6543" x="289.81" y="96.5889">void removeSubsystem(VeinEvent::EventSystem* subsystem)</text><text fill="#000000" font-family="sans-serif" font-size="14" lengthAdjust="spacing" textLength="164.0898" x="289.81" y="112.8857">void clearSubsystems()</text><g data-visibility-modifier="PROTECTED_METHOD"><polygon fill="#FFFF44" points="280.81,120.8359,284.81,124.8359,280.81,128.8359,276.81,124.8359" style="stroke:#B38D22;stroke-width:1;"/></g><text fill="#000000" font-family="sans-serif" font-size="14" lengthAdjust="spacing" textLength="301.9297" x="289.81" y="129.1826">void customEvent(QEvent *event) override</text></g><!--class ModuleEventHandler--><g class="entity" data-qualified-name="ModuleEventHandler" data-source-line="10" id="ent0003"><rect fill="#F1F1F1" height="96.8906" rx="2.5" ry="2.5" style="stroke:#181818;stroke-width:0.5;" width="462.8027" x="690.76" y="213.48"/><ellipse cx="844.842" cy="229.48" fill="#ADD1B2" rx="11" ry="11" style="stroke:#181818;stroke-width:1;"/><path d="M849.0764,223.8863 L849.0764,226.4019 Q847.8264,225.2456 846.9045,224.8706 Q845.9983,224.4956 844.967,224.4956 Q842.967,224.4956 841.9045,225.7144 Q840.842,226.9175 840.842,229.2769 Q840.842,231.6363 841.9045,232.855 Q842.967,234.0581 844.967,234.0581 Q845.9983,234.0581 846.9045,233.6831 Q847.8264,233.3081 849.0764,232.1519 L849.0764,234.6519 Q848.0295,235.355 847.0139,235.6675 Q846.0139,235.9644 844.8577,235.9644 Q841.9358,235.9644 840.2327,234.1675 Q838.5452,232.3706 838.5452,229.2769 Q838.5452,226.1831 840.2327,224.3863 Q841.9358,222.5738 844.8577,222.5738 Q846.0295,222.5738 847.0295,222.8863 Q848.0452,223.1831 849.0764,223.8863 Z " fill="#000000"/><text fill="#000000" font-family="sans-serif" font-size="14" lengthAdjust="spacing" textLength="146.1387" x="865.342" y="234.3267">ModuleEventHandler</text><line style="stroke:#181818;stroke-width:0.5;" x1="691.76" x2="1152.5627" y1="245.48" y2="245.48"/><text fill="#000000" font-family="sans-serif" font-size="14" lengthAdjust="spacing" textLength="359.625" x="696.76" y="262.4751">QList&lt;VeinEvent::EventSystem *&gt; moduleSystems</text><line style="stroke:#181818;stroke-width:0.5;" x1="691.76" x2="1152.5627" y1="269.7769" y2="269.7769"/><text fill="#000000" font-family="sans-serif" font-size="14" lengthAdjust="spacing" textLength="450.8027" x="696.76" y="286.772">void addModuleSystem(VeinEvent::EventSystem *eventSystem)</text><text fill="#000000" font-family="sans-serif" font-size="14" lengthAdjust="spacing" textLength="189.9434" x="696.76" y="303.0689">void clearModuleSystems()</text></g><g class="entity" data-qualified-name="GMN4" data-source-line="16" id="ent0005"><path d="M771.52,59.18 L771.52,84.3128 A0,0 0 0 0 771.52,84.3128 L919.1,84.3128 L922.42,213.3 L927.1,84.3128 L1074.8003,84.3128 A0,0 0 0 0 1074.8003,84.3128 L1074.8003,69.18 L1064.8003,59.18 L771.52,59.18 A0,0 0 0 0 771.52,59.18" fill="#FEFFDD" style="stroke:#181818;stroke-width:0.5;"/><path d="M1064.8003,59.18 L1064.8003,69.18 L1074.8003,69.18 L1064.8003,59.18" fill="#FEFFDD" style="stroke:#181818;stroke-width:0.5;"/><text fill="#000000" font-family="sans-serif" font-size="13" lengthAdjust="spacing" textLength="282.2803" x="777.52" y="76.2469">Modules' event systems are processed first</text></g><!--class EventSystem--><g class="entity" data-qualified-name="EventSystem" data-source-line="19" id="ent0007"><rect fill="#F1F1F1" height="80.5938" rx="2.5" ry="2.5" style="stroke:#181818;stroke-width:0.5;" width="300.75" x="352.79" y="221.63"/><ellipse cx="452.7588" cy="237.63" fill="#A9DCDF" rx="11" ry="11" style="stroke:#181818;stroke-width:1;"/><path d="M453.3369,232.8956 L451.4306,238.0206 L455.2431,238.0206 L453.3369,232.8956 Z M452.1963,230.2081 L454.4775,230.2081 L459.3994,243.13 L457.0869,243.13 L455.9463,239.9581 L450.7431,239.9581 L449.6181,243.13 L447.2744,243.13 L452.1963,230.2081 Z " fill="#000000"/><text fill="#000000" font-family="sans-serif" font-size="14" font-style="italic" lengthAdjust="spacing" textLength="92.3125" x="473.2588" y="242.4767">EventSystem</text><line style="stroke:#181818;stroke-width:0.5;" x1="353.79" x2="652.54" y1="253.63" y2="253.63"/><line style="stroke:#181818;stroke-width:0.5;" x1="353.79" x2="652.54" y1="261.63" y2="261.63"/><text fill="#000000" font-family="sans-serif" font-size="14" lengthAdjust="spacing" textLength="288.75" x="358.79" y="278.6251">signal void sigSendEvent(QEvent *event)</text><text fill="#000000" font-family="sans-serif" font-size="14" font-style="italic" lengthAdjust="spacing" textLength="241.6641" x="358.79" y="294.922">void processEvent(QEvent *event)</text></g><!--class IntrospectionSystem--><g class="entity" data-qualified-name="IntrospectionSystem" data-source-line="24" id="ent0008"><rect fill="#F1F1F1" height="64.2969" rx="2.5" ry="2.5" style="stroke:#181818;stroke-width:0.5;" width="176.3271" x="7" y="428.41"/><ellipse cx="22" cy="444.41" fill="#ADD1B2" rx="11" ry="11" style="stroke:#181818;stroke-width:1;"/><path d="M26.2344,438.8162 L26.2344,441.3319 Q24.9844,440.1756 24.0625,439.8006 Q23.1563,439.4256 22.125,439.4256 Q20.125,439.4256 19.0625,440.6444 Q18,441.8475 18,444.2069 Q18,446.5662 19.0625,447.785 Q20.125,448.9881 22.125,448.9881 Q23.1563,448.9881 24.0625,448.6131 Q24.9844,448.2381 26.2344,447.0819 L26.2344,449.5819 Q25.1875,450.285 24.1719,450.5975 Q23.1719,450.8944 22.0156,450.8944 Q19.0938,450.8944 17.3906,449.0975 Q15.7031,447.3006 15.7031,444.2069 Q15.7031,441.1131 17.3906,439.3162 Q19.0938,437.5037 22.0156,437.5037 Q23.1875,437.5037 24.1875,437.8162 Q25.2031,438.1131 26.2344,438.8162 Z " fill="#000000"/><text fill="#000000" font-family="sans-serif" font-size="14" lengthAdjust="spacing" textLength="144.3271" x="36" y="449.2567">IntrospectionSystem</text><line style="stroke:#181818;stroke-width:0.5;" x1="8" x2="182.3271" y1="460.41" y2="460.41"/><line style="stroke:#181818;stroke-width:0.5;" x1="8" x2="182.3271" y1="468.41" y2="468.41"/><text fill="#000000" font-family="sans-serif" font-size="14" lengthAdjust="spacing" textLength="152.5645" x="13" y="485.4051">void processEvent(...)</text></g><!--class AbstractEventSystem--><g class="entity" data-qualified-name="AbstractEventSystem" data-source-line="28" id="ent0009"><rect fill="#F1F1F1" height="64.2969" rx="2.5" ry="2.5" style="stroke:#181818;stroke-width:0.5;" width="183.0811" x="1109.62" y="39.59"/><ellipse cx="1124.62" cy="55.59" fill="#ADD1B2" rx="11" ry="11" style="stroke:#181818;stroke-width:1;"/><path d="M1128.8544,49.9962 L1128.8544,52.5119 Q1127.6044,51.3556 1126.6825,50.9806 Q1125.7763,50.6056 1124.745,50.6056 Q1122.745,50.6056 1121.6825,51.8244 Q1120.62,53.0275 1120.62,55.3869 Q1120.62,57.7462 1121.6825,58.965 Q1122.745,60.1681 1124.745,60.1681 Q1125.7763,60.1681 1126.6825,59.7931 Q1127.6044,59.4181 1128.8544,58.2619 L1128.8544,60.7619 Q1127.8075,61.465 1126.7919,61.7775 Q1125.7919,62.0744 1124.6356,62.0744 Q1121.7138,62.0744 1120.0106,60.2775 Q1118.3231,58.4806 1118.3231,55.3869 Q1118.3231,52.2931 1120.0106,50.4962 Q1121.7138,48.6837 1124.6356,48.6837 Q1125.8075,48.6837 1126.8075,48.9962 Q1127.8231,49.2931 1128.8544,49.9962 Z " fill="#000000"/><text fill="#000000" font-family="sans-serif" font-size="14" lengthAdjust="spacing" textLength="151.0811" x="1138.62" y="60.4367">AbstractEventSystem</text><line style="stroke:#181818;stroke-width:0.5;" x1="1110.62" x2="1291.7011" y1="71.59" y2="71.59"/><line style="stroke:#181818;stroke-width:0.5;" x1="1110.62" x2="1291.7011" y1="79.59" y2="79.59"/><text fill="#000000" font-family="sans-serif" font-size="14" lengthAdjust="spacing" textLength="152.5645" x="1115.62" y="96.5851">void processEvent(...)</text></g><!--class SystemModuleEventSystem--><g class="entity" data-qualified-name="SystemModuleEventSystem" data-source-line="32" id="ent0010"><rect fill="#F1F1F1" height="178.375" rx="2.5" ry="2.5" style="stroke:#181818;stroke-width:0.5;" width="570.1748" x="218.08" y="371.37"/><ellipse cx="401.2045" cy="387.37" fill="#ADD1B2" rx="11" ry="11" style="stroke:#181818;stroke-width:1;"/><path d="M405.4389,381.7763 L405.4389,384.2919 Q404.1889,383.1356 403.267,382.7606 Q402.3608,382.3856 401.3295,382.3856 Q399.3295,382.3856 398.267,383.6044 Q397.2045,384.8075 397.2045,387.1669 Q397.2045,389.5263 398.267,390.745 Q399.3295,391.9481 401.3295,391.9481 Q402.3608,391.9481 403.267,391.5731 Q404.1889,391.1981 405.4389,390.0419 L405.4389,392.5419 Q404.392,393.245 403.3764,393.5575 Q402.3764,393.8544 401.2201,393.8544 Q398.2983,393.8544 396.5951,392.0575 Q394.9076,390.2606 394.9076,387.1669 Q394.9076,384.0731 396.5951,382.2763 Q398.2983,380.4638 401.2201,380.4638 Q402.392,380.4638 403.392,380.7763 Q404.4076,381.0731 405.4389,381.7763 Z " fill="#000000"/><text fill="#000000" font-family="sans-serif" font-size="14" lengthAdjust="spacing" textLength="195.4258" x="421.7045" y="392.2167">SystemModuleEventSystem</text><line style="stroke:#181818;stroke-width:0.5;" x1="219.08" x2="787.2548" y1="403.37" y2="403.37"/><text fill="#000000" font-family="sans-serif" font-size="14" lengthAdjust="spacing" textLength="110.5029" x="224.08" y="420.3651">int getEntityId()</text><text fill="#000000" font-family="sans-serif" font-size="14" lengthAdjust="spacing" textLength="398.5898" x="224.08" y="436.662">VeinStorage::AbstractEventSystem *getStorageSystem()</text><text fill="#000000" font-family="sans-serif" font-size="14" lengthAdjust="spacing" textLength="496.7471" x="224.08" y="452.9589">void setStorage(VeinStorage::AbstractEventSystem *t_storageSystem)</text><line style="stroke:#181818;stroke-width:0.5;" x1="219.08" x2="787.2548" y1="460.2606" y2="460.2606"/><text fill="#000000" font-family="sans-serif" font-size="14" lengthAdjust="spacing" textLength="152.5645" x="224.08" y="477.2557">void processEvent(...)</text><text fill="#000000" font-family="sans-serif" font-size="14" lengthAdjust="spacing" textLength="423.3291" x="224.08" y="493.5526">signal void sigChangeSession(const QString &amp;t_newSession)</text><text fill="#000000" font-family="sans-serif" font-size="14" lengthAdjust="spacing" textLength="380.29" x="224.08" y="509.8495">signal void sigModulesPausedChanged(bool t_paused)</text><text fill="#000000" font-family="sans-serif" font-size="14" lengthAdjust="spacing" textLength="558.1748" x="224.08" y="526.1464">void initializeEntity(const QString &amp;sessionPath, const QStringList &amp;sessionList)</text><text fill="#000000" font-family="sans-serif" font-size="14" lengthAdjust="spacing" textLength="273.2666" x="224.08" y="542.4432">void setModulesPaused(bool t_paused)</text></g><!--class VeinStorage--><g class="entity" data-qualified-name="VeinStorage" data-source-line="50" id="ent0014"><rect fill="#F1F1F1" height="48" rx="2.5" ry="2.5" style="stroke:#181818;stroke-width:0.5;" width="117.7295" x="831.66" y="436.56"/><ellipse cx="846.66" cy="452.56" fill="#ADD1B2" rx="11" ry="11" style="stroke:#181818;stroke-width:1;"/><path d="M850.8944,446.9663 L850.8944,449.4819 Q849.6444,448.3256 848.7225,447.9506 Q847.8163,447.5756 846.785,447.5756 Q844.785,447.5756 843.7225,448.7944 Q842.66,449.9975 842.66,452.3569 Q842.66,454.7163 843.7225,455.935 Q844.785,457.1381 846.785,457.1381 Q847.8163,457.1381 848.7225,456.7631 Q849.6444,456.3881 850.8944,455.2319 L850.8944,457.7319 Q849.8475,458.435 848.8319,458.7475 Q847.8319,459.0444 846.6756,459.0444 Q843.7538,459.0444 842.0506,457.2475 Q840.3631,455.4506 840.3631,452.3569 Q840.3631,449.2631 842.0506,447.4663 Q843.7538,445.6538 846.6756,445.6538 Q847.8475,445.6538 848.8475,445.9663 Q849.8631,446.2631 850.8944,446.9663 Z " fill="#000000"/><text fill="#000000" font-family="sans-serif" font-size="14" lengthAdjust="spacing" textLength="85.7295" x="860.66" y="457.4067">VeinStorage</text><line style="stroke:#181818;stroke-width:0.5;" x1="832.66" x2="948.3895" y1="468.56" y2="468.56"/><line style="stroke:#181818;stroke-width:0.5;" x1="832.66" x2="948.3895" y1="476.56" y2="476.56"/></g><!--reverse link EventHandler to ModuleEventHandler--><g class="link" data-entity-1="ent0002" data-entity-2="ent0003" data-link-type="extension" data-source-line="45" id="lnk11"><path codeLine="45" d="M662.6092,144.3563 C718.0792,169.2763 764.08,189.93 815.5,213.02" fill="none" id="EventHandler-backto-ModuleEventHandler" style="stroke:#181818;stroke-width:1;"/><polygon fill="none" points="646.19,136.98,660.1504,149.8294,665.068,138.8833,646.19,136.98" style="stroke:#181818;stroke-width:1;"/></g><!--reverse link EventHandler to EventSystem--><g class="link" data-entity-1="ent0002" data-entity-2="ent0007" data-link-type="aggregation" data-source-line="46" id="lnk12"><path codeLine="46" d="M503.16,148.98 C503.16,176.98 503.16,196.92 503.16,221.37" fill="none" id="EventHandler-backto-EventSystem" style="stroke:#181818;stroke-width:1;"/><polygon fill="none" points="503.16,136.98,499.16,142.98,503.16,148.98,507.16,142.98,503.16,136.98" style="stroke:#181818;stroke-width:1;"/><polygon fill="#000000" points="508.16,180.0464,511.0989,171.0013,505.2211,171.0013,508.16,180.0464" style="stroke:#000000;stroke-width:1;"/><text fill="#000000" font-family="sans-serif" font-size="13" lengthAdjust="spacing" textLength="121.9575" x="517.16" y="179.5469">forwards events to</text><text fill="#000000" font-family="sans-serif" font-size="13" lengthAdjust="spacing" textLength="23.0356" x="478.2574" y="210.4885">0..*</text></g><!--reverse link EventSystem to IntrospectionSystem--><g class="link" data-entity-1="ent0007" data-entity-2="ent0008" data-link-type="extension" data-source-line="49" id="lnk13"><path codeLine="49" d="M342.7163,308.34 C290.6563,325.72 249.59,343 200.16,371.37 C173.12,386.9 146.26,409.63 126.47,428.12" fill="none" id="EventSystem-backto-IntrospectionSystem" style="stroke:#181818;stroke-width:1;"/><polygon fill="none" points="359.79,302.64,340.8163,302.6487,344.6163,314.0312,359.79,302.64" style="stroke:#181818;stroke-width:1;"/></g><!--reverse link EventSystem to VeinStorage--><g class="link" data-entity-1="ent0007" data-entity-2="ent0014" data-link-type="extension" data-source-line="50" id="lnk15"><path codeLine="50" d="M649.6941,308.2375 C717.8441,330.4475 776.25,351.92 806.16,371.37 C831.51,387.86 854.75,413.45 870.33,432.82" fill="none" id="EventSystem-backto-VeinStorage" style="stroke:#181818;stroke-width:1;"/><polygon fill="none" points="632.58,302.66,647.8349,313.9422,651.5532,302.5328,632.58,302.66" style="stroke:#181818;stroke-width:1;"/></g><!--reverse link EventSystem to SystemModuleEventSystem--><g class="link" data-entity-1="ent0007" data-entity-2="ent0010" data-link-type="extension" data-source-line="51" id="lnk16"><path codeLine="51" d="M503.16,320.72 C503.16,340.47 503.16,347.18 503.16,371.1" fill="none" id="EventSystem-backto-SystemModuleEventSystem" style="stroke:#181818;stroke-width:1;"/><polygon fill="none" points="503.16,302.72,497.16,320.72,509.16,320.72,503.16,302.72" style="stroke:#181818;stroke-width:1;"/></g><?plantuml-src dLDHQzim47xNhpWwM1spc3s7KXYbiC8A3OQz1iMw9AAsP7Jdb2xBVvyiEOcTk0tCBxPyt_VTwRkxefH4yBX5mp-bKIKws0dmpzPg1LAfl5dIEp5MIG3buJi5EloUdD2rmnfDZ_4RjGcisUmgsM5bj_X_tA94wOvKIcBeIumrnBOA4iayl235zZK1dyyvhL3iXIY23yzMDIMEk37_fOdlnck2z1wgG8nd6lZtt8ia7mdWwN1-hJw_lTbU6Ci8REi0Z66wXI01dGCW7Vfss0A9KC5AEsBXMmCjLmYv97QoO2XEtUzAYTSblJQoZ5NuxznJnnmCsDr1RN-OWf1s57yq-icmirHZmTgQGUfBZIpBUimVNRRBegyn8xZNuW7x5YIpqyk6SLhgLuGAUMDLREPkfR5KUz3-BclaHyEQtvzKDsY7QDlTdAsJQvpDnkfCFRS3T0Cn48Xs7o79TJrUK5zk8ZupOgIn3njfFDdZV1kImXfYcEVU1hE6hxmm-DR5HjdTxBt8nWzPb5B9qjeIU567dxrXraQpbgN-Wz6zysmK4xr8tdo3GQnTlMEyFVHKlLk3AixJ--OFjldkxtGwikL3aFMOc-zPbjuCLcC6A-lUf5CKbuty4iAzw39qe91WPBelGTUwUyduO835Fm00?></g></svg>