<svg xmlns="http://www.w3.org/2000/svg" xmlns:xlink="http://www.w3.org/1999/xlink" contentStyleType="text/css" height="907px" preserveAspectRatio="none" style="width:1377px;height:907px;background:#FFFFFF;" version="1.1" viewBox="0 0 1377 907" width="1377px" zoomAndPan="magnify"><defs/><g><!--class QEvent--><g id="elem_QEvent"><rect codeLine="2" fill="#F1F1F1" height="105.2038" id="QEvent" rx="2.5" ry="2.5" style="stroke:#181818;stroke-width:0.5;" width="242" x="357.5" y="7"/><ellipse cx="450.25" cy="23" fill="#ADD1B2" rx="11" ry="11" style="stroke:#181818;stroke-width:1.0;"/><path d="M450.3594,18.5313 Q449.4375,18.5313 448.7031,18.8438 Q447.9844,19.1563 447.4844,19.75 Q446.9844,20.3281 446.7031,21.2031 Q446.4375,22.0781 446.4375,23.1719 Q446.4375,24.6094 446.875,25.6563 Q447.3281,26.7031 448.1719,27.25 Q449.0313,27.7969 450.3438,27.7969 Q451.125,27.7969 451.8125,27.6719 Q452.5156,27.5313 453.5156,27.2188 L453.5156,29.0938 Q452.6563,29.4219 451.8906,29.5469 Q451.1406,29.6719 450.125,29.6719 Q448.2031,29.6719 446.8906,28.875 Q445.5938,28.0625 444.9375,26.5938 Q444.2813,25.1094 444.2813,23.1406 Q444.2813,21.7188 444.6719,20.5469 Q445.0781,19.3594 445.8594,18.4844 Q446.6406,17.6094 447.7813,17.1406 Q448.9219,16.6563 450.3906,16.6563 Q451.3438,16.6563 452.2344,16.8594 Q453.1406,17.0469 454.0781,17.5156 L453.25,19.2969 Q452.4688,18.9219 451.8125,18.7344 Q451.1563,18.5313 450.3594,18.5313 Z " fill="#000000"/><text fill="#000000" font-family="sans-serif" font-size="14" lengthAdjust="spacing" textLength="48" x="470.75" y="28.432">QEvent</text><line style="stroke:#181818;stroke-width:0.5;" x1="358.5" x2="598.5" y1="39" y2="39"/><line style="stroke:#181818;stroke-width:0.5;" x1="358.5" x2="598.5" y1="47" y2="47"/><text fill="#000000" font-family="sans-serif" font-size="14" lengthAdjust="spacing" textLength="84" x="363.5" y="65.9659">void accept()</text><text fill="#000000" font-family="sans-serif" font-size="14" lengthAdjust="spacing" textLength="73" x="363.5" y="85.0339">Type type()</text><text fill="#000000" font-family="sans-serif" font-size="14" lengthAdjust="spacing" text-decoration="underline" textLength="230" x="363.5" y="104.1018">int registerEventType(int hint = -1)</text></g><path d="M634,23.04 L634,50.599 L593.5,98.6698 L634,58.599 L634,86.158 A0,0 0 0 0 634,86.158 L957,86.158 A0,0 0 0 0 957,86.158 L957,33.04 L947,23.04 L634,23.04 A0,0 0 0 0 634,23.04 " fill="#FEFFDD" style="stroke:#181818;stroke-width:0.5;"/><path d="M947,23.04 L947,33.04 L957,33.04 L947,23.04 " fill="#FEFFDD" style="stroke:#181818;stroke-width:0.5;"/><text fill="#000000" font-family="sans-serif" font-size="13" lengthAdjust="spacing" textLength="302" x="640" y="41.937">Each event class statically calls registerEventType().</text><text fill="#000000" font-family="sans-serif" font-size="13" lengthAdjust="spacing" textLength="258" x="640" y="59.643">To identify event type, values for type() and</text><text fill="#000000" font-family="sans-serif" font-size="13" lengthAdjust="spacing" textLength="190" x="640" y="77.349">getQEventType() are compared.</text><!--class NetworkStatusEvent--><g id="elem_NetworkStatusEvent"><rect codeLine="13" fill="#F1F1F1" height="67.0679" id="NetworkStatusEvent" rx="2.5" ry="2.5" style="stroke:#181818;stroke-width:0.5;" width="167" x="205" y="192.27"/><ellipse cx="220" cy="208.27" fill="#ADD1B2" rx="11" ry="11" style="stroke:#181818;stroke-width:1.0;"/><path d="M220.1094,203.8012 Q219.1875,203.8012 218.4531,204.1137 Q217.7344,204.4262 217.2344,205.02 Q216.7344,205.5981 216.4531,206.4731 Q216.1875,207.3481 216.1875,208.4419 Q216.1875,209.8794 216.625,210.9262 Q217.0781,211.9731 217.9219,212.52 Q218.7813,213.0669 220.0938,213.0669 Q220.875,213.0669 221.5625,212.9419 Q222.2656,212.8012 223.2656,212.4887 L223.2656,214.3637 Q222.4063,214.6919 221.6406,214.8169 Q220.8906,214.9419 219.875,214.9419 Q217.9531,214.9419 216.6406,214.145 Q215.3438,213.3325 214.6875,211.8637 Q214.0313,210.3794 214.0313,208.4106 Q214.0313,206.9887 214.4219,205.8169 Q214.8281,204.6294 215.6094,203.7544 Q216.3906,202.8794 217.5313,202.4106 Q218.6719,201.9262 220.1406,201.9262 Q221.0938,201.9262 221.9844,202.1294 Q222.8906,202.3169 223.8281,202.7856 L223,204.5669 Q222.2188,204.1919 221.5625,204.0044 Q220.9063,203.8012 220.1094,203.8012 Z " fill="#000000"/><text fill="#000000" font-family="sans-serif" font-size="14" lengthAdjust="spacing" textLength="135" x="234" y="213.702">NetworkStatusEvent</text><line style="stroke:#181818;stroke-width:0.5;" x1="206" x2="371" y1="224.27" y2="224.27"/><line style="stroke:#181818;stroke-width:0.5;" x1="206" x2="371" y1="232.27" y2="232.27"/><text fill="#000000" font-family="sans-serif" font-size="14" lengthAdjust="spacing" text-decoration="underline" textLength="132" x="211" y="251.2359">int getQEventType()</text></g><!--class ProtocolEvent--><g id="elem_ProtocolEvent"><rect codeLine="17" fill="#F1F1F1" height="67.0679" id="ProtocolEvent" rx="2.5" ry="2.5" style="stroke:#181818;stroke-width:0.5;" width="144" x="406.5" y="192.27"/><ellipse cx="430.95" cy="208.27" fill="#ADD1B2" rx="11" ry="11" style="stroke:#181818;stroke-width:1.0;"/><path d="M431.0594,203.8012 Q430.1375,203.8012 429.4031,204.1137 Q428.6844,204.4262 428.1844,205.02 Q427.6844,205.5981 427.4031,206.4731 Q427.1375,207.3481 427.1375,208.4419 Q427.1375,209.8794 427.575,210.9262 Q428.0281,211.9731 428.8719,212.52 Q429.7313,213.0669 431.0438,213.0669 Q431.825,213.0669 432.5125,212.9419 Q433.2156,212.8012 434.2156,212.4887 L434.2156,214.3637 Q433.3563,214.6919 432.5906,214.8169 Q431.8406,214.9419 430.825,214.9419 Q428.9031,214.9419 427.5906,214.145 Q426.2938,213.3325 425.6375,211.8637 Q424.9813,210.3794 424.9813,208.4106 Q424.9813,206.9887 425.3719,205.8169 Q425.7781,204.6294 426.5594,203.7544 Q427.3406,202.8794 428.4813,202.4106 Q429.6219,201.9262 431.0906,201.9262 Q432.0438,201.9262 432.9344,202.1294 Q433.8406,202.3169 434.7781,202.7856 L433.95,204.5669 Q433.1688,204.1919 432.5125,204.0044 Q431.8563,203.8012 431.0594,203.8012 Z " fill="#000000"/><text fill="#000000" font-family="sans-serif" font-size="14" lengthAdjust="spacing" textLength="91" x="447.05" y="213.702">ProtocolEvent</text><line style="stroke:#181818;stroke-width:0.5;" x1="407.5" x2="549.5" y1="224.27" y2="224.27"/><line style="stroke:#181818;stroke-width:0.5;" x1="407.5" x2="549.5" y1="232.27" y2="232.27"/><text fill="#000000" font-family="sans-serif" font-size="14" lengthAdjust="spacing" text-decoration="underline" textLength="132" x="412.5" y="251.2359">int getQEventType()</text></g><!--class CommandEvent--><g id="elem_CommandEvent"><rect codeLine="21" fill="#F1F1F1" height="105.2038" id="CommandEvent" rx="2.5" ry="2.5" style="stroke:#181818;stroke-width:0.5;" width="208" x="585.5" y="173.2"/><ellipse cx="632.25" cy="189.2" fill="#ADD1B2" rx="11" ry="11" style="stroke:#181818;stroke-width:1.0;"/><path d="M632.3594,184.7312 Q631.4375,184.7312 630.7031,185.0437 Q629.9844,185.3562 629.4844,185.95 Q628.9844,186.5281 628.7031,187.4031 Q628.4375,188.2781 628.4375,189.3719 Q628.4375,190.8094 628.875,191.8562 Q629.3281,192.9031 630.1719,193.45 Q631.0313,193.9969 632.3438,193.9969 Q633.125,193.9969 633.8125,193.8719 Q634.5156,193.7312 635.5156,193.4187 L635.5156,195.2937 Q634.6563,195.6219 633.8906,195.7469 Q633.1406,195.8719 632.125,195.8719 Q630.2031,195.8719 628.8906,195.075 Q627.5938,194.2625 626.9375,192.7937 Q626.2813,191.3094 626.2813,189.3406 Q626.2813,187.9187 626.6719,186.7469 Q627.0781,185.5594 627.8594,184.6844 Q628.6406,183.8094 629.7813,183.3406 Q630.9219,182.8562 632.3906,182.8562 Q633.3438,182.8562 634.2344,183.0594 Q635.1406,183.2469 636.0781,183.7156 L635.25,185.4969 Q634.4688,185.1219 633.8125,184.9344 Q633.1563,184.7312 632.3594,184.7312 Z " fill="#000000"/><text fill="#000000" font-family="sans-serif" font-size="14" lengthAdjust="spacing" textLength="106" x="652.75" y="194.632">CommandEvent</text><line style="stroke:#181818;stroke-width:0.5;" x1="586.5" x2="792.5" y1="205.2" y2="205.2"/><line style="stroke:#181818;stroke-width:0.5;" x1="586.5" x2="792.5" y1="213.2" y2="213.2"/><text fill="#000000" font-family="sans-serif" font-size="14" lengthAdjust="spacing" text-decoration="underline" textLength="132" x="591.5" y="232.1659">int getQEventType()</text><text fill="#000000" font-family="sans-serif" font-size="14" lengthAdjust="spacing" textLength="196" x="591.5" y="251.2339">EventSubtype eventSubtype()</text><text fill="#000000" font-family="sans-serif" font-size="14" lengthAdjust="spacing" textLength="156" x="591.5" y="270.3018">EventData *eventData()</text></g><path d="M829,189.25 L829,216.809 L787.5,245.8019 L829,224.809 L829,252.368 A0,0 0 0 0 829,252.368 L1112,252.368 A0,0 0 0 0 1112,252.368 L1112,199.25 L1102,189.25 L829,189.25 A0,0 0 0 0 829,189.25 " fill="#FEFFDD" style="stroke:#181818;stroke-width:0.5;"/><path d="M1102,189.25 L1102,199.25 L1112,199.25 L1102,189.25 " fill="#FEFFDD" style="stroke:#181818;stroke-width:0.5;"/><text fill="#000000" font-family="sans-serif" font-size="13" lengthAdjust="spacing" textLength="228" x="835" y="208.147">enum CommandEvent::EventSubtype:</text><ellipse cx="840.5" cy="222.162" fill="#000000" rx="2.5" ry="2.5" style="stroke:#000000;stroke-width:0.0;"/><text fill="#000000" font-family="sans-serif" font-size="13" lengthAdjust="spacing" textLength="109" x="847" y="225.853">NOTIFICATION: All</text><ellipse cx="840.5" cy="239.868" fill="#000000" rx="2.5" ry="2.5" style="stroke:#000000;stroke-width:0.0;"/><text fill="#000000" font-family="sans-serif" font-size="13" lengthAdjust="spacing" textLength="250" x="847" y="243.559">TRANSACTION: subscribed Client -&gt; Server</text><!--class EventData--><g id="elem_EventData"><rect codeLine="36" fill="#F1F1F1" height="143.3396" id="EventData" rx="2.5" ry="2.5" style="stroke:#181818;stroke-width:0.5;" width="232" x="573.5" y="357.41"/><ellipse cx="653.25" cy="373.41" fill="#A9DCDF" rx="11" ry="11" style="stroke:#181818;stroke-width:1.0;"/><path d="M656.5938,378.66 L655.125,374.91 L650.6875,374.91 L649.25,378.66 L647.125,378.66 L652.0781,365.9412 L653.8281,365.9412 L658.75,378.66 L656.5938,378.66 Z M653.25,369.7069 Q653.2031,369.5506 653.0781,369.1912 Q652.9531,368.8319 652.8438,368.4569 Q652.7344,368.0662 652.9375,368.0037 Q653.0938,368.1912 653,368.5506 Q652.9063,368.8944 652.8125,369.1912 Q652.7188,369.4725 652.6406,369.7069 L651.4063,373.0194 L654.4844,373.0194 L653.25,369.7069 Z " fill="#000000"/><text fill="#000000" font-family="sans-serif" font-size="14" font-style="italic" lengthAdjust="spacing" textLength="64" x="673.75" y="378.842">EventData</text><line style="stroke:#181818;stroke-width:0.5;" x1="574.5" x2="804.5" y1="389.41" y2="389.41"/><text fill="#000000" font-family="sans-serif" font-size="14" lengthAdjust="spacing" textLength="82" x="579.5" y="408.3759">int entityId()</text><line style="stroke:#181818;stroke-width:0.5;" x1="574.5" x2="804.5" y1="416.4779" y2="416.4779"/><text fill="#000000" font-family="sans-serif" font-size="14" font-style="italic" lengthAdjust="spacing" textLength="56" x="579.5" y="435.4439">int type()</text><text fill="#000000" font-family="sans-serif" font-size="14" font-style="italic" lengthAdjust="spacing" textLength="82" x="579.5" y="454.5118">bool isValid()</text><text fill="#000000" font-family="sans-serif" font-size="14" font-style="italic" lengthAdjust="spacing" textLength="136" x="579.5" y="473.5797">QByteArray serialize()</text><text fill="#000000" font-family="sans-serif" font-size="14" font-style="italic" lengthAdjust="spacing" textLength="220" x="579.5" y="492.6476">void deserialize(QByteArray &amp;data)</text></g><!--class EntityData--><g id="elem_EntityData"><rect codeLine="45" fill="#F1F1F1" height="143.3396" id="EntityData" rx="2.5" ry="2.5" style="stroke:#181818;stroke-width:0.5;" width="245" x="7" y="561.75"/><ellipse cx="90.75" cy="577.75" fill="#ADD1B2" rx="11" ry="11" style="stroke:#181818;stroke-width:1.0;"/><path d="M90.8594,573.2813 Q89.9375,573.2813 89.2031,573.5938 Q88.4844,573.9063 87.9844,574.5 Q87.4844,575.0781 87.2031,575.9531 Q86.9375,576.8281 86.9375,577.9219 Q86.9375,579.3594 87.375,580.4063 Q87.8281,581.4531 88.6719,582 Q89.5313,582.5469 90.8438,582.5469 Q91.625,582.5469 92.3125,582.4219 Q93.0156,582.2813 94.0156,581.9688 L94.0156,583.8438 Q93.1563,584.1719 92.3906,584.2969 Q91.6406,584.4219 90.625,584.4219 Q88.7031,584.4219 87.3906,583.625 Q86.0938,582.8125 85.4375,581.3438 Q84.7813,579.8594 84.7813,577.8906 Q84.7813,576.4688 85.1719,575.2969 Q85.5781,574.1094 86.3594,573.2344 Q87.1406,572.3594 88.2813,571.8906 Q89.4219,571.4063 90.8906,571.4063 Q91.8438,571.4063 92.7344,571.6094 Q93.6406,571.7969 94.5781,572.2656 L93.75,574.0469 Q92.9688,573.6719 92.3125,573.4844 Q91.6563,573.2813 90.8594,573.2813 Z " fill="#000000"/><text fill="#000000" font-family="sans-serif" font-size="14" lengthAdjust="spacing" textLength="69" x="111.25" y="583.182">EntityData</text><line style="stroke:#181818;stroke-width:0.5;" x1="8" x2="251" y1="593.75" y2="593.75"/><text fill="#000000" font-family="sans-serif" font-size="14" lengthAdjust="spacing" textLength="187" x="13" y="612.7159">Command eventCommand()</text><line style="stroke:#181818;stroke-width:0.5;" x1="8" x2="251" y1="620.8179" y2="620.8179"/><text fill="#000000" font-family="sans-serif" font-size="14" lengthAdjust="spacing" textLength="59" x="13" y="639.7839">int type()</text><text fill="#000000" font-family="sans-serif" font-size="14" lengthAdjust="spacing" textLength="85" x="13" y="658.8518">bool isValid()</text><text fill="#000000" font-family="sans-serif" font-size="14" lengthAdjust="spacing" textLength="144" x="13" y="677.9197">QByteArray serialize()</text><text fill="#000000" font-family="sans-serif" font-size="14" lengthAdjust="spacing" textLength="233" x="13" y="696.9876">void deserialize(QByteArray &amp;data)</text></g><g id="elem_GMN14"><path d="M32.5,774.94 L32.5,891.1761 A0,0 0 0 0 32.5,891.1761 L226.5,891.1761 A0,0 0 0 0 226.5,891.1761 L226.5,784.94 L216.5,774.94 L133.5,774.94 L129.5,705.49 L125.5,774.94 L32.5,774.94 A0,0 0 0 0 32.5,774.94 " fill="#FEFFDD" style="stroke:#181818;stroke-width:0.5;"/><path d="M216.5,774.94 L216.5,784.94 L226.5,784.94 L216.5,774.94 " fill="#FEFFDD" style="stroke:#181818;stroke-width:0.5;"/><text fill="#000000" font-family="sans-serif" font-size="13" lengthAdjust="spacing" textLength="173" x="38.5" y="793.837">enum EntityData::Command:</text><ellipse cx="44" cy="807.852" fill="#000000" rx="2.5" ry="2.5" style="stroke:#000000;stroke-width:0.0;"/><text fill="#000000" font-family="sans-serif" font-size="13" lengthAdjust="spacing" textLength="92" x="50.5" y="811.543">ECMD_INVALID</text><ellipse cx="44" cy="825.558" fill="#000000" rx="2.5" ry="2.5" style="stroke:#000000;stroke-width:0.0;"/><text fill="#000000" font-family="sans-serif" font-size="13" lengthAdjust="spacing" textLength="68" x="50.5" y="829.249">ECMD_ADD</text><ellipse cx="44" cy="843.2641" fill="#000000" rx="2.5" ry="2.5" style="stroke:#000000;stroke-width:0.0;"/><text fill="#000000" font-family="sans-serif" font-size="13" lengthAdjust="spacing" textLength="94" x="50.5" y="846.9551">ECMD_REMOVE</text><ellipse cx="44" cy="860.9701" fill="#000000" rx="2.5" ry="2.5" style="stroke:#000000;stroke-width:0.0;"/><text fill="#000000" font-family="sans-serif" font-size="13" lengthAdjust="spacing" textLength="109" x="50.5" y="864.6611">ECMD_SUBSCRIBE</text><ellipse cx="44" cy="878.6761" fill="#000000" rx="2.5" ry="2.5" style="stroke:#000000;stroke-width:0.0;"/><text fill="#000000" font-family="sans-serif" font-size="13" lengthAdjust="spacing" textLength="129" x="50.5" y="882.3671">ECMD_UNSUBSCRIBE</text></g><!--class ComponentData--><g id="elem_ComponentData"><rect codeLine="62" fill="#F1F1F1" height="143.3396" id="ComponentData" rx="2.5" ry="2.5" style="stroke:#181818;stroke-width:0.5;" width="245" x="287" y="561.75"/><ellipse cx="350.75" cy="577.75" fill="#ADD1B2" rx="11" ry="11" style="stroke:#181818;stroke-width:1.0;"/><path d="M350.8594,573.2813 Q349.9375,573.2813 349.2031,573.5938 Q348.4844,573.9063 347.9844,574.5 Q347.4844,575.0781 347.2031,575.9531 Q346.9375,576.8281 346.9375,577.9219 Q346.9375,579.3594 347.375,580.4063 Q347.8281,581.4531 348.6719,582 Q349.5313,582.5469 350.8438,582.5469 Q351.625,582.5469 352.3125,582.4219 Q353.0156,582.2813 354.0156,581.9688 L354.0156,583.8438 Q353.1563,584.1719 352.3906,584.2969 Q351.6406,584.4219 350.625,584.4219 Q348.7031,584.4219 347.3906,583.625 Q346.0938,582.8125 345.4375,581.3438 Q344.7813,579.8594 344.7813,577.8906 Q344.7813,576.4688 345.1719,575.2969 Q345.5781,574.1094 346.3594,573.2344 Q347.1406,572.3594 348.2813,571.8906 Q349.4219,571.4063 350.8906,571.4063 Q351.8438,571.4063 352.7344,571.6094 Q353.6406,571.7969 354.5781,572.2656 L353.75,574.0469 Q352.9688,573.6719 352.3125,573.4844 Q351.6563,573.2813 350.8594,573.2813 Z " fill="#000000"/><text fill="#000000" font-family="sans-serif" font-size="14" lengthAdjust="spacing" textLength="109" x="371.25" y="583.182">ComponentData</text><line style="stroke:#181818;stroke-width:0.5;" x1="288" x2="531" y1="593.75" y2="593.75"/><text fill="#000000" font-family="sans-serif" font-size="14" lengthAdjust="spacing" textLength="187" x="293" y="612.7159">Command eventCommand()</text><line style="stroke:#181818;stroke-width:0.5;" x1="288" x2="531" y1="620.8179" y2="620.8179"/><text fill="#000000" font-family="sans-serif" font-size="14" lengthAdjust="spacing" textLength="59" x="293" y="639.7839">int type()</text><text fill="#000000" font-family="sans-serif" font-size="14" lengthAdjust="spacing" textLength="85" x="293" y="658.8518">bool isValid()</text><text fill="#000000" font-family="sans-serif" font-size="14" lengthAdjust="spacing" textLength="144" x="293" y="677.9197">QByteArray serialize()</text><text fill="#000000" font-family="sans-serif" font-size="14" lengthAdjust="spacing" textLength="233" x="293" y="696.9876">void deserialize(QByteArray &amp;data)</text></g><g id="elem_GMN18"><path d="M294,774.94 L294,891.1761 A0,0 0 0 0 294,891.1761 L525,891.1761 A0,0 0 0 0 525,891.1761 L525,784.94 L515,774.94 L413.5,774.94 L409.5,705.49 L405.5,774.94 L294,774.94 A0,0 0 0 0 294,774.94 " fill="#FEFFDD" style="stroke:#181818;stroke-width:0.5;"/><path d="M515,774.94 L515,784.94 L525,784.94 L515,774.94 " fill="#FEFFDD" style="stroke:#181818;stroke-width:0.5;"/><text fill="#000000" font-family="sans-serif" font-size="13" lengthAdjust="spacing" textLength="210" x="300" y="793.837">enum ComponentData::Command:</text><ellipse cx="305.5" cy="807.852" fill="#000000" rx="2.5" ry="2.5" style="stroke:#000000;stroke-width:0.0;"/><text fill="#000000" font-family="sans-serif" font-size="13" lengthAdjust="spacing" textLength="93" x="312" y="811.543">CCMD_INVALID</text><ellipse cx="305.5" cy="825.558" fill="#000000" rx="2.5" ry="2.5" style="stroke:#000000;stroke-width:0.0;"/><text fill="#000000" font-family="sans-serif" font-size="13" lengthAdjust="spacing" textLength="69" x="312" y="829.249">CCMD_ADD</text><ellipse cx="305.5" cy="843.2641" fill="#000000" rx="2.5" ry="2.5" style="stroke:#000000;stroke-width:0.0;"/><text fill="#000000" font-family="sans-serif" font-size="13" lengthAdjust="spacing" textLength="95" x="312" y="846.9551">CCMD_REMOVE</text><ellipse cx="305.5" cy="860.9701" fill="#000000" rx="2.5" ry="2.5" style="stroke:#000000;stroke-width:0.0;"/><text fill="#000000" font-family="sans-serif" font-size="13" lengthAdjust="spacing" textLength="64" x="312" y="864.6611">CCMD_SET</text><ellipse cx="305.5" cy="878.6761" fill="#000000" rx="2.5" ry="2.5" style="stroke:#000000;stroke-width:0.0;"/><text fill="#000000" font-family="sans-serif" font-size="13" lengthAdjust="spacing" textLength="82" x="312" y="882.3671">CCMD_FETCH</text></g><!--class IntrospectionData--><g id="elem_IntrospectionData"><rect codeLine="79" fill="#F1F1F1" height="124.2717" id="IntrospectionData" rx="2.5" ry="2.5" style="stroke:#181818;stroke-width:0.5;" width="245" x="567" y="571.28"/><ellipse cx="624.75" cy="587.28" fill="#ADD1B2" rx="11" ry="11" style="stroke:#181818;stroke-width:1.0;"/><path d="M624.8594,582.8113 Q623.9375,582.8113 623.2031,583.1238 Q622.4844,583.4363 621.9844,584.03 Q621.4844,584.6081 621.2031,585.4831 Q620.9375,586.3581 620.9375,587.4519 Q620.9375,588.8894 621.375,589.9363 Q621.8281,590.9831 622.6719,591.53 Q623.5313,592.0769 624.8438,592.0769 Q625.625,592.0769 626.3125,591.9519 Q627.0156,591.8113 628.0156,591.4988 L628.0156,593.3738 Q627.1563,593.7019 626.3906,593.8269 Q625.6406,593.9519 624.625,593.9519 Q622.7031,593.9519 621.3906,593.155 Q620.0938,592.3425 619.4375,590.8738 Q618.7813,589.3894 618.7813,587.4206 Q618.7813,585.9988 619.1719,584.8269 Q619.5781,583.6394 620.3594,582.7644 Q621.1406,581.8894 622.2813,581.4206 Q623.4219,580.9363 624.8906,580.9363 Q625.8438,580.9363 626.7344,581.1394 Q627.6406,581.3269 628.5781,581.7956 L627.75,583.5769 Q626.9688,583.2019 626.3125,583.0144 Q625.6563,582.8113 624.8594,582.8113 Z " fill="#000000"/><text fill="#000000" font-family="sans-serif" font-size="14" lengthAdjust="spacing" textLength="121" x="645.25" y="592.712">IntrospectionData</text><line style="stroke:#181818;stroke-width:0.5;" x1="568" x2="811" y1="603.28" y2="603.28"/><line style="stroke:#181818;stroke-width:0.5;" x1="568" x2="811" y1="611.28" y2="611.28"/><text fill="#000000" font-family="sans-serif" font-size="14" lengthAdjust="spacing" textLength="59" x="573" y="630.2459">int type()</text><text fill="#000000" font-family="sans-serif" font-size="14" lengthAdjust="spacing" textLength="85" x="573" y="649.3139">bool isValid()</text><text fill="#000000" font-family="sans-serif" font-size="14" lengthAdjust="spacing" textLength="144" x="573" y="668.3818">QByteArray serialize()</text><text fill="#000000" font-family="sans-serif" font-size="14" lengthAdjust="spacing" textLength="233" x="573" y="687.4497">void deserialize(QByteArray &amp;data)</text></g><!--class RemoteProcedureData--><g id="elem_RemoteProcedureData"><rect codeLine="86" fill="#F1F1F1" height="143.3396" id="RemoteProcedureData" rx="2.5" ry="2.5" style="stroke:#181818;stroke-width:0.5;" width="245" x="847" y="561.75"/><ellipse cx="889.9" cy="577.75" fill="#ADD1B2" rx="11" ry="11" style="stroke:#181818;stroke-width:1.0;"/><path d="M890.0094,573.2813 Q889.0875,573.2813 888.3531,573.5938 Q887.6344,573.9063 887.1344,574.5 Q886.6344,575.0781 886.3531,575.9531 Q886.0875,576.8281 886.0875,577.9219 Q886.0875,579.3594 886.525,580.4063 Q886.9781,581.4531 887.8219,582 Q888.6813,582.5469 889.9938,582.5469 Q890.775,582.5469 891.4625,582.4219 Q892.1656,582.2813 893.1656,581.9688 L893.1656,583.8438 Q892.3063,584.1719 891.5406,584.2969 Q890.7906,584.4219 889.775,584.4219 Q887.8531,584.4219 886.5406,583.625 Q885.2438,582.8125 884.5875,581.3438 Q883.9313,579.8594 883.9313,577.8906 Q883.9313,576.4688 884.3219,575.2969 Q884.7281,574.1094 885.5094,573.2344 Q886.2906,572.3594 887.4313,571.8906 Q888.5719,571.4063 890.0406,571.4063 Q890.9938,571.4063 891.8844,571.6094 Q892.7906,571.7969 893.7281,572.2656 L892.9,574.0469 Q892.1188,573.6719 891.4625,573.4844 Q890.8063,573.2813 890.0094,573.2813 Z " fill="#000000"/><text fill="#000000" font-family="sans-serif" font-size="14" lengthAdjust="spacing" textLength="151" x="910.1" y="583.182">RemoteProcedureData</text><line style="stroke:#181818;stroke-width:0.5;" x1="848" x2="1091" y1="593.75" y2="593.75"/><text fill="#000000" font-family="sans-serif" font-size="14" lengthAdjust="spacing" textLength="148" x="853" y="612.7159">Command command()</text><line style="stroke:#181818;stroke-width:0.5;" x1="848" x2="1091" y1="620.8179" y2="620.8179"/><text fill="#000000" font-family="sans-serif" font-size="14" lengthAdjust="spacing" textLength="59" x="853" y="639.7839">int type()</text><text fill="#000000" font-family="sans-serif" font-size="14" lengthAdjust="spacing" textLength="85" x="853" y="658.8518">bool isValid()</text><text fill="#000000" font-family="sans-serif" font-size="14" lengthAdjust="spacing" textLength="144" x="853" y="677.9197">QByteArray serialize()</text><text fill="#000000" font-family="sans-serif" font-size="14" lengthAdjust="spacing" textLength="233" x="853" y="696.9876">void deserialize(QByteArray &amp;data)</text></g><g id="elem_GMN23"><path d="M826.5,766.09 L826.5,900.0321 A0,0 0 0 0 826.5,900.0321 L1094.5,900.0321 A0,0 0 0 0 1094.5,900.0321 L1094.5,776.09 L1084.5,766.09 L967.51,766.09 L966.26,705.49 L959.51,766.09 L826.5,766.09 A0,0 0 0 0 826.5,766.09 " fill="#FEFFDD" style="stroke:#181818;stroke-width:0.5;"/><path d="M1084.5,766.09 L1084.5,776.09 L1094.5,776.09 L1084.5,766.09 " fill="#FEFFDD" style="stroke:#181818;stroke-width:0.5;"/><text fill="#000000" font-family="sans-serif" font-size="13" lengthAdjust="spacing" textLength="247" x="832.5" y="784.987">enum RemoteProcedureData::Command:</text><ellipse cx="838" cy="799.002" fill="#000000" rx="2.5" ry="2.5" style="stroke:#000000;stroke-width:0.0;"/><text fill="#000000" font-family="sans-serif" font-size="13" lengthAdjust="spacing" textLength="101" x="844.5" y="802.693">RPCMD_INVALID</text><ellipse cx="838" cy="816.708" fill="#000000" rx="2.5" ry="2.5" style="stroke:#000000;stroke-width:0.0;"/><text fill="#000000" font-family="sans-serif" font-size="13" lengthAdjust="spacing" textLength="81" x="844.5" y="820.399">RPCMD_CALL</text><ellipse cx="838" cy="834.4141" fill="#000000" rx="2.5" ry="2.5" style="stroke:#000000;stroke-width:0.0;"/><text fill="#000000" font-family="sans-serif" font-size="13" lengthAdjust="spacing" textLength="108" x="844.5" y="838.1051">RPCMD_REGISTER</text><ellipse cx="838" cy="852.1201" fill="#000000" rx="2.5" ry="2.5" style="stroke:#000000;stroke-width:0.0;"/><text fill="#000000" font-family="sans-serif" font-size="13" lengthAdjust="spacing" textLength="97" x="844.5" y="855.8111">RPCMD_RESULT</text><ellipse cx="838" cy="869.8261" fill="#000000" rx="2.5" ry="2.5" style="stroke:#000000;stroke-width:0.0;"/><text fill="#000000" font-family="sans-serif" font-size="13" lengthAdjust="spacing" textLength="115" x="844.5" y="873.5171">RPCMD_PROGRESS</text><ellipse cx="838" cy="887.5321" fill="#000000" rx="2.5" ry="2.5" style="stroke:#000000;stroke-width:0.0;"/><text fill="#000000" font-family="sans-serif" font-size="13" lengthAdjust="spacing" textLength="145" x="844.5" y="891.2231">RPCMD_CANCELLATION</text></g><!--class ErrorData--><g id="elem_ErrorData"><rect codeLine="104" fill="#F1F1F1" height="143.3396" id="ErrorData" rx="2.5" ry="2.5" style="stroke:#181818;stroke-width:0.5;" width="193" x="1144" y="561.75"/><ellipse cx="1203.75" cy="577.75" fill="#ADD1B2" rx="11" ry="11" style="stroke:#181818;stroke-width:1.0;"/><path d="M1203.8594,573.2813 Q1202.9375,573.2813 1202.2031,573.5938 Q1201.4844,573.9063 1200.9844,574.5 Q1200.4844,575.0781 1200.2031,575.9531 Q1199.9375,576.8281 1199.9375,577.9219 Q1199.9375,579.3594 1200.375,580.4063 Q1200.8281,581.4531 1201.6719,582 Q1202.5313,582.5469 1203.8438,582.5469 Q1204.625,582.5469 1205.3125,582.4219 Q1206.0156,582.2813 1207.0156,581.9688 L1207.0156,583.8438 Q1206.1563,584.1719 1205.3906,584.2969 Q1204.6406,584.4219 1203.625,584.4219 Q1201.7031,584.4219 1200.3906,583.625 Q1199.0938,582.8125 1198.4375,581.3438 Q1197.7813,579.8594 1197.7813,577.8906 Q1197.7813,576.4688 1198.1719,575.2969 Q1198.5781,574.1094 1199.3594,573.2344 Q1200.1406,572.3594 1201.2813,571.8906 Q1202.4219,571.4063 1203.8906,571.4063 Q1204.8438,571.4063 1205.7344,571.6094 Q1206.6406,571.7969 1207.5781,572.2656 L1206.75,574.0469 Q1205.9688,573.6719 1205.3125,573.4844 Q1204.6563,573.2813 1203.8594,573.2813 Z " fill="#000000"/><text fill="#000000" font-family="sans-serif" font-size="14" lengthAdjust="spacing" textLength="65" x="1224.25" y="583.182">ErrorData</text><line style="stroke:#181818;stroke-width:0.5;" x1="1145" x2="1336" y1="593.75" y2="593.75"/><line style="stroke:#181818;stroke-width:0.5;" x1="1145" x2="1336" y1="601.75" y2="601.75"/><text fill="#000000" font-family="sans-serif" font-size="14" lengthAdjust="spacing" textLength="59" x="1150" y="620.7159">int type()</text><text fill="#000000" font-family="sans-serif" font-size="14" lengthAdjust="spacing" textLength="85" x="1150" y="639.7839">bool isValid()</text><text fill="#000000" font-family="sans-serif" font-size="14" lengthAdjust="spacing" textLength="175" x="1150" y="658.8518">QString errorDescription()</text><text fill="#000000" font-family="sans-serif" font-size="14" lengthAdjust="spacing" textLength="145" x="1150" y="677.9197">int originalDataType()</text><text fill="#000000" font-family="sans-serif" font-size="14" lengthAdjust="spacing" textLength="181" x="1150" y="696.9876">QByteArray &amp;originalData()</text></g><g id="elem_GMN27"><path d="M1129,774.94 L1129,891.1761 A0,0 0 0 0 1129,891.1761 L1370,891.1761 A0,0 0 0 0 1370,891.1761 L1370,784.94 L1360,774.94 L1250.88,774.94 L1243.74,705.49 L1242.88,774.94 L1129,774.94 A0,0 0 0 0 1129,774.94 " fill="#FEFFDD" style="stroke:#181818;stroke-width:0.5;"/><path d="M1360,774.94 L1360,784.94 L1370,784.94 L1360,774.94 " fill="#FEFFDD" style="stroke:#181818;stroke-width:0.5;"/><text fill="#000000" font-family="sans-serif" font-size="13" lengthAdjust="spacing" textLength="220" x="1135" y="793.837">ErrorData wraps arbitrary EventData.</text><text fill="#000000" font-family="sans-serif" font-size="13" lengthAdjust="spacing" textLength="178" x="1135" y="811.543">Wrapped data is extracted by:</text><ellipse cx="1140.5" cy="825.558" fill="#000000" rx="2.5" ry="2.5" style="stroke:#000000;stroke-width:0.0;"/><text fill="#000000" font-family="sans-serif" font-size="13" lengthAdjust="spacing" textLength="197" x="1147" y="829.249">create concrete EventData object</text><text fill="#000000" font-family="sans-serif" font-size="13" lengthAdjust="spacing" textLength="170" x="1147" y="846.9551">matching originalDataType()</text><ellipse cx="1140.5" cy="860.9701" fill="#000000" rx="2.5" ry="2.5" style="stroke:#000000;stroke-width:0.0;"/><text fill="#000000" font-family="sans-serif" font-size="13" lengthAdjust="spacing" textLength="173" x="1147" y="864.6611">call deserialize(originalData())</text><text fill="#000000" font-family="sans-serif" font-size="13" lengthAdjust="spacing" textLength="114" x="1147" y="882.3671">on concrete object.</text></g><!--link NetworkStatusEvent to ProtocolEvent--><!--link ProtocolEvent to CommandEvent--><!--reverse link QEvent to NetworkStatusEvent--><g id="link_QEvent_NetworkStatusEvent"><path codeLine="120" d="M404.7619,124.3306 C374.7619,150.2606 352.98,169.08 326.72,191.78 " fill="none" id="QEvent-backto-NetworkStatusEvent" style="stroke:#181818;stroke-width:1.0;"/><polygon fill="none" points="418.38,112.56,400.8384,119.7912,408.6854,128.87,418.38,112.56" style="stroke:#181818;stroke-width:1.0;"/></g><!--reverse link QEvent to ProtocolEvent--><g id="link_QEvent_ProtocolEvent"><path codeLine="121" d="M478.5,130.56 C478.5,156.49 478.5,169.08 478.5,191.78 " fill="none" id="QEvent-backto-ProtocolEvent" style="stroke:#181818;stroke-width:1.0;"/><polygon fill="none" points="478.5,112.56,472.5,130.56,484.5,130.56,478.5,112.56" style="stroke:#181818;stroke-width:1.0;"/></g><!--reverse link QEvent to CommandEvent--><g id="link_QEvent_CommandEvent"><path codeLine="122" d="M559.4656,123.6145 C584.2156,142.8745 598.07,153.65 622.81,172.91 " fill="none" id="QEvent-backto-CommandEvent" style="stroke:#181818;stroke-width:1.0;"/><polygon fill="none" points="545.26,112.56,555.7807,128.3497,563.1504,118.8793,545.26,112.56" style="stroke:#181818;stroke-width:1.0;"/></g><!--reverse link CommandEvent to EventData--><g id="link_CommandEvent_EventData"><path codeLine="124" d="M689.5,290.9 C689.5,314.78 689.5,331.45 689.5,357.25 " fill="none" id="CommandEvent-backto-EventData" style="stroke:#181818;stroke-width:1.0;"/><polygon fill="#181818" points="689.5,278.9,685.5,284.9,689.5,290.9,693.5,284.9,689.5,278.9" style="stroke:#181818;stroke-width:1.0;"/><polygon fill="#000000" points="694.5,323.263,697.4389,314.2179,691.5611,314.2179,694.5,323.263" style="stroke:#000000;stroke-width:1.0;"/><text fill="#000000" font-family="sans-serif" font-size="13" lengthAdjust="spacing" textLength="32" x="703.5" y="323.307">owns</text><text fill="#000000" font-family="sans-serif" font-size="13" lengthAdjust="spacing" textLength="7" x="682.1172" y="345.3996">1</text></g><!--reverse link EventData to EntityData--><g id="link_EventData_EntityData"><path codeLine="126" d="M555.8529,465.8755 C470.5229,489.8855 369.86,521 269.5,561.75 C263.82,564.05 258.06,566.5 252.28,569.04 " fill="none" id="EventData-backto-EntityData" style="stroke:#181818;stroke-width:1.0;"/><polygon fill="none" points="573.18,461,554.2277,460.0998,557.478,471.6512,573.18,461" style="stroke:#181818;stroke-width:1.0;"/></g><!--reverse link EventData to ComponentData--><g id="link_EventData_ComponentData"><path codeLine="127" d="M576.5905,511.6726 C549.4805,531.2626 534.68,541.96 507.59,561.54 " fill="none" id="EventData-backto-ComponentData" style="stroke:#181818;stroke-width:1.0;"/><polygon fill="none" points="591.18,501.13,573.0763,506.8094,580.1047,516.5357,591.18,501.13" style="stroke:#181818;stroke-width:1.0;"/></g><!--reverse link EventData to IntrospectionData--><g id="link_EventData_IntrospectionData"><path codeLine="128" d="M689.5,519.13 C689.5,541.91 689.5,548.92 689.5,570.95 " fill="none" id="EventData-backto-IntrospectionData" style="stroke:#181818;stroke-width:1.0;"/><polygon fill="none" points="689.5,501.13,683.5,519.13,695.5,519.13,689.5,501.13" style="stroke:#181818;stroke-width:1.0;"/></g><!--reverse link EventData to RemoteProcedureData--><g id="link_EventData_RemoteProcedureData"><path codeLine="129" d="M802.4095,511.6726 C829.5195,531.2626 844.32,541.96 871.41,561.54 " fill="none" id="EventData-backto-RemoteProcedureData" style="stroke:#181818;stroke-width:1.0;"/><polygon fill="none" points="787.82,501.13,798.8953,516.5357,805.9237,506.8094,787.82,501.13" style="stroke:#181818;stroke-width:1.0;"/></g><!--reverse link EventData to ErrorData--><g id="link_EventData_ErrorData"><path codeLine="130" d="M823.0609,464.8502 C908.5809,488.4602 1009.52,519.57 1109.5,561.75 C1120.69,566.47 1132.19,571.84 1143.5,577.46 " fill="none" id="EventData-backto-ErrorData" style="stroke:#181818;stroke-width:1.0;"/><polygon fill="none" points="805.71,460.06,821.4642,470.6338,824.6576,459.0665,805.71,460.06" style="stroke:#181818;stroke-width:1.0;"/></g><!--SRC=[pLRTRvim47_dhx3wi2RHKgclQAj42UsGqgG5sZrCqsJWadW5Z8n9nxh-xxCD6UPZKpDfql90y7tVxmxVHGak2dJdx27ZwDb0uhUd94OuYY3dawcY15KEY8j7StukEEOaUa54A37Oae83KoQav4HIT_Bn7itFfyQBaL4EY97jZYEwQPoPva1HsNPmj4EWmebKRBKld2GLaizYnE7qh0wJ8X8B6jbKZGKPyrkqnqa91TfGrYI1S1OhZItmEyqCmWnGHDDS_CTd1cGnag4RHXt92lWJPO- -2AWiTCGwUFHiYlGRzLj6EOreShocJTDKXFngHOMZFFjbA3EkqMWEEd-1EKOpEBnEXiNINPkcRaTPWQnCUpAwOrC9pT1g7RXNhcq5xdfb8Yj96dhWMIlVicjoKOP5n4W8CR8J8bETNo0Vs1wOLefJMSS8K88hMd9Zf2RpJpiIYpxuVD65tEWMG1FJ4p0C71QSuUZGVorGDVAd27CkmYmvp1Fo22W5lgDrFprl22HnNHJPYBnouyCtSp1RS_MlgUM4b2Q850yu8IDwTvSL1uinNA426152tqTigCytXbP2KtiJYpoqnd9KZ4Scrw1LDrLpQCBePJQIpXzoU5NWgZj3oZbDsmPiqp3D9g13vpdspUABktgmbkv29rcBpj5pRjOFZaxnxozzstClEyJxLKlktmx2SKwputlb_uEpaya0KNk8gDr5r1uWgYY-4-Z7AoUmFmnGT3FEQ953n0dDD2J_FHHD01wa8XnnLKGGbmp-ifZH_r37aLG6rVHkX-MiQRQrN7O8ddFj-e7ZzOZ-_JBea6wzzRKW-prhAzjPBjK461JTOOoouuhjYqfaMmHA4-JSo6N7Q81JCSD8XXDfLvkBEdgwo6GCnZQm9uRpGkm78H7NBAlQgL2l7Xy5EnU3IzP3X8hWcxgD1IMi3b17332N-qKctiHBErXe-5Kql1AJlnJpQ2Up-qqACxK8TNgYcydqbocQjVvgB_fQqwnzxtxCvoFBJOVTdQGwfpiyEwlAJB1Fpa-qJ4r4dx82NHX6IrDMsYkyp-dSHdtcuBhe2uny0mFNXo8RFm40]--></g></svg>