<?xml version="1.0" encoding="us-ascii" standalone="no"?><svg xmlns="http://www.w3.org/2000/svg" xmlns:xlink="http://www.w3.org/1999/xlink" contentStyleType="text/css" height="545px" preserveAspectRatio="none" style="width:950px;height:545px;background:#FFFFFF;" version="1.1" viewBox="0 0 950 545" width="950px" zoomAndPan="magnify"><defs/><g><!--class EventHandler--><g id="elem_EventHandler"><rect codeLine="2" fill="#F1F1F1" height="105.2038" id="EventHandler" rx="2.5" ry="2.5" style="stroke:#181818;stroke-width:0.5;" width="331" x="123.5" y="7"/><ellipse cx="239.25" cy="23" fill="#ADD1B2" rx="11" ry="11" style="stroke:#181818;stroke-width:1.0;"/><path d="M239.3594,18.5313 Q238.4375,18.5313 237.7031,18.8438 Q236.9844,19.1563 236.4844,19.75 Q235.9844,20.3281 235.7031,21.2031 Q235.4375,22.0781 235.4375,23.1719 Q235.4375,24.6094 235.875,25.6563 Q236.3281,26.7031 237.1719,27.25 Q238.0313,27.7969 239.3438,27.7969 Q240.125,27.7969 240.8125,27.6719 Q241.5156,27.5313 242.5156,27.2188 L242.5156,29.0938 Q241.6563,29.4219 240.8906,29.5469 Q240.1406,29.6719 239.125,29.6719 Q237.2031,29.6719 235.8906,28.875 Q234.5938,28.0625 233.9375,26.5938 Q233.2813,25.1094 233.2813,23.1406 Q233.2813,21.7188 233.6719,20.5469 Q234.0781,19.3594 234.8594,18.4844 Q235.6406,17.6094 236.7813,17.1406 Q237.9219,16.6563 239.3906,16.6563 Q240.3438,16.6563 241.2344,16.8594 Q242.1406,17.0469 243.0781,17.5156 L242.25,19.2969 Q241.4688,18.9219 240.8125,18.7344 Q240.1563,18.5313 239.3594,18.5313 Z " fill="#000000"/><text fill="#000000" font-family="sans-serif" font-size="14" lengthAdjust="spacing" textLength="91" x="259.75" y="28.432">EventHandler</text><line style="stroke:#181818;stroke-width:0.5;" x1="124.5" x2="453.5" y1="39" y2="39"/><text fill="#000000" font-family="sans-serif" font-size="14" lengthAdjust="spacing" textLength="226" x="129.5" y="57.9659">QList&lt;EventSystem*&gt; subsystems</text><line style="stroke:#181818;stroke-width:0.5;" x1="124.5" x2="453.5" y1="66.0679" y2="66.0679"/><text fill="#000000" font-family="sans-serif" font-size="14" lengthAdjust="spacing" textLength="319" x="129.5" y="85.0339">void addSubsystem(EventSystem* t_subsystem)</text><text fill="#000000" font-family="sans-serif" font-size="14" lengthAdjust="spacing" textLength="153" x="129.5" y="104.1018">void clearSubsystems()</text></g><!--class EventSystem--><g id="elem_EventSystem"><rect codeLine="8" fill="#F1F1F1" height="86.1358" id="EventSystem" rx="2.5" ry="2.5" style="stroke:#181818;stroke-width:0.5;" width="285" x="146.5" y="191"/><ellipse cx="245.75" cy="207" fill="#A9DCDF" rx="11" ry="11" style="stroke:#181818;stroke-width:1.0;"/><path d="M249.0938,212.25 L247.625,208.5 L243.1875,208.5 L241.75,212.25 L239.625,212.25 L244.5781,199.5313 L246.3281,199.5313 L251.25,212.25 L249.0938,212.25 Z M245.75,203.2969 Q245.7031,203.1406 245.5781,202.7813 Q245.4531,202.4219 245.3438,202.0469 Q245.2344,201.6563 245.4375,201.5938 Q245.5938,201.7813 245.5,202.1406 Q245.4063,202.4844 245.3125,202.7813 Q245.2188,203.0625 245.1406,203.2969 L243.9063,206.6094 L246.9844,206.6094 L245.75,203.2969 Z " fill="#000000"/><text fill="#000000" font-family="sans-serif" font-size="14" font-style="italic" lengthAdjust="spacing" textLength="78" x="266.25" y="212.432">EventSystem</text><line style="stroke:#181818;stroke-width:0.5;" x1="147.5" x2="430.5" y1="223" y2="223"/><line style="stroke:#181818;stroke-width:0.5;" x1="147.5" x2="430.5" y1="231" y2="231"/><text fill="#000000" font-family="sans-serif" font-size="14" lengthAdjust="spacing" textLength="273" x="152.5" y="249.9659">signal void sigSendEvent(QEvent *event)</text><text fill="#000000" font-family="sans-serif" font-size="14" font-style="italic" lengthAdjust="spacing" textLength="210" x="152.5" y="269.0339">void processEvent(QEvent *event)</text></g><!--class IntrospectionSystem--><g id="elem_IntrospectionSystem"><rect codeLine="13" fill="#F1F1F1" height="67.0679" id="IntrospectionSystem" rx="2.5" ry="2.5" style="stroke:#181818;stroke-width:0.5;" width="170" x="7" y="405"/><ellipse cx="22" cy="421" fill="#ADD1B2" rx="11" ry="11" style="stroke:#181818;stroke-width:1.0;"/><path d="M22.1094,416.5313 Q21.1875,416.5313 20.4531,416.8438 Q19.7344,417.1563 19.2344,417.75 Q18.7344,418.3281 18.4531,419.2031 Q18.1875,420.0781 18.1875,421.1719 Q18.1875,422.6094 18.625,423.6563 Q19.0781,424.7031 19.9219,425.25 Q20.7813,425.7969 22.0938,425.7969 Q22.875,425.7969 23.5625,425.6719 Q24.2656,425.5313 25.2656,425.2188 L25.2656,427.0938 Q24.4063,427.4219 23.6406,427.5469 Q22.8906,427.6719 21.875,427.6719 Q19.9531,427.6719 18.6406,426.875 Q17.3438,426.0625 16.6875,424.5938 Q16.0313,423.1094 16.0313,421.1406 Q16.0313,419.7188 16.4219,418.5469 Q16.8281,417.3594 17.6094,416.4844 Q18.3906,415.6094 19.5313,415.1406 Q20.6719,414.6563 22.1406,414.6563 Q23.0938,414.6563 23.9844,414.8594 Q24.8906,415.0469 25.8281,415.5156 L25,417.2969 Q24.2188,416.9219 23.5625,416.7344 Q22.9063,416.5313 22.1094,416.5313 Z " fill="#000000"/><text fill="#000000" font-family="sans-serif" font-size="14" lengthAdjust="spacing" textLength="138" x="36" y="426.432">IntrospectionSystem</text><line style="stroke:#181818;stroke-width:0.5;" x1="8" x2="176" y1="437" y2="437"/><line style="stroke:#181818;stroke-width:0.5;" x1="8" x2="176" y1="445" y2="445"/><text fill="#000000" font-family="sans-serif" font-size="14" lengthAdjust="spacing" textLength="141" x="13" y="463.9659">void processEvent(...)</text></g><!--class StorageSystem--><g id="elem_StorageSystem"><rect codeLine="17" fill="#F1F1F1" height="67.0679" id="StorageSystem" rx="2.5" ry="2.5" style="stroke:#181818;stroke-width:0.5;" width="153" x="212.5" y="405"/><ellipse cx="236.95" cy="421" fill="#ADD1B2" rx="11" ry="11" style="stroke:#181818;stroke-width:1.0;"/><path d="M237.0594,416.5313 Q236.1375,416.5313 235.4031,416.8438 Q234.6844,417.1563 234.1844,417.75 Q233.6844,418.3281 233.4031,419.2031 Q233.1375,420.0781 233.1375,421.1719 Q233.1375,422.6094 233.575,423.6563 Q234.0281,424.7031 234.8719,425.25 Q235.7313,425.7969 237.0438,425.7969 Q237.825,425.7969 238.5125,425.6719 Q239.2156,425.5313 240.2156,425.2188 L240.2156,427.0938 Q239.3563,427.4219 238.5906,427.5469 Q237.8406,427.6719 236.825,427.6719 Q234.9031,427.6719 233.5906,426.875 Q232.2938,426.0625 231.6375,424.5938 Q230.9813,423.1094 230.9813,421.1406 Q230.9813,419.7188 231.3719,418.5469 Q231.7781,417.3594 232.5594,416.4844 Q233.3406,415.6094 234.4813,415.1406 Q235.6219,414.6563 237.0906,414.6563 Q238.0438,414.6563 238.9344,414.8594 Q239.8406,415.0469 240.7781,415.5156 L239.95,417.2969 Q239.1688,416.9219 238.5125,416.7344 Q237.8563,416.5313 237.0594,416.5313 Z " fill="#000000"/><text fill="#000000" font-family="sans-serif" font-size="14" lengthAdjust="spacing" textLength="100" x="253.05" y="426.432">StorageSystem</text><line style="stroke:#181818;stroke-width:0.5;" x1="213.5" x2="364.5" y1="437" y2="437"/><line style="stroke:#181818;stroke-width:0.5;" x1="213.5" x2="364.5" y1="445" y2="445"/><text fill="#000000" font-family="sans-serif" font-size="14" lengthAdjust="spacing" textLength="141" x="218.5" y="463.9659">void processEvent(...)</text></g><!--class ModuleManagerController--><g id="elem_ModuleManagerController"><rect codeLine="21" fill="#F1F1F1" height="200.5433" id="ModuleManagerController" rx="2.5" ry="2.5" style="stroke:#181818;stroke-width:0.5;" width="543" x="400.5" y="338"/><ellipse cx="578.25" cy="354" fill="#ADD1B2" rx="11" ry="11" style="stroke:#181818;stroke-width:1.0;"/><path d="M578.3594,349.5313 Q577.4375,349.5313 576.7031,349.8438 Q575.9844,350.1563 575.4844,350.75 Q574.9844,351.3281 574.7031,352.2031 Q574.4375,353.0781 574.4375,354.1719 Q574.4375,355.6094 574.875,356.6563 Q575.3281,357.7031 576.1719,358.25 Q577.0313,358.7969 578.3438,358.7969 Q579.125,358.7969 579.8125,358.6719 Q580.5156,358.5313 581.5156,358.2188 L581.5156,360.0938 Q580.6563,360.4219 579.8906,360.5469 Q579.1406,360.6719 578.125,360.6719 Q576.2031,360.6719 574.8906,359.875 Q573.5938,359.0625 572.9375,357.5938 Q572.2813,356.1094 572.2813,354.1406 Q572.2813,352.7188 572.6719,351.5469 Q573.0781,350.3594 573.8594,349.4844 Q574.6406,348.6094 575.7813,348.1406 Q576.9219,347.6563 578.3906,347.6563 Q579.3438,347.6563 580.2344,347.8594 Q581.1406,348.0469 582.0781,348.5156 L581.25,350.2969 Q580.4688,349.9219 579.8125,349.7344 Q579.1563,349.5313 578.3594,349.5313 Z " fill="#000000"/><text fill="#000000" font-family="sans-serif" font-size="14" lengthAdjust="spacing" textLength="179" x="598.75" y="359.432">ModuleManagerController</text><line style="stroke:#181818;stroke-width:0.5;" x1="401.5" x2="942.5" y1="370" y2="370"/><text fill="#000000" font-family="sans-serif" font-size="14" lengthAdjust="spacing" textLength="104" x="406.5" y="388.9659">int getEntityId()</text><text fill="#000000" font-family="sans-serif" font-size="14" lengthAdjust="spacing" textLength="242" x="406.5" y="408.0339">StorageSystem *getStorageSystem()</text><text fill="#000000" font-family="sans-serif" font-size="14" lengthAdjust="spacing" textLength="408" x="406.5" y="427.1018">void setStorage(VeinEvent::StorageSystem *t_storageSystem)</text><line style="stroke:#181818;stroke-width:0.5;" x1="401.5" x2="942.5" y1="435.2038" y2="435.2038"/><text fill="#000000" font-family="sans-serif" font-size="14" lengthAdjust="spacing" textLength="141" x="406.5" y="454.1697">void processEvent(...)</text><text fill="#000000" font-family="sans-serif" font-size="14" lengthAdjust="spacing" textLength="404" x="406.5" y="473.2376">signal void sigChangeSession(const QString &amp;t_newSession)</text><text fill="#000000" font-family="sans-serif" font-size="14" lengthAdjust="spacing" textLength="367" x="406.5" y="492.3055">signal void sigModulesPausedChanged(bool t_paused)</text><text fill="#000000" font-family="sans-serif" font-size="14" lengthAdjust="spacing" textLength="531" x="406.5" y="511.3734">void initializeEntity(const QString &amp;sessionPath, const QStringList &amp;sessionList)</text><text fill="#000000" font-family="sans-serif" font-size="14" lengthAdjust="spacing" textLength="261" x="406.5" y="530.4414">void setModulesPaused(bool t_paused)</text></g><!--reverse link EventHandler to EventSystem--><g id="link_EventHandler_EventSystem"><path codeLine="34" d="M289,126.74 C289,148.17 289,171.34 289,190.56 " fill="none" id="EventHandler-backto-EventSystem" style="stroke:#181818;stroke-width:1.0;"/><polygon fill="#181818" points="289,113.77,285,119.77,289,125.77,293,119.77,289,113.77" style="stroke:#181818;stroke-width:1.0;"/><polygon fill="#000000" points="294,156.853,296.9389,147.8079,291.0611,147.8079,294,156.853" style="stroke:#000000;stroke-width:1.0;"/><text fill="#000000" font-family="sans-serif" font-size="13" lengthAdjust="spacing" textLength="56" x="303" y="156.897">has list of</text><text fill="#000000" font-family="sans-serif" font-size="13" lengthAdjust="spacing" textLength="20" x="267.4063" y="179.2245">0..*</text></g><!--reverse link EventSystem to IntrospectionSystem--><g id="link_EventSystem_IntrospectionSystem"><path codeLine="37" d="M233.17,292.39 C197.79,328.75 153.32,374.47 123.84,404.77 " fill="none" id="EventSystem-backto-IntrospectionSystem" style="stroke:#181818;stroke-width:1.0;"/><polygon fill="none" points="227.68,287.99,246.65,278.54,237.72,297.75,227.68,287.99" style="stroke:#181818;stroke-width:1.0;"/></g><!--reverse link EventSystem to StorageSystem--><g id="link_EventSystem_StorageSystem"><path codeLine="38" d="M289,298.81 C289,334.01 289,376.23 289,404.77 " fill="none" id="EventSystem-backto-StorageSystem" style="stroke:#181818;stroke-width:1.0;"/><polygon fill="none" points="282,298.96,289,278.96,296,298.96,282,298.96" style="stroke:#181818;stroke-width:1.0;"/></g><!--reverse link EventSystem to ModuleManagerController--><g id="link_EventSystem_ModuleManagerController"><path codeLine="39" d="M388.31,287.5 C417.4,302.89 450.21,320.24 482.94,337.54 " fill="none" id="EventSystem-backto-ModuleManagerController" style="stroke:#181818;stroke-width:1.0;"/><polygon fill="none" points="385.04,293.69,370.63,278.16,391.58,281.32,385.04,293.69" style="stroke:#181818;stroke-width:1.0;"/></g><!--SRC=[bLF1Ri8m3BttAomEMwb6jJD2ko2a8Gq9L6bN51e3qKA2QiF46F- -j87IG3TflQJrUy_FiTrS2o8OxT7mgp1IOm772DmpUrF4Wmh83iIuILw0TWkgtgcYxAsI8AJCBk6uIGUUr_pkbPzh54MjeBWRdQ98B8WBaRD3wt9ycdCrf5P6Q9_1lMTeP4MAPzK12PQ7jpbUifqyVrlO78bQ-SxRMuuD5vQscBEo9h2-pv6cQKEPiIt42l-bcLYvqpWHnWcBeIszzRNrZo2O2xNOCVQq-a3O8A-jz4q_BXLgUGBbRh527XbMV1ZBk1kWOL698mQHaEsxMbFYTrIcghhVlydZHjeCTAE_Rjioj-5Q62TsFDVbEBU666QPkwjPmGFF3NwUiLQrxnfDnOvG-bGoNbYhtQfjgs1ZpvHHh8HMN-XRTEj6tcWgUFq40LOkVesN7usihaj15RVsRiB1lvJqUj1vJjEa4onr7zQ2G9T6TWalqLbrHWVVJjMoaFUaO3pty2zh5lq0]--></g></svg>