<?plantuml 1.2026.2?><svg xmlns="http://www.w3.org/2000/svg" xmlns:xlink="http://www.w3.org/1999/xlink" contentStyleType="text/css" data-diagram-type="CLASS" height="842px" preserveAspectRatio="none" style="width:1462px;height:842px;background:#FFFFFF;" version="1.1" viewBox="0 0 1462 842" width="1462px" zoomAndPan="magnify"><defs/><g><!--class QEvent--><g class="entity" data-qualified-name="QEvent" data-source-line="2" id="ent0002"><rect fill="#F1F1F1" height="96.8906" rx="2.5" ry="2.5" style="stroke:#181818;stroke-width:0.5;" width="258.7842" x="373.73" y="7"/><ellipse cx="473.3091" cy="23" fill="#ADD1B2" rx="11" ry="11" style="stroke:#181818;stroke-width:1;"/><path d="M477.5435,17.4063 L477.5435,19.9219 Q476.2935,18.7656 475.3716,18.3906 Q474.4654,18.0156 473.4341,18.0156 Q471.4341,18.0156 470.3716,19.2344 Q469.3091,20.4375 469.3091,22.7969 Q469.3091,25.1563 470.3716,26.375 Q471.4341,27.5781 473.4341,27.5781 Q474.4654,27.5781 475.3716,27.2031 Q476.2935,26.8281 477.5435,25.6719 L477.5435,28.1719 Q476.4966,28.875 475.481,29.1875 Q474.481,29.4844 473.3247,29.4844 Q470.4029,29.4844 468.6997,27.6875 Q467.0122,25.8906 467.0122,22.7969 Q467.0122,19.7031 468.6997,17.9063 Q470.4029,16.0938 473.3247,16.0938 Q474.4966,16.0938 475.4966,16.4063 Q476.5122,16.7031 477.5435,17.4063 Z " fill="#000000"/><text fill="#000000" font-family="sans-serif" font-size="14" lengthAdjust="spacing" textLength="51.126" x="493.8091" y="27.8467">QEvent</text><line style="stroke:#181818;stroke-width:0.5;" x1="374.73" x2="631.5142" y1="39" y2="39"/><line style="stroke:#181818;stroke-width:0.5;" x1="374.73" x2="631.5142" y1="47" y2="47"/><text fill="#000000" font-family="sans-serif" font-size="14" lengthAdjust="spacing" textLength="91.9639" x="379.73" y="63.9951">void accept()</text><text fill="#000000" font-family="sans-serif" font-size="14" lengthAdjust="spacing" textLength="80.9854" x="379.73" y="80.292">Type type()</text><text fill="#000000" font-family="sans-serif" font-size="14" lengthAdjust="spacing" text-decoration="underline" textLength="246.7842" x="379.73" y="96.5889">int registerEventType(int hint = -1)</text></g><path d="M667.1,22.75 L667.1,46.4492 L626.5142,91.7422 L667.1,54.4492 L667.1,78.1484 A0,0 0 0 0 667.1,78.1484 L1031.1337,78.1484 A0,0 0 0 0 1031.1337,78.1484 L1031.1337,32.75 L1021.1337,22.75 L667.1,22.75 A0,0 0 0 0 667.1,22.75" fill="#FEFFDD" style="stroke:#181818;stroke-width:0.5;"/><path d="M1021.1337,22.75 L1021.1337,32.75 L1031.1337,32.75 L1021.1337,22.75" fill="#FEFFDD" style="stroke:#181818;stroke-width:0.5;"/><text fill="#000000" font-family="sans-serif" font-size="13" lengthAdjust="spacing" textLength="343.0337" x="673.1" y="39.8169">Each event class statically calls registerEventType().</text><text fill="#000000" font-family="sans-serif" font-size="13" lengthAdjust="spacing" textLength="287.8979" x="673.1" y="54.9497">To identify event type, values for type() and</text><text fill="#000000" font-family="sans-serif" font-size="13" lengthAdjust="spacing" textLength="210.1328" x="673.1" y="70.0825">getQEventType() are compared.</text><!--class NetworkStatusEvent--><g class="entity" data-qualified-name="NetworkStatusEvent" data-source-line="13" id="ent0005"><rect fill="#F1F1F1" height="64.2969" rx="2.5" ry="2.5" style="stroke:#181818;stroke-width:0.5;" width="175.1719" x="215.53" y="181.19"/><ellipse cx="230.53" cy="197.19" fill="#ADD1B2" rx="11" ry="11" style="stroke:#181818;stroke-width:1;"/><path d="M234.7644,191.5962 L234.7644,194.1119 Q233.5144,192.9556 232.5925,192.5806 Q231.6863,192.2056 230.655,192.2056 Q228.655,192.2056 227.5925,193.4244 Q226.53,194.6275 226.53,196.9869 Q226.53,199.3462 227.5925,200.565 Q228.655,201.7681 230.655,201.7681 Q231.6863,201.7681 232.5925,201.3931 Q233.5144,201.0181 234.7644,199.8619 L234.7644,202.3619 Q233.7175,203.065 232.7019,203.3775 Q231.7019,203.6744 230.5456,203.6744 Q227.6238,203.6744 225.9206,201.8775 Q224.2331,200.0806 224.2331,196.9869 Q224.2331,193.8931 225.9206,192.0962 Q227.6238,190.2837 230.5456,190.2837 Q231.7175,190.2837 232.7175,190.5962 Q233.7331,190.8931 234.7644,191.5962 Z " fill="#000000"/><text fill="#000000" font-family="sans-serif" font-size="14" lengthAdjust="spacing" textLength="143.1719" x="244.53" y="202.0367">NetworkStatusEvent</text><line style="stroke:#181818;stroke-width:0.5;" x1="216.53" x2="389.7019" y1="213.19" y2="213.19"/><line style="stroke:#181818;stroke-width:0.5;" x1="216.53" x2="389.7019" y1="221.19" y2="221.19"/><text fill="#000000" font-family="sans-serif" font-size="14" lengthAdjust="spacing" text-decoration="underline" textLength="142.0781" x="221.53" y="238.1851">int getQEventType()</text></g><!--class ProtocolEvent--><g class="entity" data-qualified-name="ProtocolEvent" data-source-line="17" id="ent0006"><rect fill="#F1F1F1" height="64.2969" rx="2.5" ry="2.5" style="stroke:#181818;stroke-width:0.5;" width="154.0781" x="426.08" y="181.19"/><ellipse cx="452.3304" cy="197.19" fill="#ADD1B2" rx="11" ry="11" style="stroke:#181818;stroke-width:1;"/><path d="M456.5648,191.5962 L456.5648,194.1119 Q455.3148,192.9556 454.3929,192.5806 Q453.4867,192.2056 452.4554,192.2056 Q450.4554,192.2056 449.3929,193.4244 Q448.3304,194.6275 448.3304,196.9869 Q448.3304,199.3462 449.3929,200.565 Q450.4554,201.7681 452.4554,201.7681 Q453.4867,201.7681 454.3929,201.3931 Q455.3148,201.0181 456.5648,199.8619 L456.5648,202.3619 Q455.5179,203.065 454.5023,203.3775 Q453.5023,203.6744 452.3461,203.6744 Q449.4242,203.6744 447.7211,201.8775 Q446.0336,200.0806 446.0336,196.9869 Q446.0336,193.8931 447.7211,192.0962 Q449.4242,190.2837 452.3461,190.2837 Q453.5179,190.2837 454.5179,190.5962 Q455.5336,190.8931 456.5648,191.5962 Z " fill="#000000"/><text fill="#000000" font-family="sans-serif" font-size="14" lengthAdjust="spacing" textLength="97.0771" x="468.8305" y="202.0367">ProtocolEvent</text><line style="stroke:#181818;stroke-width:0.5;" x1="427.08" x2="579.1581" y1="213.19" y2="213.19"/><line style="stroke:#181818;stroke-width:0.5;" x1="427.08" x2="579.1581" y1="221.19" y2="221.19"/><text fill="#000000" font-family="sans-serif" font-size="14" lengthAdjust="spacing" text-decoration="underline" textLength="142.0781" x="432.08" y="238.1851">int getQEventType()</text></g><!--class CommandEvent--><g class="entity" data-qualified-name="CommandEvent" data-source-line="21" id="ent0007"><rect fill="#F1F1F1" height="96.8906" rx="2.5" ry="2.5" style="stroke:#181818;stroke-width:0.5;" width="223.1963" x="615.52" y="164.89"/><ellipse cx="666.8374" cy="180.89" fill="#ADD1B2" rx="11" ry="11" style="stroke:#181818;stroke-width:1;"/><path d="M671.0718,175.2963 L671.0718,177.8119 Q669.8218,176.6556 668.8999,176.2806 Q667.9936,175.9056 666.9624,175.9056 Q664.9624,175.9056 663.8999,177.1244 Q662.8374,178.3275 662.8374,180.6869 Q662.8374,183.0463 663.8999,184.265 Q664.9624,185.4681 666.9624,185.4681 Q667.9936,185.4681 668.8999,185.0931 Q669.8218,184.7181 671.0718,183.5619 L671.0718,186.0619 Q670.0249,186.765 669.0093,187.0775 Q668.0093,187.3744 666.853,187.3744 Q663.9311,187.3744 662.228,185.5775 Q660.5405,183.7806 660.5405,180.6869 Q660.5405,177.5931 662.228,175.7963 Q663.9311,173.9838 666.853,173.9838 Q668.0249,173.9838 669.0249,174.2963 Q670.0405,174.5931 671.0718,175.2963 Z " fill="#000000"/><text fill="#000000" font-family="sans-serif" font-size="14" lengthAdjust="spacing" textLength="112.0615" x="687.3374" y="185.7367">CommandEvent</text><line style="stroke:#181818;stroke-width:0.5;" x1="616.52" x2="837.7163" y1="196.89" y2="196.89"/><line style="stroke:#181818;stroke-width:0.5;" x1="616.52" x2="837.7163" y1="204.89" y2="204.89"/><text fill="#000000" font-family="sans-serif" font-size="14" lengthAdjust="spacing" text-decoration="underline" textLength="142.0781" x="621.52" y="221.8851">int getQEventType()</text><text fill="#000000" font-family="sans-serif" font-size="14" lengthAdjust="spacing" textLength="211.1963" x="621.52" y="238.182">EventSubtype eventSubtype()</text><text fill="#000000" font-family="sans-serif" font-size="14" lengthAdjust="spacing" textLength="169.21" x="621.52" y="254.4789">EventData *eventData()</text></g><path d="M874.15,180.64 L874.15,204.3392 L832.7163,233.3353 L874.15,212.3392 L874.15,236.0384 A0,0 0 0 0 874.15,236.0384 L1188.0973,236.0384 A0,0 0 0 0 1188.0973,236.0384 L1188.0973,190.64 L1178.0973,180.64 L874.15,180.64 A0,0 0 0 0 874.15,180.64" fill="#FEFFDD" style="stroke:#181818;stroke-width:0.5;"/><path d="M1178.0973,180.64 L1178.0973,190.64 L1188.0973,190.64 L1178.0973,180.64" fill="#FEFFDD" style="stroke:#181818;stroke-width:0.5;"/><text fill="#000000" font-family="sans-serif" font-size="13" lengthAdjust="spacing" textLength="249.4946" x="880.15" y="197.7069">enum CommandEvent::EventSubtype:</text><ellipse cx="885.65" cy="208.4056" fill="#000000" rx="2.5" ry="2.5"/><text fill="#000000" font-family="sans-serif" font-size="13" lengthAdjust="spacing" textLength="117.3745" x="892.15" y="212.8397">NOTIFICATION: All</text><ellipse cx="885.65" cy="223.5384" fill="#000000" rx="2.5" ry="2.5"/><text fill="#000000" font-family="sans-serif" font-size="13" lengthAdjust="spacing" textLength="280.9473" x="892.15" y="227.9725">TRANSACTION: subscribed Client -&gt; Server</text><!--class EventData--><g class="entity" data-qualified-name="EventData" data-source-line="36" id="ent0012"><rect fill="#F1F1F1" height="129.4844" rx="2.5" ry="2.5" style="stroke:#181818;stroke-width:0.5;" width="260.2402" x="597" y="338.78"/><ellipse cx="686.103" cy="354.78" fill="#A9DCDF" rx="11" ry="11" style="stroke:#181818;stroke-width:1;"/><path d="M686.6812,350.0456 L684.7749,355.1706 L688.5874,355.1706 L686.6812,350.0456 Z M685.5405,347.3581 L687.8218,347.3581 L692.7437,360.28 L690.4312,360.28 L689.2905,357.1081 L684.0874,357.1081 L682.9624,360.28 L680.6187,360.28 L685.5405,347.3581 Z " fill="#000000"/><text fill="#000000" font-family="sans-serif" font-size="14" font-style="italic" lengthAdjust="spacing" textLength="73.5342" x="706.603" y="359.6267">EventData</text><line style="stroke:#181818;stroke-width:0.5;" x1="598" x2="856.2402" y1="370.78" y2="370.78"/><text fill="#000000" font-family="sans-serif" font-size="14" lengthAdjust="spacing" textLength="87.2813" x="603" y="387.7751">int entityId()</text><line style="stroke:#181818;stroke-width:0.5;" x1="598" x2="856.2402" y1="395.0769" y2="395.0769"/><text fill="#000000" font-family="sans-serif" font-size="14" font-style="italic" lengthAdjust="spacing" textLength="64.9004" x="603" y="412.072">int type()</text><text fill="#000000" font-family="sans-serif" font-size="14" font-style="italic" lengthAdjust="spacing" textLength="91.2871" x="603" y="428.3689">bool isValid()</text><text fill="#000000" font-family="sans-serif" font-size="14" font-style="italic" lengthAdjust="spacing" textLength="154.2119" x="603" y="444.6657">QByteArray serialize()</text><text fill="#000000" font-family="sans-serif" font-size="14" font-style="italic" lengthAdjust="spacing" textLength="248.2402" x="603" y="460.9626">void deserialize(QByteArray &amp;data)</text></g><!--class EntityData--><g class="entity" data-qualified-name="EntityData" data-source-line="45" id="ent0013"><rect fill="#F1F1F1" height="129.4844" rx="2.5" ry="2.5" style="stroke:#181818;stroke-width:0.5;" width="260.2402" x="7" y="529.27"/><ellipse cx="95.7202" cy="545.27" fill="#ADD1B2" rx="11" ry="11" style="stroke:#181818;stroke-width:1;"/><path d="M99.9546,539.6762 L99.9546,542.1919 Q98.7046,541.0356 97.7827,540.6606 Q96.8765,540.2856 95.8452,540.2856 Q93.8452,540.2856 92.7827,541.5044 Q91.7202,542.7075 91.7202,545.0669 Q91.7202,547.4262 92.7827,548.645 Q93.8452,549.8481 95.8452,549.8481 Q96.8765,549.8481 97.7827,549.4731 Q98.7046,549.0981 99.9546,547.9419 L99.9546,550.4419 Q98.9077,551.145 97.8921,551.4575 Q96.8921,551.7544 95.7358,551.7544 Q92.814,551.7544 91.1108,549.9575 Q89.4233,548.1606 89.4233,545.0669 Q89.4233,541.9731 91.1108,540.1762 Q92.814,538.3637 95.7358,538.3637 Q96.9077,538.3637 97.9077,538.6762 Q98.9233,538.9731 99.9546,539.6762 Z " fill="#000000"/><text fill="#000000" font-family="sans-serif" font-size="14" lengthAdjust="spacing" textLength="74.2998" x="116.2202" y="550.1167">EntityData</text><line style="stroke:#181818;stroke-width:0.5;" x1="8" x2="266.2402" y1="561.27" y2="561.27"/><text fill="#000000" font-family="sans-serif" font-size="14" lengthAdjust="spacing" textLength="199.1582" x="13" y="578.2651">Command eventCommand()</text><line style="stroke:#181818;stroke-width:0.5;" x1="8" x2="266.2402" y1="585.5669" y2="585.5669"/><text fill="#000000" font-family="sans-serif" font-size="14" lengthAdjust="spacing" textLength="64.9004" x="13" y="602.562">int type()</text><text fill="#000000" font-family="sans-serif" font-size="14" lengthAdjust="spacing" textLength="91.2871" x="13" y="618.8589">bool isValid()</text><text fill="#000000" font-family="sans-serif" font-size="14" lengthAdjust="spacing" textLength="154.2119" x="13" y="635.1557">QByteArray serialize()</text><text fill="#000000" font-family="sans-serif" font-size="14" lengthAdjust="spacing" textLength="248.2402" x="13" y="651.4526">void deserialize(QByteArray &amp;data)</text></g><g class="entity" data-qualified-name="GMN14" data-source-line="54" id="ent0015"><path d="M31.51,727.32 L31.51,828.1169 A0,0 0 0 0 31.51,828.1169 L242.7302,828.1169 A0,0 0 0 0 242.7302,828.1169 L242.7302,737.32 L232.7302,727.32 L141.12,727.32 L137.12,659.07 L133.12,727.32 L31.51,727.32 A0,0 0 0 0 31.51,727.32" fill="#FEFFDD" style="stroke:#181818;stroke-width:0.5;"/><path d="M232.7302,727.32 L232.7302,737.32 L242.7302,737.32 L232.7302,727.32" fill="#FEFFDD" style="stroke:#181818;stroke-width:0.5;"/><text fill="#000000" font-family="sans-serif" font-size="13" lengthAdjust="spacing" textLength="190.2202" x="37.51" y="744.3869">enum EntityData::Command:</text><ellipse cx="43.01" cy="755.0856" fill="#000000" rx="2.5" ry="2.5"/><text fill="#000000" font-family="sans-serif" font-size="13" lengthAdjust="spacing" textLength="97.4492" x="49.51" y="759.5197">ECMD_INVALID</text><ellipse cx="43.01" cy="770.2184" fill="#000000" rx="2.5" ry="2.5"/><text fill="#000000" font-family="sans-serif" font-size="13" lengthAdjust="spacing" textLength="73.9312" x="49.51" y="774.6525">ECMD_ADD</text><ellipse cx="43.01" cy="785.3512" fill="#000000" rx="2.5" ry="2.5"/><text fill="#000000" font-family="sans-serif" font-size="13" lengthAdjust="spacing" textLength="100.8198" x="49.51" y="789.7853">ECMD_REMOVE</text><ellipse cx="43.01" cy="800.4841" fill="#000000" rx="2.5" ry="2.5"/><text fill="#000000" font-family="sans-serif" font-size="13" lengthAdjust="spacing" textLength="119.0313" x="49.51" y="804.9181">ECMD_SUBSCRIBE</text><ellipse cx="43.01" cy="815.6169" fill="#000000" rx="2.5" ry="2.5"/><text fill="#000000" font-family="sans-serif" font-size="13" lengthAdjust="spacing" textLength="138.271" x="49.51" y="820.051">ECMD_UNSUBSCRIBE</text></g><!--class ComponentData--><g class="entity" data-qualified-name="ComponentData" data-source-line="62" id="ent0017"><rect fill="#F1F1F1" height="129.4844" rx="2.5" ry="2.5" style="stroke:#181818;stroke-width:0.5;" width="260.2402" x="302" y="529.27"/><ellipse cx="370.5166" cy="545.27" fill="#ADD1B2" rx="11" ry="11" style="stroke:#181818;stroke-width:1;"/><path d="M374.751,539.6762 L374.751,542.1919 Q373.501,541.0356 372.5791,540.6606 Q371.6729,540.2856 370.6416,540.2856 Q368.6416,540.2856 367.5791,541.5044 Q366.5166,542.7075 366.5166,545.0669 Q366.5166,547.4262 367.5791,548.645 Q368.6416,549.8481 370.6416,549.8481 Q371.6729,549.8481 372.5791,549.4731 Q373.501,549.0981 374.751,547.9419 L374.751,550.4419 Q373.7041,551.145 372.6885,551.4575 Q371.6885,551.7544 370.5322,551.7544 Q367.6104,551.7544 365.9072,549.9575 Q364.2197,548.1606 364.2197,545.0669 Q364.2197,541.9731 365.9072,540.1762 Q367.6104,538.3637 370.5322,538.3637 Q371.7041,538.3637 372.7041,538.6762 Q373.7197,538.9731 374.751,539.6762 Z " fill="#000000"/><text fill="#000000" font-family="sans-serif" font-size="14" lengthAdjust="spacing" textLength="114.707" x="391.0166" y="550.1167">ComponentData</text><line style="stroke:#181818;stroke-width:0.5;" x1="303" x2="561.2402" y1="561.27" y2="561.27"/><text fill="#000000" font-family="sans-serif" font-size="14" lengthAdjust="spacing" textLength="199.1582" x="308" y="578.2651">Command eventCommand()</text><line style="stroke:#181818;stroke-width:0.5;" x1="303" x2="561.2402" y1="585.5669" y2="585.5669"/><text fill="#000000" font-family="sans-serif" font-size="14" lengthAdjust="spacing" textLength="64.9004" x="308" y="602.562">int type()</text><text fill="#000000" font-family="sans-serif" font-size="14" lengthAdjust="spacing" textLength="91.2871" x="308" y="618.8589">bool isValid()</text><text fill="#000000" font-family="sans-serif" font-size="14" lengthAdjust="spacing" textLength="154.2119" x="308" y="635.1557">QByteArray serialize()</text><text fill="#000000" font-family="sans-serif" font-size="14" lengthAdjust="spacing" textLength="248.2402" x="308" y="651.4526">void deserialize(QByteArray &amp;data)</text></g><g class="entity" data-qualified-name="GMN18" data-source-line="71" id="ent0019"><path d="M307.75,727.32 L307.75,828.1169 A0,0 0 0 0 307.75,828.1169 L556.4912,828.1169 A0,0 0 0 0 556.4912,828.1169 L556.4912,737.32 L546.4912,727.32 L436.12,727.32 L432.12,659.07 L428.12,727.32 L307.75,727.32 A0,0 0 0 0 307.75,727.32" fill="#FEFFDD" style="stroke:#181818;stroke-width:0.5;"/><path d="M546.4912,727.32 L546.4912,737.32 L556.4912,737.32 L546.4912,727.32" fill="#FEFFDD" style="stroke:#181818;stroke-width:0.5;"/><text fill="#000000" font-family="sans-serif" font-size="13" lengthAdjust="spacing" textLength="227.7412" x="313.75" y="744.3869">enum ComponentData::Command:</text><ellipse cx="319.25" cy="755.0856" fill="#000000" rx="2.5" ry="2.5"/><text fill="#000000" font-family="sans-serif" font-size="13" lengthAdjust="spacing" textLength="98.3125" x="325.75" y="759.5197">CCMD_INVALID</text><ellipse cx="319.25" cy="770.2184" fill="#000000" rx="2.5" ry="2.5"/><text fill="#000000" font-family="sans-serif" font-size="13" lengthAdjust="spacing" textLength="74.7944" x="325.75" y="774.6525">CCMD_ADD</text><ellipse cx="319.25" cy="785.3512" fill="#000000" rx="2.5" ry="2.5"/><text fill="#000000" font-family="sans-serif" font-size="13" lengthAdjust="spacing" textLength="101.6831" x="325.75" y="789.7853">CCMD_REMOVE</text><ellipse cx="319.25" cy="800.4841" fill="#000000" rx="2.5" ry="2.5"/><text fill="#000000" font-family="sans-serif" font-size="13" lengthAdjust="spacing" textLength="70.2876" x="325.75" y="804.9181">CCMD_SET</text><ellipse cx="319.25" cy="815.6169" fill="#000000" rx="2.5" ry="2.5"/><text fill="#000000" font-family="sans-serif" font-size="13" lengthAdjust="spacing" textLength="88.3657" x="325.75" y="820.051">CCMD_FETCH</text></g><!--class IntrospectionData--><g class="entity" data-qualified-name="IntrospectionData" data-source-line="79" id="ent0021"><rect fill="#F1F1F1" height="113.1875" rx="2.5" ry="2.5" style="stroke:#181818;stroke-width:0.5;" width="260.2402" x="597" y="537.41"/><ellipse cx="660.0957" cy="553.41" fill="#ADD1B2" rx="11" ry="11" style="stroke:#181818;stroke-width:1;"/><path d="M664.3301,547.8163 L664.3301,550.3319 Q663.0801,549.1756 662.1582,548.8006 Q661.252,548.4256 660.2207,548.4256 Q658.2207,548.4256 657.1582,549.6444 Q656.0957,550.8475 656.0957,553.2069 Q656.0957,555.5663 657.1582,556.785 Q658.2207,557.9881 660.2207,557.9881 Q661.252,557.9881 662.1582,557.6131 Q663.0801,557.2381 664.3301,556.0819 L664.3301,558.5819 Q663.2832,559.285 662.2676,559.5975 Q661.2676,559.8944 660.1113,559.8944 Q657.1895,559.8944 655.4863,558.0975 Q653.7988,556.3006 653.7988,553.2069 Q653.7988,550.1131 655.4863,548.3163 Q657.1895,546.5038 660.1113,546.5038 Q661.2832,546.5038 662.2832,546.8163 Q663.2988,547.1131 664.3301,547.8163 Z " fill="#000000"/><text fill="#000000" font-family="sans-serif" font-size="14" lengthAdjust="spacing" textLength="125.5488" x="680.5957" y="558.2567">IntrospectionData</text><line style="stroke:#181818;stroke-width:0.5;" x1="598" x2="856.2402" y1="569.41" y2="569.41"/><line style="stroke:#181818;stroke-width:0.5;" x1="598" x2="856.2402" y1="577.41" y2="577.41"/><text fill="#000000" font-family="sans-serif" font-size="14" lengthAdjust="spacing" textLength="64.9004" x="603" y="594.4051">int type()</text><text fill="#000000" font-family="sans-serif" font-size="14" lengthAdjust="spacing" textLength="91.2871" x="603" y="610.702">bool isValid()</text><text fill="#000000" font-family="sans-serif" font-size="14" lengthAdjust="spacing" textLength="154.2119" x="603" y="626.9989">QByteArray serialize()</text><text fill="#000000" font-family="sans-serif" font-size="14" lengthAdjust="spacing" textLength="248.2402" x="603" y="643.2957">void deserialize(QByteArray &amp;data)</text></g><!--class RemoteProcedureData--><g class="entity" data-qualified-name="RemoteProcedureData" data-source-line="86" id="ent0022"><rect fill="#F1F1F1" height="129.4844" rx="2.5" ry="2.5" style="stroke:#181818;stroke-width:0.5;" width="260.2402" x="892" y="529.27"/><ellipse cx="938.2314" cy="545.27" fill="#ADD1B2" rx="11" ry="11" style="stroke:#181818;stroke-width:1;"/><path d="M942.4658,539.6762 L942.4658,542.1919 Q941.2158,541.0356 940.2939,540.6606 Q939.3877,540.2856 938.3564,540.2856 Q936.3564,540.2856 935.2939,541.5044 Q934.2314,542.7075 934.2314,545.0669 Q934.2314,547.4262 935.2939,548.645 Q936.3564,549.8481 938.3564,549.8481 Q939.3877,549.8481 940.2939,549.4731 Q941.2158,549.0981 942.4658,547.9419 L942.4658,550.4419 Q941.4189,551.145 940.4033,551.4575 Q939.4033,551.7544 938.2471,551.7544 Q935.3252,551.7544 933.6221,549.9575 Q931.9346,548.1606 931.9346,545.0669 Q931.9346,541.9731 933.6221,540.1762 Q935.3252,538.3637 938.2471,538.3637 Q939.4189,538.3637 940.4189,538.6762 Q941.4346,538.9731 942.4658,539.6762 Z " fill="#000000"/><text fill="#000000" font-family="sans-serif" font-size="14" lengthAdjust="spacing" textLength="159.2773" x="958.7314" y="550.1167">RemoteProcedureData</text><line style="stroke:#181818;stroke-width:0.5;" x1="893" x2="1151.2402" y1="561.27" y2="561.27"/><text fill="#000000" font-family="sans-serif" font-size="14" lengthAdjust="spacing" textLength="157.2061" x="898" y="578.2651">Command command()</text><line style="stroke:#181818;stroke-width:0.5;" x1="893" x2="1151.2402" y1="585.5669" y2="585.5669"/><text fill="#000000" font-family="sans-serif" font-size="14" lengthAdjust="spacing" textLength="64.9004" x="898" y="602.562">int type()</text><text fill="#000000" font-family="sans-serif" font-size="14" lengthAdjust="spacing" textLength="91.2871" x="898" y="618.8589">bool isValid()</text><text fill="#000000" font-family="sans-serif" font-size="14" lengthAdjust="spacing" textLength="154.2119" x="898" y="635.1557">QByteArray serialize()</text><text fill="#000000" font-family="sans-serif" font-size="14" lengthAdjust="spacing" textLength="248.2402" x="898" y="651.4526">void deserialize(QByteArray &amp;data)</text></g><g class="entity" data-qualified-name="GMN23" data-source-line="95" id="ent0024"><path d="M866.06,719.75 L866.06,835.6797 A0,0 0 0 0 866.06,835.6797 L1156.1879,835.6797 A0,0 0 0 0 1156.1879,835.6797 L1156.1879,729.75 L1146.1879,719.75 L1018.6,719.75 L1018.24,659.07 L1010.6,719.75 L866.06,719.75 A0,0 0 0 0 866.06,719.75" fill="#FEFFDD" style="stroke:#181818;stroke-width:0.5;"/><path d="M1146.1879,719.75 L1146.1879,729.75 L1156.1879,729.75 L1146.1879,719.75" fill="#FEFFDD" style="stroke:#181818;stroke-width:0.5;"/><text fill="#000000" font-family="sans-serif" font-size="13" lengthAdjust="spacing" textLength="269.1279" x="872.06" y="736.8169">enum RemoteProcedureData::Command:</text><ellipse cx="877.56" cy="747.5156" fill="#000000" rx="2.5" ry="2.5"/><text fill="#000000" font-family="sans-serif" font-size="13" lengthAdjust="spacing" textLength="106.1074" x="884.06" y="751.9497">RPCMD_INVALID</text><ellipse cx="877.56" cy="762.6484" fill="#000000" rx="2.5" ry="2.5"/><text fill="#000000" font-family="sans-serif" font-size="13" lengthAdjust="spacing" textLength="86.1313" x="884.06" y="767.0825">RPCMD_CALL</text><ellipse cx="877.56" cy="777.7812" fill="#000000" rx="2.5" ry="2.5"/><text fill="#000000" font-family="sans-serif" font-size="13" lengthAdjust="spacing" textLength="118.2695" x="884.06" y="782.2153">RPCMD_REGISTER</text><ellipse cx="877.56" cy="792.9141" fill="#000000" rx="2.5" ry="2.5"/><text fill="#000000" font-family="sans-serif" font-size="13" lengthAdjust="spacing" textLength="103.873" x="884.06" y="797.3481">RPCMD_RESULT</text><ellipse cx="877.56" cy="808.0469" fill="#000000" rx="2.5" ry="2.5"/><text fill="#000000" font-family="sans-serif" font-size="13" lengthAdjust="spacing" textLength="124.6045" x="884.06" y="812.481">RPCMD_PROGRESS</text><ellipse cx="877.56" cy="823.1797" fill="#000000" rx="2.5" ry="2.5"/><text fill="#000000" font-family="sans-serif" font-size="13" lengthAdjust="spacing" textLength="153.772" x="884.06" y="827.6138">RPCMD_CANCELLATION</text></g><!--class ErrorData--><g class="entity" data-qualified-name="ErrorData" data-source-line="104" id="ent0026"><rect fill="#F1F1F1" height="129.4844" rx="2.5" ry="2.5" style="stroke:#181818;stroke-width:0.5;" width="205.0127" x="1209.61" y="529.27"/><ellipse cx="1273.8131" cy="545.27" fill="#ADD1B2" rx="11" ry="11" style="stroke:#181818;stroke-width:1;"/><path d="M1278.0475,539.6762 L1278.0475,542.1919 Q1276.7975,541.0356 1275.8756,540.6606 Q1274.9694,540.2856 1273.9381,540.2856 Q1271.9381,540.2856 1270.8756,541.5044 Q1269.8131,542.7075 1269.8131,545.0669 Q1269.8131,547.4262 1270.8756,548.645 Q1271.9381,549.8481 1273.9381,549.8481 Q1274.9694,549.8481 1275.8756,549.4731 Q1276.7975,549.0981 1278.0475,547.9419 L1278.0475,550.4419 Q1277.0006,551.145 1275.985,551.4575 Q1274.985,551.7544 1273.8288,551.7544 Q1270.9069,551.7544 1269.2038,549.9575 Q1267.5163,548.1606 1267.5163,545.0669 Q1267.5163,541.9731 1269.2038,540.1762 Q1270.9069,538.3637 1273.8288,538.3637 Q1275.0006,538.3637 1276.0006,538.6762 Q1277.0163,538.9731 1278.0475,539.6762 Z " fill="#000000"/><text fill="#000000" font-family="sans-serif" font-size="14" lengthAdjust="spacing" textLength="68.1064" x="1294.3131" y="550.1167">ErrorData</text><line style="stroke:#181818;stroke-width:0.5;" x1="1210.61" x2="1413.6227" y1="561.27" y2="561.27"/><line style="stroke:#181818;stroke-width:0.5;" x1="1210.61" x2="1413.6227" y1="569.27" y2="569.27"/><text fill="#000000" font-family="sans-serif" font-size="14" lengthAdjust="spacing" textLength="64.9004" x="1215.61" y="586.2651">int type()</text><text fill="#000000" font-family="sans-serif" font-size="14" lengthAdjust="spacing" textLength="91.2871" x="1215.61" y="602.562">bool isValid()</text><text fill="#000000" font-family="sans-serif" font-size="14" lengthAdjust="spacing" textLength="182.3555" x="1215.61" y="618.8589">QString errorDescription()</text><text fill="#000000" font-family="sans-serif" font-size="14" lengthAdjust="spacing" textLength="153.7197" x="1215.61" y="635.1557">int originalDataType()</text><text fill="#000000" font-family="sans-serif" font-size="14" lengthAdjust="spacing" textLength="193.0127" x="1215.61" y="651.4526">QByteArray &amp;originalData()</text></g><g class="entity" data-qualified-name="GMN27" data-source-line="112" id="ent0028"><path d="M1190.8,727.32 L1190.8,828.1169 A0,0 0 0 0 1190.8,828.1169 L1455.4421,828.1169 A0,0 0 0 0 1455.4421,828.1169 L1455.4421,737.32 L1445.4421,727.32 L1324.11,727.32 L1316,659.07 L1316.11,727.32 L1190.8,727.32 A0,0 0 0 0 1190.8,727.32" fill="#FEFFDD" style="stroke:#181818;stroke-width:0.5;"/><path d="M1445.4421,727.32 L1445.4421,737.32 L1455.4421,737.32 L1445.4421,727.32" fill="#FEFFDD" style="stroke:#181818;stroke-width:0.5;"/><text fill="#000000" font-family="sans-serif" font-size="13" lengthAdjust="spacing" textLength="243.6421" x="1196.8" y="744.3869">ErrorData wraps arbitrary EventData.</text><text fill="#000000" font-family="sans-serif" font-size="13" lengthAdjust="spacing" textLength="198.0342" x="1196.8" y="759.5197">Wrapped data is extracted by:</text><ellipse cx="1202.3" cy="770.2184" fill="#000000" rx="2.5" ry="2.5"/><text fill="#000000" font-family="sans-serif" font-size="13" lengthAdjust="spacing" textLength="219.2163" x="1208.8" y="774.6525">create concrete EventData object</text><text fill="#000000" font-family="sans-serif" font-size="13" lengthAdjust="spacing" textLength="187.0083" x="1213.3293" y="789.7853">matching originalDataType()</text><ellipse cx="1202.3" cy="800.4841" fill="#000000" rx="2.5" ry="2.5"/><text fill="#000000" font-family="sans-serif" font-size="13" lengthAdjust="spacing" textLength="196.3774" x="1208.8" y="804.9181">call deserialize(originalData())</text><text fill="#000000" font-family="sans-serif" font-size="13" lengthAdjust="spacing" textLength="125.5757" x="1213.3293" y="820.051">on concrete object.</text></g><!--link NetworkStatusEvent to ProtocolEvent--><!--link ProtocolEvent to CommandEvent--><!--reverse link QEvent to NetworkStatusEvent--><g class="link" data-entity-1="ent0002" data-entity-2="ent0005" data-link-type="extension" data-source-line="120" id="lnk30"><path codeLine="120" d="M427.5532,115.3457 C395.6332,140.2257 371.7,158.88 343.52,180.85" fill="none" id="QEvent-backto-NetworkStatusEvent" style="stroke:#181818;stroke-width:1;"/><polygon fill="none" points="441.75,104.28,423.8646,110.6134,431.2417,120.078,441.75,104.28" style="stroke:#181818;stroke-width:1;"/></g><!--reverse link QEvent to ProtocolEvent--><g class="link" data-entity-1="ent0002" data-entity-2="ent0006" data-link-type="extension" data-source-line="121" id="lnk31"><path codeLine="121" d="M503.12,122.07 C503.12,146.96 503.12,158.74 503.12,180.76" fill="none" id="QEvent-backto-ProtocolEvent" style="stroke:#181818;stroke-width:1;"/><polygon fill="none" points="503.12,104.07,497.12,122.07,509.12,122.07,503.12,104.07" style="stroke:#181818;stroke-width:1;"/></g><!--reverse link QEvent to CommandEvent--><g class="link" data-entity-1="ent0002" data-entity-2="ent0007" data-link-type="extension" data-source-line="122" id="lnk32"><path codeLine="122" d="M586.6249,114.5612 C614.1449,133.7112 631.01,145.45 658.52,164.59" fill="none" id="QEvent-backto-CommandEvent" style="stroke:#181818;stroke-width:1;"/><polygon fill="none" points="571.85,104.28,583.1978,119.4862,590.0519,109.6362,571.85,104.28" style="stroke:#181818;stroke-width:1;"/></g><!--reverse link CommandEvent to EventData--><g class="link" data-entity-1="ent0007" data-entity-2="ent0012" data-link-type="composition" data-source-line="124" id="lnk33"><path codeLine="124" d="M727.12,273.82 C727.12,297.02 727.12,313.26 727.12,338.34" fill="none" id="CommandEvent-backto-EventData" style="stroke:#181818;stroke-width:1;"/><polygon fill="#181818" points="727.12,261.82,723.12,267.82,727.12,273.82,731.12,267.82,727.12,261.82" style="stroke:#181818;stroke-width:1;"/><polygon fill="#000000" points="732.12,305.3464,735.0589,296.3013,729.1811,296.3013,732.12,305.3464" style="stroke:#000000;stroke-width:1;"/><text fill="#000000" font-family="sans-serif" font-size="13" lengthAdjust="spacing" textLength="33.5981" x="741.12" y="304.8469">owns</text><text fill="#000000" font-family="sans-serif" font-size="13" lengthAdjust="spacing" textLength="8.271" x="718.7215" y="327.9184">1</text></g><!--reverse link EventData to EntityData--><g class="link" data-entity-1="ent0012" data-entity-2="ent0013" data-link-type="extension" data-source-line="126" id="lnk34"><path codeLine="126" d="M579.3376,440.7744 C490.3176,463.6744 387.63,492.44 284.12,529.27 C278.62,531.22 273.03,533.29 267.4,535.43" fill="none" id="EventData-backto-EntityData" style="stroke:#181818;stroke-width:1;"/><polygon fill="none" points="596.77,436.29,577.8428,434.9636,580.8324,446.5852,596.77,436.29" style="stroke:#181818;stroke-width:1;"/></g><!--reverse link EventData to ComponentData--><g class="link" data-entity-1="ent0012" data-entity-2="ent0017" data-link-type="extension" data-source-line="127" id="lnk35"><path codeLine="127" d="M611.661,478.2902 C581.261,497.7102 563.04,509.36 532.63,528.79" fill="none" id="EventData-backto-ComponentData" style="stroke:#181818;stroke-width:1;"/><polygon fill="none" points="626.83,468.6,608.4309,473.2339,614.891,483.3466,626.83,468.6" style="stroke:#181818;stroke-width:1;"/></g><!--reverse link EventData to IntrospectionData--><g class="link" data-entity-1="ent0012" data-entity-2="ent0021" data-link-type="extension" data-source-line="128" id="lnk36"><path codeLine="128" d="M727.12,486.6 C727.12,508.8 727.12,515.49 727.12,536.99" fill="none" id="EventData-backto-IntrospectionData" style="stroke:#181818;stroke-width:1;"/><polygon fill="none" points="727.12,468.6,721.12,486.6,733.12,486.6,727.12,468.6" style="stroke:#181818;stroke-width:1;"/></g><!--reverse link EventData to RemoteProcedureData--><g class="link" data-entity-1="ent0012" data-entity-2="ent0022" data-link-type="extension" data-source-line="129" id="lnk37"><path codeLine="129" d="M842.579,478.2902 C872.979,497.7102 891.2,509.36 921.61,528.79" fill="none" id="EventData-backto-RemoteProcedureData" style="stroke:#181818;stroke-width:1;"/><polygon fill="none" points="827.41,468.6,839.349,483.3466,845.8091,473.2339,827.41,468.6" style="stroke:#181818;stroke-width:1;"/></g><!--reverse link EventData to ErrorData--><g class="link" data-entity-1="ent0012" data-entity-2="ent0026" data-link-type="extension" data-source-line="130" id="lnk38"><path codeLine="130" d="M875.0623,440.3157 C964.1623,463.0257 1066.85,491.78 1170.12,529.27 C1182.95,533.92 1196.24,539.22 1209.31,544.73" fill="none" id="EventData-backto-ErrorData" style="stroke:#181818;stroke-width:1;"/><polygon fill="none" points="857.62,435.87,873.5804,446.1299,876.5443,434.5016,857.62,435.87" style="stroke:#181818;stroke-width:1;"/></g><?plantuml-src pLRTRvim47_dhx3wi2RHKgclQAj42UsGqgG5sZrCqsJWadW5Z8n9nxh-xxCD6UPZKpDfql90y7tVxmxVHGak2dJdx27ZwDb0uhUd94OuYY3dawcY15KEY8j7StukEEOaUa54A37Oae83KoQav4HIT_Bn7itFfyQBaL4EY97jZYEwQPoPva1HsNPmj4EWmebKRBKld2GLaizYnE7qh0wJ8X8B6jbKZGKPyrkqnqa91TfGrYI1S1OhZItmEyqCmWnGHDDS_CTd1cGnag4RHXt92lWJPO--2AWiTCGwUFHiYlGRzLj6EOreShocJTDKXFngHOMZFFjbA3EkqMWEEd-1EKOpEBnEXiNINPkcRaTPWQnCUpAwOrC9pT1g7RXNhcq5xdfb8Yj96dhWMIlVicjoKOP5n4W8CR8J8bETNo0Vs1wOLefJMSS8K88hMd9Zf2RpJpiIYpxuVD65tEWMG1FJ4p0C71QSuUZGVorGDVAd27CkmYmvp1Fo22W5lgDrFprl22HnNHJPYBnouyCtSp1RS_MlgUM4b2Q850yu8IDwTvSL1uinNA426152tqTigCytXbP2KtiJYpoqnd9KZ4Scrw1LDrLpQCBePJQIpXzoU5NWgZj3oZbDsmPiqp3D9g13vpdspUABktgmbkv29rcBpj5pRjOFZaxnxozzstClEyJxLKlktmx2SKwputlb_uEpaya0KNk8gDr5r1uWgYY-4-Z7AoUmFmnGT3FEQ953n0dDD2J_FHHD01wa8XnnLKGGbmp-ifZH_r37aLG6rVHkX-MiQRQrN7O8ddFj-e7ZzOZ-_JBea6wzzRKW-prhAzjPBjK461JTOOoouuhjYqfaMmHA4-JSo6N7Q81JCSD8XXDfLvkBEdgwo6GCnZQm9uRpGkm78H7NBAlQgL2l7Xy5EnU3IzP3X8hWcxgD1IMi3b17332N-qKctiHBErXe-5Kql1AJlnJpQ2Up-qqACxK8TNgYcydqbocQjVvgB_fQqwnzxtxCvoFBJOVTdQGwfpiyEwlAJB1Fpa-qJ4r4dx82NHX6IrDMsYkyp-dSHdtcuBhe2uny0mFNXo8RFm40?></g></svg>