<svg xmlns="http://www.w3.org/2000/svg" xmlns:xlink="http://www.w3.org/1999/xlink" contentStyleType="text/css" data-diagram-type="CLASS" height="622px" preserveAspectRatio="none" style="width:1222px;height:622px;background:#FFFFFF;" version="1.1" viewBox="0 0 1222 622" width="1222px" zoomAndPan="magnify"><defs/><g><!--class EventHandler--><g class="entity" data-entity="EventHandler" data-source-line="2" data-uid="ent0002" id="entity_EventHandler"><rect fill="#F1F1F1" height="162.4075" rx="2.5" ry="2.5" style="stroke:#181818;stroke-width:0.5;" width="431.9845" x="259.01" y="7"/><ellipse cx="426.1134" cy="23" fill="#ADD1B2" rx="11" ry="11" style="stroke:#181818;stroke-width:1;"/><path d="M426.2228,18.5313 Q425.3009,18.5313 424.5666,18.8438 Q423.8478,19.1563 423.3478,19.75 Q422.8478,20.3281 422.5666,21.2031 Q422.3009,22.0781 422.3009,23.1719 Q422.3009,24.6094 422.7384,25.6563 Q423.1916,26.7031 424.0353,27.25 Q424.8947,27.7969 426.2072,27.7969 Q426.9884,27.7969 427.6759,27.6719 Q428.3791,27.5313 429.3791,27.2188 L429.3791,29.0938 Q428.5197,29.4219 427.7541,29.5469 Q427.0041,29.6719 425.9884,29.6719 Q424.0666,29.6719 422.7541,28.875 Q421.4572,28.0625 420.8009,26.5938 Q420.1447,25.1094 420.1447,23.1406 Q420.1447,21.7188 420.5353,20.5469 Q420.9416,19.3594 421.7228,18.4844 Q422.5041,17.6094 423.6447,17.1406 Q424.7853,16.6563 426.2541,16.6563 Q427.2072,16.6563 428.0978,16.8594 Q429.0041,17.0469 429.9416,17.5156 L429.1134,19.2969 Q428.3322,18.9219 427.6759,18.7344 Q427.0197,18.5313 426.2228,18.5313 Z " fill="#000000"/><text fill="#000000" font-family="sans-serif" font-size="14" lengthAdjust="spacing" textLength="89.2776" x="446.6134" y="28.432">EventHandler</text><line style="stroke:#181818;stroke-width:0.5;" x1="260.01" x2="689.9945" y1="39" y2="39"/><text fill="#000000" font-family="sans-serif" font-size="14" lengthAdjust="spacing" textLength="222.3472" x="265.01" y="57.9659">QList&lt;EventSystem*&gt; subsystems</text><line style="stroke:#181818;stroke-width:0.5;" x1="260.01" x2="689.9945" y1="66.0679" y2="66.0679"/><text fill="#000000" font-family="sans-serif" font-size="14" lengthAdjust="spacing" textLength="302.4409" x="279.01" y="85.0339">void addSubsystem(EventSystem* subsystem)</text><text fill="#000000" font-family="sans-serif" font-size="14" lengthAdjust="spacing" textLength="405.9845" x="279.01" y="104.1018">void prependSubsystem(VeinEvent::EventSystem* subsystem)</text><text fill="#000000" font-family="sans-serif" font-size="14" lengthAdjust="spacing" textLength="400.1745" x="279.01" y="123.1697">void removeSubsystem(VeinEvent::EventSystem* subsystem)</text><text fill="#000000" font-family="sans-serif" font-size="14" lengthAdjust="spacing" textLength="149.9534" x="279.01" y="142.2376">void clearSubsystems()</text><polygon fill="#FFFF44" points="270.01,152.3735,274.01,156.3735,270.01,160.3735,266.01,156.3735" style="stroke:#B38D22;stroke-width:1;"/><text fill="#000000" font-family="sans-serif" font-size="14" lengthAdjust="spacing" textLength="279.2289" x="279.01" y="161.3055">void customEvent(QEvent *event) override</text></g><!--class ModuleEventHandler--><g class="entity" data-entity="ModuleEventHandler" data-source-line="11" data-uid="ent0003" id="entity_ModuleEventHandler"><rect fill="#F1F1F1" height="105.2038" rx="2.5" ry="2.5" style="stroke:#181818;stroke-width:0.5;" width="426.5945" x="651.7" y="248.4"/><ellipse cx="791.1395" cy="264.4" fill="#ADD1B2" rx="11" ry="11" style="stroke:#181818;stroke-width:1;"/><path d="M791.2489,259.9313 Q790.327,259.9313 789.5926,260.2438 Q788.8739,260.5563 788.3739,261.15 Q787.8739,261.7281 787.5926,262.6031 Q787.327,263.4781 787.327,264.5719 Q787.327,266.0094 787.7645,267.0563 Q788.2176,268.1031 789.0614,268.65 Q789.9207,269.1969 791.2332,269.1969 Q792.0145,269.1969 792.702,269.0719 Q793.4051,268.9313 794.4051,268.6188 L794.4051,270.4938 Q793.5457,270.8219 792.7801,270.9469 Q792.0301,271.0719 791.0145,271.0719 Q789.0926,271.0719 787.7801,270.275 Q786.4832,269.4625 785.827,267.9938 Q785.1707,266.5094 785.1707,264.5406 Q785.1707,263.1188 785.5614,261.9469 Q785.9676,260.7594 786.7489,259.8844 Q787.5301,259.0094 788.6707,258.5406 Q789.8114,258.0563 791.2801,258.0563 Q792.2332,258.0563 793.1239,258.2594 Q794.0301,258.4469 794.9676,258.9156 L794.1395,260.6969 Q793.3582,260.3219 792.702,260.1344 Q792.0457,259.9313 791.2489,259.9313 Z " fill="#000000"/><text fill="#000000" font-family="sans-serif" font-size="14" lengthAdjust="spacing" textLength="139.2155" x="811.6395" y="269.832">ModuleEventHandler</text><line style="stroke:#181818;stroke-width:0.5;" x1="652.7" x2="1077.2945" y1="280.4" y2="280.4"/><text fill="#000000" font-family="sans-serif" font-size="14" lengthAdjust="spacing" textLength="325.8908" x="657.7" y="299.3659">QList&lt;VeinEvent::EventSystem *&gt; moduleSystems</text><line style="stroke:#181818;stroke-width:0.5;" x1="652.7" x2="1077.2945" y1="307.4679" y2="307.4679"/><text fill="#000000" font-family="sans-serif" font-size="14" lengthAdjust="spacing" textLength="414.5945" x="657.7" y="326.4339">void addModuleSystem(VeinEvent::EventSystem *eventSystem)</text><text fill="#000000" font-family="sans-serif" font-size="14" lengthAdjust="spacing" textLength="175.9233" x="657.7" y="345.5018">void clearModuleSystems()</text></g><g class="entity" data-entity="GMN4" data-source-line="17" data-uid="ent0005" id="entity_GMN4"><path d="M726.2,74.35 L726.2,102.056 A0,0 0 0 0 726.2,102.056 L863.81,102.056 L865.73,248.28 L871.81,102.056 L1009.8002,102.056 A0,0 0 0 0 1009.8002,102.056 L1009.8002,84.35 L999.8002,74.35 L726.2,74.35 A0,0 0 0 0 726.2,74.35" fill="#FEFFDD" style="stroke:#181818;stroke-width:0.5;"/><path d="M999.8002,74.35 L999.8002,84.35 L1009.8002,84.35 L999.8002,74.35" fill="#FEFFDD" style="stroke:#181818;stroke-width:0.5;"/><text fill="#000000" font-family="sans-serif" font-size="13" lengthAdjust="spacing" textLength="262.6002" x="732.2" y="93.247">Modules' event systems are processed first</text></g><!--class EventSystem--><g class="entity" data-entity="EventSystem" data-source-line="20" data-uid="ent0007" id="entity_EventSystem"><rect fill="#F1F1F1" height="86.1358" rx="2.5" ry="2.5" style="stroke:#181818;stroke-width:0.5;" width="278.1949" x="335.9" y="257.94"/><ellipse cx="432.2406" cy="273.94" fill="#A9DCDF" rx="11" ry="11" style="stroke:#181818;stroke-width:1;"/><path d="M435.5844,279.19 L434.1156,275.44 L429.6781,275.44 L428.2406,279.19 L426.1156,279.19 L431.0687,266.4713 L432.8187,266.4713 L437.7406,279.19 L435.5844,279.19 Z M432.2406,270.2369 Q432.1937,270.0806 432.0687,269.7213 Q431.9437,269.3619 431.8344,268.9869 Q431.725,268.5963 431.9281,268.5338 Q432.0844,268.7213 431.9906,269.0806 Q431.8969,269.4244 431.8031,269.7213 Q431.7094,270.0025 431.6312,270.2369 L430.3969,273.5494 L433.475,273.5494 L432.2406,270.2369 Z " fill="#000000"/><text fill="#000000" font-family="sans-serif" font-size="14" font-style="italic" lengthAdjust="spacing" textLength="77.0137" x="452.7406" y="279.372">EventSystem</text><line style="stroke:#181818;stroke-width:0.5;" x1="336.9" x2="613.0949" y1="289.94" y2="289.94"/><line style="stroke:#181818;stroke-width:0.5;" x1="336.9" x2="613.0949" y1="297.94" y2="297.94"/><text fill="#000000" font-family="sans-serif" font-size="14" lengthAdjust="spacing" textLength="266.1949" x="341.9" y="316.9059">signal void sigSendEvent(QEvent *event)</text><text fill="#000000" font-family="sans-serif" font-size="14" font-style="italic" lengthAdjust="spacing" textLength="206.5412" x="341.9" y="335.9739">void processEvent(QEvent *event)</text></g><!--class IntrospectionSystem--><g class="entity" data-entity="IntrospectionSystem" data-source-line="25" data-uid="ent0008" id="entity_IntrospectionSystem"><rect fill="#F1F1F1" height="67.0679" rx="2.5" ry="2.5" style="stroke:#181818;stroke-width:0.5;" width="167.9955" x="7" y="481.34"/><ellipse cx="22" cy="497.34" fill="#ADD1B2" rx="11" ry="11" style="stroke:#181818;stroke-width:1;"/><path d="M22.1094,492.8713 Q21.1875,492.8713 20.4531,493.1838 Q19.7344,493.4963 19.2344,494.09 Q18.7344,494.6681 18.4531,495.5431 Q18.1875,496.4181 18.1875,497.5119 Q18.1875,498.9494 18.625,499.9963 Q19.0781,501.0431 19.9219,501.59 Q20.7813,502.1369 22.0938,502.1369 Q22.875,502.1369 23.5625,502.0119 Q24.2656,501.8713 25.2656,501.5588 L25.2656,503.4338 Q24.4063,503.7619 23.6406,503.8869 Q22.8906,504.0119 21.875,504.0119 Q19.9531,504.0119 18.6406,503.215 Q17.3438,502.4025 16.6875,500.9338 Q16.0313,499.4494 16.0313,497.4806 Q16.0313,496.0588 16.4219,494.8869 Q16.8281,493.6994 17.6094,492.8244 Q18.3906,491.9494 19.5313,491.4806 Q20.6719,490.9963 22.1406,490.9963 Q23.0938,490.9963 23.9844,491.1994 Q24.8906,491.3869 25.8281,491.8556 L25,493.6369 Q24.2188,493.2619 23.5625,493.0744 Q22.9063,492.8713 22.1094,492.8713 Z " fill="#000000"/><text fill="#000000" font-family="sans-serif" font-size="14" lengthAdjust="spacing" textLength="135.9955" x="36" y="502.772">IntrospectionSystem</text><line style="stroke:#181818;stroke-width:0.5;" x1="8" x2="173.9955" y1="513.34" y2="513.34"/><line style="stroke:#181818;stroke-width:0.5;" x1="8" x2="173.9955" y1="521.34" y2="521.34"/><text fill="#000000" font-family="sans-serif" font-size="14" lengthAdjust="spacing" textLength="138.4875" x="13" y="540.3059">void processEvent(...)</text></g><!--class AbstractEventSystem--><g class="entity" data-entity="AbstractEventSystem" data-source-line="29" data-uid="ent0009" id="entity_AbstractEventSystem"><rect fill="#F1F1F1" height="67.0679" rx="2.5" ry="2.5" style="stroke:#181818;stroke-width:0.5;" width="170.7955" x="1044.6" y="54.67"/><ellipse cx="1059.6" cy="70.67" fill="#ADD1B2" rx="11" ry="11" style="stroke:#181818;stroke-width:1;"/><path d="M1059.7094,66.2012 Q1058.7875,66.2012 1058.0531,66.5137 Q1057.3344,66.8262 1056.8344,67.42 Q1056.3344,67.9981 1056.0531,68.8731 Q1055.7875,69.7481 1055.7875,70.8419 Q1055.7875,72.2794 1056.225,73.3262 Q1056.6781,74.3731 1057.5219,74.92 Q1058.3813,75.4669 1059.6938,75.4669 Q1060.475,75.4669 1061.1625,75.3419 Q1061.8656,75.2012 1062.8656,74.8887 L1062.8656,76.7637 Q1062.0063,77.0919 1061.2406,77.2169 Q1060.4906,77.3419 1059.475,77.3419 Q1057.5531,77.3419 1056.2406,76.545 Q1054.9438,75.7325 1054.2875,74.2637 Q1053.6313,72.7794 1053.6313,70.8106 Q1053.6313,69.3887 1054.0219,68.2169 Q1054.4281,67.0294 1055.2094,66.1544 Q1055.9906,65.2794 1057.1313,64.8106 Q1058.2719,64.3262 1059.7406,64.3262 Q1060.6938,64.3262 1061.5844,64.5294 Q1062.4906,64.7169 1063.4281,65.1856 L1062.6,66.9669 Q1061.8188,66.5919 1061.1625,66.4044 Q1060.5063,66.2012 1059.7094,66.2012 Z " fill="#000000"/><text fill="#000000" font-family="sans-serif" font-size="14" lengthAdjust="spacing" textLength="138.7955" x="1073.6" y="76.102">AbstractEventSystem</text><line style="stroke:#181818;stroke-width:0.5;" x1="1045.6" x2="1214.3955" y1="86.67" y2="86.67"/><line style="stroke:#181818;stroke-width:0.5;" x1="1045.6" x2="1214.3955" y1="94.67" y2="94.67"/><text fill="#000000" font-family="sans-serif" font-size="14" lengthAdjust="spacing" textLength="138.4875" x="1050.6" y="113.6359">void processEvent(...)</text></g><!--class SystemModuleEventSystem--><g class="entity" data-entity="SystemModuleEventSystem" data-source-line="33" data-uid="ent0010" id="entity_SystemModuleEventSystem"><rect fill="#F1F1F1" height="200.5433" rx="2.5" ry="2.5" style="stroke:#181818;stroke-width:0.5;" width="530.488" x="209.75" y="414.61"/><ellipse cx="379.9544" cy="430.61" fill="#ADD1B2" rx="11" ry="11" style="stroke:#181818;stroke-width:1;"/><path d="M380.0637,426.1413 Q379.1419,426.1413 378.4075,426.4538 Q377.6887,426.7663 377.1887,427.36 Q376.6887,427.9381 376.4075,428.8131 Q376.1419,429.6881 376.1419,430.7819 Q376.1419,432.2194 376.5794,433.2663 Q377.0325,434.3131 377.8762,434.86 Q378.7356,435.4069 380.0481,435.4069 Q380.8294,435.4069 381.5169,435.2819 Q382.22,435.1413 383.22,434.8288 L383.22,436.7038 Q382.3606,437.0319 381.595,437.1569 Q380.845,437.2819 379.8294,437.2819 Q377.9075,437.2819 376.595,436.485 Q375.2981,435.6725 374.6419,434.2038 Q373.9856,432.7194 373.9856,430.7506 Q373.9856,429.3288 374.3762,428.1569 Q374.7825,426.9694 375.5637,426.0944 Q376.345,425.2194 377.4856,424.7506 Q378.6262,424.2663 380.095,424.2663 Q381.0481,424.2663 381.9387,424.4694 Q382.845,424.6569 383.7825,425.1256 L382.9544,426.9069 Q382.1731,426.5319 381.5169,426.3444 Q380.8606,426.1413 380.0637,426.1413 Z " fill="#000000"/><text fill="#000000" font-family="sans-serif" font-size="14" lengthAdjust="spacing" textLength="181.5793" x="400.4544" y="436.042">SystemModuleEventSystem</text><line style="stroke:#181818;stroke-width:0.5;" x1="210.75" x2="739.238" y1="446.61" y2="446.61"/><text fill="#000000" font-family="sans-serif" font-size="14" lengthAdjust="spacing" textLength="101.5696" x="215.75" y="465.5759">int getEntityId()</text><text fill="#000000" font-family="sans-serif" font-size="14" lengthAdjust="spacing" textLength="366.4487" x="215.75" y="484.6439">VeinStorage::AbstractEventSystem *getStorageSystem()</text><text fill="#000000" font-family="sans-serif" font-size="14" lengthAdjust="spacing" textLength="457.6304" x="215.75" y="503.7118">void setStorage(VeinStorage::AbstractEventSystem *t_storageSystem)</text><line style="stroke:#181818;stroke-width:0.5;" x1="210.75" x2="739.238" y1="511.8138" y2="511.8138"/><text fill="#000000" font-family="sans-serif" font-size="14" lengthAdjust="spacing" textLength="138.4875" x="215.75" y="530.7797">void processEvent(...)</text><text fill="#000000" font-family="sans-serif" font-size="14" lengthAdjust="spacing" textLength="393.7066" x="215.75" y="549.8476">signal void sigChangeSession(const QString &amp;t_newSession)</text><text fill="#000000" font-family="sans-serif" font-size="14" lengthAdjust="spacing" textLength="357.8106" x="215.75" y="568.9155">signal void sigModulesPausedChanged(bool t_paused)</text><text fill="#000000" font-family="sans-serif" font-size="14" lengthAdjust="spacing" textLength="518.488" x="215.75" y="587.9834">void initializeEntity(const QString &amp;sessionPath, const QStringList &amp;sessionList)</text><text fill="#000000" font-family="sans-serif" font-size="14" lengthAdjust="spacing" textLength="256.731" x="215.75" y="607.0514">void setModulesPaused(bool t_paused)</text></g><!--class VeinStorage--><g class="entity" data-entity="VeinStorage" data-source-line="51" data-uid="ent0014" id="entity_VeinStorage"><rect fill="#F1F1F1" height="48" rx="2.5" ry="2.5" style="stroke:#181818;stroke-width:0.5;" width="111.9117" x="783.5" y="490.88"/><ellipse cx="798.5" cy="506.88" fill="#ADD1B2" rx="11" ry="11" style="stroke:#181818;stroke-width:1;"/><path d="M798.6094,502.4113 Q797.6875,502.4113 796.9531,502.7238 Q796.2344,503.0363 795.7344,503.63 Q795.2344,504.2081 794.9531,505.0831 Q794.6875,505.9581 794.6875,507.0519 Q794.6875,508.4894 795.125,509.5363 Q795.5781,510.5831 796.4219,511.13 Q797.2813,511.6769 798.5938,511.6769 Q799.375,511.6769 800.0625,511.5519 Q800.7656,511.4113 801.7656,511.0988 L801.7656,512.9738 Q800.9063,513.3019 800.1406,513.4269 Q799.3906,513.5519 798.375,513.5519 Q796.4531,513.5519 795.1406,512.755 Q793.8438,511.9425 793.1875,510.4738 Q792.5313,508.9894 792.5313,507.0206 Q792.5313,505.5988 792.9219,504.4269 Q793.3281,503.2394 794.1094,502.3644 Q794.8906,501.4894 796.0313,501.0206 Q797.1719,500.5363 798.6406,500.5363 Q799.5938,500.5363 800.4844,500.7394 Q801.3906,500.9269 802.3281,501.3956 L801.5,503.1769 Q800.7188,502.8019 800.0625,502.6144 Q799.4063,502.4113 798.6094,502.4113 Z " fill="#000000"/><text fill="#000000" font-family="sans-serif" font-size="14" lengthAdjust="spacing" textLength="79.9117" x="812.5" y="512.312">VeinStorage</text><line style="stroke:#181818;stroke-width:0.5;" x1="784.5" x2="894.4117" y1="522.88" y2="522.88"/><line style="stroke:#181818;stroke-width:0.5;" x1="784.5" x2="894.4117" y1="530.88" y2="530.88"/></g><!--reverse link EventHandler to ModuleEventHandler--><g class="link" data-entity-1="EventHandler" data-entity-2="ModuleEventHandler" data-source-line="46" data-uid="lnk11" id="link_EventHandler_ModuleEventHandler"><path codeLine="46" d="M639.9448,178.3591 C688.4348,204.5691 725.1,224.39 768.68,247.94" fill="none" id="EventHandler-backto-ModuleEventHandler" style="stroke:#181818;stroke-width:1;"/><polygon fill="none" points="624.11,169.8,637.0918,183.6374,642.7979,173.0808,624.11,169.8" style="stroke:#181818;stroke-width:1;"/></g><!--reverse link EventHandler to EventSystem--><g class="link" data-entity-1="EventHandler" data-entity-2="EventSystem" data-source-line="47" data-uid="lnk12" id="link_EventHandler_EventSystem"><path codeLine="47" d="M475,181.8 C475,211.67 475,232.36 475,257.51" fill="none" id="EventHandler-backto-EventSystem" style="stroke:#181818;stroke-width:1;"/><polygon fill="none" points="475,169.8,471,175.8,475,181.8,479,175.8,475,169.8" style="stroke:#181818;stroke-width:1;"/><polygon fill="#000000" points="480,214.253,482.9389,205.2079,477.0611,205.2079,480,214.253" style="stroke:#000000;stroke-width:1;"/><text fill="#000000" font-family="sans-serif" font-size="13" lengthAdjust="spacing" textLength="114.3481" x="489" y="214.297">forwards events to</text><text fill="#000000" font-family="sans-serif" font-size="13" lengthAdjust="spacing" textLength="21.567" x="452.3722" y="246.1761">0..*</text></g><!--reverse link EventSystem to IntrospectionSystem--><g class="link" data-entity-1="EventSystem" data-entity-2="IntrospectionSystem" data-source-line="50" data-uid="lnk13" id="link_EventSystem_IntrospectionSystem"><path codeLine="50" d="M319.9389,350.7509 C272.0389,368.6509 236.18,385.8 192,414.61 C163.99,432.87 137.23,459.74 118.31,480.93" fill="none" id="EventSystem-backto-IntrospectionSystem" style="stroke:#181818;stroke-width:1;"/><polygon fill="none" points="336.8,344.45,317.8385,345.1305,322.0392,356.3713,336.8,344.45" style="stroke:#181818;stroke-width:1;"/></g><!--reverse link EventSystem to VeinStorage--><g class="link" data-entity-1="EventSystem" data-entity-2="VeinStorage" data-source-line="51" data-uid="lnk15" id="link_EventSystem_VeinStorage"><path codeLine="51" d="M616.3171,350.679 C679.3471,373.589 731.18,394.95 758,414.61 C784.91,434.33 808.09,465.02 822.68,487.06" fill="none" id="EventSystem-backto-VeinStorage" style="stroke:#181818;stroke-width:1;"/><polygon fill="none" points="599.4,344.53,614.2675,356.3181,618.3668,345.04,599.4,344.53" style="stroke:#181818;stroke-width:1;"/></g><!--reverse link EventSystem to SystemModuleEventSystem--><g class="link" data-entity-1="EventSystem" data-entity-2="SystemModuleEventSystem" data-source-line="52" data-uid="lnk16" id="link_EventSystem_SystemModuleEventSystem"><path codeLine="52" d="M475,362.37 C475,382.54 475,389.58 475,414.18" fill="none" id="EventSystem-backto-SystemModuleEventSystem" style="stroke:#181818;stroke-width:1;"/><polygon fill="none" points="475,344.37,469,362.37,481,362.37,475,344.37" style="stroke:#181818;stroke-width:1;"/></g><!--SRC=[dLDHQzim47xNhpWwM9smc3sRKXYZiC8A3OQz1iMw96AsP7Jdb2xBVvyiEOcTE0tCBxPyt_VTwRkxefH4yBH5mp-aKIKws0dmp_od9du8WVoT6Alf8r2pfF1D0RArMe5KAZ_yJlhm4tfoGjSEQpGznY_K9h2ox2RPOMMt-7_SeaJfZbHAOkXJZ3N4jWeIoJoyO8hjQm8-dtDQeTWBKGIhNgngIhngs7XDuCsh0Z4VyU-b5qck2U3fS7wjFh-zsLuOomXiwm2CORg7806T0o0T-dRO0ebGmKexOk5R0orN2BaaTh9WA4u3qfKIhqjwRMGPg_3VkQUEEHYmkuFQ_Z058Uqe_cZqis5dgSQ2jJM3r9SQQPhscD-wR9T5ts96SA_50_OzI6QdbmtZhDI_4IhaZLMncRkLnbBjGVkxh96V36j-VrRTe1sYRNTpjawkCSl6wfnwRWVe1c8W4Eq-GfBRUhoWljn4V6J4I6E_RwJnP8_pRKWAQuXXddiRp1e-yyBWMnSRPNUpzoeRFsHHIYLBQqlWHHr-zePP6yrQbleFHlVEir5Cz2fvymK6iNRrZl7sq5FrRWsgE4_lcp_OveU_izd8bWz1rcFklgRfz6wm6Xcih7kJJb5SDl9B28-Yoz21GeAHwRu4tUhk9UFA08j_]--></g></svg>