<?xml version="1.0" encoding="us-ascii" standalone="no"?><svg xmlns="http://www.w3.org/2000/svg" xmlns:xlink="http://www.w3.org/1999/xlink" contentStyleType="text/css" height="905px" preserveAspectRatio="none" style="width:1378px;height:905px;background:#FFFFFF;" version="1.1" viewBox="0 0 1378 905" width="1378px" zoomAndPan="magnify"><defs/><g><!--class QEvent--><g id="elem_QEvent"><rect codeLine="2" fill="#F1F1F1" height="105.2038" id="QEvent" rx="2.5" ry="2.5" style="stroke:#181818;stroke-width:0.5;" width="242" x="357.5" y="7"/><ellipse cx="450.25" cy="23" fill="#ADD1B2" rx="11" ry="11" style="stroke:#181818;stroke-width:1.0;"/><path d="M450.3594,18.5313 Q449.4375,18.5313 448.7031,18.8438 Q447.9844,19.1563 447.4844,19.75 Q446.9844,20.3281 446.7031,21.2031 Q446.4375,22.0781 446.4375,23.1719 Q446.4375,24.6094 446.875,25.6563 Q447.3281,26.7031 448.1719,27.25 Q449.0313,27.7969 450.3438,27.7969 Q451.125,27.7969 451.8125,27.6719 Q452.5156,27.5313 453.5156,27.2188 L453.5156,29.0938 Q452.6563,29.4219 451.8906,29.5469 Q451.1406,29.6719 450.125,29.6719 Q448.2031,29.6719 446.8906,28.875 Q445.5938,28.0625 444.9375,26.5938 Q444.2813,25.1094 444.2813,23.1406 Q444.2813,21.7188 444.6719,20.5469 Q445.0781,19.3594 445.8594,18.4844 Q446.6406,17.6094 447.7813,17.1406 Q448.9219,16.6563 450.3906,16.6563 Q451.3438,16.6563 452.2344,16.8594 Q453.1406,17.0469 454.0781,17.5156 L453.25,19.2969 Q452.4688,18.9219 451.8125,18.7344 Q451.1563,18.5313 450.3594,18.5313 Z " fill="#000000"/><text fill="#000000" font-family="sans-serif" font-size="14" lengthAdjust="spacing" textLength="48" x="470.75" y="28.432">QEvent</text><line style="stroke:#181818;stroke-width:0.5;" x1="358.5" x2="598.5" y1="39" y2="39"/><line style="stroke:#181818;stroke-width:0.5;" x1="358.5" x2="598.5" y1="47" y2="47"/><text fill="#000000" font-family="sans-serif" font-size="14" lengthAdjust="spacing" textLength="84" x="363.5" y="65.9659">void accept()</text><text fill="#000000" font-family="sans-serif" font-size="14" lengthAdjust="spacing" textLength="73" x="363.5" y="85.0339">Type type()</text><text fill="#000000" font-family="sans-serif" font-size="14" lengthAdjust="spacing" text-decoration="underline" textLength="230" x="363.5" y="104.1018">int registerEventType(int hint = -1)</text></g><path d="M635,23 L635,50.559 L593.5,98.6698 L635,58.559 L635,86.118 A0,0 0 0 0 635,86.118 L958,86.118 A0,0 0 0 0 958,86.118 L958,33 L948,23 L635,23 A0,0 0 0 0 635,23 " fill="#FEFFDD" style="stroke:#181818;stroke-width:0.5;"/><path d="M948,23 L948,33 L958,33 L948,23 " fill="#FEFFDD" style="stroke:#181818;stroke-width:0.5;"/><text fill="#000000" font-family="sans-serif" font-size="13" lengthAdjust="spacing" textLength="302" x="641" y="41.897">Each event class statically calls registerEventType().</text><text fill="#000000" font-family="sans-serif" font-size="13" lengthAdjust="spacing" textLength="258" x="641" y="59.603">To identify event type, values for type() and</text><text fill="#000000" font-family="sans-serif" font-size="13" lengthAdjust="spacing" textLength="190" x="641" y="77.309">getQEventType() are compared.</text><!--class NetworkStatusEvent--><g id="elem_NetworkStatusEvent"><rect codeLine="13" fill="#F1F1F1" height="67.0679" id="NetworkStatusEvent" rx="2.5" ry="2.5" style="stroke:#181818;stroke-width:0.5;" width="167" x="204" y="192"/><ellipse cx="219" cy="208" fill="#ADD1B2" rx="11" ry="11" style="stroke:#181818;stroke-width:1.0;"/><path d="M219.1094,203.5313 Q218.1875,203.5313 217.4531,203.8438 Q216.7344,204.1563 216.2344,204.75 Q215.7344,205.3281 215.4531,206.2031 Q215.1875,207.0781 215.1875,208.1719 Q215.1875,209.6094 215.625,210.6563 Q216.0781,211.7031 216.9219,212.25 Q217.7813,212.7969 219.0938,212.7969 Q219.875,212.7969 220.5625,212.6719 Q221.2656,212.5313 222.2656,212.2188 L222.2656,214.0938 Q221.4063,214.4219 220.6406,214.5469 Q219.8906,214.6719 218.875,214.6719 Q216.9531,214.6719 215.6406,213.875 Q214.3438,213.0625 213.6875,211.5938 Q213.0313,210.1094 213.0313,208.1406 Q213.0313,206.7188 213.4219,205.5469 Q213.8281,204.3594 214.6094,203.4844 Q215.3906,202.6094 216.5313,202.1406 Q217.6719,201.6563 219.1406,201.6563 Q220.0938,201.6563 220.9844,201.8594 Q221.8906,202.0469 222.8281,202.5156 L222,204.2969 Q221.2188,203.9219 220.5625,203.7344 Q219.9063,203.5313 219.1094,203.5313 Z " fill="#000000"/><text fill="#000000" font-family="sans-serif" font-size="14" lengthAdjust="spacing" textLength="135" x="233" y="213.432">NetworkStatusEvent</text><line style="stroke:#181818;stroke-width:0.5;" x1="205" x2="370" y1="224" y2="224"/><line style="stroke:#181818;stroke-width:0.5;" x1="205" x2="370" y1="232" y2="232"/><text fill="#000000" font-family="sans-serif" font-size="14" lengthAdjust="spacing" text-decoration="underline" textLength="132" x="210" y="250.9659">int getQEventType()</text></g><!--class ProtocolEvent--><g id="elem_ProtocolEvent"><rect codeLine="17" fill="#F1F1F1" height="67.0679" id="ProtocolEvent" rx="2.5" ry="2.5" style="stroke:#181818;stroke-width:0.5;" width="144" x="406.5" y="192"/><ellipse cx="430.95" cy="208" fill="#ADD1B2" rx="11" ry="11" style="stroke:#181818;stroke-width:1.0;"/><path d="M431.0594,203.5313 Q430.1375,203.5313 429.4031,203.8438 Q428.6844,204.1563 428.1844,204.75 Q427.6844,205.3281 427.4031,206.2031 Q427.1375,207.0781 427.1375,208.1719 Q427.1375,209.6094 427.575,210.6563 Q428.0281,211.7031 428.8719,212.25 Q429.7313,212.7969 431.0438,212.7969 Q431.825,212.7969 432.5125,212.6719 Q433.2156,212.5313 434.2156,212.2188 L434.2156,214.0938 Q433.3563,214.4219 432.5906,214.5469 Q431.8406,214.6719 430.825,214.6719 Q428.9031,214.6719 427.5906,213.875 Q426.2938,213.0625 425.6375,211.5938 Q424.9813,210.1094 424.9813,208.1406 Q424.9813,206.7188 425.3719,205.5469 Q425.7781,204.3594 426.5594,203.4844 Q427.3406,202.6094 428.4813,202.1406 Q429.6219,201.6563 431.0906,201.6563 Q432.0438,201.6563 432.9344,201.8594 Q433.8406,202.0469 434.7781,202.5156 L433.95,204.2969 Q433.1688,203.9219 432.5125,203.7344 Q431.8563,203.5313 431.0594,203.5313 Z " fill="#000000"/><text fill="#000000" font-family="sans-serif" font-size="14" lengthAdjust="spacing" textLength="91" x="447.05" y="213.432">ProtocolEvent</text><line style="stroke:#181818;stroke-width:0.5;" x1="407.5" x2="549.5" y1="224" y2="224"/><line style="stroke:#181818;stroke-width:0.5;" x1="407.5" x2="549.5" y1="232" y2="232"/><text fill="#000000" font-family="sans-serif" font-size="14" lengthAdjust="spacing" text-decoration="underline" textLength="132" x="412.5" y="250.9659">int getQEventType()</text></g><!--class CommandEvent--><g id="elem_CommandEvent"><rect codeLine="21" fill="#F1F1F1" height="105.2038" id="CommandEvent" rx="2.5" ry="2.5" style="stroke:#181818;stroke-width:0.5;" width="208" x="585.5" y="173"/><ellipse cx="632.25" cy="189" fill="#ADD1B2" rx="11" ry="11" style="stroke:#181818;stroke-width:1.0;"/><path d="M632.3594,184.5313 Q631.4375,184.5313 630.7031,184.8438 Q629.9844,185.1563 629.4844,185.75 Q628.9844,186.3281 628.7031,187.2031 Q628.4375,188.0781 628.4375,189.1719 Q628.4375,190.6094 628.875,191.6563 Q629.3281,192.7031 630.1719,193.25 Q631.0313,193.7969 632.3438,193.7969 Q633.125,193.7969 633.8125,193.6719 Q634.5156,193.5313 635.5156,193.2188 L635.5156,195.0938 Q634.6563,195.4219 633.8906,195.5469 Q633.1406,195.6719 632.125,195.6719 Q630.2031,195.6719 628.8906,194.875 Q627.5938,194.0625 626.9375,192.5938 Q626.2813,191.1094 626.2813,189.1406 Q626.2813,187.7188 626.6719,186.5469 Q627.0781,185.3594 627.8594,184.4844 Q628.6406,183.6094 629.7813,183.1406 Q630.9219,182.6563 632.3906,182.6563 Q633.3438,182.6563 634.2344,182.8594 Q635.1406,183.0469 636.0781,183.5156 L635.25,185.2969 Q634.4688,184.9219 633.8125,184.7344 Q633.1563,184.5313 632.3594,184.5313 Z " fill="#000000"/><text fill="#000000" font-family="sans-serif" font-size="14" lengthAdjust="spacing" textLength="106" x="652.75" y="194.432">CommandEvent</text><line style="stroke:#181818;stroke-width:0.5;" x1="586.5" x2="792.5" y1="205" y2="205"/><line style="stroke:#181818;stroke-width:0.5;" x1="586.5" x2="792.5" y1="213" y2="213"/><text fill="#000000" font-family="sans-serif" font-size="14" lengthAdjust="spacing" text-decoration="underline" textLength="132" x="591.5" y="231.9659">int getQEventType()</text><text fill="#000000" font-family="sans-serif" font-size="14" lengthAdjust="spacing" textLength="196" x="591.5" y="251.0339">EventSubtype eventSubtype()</text><text fill="#000000" font-family="sans-serif" font-size="14" lengthAdjust="spacing" textLength="156" x="591.5" y="270.1018">EventData *eventData()</text></g><path d="M829,189 L829,216.559 L787.5,245.6019 L829,224.559 L829,252.118 A0,0 0 0 0 829,252.118 L1112,252.118 A0,0 0 0 0 1112,252.118 L1112,199 L1102,189 L829,189 A0,0 0 0 0 829,189 " fill="#FEFFDD" style="stroke:#181818;stroke-width:0.5;"/><path d="M1102,189 L1102,199 L1112,199 L1102,189 " fill="#FEFFDD" style="stroke:#181818;stroke-width:0.5;"/><text fill="#000000" font-family="sans-serif" font-size="13" lengthAdjust="spacing" textLength="228" x="835" y="207.897">enum CommandEvent::EventSubtype:</text><ellipse cx="840.5" cy="221.912" fill="#000000" rx="2.5" ry="2.5" style="stroke:#000000;stroke-width:0.0;"/><text fill="#000000" font-family="sans-serif" font-size="13" lengthAdjust="spacing" textLength="109" x="847" y="225.603">NOTIFICATION: All</text><ellipse cx="840.5" cy="239.618" fill="#000000" rx="2.5" ry="2.5" style="stroke:#000000;stroke-width:0.0;"/><text fill="#000000" font-family="sans-serif" font-size="13" lengthAdjust="spacing" textLength="250" x="847" y="243.309">TRANSACTION: subscribed Client -&gt; Server</text><!--class EventData--><g id="elem_EventData"><rect codeLine="36" fill="#F1F1F1" height="143.3396" id="EventData" rx="2.5" ry="2.5" style="stroke:#181818;stroke-width:0.5;" width="232" x="573.5" y="357"/><ellipse cx="653.25" cy="373" fill="#A9DCDF" rx="11" ry="11" style="stroke:#181818;stroke-width:1.0;"/><path d="M656.5938,378.25 L655.125,374.5 L650.6875,374.5 L649.25,378.25 L647.125,378.25 L652.0781,365.5313 L653.8281,365.5313 L658.75,378.25 L656.5938,378.25 Z M653.25,369.2969 Q653.2031,369.1406 653.0781,368.7813 Q652.9531,368.4219 652.8438,368.0469 Q652.7344,367.6563 652.9375,367.5938 Q653.0938,367.7813 653,368.1406 Q652.9063,368.4844 652.8125,368.7813 Q652.7188,369.0625 652.6406,369.2969 L651.4063,372.6094 L654.4844,372.6094 L653.25,369.2969 Z " fill="#000000"/><text fill="#000000" font-family="sans-serif" font-size="14" font-style="italic" lengthAdjust="spacing" textLength="64" x="673.75" y="378.432">EventData</text><line style="stroke:#181818;stroke-width:0.5;" x1="574.5" x2="804.5" y1="389" y2="389"/><text fill="#000000" font-family="sans-serif" font-size="14" lengthAdjust="spacing" textLength="82" x="579.5" y="407.9659">int entityId()</text><line style="stroke:#181818;stroke-width:0.5;" x1="574.5" x2="804.5" y1="416.0679" y2="416.0679"/><text fill="#000000" font-family="sans-serif" font-size="14" font-style="italic" lengthAdjust="spacing" textLength="56" x="579.5" y="435.0339">int type()</text><text fill="#000000" font-family="sans-serif" font-size="14" font-style="italic" lengthAdjust="spacing" textLength="82" x="579.5" y="454.1018">bool isValid()</text><text fill="#000000" font-family="sans-serif" font-size="14" font-style="italic" lengthAdjust="spacing" textLength="136" x="579.5" y="473.1697">QByteArray serialize()</text><text fill="#000000" font-family="sans-serif" font-size="14" font-style="italic" lengthAdjust="spacing" textLength="220" x="579.5" y="492.2376">void deserialize(QByteArray &amp;data)</text></g><!--class EntityData--><g id="elem_EntityData"><rect codeLine="45" fill="#F1F1F1" height="143.3396" id="EntityData" rx="2.5" ry="2.5" style="stroke:#181818;stroke-width:0.5;" width="245" x="7" y="561"/><ellipse cx="90.75" cy="577" fill="#ADD1B2" rx="11" ry="11" style="stroke:#181818;stroke-width:1.0;"/><path d="M90.8594,572.5313 Q89.9375,572.5313 89.2031,572.8438 Q88.4844,573.1563 87.9844,573.75 Q87.4844,574.3281 87.2031,575.2031 Q86.9375,576.0781 86.9375,577.1719 Q86.9375,578.6094 87.375,579.6563 Q87.8281,580.7031 88.6719,581.25 Q89.5313,581.7969 90.8438,581.7969 Q91.625,581.7969 92.3125,581.6719 Q93.0156,581.5313 94.0156,581.2188 L94.0156,583.0938 Q93.1563,583.4219 92.3906,583.5469 Q91.6406,583.6719 90.625,583.6719 Q88.7031,583.6719 87.3906,582.875 Q86.0938,582.0625 85.4375,580.5938 Q84.7813,579.1094 84.7813,577.1406 Q84.7813,575.7188 85.1719,574.5469 Q85.5781,573.3594 86.3594,572.4844 Q87.1406,571.6094 88.2813,571.1406 Q89.4219,570.6563 90.8906,570.6563 Q91.8438,570.6563 92.7344,570.8594 Q93.6406,571.0469 94.5781,571.5156 L93.75,573.2969 Q92.9688,572.9219 92.3125,572.7344 Q91.6563,572.5313 90.8594,572.5313 Z " fill="#000000"/><text fill="#000000" font-family="sans-serif" font-size="14" lengthAdjust="spacing" textLength="69" x="111.25" y="582.432">EntityData</text><line style="stroke:#181818;stroke-width:0.5;" x1="8" x2="251" y1="593" y2="593"/><text fill="#000000" font-family="sans-serif" font-size="14" lengthAdjust="spacing" textLength="187" x="13" y="611.9659">Command eventCommand()</text><line style="stroke:#181818;stroke-width:0.5;" x1="8" x2="251" y1="620.0679" y2="620.0679"/><text fill="#000000" font-family="sans-serif" font-size="14" lengthAdjust="spacing" textLength="59" x="13" y="639.0339">int type()</text><text fill="#000000" font-family="sans-serif" font-size="14" lengthAdjust="spacing" textLength="85" x="13" y="658.1018">bool isValid()</text><text fill="#000000" font-family="sans-serif" font-size="14" lengthAdjust="spacing" textLength="144" x="13" y="677.1697">QByteArray serialize()</text><text fill="#000000" font-family="sans-serif" font-size="14" lengthAdjust="spacing" textLength="233" x="13" y="696.2376">void deserialize(QByteArray &amp;data)</text></g><g id="elem_GMN14"><path d="M32.5,774 L32.5,890.2361 A0,0 0 0 0 32.5,890.2361 L226.5,890.2361 A0,0 0 0 0 226.5,890.2361 L226.5,784 L216.5,774 L133.5,774 L129.5,704.24 L125.5,774 L32.5,774 A0,0 0 0 0 32.5,774 " fill="#FEFFDD" style="stroke:#181818;stroke-width:0.5;"/><path d="M216.5,774 L216.5,784 L226.5,784 L216.5,774 " fill="#FEFFDD" style="stroke:#181818;stroke-width:0.5;"/><text fill="#000000" font-family="sans-serif" font-size="13" lengthAdjust="spacing" textLength="173" x="38.5" y="792.897">enum EntityData::Command:</text><ellipse cx="44" cy="806.912" fill="#000000" rx="2.5" ry="2.5" style="stroke:#000000;stroke-width:0.0;"/><text fill="#000000" font-family="sans-serif" font-size="13" lengthAdjust="spacing" textLength="92" x="50.5" y="810.603">ECMD_INVALID</text><ellipse cx="44" cy="824.618" fill="#000000" rx="2.5" ry="2.5" style="stroke:#000000;stroke-width:0.0;"/><text fill="#000000" font-family="sans-serif" font-size="13" lengthAdjust="spacing" textLength="68" x="50.5" y="828.309">ECMD_ADD</text><ellipse cx="44" cy="842.3241" fill="#000000" rx="2.5" ry="2.5" style="stroke:#000000;stroke-width:0.0;"/><text fill="#000000" font-family="sans-serif" font-size="13" lengthAdjust="spacing" textLength="94" x="50.5" y="846.0151">ECMD_REMOVE</text><ellipse cx="44" cy="860.0301" fill="#000000" rx="2.5" ry="2.5" style="stroke:#000000;stroke-width:0.0;"/><text fill="#000000" font-family="sans-serif" font-size="13" lengthAdjust="spacing" textLength="109" x="50.5" y="863.7211">ECMD_SUBSCRIBE</text><ellipse cx="44" cy="877.7361" fill="#000000" rx="2.5" ry="2.5" style="stroke:#000000;stroke-width:0.0;"/><text fill="#000000" font-family="sans-serif" font-size="13" lengthAdjust="spacing" textLength="129" x="50.5" y="881.4271">ECMD_UNSUBSCRIBE</text></g><!--class ComponentData--><g id="elem_ComponentData"><rect codeLine="62" fill="#F1F1F1" height="143.3396" id="ComponentData" rx="2.5" ry="2.5" style="stroke:#181818;stroke-width:0.5;" width="245" x="287" y="561"/><ellipse cx="350.75" cy="577" fill="#ADD1B2" rx="11" ry="11" style="stroke:#181818;stroke-width:1.0;"/><path d="M350.8594,572.5313 Q349.9375,572.5313 349.2031,572.8438 Q348.4844,573.1563 347.9844,573.75 Q347.4844,574.3281 347.2031,575.2031 Q346.9375,576.0781 346.9375,577.1719 Q346.9375,578.6094 347.375,579.6563 Q347.8281,580.7031 348.6719,581.25 Q349.5313,581.7969 350.8438,581.7969 Q351.625,581.7969 352.3125,581.6719 Q353.0156,581.5313 354.0156,581.2188 L354.0156,583.0938 Q353.1563,583.4219 352.3906,583.5469 Q351.6406,583.6719 350.625,583.6719 Q348.7031,583.6719 347.3906,582.875 Q346.0938,582.0625 345.4375,580.5938 Q344.7813,579.1094 344.7813,577.1406 Q344.7813,575.7188 345.1719,574.5469 Q345.5781,573.3594 346.3594,572.4844 Q347.1406,571.6094 348.2813,571.1406 Q349.4219,570.6563 350.8906,570.6563 Q351.8438,570.6563 352.7344,570.8594 Q353.6406,571.0469 354.5781,571.5156 L353.75,573.2969 Q352.9688,572.9219 352.3125,572.7344 Q351.6563,572.5313 350.8594,572.5313 Z " fill="#000000"/><text fill="#000000" font-family="sans-serif" font-size="14" lengthAdjust="spacing" textLength="109" x="371.25" y="582.432">ComponentData</text><line style="stroke:#181818;stroke-width:0.5;" x1="288" x2="531" y1="593" y2="593"/><text fill="#000000" font-family="sans-serif" font-size="14" lengthAdjust="spacing" textLength="187" x="293" y="611.9659">Command eventCommand()</text><line style="stroke:#181818;stroke-width:0.5;" x1="288" x2="531" y1="620.0679" y2="620.0679"/><text fill="#000000" font-family="sans-serif" font-size="14" lengthAdjust="spacing" textLength="59" x="293" y="639.0339">int type()</text><text fill="#000000" font-family="sans-serif" font-size="14" lengthAdjust="spacing" textLength="85" x="293" y="658.1018">bool isValid()</text><text fill="#000000" font-family="sans-serif" font-size="14" lengthAdjust="spacing" textLength="144" x="293" y="677.1697">QByteArray serialize()</text><text fill="#000000" font-family="sans-serif" font-size="14" lengthAdjust="spacing" textLength="233" x="293" y="696.2376">void deserialize(QByteArray &amp;data)</text></g><g id="elem_GMN18"><path d="M294,774 L294,890.2361 A0,0 0 0 0 294,890.2361 L525,890.2361 A0,0 0 0 0 525,890.2361 L525,784 L515,774 L413.5,774 L409.5,704.24 L405.5,774 L294,774 A0,0 0 0 0 294,774 " fill="#FEFFDD" style="stroke:#181818;stroke-width:0.5;"/><path d="M515,774 L515,784 L525,784 L515,774 " fill="#FEFFDD" style="stroke:#181818;stroke-width:0.5;"/><text fill="#000000" font-family="sans-serif" font-size="13" lengthAdjust="spacing" textLength="210" x="300" y="792.897">enum ComponentData::Command:</text><ellipse cx="305.5" cy="806.912" fill="#000000" rx="2.5" ry="2.5" style="stroke:#000000;stroke-width:0.0;"/><text fill="#000000" font-family="sans-serif" font-size="13" lengthAdjust="spacing" textLength="93" x="312" y="810.603">CCMD_INVALID</text><ellipse cx="305.5" cy="824.618" fill="#000000" rx="2.5" ry="2.5" style="stroke:#000000;stroke-width:0.0;"/><text fill="#000000" font-family="sans-serif" font-size="13" lengthAdjust="spacing" textLength="69" x="312" y="828.309">CCMD_ADD</text><ellipse cx="305.5" cy="842.3241" fill="#000000" rx="2.5" ry="2.5" style="stroke:#000000;stroke-width:0.0;"/><text fill="#000000" font-family="sans-serif" font-size="13" lengthAdjust="spacing" textLength="95" x="312" y="846.0151">CCMD_REMOVE</text><ellipse cx="305.5" cy="860.0301" fill="#000000" rx="2.5" ry="2.5" style="stroke:#000000;stroke-width:0.0;"/><text fill="#000000" font-family="sans-serif" font-size="13" lengthAdjust="spacing" textLength="64" x="312" y="863.7211">CCMD_SET</text><ellipse cx="305.5" cy="877.7361" fill="#000000" rx="2.5" ry="2.5" style="stroke:#000000;stroke-width:0.0;"/><text fill="#000000" font-family="sans-serif" font-size="13" lengthAdjust="spacing" textLength="82" x="312" y="881.4271">CCMD_FETCH</text></g><!--class IntrospectionData--><g id="elem_IntrospectionData"><rect codeLine="79" fill="#F1F1F1" height="124.2717" id="IntrospectionData" rx="2.5" ry="2.5" style="stroke:#181818;stroke-width:0.5;" width="245" x="567" y="570.5"/><ellipse cx="624.75" cy="586.5" fill="#ADD1B2" rx="11" ry="11" style="stroke:#181818;stroke-width:1.0;"/><path d="M624.8594,582.0313 Q623.9375,582.0313 623.2031,582.3438 Q622.4844,582.6563 621.9844,583.25 Q621.4844,583.8281 621.2031,584.7031 Q620.9375,585.5781 620.9375,586.6719 Q620.9375,588.1094 621.375,589.1563 Q621.8281,590.2031 622.6719,590.75 Q623.5313,591.2969 624.8438,591.2969 Q625.625,591.2969 626.3125,591.1719 Q627.0156,591.0313 628.0156,590.7188 L628.0156,592.5938 Q627.1563,592.9219 626.3906,593.0469 Q625.6406,593.1719 624.625,593.1719 Q622.7031,593.1719 621.3906,592.375 Q620.0938,591.5625 619.4375,590.0938 Q618.7813,588.6094 618.7813,586.6406 Q618.7813,585.2188 619.1719,584.0469 Q619.5781,582.8594 620.3594,581.9844 Q621.1406,581.1094 622.2813,580.6406 Q623.4219,580.1563 624.8906,580.1563 Q625.8438,580.1563 626.7344,580.3594 Q627.6406,580.5469 628.5781,581.0156 L627.75,582.7969 Q626.9688,582.4219 626.3125,582.2344 Q625.6563,582.0313 624.8594,582.0313 Z " fill="#000000"/><text fill="#000000" font-family="sans-serif" font-size="14" lengthAdjust="spacing" textLength="121" x="645.25" y="591.932">IntrospectionData</text><line style="stroke:#181818;stroke-width:0.5;" x1="568" x2="811" y1="602.5" y2="602.5"/><line style="stroke:#181818;stroke-width:0.5;" x1="568" x2="811" y1="610.5" y2="610.5"/><text fill="#000000" font-family="sans-serif" font-size="14" lengthAdjust="spacing" textLength="59" x="573" y="629.4659">int type()</text><text fill="#000000" font-family="sans-serif" font-size="14" lengthAdjust="spacing" textLength="85" x="573" y="648.5339">bool isValid()</text><text fill="#000000" font-family="sans-serif" font-size="14" lengthAdjust="spacing" textLength="144" x="573" y="667.6018">QByteArray serialize()</text><text fill="#000000" font-family="sans-serif" font-size="14" lengthAdjust="spacing" textLength="233" x="573" y="686.6697">void deserialize(QByteArray &amp;data)</text></g><!--class RemoteProcedureData--><g id="elem_RemoteProcedureData"><rect codeLine="86" fill="#F1F1F1" height="143.3396" id="RemoteProcedureData" rx="2.5" ry="2.5" style="stroke:#181818;stroke-width:0.5;" width="245" x="847" y="561"/><ellipse cx="889.9" cy="577" fill="#ADD1B2" rx="11" ry="11" style="stroke:#181818;stroke-width:1.0;"/><path d="M890.0094,572.5313 Q889.0875,572.5313 888.3531,572.8438 Q887.6344,573.1563 887.1344,573.75 Q886.6344,574.3281 886.3531,575.2031 Q886.0875,576.0781 886.0875,577.1719 Q886.0875,578.6094 886.525,579.6563 Q886.9781,580.7031 887.8219,581.25 Q888.6813,581.7969 889.9938,581.7969 Q890.775,581.7969 891.4625,581.6719 Q892.1656,581.5313 893.1656,581.2188 L893.1656,583.0938 Q892.3063,583.4219 891.5406,583.5469 Q890.7906,583.6719 889.775,583.6719 Q887.8531,583.6719 886.5406,582.875 Q885.2438,582.0625 884.5875,580.5938 Q883.9313,579.1094 883.9313,577.1406 Q883.9313,575.7188 884.3219,574.5469 Q884.7281,573.3594 885.5094,572.4844 Q886.2906,571.6094 887.4313,571.1406 Q888.5719,570.6563 890.0406,570.6563 Q890.9938,570.6563 891.8844,570.8594 Q892.7906,571.0469 893.7281,571.5156 L892.9,573.2969 Q892.1188,572.9219 891.4625,572.7344 Q890.8063,572.5313 890.0094,572.5313 Z " fill="#000000"/><text fill="#000000" font-family="sans-serif" font-size="14" lengthAdjust="spacing" textLength="151" x="910.1" y="582.432">RemoteProcedureData</text><line style="stroke:#181818;stroke-width:0.5;" x1="848" x2="1091" y1="593" y2="593"/><text fill="#000000" font-family="sans-serif" font-size="14" lengthAdjust="spacing" textLength="148" x="853" y="611.9659">Command command()</text><line style="stroke:#181818;stroke-width:0.5;" x1="848" x2="1091" y1="620.0679" y2="620.0679"/><text fill="#000000" font-family="sans-serif" font-size="14" lengthAdjust="spacing" textLength="59" x="853" y="639.0339">int type()</text><text fill="#000000" font-family="sans-serif" font-size="14" lengthAdjust="spacing" textLength="85" x="853" y="658.1018">bool isValid()</text><text fill="#000000" font-family="sans-serif" font-size="14" lengthAdjust="spacing" textLength="144" x="853" y="677.1697">QByteArray serialize()</text><text fill="#000000" font-family="sans-serif" font-size="14" lengthAdjust="spacing" textLength="233" x="853" y="696.2376">void deserialize(QByteArray &amp;data)</text></g><g id="elem_GMN23"><path d="M826.5,765 L826.5,898.9421 A0,0 0 0 0 826.5,898.9421 L1094.5,898.9421 A0,0 0 0 0 1094.5,898.9421 L1094.5,775 L1084.5,765 L967.52,765 L966.28,704.24 L959.52,765 L826.5,765 A0,0 0 0 0 826.5,765 " fill="#FEFFDD" style="stroke:#181818;stroke-width:0.5;"/><path d="M1084.5,765 L1084.5,775 L1094.5,775 L1084.5,765 " fill="#FEFFDD" style="stroke:#181818;stroke-width:0.5;"/><text fill="#000000" font-family="sans-serif" font-size="13" lengthAdjust="spacing" textLength="247" x="832.5" y="783.897">enum RemoteProcedureData::Command:</text><ellipse cx="838" cy="797.912" fill="#000000" rx="2.5" ry="2.5" style="stroke:#000000;stroke-width:0.0;"/><text fill="#000000" font-family="sans-serif" font-size="13" lengthAdjust="spacing" textLength="101" x="844.5" y="801.603">RPCMD_INVALID</text><ellipse cx="838" cy="815.618" fill="#000000" rx="2.5" ry="2.5" style="stroke:#000000;stroke-width:0.0;"/><text fill="#000000" font-family="sans-serif" font-size="13" lengthAdjust="spacing" textLength="81" x="844.5" y="819.309">RPCMD_CALL</text><ellipse cx="838" cy="833.3241" fill="#000000" rx="2.5" ry="2.5" style="stroke:#000000;stroke-width:0.0;"/><text fill="#000000" font-family="sans-serif" font-size="13" lengthAdjust="spacing" textLength="108" x="844.5" y="837.0151">RPCMD_REGISTER</text><ellipse cx="838" cy="851.0301" fill="#000000" rx="2.5" ry="2.5" style="stroke:#000000;stroke-width:0.0;"/><text fill="#000000" font-family="sans-serif" font-size="13" lengthAdjust="spacing" textLength="97" x="844.5" y="854.7211">RPCMD_RESULT</text><ellipse cx="838" cy="868.7361" fill="#000000" rx="2.5" ry="2.5" style="stroke:#000000;stroke-width:0.0;"/><text fill="#000000" font-family="sans-serif" font-size="13" lengthAdjust="spacing" textLength="115" x="844.5" y="872.4271">RPCMD_PROGRESS</text><ellipse cx="838" cy="886.4421" fill="#000000" rx="2.5" ry="2.5" style="stroke:#000000;stroke-width:0.0;"/><text fill="#000000" font-family="sans-serif" font-size="13" lengthAdjust="spacing" textLength="145" x="844.5" y="890.1331">RPCMD_CANCELLATION</text></g><!--class ErrorData--><g id="elem_ErrorData"><rect codeLine="104" fill="#F1F1F1" height="143.3396" id="ErrorData" rx="2.5" ry="2.5" style="stroke:#181818;stroke-width:0.5;" width="193" x="1145" y="561"/><ellipse cx="1204.75" cy="577" fill="#ADD1B2" rx="11" ry="11" style="stroke:#181818;stroke-width:1.0;"/><path d="M1204.8594,572.5313 Q1203.9375,572.5313 1203.2031,572.8438 Q1202.4844,573.1563 1201.9844,573.75 Q1201.4844,574.3281 1201.2031,575.2031 Q1200.9375,576.0781 1200.9375,577.1719 Q1200.9375,578.6094 1201.375,579.6563 Q1201.8281,580.7031 1202.6719,581.25 Q1203.5313,581.7969 1204.8438,581.7969 Q1205.625,581.7969 1206.3125,581.6719 Q1207.0156,581.5313 1208.0156,581.2188 L1208.0156,583.0938 Q1207.1563,583.4219 1206.3906,583.5469 Q1205.6406,583.6719 1204.625,583.6719 Q1202.7031,583.6719 1201.3906,582.875 Q1200.0938,582.0625 1199.4375,580.5938 Q1198.7813,579.1094 1198.7813,577.1406 Q1198.7813,575.7188 1199.1719,574.5469 Q1199.5781,573.3594 1200.3594,572.4844 Q1201.1406,571.6094 1202.2813,571.1406 Q1203.4219,570.6563 1204.8906,570.6563 Q1205.8438,570.6563 1206.7344,570.8594 Q1207.6406,571.0469 1208.5781,571.5156 L1207.75,573.2969 Q1206.9688,572.9219 1206.3125,572.7344 Q1205.6563,572.5313 1204.8594,572.5313 Z " fill="#000000"/><text fill="#000000" font-family="sans-serif" font-size="14" lengthAdjust="spacing" textLength="65" x="1225.25" y="582.432">ErrorData</text><line style="stroke:#181818;stroke-width:0.5;" x1="1146" x2="1337" y1="593" y2="593"/><line style="stroke:#181818;stroke-width:0.5;" x1="1146" x2="1337" y1="601" y2="601"/><text fill="#000000" font-family="sans-serif" font-size="14" lengthAdjust="spacing" textLength="59" x="1151" y="619.9659">int type()</text><text fill="#000000" font-family="sans-serif" font-size="14" lengthAdjust="spacing" textLength="85" x="1151" y="639.0339">bool isValid()</text><text fill="#000000" font-family="sans-serif" font-size="14" lengthAdjust="spacing" textLength="175" x="1151" y="658.1018">QString errorDescription()</text><text fill="#000000" font-family="sans-serif" font-size="14" lengthAdjust="spacing" textLength="145" x="1151" y="677.1697">int originalDataType()</text><text fill="#000000" font-family="sans-serif" font-size="14" lengthAdjust="spacing" textLength="181" x="1151" y="696.2376">QByteArray &amp;originalData()</text></g><g id="elem_GMN27"><path d="M1130,774 L1130,890.2361 A0,0 0 0 0 1130,890.2361 L1371,890.2361 A0,0 0 0 0 1371,890.2361 L1371,784 L1361,774 L1251.89,774 L1244.72,704.24 L1243.89,774 L1130,774 A0,0 0 0 0 1130,774 " fill="#FEFFDD" style="stroke:#181818;stroke-width:0.5;"/><path d="M1361,774 L1361,784 L1371,784 L1361,774 " fill="#FEFFDD" style="stroke:#181818;stroke-width:0.5;"/><text fill="#000000" font-family="sans-serif" font-size="13" lengthAdjust="spacing" textLength="220" x="1136" y="792.897">ErrorData wraps arbitrary EventData.</text><text fill="#000000" font-family="sans-serif" font-size="13" lengthAdjust="spacing" textLength="178" x="1136" y="810.603">Wrapped data is extracted by:</text><ellipse cx="1141.5" cy="824.618" fill="#000000" rx="2.5" ry="2.5" style="stroke:#000000;stroke-width:0.0;"/><text fill="#000000" font-family="sans-serif" font-size="13" lengthAdjust="spacing" textLength="197" x="1148" y="828.309">create concrete EventData object</text><text fill="#000000" font-family="sans-serif" font-size="13" lengthAdjust="spacing" textLength="170" x="1148" y="846.0151">matching originalDataType()</text><ellipse cx="1141.5" cy="860.0301" fill="#000000" rx="2.5" ry="2.5" style="stroke:#000000;stroke-width:0.0;"/><text fill="#000000" font-family="sans-serif" font-size="13" lengthAdjust="spacing" textLength="173" x="1148" y="863.7211">call deserialize(originalData())</text><text fill="#000000" font-family="sans-serif" font-size="13" lengthAdjust="spacing" textLength="114" x="1148" y="881.4271">on concrete object.</text></g><!--link NetworkStatusEvent to ProtocolEvent--><!--link ProtocolEvent to CommandEvent--><!--reverse link QEvent to NetworkStatusEvent--><g id="link_QEvent_NetworkStatusEvent"><path codeLine="120" d="M404.4123,124.1147 C374.2423,150.0147 352.32,168.85 325.92,191.51 " fill="none" id="QEvent-backto-NetworkStatusEvent" style="stroke:#181818;stroke-width:1.0;"/><polygon fill="none" points="418.07,112.39,400.5041,119.5621,408.3206,128.6672,418.07,112.39" style="stroke:#181818;stroke-width:1.0;"/></g><!--reverse link QEvent to ProtocolEvent--><g id="link_QEvent_ProtocolEvent"><path codeLine="121" d="M478.5,130.39 C478.5,156.29 478.5,168.85 478.5,191.51 " fill="none" id="QEvent-backto-ProtocolEvent" style="stroke:#181818;stroke-width:1.0;"/><polygon fill="none" points="478.5,112.39,472.5,130.39,484.5,130.39,478.5,112.39" style="stroke:#181818;stroke-width:1.0;"/></g><!--reverse link QEvent to CommandEvent--><g id="link_QEvent_CommandEvent"><path codeLine="122" d="M559.4711,123.4374 C584.2211,142.6774 598.07,153.43 622.81,172.67 " fill="none" id="QEvent-backto-CommandEvent" style="stroke:#181818;stroke-width:1.0;"/><polygon fill="none" points="545.26,112.39,555.7887,128.1744,563.1536,118.7003,545.26,112.39" style="stroke:#181818;stroke-width:1.0;"/></g><!--reverse link CommandEvent to EventData--><g id="link_CommandEvent_EventData"><path codeLine="124" d="M689.5,290.26 C689.5,314.11 689.5,330.78 689.5,356.6 " fill="none" id="CommandEvent-backto-EventData" style="stroke:#181818;stroke-width:1.0;"/><polygon fill="#181818" points="689.5,278.26,685.5,284.26,689.5,290.26,693.5,284.26,689.5,278.26" style="stroke:#181818;stroke-width:1.0;"/><polygon fill="#000000" points="694.5,322.853,697.4389,313.8079,691.5611,313.8079,694.5,322.853" style="stroke:#000000;stroke-width:1.0;"/><text fill="#000000" font-family="sans-serif" font-size="13" lengthAdjust="spacing" textLength="32" x="703.5" y="322.897">owns</text><text fill="#000000" font-family="sans-serif" font-size="13" lengthAdjust="spacing" textLength="7" x="682.1391" y="345.2247">1</text></g><!--reverse link EventData to EntityData--><g id="link_EventData_EntityData"><path codeLine="126" d="M555.862,465.2622 C470.542,489.2522 369.88,520.33 269.5,561 C263.83,563.3 258.07,565.74 252.28,568.28 " fill="none" id="EventData-backto-EntityData" style="stroke:#181818;stroke-width:1.0;"/><polygon fill="none" points="573.19,460.39,554.2379,459.4862,557.486,471.0383,573.19,460.39" style="stroke:#181818;stroke-width:1.0;"/></g><!--reverse link EventData to ComponentData--><g id="link_EventData_ComponentData"><path codeLine="127" d="M576.5828,510.9619 C549.4728,530.5219 534.68,541.19 507.59,560.74 " fill="none" id="EventData-backto-ComponentData" style="stroke:#181818;stroke-width:1.0;"/><polygon fill="none" points="591.18,500.43,573.0722,506.0962,580.0935,515.8277,591.18,500.43" style="stroke:#181818;stroke-width:1.0;"/></g><!--reverse link EventData to IntrospectionData--><g id="link_EventData_IntrospectionData"><path codeLine="128" d="M689.5,518.43 C689.5,541.17 689.5,548.14 689.5,570.13 " fill="none" id="EventData-backto-IntrospectionData" style="stroke:#181818;stroke-width:1.0;"/><polygon fill="none" points="689.5,500.43,683.5,518.43,695.5,518.43,689.5,500.43" style="stroke:#181818;stroke-width:1.0;"/></g><!--reverse link EventData to RemoteProcedureData--><g id="link_EventData_RemoteProcedureData"><path codeLine="129" d="M802.4172,510.9619 C829.5272,530.5219 844.32,541.19 871.41,560.74 " fill="none" id="EventData-backto-RemoteProcedureData" style="stroke:#181818;stroke-width:1.0;"/><polygon fill="none" points="787.82,500.43,798.9065,515.8277,805.9278,506.0962,787.82,500.43" style="stroke:#181818;stroke-width:1.0;"/></g><!--reverse link EventData to ErrorData--><g id="link_EventData_ErrorData"><path codeLine="130" d="M823.0096,464.345 C908.5096,487.975 1009.44,519.05 1109.5,561 C1121.12,565.87 1133.08,571.43 1144.82,577.23 " fill="none" id="EventData-backto-ErrorData" style="stroke:#181818;stroke-width:1.0;"/><polygon fill="none" points="805.66,459.55,821.4113,470.1282,824.6079,458.5618,805.66,459.55" style="stroke:#181818;stroke-width:1.0;"/></g><!--SRC=[pLRTRvim47_dhx3wi2RHKgclQAj42UsGqgG5sZrCqsJWadW5Z8n9nxh-xxCD6UPZKpDfql90y7tVxmxVHGak2dJdx27ZwDb0uhUd94OuYY3dawcY15KEY8j7StukEEOaUa54A37Oae83KoQav4HIT_Bn7itFfyQBaL4EY97jZYEwQPoPva1HsNPmj4EWmebKRBKld2GLaizYnE7qh0wJ8X8B6jbKZGKPyrkqnqa91TfGrYI1S1OhZItmEyqCmWnGHDDS_CTd1cGnag4RHXt92lWJPO- -2AWiTCGwUFHiYlGRzLj6EOreShocJTDKXFngHOMZFFjbA3EkqMWEEd-1EKOpEBnEXiNINPkcRaTPWQnCUpAwOrC9pT1g7RXNhcq5xdfb8Yj96dhWMIlVicjoKOP5n4W8CR8J8bETNo0Vs1wOLefJMSS8K88hMd9Zf2RpJpiIYpxuVD65tEWMG1FJ4p0C71QSuUZGVorGDVAd27CkmYmvp1Fo22W5lgDrFprl22HnNHJPYBnouyCtSp1RS_MlgUM4b2Q850yu8IDwTvSL1uinNA426152tqTigCytXbP2KtiJYpoqnd9KZ4Scrw1LDrLpQCBePJQIpXzoU5NWgZj3oZbDsmPiqp3D9g13vpdspUABktgmbkv29rcBpj5pRjOFZaxnxozzstClEyJxLKlktmx2SKwputlb_uEpaya0KNk8gDr5r1uWgYY-4-Z7AoUmFmnGT3FEQ953n0dDD2J_FHHD01wa8XnnLKGGbmp-ifZH_r37aLG6rVHkX-MiQRQrN7O8ddFj-e7ZzOZ-_JBea6wzzRKW-prhAzjPBjK461JTOOoouuhjYqfaMmHA4-JSo6N7Q81JCSD8XXDfLvkBEdgwo6GCnZQm9uRpGkm78H7NBAlQgL2l7Xy5EnU3IzP3X8hWcxgD1IMi3b17332N-qKctiHBErXe-5Kql1AJlnJpQ2Up-qqACxK8TNgYcydqbocQjVvgB_fQqwnzxtxCvoFBJOVTdQGwfpiyEwlAJB1Fpa-qJ4r4dx82NHX6IrDMsYkyp-dSHdtcuBhe2uny0mFNXo8RFm40]--></g></svg>