<?xml version="1.0" encoding="us-ascii" standalone="no"?><svg xmlns="http://www.w3.org/2000/svg" xmlns:xlink="http://www.w3.org/1999/xlink" contentStyleType="text/css" height="905px" preserveAspectRatio="none" style="width:1378px;height:905px;background:#FFFFFF;" version="1.1" viewBox="0 0 1378 905" width="1378px" zoomAndPan="magnify"><defs/><g><!--class QEvent--><g id="elem_QEvent"><rect codeLine="2" fill="#F1F1F1" height="105.2038" id="QEvent" rx="2.5" ry="2.5" style="stroke:#181818;stroke-width:0.5;" width="242" x="362.5" y="7"/><ellipse cx="455.25" cy="23" fill="#ADD1B2" rx="11" ry="11" style="stroke:#181818;stroke-width:1.0;"/><path d="M455.3594,18.5313 Q454.4375,18.5313 453.7031,18.8438 Q452.9844,19.1563 452.4844,19.75 Q451.9844,20.3281 451.7031,21.2031 Q451.4375,22.0781 451.4375,23.1719 Q451.4375,24.6094 451.875,25.6563 Q452.3281,26.7031 453.1719,27.25 Q454.0313,27.7969 455.3438,27.7969 Q456.125,27.7969 456.8125,27.6719 Q457.5156,27.5313 458.5156,27.2188 L458.5156,29.0938 Q457.6563,29.4219 456.8906,29.5469 Q456.1406,29.6719 455.125,29.6719 Q453.2031,29.6719 451.8906,28.875 Q450.5938,28.0625 449.9375,26.5938 Q449.2813,25.1094 449.2813,23.1406 Q449.2813,21.7188 449.6719,20.5469 Q450.0781,19.3594 450.8594,18.4844 Q451.6406,17.6094 452.7813,17.1406 Q453.9219,16.6563 455.3906,16.6563 Q456.3438,16.6563 457.2344,16.8594 Q458.1406,17.0469 459.0781,17.5156 L458.25,19.2969 Q457.4688,18.9219 456.8125,18.7344 Q456.1563,18.5313 455.3594,18.5313 Z " fill="#000000"/><text fill="#000000" font-family="sans-serif" font-size="14" lengthAdjust="spacing" textLength="48" x="475.75" y="28.432">QEvent</text><line style="stroke:#181818;stroke-width:0.5;" x1="363.5" x2="603.5" y1="39" y2="39"/><line style="stroke:#181818;stroke-width:0.5;" x1="363.5" x2="603.5" y1="47" y2="47"/><text fill="#000000" font-family="sans-serif" font-size="14" lengthAdjust="spacing" textLength="84" x="368.5" y="65.9659">void accept()</text><text fill="#000000" font-family="sans-serif" font-size="14" lengthAdjust="spacing" textLength="73" x="368.5" y="85.0339">Type type()</text><text fill="#000000" font-family="sans-serif" font-size="14" lengthAdjust="spacing" text-decoration="underline" textLength="230" x="368.5" y="104.1018">int registerEventType(int hint = -1)</text></g><path d="M640,14 L640,50.412 L598.5,98.6698 L640,58.412 L640,94.8241 A0,0 0 0 0 640,94.8241 L963,94.8241 A0,0 0 0 0 963,94.8241 L963,24 L953,14 L640,14 A0,0 0 0 0 640,14 " fill="#FEFFDD" style="stroke:#181818;stroke-width:0.5;"/><path d="M953,14 L953,24 L963,24 L953,14 " fill="#FEFFDD" style="stroke:#181818;stroke-width:0.5;"/><text fill="#000000" font-family="sans-serif" font-size="13" lengthAdjust="spacing" textLength="302" x="646" y="32.897">Each event class statically calls registerEventType().</text><text fill="#000000" font-family="sans-serif" font-size="13" lengthAdjust="spacing" textLength="258" x="646" y="50.603">To identify event type, values for type() and</text><text fill="#000000" font-family="sans-serif" font-size="13" lengthAdjust="spacing" textLength="298" x="646" y="68.309">getEventType() / eventType() (TODO same names)</text><text fill="#000000" font-family="sans-serif" font-size="13" lengthAdjust="spacing" textLength="86" x="646" y="86.0151">are compared.</text><!--class NetworkStatusEvent--><g id="elem_NetworkStatusEvent"><rect codeLine="14" fill="#F1F1F1" height="67.0679" id="NetworkStatusEvent" rx="2.5" ry="2.5" style="stroke:#181818;stroke-width:0.5;" width="167" x="215" y="192"/><ellipse cx="230" cy="208" fill="#ADD1B2" rx="11" ry="11" style="stroke:#181818;stroke-width:1.0;"/><path d="M230.1094,203.5313 Q229.1875,203.5313 228.4531,203.8438 Q227.7344,204.1563 227.2344,204.75 Q226.7344,205.3281 226.4531,206.2031 Q226.1875,207.0781 226.1875,208.1719 Q226.1875,209.6094 226.625,210.6563 Q227.0781,211.7031 227.9219,212.25 Q228.7813,212.7969 230.0938,212.7969 Q230.875,212.7969 231.5625,212.6719 Q232.2656,212.5313 233.2656,212.2188 L233.2656,214.0938 Q232.4063,214.4219 231.6406,214.5469 Q230.8906,214.6719 229.875,214.6719 Q227.9531,214.6719 226.6406,213.875 Q225.3438,213.0625 224.6875,211.5938 Q224.0313,210.1094 224.0313,208.1406 Q224.0313,206.7188 224.4219,205.5469 Q224.8281,204.3594 225.6094,203.4844 Q226.3906,202.6094 227.5313,202.1406 Q228.6719,201.6563 230.1406,201.6563 Q231.0938,201.6563 231.9844,201.8594 Q232.8906,202.0469 233.8281,202.5156 L233,204.2969 Q232.2188,203.9219 231.5625,203.7344 Q230.9063,203.5313 230.1094,203.5313 Z " fill="#000000"/><text fill="#000000" font-family="sans-serif" font-size="14" lengthAdjust="spacing" textLength="135" x="244" y="213.432">NetworkStatusEvent</text><line style="stroke:#181818;stroke-width:0.5;" x1="216" x2="381" y1="224" y2="224"/><line style="stroke:#181818;stroke-width:0.5;" x1="216" x2="381" y1="232" y2="232"/><text fill="#000000" font-family="sans-serif" font-size="14" lengthAdjust="spacing" text-decoration="underline" textLength="121" x="221" y="250.9659">int getEventType()</text></g><!--class ProtocolEvent--><g id="elem_ProtocolEvent"><rect codeLine="18" fill="#F1F1F1" height="67.0679" id="ProtocolEvent" rx="2.5" ry="2.5" style="stroke:#181818;stroke-width:0.5;" width="133" x="417" y="192"/><ellipse cx="436.5" cy="208" fill="#ADD1B2" rx="11" ry="11" style="stroke:#181818;stroke-width:1.0;"/><path d="M436.6094,203.5313 Q435.6875,203.5313 434.9531,203.8438 Q434.2344,204.1563 433.7344,204.75 Q433.2344,205.3281 432.9531,206.2031 Q432.6875,207.0781 432.6875,208.1719 Q432.6875,209.6094 433.125,210.6563 Q433.5781,211.7031 434.4219,212.25 Q435.2813,212.7969 436.5938,212.7969 Q437.375,212.7969 438.0625,212.6719 Q438.7656,212.5313 439.7656,212.2188 L439.7656,214.0938 Q438.9063,214.4219 438.1406,214.5469 Q437.3906,214.6719 436.375,214.6719 Q434.4531,214.6719 433.1406,213.875 Q431.8438,213.0625 431.1875,211.5938 Q430.5313,210.1094 430.5313,208.1406 Q430.5313,206.7188 430.9219,205.5469 Q431.3281,204.3594 432.1094,203.4844 Q432.8906,202.6094 434.0313,202.1406 Q435.1719,201.6563 436.6406,201.6563 Q437.5938,201.6563 438.4844,201.8594 Q439.3906,202.0469 440.3281,202.5156 L439.5,204.2969 Q438.7188,203.9219 438.0625,203.7344 Q437.4063,203.5313 436.6094,203.5313 Z " fill="#000000"/><text fill="#000000" font-family="sans-serif" font-size="14" lengthAdjust="spacing" textLength="91" x="451.5" y="213.432">ProtocolEvent</text><line style="stroke:#181818;stroke-width:0.5;" x1="418" x2="549" y1="224" y2="224"/><line style="stroke:#181818;stroke-width:0.5;" x1="418" x2="549" y1="232" y2="232"/><text fill="#000000" font-family="sans-serif" font-size="14" lengthAdjust="spacing" text-decoration="underline" textLength="121" x="423" y="250.9659">int getEventType()</text></g><!--class CommandEvent--><g id="elem_CommandEvent"><rect codeLine="22" fill="#F1F1F1" height="105.2038" id="CommandEvent" rx="2.5" ry="2.5" style="stroke:#181818;stroke-width:0.5;" width="208" x="585.5" y="173"/><ellipse cx="632.25" cy="189" fill="#ADD1B2" rx="11" ry="11" style="stroke:#181818;stroke-width:1.0;"/><path d="M632.3594,184.5313 Q631.4375,184.5313 630.7031,184.8438 Q629.9844,185.1563 629.4844,185.75 Q628.9844,186.3281 628.7031,187.2031 Q628.4375,188.0781 628.4375,189.1719 Q628.4375,190.6094 628.875,191.6563 Q629.3281,192.7031 630.1719,193.25 Q631.0313,193.7969 632.3438,193.7969 Q633.125,193.7969 633.8125,193.6719 Q634.5156,193.5313 635.5156,193.2188 L635.5156,195.0938 Q634.6563,195.4219 633.8906,195.5469 Q633.1406,195.6719 632.125,195.6719 Q630.2031,195.6719 628.8906,194.875 Q627.5938,194.0625 626.9375,192.5938 Q626.2813,191.1094 626.2813,189.1406 Q626.2813,187.7188 626.6719,186.5469 Q627.0781,185.3594 627.8594,184.4844 Q628.6406,183.6094 629.7813,183.1406 Q630.9219,182.6563 632.3906,182.6563 Q633.3438,182.6563 634.2344,182.8594 Q635.1406,183.0469 636.0781,183.5156 L635.25,185.2969 Q634.4688,184.9219 633.8125,184.7344 Q633.1563,184.5313 632.3594,184.5313 Z " fill="#000000"/><text fill="#000000" font-family="sans-serif" font-size="14" lengthAdjust="spacing" textLength="106" x="652.75" y="194.432">CommandEvent</text><line style="stroke:#181818;stroke-width:0.5;" x1="586.5" x2="792.5" y1="205" y2="205"/><line style="stroke:#181818;stroke-width:0.5;" x1="586.5" x2="792.5" y1="213" y2="213"/><text fill="#000000" font-family="sans-serif" font-size="14" lengthAdjust="spacing" text-decoration="underline" textLength="99" x="591.5" y="231.9659">int eventType()</text><text fill="#000000" font-family="sans-serif" font-size="14" lengthAdjust="spacing" textLength="196" x="591.5" y="251.0339">EventSubtype eventSubtype()</text><text fill="#000000" font-family="sans-serif" font-size="14" lengthAdjust="spacing" textLength="156" x="591.5" y="270.1018">EventData *eventData()</text></g><path d="M829,189 L829,216.559 L787.5,245.6019 L829,224.559 L829,252.118 A0,0 0 0 0 829,252.118 L1112,252.118 A0,0 0 0 0 1112,252.118 L1112,199 L1102,189 L829,189 A0,0 0 0 0 829,189 " fill="#FEFFDD" style="stroke:#181818;stroke-width:0.5;"/><path d="M1102,189 L1102,199 L1112,199 L1102,189 " fill="#FEFFDD" style="stroke:#181818;stroke-width:0.5;"/><text fill="#000000" font-family="sans-serif" font-size="13" lengthAdjust="spacing" textLength="228" x="835" y="207.897">enum CommandEvent::EventSubtype:</text><ellipse cx="840.5" cy="221.912" fill="#000000" rx="2.5" ry="2.5" style="stroke:#000000;stroke-width:0.0;"/><text fill="#000000" font-family="sans-serif" font-size="13" lengthAdjust="spacing" textLength="109" x="847" y="225.603">NOTIFICATION: All</text><ellipse cx="840.5" cy="239.618" fill="#000000" rx="2.5" ry="2.5" style="stroke:#000000;stroke-width:0.0;"/><text fill="#000000" font-family="sans-serif" font-size="13" lengthAdjust="spacing" textLength="250" x="847" y="243.309">TRANSACTION: subscribed Client -&gt; Server</text><!--class EventData--><g id="elem_EventData"><rect codeLine="37" fill="#F1F1F1" height="143.3396" id="EventData" rx="2.5" ry="2.5" style="stroke:#181818;stroke-width:0.5;" width="232" x="573.5" y="357"/><ellipse cx="653.25" cy="373" fill="#A9DCDF" rx="11" ry="11" style="stroke:#181818;stroke-width:1.0;"/><path d="M656.5938,378.25 L655.125,374.5 L650.6875,374.5 L649.25,378.25 L647.125,378.25 L652.0781,365.5313 L653.8281,365.5313 L658.75,378.25 L656.5938,378.25 Z M653.25,369.2969 Q653.2031,369.1406 653.0781,368.7813 Q652.9531,368.4219 652.8438,368.0469 Q652.7344,367.6563 652.9375,367.5938 Q653.0938,367.7813 653,368.1406 Q652.9063,368.4844 652.8125,368.7813 Q652.7188,369.0625 652.6406,369.2969 L651.4063,372.6094 L654.4844,372.6094 L653.25,369.2969 Z " fill="#000000"/><text fill="#000000" font-family="sans-serif" font-size="14" font-style="italic" lengthAdjust="spacing" textLength="64" x="673.75" y="378.432">EventData</text><line style="stroke:#181818;stroke-width:0.5;" x1="574.5" x2="804.5" y1="389" y2="389"/><text fill="#000000" font-family="sans-serif" font-size="14" lengthAdjust="spacing" textLength="82" x="579.5" y="407.9659">int entityId()</text><line style="stroke:#181818;stroke-width:0.5;" x1="574.5" x2="804.5" y1="416.0679" y2="416.0679"/><text fill="#000000" font-family="sans-serif" font-size="14" font-style="italic" lengthAdjust="spacing" textLength="56" x="579.5" y="435.0339">int type()</text><text fill="#000000" font-family="sans-serif" font-size="14" font-style="italic" lengthAdjust="spacing" textLength="82" x="579.5" y="454.1018">bool isValid()</text><text fill="#000000" font-family="sans-serif" font-size="14" font-style="italic" lengthAdjust="spacing" textLength="136" x="579.5" y="473.1697">QByteArray serialize()</text><text fill="#000000" font-family="sans-serif" font-size="14" font-style="italic" lengthAdjust="spacing" textLength="220" x="579.5" y="492.2376">void deserialize(QByteArray &amp;data)</text></g><!--class EntityData--><g id="elem_EntityData"><rect codeLine="46" fill="#F1F1F1" height="143.3396" id="EntityData" rx="2.5" ry="2.5" style="stroke:#181818;stroke-width:0.5;" width="245" x="7" y="561"/><ellipse cx="90.75" cy="577" fill="#ADD1B2" rx="11" ry="11" style="stroke:#181818;stroke-width:1.0;"/><path d="M90.8594,572.5313 Q89.9375,572.5313 89.2031,572.8438 Q88.4844,573.1563 87.9844,573.75 Q87.4844,574.3281 87.2031,575.2031 Q86.9375,576.0781 86.9375,577.1719 Q86.9375,578.6094 87.375,579.6563 Q87.8281,580.7031 88.6719,581.25 Q89.5313,581.7969 90.8438,581.7969 Q91.625,581.7969 92.3125,581.6719 Q93.0156,581.5313 94.0156,581.2188 L94.0156,583.0938 Q93.1563,583.4219 92.3906,583.5469 Q91.6406,583.6719 90.625,583.6719 Q88.7031,583.6719 87.3906,582.875 Q86.0938,582.0625 85.4375,580.5938 Q84.7813,579.1094 84.7813,577.1406 Q84.7813,575.7188 85.1719,574.5469 Q85.5781,573.3594 86.3594,572.4844 Q87.1406,571.6094 88.2813,571.1406 Q89.4219,570.6563 90.8906,570.6563 Q91.8438,570.6563 92.7344,570.8594 Q93.6406,571.0469 94.5781,571.5156 L93.75,573.2969 Q92.9688,572.9219 92.3125,572.7344 Q91.6563,572.5313 90.8594,572.5313 Z " fill="#000000"/><text fill="#000000" font-family="sans-serif" font-size="14" lengthAdjust="spacing" textLength="69" x="111.25" y="582.432">EntityData</text><line style="stroke:#181818;stroke-width:0.5;" x1="8" x2="251" y1="593" y2="593"/><text fill="#000000" font-family="sans-serif" font-size="14" lengthAdjust="spacing" textLength="187" x="13" y="611.9659">Command eventCommand()</text><line style="stroke:#181818;stroke-width:0.5;" x1="8" x2="251" y1="620.0679" y2="620.0679"/><text fill="#000000" font-family="sans-serif" font-size="14" lengthAdjust="spacing" textLength="59" x="13" y="639.0339">int type()</text><text fill="#000000" font-family="sans-serif" font-size="14" lengthAdjust="spacing" textLength="85" x="13" y="658.1018">bool isValid()</text><text fill="#000000" font-family="sans-serif" font-size="14" lengthAdjust="spacing" textLength="144" x="13" y="677.1697">QByteArray serialize()</text><text fill="#000000" font-family="sans-serif" font-size="14" lengthAdjust="spacing" textLength="233" x="13" y="696.2376">void deserialize(QByteArray &amp;data)</text></g><g id="elem_GMN14"><path d="M32.5,774 L32.5,890.2361 A0,0 0 0 0 32.5,890.2361 L226.5,890.2361 A0,0 0 0 0 226.5,890.2361 L226.5,784 L216.5,774 L133.5,774 L129.5,704.24 L125.5,774 L32.5,774 A0,0 0 0 0 32.5,774 " fill="#FEFFDD" style="stroke:#181818;stroke-width:0.5;"/><path d="M216.5,774 L216.5,784 L226.5,784 L216.5,774 " fill="#FEFFDD" style="stroke:#181818;stroke-width:0.5;"/><text fill="#000000" font-family="sans-serif" font-size="13" lengthAdjust="spacing" textLength="173" x="38.5" y="792.897">enum EntityData::Command:</text><ellipse cx="44" cy="806.912" fill="#000000" rx="2.5" ry="2.5" style="stroke:#000000;stroke-width:0.0;"/><text fill="#000000" font-family="sans-serif" font-size="13" lengthAdjust="spacing" textLength="92" x="50.5" y="810.603">ECMD_INVALID</text><ellipse cx="44" cy="824.618" fill="#000000" rx="2.5" ry="2.5" style="stroke:#000000;stroke-width:0.0;"/><text fill="#000000" font-family="sans-serif" font-size="13" lengthAdjust="spacing" textLength="68" x="50.5" y="828.309">ECMD_ADD</text><ellipse cx="44" cy="842.3241" fill="#000000" rx="2.5" ry="2.5" style="stroke:#000000;stroke-width:0.0;"/><text fill="#000000" font-family="sans-serif" font-size="13" lengthAdjust="spacing" textLength="94" x="50.5" y="846.0151">ECMD_REMOVE</text><ellipse cx="44" cy="860.0301" fill="#000000" rx="2.5" ry="2.5" style="stroke:#000000;stroke-width:0.0;"/><text fill="#000000" font-family="sans-serif" font-size="13" lengthAdjust="spacing" textLength="109" x="50.5" y="863.7211">ECMD_SUBSCRIBE</text><ellipse cx="44" cy="877.7361" fill="#000000" rx="2.5" ry="2.5" style="stroke:#000000;stroke-width:0.0;"/><text fill="#000000" font-family="sans-serif" font-size="13" lengthAdjust="spacing" textLength="129" x="50.5" y="881.4271">ECMD_UNSUBSCRIBE</text></g><!--class ComponentData--><g id="elem_ComponentData"><rect codeLine="63" fill="#F1F1F1" height="143.3396" id="ComponentData" rx="2.5" ry="2.5" style="stroke:#181818;stroke-width:0.5;" width="245" x="287" y="561"/><ellipse cx="350.75" cy="577" fill="#ADD1B2" rx="11" ry="11" style="stroke:#181818;stroke-width:1.0;"/><path d="M350.8594,572.5313 Q349.9375,572.5313 349.2031,572.8438 Q348.4844,573.1563 347.9844,573.75 Q347.4844,574.3281 347.2031,575.2031 Q346.9375,576.0781 346.9375,577.1719 Q346.9375,578.6094 347.375,579.6563 Q347.8281,580.7031 348.6719,581.25 Q349.5313,581.7969 350.8438,581.7969 Q351.625,581.7969 352.3125,581.6719 Q353.0156,581.5313 354.0156,581.2188 L354.0156,583.0938 Q353.1563,583.4219 352.3906,583.5469 Q351.6406,583.6719 350.625,583.6719 Q348.7031,583.6719 347.3906,582.875 Q346.0938,582.0625 345.4375,580.5938 Q344.7813,579.1094 344.7813,577.1406 Q344.7813,575.7188 345.1719,574.5469 Q345.5781,573.3594 346.3594,572.4844 Q347.1406,571.6094 348.2813,571.1406 Q349.4219,570.6563 350.8906,570.6563 Q351.8438,570.6563 352.7344,570.8594 Q353.6406,571.0469 354.5781,571.5156 L353.75,573.2969 Q352.9688,572.9219 352.3125,572.7344 Q351.6563,572.5313 350.8594,572.5313 Z " fill="#000000"/><text fill="#000000" font-family="sans-serif" font-size="14" lengthAdjust="spacing" textLength="109" x="371.25" y="582.432">ComponentData</text><line style="stroke:#181818;stroke-width:0.5;" x1="288" x2="531" y1="593" y2="593"/><text fill="#000000" font-family="sans-serif" font-size="14" lengthAdjust="spacing" textLength="187" x="293" y="611.9659">Command eventCommand()</text><line style="stroke:#181818;stroke-width:0.5;" x1="288" x2="531" y1="620.0679" y2="620.0679"/><text fill="#000000" font-family="sans-serif" font-size="14" lengthAdjust="spacing" textLength="59" x="293" y="639.0339">int type()</text><text fill="#000000" font-family="sans-serif" font-size="14" lengthAdjust="spacing" textLength="85" x="293" y="658.1018">bool isValid()</text><text fill="#000000" font-family="sans-serif" font-size="14" lengthAdjust="spacing" textLength="144" x="293" y="677.1697">QByteArray serialize()</text><text fill="#000000" font-family="sans-serif" font-size="14" lengthAdjust="spacing" textLength="233" x="293" y="696.2376">void deserialize(QByteArray &amp;data)</text></g><g id="elem_GMN18"><path d="M294,774 L294,890.2361 A0,0 0 0 0 294,890.2361 L525,890.2361 A0,0 0 0 0 525,890.2361 L525,784 L515,774 L413.5,774 L409.5,704.24 L405.5,774 L294,774 A0,0 0 0 0 294,774 " fill="#FEFFDD" style="stroke:#181818;stroke-width:0.5;"/><path d="M515,774 L515,784 L525,784 L515,774 " fill="#FEFFDD" style="stroke:#181818;stroke-width:0.5;"/><text fill="#000000" font-family="sans-serif" font-size="13" lengthAdjust="spacing" textLength="210" x="300" y="792.897">enum ComponentData::Command:</text><ellipse cx="305.5" cy="806.912" fill="#000000" rx="2.5" ry="2.5" style="stroke:#000000;stroke-width:0.0;"/><text fill="#000000" font-family="sans-serif" font-size="13" lengthAdjust="spacing" textLength="93" x="312" y="810.603">CCMD_INVALID</text><ellipse cx="305.5" cy="824.618" fill="#000000" rx="2.5" ry="2.5" style="stroke:#000000;stroke-width:0.0;"/><text fill="#000000" font-family="sans-serif" font-size="13" lengthAdjust="spacing" textLength="69" x="312" y="828.309">CCMD_ADD</text><ellipse cx="305.5" cy="842.3241" fill="#000000" rx="2.5" ry="2.5" style="stroke:#000000;stroke-width:0.0;"/><text fill="#000000" font-family="sans-serif" font-size="13" lengthAdjust="spacing" textLength="95" x="312" y="846.0151">CCMD_REMOVE</text><ellipse cx="305.5" cy="860.0301" fill="#000000" rx="2.5" ry="2.5" style="stroke:#000000;stroke-width:0.0;"/><text fill="#000000" font-family="sans-serif" font-size="13" lengthAdjust="spacing" textLength="64" x="312" y="863.7211">CCMD_SET</text><ellipse cx="305.5" cy="877.7361" fill="#000000" rx="2.5" ry="2.5" style="stroke:#000000;stroke-width:0.0;"/><text fill="#000000" font-family="sans-serif" font-size="13" lengthAdjust="spacing" textLength="82" x="312" y="881.4271">CCMD_FETCH</text></g><!--class IntrospectionData--><g id="elem_IntrospectionData"><rect codeLine="80" fill="#F1F1F1" height="124.2717" id="IntrospectionData" rx="2.5" ry="2.5" style="stroke:#181818;stroke-width:0.5;" width="245" x="567" y="570.5"/><ellipse cx="624.75" cy="586.5" fill="#ADD1B2" rx="11" ry="11" style="stroke:#181818;stroke-width:1.0;"/><path d="M624.8594,582.0313 Q623.9375,582.0313 623.2031,582.3438 Q622.4844,582.6563 621.9844,583.25 Q621.4844,583.8281 621.2031,584.7031 Q620.9375,585.5781 620.9375,586.6719 Q620.9375,588.1094 621.375,589.1563 Q621.8281,590.2031 622.6719,590.75 Q623.5313,591.2969 624.8438,591.2969 Q625.625,591.2969 626.3125,591.1719 Q627.0156,591.0313 628.0156,590.7188 L628.0156,592.5938 Q627.1563,592.9219 626.3906,593.0469 Q625.6406,593.1719 624.625,593.1719 Q622.7031,593.1719 621.3906,592.375 Q620.0938,591.5625 619.4375,590.0938 Q618.7813,588.6094 618.7813,586.6406 Q618.7813,585.2188 619.1719,584.0469 Q619.5781,582.8594 620.3594,581.9844 Q621.1406,581.1094 622.2813,580.6406 Q623.4219,580.1563 624.8906,580.1563 Q625.8438,580.1563 626.7344,580.3594 Q627.6406,580.5469 628.5781,581.0156 L627.75,582.7969 Q626.9688,582.4219 626.3125,582.2344 Q625.6563,582.0313 624.8594,582.0313 Z " fill="#000000"/><text fill="#000000" font-family="sans-serif" font-size="14" lengthAdjust="spacing" textLength="121" x="645.25" y="591.932">IntrospectionData</text><line style="stroke:#181818;stroke-width:0.5;" x1="568" x2="811" y1="602.5" y2="602.5"/><line style="stroke:#181818;stroke-width:0.5;" x1="568" x2="811" y1="610.5" y2="610.5"/><text fill="#000000" font-family="sans-serif" font-size="14" lengthAdjust="spacing" textLength="59" x="573" y="629.4659">int type()</text><text fill="#000000" font-family="sans-serif" font-size="14" lengthAdjust="spacing" textLength="85" x="573" y="648.5339">bool isValid()</text><text fill="#000000" font-family="sans-serif" font-size="14" lengthAdjust="spacing" textLength="144" x="573" y="667.6018">QByteArray serialize()</text><text fill="#000000" font-family="sans-serif" font-size="14" lengthAdjust="spacing" textLength="233" x="573" y="686.6697">void deserialize(QByteArray &amp;data)</text></g><!--class RemoteProcedureData--><g id="elem_RemoteProcedureData"><rect codeLine="87" fill="#F1F1F1" height="143.3396" id="RemoteProcedureData" rx="2.5" ry="2.5" style="stroke:#181818;stroke-width:0.5;" width="245" x="847" y="561"/><ellipse cx="889.9" cy="577" fill="#ADD1B2" rx="11" ry="11" style="stroke:#181818;stroke-width:1.0;"/><path d="M890.0094,572.5313 Q889.0875,572.5313 888.3531,572.8438 Q887.6344,573.1563 887.1344,573.75 Q886.6344,574.3281 886.3531,575.2031 Q886.0875,576.0781 886.0875,577.1719 Q886.0875,578.6094 886.525,579.6563 Q886.9781,580.7031 887.8219,581.25 Q888.6813,581.7969 889.9938,581.7969 Q890.775,581.7969 891.4625,581.6719 Q892.1656,581.5313 893.1656,581.2188 L893.1656,583.0938 Q892.3063,583.4219 891.5406,583.5469 Q890.7906,583.6719 889.775,583.6719 Q887.8531,583.6719 886.5406,582.875 Q885.2438,582.0625 884.5875,580.5938 Q883.9313,579.1094 883.9313,577.1406 Q883.9313,575.7188 884.3219,574.5469 Q884.7281,573.3594 885.5094,572.4844 Q886.2906,571.6094 887.4313,571.1406 Q888.5719,570.6563 890.0406,570.6563 Q890.9938,570.6563 891.8844,570.8594 Q892.7906,571.0469 893.7281,571.5156 L892.9,573.2969 Q892.1188,572.9219 891.4625,572.7344 Q890.8063,572.5313 890.0094,572.5313 Z " fill="#000000"/><text fill="#000000" font-family="sans-serif" font-size="14" lengthAdjust="spacing" textLength="151" x="910.1" y="582.432">RemoteProcedureData</text><line style="stroke:#181818;stroke-width:0.5;" x1="848" x2="1091" y1="593" y2="593"/><text fill="#000000" font-family="sans-serif" font-size="14" lengthAdjust="spacing" textLength="148" x="853" y="611.9659">Command command()</text><line style="stroke:#181818;stroke-width:0.5;" x1="848" x2="1091" y1="620.0679" y2="620.0679"/><text fill="#000000" font-family="sans-serif" font-size="14" lengthAdjust="spacing" textLength="59" x="853" y="639.0339">int type()</text><text fill="#000000" font-family="sans-serif" font-size="14" lengthAdjust="spacing" textLength="85" x="853" y="658.1018">bool isValid()</text><text fill="#000000" font-family="sans-serif" font-size="14" lengthAdjust="spacing" textLength="144" x="853" y="677.1697">QByteArray serialize()</text><text fill="#000000" font-family="sans-serif" font-size="14" lengthAdjust="spacing" textLength="233" x="853" y="696.2376">void deserialize(QByteArray &amp;data)</text></g><g id="elem_GMN23"><path d="M826.5,765 L826.5,898.9421 A0,0 0 0 0 826.5,898.9421 L1094.5,898.9421 A0,0 0 0 0 1094.5,898.9421 L1094.5,775 L1084.5,765 L967.52,765 L966.28,704.24 L959.52,765 L826.5,765 A0,0 0 0 0 826.5,765 " fill="#FEFFDD" style="stroke:#181818;stroke-width:0.5;"/><path d="M1084.5,765 L1084.5,775 L1094.5,775 L1084.5,765 " fill="#FEFFDD" style="stroke:#181818;stroke-width:0.5;"/><text fill="#000000" font-family="sans-serif" font-size="13" lengthAdjust="spacing" textLength="247" x="832.5" y="783.897">enum RemoteProcedureData::Command:</text><ellipse cx="838" cy="797.912" fill="#000000" rx="2.5" ry="2.5" style="stroke:#000000;stroke-width:0.0;"/><text fill="#000000" font-family="sans-serif" font-size="13" lengthAdjust="spacing" textLength="101" x="844.5" y="801.603">RPCMD_INVALID</text><ellipse cx="838" cy="815.618" fill="#000000" rx="2.5" ry="2.5" style="stroke:#000000;stroke-width:0.0;"/><text fill="#000000" font-family="sans-serif" font-size="13" lengthAdjust="spacing" textLength="81" x="844.5" y="819.309">RPCMD_CALL</text><ellipse cx="838" cy="833.3241" fill="#000000" rx="2.5" ry="2.5" style="stroke:#000000;stroke-width:0.0;"/><text fill="#000000" font-family="sans-serif" font-size="13" lengthAdjust="spacing" textLength="108" x="844.5" y="837.0151">RPCMD_REGISTER</text><ellipse cx="838" cy="851.0301" fill="#000000" rx="2.5" ry="2.5" style="stroke:#000000;stroke-width:0.0;"/><text fill="#000000" font-family="sans-serif" font-size="13" lengthAdjust="spacing" textLength="97" x="844.5" y="854.7211">RPCMD_RESULT</text><ellipse cx="838" cy="868.7361" fill="#000000" rx="2.5" ry="2.5" style="stroke:#000000;stroke-width:0.0;"/><text fill="#000000" font-family="sans-serif" font-size="13" lengthAdjust="spacing" textLength="115" x="844.5" y="872.4271">RPCMD_PROGRESS</text><ellipse cx="838" cy="886.4421" fill="#000000" rx="2.5" ry="2.5" style="stroke:#000000;stroke-width:0.0;"/><text fill="#000000" font-family="sans-serif" font-size="13" lengthAdjust="spacing" textLength="145" x="844.5" y="890.1331">RPCMD_CANCELLATION</text></g><!--class ErrorData--><g id="elem_ErrorData"><rect codeLine="105" fill="#F1F1F1" height="143.3396" id="ErrorData" rx="2.5" ry="2.5" style="stroke:#181818;stroke-width:0.5;" width="193" x="1145" y="561"/><ellipse cx="1204.75" cy="577" fill="#ADD1B2" rx="11" ry="11" style="stroke:#181818;stroke-width:1.0;"/><path d="M1204.8594,572.5313 Q1203.9375,572.5313 1203.2031,572.8438 Q1202.4844,573.1563 1201.9844,573.75 Q1201.4844,574.3281 1201.2031,575.2031 Q1200.9375,576.0781 1200.9375,577.1719 Q1200.9375,578.6094 1201.375,579.6563 Q1201.8281,580.7031 1202.6719,581.25 Q1203.5313,581.7969 1204.8438,581.7969 Q1205.625,581.7969 1206.3125,581.6719 Q1207.0156,581.5313 1208.0156,581.2188 L1208.0156,583.0938 Q1207.1563,583.4219 1206.3906,583.5469 Q1205.6406,583.6719 1204.625,583.6719 Q1202.7031,583.6719 1201.3906,582.875 Q1200.0938,582.0625 1199.4375,580.5938 Q1198.7813,579.1094 1198.7813,577.1406 Q1198.7813,575.7188 1199.1719,574.5469 Q1199.5781,573.3594 1200.3594,572.4844 Q1201.1406,571.6094 1202.2813,571.1406 Q1203.4219,570.6563 1204.8906,570.6563 Q1205.8438,570.6563 1206.7344,570.8594 Q1207.6406,571.0469 1208.5781,571.5156 L1207.75,573.2969 Q1206.9688,572.9219 1206.3125,572.7344 Q1205.6563,572.5313 1204.8594,572.5313 Z " fill="#000000"/><text fill="#000000" font-family="sans-serif" font-size="14" lengthAdjust="spacing" textLength="65" x="1225.25" y="582.432">ErrorData</text><line style="stroke:#181818;stroke-width:0.5;" x1="1146" x2="1337" y1="593" y2="593"/><line style="stroke:#181818;stroke-width:0.5;" x1="1146" x2="1337" y1="601" y2="601"/><text fill="#000000" font-family="sans-serif" font-size="14" lengthAdjust="spacing" textLength="59" x="1151" y="619.9659">int type()</text><text fill="#000000" font-family="sans-serif" font-size="14" lengthAdjust="spacing" textLength="85" x="1151" y="639.0339">bool isValid()</text><text fill="#000000" font-family="sans-serif" font-size="14" lengthAdjust="spacing" textLength="175" x="1151" y="658.1018">QString errorDescription()</text><text fill="#000000" font-family="sans-serif" font-size="14" lengthAdjust="spacing" textLength="145" x="1151" y="677.1697">int originalDataType()</text><text fill="#000000" font-family="sans-serif" font-size="14" lengthAdjust="spacing" textLength="181" x="1151" y="696.2376">QByteArray &amp;originalData()</text></g><g id="elem_GMN27"><path d="M1130,774 L1130,890.2361 A0,0 0 0 0 1130,890.2361 L1371,890.2361 A0,0 0 0 0 1371,890.2361 L1371,784 L1361,774 L1251.89,774 L1244.72,704.24 L1243.89,774 L1130,774 A0,0 0 0 0 1130,774 " fill="#FEFFDD" style="stroke:#181818;stroke-width:0.5;"/><path d="M1361,774 L1361,784 L1371,784 L1361,774 " fill="#FEFFDD" style="stroke:#181818;stroke-width:0.5;"/><text fill="#000000" font-family="sans-serif" font-size="13" lengthAdjust="spacing" textLength="220" x="1136" y="792.897">ErrorData wraps arbitrary EventData.</text><text fill="#000000" font-family="sans-serif" font-size="13" lengthAdjust="spacing" textLength="178" x="1136" y="810.603">Wrapped data is extracted by:</text><ellipse cx="1141.5" cy="824.618" fill="#000000" rx="2.5" ry="2.5" style="stroke:#000000;stroke-width:0.0;"/><text fill="#000000" font-family="sans-serif" font-size="13" lengthAdjust="spacing" textLength="197" x="1148" y="828.309">create concrete EventData object</text><text fill="#000000" font-family="sans-serif" font-size="13" lengthAdjust="spacing" textLength="170" x="1148" y="846.0151">matching originalDataType()</text><ellipse cx="1141.5" cy="860.0301" fill="#000000" rx="2.5" ry="2.5" style="stroke:#000000;stroke-width:0.0;"/><text fill="#000000" font-family="sans-serif" font-size="13" lengthAdjust="spacing" textLength="173" x="1148" y="863.7211">call deserialize(originalData())</text><text fill="#000000" font-family="sans-serif" font-size="13" lengthAdjust="spacing" textLength="114" x="1148" y="881.4271">on concrete object.</text></g><!--link NetworkStatusEvent to ProtocolEvent--><!--link ProtocolEvent to CommandEvent--><!--reverse link QEvent to NetworkStatusEvent--><g id="link_QEvent_NetworkStatusEvent"><path codeLine="121" d="M409.15,126.41 C383.91,148.79 356.79,172.83 335.71,191.51 " fill="none" id="QEvent-backto-NetworkStatusEvent" style="stroke:#181818;stroke-width:1.0;"/><polygon fill="none" points="404.22,121.42,423.83,113.39,413.51,131.9,404.22,121.42" style="stroke:#181818;stroke-width:1.0;"/></g><!--reverse link QEvent to ProtocolEvent--><g id="link_QEvent_ProtocolEvent"><path codeLine="122" d="M483.5,133.78 C483.5,153.97 483.5,174.87 483.5,191.51 " fill="none" id="QEvent-backto-ProtocolEvent" style="stroke:#181818;stroke-width:1.0;"/><polygon fill="none" points="476.5,133.9,483.5,113.9,490.5,133.9,476.5,133.9" style="stroke:#181818;stroke-width:1.0;"/></g><!--reverse link QEvent to CommandEvent--><g id="link_QEvent_CommandEvent"><path codeLine="123" d="M565.23,125.57 C584.88,141.21 605.61,157.72 624.39,172.67 " fill="none" id="QEvent-backto-CommandEvent" style="stroke:#181818;stroke-width:1.0;"/><polygon fill="none" points="561.15,131.27,549.86,113.33,569.87,120.31,561.15,131.27" style="stroke:#181818;stroke-width:1.0;"/></g><!--reverse link CommandEvent to EventData--><g id="link_CommandEvent_EventData"><path codeLine="125" d="M689.5,292.73 C689.5,313.2 689.5,335.82 689.5,356.6 " fill="none" id="CommandEvent-backto-EventData" style="stroke:#181818;stroke-width:1.0;"/><polygon fill="#181818" points="689.5,279.78,685.5,285.78,689.5,291.78,693.5,285.78,689.5,279.78" style="stroke:#181818;stroke-width:1.0;"/><polygon fill="#000000" points="694.5,322.853,697.4389,313.8079,691.5611,313.8079,694.5,322.853" style="stroke:#000000;stroke-width:1.0;"/><text fill="#000000" font-family="sans-serif" font-size="13" lengthAdjust="spacing" textLength="32" x="703.5" y="322.897">owns</text><text fill="#000000" font-family="sans-serif" font-size="13" lengthAdjust="spacing" textLength="7" x="682.1391" y="345.2247">1</text></g><!--reverse link EventData to EntityData--><g id="link_EventData_EntityData"><path codeLine="127" d="M552.62,466.23 C469.54,490.03 362.04,523.51 269.5,561 C263.83,563.3 258.07,565.74 252.28,568.28 " fill="none" id="EventData-backto-EntityData" style="stroke:#181818;stroke-width:1.0;"/><polygon fill="none" points="550.58,459.53,571.73,460.81,554.4,473,550.58,459.53" style="stroke:#181818;stroke-width:1.0;"/></g><!--reverse link EventData to ComponentData--><g id="link_EventData_ComponentData"><path codeLine="128" d="M573.76,513 C551.77,528.86 528.96,545.32 507.59,560.74 " fill="none" id="EventData-backto-ComponentData" style="stroke:#181818;stroke-width:1.0;"/><polygon fill="none" points="569.63,507.34,589.95,501.32,577.82,518.7,569.63,507.34" style="stroke:#181818;stroke-width:1.0;"/></g><!--reverse link EventData to IntrospectionData--><g id="link_EventData_IntrospectionData"><path codeLine="129" d="M689.5,521.69 C689.5,538.11 689.5,554.84 689.5,570.13 " fill="none" id="EventData-backto-IntrospectionData" style="stroke:#181818;stroke-width:1.0;"/><polygon fill="none" points="682.5,521.95,689.5,501.95,696.5,521.95,682.5,521.95" style="stroke:#181818;stroke-width:1.0;"/></g><!--reverse link EventData to RemoteProcedureData--><g id="link_EventData_RemoteProcedureData"><path codeLine="130" d="M805.24,513 C827.23,528.86 850.04,545.32 871.41,560.74 " fill="none" id="EventData-backto-RemoteProcedureData" style="stroke:#181818;stroke-width:1.0;"/><polygon fill="none" points="801.18,518.7,789.05,501.32,809.37,507.34,801.18,518.7" style="stroke:#181818;stroke-width:1.0;"/></g><!--reverse link EventData to ErrorData--><g id="link_EventData_ErrorData"><path codeLine="131" d="M826.27,465.31 C909.53,488.82 1017.26,522.33 1109.5,561 C1121.12,565.87 1133.08,571.43 1144.82,577.23 " fill="none" id="EventData-backto-ErrorData" style="stroke:#181818;stroke-width:1.0;"/><polygon fill="none" points="824.49,472.08,807.12,459.96,828.26,458.6,824.49,472.08" style="stroke:#181818;stroke-width:1.0;"/></g><!--SRC=[pLRVRzCm47xFNt7Y0RgA3kqrWabT6Y1IQKUJZGU4a9FSMhCahcot8mp-Tsmd9NQJ8OQ4H1_I-Cxtu_lkudDM427WVRZ7IiAz1-gtPpG7acMubQCJ8qdgBO9KZtPzBoIHDFi1L1bnN5CXaHiNUkT8IpVwyGecPoVU3wzY4e7JzKO2ksc3-NxFqFWEIRO1DEba9hSc5YcA6lHJ30GyEMtIP41p9QCtTUj1v_mSzgJOeO0RnbiGGAhSMAnHMbxWHMFMhaR9ShO4GKg4IZr4WvrmX8oLM_MVdtfOvQ3HULwJx0Bb7UEtiSfv9snI7ShSi8gWrlgICyaoLZpQC61bgJ0zQ6V1QaZMwtYNQZeQPRkmzJCY2Opny3hgLz8Ew_ks7-C5grrvjCSEx9jDOrWia-Xr54oJQBdmOLeKhJnPJHVnD6Z4OfUAZDCKSmWAgc5EpY56laTk5U6PBdA6K92QxQGtK8t9nmtDLPDyEdVPzbpkhMqs0CyZgP2SP8Vcx8XgM7y6H4gLvaxYfA2t22NA3MkQxVw6Of6t1L5TAkieFtnG1xUDrlxKEatAM05KN9E23jYzlwWbJZadDGZaL6twDk33VDivTZiiiwUvmc4rLMXoV2IubgscgTf5cyOHiW4uly7mHucRxaoPbApi6h23uVjjGeVE2uDtiy_HudewZsQsQ3fpbglmtV8wj2NnrKKShA8BHtYrwCJ7vu8Al6NLutlb_wFJGT9ZDEWp6hYC1Zr6ZIGE4tlvEao2jpqMeqfo9hQOISegYyb_JqMRm0fBbOuwAZBCTnp_ifZP_r370IYzQguk- -LiPC5qFdS4g_1D52VXwaWONyqJHtIvMhvHulZ8so88vtCp0Nf53pbd_775ZbKbgZMWiKGzDxQwOop2cPfXj2A5zclDHPizUyjeYCOkiJjEjaBT35AgZbbUTrEXkPTyKEgj6bow7YfLmA_cD5QIj3vGdN4aKjyiAlMcNhh1mj8lgk7DDlqhYSms6jq34CRcbkJqX8lav9ShLdNncYZsXQQz4xxyFfaCN6iSjJj9ROqxF9rhobYfdvmziP3wmEug0UUUrycCb-u8FzOufz6nidTS76yO-0PweGz5zdu2]--></g></svg>