<svg xmlns="http://www.w3.org/2000/svg" xmlns:xlink="http://www.w3.org/1999/xlink" contentStyleType="text/css" height="622px" preserveAspectRatio="none" style="width:932px;height:622px;background:#FFFFFF;" version="1.1" viewBox="0 0 932 622" width="932px" zoomAndPan="magnify"><defs/><g><!--class EventHandler--><g id="elem_EventHandler"><rect codeLine="2" fill="#F1F1F1" height="162.4075" id="EventHandler" rx="2.5" ry="2.5" style="stroke:#181818;stroke-width:0.5;" width="431.9845" x="69.01" y="7"/><ellipse cx="236.1134" cy="23" fill="#ADD1B2" rx="11" ry="11" style="stroke:#181818;stroke-width:1.0;"/><path d="M236.2228,18.5313 Q235.3009,18.5313 234.5666,18.8438 Q233.8478,19.1563 233.3478,19.75 Q232.8478,20.3281 232.5666,21.2031 Q232.3009,22.0781 232.3009,23.1719 Q232.3009,24.6094 232.7384,25.6563 Q233.1916,26.7031 234.0353,27.25 Q234.8947,27.7969 236.2072,27.7969 Q236.9884,27.7969 237.6759,27.6719 Q238.3791,27.5313 239.3791,27.2188 L239.3791,29.0938 Q238.5197,29.4219 237.7541,29.5469 Q237.0041,29.6719 235.9884,29.6719 Q234.0666,29.6719 232.7541,28.875 Q231.4572,28.0625 230.8009,26.5938 Q230.1447,25.1094 230.1447,23.1406 Q230.1447,21.7188 230.5353,20.5469 Q230.9416,19.3594 231.7228,18.4844 Q232.5041,17.6094 233.6447,17.1406 Q234.7853,16.6563 236.2541,16.6563 Q237.2072,16.6563 238.0978,16.8594 Q239.0041,17.0469 239.9416,17.5156 L239.1134,19.2969 Q238.3322,18.9219 237.6759,18.7344 Q237.0197,18.5313 236.2228,18.5313 Z " fill="#000000"/><text fill="#000000" font-family="sans-serif" font-size="14" lengthAdjust="spacing" textLength="89.2776" x="256.6134" y="28.432">EventHandler</text><line style="stroke:#181818;stroke-width:0.5;" x1="70.01" x2="499.9945" y1="39" y2="39"/><text fill="#000000" font-family="sans-serif" font-size="14" lengthAdjust="spacing" textLength="222.3472" x="75.01" y="57.9659">QList&lt;EventSystem*&gt; subsystems</text><line style="stroke:#181818;stroke-width:0.5;" x1="70.01" x2="499.9945" y1="66.0679" y2="66.0679"/><text fill="#000000" font-family="sans-serif" font-size="14" lengthAdjust="spacing" textLength="302.4409" x="89.01" y="85.0339">void addSubsystem(EventSystem* subsystem)</text><text fill="#000000" font-family="sans-serif" font-size="14" lengthAdjust="spacing" textLength="405.9845" x="89.01" y="104.1018">void prependSubsystem(VeinEvent::EventSystem* subsystem)</text><text fill="#000000" font-family="sans-serif" font-size="14" lengthAdjust="spacing" textLength="400.1745" x="89.01" y="123.1697">void removeSubsystem(VeinEvent::EventSystem* subsystem)</text><text fill="#000000" font-family="sans-serif" font-size="14" lengthAdjust="spacing" textLength="149.9534" x="89.01" y="142.2376">void clearSubsystems()</text><polygon fill="#FFFF44" points="80.01,152.3735,84.01,156.3735,80.01,160.3735,76.01,156.3735" style="stroke:#B38D22;stroke-width:1.0;"/><text fill="#000000" font-family="sans-serif" font-size="14" lengthAdjust="spacing" textLength="279.2289" x="89.01" y="161.3055">void customEvent(QEvent *event) override</text></g><!--class ModuleEventHandler--><g id="elem_ModuleEventHandler"><rect codeLine="11" fill="#F1F1F1" height="105.2038" id="ModuleEventHandler" rx="2.5" ry="2.5" style="stroke:#181818;stroke-width:0.5;" width="426.5945" x="461.7" y="248.4"/><ellipse cx="601.1395" cy="264.4" fill="#ADD1B2" rx="11" ry="11" style="stroke:#181818;stroke-width:1.0;"/><path d="M601.2489,259.9313 Q600.327,259.9313 599.5926,260.2438 Q598.8739,260.5563 598.3739,261.15 Q597.8739,261.7281 597.5926,262.6031 Q597.327,263.4781 597.327,264.5719 Q597.327,266.0094 597.7645,267.0563 Q598.2176,268.1031 599.0614,268.65 Q599.9207,269.1969 601.2332,269.1969 Q602.0145,269.1969 602.702,269.0719 Q603.4051,268.9313 604.4051,268.6188 L604.4051,270.4938 Q603.5457,270.8219 602.7801,270.9469 Q602.0301,271.0719 601.0145,271.0719 Q599.0926,271.0719 597.7801,270.275 Q596.4832,269.4625 595.827,267.9938 Q595.1707,266.5094 595.1707,264.5406 Q595.1707,263.1188 595.5614,261.9469 Q595.9676,260.7594 596.7489,259.8844 Q597.5301,259.0094 598.6707,258.5406 Q599.8114,258.0563 601.2801,258.0563 Q602.2332,258.0563 603.1239,258.2594 Q604.0301,258.4469 604.9676,258.9156 L604.1395,260.6969 Q603.3582,260.3219 602.702,260.1344 Q602.0457,259.9313 601.2489,259.9313 Z " fill="#000000"/><text fill="#000000" font-family="sans-serif" font-size="14" lengthAdjust="spacing" textLength="139.2155" x="621.6395" y="269.832">ModuleEventHandler</text><line style="stroke:#181818;stroke-width:0.5;" x1="462.7" x2="887.2945" y1="280.4" y2="280.4"/><text fill="#000000" font-family="sans-serif" font-size="14" lengthAdjust="spacing" textLength="325.8908" x="467.7" y="299.3659">QList&lt;VeinEvent::EventSystem *&gt; moduleSystems</text><line style="stroke:#181818;stroke-width:0.5;" x1="462.7" x2="887.2945" y1="307.4679" y2="307.4679"/><text fill="#000000" font-family="sans-serif" font-size="14" lengthAdjust="spacing" textLength="414.5945" x="467.7" y="326.4339">void addModuleSystem(VeinEvent::EventSystem *eventSystem)</text><text fill="#000000" font-family="sans-serif" font-size="14" lengthAdjust="spacing" textLength="175.9233" x="467.7" y="345.5018">void clearModuleSystems()</text></g><g id="elem_GMN4"><path d="M536.2,74.35 L536.2,102.056 A0,0 0 0 0 536.2,102.056 L673.81,102.056 L675.73,248.28 L681.81,102.056 L819.8002,102.056 A0,0 0 0 0 819.8002,102.056 L819.8002,84.35 L809.8002,74.35 L536.2,74.35 A0,0 0 0 0 536.2,74.35 " fill="#FEFFDD" style="stroke:#181818;stroke-width:0.5;"/><path d="M809.8002,74.35 L809.8002,84.35 L819.8002,84.35 L809.8002,74.35 " fill="#FEFFDD" style="stroke:#181818;stroke-width:0.5;"/><text fill="#000000" font-family="sans-serif" font-size="13" lengthAdjust="spacing" textLength="262.6002" x="542.2" y="93.247">Modules' event systems are processed first</text></g><!--class EventSystem--><g id="elem_EventSystem"><rect codeLine="20" fill="#F1F1F1" height="86.1358" id="EventSystem" rx="2.5" ry="2.5" style="stroke:#181818;stroke-width:0.5;" width="278.1949" x="145.9" y="257.94"/><ellipse cx="242.2406" cy="273.94" fill="#A9DCDF" rx="11" ry="11" style="stroke:#181818;stroke-width:1.0;"/><path d="M245.5844,279.19 L244.1156,275.44 L239.6781,275.44 L238.2406,279.19 L236.1156,279.19 L241.0687,266.4713 L242.8187,266.4713 L247.7406,279.19 L245.5844,279.19 Z M242.2406,270.2369 Q242.1937,270.0806 242.0687,269.7213 Q241.9437,269.3619 241.8344,268.9869 Q241.725,268.5963 241.9281,268.5338 Q242.0844,268.7213 241.9906,269.0806 Q241.8969,269.4244 241.8031,269.7213 Q241.7094,270.0025 241.6312,270.2369 L240.3969,273.5494 L243.475,273.5494 L242.2406,270.2369 Z " fill="#000000"/><text fill="#000000" font-family="sans-serif" font-size="14" font-style="italic" lengthAdjust="spacing" textLength="77.0137" x="262.7406" y="279.372">EventSystem</text><line style="stroke:#181818;stroke-width:0.5;" x1="146.9" x2="423.0949" y1="289.94" y2="289.94"/><line style="stroke:#181818;stroke-width:0.5;" x1="146.9" x2="423.0949" y1="297.94" y2="297.94"/><text fill="#000000" font-family="sans-serif" font-size="14" lengthAdjust="spacing" textLength="266.1949" x="151.9" y="316.9059">signal void sigSendEvent(QEvent *event)</text><text fill="#000000" font-family="sans-serif" font-size="14" font-style="italic" lengthAdjust="spacing" textLength="206.5412" x="151.9" y="335.9739">void processEvent(QEvent *event)</text></g><!--class IntrospectionSystem--><g id="elem_IntrospectionSystem"><rect codeLine="25" fill="#F1F1F1" height="67.0679" id="IntrospectionSystem" rx="2.5" ry="2.5" style="stroke:#181818;stroke-width:0.5;" width="167.9955" x="7" y="481.34"/><ellipse cx="22" cy="497.34" fill="#ADD1B2" rx="11" ry="11" style="stroke:#181818;stroke-width:1.0;"/><path d="M22.1094,492.8713 Q21.1875,492.8713 20.4531,493.1838 Q19.7344,493.4963 19.2344,494.09 Q18.7344,494.6681 18.4531,495.5431 Q18.1875,496.4181 18.1875,497.5119 Q18.1875,498.9494 18.625,499.9963 Q19.0781,501.0431 19.9219,501.59 Q20.7813,502.1369 22.0938,502.1369 Q22.875,502.1369 23.5625,502.0119 Q24.2656,501.8713 25.2656,501.5588 L25.2656,503.4338 Q24.4063,503.7619 23.6406,503.8869 Q22.8906,504.0119 21.875,504.0119 Q19.9531,504.0119 18.6406,503.215 Q17.3438,502.4025 16.6875,500.9338 Q16.0313,499.4494 16.0313,497.4806 Q16.0313,496.0588 16.4219,494.8869 Q16.8281,493.6994 17.6094,492.8244 Q18.3906,491.9494 19.5313,491.4806 Q20.6719,490.9963 22.1406,490.9963 Q23.0938,490.9963 23.9844,491.1994 Q24.8906,491.3869 25.8281,491.8556 L25,493.6369 Q24.2188,493.2619 23.5625,493.0744 Q22.9063,492.8713 22.1094,492.8713 Z " fill="#000000"/><text fill="#000000" font-family="sans-serif" font-size="14" lengthAdjust="spacing" textLength="135.9955" x="36" y="502.772">IntrospectionSystem</text><line style="stroke:#181818;stroke-width:0.5;" x1="8" x2="173.9955" y1="513.34" y2="513.34"/><line style="stroke:#181818;stroke-width:0.5;" x1="8" x2="173.9955" y1="521.34" y2="521.34"/><text fill="#000000" font-family="sans-serif" font-size="14" lengthAdjust="spacing" textLength="138.4875" x="13" y="540.3059">void processEvent(...)</text></g><!--class StorageSystem--><g id="elem_StorageSystem"><rect codeLine="29" fill="#F1F1F1" height="67.0679" id="StorageSystem" rx="2.5" ry="2.5" style="stroke:#181818;stroke-width:0.5;" width="150.4875" x="209.75" y="481.34"/><ellipse cx="233.5537" cy="497.34" fill="#ADD1B2" rx="11" ry="11" style="stroke:#181818;stroke-width:1.0;"/><path d="M233.6631,492.8713 Q232.7412,492.8713 232.0068,493.1838 Q231.2881,493.4963 230.7881,494.09 Q230.2881,494.6681 230.0068,495.5431 Q229.7412,496.4181 229.7412,497.5119 Q229.7412,498.9494 230.1787,499.9963 Q230.6318,501.0431 231.4756,501.59 Q232.335,502.1369 233.6475,502.1369 Q234.4287,502.1369 235.1162,502.0119 Q235.8193,501.8713 236.8193,501.5588 L236.8193,503.4338 Q235.96,503.7619 235.1943,503.8869 Q234.4443,504.0119 233.4287,504.0119 Q231.5068,504.0119 230.1943,503.215 Q228.8975,502.4025 228.2412,500.9338 Q227.585,499.4494 227.585,497.4806 Q227.585,496.0588 227.9756,494.8869 Q228.3818,493.6994 229.1631,492.8244 Q229.9443,491.9494 231.085,491.4806 Q232.2256,490.9963 233.6943,490.9963 Q234.6475,490.9963 235.5381,491.1994 Q236.4443,491.3869 237.3818,491.8556 L236.5537,493.6369 Q235.7725,493.2619 235.1162,493.0744 Q234.46,492.8713 233.6631,492.8713 Z " fill="#000000"/><text fill="#000000" font-family="sans-serif" font-size="14" lengthAdjust="spacing" textLength="98.9236" x="249.5101" y="502.772">StorageSystem</text><line style="stroke:#181818;stroke-width:0.5;" x1="210.75" x2="359.2375" y1="513.34" y2="513.34"/><line style="stroke:#181818;stroke-width:0.5;" x1="210.75" x2="359.2375" y1="521.34" y2="521.34"/><text fill="#000000" font-family="sans-serif" font-size="14" lengthAdjust="spacing" textLength="138.4875" x="215.75" y="540.3059">void processEvent(...)</text></g><!--class SystemModuleEventSystem--><g id="elem_SystemModuleEventSystem"><rect codeLine="33" fill="#F1F1F1" height="200.5433" id="SystemModuleEventSystem" rx="2.5" ry="2.5" style="stroke:#181818;stroke-width:0.5;" width="530.488" x="394.75" y="414.61"/><ellipse cx="564.9544" cy="430.61" fill="#ADD1B2" rx="11" ry="11" style="stroke:#181818;stroke-width:1.0;"/><path d="M565.0637,426.1413 Q564.1419,426.1413 563.4075,426.4538 Q562.6887,426.7663 562.1887,427.36 Q561.6887,427.9381 561.4075,428.8131 Q561.1419,429.6881 561.1419,430.7819 Q561.1419,432.2194 561.5794,433.2663 Q562.0325,434.3131 562.8762,434.86 Q563.7356,435.4069 565.0481,435.4069 Q565.8294,435.4069 566.5169,435.2819 Q567.22,435.1413 568.22,434.8288 L568.22,436.7038 Q567.3606,437.0319 566.595,437.1569 Q565.845,437.2819 564.8294,437.2819 Q562.9075,437.2819 561.595,436.485 Q560.2981,435.6725 559.6419,434.2038 Q558.9856,432.7194 558.9856,430.7506 Q558.9856,429.3288 559.3762,428.1569 Q559.7825,426.9694 560.5637,426.0944 Q561.345,425.2194 562.4856,424.7506 Q563.6262,424.2663 565.095,424.2663 Q566.0481,424.2663 566.9387,424.4694 Q567.845,424.6569 568.7825,425.1256 L567.9544,426.9069 Q567.1731,426.5319 566.5169,426.3444 Q565.8606,426.1413 565.0637,426.1413 Z " fill="#000000"/><text fill="#000000" font-family="sans-serif" font-size="14" lengthAdjust="spacing" textLength="181.5793" x="585.4544" y="436.042">SystemModuleEventSystem</text><line style="stroke:#181818;stroke-width:0.5;" x1="395.75" x2="924.238" y1="446.61" y2="446.61"/><text fill="#000000" font-family="sans-serif" font-size="14" lengthAdjust="spacing" textLength="101.5696" x="400.75" y="465.5759">int getEntityId()</text><text fill="#000000" font-family="sans-serif" font-size="14" lengthAdjust="spacing" textLength="239.1611" x="400.75" y="484.6439">StorageSystem *getStorageSystem()</text><text fill="#000000" font-family="sans-serif" font-size="14" lengthAdjust="spacing" textLength="402.9046" x="400.75" y="503.7118">void setStorage(VeinEvent::StorageSystem *t_storageSystem)</text><line style="stroke:#181818;stroke-width:0.5;" x1="395.75" x2="924.238" y1="511.8138" y2="511.8138"/><text fill="#000000" font-family="sans-serif" font-size="14" lengthAdjust="spacing" textLength="138.4875" x="400.75" y="530.7797">void processEvent(...)</text><text fill="#000000" font-family="sans-serif" font-size="14" lengthAdjust="spacing" textLength="393.7066" x="400.75" y="549.8476">signal void sigChangeSession(const QString &amp;t_newSession)</text><text fill="#000000" font-family="sans-serif" font-size="14" lengthAdjust="spacing" textLength="357.8106" x="400.75" y="568.9155">signal void sigModulesPausedChanged(bool t_paused)</text><text fill="#000000" font-family="sans-serif" font-size="14" lengthAdjust="spacing" textLength="518.488" x="400.75" y="587.9834">void initializeEntity(const QString &amp;sessionPath, const QStringList &amp;sessionList)</text><text fill="#000000" font-family="sans-serif" font-size="14" lengthAdjust="spacing" textLength="256.731" x="400.75" y="607.0514">void setModulesPaused(bool t_paused)</text></g><!--reverse link EventHandler to ModuleEventHandler--><g id="link_EventHandler_ModuleEventHandler"><path codeLine="46" d="M449.9448,178.3591 C498.4348,204.5691 535.1,224.39 578.68,247.94 " fill="none" id="EventHandler-backto-ModuleEventHandler" style="stroke:#181818;stroke-width:1.0;"/><polygon fill="none" points="434.11,169.8,447.0918,183.6374,452.7979,173.0808,434.11,169.8" style="stroke:#181818;stroke-width:1.0;"/></g><!--reverse link EventHandler to EventSystem--><g id="link_EventHandler_EventSystem"><path codeLine="47" d="M285,181.8 C285,211.67 285,232.36 285,257.51 " fill="none" id="EventHandler-backto-EventSystem" style="stroke:#181818;stroke-width:1.0;"/><polygon fill="none" points="285,169.8,281,175.8,285,181.8,289,175.8,285,169.8" style="stroke:#181818;stroke-width:1.0;"/><polygon fill="#000000" points="290,214.253,292.9389,205.2079,287.0611,205.2079,290,214.253" style="stroke:#000000;stroke-width:1.0;"/><text fill="#000000" font-family="sans-serif" font-size="13" lengthAdjust="spacing" textLength="114.3481" x="299" y="214.297">forwards events to</text><text fill="#000000" font-family="sans-serif" font-size="13" lengthAdjust="spacing" textLength="21.567" x="262.3722" y="246.1761">0..*</text></g><!--reverse link EventSystem to IntrospectionSystem--><g id="link_EventSystem_IntrospectionSystem"><path codeLine="50" d="M234.0538,357.6451 C197.2238,397.8651 154.81,444.19 121.14,480.96 " fill="none" id="EventSystem-backto-IntrospectionSystem" style="stroke:#181818;stroke-width:1.0;"/><polygon fill="none" points="246.21,344.37,229.6288,353.593,238.4789,361.6971,246.21,344.37" style="stroke:#181818;stroke-width:1.0;"/></g><!--reverse link EventSystem to StorageSystem--><g id="link_EventSystem_StorageSystem"><path codeLine="51" d="M285,362.37 C285,402.59 285,444.19 285,480.96 " fill="none" id="EventSystem-backto-StorageSystem" style="stroke:#181818;stroke-width:1.0;"/><polygon fill="none" points="285,344.37,279,362.37,291,362.37,285,344.37" style="stroke:#181818;stroke-width:1.0;"/></g><!--reverse link EventSystem to SystemModuleEventSystem--><g id="link_EventSystem_SystemModuleEventSystem"><path codeLine="52" d="M375.6517,353.2243 C411.3517,373.3943 440.01,389.58 483.54,414.18 " fill="none" id="EventSystem-backto-SystemModuleEventSystem" style="stroke:#181818;stroke-width:1.0;"/><polygon fill="none" points="359.98,344.37,372.7003,358.4482,378.6031,348.0004,359.98,344.37" style="stroke:#181818;stroke-width:1.0;"/></g><!--SRC=[dLDHQzim47xNhpWwM9smc3s7qfTHM6651iDUWs9T4Z5RChfpIfVblq-HdCHArOtDBxPrttUd- -wxkf54yB13mr-bKGqws0lmp-AR9huBWUgL6DlfFL2_el1D0RApMe5KgZeT5sFu1Jsve3k77PeHupjg4rZp-L_93bkxm__ZrWrATwPI4KCVOgmdjcr8KIp22wPuV4t0rtDEAnG78UeWrPDLVOFl2fQ_4tZnsa2iClezZIB5UmdmydFTrfX_xEmWZ6K4jbq0nZ3TGaW1Wm8W7Vfns1g9KC5QEsBXHmD7hX1oHUnapL1V339S9RPBUcDa4s_XlojFpIaOiFjJjiF91Q5i5dyM-j6mizHXpTgQfFJR76LPZfWLMoSt-6-S01uDDs7VWcHsUjKppXhz0w55tbeLnxXVQspK0RJlOeFyO5ZpwwCQB7QAffUQUc1oagAZgcV8s1HNUNX9uuE9-5EtcRbzsKhZoHxdLIvgQuXXKVbUpGO-yjBWon3BiWThFSlUUoYcKiNAsWPusON3aLUrqQnbetzYbEYw6iL2pvAtdo297JVh73_-ZB9wbP9RN9Vt4qwMzUxNR9PPuXHaFURcSrbERnBdps5jtOjqYk8kaTynk1T3XG4K2cJC-nQKZ38JpbjI_0O0]--></g></svg>