<?plantuml 1.2026.2?><svg xmlns="http://www.w3.org/2000/svg" xmlns:xlink="http://www.w3.org/1999/xlink" contentStyleType="text/css" data-diagram-type="CLASS" height="573px" preserveAspectRatio="none" style="width:1299px;height:573px;background:#FFFFFF;" version="1.1" viewBox="0 0 1299 573" width="1299px" zoomAndPan="magnify"><defs/><g><!--class EventHandler--><g class="entity" data-qualified-name="EventHandler" data-source-line="2" id="ent0002"><rect fill="#F1F1F1" height="145.7813" rx="2.5" ry="2.5" style="stroke:#181818;stroke-width:0.5;" width="466.6992" x="269.81" y="7"/><ellipse cx="451.2939" cy="23" fill="#ADD1B2" rx="11" ry="11" style="stroke:#181818;stroke-width:1;"/><path d="M455.5283,17.4063 L455.5283,19.9219 Q454.2783,18.7656 453.3564,18.3906 Q452.4501,18.0156 451.4189,18.0156 Q449.4189,18.0156 448.3564,19.2344 Q447.2939,20.4375 447.2939,22.7969 Q447.2939,25.1563 448.3564,26.375 Q449.4189,27.5781 451.4189,27.5781 Q452.4501,27.5781 453.3564,27.2031 Q454.2783,26.8281 455.5283,25.6719 L455.5283,28.1719 Q454.4814,28.875 453.4658,29.1875 Q452.4658,29.4844 451.3095,29.4844 Q448.3876,29.4844 446.6845,27.6875 Q444.997,25.8906 444.997,22.7969 Q444.997,19.7031 446.6845,17.9063 Q448.3876,16.0938 451.3095,16.0938 Q452.4814,16.0938 453.4814,16.4063 Q454.497,16.7031 455.5283,17.4063 Z " fill="#000000"/><text fill="#000000" font-family="sans-serif" font-size="14" lengthAdjust="spacing" textLength="95.2314" x="471.7939" y="27.8467">EventHandler</text><line style="stroke:#181818;stroke-width:0.5;" x1="270.81" x2="735.5092" y1="39" y2="39"/><text fill="#000000" font-family="sans-serif" font-size="14" lengthAdjust="spacing" textLength="245.6768" x="275.81" y="55.9951">QList&lt;EventSystem*&gt; subsystems</text><line style="stroke:#181818;stroke-width:0.5;" x1="270.81" x2="735.5092" y1="63.2969" y2="63.2969"/><text fill="#000000" font-family="sans-serif" font-size="14" lengthAdjust="spacing" textLength="328.043" x="289.81" y="80.292">void addSubsystem(EventSystem* subsystem)</text><text fill="#000000" font-family="sans-serif" font-size="14" lengthAdjust="spacing" textLength="440.6992" x="289.81" y="96.5889">void prependSubsystem(VeinEvent::EventSystem* subsystem)</text><text fill="#000000" font-family="sans-serif" font-size="14" lengthAdjust="spacing" textLength="435.6543" x="289.81" y="112.8857">void removeSubsystem(VeinEvent::EventSystem* subsystem)</text><text fill="#000000" font-family="sans-serif" font-size="14" lengthAdjust="spacing" textLength="164.0898" x="289.81" y="129.1826">void clearSubsystems()</text><g data-visibility-modifier="PROTECTED_METHOD"><polygon fill="#FFFF44" points="280.81,137.1328,284.81,141.1328,280.81,145.1328,276.81,141.1328" style="stroke:#B38D22;stroke-width:1;"/></g><text fill="#000000" font-family="sans-serif" font-size="14" lengthAdjust="spacing" textLength="301.9297" x="289.81" y="145.4795">void customEvent(QEvent *event) override</text></g><!--class ModuleEventHandler--><g class="entity" data-qualified-name="ModuleEventHandler" data-source-line="11" id="ent0003"><rect fill="#F1F1F1" height="96.8906" rx="2.5" ry="2.5" style="stroke:#181818;stroke-width:0.5;" width="462.8027" x="690.76" y="229.78"/><ellipse cx="844.842" cy="245.78" fill="#ADD1B2" rx="11" ry="11" style="stroke:#181818;stroke-width:1;"/><path d="M849.0764,240.1862 L849.0764,242.7019 Q847.8264,241.5456 846.9045,241.1706 Q845.9983,240.7956 844.967,240.7956 Q842.967,240.7956 841.9045,242.0144 Q840.842,243.2175 840.842,245.5769 Q840.842,247.9362 841.9045,249.155 Q842.967,250.3581 844.967,250.3581 Q845.9983,250.3581 846.9045,249.9831 Q847.8264,249.6081 849.0764,248.4519 L849.0764,250.9519 Q848.0295,251.655 847.0139,251.9675 Q846.0139,252.2644 844.8577,252.2644 Q841.9358,252.2644 840.2327,250.4675 Q838.5452,248.6706 838.5452,245.5769 Q838.5452,242.4831 840.2327,240.6862 Q841.9358,238.8737 844.8577,238.8737 Q846.0295,238.8737 847.0295,239.1862 Q848.0452,239.4831 849.0764,240.1862 Z " fill="#000000"/><text fill="#000000" font-family="sans-serif" font-size="14" lengthAdjust="spacing" textLength="146.1387" x="865.342" y="250.6267">ModuleEventHandler</text><line style="stroke:#181818;stroke-width:0.5;" x1="691.76" x2="1152.5627" y1="261.78" y2="261.78"/><text fill="#000000" font-family="sans-serif" font-size="14" lengthAdjust="spacing" textLength="359.625" x="696.76" y="278.7751">QList&lt;VeinEvent::EventSystem *&gt; moduleSystems</text><line style="stroke:#181818;stroke-width:0.5;" x1="691.76" x2="1152.5627" y1="286.0769" y2="286.0769"/><text fill="#000000" font-family="sans-serif" font-size="14" lengthAdjust="spacing" textLength="450.8027" x="696.76" y="303.072">void addModuleSystem(VeinEvent::EventSystem *eventSystem)</text><text fill="#000000" font-family="sans-serif" font-size="14" lengthAdjust="spacing" textLength="189.9434" x="696.76" y="319.3689">void clearModuleSystems()</text></g><g class="entity" data-qualified-name="GMN4" data-source-line="17" id="ent0005"><path d="M771.52,67.33 L771.52,92.4628 A0,0 0 0 0 771.52,92.4628 L919.1,92.4628 L922.41,229.29 L927.1,92.4628 L1074.8003,92.4628 A0,0 0 0 0 1074.8003,92.4628 L1074.8003,77.33 L1064.8003,67.33 L771.52,67.33 A0,0 0 0 0 771.52,67.33" fill="#FEFFDD" style="stroke:#181818;stroke-width:0.5;"/><path d="M1064.8003,67.33 L1064.8003,77.33 L1074.8003,77.33 L1064.8003,67.33" fill="#FEFFDD" style="stroke:#181818;stroke-width:0.5;"/><text fill="#000000" font-family="sans-serif" font-size="13" lengthAdjust="spacing" textLength="282.2803" x="777.52" y="84.3969">Modules' event systems are processed first</text></g><!--class EventSystem--><g class="entity" data-qualified-name="EventSystem" data-source-line="20" id="ent0007"><rect fill="#F1F1F1" height="80.5938" rx="2.5" ry="2.5" style="stroke:#181818;stroke-width:0.5;" width="300.75" x="352.79" y="237.93"/><ellipse cx="452.7588" cy="253.93" fill="#A9DCDF" rx="11" ry="11" style="stroke:#181818;stroke-width:1;"/><path d="M453.3369,249.1956 L451.4306,254.3206 L455.2431,254.3206 L453.3369,249.1956 Z M452.1963,246.5081 L454.4775,246.5081 L459.3994,259.43 L457.0869,259.43 L455.9463,256.2581 L450.7431,256.2581 L449.6181,259.43 L447.2744,259.43 L452.1963,246.5081 Z " fill="#000000"/><text fill="#000000" font-family="sans-serif" font-size="14" font-style="italic" lengthAdjust="spacing" textLength="92.3125" x="473.2588" y="258.7767">EventSystem</text><line style="stroke:#181818;stroke-width:0.5;" x1="353.79" x2="652.54" y1="269.93" y2="269.93"/><line style="stroke:#181818;stroke-width:0.5;" x1="353.79" x2="652.54" y1="277.93" y2="277.93"/><text fill="#000000" font-family="sans-serif" font-size="14" lengthAdjust="spacing" textLength="288.75" x="358.79" y="294.9251">signal void sigSendEvent(QEvent *event)</text><text fill="#000000" font-family="sans-serif" font-size="14" font-style="italic" lengthAdjust="spacing" textLength="241.6641" x="358.79" y="311.222">void processEvent(QEvent *event)</text></g><!--class IntrospectionSystem--><g class="entity" data-qualified-name="IntrospectionSystem" data-source-line="25" id="ent0008"><rect fill="#F1F1F1" height="64.2969" rx="2.5" ry="2.5" style="stroke:#181818;stroke-width:0.5;" width="176.3271" x="7" y="444.71"/><ellipse cx="22" cy="460.71" fill="#ADD1B2" rx="11" ry="11" style="stroke:#181818;stroke-width:1;"/><path d="M26.2344,455.1162 L26.2344,457.6319 Q24.9844,456.4756 24.0625,456.1006 Q23.1563,455.7256 22.125,455.7256 Q20.125,455.7256 19.0625,456.9444 Q18,458.1475 18,460.5069 Q18,462.8662 19.0625,464.085 Q20.125,465.2881 22.125,465.2881 Q23.1563,465.2881 24.0625,464.9131 Q24.9844,464.5381 26.2344,463.3819 L26.2344,465.8819 Q25.1875,466.585 24.1719,466.8975 Q23.1719,467.1944 22.0156,467.1944 Q19.0938,467.1944 17.3906,465.3975 Q15.7031,463.6006 15.7031,460.5069 Q15.7031,457.4131 17.3906,455.6162 Q19.0938,453.8037 22.0156,453.8037 Q23.1875,453.8037 24.1875,454.1162 Q25.2031,454.4131 26.2344,455.1162 Z " fill="#000000"/><text fill="#000000" font-family="sans-serif" font-size="14" lengthAdjust="spacing" textLength="144.3271" x="36" y="465.5567">IntrospectionSystem</text><line style="stroke:#181818;stroke-width:0.5;" x1="8" x2="182.3271" y1="476.71" y2="476.71"/><line style="stroke:#181818;stroke-width:0.5;" x1="8" x2="182.3271" y1="484.71" y2="484.71"/><text fill="#000000" font-family="sans-serif" font-size="14" lengthAdjust="spacing" textLength="152.5645" x="13" y="501.7051">void processEvent(...)</text></g><!--class AbstractEventSystem--><g class="entity" data-qualified-name="AbstractEventSystem" data-source-line="29" id="ent0009"><rect fill="#F1F1F1" height="64.2969" rx="2.5" ry="2.5" style="stroke:#181818;stroke-width:0.5;" width="183.0811" x="1109.62" y="47.75"/><ellipse cx="1124.62" cy="63.75" fill="#ADD1B2" rx="11" ry="11" style="stroke:#181818;stroke-width:1;"/><path d="M1128.8544,58.1563 L1128.8544,60.6719 Q1127.6044,59.5156 1126.6825,59.1406 Q1125.7763,58.7656 1124.745,58.7656 Q1122.745,58.7656 1121.6825,59.9844 Q1120.62,61.1875 1120.62,63.5469 Q1120.62,65.9063 1121.6825,67.125 Q1122.745,68.3281 1124.745,68.3281 Q1125.7763,68.3281 1126.6825,67.9531 Q1127.6044,67.5781 1128.8544,66.4219 L1128.8544,68.9219 Q1127.8075,69.625 1126.7919,69.9375 Q1125.7919,70.2344 1124.6356,70.2344 Q1121.7138,70.2344 1120.0106,68.4375 Q1118.3231,66.6406 1118.3231,63.5469 Q1118.3231,60.4531 1120.0106,58.6563 Q1121.7138,56.8438 1124.6356,56.8438 Q1125.8075,56.8438 1126.8075,57.1563 Q1127.8231,57.4531 1128.8544,58.1563 Z " fill="#000000"/><text fill="#000000" font-family="sans-serif" font-size="14" lengthAdjust="spacing" textLength="151.0811" x="1138.62" y="68.5967">AbstractEventSystem</text><line style="stroke:#181818;stroke-width:0.5;" x1="1110.62" x2="1291.7011" y1="79.75" y2="79.75"/><line style="stroke:#181818;stroke-width:0.5;" x1="1110.62" x2="1291.7011" y1="87.75" y2="87.75"/><text fill="#000000" font-family="sans-serif" font-size="14" lengthAdjust="spacing" textLength="152.5645" x="1115.62" y="104.7451">void processEvent(...)</text></g><!--class SystemModuleEventSystem--><g class="entity" data-qualified-name="SystemModuleEventSystem" data-source-line="33" id="ent0010"><rect fill="#F1F1F1" height="178.375" rx="2.5" ry="2.5" style="stroke:#181818;stroke-width:0.5;" width="570.1748" x="218.08" y="387.67"/><ellipse cx="401.2045" cy="403.67" fill="#ADD1B2" rx="11" ry="11" style="stroke:#181818;stroke-width:1;"/><path d="M405.4389,398.0762 L405.4389,400.5919 Q404.1889,399.4356 403.267,399.0606 Q402.3608,398.6856 401.3295,398.6856 Q399.3295,398.6856 398.267,399.9044 Q397.2045,401.1075 397.2045,403.4669 Q397.2045,405.8262 398.267,407.045 Q399.3295,408.2481 401.3295,408.2481 Q402.3608,408.2481 403.267,407.8731 Q404.1889,407.4981 405.4389,406.3419 L405.4389,408.8419 Q404.392,409.545 403.3764,409.8575 Q402.3764,410.1544 401.2201,410.1544 Q398.2983,410.1544 396.5951,408.3575 Q394.9076,406.5606 394.9076,403.4669 Q394.9076,400.3731 396.5951,398.5762 Q398.2983,396.7637 401.2201,396.7637 Q402.392,396.7637 403.392,397.0762 Q404.4076,397.3731 405.4389,398.0762 Z " fill="#000000"/><text fill="#000000" font-family="sans-serif" font-size="14" lengthAdjust="spacing" textLength="195.4258" x="421.7045" y="408.5167">SystemModuleEventSystem</text><line style="stroke:#181818;stroke-width:0.5;" x1="219.08" x2="787.2548" y1="419.67" y2="419.67"/><text fill="#000000" font-family="sans-serif" font-size="14" lengthAdjust="spacing" textLength="110.5029" x="224.08" y="436.6651">int getEntityId()</text><text fill="#000000" font-family="sans-serif" font-size="14" lengthAdjust="spacing" textLength="398.5898" x="224.08" y="452.962">VeinStorage::AbstractEventSystem *getStorageSystem()</text><text fill="#000000" font-family="sans-serif" font-size="14" lengthAdjust="spacing" textLength="496.7471" x="224.08" y="469.2589">void setStorage(VeinStorage::AbstractEventSystem *t_storageSystem)</text><line style="stroke:#181818;stroke-width:0.5;" x1="219.08" x2="787.2548" y1="476.5606" y2="476.5606"/><text fill="#000000" font-family="sans-serif" font-size="14" lengthAdjust="spacing" textLength="152.5645" x="224.08" y="493.5557">void processEvent(...)</text><text fill="#000000" font-family="sans-serif" font-size="14" lengthAdjust="spacing" textLength="423.3291" x="224.08" y="509.8526">signal void sigChangeSession(const QString &amp;t_newSession)</text><text fill="#000000" font-family="sans-serif" font-size="14" lengthAdjust="spacing" textLength="380.29" x="224.08" y="526.1495">signal void sigModulesPausedChanged(bool t_paused)</text><text fill="#000000" font-family="sans-serif" font-size="14" lengthAdjust="spacing" textLength="558.1748" x="224.08" y="542.4464">void initializeEntity(const QString &amp;sessionPath, const QStringList &amp;sessionList)</text><text fill="#000000" font-family="sans-serif" font-size="14" lengthAdjust="spacing" textLength="273.2666" x="224.08" y="558.7432">void setModulesPaused(bool t_paused)</text></g><!--class VeinStorage--><g class="entity" data-qualified-name="VeinStorage" data-source-line="51" id="ent0014"><rect fill="#F1F1F1" height="48" rx="2.5" ry="2.5" style="stroke:#181818;stroke-width:0.5;" width="117.7295" x="831.66" y="452.86"/><ellipse cx="846.66" cy="468.86" fill="#ADD1B2" rx="11" ry="11" style="stroke:#181818;stroke-width:1;"/><path d="M850.8944,463.2662 L850.8944,465.7819 Q849.6444,464.6256 848.7225,464.2506 Q847.8163,463.8756 846.785,463.8756 Q844.785,463.8756 843.7225,465.0944 Q842.66,466.2975 842.66,468.6569 Q842.66,471.0162 843.7225,472.235 Q844.785,473.4381 846.785,473.4381 Q847.8163,473.4381 848.7225,473.0631 Q849.6444,472.6881 850.8944,471.5319 L850.8944,474.0319 Q849.8475,474.735 848.8319,475.0475 Q847.8319,475.3444 846.6756,475.3444 Q843.7538,475.3444 842.0506,473.5475 Q840.3631,471.7506 840.3631,468.6569 Q840.3631,465.5631 842.0506,463.7662 Q843.7538,461.9537 846.6756,461.9537 Q847.8475,461.9537 848.8475,462.2662 Q849.8631,462.5631 850.8944,463.2662 Z " fill="#000000"/><text fill="#000000" font-family="sans-serif" font-size="14" lengthAdjust="spacing" textLength="85.7295" x="860.66" y="473.7067">VeinStorage</text><line style="stroke:#181818;stroke-width:0.5;" x1="832.66" x2="948.3895" y1="484.86" y2="484.86"/><line style="stroke:#181818;stroke-width:0.5;" x1="832.66" x2="948.3895" y1="492.86" y2="492.86"/></g><!--reverse link EventHandler to ModuleEventHandler--><g class="link" data-entity-1="ent0002" data-entity-2="ent0003" data-link-type="extension" data-source-line="46" id="lnk11"><path codeLine="46" d="M673.6994,160.8074 C727.9494,186.2274 771.23,206.5 820.11,229.41" fill="none" id="EventHandler-backto-ModuleEventHandler" style="stroke:#181818;stroke-width:1;"/><polygon fill="none" points="657.4,153.17,671.1536,166.2405,676.2452,155.3743,657.4,153.17" style="stroke:#181818;stroke-width:1;"/></g><!--reverse link EventHandler to EventSystem--><g class="link" data-entity-1="ent0002" data-entity-2="ent0007" data-link-type="aggregation" data-source-line="47" id="lnk12"><path codeLine="47" d="M503.16,165.17 C503.16,193.7 503.16,213.39 503.16,237.59" fill="none" id="EventHandler-backto-EventSystem" style="stroke:#181818;stroke-width:1;"/><polygon fill="none" points="503.16,153.17,499.16,159.17,503.16,165.17,507.16,159.17,503.16,153.17" style="stroke:#181818;stroke-width:1;"/><polygon fill="#000000" points="508.16,196.3464,511.0989,187.3013,505.2211,187.3013,508.16,196.3464" style="stroke:#000000;stroke-width:1;"/><text fill="#000000" font-family="sans-serif" font-size="13" lengthAdjust="spacing" textLength="121.9575" x="517.16" y="195.8469">forwards events to</text><text fill="#000000" font-family="sans-serif" font-size="13" lengthAdjust="spacing" textLength="23.0356" x="478.3292" y="226.9957">0..*</text></g><!--reverse link EventSystem to IntrospectionSystem--><g class="link" data-entity-1="ent0007" data-entity-2="ent0008" data-link-type="extension" data-source-line="50" id="lnk13"><path codeLine="50" d="M342.7163,324.64 C290.6563,342.02 249.59,359.3 200.16,387.67 C173.12,403.2 146.26,425.93 126.47,444.42" fill="none" id="EventSystem-backto-IntrospectionSystem" style="stroke:#181818;stroke-width:1;"/><polygon fill="none" points="359.79,318.94,340.8163,318.9487,344.6163,330.3312,359.79,318.94" style="stroke:#181818;stroke-width:1;"/></g><!--reverse link EventSystem to VeinStorage--><g class="link" data-entity-1="ent0007" data-entity-2="ent0014" data-link-type="extension" data-source-line="51" id="lnk15"><path codeLine="51" d="M649.6941,324.5375 C717.8441,346.7475 776.25,368.22 806.16,387.67 C831.51,404.16 854.75,429.75 870.33,449.12" fill="none" id="EventSystem-backto-VeinStorage" style="stroke:#181818;stroke-width:1;"/><polygon fill="none" points="632.58,318.96,647.8349,330.2422,651.5532,318.8328,632.58,318.96" style="stroke:#181818;stroke-width:1;"/></g><!--reverse link EventSystem to SystemModuleEventSystem--><g class="link" data-entity-1="ent0007" data-entity-2="ent0010" data-link-type="extension" data-source-line="52" id="lnk16"><path codeLine="52" d="M503.16,337.02 C503.16,356.77 503.16,363.48 503.16,387.4" fill="none" id="EventSystem-backto-SystemModuleEventSystem" style="stroke:#181818;stroke-width:1;"/><polygon fill="none" points="503.16,319.02,497.16,337.02,509.16,337.02,503.16,319.02" style="stroke:#181818;stroke-width:1;"/></g><?plantuml-src dLDHQzim47xNhpWwM9smc3sRKXYZiC8A3OQz1iMw96AsP7Jdb2xBVvyiEOcTE0tCBxPyt_VTwRkxefH4yBH5mp-aKIKws0dmp_od9du8WVoT6Alf8r2pfF1D0RArMe5KAZ_yJlhm4tfoGjSEQpGznY_K9h2ox2RPOMMt-7_SeaJfZbHAOkXJZ3N4jWeIoJoyO8hjQm8-dtDQeTWBKGIhNgngIhngs7XDuCsh0Z4VyU-b5qck2U3fS7wjFh-zsLuOomXiwm2CORg7806T0o0T-dRO0ebGmKexOk5R0orN2BaaTh9WA4u3qfKIhqjwRMGPg_3VkQUEEHYmkuFQ_Z058Uqe_cZqis5dgSQ2jJM3r9SQQPhscD-wR9T5ts96SA_50_OzI6QdbmtZhDI_4IhaZLMncRkLnbBjGVkxh96V36j-VrRTe1sYRNTpjawkCSl6wfnwRWVe1c8W4Eq-GfBRUhoWljn4V6J4I6E_RwJnP8_pRKWAQuXXddiRp1e-yyBWMnSRPNUpzoeRFsHHIYLBQqlWHHr-zePP6yrQbleFHlVEir5Cz2fvymK6iNRrZl7sq5FrRWsgE4_lcp_OveU_izd8bWz1rcFklgRfz6wm6Xcih7kJJb5SDl9B28-Yoz21GeAHwRu4tUhk9UFA08j_?></g></svg>