<svg xmlns="http://www.w3.org/2000/svg" xmlns:xlink="http://www.w3.org/1999/xlink" contentStyleType="text/css" data-diagram-type="CLASS" height="303px" preserveAspectRatio="none" style="width:1444px;height:303px;background:#FFFFFF;" version="1.1" viewBox="0 0 1444 303" width="1444px" zoomAndPan="magnify"><defs/><g><!--class EventSystem--><g class="entity" data-entity="EventSystem" data-source-line="2" data-uid="ent0002" id="entity_EventSystem"><rect fill="#F1F1F1" height="86.1358" rx="2.5" ry="2.5" style="stroke:#181818;stroke-width:0.5;" width="278.1949" x="467.98" y="7"/><ellipse cx="564.3206" cy="23" fill="#A9DCDF" rx="11" ry="11" style="stroke:#181818;stroke-width:1;"/><path d="M567.6644,28.25 L566.1956,24.5 L561.7581,24.5 L560.3206,28.25 L558.1956,28.25 L563.1487,15.5313 L564.8987,15.5313 L569.8206,28.25 L567.6644,28.25 Z M564.3206,19.2969 Q564.2737,19.1406 564.1487,18.7813 Q564.0237,18.4219 563.9144,18.0469 Q563.805,17.6563 564.0081,17.5938 Q564.1644,17.7813 564.0706,18.1406 Q563.9769,18.4844 563.8831,18.7813 Q563.7894,19.0625 563.7112,19.2969 L562.4769,22.6094 L565.555,22.6094 L564.3206,19.2969 Z " fill="#000000"/><text fill="#000000" font-family="sans-serif" font-size="14" font-style="italic" lengthAdjust="spacing" textLength="77.0137" x="584.8206" y="28.432">EventSystem</text><line style="stroke:#181818;stroke-width:0.5;" x1="468.98" x2="745.1749" y1="39" y2="39"/><line style="stroke:#181818;stroke-width:0.5;" x1="468.98" x2="745.1749" y1="47" y2="47"/><text fill="#000000" font-family="sans-serif" font-size="14" lengthAdjust="spacing" textLength="266.1949" x="473.98" y="65.9659">signal void sigSendEvent(QEvent *event)</text><text fill="#000000" font-family="sans-serif" font-size="14" font-style="italic" lengthAdjust="spacing" textLength="206.5412" x="473.98" y="85.0339">void processEvent(QEvent *event)</text></g><!--class VfEventSystemCommandFilter--><g class="entity" data-entity="VfEventSystemCommandFilter" data-source-line="7" data-uid="ent0003" id="entity_VfEventSystemCommandFilter"><rect fill="#F1F1F1" height="86.1358" rx="2.5" ry="2.5" style="stroke:#181818;stroke-width:0.5;" width="468.1461" x="7" y="181.74"/><ellipse cx="137.2624" cy="197.74" fill="#ADD1B2" rx="11" ry="11" style="stroke:#181818;stroke-width:1;"/><path d="M137.3718,193.2713 Q136.4499,193.2713 135.7156,193.5838 Q134.9968,193.8963 134.4968,194.49 Q133.9968,195.0681 133.7156,195.9431 Q133.4499,196.8181 133.4499,197.9119 Q133.4499,199.3494 133.8874,200.3963 Q134.3406,201.4431 135.1843,201.99 Q136.0437,202.5369 137.3562,202.5369 Q138.1374,202.5369 138.8249,202.4119 Q139.5281,202.2713 140.5281,201.9588 L140.5281,203.8338 Q139.6687,204.1619 138.9031,204.2869 Q138.1531,204.4119 137.1374,204.4119 Q135.2156,204.4119 133.9031,203.615 Q132.6062,202.8025 131.9499,201.3338 Q131.2937,199.8494 131.2937,197.8806 Q131.2937,196.4588 131.6843,195.2869 Q132.0906,194.0994 132.8718,193.2244 Q133.6531,192.3494 134.7937,191.8806 Q135.9343,191.3963 137.4031,191.3963 Q138.3562,191.3963 139.2468,191.5994 Q140.1531,191.7869 141.0906,192.2556 L140.2624,194.0369 Q139.4812,193.6619 138.8249,193.4744 Q138.1687,193.2713 137.3718,193.2713 Z " fill="#000000"/><text fill="#000000" font-family="sans-serif" font-size="14" lengthAdjust="spacing" textLength="199.1212" x="157.7624" y="203.172">VfEventSystemCommandFilter</text><line style="stroke:#181818;stroke-width:0.5;" x1="8" x2="474.1461" y1="213.74" y2="213.74"/><line style="stroke:#181818;stroke-width:0.5;" x1="8" x2="474.1461" y1="221.74" y2="221.74"/><text fill="#000000" font-family="sans-serif" font-size="14" lengthAdjust="spacing" textLength="138.4875" x="13" y="240.7059">void processEvent(...)</text><text fill="#000000" font-family="sans-serif" font-size="14" font-style="italic" lengthAdjust="spacing" textLength="456.1461" x="13" y="259.7739">void processCommandEvent(VeinEvent::CommandEvent *commandEvent)</text></g><!--class VfCppEntity--><g class="entity" data-entity="VfCppEntity" data-source-line="12" data-uid="ent0004" id="entity_VfCppEntity"><rect fill="#F1F1F1" height="143.3396" rx="2.5" ry="2.5" style="stroke:#181818;stroke-width:0.5;" width="927.569" x="510.29" y="153.14"/><ellipse cx="931.5346" cy="169.14" fill="#ADD1B2" rx="11" ry="11" style="stroke:#181818;stroke-width:1;"/><path d="M931.644,164.6713 Q930.7221,164.6713 929.9878,164.9838 Q929.269,165.2963 928.769,165.89 Q928.269,166.4681 927.9878,167.3431 Q927.7221,168.2181 927.7221,169.3119 Q927.7221,170.7494 928.1596,171.7963 Q928.6128,172.8431 929.4565,173.39 Q930.3159,173.9369 931.6284,173.9369 Q932.4096,173.9369 933.0971,173.8119 Q933.8003,173.6713 934.8003,173.3588 L934.8003,175.2338 Q933.9409,175.5619 933.1753,175.6869 Q932.4253,175.8119 931.4096,175.8119 Q929.4878,175.8119 928.1753,175.015 Q926.8784,174.2025 926.2221,172.7338 Q925.5659,171.2494 925.5659,169.2806 Q925.5659,167.8588 925.9565,166.6869 Q926.3628,165.4994 927.144,164.6244 Q927.9253,163.7494 929.0659,163.2806 Q930.2065,162.7963 931.6753,162.7963 Q932.6284,162.7963 933.519,162.9994 Q934.4253,163.1869 935.3628,163.6556 L934.5346,165.4369 Q933.7534,165.0619 933.0971,164.8744 Q932.4409,164.6713 931.644,164.6713 Z " fill="#000000"/><text fill="#000000" font-family="sans-serif" font-size="14" lengthAdjust="spacing" textLength="76.5797" x="952.0346" y="174.572">VfCppEntity</text><line style="stroke:#181818;stroke-width:0.5;" x1="511.29" x2="1436.859" y1="185.14" y2="185.14"/><line style="stroke:#181818;stroke-width:0.5;" x1="511.29" x2="1436.859" y1="193.14" y2="193.14"/><text fill="#000000" font-family="sans-serif" font-size="14" lengthAdjust="spacing" textLength="138.4875" x="516.29" y="212.1059">void processEvent(...)</text><text fill="#000000" font-family="sans-serif" font-size="14" lengthAdjust="spacing" textLength="720.7875" x="516.29" y="231.1739">VfCppComponent::Ptr createComponent(const QString &amp;name, const QVariant &amp;initval, bool readOnly = false)</text><text fill="#000000" font-family="sans-serif" font-size="14" lengthAdjust="spacing" textLength="915.569" x="516.29" y="250.2418">cVeinModuleRpc::Ptr createRpc(QObject *object, const QString &amp;funcName, const QMap&lt;QString,QString&gt; &amp;parameter, bool thread = true)</text><text fill="#000000" font-family="sans-serif" font-size="14" lengthAdjust="spacing" textLength="110.7116" x="516.29" y="269.3097">void initModule()</text><text fill="#000000" font-family="sans-serif" font-size="14" lengthAdjust="spacing" textLength="747.5831" x="516.29" y="288.3776">signal void sigWatchedComponentChanged(int entityId, const QString &amp;componentName, const QVariant &amp;value)</text></g><!--reverse link EventSystem to VfEventSystemCommandFilter--><g class="link" data-entity-1="EventSystem" data-entity-2="VfEventSystemCommandFilter" data-source-line="21" data-uid="lnk5" id="link_EventSystem_VfEventSystemCommandFilter"><path codeLine="21" d="M500.7916,101.2321 C444.1716,127.9521 387.66,154.63 331.04,181.35" fill="none" id="EventSystem-backto-VfEventSystemCommandFilter" style="stroke:#181818;stroke-width:1;"/><polygon fill="none" points="517.07,93.55,498.2309,95.8059,503.3523,106.6582,517.07,93.55" style="stroke:#181818;stroke-width:1;"/></g><!--reverse link EventSystem to VfCppEntity--><g class="link" data-entity-1="EventSystem" data-entity-2="VfCppEntity" data-source-line="22" data-uid="lnk6" id="link_EventSystem_VfCppEntity"><path codeLine="22" d="M713.6068,101.2141 C751.4968,119.0441 780.31,132.61 823,152.7" fill="none" id="EventSystem-backto-VfCppEntity" style="stroke:#181818;stroke-width:1;"/><polygon fill="none" points="697.32,93.55,711.0521,106.6431,716.1615,95.7852,697.32,93.55" style="stroke:#181818;stroke-width:1;"/></g><!--SRC=[XPB1Ri8m38RlVGgVK4700o2s2sBI3i0O4ZkRn42cDAaIWuGOxxuq3LKdAjQB4_UN_o-sSUVPeM0G6hs7-PaCRowUgO1h1k7pwc1GmzagMPqtP6GKvUiOO41Lw4Vj5LErMwqldHNaVQV-bcMrvNRVCftPea0ZtvHcSedWiTHuF7vgcAhKuYqf4q-JIJiF0z6w_U6PbUNSiEBB_m1H7CgMraI73tOW725Jayo5DPvXlM6dp05w1WiQGafkqIaCC3rb59zH3s5dhOPGGQwCli0Bx55xgir4zPI5bITDdwLecuLhlbxjlYaCSc1ZR2pkllkJ4SkszmBBQVexJF4LUYMw80hTJoXyh6022BjJueZzg81hbhpVjIXVoE98icd3x8ZcG39NuRKKk_ik7nZ5NRtiR59eKCKGHfMr5tNwCnezMQCkRJFYx1S0]--></g></svg>