<?xml version="1.0" encoding="us-ascii" standalone="no"?><svg xmlns="http://www.w3.org/2000/svg" xmlns:xlink="http://www.w3.org/1999/xlink" contentStyleType="text/css" height="303px" preserveAspectRatio="none" style="width:1370px;height:303px;background:#FFFFFF;" version="1.1" viewBox="0 0 1370 303" width="1370px" zoomAndPan="magnify"><defs/><g><!--class EventSystem--><g id="elem_EventSystem"><rect codeLine="2" fill="#F1F1F1" height="86.1358" id="EventSystem" rx="2.5" ry="2.5" style="stroke:#181818;stroke-width:0.5;" width="285" x="448" y="7"/><ellipse cx="547.25" cy="23" fill="#A9DCDF" rx="11" ry="11" style="stroke:#181818;stroke-width:1.0;"/><path d="M550.5938,28.25 L549.125,24.5 L544.6875,24.5 L543.25,28.25 L541.125,28.25 L546.0781,15.5313 L547.8281,15.5313 L552.75,28.25 L550.5938,28.25 Z M547.25,19.2969 Q547.2031,19.1406 547.0781,18.7813 Q546.9531,18.4219 546.8438,18.0469 Q546.7344,17.6563 546.9375,17.5938 Q547.0938,17.7813 547,18.1406 Q546.9063,18.4844 546.8125,18.7813 Q546.7188,19.0625 546.6406,19.2969 L545.4063,22.6094 L548.4844,22.6094 L547.25,19.2969 Z " fill="#000000"/><text fill="#000000" font-family="sans-serif" font-size="14" font-style="italic" lengthAdjust="spacing" textLength="78" x="567.75" y="28.432">EventSystem</text><line style="stroke:#181818;stroke-width:0.5;" x1="449" x2="732" y1="39" y2="39"/><line style="stroke:#181818;stroke-width:0.5;" x1="449" x2="732" y1="47" y2="47"/><text fill="#000000" font-family="sans-serif" font-size="14" lengthAdjust="spacing" textLength="273" x="454" y="65.9659">signal void sigSendEvent(QEvent *event)</text><text fill="#000000" font-family="sans-serif" font-size="14" font-style="italic" lengthAdjust="spacing" textLength="210" x="454" y="85.0339">void processEvent(QEvent *event)</text></g><!--class VfEventSystemCommandFilter--><g id="elem_VfEventSystemCommandFilter"><rect codeLine="7" fill="#F1F1F1" height="86.1358" id="VfEventSystemCommandFilter" rx="2.5" ry="2.5" style="stroke:#181818;stroke-width:0.5;" width="471" x="7" y="181.5"/><ellipse cx="137.75" cy="197.5" fill="#ADD1B2" rx="11" ry="11" style="stroke:#181818;stroke-width:1.0;"/><path d="M137.8594,193.0313 Q136.9375,193.0313 136.2031,193.3438 Q135.4844,193.6563 134.9844,194.25 Q134.4844,194.8281 134.2031,195.7031 Q133.9375,196.5781 133.9375,197.6719 Q133.9375,199.1094 134.375,200.1563 Q134.8281,201.2031 135.6719,201.75 Q136.5313,202.2969 137.8438,202.2969 Q138.625,202.2969 139.3125,202.1719 Q140.0156,202.0313 141.0156,201.7188 L141.0156,203.5938 Q140.1563,203.9219 139.3906,204.0469 Q138.6406,204.1719 137.625,204.1719 Q135.7031,204.1719 134.3906,203.375 Q133.0938,202.5625 132.4375,201.0938 Q131.7813,199.6094 131.7813,197.6406 Q131.7813,196.2188 132.1719,195.0469 Q132.5781,193.8594 133.3594,192.9844 Q134.1406,192.1094 135.2813,191.6406 Q136.4219,191.1563 137.8906,191.1563 Q138.8438,191.1563 139.7344,191.3594 Q140.6406,191.5469 141.5781,192.0156 L140.75,193.7969 Q139.9688,193.4219 139.3125,193.2344 Q138.6563,193.0313 137.8594,193.0313 Z " fill="#000000"/><text fill="#000000" font-family="sans-serif" font-size="14" lengthAdjust="spacing" textLength="201" x="158.25" y="202.932">VfEventSystemCommandFilter</text><line style="stroke:#181818;stroke-width:0.5;" x1="8" x2="477" y1="213.5" y2="213.5"/><line style="stroke:#181818;stroke-width:0.5;" x1="8" x2="477" y1="221.5" y2="221.5"/><text fill="#000000" font-family="sans-serif" font-size="14" lengthAdjust="spacing" textLength="141" x="13" y="240.4659">void processEvent(...)</text><text fill="#000000" font-family="sans-serif" font-size="14" font-style="italic" lengthAdjust="spacing" textLength="459" x="13" y="259.5339">void processCommandEvent(VeinEvent::CommandEvent *commandEvent)</text></g><!--class VfCppEntity--><g id="elem_VfCppEntity"><rect codeLine="12" fill="#F1F1F1" height="143.3396" id="VfCppEntity" rx="2.5" ry="2.5" style="stroke:#181818;stroke-width:0.5;" width="850" x="513.5" y="153"/><ellipse cx="895.25" cy="169" fill="#ADD1B2" rx="11" ry="11" style="stroke:#181818;stroke-width:1.0;"/><path d="M895.3594,164.5313 Q894.4375,164.5313 893.7031,164.8438 Q892.9844,165.1563 892.4844,165.75 Q891.9844,166.3281 891.7031,167.2031 Q891.4375,168.0781 891.4375,169.1719 Q891.4375,170.6094 891.875,171.6563 Q892.3281,172.7031 893.1719,173.25 Q894.0313,173.7969 895.3438,173.7969 Q896.125,173.7969 896.8125,173.6719 Q897.5156,173.5313 898.5156,173.2188 L898.5156,175.0938 Q897.6563,175.4219 896.8906,175.5469 Q896.1406,175.6719 895.125,175.6719 Q893.2031,175.6719 891.8906,174.875 Q890.5938,174.0625 889.9375,172.5938 Q889.2813,171.1094 889.2813,169.1406 Q889.2813,167.7188 889.6719,166.5469 Q890.0781,165.3594 890.8594,164.4844 Q891.6406,163.6094 892.7813,163.1406 Q893.9219,162.6563 895.3906,162.6563 Q896.3438,162.6563 897.2344,162.8594 Q898.1406,163.0469 899.0781,163.5156 L898.25,165.2969 Q897.4688,164.9219 896.8125,164.7344 Q896.1563,164.5313 895.3594,164.5313 Z " fill="#000000"/><text fill="#000000" font-family="sans-serif" font-size="14" lengthAdjust="spacing" textLength="78" x="915.75" y="174.432">VfCppEntity</text><line style="stroke:#181818;stroke-width:0.5;" x1="514.5" x2="1362.5" y1="185" y2="185"/><line style="stroke:#181818;stroke-width:0.5;" x1="514.5" x2="1362.5" y1="193" y2="193"/><text fill="#000000" font-family="sans-serif" font-size="14" lengthAdjust="spacing" textLength="141" x="519.5" y="211.9659">void processEvent(...)</text><text fill="#000000" font-family="sans-serif" font-size="14" lengthAdjust="spacing" textLength="634" x="519.5" y="231.0339">VfCppComponent::Ptr createComponent(QString name, QVariant initval, bool readOnly = false)</text><text fill="#000000" font-family="sans-serif" font-size="14" lengthAdjust="spacing" textLength="838" x="519.5" y="250.1018">cVeinModuleRpc::Ptr createRpc(QObject *object, QString funcName, QMap&lt;QString,QString&gt; parameter, bool thread = true)</text><text fill="#000000" font-family="sans-serif" font-size="14" lengthAdjust="spacing" textLength="113" x="519.5" y="269.1697">void initModule()</text><text fill="#000000" font-family="sans-serif" font-size="14" lengthAdjust="spacing" textLength="664" x="519.5" y="288.2376">signal void sigWatchedComponentChanged(int entityId, QString componentName, QVariant value)</text></g><!--reverse link EventSystem to VfEventSystemCommandFilter--><g id="link_EventSystem_VfEventSystemCommandFilter"><path codeLine="21" d="M488.7922,101.4135 C434.9622,128.0935 381.88,154.41 328.05,181.1 " fill="none" id="EventSystem-backto-VfEventSystemCommandFilter" style="stroke:#181818;stroke-width:1.0;"/><polygon fill="none" points="504.92,93.42,486.1278,96.0376,491.4567,106.7894,504.92,93.42" style="stroke:#181818;stroke-width:1.0;"/></g><!--reverse link EventSystem to VfCppEntity--><g id="link_EventSystem_VfCppEntity"><path codeLine="22" d="M692.2065,101.4161 C728.2265,119.2761 755.01,132.55 795.59,152.66 " fill="none" id="EventSystem-backto-VfCppEntity" style="stroke:#181818;stroke-width:1.0;"/><polygon fill="none" points="676.08,93.42,689.5411,106.7916,694.8718,96.0406,676.08,93.42" style="stroke:#181818;stroke-width:1.0;"/></g><!--SRC=[XPB1Ri8m38RlVGeV2m8U0B5T49Ds0DOXiRD936HAaoWnI8ZnxalJZ1KDiLwSk7_-ptQ2cy0U1OFG60BCZcHuTGfCDPmBY5zGEuCQZbR9PhqY8vEeh5A0FZMXbxHdp6wNLk-y5HJ2NVsbA5haUjk1JcrTev4lIZFvNC5Vgz5ez12ONLhncfH9g_6ucuU-wEnkwfawDpEi-FH_0KaSRPqrYV367eGdPBecosh5NfaT6Anf0DKQlSB8LqRn4VK0DjPgY6VaqkWJFC4MTQ3MNZJ5pwqyQ7fteciVjsMrt7nIlBg-JJ5wPzBsOCIYfStHJN9waECpEFJnRvnmXlE-mKSq-qCcfvwR4bjwsRlt63wGnPxajTNf7isEPAbYUvGc-2f_gn8_iiNj8E8G6cgyWABx_2PVm-63nt5FUxsuuXi0]--></g></svg>