<svg xmlns="http://www.w3.org/2000/svg" xmlns:xlink="http://www.w3.org/1999/xlink" contentStyleType="text/css" data-diagram-type="CLASS" height="303px" preserveAspectRatio="none" style="width:1475px;height:303px;background:#FFFFFF;" version="1.1" viewBox="0 0 1475 303" width="1475px" zoomAndPan="magnify"><defs/><g><!--class EventSystem--><g class="entity" data-entity="EventSystem" data-source-line="2" data-uid="ent0002" id="entity_EventSystem"><rect fill="#F1F1F1" height="86.1358" rx="2.5" ry="2.5" style="stroke:#181818;stroke-width:0.5;" width="278.1949" x="475.98" y="7"/><ellipse cx="572.3206" cy="23" fill="#A9DCDF" rx="11" ry="11" style="stroke:#181818;stroke-width:1;"/><path d="M575.6644,28.25 L574.1956,24.5 L569.7581,24.5 L568.3206,28.25 L566.1956,28.25 L571.1487,15.5313 L572.8987,15.5313 L577.8206,28.25 L575.6644,28.25 Z M572.3206,19.2969 Q572.2737,19.1406 572.1487,18.7813 Q572.0237,18.4219 571.9144,18.0469 Q571.805,17.6563 572.0081,17.5938 Q572.1644,17.7813 572.0706,18.1406 Q571.9769,18.4844 571.8831,18.7813 Q571.7894,19.0625 571.7112,19.2969 L570.4769,22.6094 L573.555,22.6094 L572.3206,19.2969 Z " fill="#000000"/><text fill="#000000" font-family="sans-serif" font-size="14" font-style="italic" lengthAdjust="spacing" textLength="77.0137" x="592.8206" y="28.432">EventSystem</text><line style="stroke:#181818;stroke-width:0.5;" x1="476.98" x2="753.1749" y1="39" y2="39"/><line style="stroke:#181818;stroke-width:0.5;" x1="476.98" x2="753.1749" y1="47" y2="47"/><text fill="#000000" font-family="sans-serif" font-size="14" lengthAdjust="spacing" textLength="266.1949" x="481.98" y="65.9659">signal void sigSendEvent(QEvent *event)</text><text fill="#000000" font-family="sans-serif" font-size="14" font-style="italic" lengthAdjust="spacing" textLength="206.5412" x="481.98" y="85.0339">void processEvent(QEvent *event)</text></g><!--class VfEventSystemCommandFilter--><g class="entity" data-entity="VfEventSystemCommandFilter" data-source-line="7" data-uid="ent0003" id="entity_VfEventSystemCommandFilter"><rect fill="#F1F1F1" height="86.1358" rx="2.5" ry="2.5" style="stroke:#181818;stroke-width:0.5;" width="468.1461" x="7" y="181.74"/><ellipse cx="137.2624" cy="197.74" fill="#ADD1B2" rx="11" ry="11" style="stroke:#181818;stroke-width:1;"/><path d="M137.3718,193.2713 Q136.4499,193.2713 135.7156,193.5838 Q134.9968,193.8963 134.4968,194.49 Q133.9968,195.0681 133.7156,195.9431 Q133.4499,196.8181 133.4499,197.9119 Q133.4499,199.3494 133.8874,200.3963 Q134.3406,201.4431 135.1843,201.99 Q136.0437,202.5369 137.3562,202.5369 Q138.1374,202.5369 138.8249,202.4119 Q139.5281,202.2713 140.5281,201.9588 L140.5281,203.8338 Q139.6687,204.1619 138.9031,204.2869 Q138.1531,204.4119 137.1374,204.4119 Q135.2156,204.4119 133.9031,203.615 Q132.6062,202.8025 131.9499,201.3338 Q131.2937,199.8494 131.2937,197.8806 Q131.2937,196.4588 131.6843,195.2869 Q132.0906,194.0994 132.8718,193.2244 Q133.6531,192.3494 134.7937,191.8806 Q135.9343,191.3963 137.4031,191.3963 Q138.3562,191.3963 139.2468,191.5994 Q140.1531,191.7869 141.0906,192.2556 L140.2624,194.0369 Q139.4812,193.6619 138.8249,193.4744 Q138.1687,193.2713 137.3718,193.2713 Z " fill="#000000"/><text fill="#000000" font-family="sans-serif" font-size="14" lengthAdjust="spacing" textLength="199.1212" x="157.7624" y="203.172">VfEventSystemCommandFilter</text><line style="stroke:#181818;stroke-width:0.5;" x1="8" x2="474.1461" y1="213.74" y2="213.74"/><line style="stroke:#181818;stroke-width:0.5;" x1="8" x2="474.1461" y1="221.74" y2="221.74"/><text fill="#000000" font-family="sans-serif" font-size="14" lengthAdjust="spacing" textLength="138.4875" x="13" y="240.7059">void processEvent(...)</text><text fill="#000000" font-family="sans-serif" font-size="14" font-style="italic" lengthAdjust="spacing" textLength="456.1461" x="13" y="259.7739">void processCommandEvent(VeinEvent::CommandEvent *commandEvent)</text></g><!--class VfCppEntity--><g class="entity" data-entity="VfCppEntity" data-source-line="12" data-uid="ent0004" id="entity_VfCppEntity"><rect fill="#F1F1F1" height="143.3396" rx="2.5" ry="2.5" style="stroke:#181818;stroke-width:0.5;" width="957.9489" x="510.1" y="153.14"/><ellipse cx="946.5346" cy="169.14" fill="#ADD1B2" rx="11" ry="11" style="stroke:#181818;stroke-width:1;"/><path d="M946.644,164.6713 Q945.7221,164.6713 944.9877,164.9838 Q944.269,165.2963 943.769,165.89 Q943.269,166.4681 942.9877,167.3431 Q942.7221,168.2181 942.7221,169.3119 Q942.7221,170.7494 943.1596,171.7963 Q943.6127,172.8431 944.4565,173.39 Q945.3158,173.9369 946.6283,173.9369 Q947.4096,173.9369 948.0971,173.8119 Q948.8002,173.6713 949.8002,173.3588 L949.8002,175.2338 Q948.9408,175.5619 948.1752,175.6869 Q947.4252,175.8119 946.4096,175.8119 Q944.4877,175.8119 943.1752,175.015 Q941.8783,174.2025 941.2221,172.7338 Q940.5658,171.2494 940.5658,169.2806 Q940.5658,167.8588 940.9565,166.6869 Q941.3627,165.4994 942.144,164.6244 Q942.9252,163.7494 944.0658,163.2806 Q945.2065,162.7963 946.6752,162.7963 Q947.6283,162.7963 948.519,162.9994 Q949.4252,163.1869 950.3627,163.6556 L949.5346,165.4369 Q948.7533,165.0619 948.0971,164.8744 Q947.4408,164.6713 946.644,164.6713 Z " fill="#000000"/><text fill="#000000" font-family="sans-serif" font-size="14" lengthAdjust="spacing" textLength="76.5797" x="967.0346" y="174.572">VfCppEntity</text><line style="stroke:#181818;stroke-width:0.5;" x1="511.1" x2="1467.0489" y1="185.14" y2="185.14"/><line style="stroke:#181818;stroke-width:0.5;" x1="511.1" x2="1467.0489" y1="193.14" y2="193.14"/><text fill="#000000" font-family="sans-serif" font-size="14" lengthAdjust="spacing" textLength="138.4875" x="516.1" y="212.1059">void processEvent(...)</text><text fill="#000000" font-family="sans-serif" font-size="14" lengthAdjust="spacing" textLength="621.8077" x="516.1" y="231.1739">VfCppComponent::Ptr createComponent(QString name, QVariant initval, bool readOnly = false)</text><text fill="#000000" font-family="sans-serif" font-size="14" lengthAdjust="spacing" textLength="945.9489" x="516.1" y="250.2418">cVeinModuleRpcMultithreadBlocked::Ptr createRpc(QObject *object, QString funcName, QMap&lt;QString,QString&gt; parameter, bool thread = true)</text><text fill="#000000" font-family="sans-serif" font-size="14" lengthAdjust="spacing" textLength="110.7116" x="516.1" y="269.3097">void initModule()</text><text fill="#000000" font-family="sans-serif" font-size="14" lengthAdjust="spacing" textLength="648.6034" x="516.1" y="288.3776">signal void sigWatchedComponentChanged(int entityId, QString componentName, QVariant value)</text></g><!--reverse link EventSystem to VfEventSystemCommandFilter--><g class="link" data-entity-1="EventSystem" data-entity-2="VfEventSystemCommandFilter" data-source-line="21" data-uid="lnk5" id="link_EventSystem_VfEventSystemCommandFilter"><path codeLine="21" d="M506.7589,101.0977 C448.9089,127.8177 390.86,154.63 333.01,181.35" fill="none" id="EventSystem-backto-VfEventSystemCommandFilter" style="stroke:#181818;stroke-width:1;"/><polygon fill="none" points="523.1,93.55,504.243,95.6507,509.2748,106.5447,523.1,93.55" style="stroke:#181818;stroke-width:1;"/></g><!--reverse link EventSystem to VfCppEntity--><g class="link" data-entity-1="EventSystem" data-entity-2="VfCppEntity" data-source-line="22" data-uid="lnk6" id="link_EventSystem_VfCppEntity"><path codeLine="22" d="M723.3817,101.0965 C761.9917,118.9265 791.62,132.61 835.12,152.7" fill="none" id="EventSystem-backto-VfCppEntity" style="stroke:#181818;stroke-width:1;"/><polygon fill="none" points="707.04,93.55,720.8661,106.5438,725.8972,95.6493,707.04,93.55" style="stroke:#181818;stroke-width:1;"/></g><!--SRC=[XPB1Ri8m38RlVGeV2m8U0B4TXfYq0x0EYPrDOY1RcaH9YeGOxxuqoLZH4El5gVlN_nVRk77U8lF093e7imCflpewJpMS2WYF4pk54WvQyFQy8iMZgAnYW3wreHUr9ypLpablh6Rat4tzkIYIvNhRCPtgkaR5duNqP3F1trAZqUYkOQwIn6iIAfx6usuU-gppTiKpDMQclF37_m6YE9GrMaM7Ls-1MK9FbsHPhRmLQWSAQnf0jKOhCFWB9Vm1vG0sMai8__2baaTuW2rAHwayQ-7dcZUItWoRDp9GxLlfazJiatZNC0ZAQhdve33Cleunk6NlRQFO8ldFqKnoUf3Z8nYquMleUSP9BW76soQpn2wqq8cdxDrQZtVqR4_ySldf7jMEU2d2XIdsz8N_Kh4VsUAwDQ4jhMiOIT5ToCdNS7XdNMvfBwCilW40]--></g></svg>