<svg xmlns="http://www.w3.org/2000/svg" xmlns:xlink="http://www.w3.org/1999/xlink" contentStyleType="text/css" data-diagram-type="CLASS" height="303px" preserveAspectRatio="none" style="width:1345px;height:303px;background:#FFFFFF;" version="1.1" viewBox="0 0 1345 303" width="1345px" zoomAndPan="magnify"><defs/><g><!--class EventSystem--><g class="entity" data-entity="EventSystem" data-source-line="2" data-uid="ent0002" id="entity_EventSystem"><rect fill="#F1F1F1" height="86.1358" rx="2.5" ry="2.5" style="stroke:#181818;stroke-width:0.5;" width="278.1949" x="442.98" y="7"/><ellipse cx="539.3206" cy="23" fill="#A9DCDF" rx="11" ry="11" style="stroke:#181818;stroke-width:1;"/><path d="M542.6644,28.25 L541.1956,24.5 L536.7581,24.5 L535.3206,28.25 L533.1956,28.25 L538.1487,15.5313 L539.8987,15.5313 L544.8206,28.25 L542.6644,28.25 Z M539.3206,19.2969 Q539.2737,19.1406 539.1487,18.7813 Q539.0237,18.4219 538.9144,18.0469 Q538.805,17.6563 539.0081,17.5938 Q539.1644,17.7813 539.0706,18.1406 Q538.9769,18.4844 538.8831,18.7813 Q538.7894,19.0625 538.7112,19.2969 L537.4769,22.6094 L540.555,22.6094 L539.3206,19.2969 Z " fill="#000000"/><text fill="#000000" font-family="sans-serif" font-size="14" font-style="italic" lengthAdjust="spacing" textLength="77.0137" x="559.8206" y="28.432">EventSystem</text><line style="stroke:#181818;stroke-width:0.5;" x1="443.98" x2="720.1749" y1="39" y2="39"/><line style="stroke:#181818;stroke-width:0.5;" x1="443.98" x2="720.1749" y1="47" y2="47"/><text fill="#000000" font-family="sans-serif" font-size="14" lengthAdjust="spacing" textLength="266.1949" x="448.98" y="65.9659">signal void sigSendEvent(QEvent *event)</text><text fill="#000000" font-family="sans-serif" font-size="14" font-style="italic" lengthAdjust="spacing" textLength="206.5412" x="448.98" y="85.0339">void processEvent(QEvent *event)</text></g><!--class VfEventSystemCommandFilter--><g class="entity" data-entity="VfEventSystemCommandFilter" data-source-line="7" data-uid="ent0003" id="entity_VfEventSystemCommandFilter"><rect fill="#F1F1F1" height="86.1358" rx="2.5" ry="2.5" style="stroke:#181818;stroke-width:0.5;" width="468.1461" x="7" y="181.74"/><ellipse cx="137.2624" cy="197.74" fill="#ADD1B2" rx="11" ry="11" style="stroke:#181818;stroke-width:1;"/><path d="M137.3718,193.2713 Q136.4499,193.2713 135.7156,193.5838 Q134.9968,193.8963 134.4968,194.49 Q133.9968,195.0681 133.7156,195.9431 Q133.4499,196.8181 133.4499,197.9119 Q133.4499,199.3494 133.8874,200.3963 Q134.3406,201.4431 135.1843,201.99 Q136.0437,202.5369 137.3562,202.5369 Q138.1374,202.5369 138.8249,202.4119 Q139.5281,202.2713 140.5281,201.9588 L140.5281,203.8338 Q139.6687,204.1619 138.9031,204.2869 Q138.1531,204.4119 137.1374,204.4119 Q135.2156,204.4119 133.9031,203.615 Q132.6062,202.8025 131.9499,201.3338 Q131.2937,199.8494 131.2937,197.8806 Q131.2937,196.4588 131.6843,195.2869 Q132.0906,194.0994 132.8718,193.2244 Q133.6531,192.3494 134.7937,191.8806 Q135.9343,191.3963 137.4031,191.3963 Q138.3562,191.3963 139.2468,191.5994 Q140.1531,191.7869 141.0906,192.2556 L140.2624,194.0369 Q139.4812,193.6619 138.8249,193.4744 Q138.1687,193.2713 137.3718,193.2713 Z " fill="#000000"/><text fill="#000000" font-family="sans-serif" font-size="14" lengthAdjust="spacing" textLength="199.1212" x="157.7624" y="203.172">VfEventSystemCommandFilter</text><line style="stroke:#181818;stroke-width:0.5;" x1="8" x2="474.1461" y1="213.74" y2="213.74"/><line style="stroke:#181818;stroke-width:0.5;" x1="8" x2="474.1461" y1="221.74" y2="221.74"/><text fill="#000000" font-family="sans-serif" font-size="14" lengthAdjust="spacing" textLength="138.4875" x="13" y="240.7059">void processEvent(...)</text><text fill="#000000" font-family="sans-serif" font-size="14" font-style="italic" lengthAdjust="spacing" textLength="456.1461" x="13" y="259.7739">void processCommandEvent(VeinEvent::CommandEvent *commandEvent)</text></g><!--class VfCppEntity--><g class="entity" data-entity="VfCppEntity" data-source-line="12" data-uid="ent0004" id="entity_VfCppEntity"><rect fill="#F1F1F1" height="143.3396" rx="2.5" ry="2.5" style="stroke:#181818;stroke-width:0.5;" width="828.5892" x="509.78" y="153.14"/><ellipse cx="881.5348" cy="169.14" fill="#ADD1B2" rx="11" ry="11" style="stroke:#181818;stroke-width:1;"/><path d="M881.6441,164.6713 Q880.7223,164.6713 879.9879,164.9838 Q879.2691,165.2963 878.7691,165.89 Q878.2691,166.4681 877.9879,167.3431 Q877.7223,168.2181 877.7223,169.3119 Q877.7223,170.7494 878.1598,171.7963 Q878.6129,172.8431 879.4566,173.39 Q880.316,173.9369 881.6285,173.9369 Q882.4098,173.9369 883.0973,173.8119 Q883.8004,173.6713 884.8004,173.3588 L884.8004,175.2338 Q883.941,175.5619 883.1754,175.6869 Q882.4254,175.8119 881.4098,175.8119 Q879.4879,175.8119 878.1754,175.015 Q876.8785,174.2025 876.2223,172.7338 Q875.566,171.2494 875.566,169.2806 Q875.566,167.8588 875.9566,166.6869 Q876.3629,165.4994 877.1441,164.6244 Q877.9254,163.7494 879.066,163.2806 Q880.2066,162.7963 881.6754,162.7963 Q882.6285,162.7963 883.5191,162.9994 Q884.4254,163.1869 885.3629,163.6556 L884.5348,165.4369 Q883.7535,165.0619 883.0973,164.8744 Q882.441,164.6713 881.6441,164.6713 Z " fill="#000000"/><text fill="#000000" font-family="sans-serif" font-size="14" lengthAdjust="spacing" textLength="76.5797" x="902.0348" y="174.572">VfCppEntity</text><line style="stroke:#181818;stroke-width:0.5;" x1="510.78" x2="1337.3692" y1="185.14" y2="185.14"/><line style="stroke:#181818;stroke-width:0.5;" x1="510.78" x2="1337.3692" y1="193.14" y2="193.14"/><text fill="#000000" font-family="sans-serif" font-size="14" lengthAdjust="spacing" textLength="138.4875" x="515.78" y="212.1059">void processEvent(...)</text><text fill="#000000" font-family="sans-serif" font-size="14" lengthAdjust="spacing" textLength="621.8077" x="515.78" y="231.1739">VfCppComponent::Ptr createComponent(QString name, QVariant initval, bool readOnly = false)</text><text fill="#000000" font-family="sans-serif" font-size="14" lengthAdjust="spacing" textLength="816.5892" x="515.78" y="250.2418">cVeinModuleRpc::Ptr createRpc(QObject *object, QString funcName, QMap&lt;QString,QString&gt; parameter, bool thread = true)</text><text fill="#000000" font-family="sans-serif" font-size="14" lengthAdjust="spacing" textLength="110.7116" x="515.78" y="269.3097">void initModule()</text><text fill="#000000" font-family="sans-serif" font-size="14" lengthAdjust="spacing" textLength="648.6034" x="515.78" y="288.3776">signal void sigWatchedComponentChanged(int entityId, QString componentName, QVariant value)</text></g><!--reverse link EventSystem to VfEventSystemCommandFilter--><g class="link" data-entity-1="EventSystem" data-entity-2="VfEventSystemCommandFilter" data-source-line="21" data-uid="lnk5" id="link_EventSystem_VfEventSystemCommandFilter"><path codeLine="21" d="M482.1625,101.6838 C429.4125,128.4038 377.64,154.63 324.9,181.35" fill="none" id="EventSystem-backto-VfEventSystemCommandFilter" style="stroke:#181818;stroke-width:1;"/><polygon fill="none" points="498.22,93.55,479.4513,96.3313,484.8738,107.0362,498.22,93.55" style="stroke:#181818;stroke-width:1;"/></g><!--reverse link EventSystem to VfCppEntity--><g class="link" data-entity-1="EventSystem" data-entity-2="VfCppEntity" data-source-line="22" data-uid="lnk6" id="link_EventSystem_VfCppEntity"><path codeLine="22" d="M682.2377,101.6635 C717.5477,119.4935 743.51,132.61 783.29,152.7" fill="none" id="EventSystem-backto-VfCppEntity" style="stroke:#181818;stroke-width:1;"/><polygon fill="none" points="666.17,93.55,679.5332,107.0194,684.9422,96.3076,666.17,93.55" style="stroke:#181818;stroke-width:1;"/></g><!--SRC=[XPB1Ri8m38RlVGeV2m8U0B5T49Ds0DOXiRD936HAaoWnI8ZnxalJZ1KDiLwSk7_-ptQ2cy0U1OFG60BCZcHuTGfCDPmBY5zGEuCQZbR9PhqY8vEeh5A0FZMXbxHdp6wNLk-y5HJ2NVsbA5haUjk1JcrTev4lIZFvNC5Vgz5ez12ONLhncfH9g_6ucuU-wEnkwfawDpEi-FH_0KaSRPqrYV367eGdPBecosh5NfaT6Anf0DKQlSB8LqRn4VK0DjPgY6VaqkWJFC4MTQ3MNZJ5pwqyQ7fteciVjsMrt7nIlBg-JJ5wPzBsOCIYfStHJN9waECpEFJnRvnmXlE-mKSq-qCcfvwR4bjwsRlt63wGnPxajTNf7isEPAbYUvGc-2f_gn8_iiNj8E8G6cgyWABx_2PVm-63nt5FUxsuuXi0]--></g></svg>