<?plantuml 1.2026.2?><svg xmlns="http://www.w3.org/2000/svg" xmlns:xlink="http://www.w3.org/1999/xlink" contentStyleType="text/css" data-diagram-type="CLASS" height="284px" preserveAspectRatio="none" style="width:1585px;height:284px;background:#FFFFFF;" version="1.1" viewBox="0 0 1585 284" width="1585px" zoomAndPan="magnify"><defs/><g><!--class EventSystem--><g class="entity" data-qualified-name="EventSystem" data-source-line="2" id="ent0002"><rect fill="#F1F1F1" height="80.5938" rx="2.5" ry="2.5" style="stroke:#181818;stroke-width:0.5;" width="300.75" x="526.2" y="7"/><ellipse cx="626.1688" cy="23" fill="#A9DCDF" rx="11" ry="11" style="stroke:#181818;stroke-width:1;"/><path d="M626.7469,18.2656 L624.8406,23.3906 L628.6531,23.3906 L626.7469,18.2656 Z M625.6063,15.5781 L627.8875,15.5781 L632.8094,28.5 L630.4969,28.5 L629.3563,25.3281 L624.1531,25.3281 L623.0281,28.5 L620.6844,28.5 L625.6063,15.5781 Z " fill="#000000"/><text fill="#000000" font-family="sans-serif" font-size="14" font-style="italic" lengthAdjust="spacing" textLength="92.3125" x="646.6688" y="27.8467">EventSystem</text><line style="stroke:#181818;stroke-width:0.5;" x1="527.2" x2="825.95" y1="39" y2="39"/><line style="stroke:#181818;stroke-width:0.5;" x1="527.2" x2="825.95" y1="47" y2="47"/><text fill="#000000" font-family="sans-serif" font-size="14" lengthAdjust="spacing" textLength="288.75" x="532.2" y="63.9951">signal void sigSendEvent(QEvent *event)</text><text fill="#000000" font-family="sans-serif" font-size="14" font-style="italic" lengthAdjust="spacing" textLength="241.6641" x="532.2" y="80.292">void processEvent(QEvent *event)</text></g><!--class VfEventSystemCommandFilter--><g class="entity" data-qualified-name="VfEventSystemCommandFilter" data-source-line="7" id="ent0003"><rect fill="#F1F1F1" height="80.5938" rx="2.5" ry="2.5" style="stroke:#181818;stroke-width:0.5;" width="537.1572" x="7" y="172.04"/><ellipse cx="164.0967" cy="188.04" fill="#ADD1B2" rx="11" ry="11" style="stroke:#181818;stroke-width:1;"/><path d="M168.3311,182.4462 L168.3311,184.9619 Q167.0811,183.8056 166.1592,183.4306 Q165.2529,183.0556 164.2217,183.0556 Q162.2217,183.0556 161.1592,184.2744 Q160.0967,185.4775 160.0967,187.8369 Q160.0967,190.1962 161.1592,191.415 Q162.2217,192.6181 164.2217,192.6181 Q165.2529,192.6181 166.1592,192.2431 Q167.0811,191.8681 168.3311,190.7119 L168.3311,193.2119 Q167.2842,193.915 166.2686,194.2275 Q165.2686,194.5244 164.1123,194.5244 Q161.1904,194.5244 159.4873,192.7275 Q157.7998,190.9306 157.7998,187.8369 Q157.7998,184.7431 159.4873,182.9462 Q161.1904,181.1337 164.1123,181.1337 Q165.2842,181.1337 166.2842,181.4462 Q167.2998,181.7431 168.3311,182.4462 Z " fill="#000000"/><text fill="#000000" font-family="sans-serif" font-size="14" lengthAdjust="spacing" textLength="214.4639" x="184.5967" y="192.8867">VfEventSystemCommandFilter</text><line style="stroke:#181818;stroke-width:0.5;" x1="8" x2="543.1572" y1="204.04" y2="204.04"/><line style="stroke:#181818;stroke-width:0.5;" x1="8" x2="543.1572" y1="212.04" y2="212.04"/><text fill="#000000" font-family="sans-serif" font-size="14" lengthAdjust="spacing" textLength="152.5645" x="13" y="229.0351">void processEvent(...)</text><text fill="#000000" font-family="sans-serif" font-size="14" font-style="italic" lengthAdjust="spacing" textLength="525.1572" x="13" y="245.332">void processCommandEvent(VeinEvent::CommandEvent *commandEvent)</text></g><!--class VfCppEntity--><g class="entity" data-qualified-name="VfCppEntity" data-source-line="12" id="ent0004"><rect fill="#F1F1F1" height="129.4844" rx="2.5" ry="2.5" style="stroke:#181818;stroke-width:0.5;" width="999.1846" x="578.99" y="147.6"/><ellipse cx="1032.8689" cy="163.6" fill="#ADD1B2" rx="11" ry="11" style="stroke:#181818;stroke-width:1;"/><path d="M1037.1033,158.0063 L1037.1033,160.5219 Q1035.8533,159.3656 1034.9314,158.9906 Q1034.0252,158.6156 1032.9939,158.6156 Q1030.9939,158.6156 1029.9314,159.8344 Q1028.8689,161.0375 1028.8689,163.3969 Q1028.8689,165.7563 1029.9314,166.975 Q1030.9939,168.1781 1032.9939,168.1781 Q1034.0252,168.1781 1034.9314,167.8031 Q1035.8533,167.4281 1037.1033,166.2719 L1037.1033,168.7719 Q1036.0564,169.475 1035.0408,169.7875 Q1034.0408,170.0844 1032.8845,170.0844 Q1029.9627,170.0844 1028.2595,168.2875 Q1026.572,166.4906 1026.572,163.3969 Q1026.572,160.3031 1028.2595,158.5063 Q1029.9627,156.6938 1032.8845,156.6938 Q1034.0564,156.6938 1035.0564,157.0063 Q1036.072,157.3031 1037.1033,158.0063 Z " fill="#000000"/><text fill="#000000" font-family="sans-serif" font-size="14" lengthAdjust="spacing" textLength="82.9268" x="1053.3689" y="168.4467">VfCppEntity</text><line style="stroke:#181818;stroke-width:0.5;" x1="579.99" x2="1577.1746" y1="179.6" y2="179.6"/><line style="stroke:#181818;stroke-width:0.5;" x1="579.99" x2="1577.1746" y1="187.6" y2="187.6"/><text fill="#000000" font-family="sans-serif" font-size="14" lengthAdjust="spacing" textLength="152.5645" x="584.99" y="204.5951">void processEvent(...)</text><text fill="#000000" font-family="sans-serif" font-size="14" lengthAdjust="spacing" textLength="776.4873" x="584.99" y="220.892">VfCppComponent::Ptr createComponent(const QString &amp;name, const QVariant &amp;initval, bool readOnly = false)</text><text fill="#000000" font-family="sans-serif" font-size="14" lengthAdjust="spacing" textLength="987.1846" x="584.99" y="237.1889">cVeinModuleRpc::Ptr createRpc(QObject *object, const QString &amp;funcName, const QMap&lt;QString,QString&gt; &amp;parameter, bool thread = true)</text><text fill="#000000" font-family="sans-serif" font-size="14" lengthAdjust="spacing" textLength="118.0498" x="584.99" y="253.4857">void initModule()</text><text fill="#000000" font-family="sans-serif" font-size="14" lengthAdjust="spacing" textLength="799.6201" x="584.99" y="269.7826">signal void sigWatchedComponentChanged(int entityId, const QString &amp;componentName, const QVariant &amp;value)</text></g><!--reverse link EventSystem to VfEventSystemCommandFilter--><g class="link" data-entity-1="ent0002" data-entity-2="ent0003" data-link-type="extension" data-source-line="21" id="lnk5"><path codeLine="21" d="M562.0652,94.8588 C499.5852,120.2588 435.56,146.29 373.13,171.68" fill="none" id="EventSystem-backto-VfEventSystemCommandFilter" style="stroke:#181818;stroke-width:1;"/><polygon fill="none" points="578.74,88.08,559.8056,89.3005,564.3248,100.4171,578.74,88.08" style="stroke:#181818;stroke-width:1;"/></g><!--reverse link EventSystem to VfCppEntity--><g class="link" data-entity-1="ent0002" data-entity-2="ent0004" data-link-type="extension" data-source-line="22" id="lnk6"><path codeLine="22" d="M791.3401,94.8457 C835.1501,112.6157 871.22,127.24 920.38,147.18" fill="none" id="EventSystem-backto-VfCppEntity" style="stroke:#181818;stroke-width:1;"/><polygon fill="none" points="774.66,88.08,789.0849,100.4057,793.5953,89.2857,774.66,88.08" style="stroke:#181818;stroke-width:1;"/></g><?plantuml-src XPB1Ri8m38RlVGgVK4700o2s2sBI3i0O4ZkRn42cDAaIWuGOxxuq3LKdAjQB4_UN_o-sSUVPeM0G6hs7-PaCRowUgO1h1k7pwc1GmzagMPqtP6GKvUiOO41Lw4Vj5LErMwqldHNaVQV-bcMrvNRVCftPea0ZtvHcSedWiTHuF7vgcAhKuYqf4q-JIJiF0z6w_U6PbUNSiEBB_m1H7CgMraI73tOW725Jayo5DPvXlM6dp05w1WiQGafkqIaCC3rb59zH3s5dhOPGGQwCli0Bx55xgir4zPI5bITDdwLecuLhlbxjlYaCSc1ZR2pkllkJ4SkszmBBQVexJF4LUYMw80hTJoXyh6022BjJueZzg81hbhpVjIXVoE98icd3x8ZcG39NuRKKk_ik7nZ5NRtiR59eKCKGHfMr5tNwCnezMQCkRJFYx1S0?></g></svg>