<svg xmlns="http://www.w3.org/2000/svg" xmlns:xlink="http://www.w3.org/1999/xlink" contentStyleType="text/css" height="303px" preserveAspectRatio="none" style="width:1370px;height:303px;background:#FFFFFF;" version="1.1" viewBox="0 0 1370 303" width="1370px" zoomAndPan="magnify"><defs/><g><!--class EventSystem--><g id="elem_EventSystem"><rect codeLine="2" fill="#F1F1F1" height="86.1358" id="EventSystem" rx="2.5" ry="2.5" style="stroke:#181818;stroke-width:0.5;" width="285" x="448" y="7"/><ellipse cx="547.25" cy="23" fill="#A9DCDF" rx="11" ry="11" style="stroke:#181818;stroke-width:1.0;"/><path d="M550.5938,28.25 L549.125,24.5 L544.6875,24.5 L543.25,28.25 L541.125,28.25 L546.0781,15.5313 L547.8281,15.5313 L552.75,28.25 L550.5938,28.25 Z M547.25,19.2969 Q547.2031,19.1406 547.0781,18.7813 Q546.9531,18.4219 546.8438,18.0469 Q546.7344,17.6563 546.9375,17.5938 Q547.0938,17.7813 547,18.1406 Q546.9063,18.4844 546.8125,18.7813 Q546.7188,19.0625 546.6406,19.2969 L545.4063,22.6094 L548.4844,22.6094 L547.25,19.2969 Z " fill="#000000"/><text fill="#000000" font-family="sans-serif" font-size="14" font-style="italic" lengthAdjust="spacing" textLength="78" x="567.75" y="28.432">EventSystem</text><line style="stroke:#181818;stroke-width:0.5;" x1="449" x2="732" y1="39" y2="39"/><line style="stroke:#181818;stroke-width:0.5;" x1="449" x2="732" y1="47" y2="47"/><text fill="#000000" font-family="sans-serif" font-size="14" lengthAdjust="spacing" textLength="273" x="454" y="65.9659">signal void sigSendEvent(QEvent *event)</text><text fill="#000000" font-family="sans-serif" font-size="14" font-style="italic" lengthAdjust="spacing" textLength="210" x="454" y="85.0339">void processEvent(QEvent *event)</text></g><!--class VfEventSystemCommandFilter--><g id="elem_VfEventSystemCommandFilter"><rect codeLine="7" fill="#F1F1F1" height="86.1358" id="VfEventSystemCommandFilter" rx="2.5" ry="2.5" style="stroke:#181818;stroke-width:0.5;" width="471" x="7" y="181.74"/><ellipse cx="137.75" cy="197.74" fill="#ADD1B2" rx="11" ry="11" style="stroke:#181818;stroke-width:1.0;"/><path d="M137.8594,193.2713 Q136.9375,193.2713 136.2031,193.5838 Q135.4844,193.8963 134.9844,194.49 Q134.4844,195.0681 134.2031,195.9431 Q133.9375,196.8181 133.9375,197.9119 Q133.9375,199.3494 134.375,200.3963 Q134.8281,201.4431 135.6719,201.99 Q136.5313,202.5369 137.8438,202.5369 Q138.625,202.5369 139.3125,202.4119 Q140.0156,202.2713 141.0156,201.9588 L141.0156,203.8338 Q140.1563,204.1619 139.3906,204.2869 Q138.6406,204.4119 137.625,204.4119 Q135.7031,204.4119 134.3906,203.615 Q133.0938,202.8025 132.4375,201.3338 Q131.7813,199.8494 131.7813,197.8806 Q131.7813,196.4588 132.1719,195.2869 Q132.5781,194.0994 133.3594,193.2244 Q134.1406,192.3494 135.2813,191.8806 Q136.4219,191.3963 137.8906,191.3963 Q138.8438,191.3963 139.7344,191.5994 Q140.6406,191.7869 141.5781,192.2556 L140.75,194.0369 Q139.9688,193.6619 139.3125,193.4744 Q138.6563,193.2713 137.8594,193.2713 Z " fill="#000000"/><text fill="#000000" font-family="sans-serif" font-size="14" lengthAdjust="spacing" textLength="201" x="158.25" y="203.172">VfEventSystemCommandFilter</text><line style="stroke:#181818;stroke-width:0.5;" x1="8" x2="477" y1="213.74" y2="213.74"/><line style="stroke:#181818;stroke-width:0.5;" x1="8" x2="477" y1="221.74" y2="221.74"/><text fill="#000000" font-family="sans-serif" font-size="14" lengthAdjust="spacing" textLength="141" x="13" y="240.7059">void processEvent(...)</text><text fill="#000000" font-family="sans-serif" font-size="14" font-style="italic" lengthAdjust="spacing" textLength="459" x="13" y="259.7739">void processCommandEvent(VeinEvent::CommandEvent *commandEvent)</text></g><!--class VfCppEntity--><g id="elem_VfCppEntity"><rect codeLine="12" fill="#F1F1F1" height="143.3396" id="VfCppEntity" rx="2.5" ry="2.5" style="stroke:#181818;stroke-width:0.5;" width="850" x="513.5" y="153.14"/><ellipse cx="895.25" cy="169.14" fill="#ADD1B2" rx="11" ry="11" style="stroke:#181818;stroke-width:1.0;"/><path d="M895.3594,164.6713 Q894.4375,164.6713 893.7031,164.9838 Q892.9844,165.2963 892.4844,165.89 Q891.9844,166.4681 891.7031,167.3431 Q891.4375,168.2181 891.4375,169.3119 Q891.4375,170.7494 891.875,171.7963 Q892.3281,172.8431 893.1719,173.39 Q894.0313,173.9369 895.3438,173.9369 Q896.125,173.9369 896.8125,173.8119 Q897.5156,173.6713 898.5156,173.3588 L898.5156,175.2338 Q897.6563,175.5619 896.8906,175.6869 Q896.1406,175.8119 895.125,175.8119 Q893.2031,175.8119 891.8906,175.015 Q890.5938,174.2025 889.9375,172.7338 Q889.2813,171.2494 889.2813,169.2806 Q889.2813,167.8588 889.6719,166.6869 Q890.0781,165.4994 890.8594,164.6244 Q891.6406,163.7494 892.7813,163.2806 Q893.9219,162.7963 895.3906,162.7963 Q896.3438,162.7963 897.2344,162.9994 Q898.1406,163.1869 899.0781,163.6556 L898.25,165.4369 Q897.4688,165.0619 896.8125,164.8744 Q896.1563,164.6713 895.3594,164.6713 Z " fill="#000000"/><text fill="#000000" font-family="sans-serif" font-size="14" lengthAdjust="spacing" textLength="78" x="915.75" y="174.572">VfCppEntity</text><line style="stroke:#181818;stroke-width:0.5;" x1="514.5" x2="1362.5" y1="185.14" y2="185.14"/><line style="stroke:#181818;stroke-width:0.5;" x1="514.5" x2="1362.5" y1="193.14" y2="193.14"/><text fill="#000000" font-family="sans-serif" font-size="14" lengthAdjust="spacing" textLength="141" x="519.5" y="212.1059">void processEvent(...)</text><text fill="#000000" font-family="sans-serif" font-size="14" lengthAdjust="spacing" textLength="634" x="519.5" y="231.1739">VfCppComponent::Ptr createComponent(QString name, QVariant initval, bool readOnly = false)</text><text fill="#000000" font-family="sans-serif" font-size="14" lengthAdjust="spacing" textLength="838" x="519.5" y="250.2418">cVeinModuleRpc::Ptr createRpc(QObject *object, QString funcName, QMap&lt;QString,QString&gt; parameter, bool thread = true)</text><text fill="#000000" font-family="sans-serif" font-size="14" lengthAdjust="spacing" textLength="113" x="519.5" y="269.3097">void initModule()</text><text fill="#000000" font-family="sans-serif" font-size="14" lengthAdjust="spacing" textLength="664" x="519.5" y="288.3776">signal void sigWatchedComponentChanged(int entityId, QString componentName, QVariant value)</text></g><!--reverse link EventSystem to VfEventSystemCommandFilter--><g id="link_EventSystem_VfEventSystemCommandFilter"><path codeLine="21" d="M488.797,101.5531 C434.967,128.2731 381.88,154.63 328.05,181.35 " fill="none" id="EventSystem-backto-VfEventSystemCommandFilter" style="stroke:#181818;stroke-width:1.0;"/><polygon fill="none" points="504.92,93.55,486.1293,96.1788,491.4647,106.9274,504.92,93.55" style="stroke:#181818;stroke-width:1.0;"/></g><!--reverse link EventSystem to VfCppEntity--><g id="link_EventSystem_VfCppEntity"><path codeLine="22" d="M692.203,101.5531 C728.123,119.3831 754.77,132.61 795.25,152.7 " fill="none" id="EventSystem-backto-VfCppEntity" style="stroke:#181818;stroke-width:1.0;"/><polygon fill="none" points="676.08,93.55,689.5353,106.9275,694.8707,96.1788,676.08,93.55" style="stroke:#181818;stroke-width:1.0;"/></g><!--SRC=[XPB1Ri8m38RlVGeV2m8U0B5T49Ds0DOXiRD936HAaoWnI8ZnxalJZ1KDiLwSk7_-ptQ2cy0U1OFG60BCZcHuTGfCDPmBY5zGEuCQZbR9PhqY8vEeh5A0FZMXbxHdp6wNLk-y5HJ2NVsbA5haUjk1JcrTev4lIZFvNC5Vgz5ez12ONLhncfH9g_6ucuU-wEnkwfawDpEi-FH_0KaSRPqrYV367eGdPBecosh5NfaT6Anf0DKQlSB8LqRn4VK0DjPgY6VaqkWJFC4MTQ3MNZJ5pwqyQ7fteciVjsMrt7nIlBg-JJ5wPzBsOCIYfStHJN9waECpEFJnRvnmXlE-mKSq-qCcfvwR4bjwsRlt63wGnPxajTNf7isEPAbYUvGc-2f_gn8_iiNj8E8G6cgyWABx_2PVm-63nt5FUxsuuXi0]--></g></svg>